<?xml version="1.0" encoding="UTF-8"?>
<svg width="139px" height="52px" viewBox="0 0 139 52" version="1.1" xmlns="http://www.w3.org/2000/svg" xmlns:xlink="http://www.w3.org/1999/xlink">
    <!-- Generator: Sketch 53 (72520) - https://sketchapp.com -->
    <title>kissme copy</title>
    <desc>Created with Sketch.</desc>
    <g id="Page-1" stroke="none" stroke-width="1" fill="none" fill-rule="evenodd">
        <g id="Testimonials" transform="translate(-517.000000, -923.000000)" fill="#000000">
            <g id="kissme-copy" transform="translate(517.000000, 923.000000)">
                <path d="M9.5605633,20.7061754 C10.0270418,14.5228617 10.4002995,7.82373853 10.9596245,0.843743891 C10.9596245,0.843743891 11.0528453,0 11.3328822,0 C12.0790232,0 13.5252563,0.890806803 13.6649004,1.59336196 C13.1984218,6.51200104 13.058029,12.3677568 13.058029,18.270952 L13.058029,22.4866595 L13.4780843,22.721221 C21.6860097,18.9731307 31.6662539,9.0417267 36.8896153,2.01429264 C36.8896153,2.01429264 37.402517,1.3588004 37.6361306,1.3588004 C37.7293515,1.3588004 37.6825539,1.49923613 37.7293515,1.73379769 C37.8221979,1.87385691 38.0558115,2.10841847 38.0558115,2.71760081 C38.0558115,3.04553518 37.9154187,3.70102742 37.8221979,3.93558897 C34.231137,12.6960677 25.3238682,21.1752985 16.9762988,25.2972566 C26.2100276,32.8868101 35.2576892,45.722184 42.8591176,45.722184 C46.4033809,45.722184 49.2947241,44.0828886 51.6267423,41.7402851 C51.6267423,41.7402851 51.7663864,41.6935987 51.8596072,41.6935987 C51.9067792,41.6935987 52,41.7402851 52,41.8340345 C52,41.8810974 52,41.9281603 51.9532024,41.9740937 C51.4870983,43.0523991 49.2018777,46.2850564 49.1550801,46.3317428 C48.2689206,49.6107101 43.6516818,52 40.6671178,52 C32.5524133,52 23.1318684,35.2757235 13.8977652,26.656057 L13.1519986,26.9369285 C13.2452194,32.8868101 13.4312867,38.5083808 13.5252563,42.6770253 C13.5252563,43.8483271 13.4312867,43.9891393 12.7323177,43.9891393 C12.4522808,43.9891393 12.1261951,44.2233244 11.8457839,44.2233244 C11.4725262,44.2233244 10.7263852,43.0523991 10.6335388,42.9586498 C10.6335388,42.9586498 10.4467227,43.2395213 10.2606555,43.2395213 C9.09408478,43.2395213 7.97506048,40.1009898 7.97506048,39.1171867 C8.34831817,35.6974072 8.72120147,31.9026305 9.04766156,27.8269823 C8.53475982,27.8744217 8.11507891,27.9211081 7.64860039,27.9211081 C3.31139846,27.9211081 0,25.109758 0,22.8145938 C0,21.2216084 1.58625158,19.9102474 5.456975,19.9102474 C6.80961295,19.9102474 8.20829974,20.1907424 9.5605633,20.7061754 M1.16657067,22.4866595 C1.16657067,23.2362775 3.9178954,24.2671436 7.64860039,24.2671436 C8.16150213,24.2671436 8.72120147,24.2200807 9.32769842,24.1263313 C9.32769842,23.798397 9.37412164,23.5175255 9.37412164,23.2362775 C7.74182122,22.2520979 6.06309757,21.690355 4.47759475,21.690355 C2.14557655,21.690355 1.16657067,22.0179129 1.16657067,22.4866595" id="Fill-1"></path>
                <path d="M46.4341044,27.6897507 C45.9200193,28.6545396 45.2652175,30.9536266 44.2843282,33.3905406 C41.8534938,39.3677234 39.2354124,42.2177488 37.2721327,42.2177488 C35.3092283,42.2177488 34,39.4593617 34,34.2182414 C34,30.218303 34.7017074,25.8041447 35.1688869,23.8272698 C35.1688869,23.8272698 35.3557587,23.2297732 35.7298775,23.2297732 C36.5242703,23.2297732 37.3190383,23.1839541 38.5813611,22.9079306 C39.1419765,22.9079306 39.1419765,23.2759619 39.1419765,23.2759619 C37.9273098,29.9422796 37.2721327,32.6090283 37.2721327,37.2064633 C37.2721327,39.275346 37.5997212,40.1950547 38.2072422,40.1950547 C39.2354124,40.1950547 41.0118202,37.390479 43.0685357,32.7010362 C45.1252513,28.0574125 46.1065159,22.8621114 46.2472326,20.9310557 C46.3406685,19.9197087 48.3504784,19.0458192 49.0521858,19.0458192 C49.192152,19.0458192 49.4255542,19.0920078 49.4255542,19.2760235 C49.4255542,19.3214731 48.7245973,22.310434 48.7245973,25.8507028 C48.7245973,27.7352004 49.799673,29.8506413 50.7344072,32.0115318 C53.4459246,30.218303 56.0167252,28.3792551 56.5308103,26.5402072 C56.5308103,26.5402072 56.1566914,25.1150098 56.1566914,23.4137889 C56.1566914,22.6319071 56.2508778,21.7587566 56.4842799,20.9310557 C56.7176821,20.0575357 58.727492,19 60.1305315,19 C60.2704977,19 60.3639336,19.0458192 60.5046504,19.0458192 C60.6446166,19.0458192 60.8780187,19.0920078 60.8780187,19.2760235 C60.8780187,19.3214731 59.6160712,22.310434 58.8213032,24.5175132 C58.7747728,24.9768133 58.7747728,25.4826716 58.7747728,25.9423411 C58.7747728,30.2644917 62,33.8960293 62,37.8501486 C62,41.1147634 59.4288241,43 57.0918009,43 C55.2219572,43 53.5393605,41.7580792 53.5393605,38.9993226 C53.5393605,36.7929824 54.4275644,34.5400841 56.1566914,34.5400841 C56.7176821,34.5400841 56.7176821,34.7695494 56.7176821,34.8161075 C56.1566914,35.5972502 55.5026401,37.3446598 55.5026401,38.7236686 C55.5026401,40.1034164 56.1566914,40.6550938 56.9049291,40.6550938 C57.9330993,40.6550938 59.1019861,39.5979277 59.1019861,38.263999 C59.1019861,34.8161075 57.4190142,31.7813275 56.8114932,28.5629013 C55.1750516,30.494696 53.1183361,32.0115318 51.2488676,33.2527136 C51.7164223,34.4942649 52.0901659,35.7350772 52.0901659,36.9308094 C52.0901659,40.3328817 49.7531427,42.0341026 47.602616,42.0341026 C45.8265834,42.0341026 44.1439867,40.83874 44.1439867,38.4476451 C44.1439867,36.8391711 46.0134552,35.2754076 48.2570425,33.666564 C47.5564609,31.1380117 46.4341044,28.5170821 46.4341044,27.7352004 L46.4341044,27.6897507 Z M46.8082232,39.4135425 C48.3039481,39.4135425 48.8649388,38.401826 48.8649388,36.9766285 C48.8649388,36.379132 48.7715029,35.6892581 48.6311614,34.9997537 C46.9016591,36.1492972 45.6866172,37.1151945 45.6866172,38.1716217 C45.6866172,38.9535034 46.2007022,39.4135425 46.8082232,39.4135425 L46.8082232,39.4135425 Z" id="Fill-4"></path>
                <path d="M73.1892918,25.4898112 C73.3761919,25.4898112 73.5634673,25.5831622 73.5634673,25.7694891 C73.5634673,25.8159771 73.5634673,25.863215 73.4696419,26.0030539 C71.2726278,29.1278733 70.3373768,32.4866324 70.3373768,35.5657135 C70.3373768,41.4430733 73.7503674,46.2943226 78.1916836,46.2943226 C91.9363451,46.2943226 100.866265,2.53935314 100.539003,3.2857857 C100.866265,2.58584115 101.848054,2.25930034 102.829842,2.25930034 C104.138518,2.25930034 105.447569,2.81940593 105.447569,3.89200441 C105.447569,10.002554 105.120306,18.1660744 105.120306,25.0699195 C105.120306,32.7198222 105.494106,38.7842587 106.990058,38.7842587 C109.982335,38.7842587 116.481054,8.65027766 120.73547,1.18632696 C120.782007,1.09335093 120.969658,1 121.062733,1 C121.202345,1 121.29617,1.09335093 121.483821,1.32654081 C121.763796,1.69994455 123.119759,3.09870893 123.961185,3.65881452 C124.475348,4.03184335 124.662248,4.4517351 124.662248,4.91811486 C124.662248,5.19816766 124.568798,5.52470847 124.475348,5.8977373 C123.493559,9.21000836 122.231421,17.6996946 122.231421,25.723376 C122.231421,32.906899 123.212459,39.7166434 126.251649,42.1895058 C126.532375,42.4226957 126.859262,42.7492365 126.953087,42.8890755 C127,42.9355635 127,42.9820515 127,43.0292893 C127,43.1691283 126.859262,43.2156163 126.672362,43.2156163 C126.532375,43.2156163 126.391637,43.1691283 126.298562,43.1226403 C126.298562,43.1226403 126.158199,43.3554552 125.830936,43.3554552 C124.148085,43.3554552 119.286056,40.7903665 118.023542,34.72593 C117.135204,30.5273875 116.855229,26.9358134 116.855229,23.5770544 C116.855229,20.5913241 117.088667,17.8395336 117.322479,15.0405052 C117.322479,15.0405052 117.275942,14.8541782 117.182117,14.8541782 C117.135204,14.8541782 117.088667,14.9006662 117.041754,14.9940172 C115.965765,17.5594808 111.9932,33.046738 108.58021,39.8103692 C107.551884,41.862965 106.382445,42.9355635 105.307582,42.9355635 C100.632077,42.9355635 100.164827,28.0552748 100.164827,19.5652137 C100.164827,16.3935314 100.211365,12.8480704 100.352103,8.97644357 C98.9023135,12.2890895 93.5261216,49 77.8640455,49 C72.4878536,49 68,44.2421016 68,37.7112854 C68,34.0732233 69.4025012,29.8743058 72.768579,25.6296502 C72.862029,25.5362992 73.0493044,25.4898112 73.1892918,25.4898112" id="Fill-6"></path>
                <path d="M136.731062,34.5908902 C136.731062,33.7891058 136.589135,32.939533 136.305281,32.0425509 C136.305281,31.995521 136.305281,31.7596128 136.87223,31.7596128 C138.621274,31.7596128 139,33.6942874 139,35.3460239 C139,38.6965269 136.400152,42 132.902064,42 C128.032519,42 126,37.7058643 126,32.9865629 C126,27.2762195 128.977815,21 133.563505,21 C135.691275,21 136.87223,22.5572974 136.87223,24.7282595 C136.87223,27.6539761 134.698923,31.6177645 129.734507,34.4494212 C130.018741,38.3661796 131.436874,39.8764471 132.996555,39.8764471 C134.839712,39.8764471 136.731062,37.6584551 136.731062,34.5908902 M133.421958,23.7372176 C131.342383,23.7372176 129.781942,28.2672615 129.687071,32.4673373 C131.578801,31.192978 134.131214,26.9462515 134.131214,24.6338204 C134.131214,24.2090339 133.941851,23.7372176 133.421958,23.7372176" id="Fill-8"></path>
                <path d="M43.9246721,16.7086838 C43.8970181,16.7188834 43.8697378,16.6675566 43.9048658,16.6517637 C43.9403676,16.6362998 43.9198139,16.5356203 43.9048658,16.5152211 C43.8906651,16.494493 43.875717,16.5201564 43.8435786,16.5461489 C43.8106928,16.5714832 43.778928,16.5639158 43.781544,16.5461489 C43.7845336,16.5277238 43.8200353,16.5201564 43.8637585,16.4915318 C43.9082291,16.4632363 43.8873018,16.4530367 43.8637585,16.42178 C43.8402153,16.3908523 43.834236,16.3938134 43.8308727,16.3938134 C43.826762,16.3938134 43.7527689,16.42178 43.6907342,16.458301 C43.6290733,16.494493 43.6350526,16.4425081 43.6645751,16.4168447 C43.6937239,16.3908523 43.7494055,16.3961166 43.8106928,16.3599246 C43.8727274,16.3237326 43.7729488,16.3082687 43.7258623,16.2645093 C43.6787758,16.2204209 43.6761598,16.2204209 43.6163674,16.1842289 C43.5569487,16.1483659 43.5494747,16.2023249 43.4672601,16.2460843 C43.4269002,16.2677995 43.403357,16.276354 43.3805611,16.2881986 C43.3809348,16.2835924 43.3809348,16.2786571 43.3805611,16.2743799 C43.4153154,16.2523356 43.4571701,16.222066 43.5319106,16.186861 C43.6526166,16.1299409 43.6174885,16.114477 43.587966,16.0835493 C43.5588172,16.0526216 43.5434954,16.0164296 43.5206996,15.9881341 C43.4971563,15.9595095 43.473613,15.9572064 43.4556753,15.9674059 C43.438485,15.9779345 43.344312,16.0473573 43.2415437,16.1118449 C43.2202427,16.1253346 43.2052946,16.1348762 43.1952046,16.1407985 C43.1881043,16.1447467 43.1817513,16.1483659 43.1753984,16.1523141 C43.1727825,16.1516561 43.1828724,16.1417855 43.1765195,16.1381663 C43.1686717,16.132573 43.1824987,16.1177672 43.2094053,16.0927618 C43.2310801,16.0878266 43.254997,16.0805882 43.2800351,16.0657823 C43.3046995,16.0516346 43.3005888,16.040777 43.2848932,16.0299194 C43.3331009,15.9937274 43.3936407,15.9591805 43.4620283,15.9262786 C43.5468587,15.8848224 43.438485,15.8927188 43.4205473,15.8693585 C43.4029833,15.8459982 43.3798137,15.8410629 43.3409486,15.8150705 C43.3032047,15.7887491 43.2856406,15.8515915 43.2415437,15.8848224 C43.2251008,15.896996 43.1933361,15.9160791 43.1555922,15.9397684 C43.1443811,15.932201 43.1309278,15.9243045 43.1073845,15.9101568 C43.1690454,15.8617911 43.2191216,15.8223089 43.2325749,15.8124384 C43.2706925,15.7841428 43.2912462,15.7634147 43.2942358,15.7479508 C43.2972254,15.7324869 43.2561181,15.6805021 43.2150109,15.6416779 C43.1739036,15.6031828 43.0771146,15.5775194 43.0475921,15.551527 C43.0184433,15.5255345 43.0535713,15.4946068 43.0475921,15.4584148 C43.0416129,15.4225518 43.0184433,15.4225518 42.9829416,15.3962304 C42.9478135,15.370567 42.9242703,15.3554321 42.8891422,15.3073955 C42.8536405,15.2590298 42.8891422,15.2879834 42.8891422,15.2366566 C42.8891422,15.1850007 42.8420557,15.1797364 42.8360765,15.1642726 C42.8300972,15.1488087 42.7594674,15.117552 42.7359242,15.0918886 C42.7123809,15.0658962 42.6716473,15.0402327 42.6301663,14.9780483 C42.5894328,14.9158639 42.5894328,14.9263925 42.5658895,14.8750656 C42.5427199,14.8234098 42.5247822,14.8234098 42.4605054,14.7872178 C42.3954811,14.7510258 42.4605054,14.7562901 42.3368098,14.7046342 C42.2131143,14.6526494 42.283744,14.6579136 42.283744,14.5802654 C42.283744,14.5029461 41.8061522,14.1311556 41.7766297,14.1051631 C41.7478546,14.0794997 41.6435915,13.9880327 41.6338753,13.9745429 C41.624159,13.9603952 41.6148164,13.9501956 41.5576399,13.9156487 C41.5008372,13.8814308 41.5165327,13.8899853 41.4634669,13.8472129 C41.4104011,13.8037825 41.4324496,13.7935829 41.3853631,13.740611 C41.3382765,13.6869811 41.3128648,13.6971806 41.2833423,13.6869811 C41.2538197,13.6764525 41.1708578,13.61361 41.1678682,13.6070297 C41.1652522,13.6004493 41.0770584,13.5435291 41.0770584,13.5435291 L40.9929754,13.4895702 C40.9929754,13.4895702 40.9713006,13.4698291 40.9372937,13.4569974 C40.9040341,13.4444947 40.8745116,13.4155411 40.8610583,13.4053415 C40.8483525,13.395142 40.7702486,13.3809942 40.7508161,13.3550017 C40.7317573,13.3293383 40.7332521,13.3372348 40.6962555,13.3342736 C40.6596327,13.3316415 40.621515,13.3072941 40.603951,13.2855789 C40.5863869,13.2635347 40.5811551,13.2724182 40.5426637,13.2789986 C40.5041724,13.2855789 40.4626914,13.2595865 40.4309267,13.2411615 C40.3987883,13.2233945 40.3913142,13.2345811 40.3692658,13.2543222 C40.347591,13.2737343 40.3517017,13.26847 40.3031204,13.2773535 C40.2844353,13.2809727 40.2698609,13.2826178 40.2586498,13.2849209 C40.2410858,13.2803146 40.2343591,13.2891981 40.2182899,13.3026879 C40.1984837,13.3204548 40.2025944,13.3155196 40.1592449,13.323416 C40.1517709,13.3250611 40.1454179,13.3263772 40.1394387,13.3273642 C40.1315909,13.3197968 40.1267328,13.3151905 40.1140269,13.3138745 C40.0983314,13.3119004 40.0426497,13.340854 40.0138746,13.3224289 C39.9686566,13.2944624 39.986968,13.3188097 39.94175,13.3329575 C39.9006427,13.3461183 39.8460821,13.3615821 39.8408503,13.360266 C39.8079645,13.3500665 39.8057223,13.3875745 39.7702205,13.3691495 C39.7350925,13.3513825 39.7291132,13.3717817 39.7010855,13.3846134 C39.6730579,13.3977741 39.6020544,13.4063286 39.5605734,13.396129 C39.5194661,13.3856004 39.4959228,13.3701366 39.4585526,13.3839553 C39.4219297,13.3977741 39.368864,13.377375 39.3453207,13.359608 C39.3217774,13.3424991 39.3139297,13.3494084 39.2556321,13.3286803 C39.1965871,13.3079521 39.1947186,13.3132164 39.161459,13.2944624 C39.1278258,13.2757084 39.1240888,13.2770244 39.0751337,13.2648508 C39.0261787,13.2530061 39.0183309,13.2460967 38.9828292,13.2187882 C38.9477012,13.1911507 38.9454589,13.1878605 38.9006146,13.1737127 C38.8557703,13.159894 38.8169053,13.1496944 38.7716872,13.123702 C38.7264692,13.0980386 38.5792304,13.0634917 38.5441024,13.032564 C38.509348,13.0016362 38.3602407,13.0180872 38.3366974,13.0052554 C38.3131542,12.9920947 38.1461091,13.0052554 38.1079915,13.0269706 C38.0695001,13.0493439 37.9902752,13.0282867 37.9525312,13.051318 C37.9140398,13.0750073 37.8198668,13.0904711 37.7821228,13.105935 C37.7432578,13.1213989 37.6318944,13.1523266 37.6083511,13.1727257 C37.5851816,13.1934538 37.5145518,13.213853 37.4943718,13.2092467 C37.4734445,13.2036534 37.3736659,13.2760374 37.3206001,13.2813017 C37.2679081,13.286566 37.1004893,13.3586209 37.0735827,13.3823103 C37.0474236,13.4053415 37.0212644,13.4208054 36.9599772,13.4362692 C36.8979425,13.4520621 36.8628145,13.503718 36.8063854,13.5162206 C36.7510774,13.5293814 36.7480878,13.5267492 36.7159494,13.5501095 C36.683811,13.5731408 36.5365721,13.6326931 36.5190081,13.6484859 C36.5014441,13.6632918 36.4162399,13.7198829 36.3635479,13.7353467 C36.3104821,13.7508106 36.3224406,13.7560749 36.289181,13.7902928 C36.2559215,13.8245107 36.2656378,13.8228656 36.195008,13.8472129 C36.1243782,13.8709022 35.7559075,14.0949636 35.6908832,14.10286 C35.6262327,14.1104274 35.4263018,14.2604597 35.4121011,14.2936905 C35.397153,14.3275794 35.2357135,14.4075308 35.2181495,14.4259558 C35.2002117,14.4437228 34.9247929,14.556247 34.8657479,14.6042837 C34.8070766,14.6526494 34.7637271,14.6631779 34.7854019,14.681932 C34.8070766,14.700686 34.8365991,14.7477356 34.8070766,14.7316137 C34.7775541,14.7168079 34.7540109,14.7062793 34.7188828,14.7046342 C34.6833811,14.7026601 34.6149935,14.7562901 34.5525852,14.790508 C34.4901768,14.8247259 34.447201,14.8892134 34.4262737,14.9211282 C34.4060938,14.953701 34.4576647,14.9767322 34.5103568,15.0155564 C34.5249312,15.026414 34.54399,15.0402327 34.5637963,15.0547095 C34.5537063,15.062606 34.547727,15.0737926 34.5552011,15.0869533 C34.5574433,15.0922176 34.5600592,15.0964949 34.5626751,15.1011011 C34.5305367,15.0757667 34.4841976,15.0458261 34.4531803,15.0142403 C34.4206682,14.9823256 34.4001145,14.9615974 34.3911457,14.9625845 C34.3825505,14.9639005 34.3563913,14.9859448 34.3399484,15.0037117 C34.3238792,15.0224658 34.3029519,15.0297042 34.3193948,15.0428649 C34.335464,15.0556966 34.4105782,15.1590083 34.3986197,15.1590083 C34.3870349,15.1590083 34.2868826,15.0504323 34.262592,15.0362845 C34.2371802,15.0224658 34.2431594,15.0244399 34.2282113,15.0362845 C34.2136369,15.0481292 34.2155055,15.0764247 34.2315747,15.0909015 C34.2472702,15.1047203 34.2988411,15.1524279 34.3193948,15.1935552 C34.3399484,15.2343535 34.2988411,15.2027677 34.2842667,15.1935552 C34.2693186,15.1840137 34.2196162,15.1011011 34.2080314,15.0895855 C34.1960729,15.0777408 34.1900937,15.0747797 34.1785089,15.0895855 C34.1665504,15.1037333 34.0858307,15.1642726 34.0858307,15.1642726 C34.0858307,15.1642726 34.1112424,15.1807235 34.1273116,15.1981615 C34.1433809,15.2142834 34.1844881,15.2698874 34.1900937,15.2945638 C34.1960729,15.3189111 34.1575816,15.3037763 34.1415123,15.2853513 C34.1254431,15.2675843 34.0727511,15.2195476 34.0548133,15.2116512 C34.0372493,15.2040838 33.9860521,15.2281021 34.0036161,15.2596879 C34.0727511,15.3837277 34.1052632,15.4225518 34.1927096,15.4946068 C34.2809034,15.5669908 34.2868826,15.5462627 34.2958515,15.5255345 C34.3044467,15.5048064 34.2667027,15.4538086 34.2229795,15.3962304 C34.1785089,15.3393103 34.2282113,15.3580643 34.2633394,15.3807665 C34.2988411,15.4044558 34.3137892,15.4844073 34.3608758,15.5594234 C34.4075886,15.6341105 34.4632703,15.6446391 34.6336786,15.6805021 C34.8037133,15.7170231 34.839215,15.6910307 34.8541632,15.660103 C34.8683638,15.6291752 34.8365991,15.6133824 34.7861493,15.5462627 C34.7364468,15.479143 34.6777755,15.4406478 34.6011665,15.3656317 C34.5249312,15.2906156 34.630689,15.3373361 34.6833811,15.3761603 C34.7364468,15.4146554 35.0156027,15.7657178 35.0802532,15.7634147 C35.1449038,15.7607825 35.1766685,15.7785495 35.2002117,15.7038624 C35.223755,15.6291752 35.1946062,15.6495744 35.1505093,15.5284957 C35.1374297,15.4916457 35.1329453,15.4728916 35.1348138,15.4656532 C35.1392982,15.4663113 35.1441563,15.4672983 35.1486408,15.4682854 C35.160973,15.479472 35.1774159,15.5031613 35.188627,15.5205993 C35.2147861,15.5617265 35.206191,15.6186467 35.2297342,15.696295 C35.2532775,15.7739432 35.2854159,15.7683499 35.338108,15.7555182 C35.3911738,15.7426865 35.5002949,15.7634147 35.6348278,15.7739432 C35.6957414,15.7778915 35.7230216,15.7769044 35.7342327,15.7749303 C35.751423,15.7742723 35.7686134,15.769995 35.7932777,15.7637437 C35.8194369,15.7739432 35.8470909,15.7502539 35.9139837,15.7578213 C36.0021775,15.7683499 36.0582328,15.7502539 36.1845443,15.7426865 C36.2286412,15.7400544 36.2465789,15.7344611 36.2510634,15.7259066 C36.3015132,15.7104427 36.4599631,15.6755668 36.5466621,15.6275302 C36.6456933,15.5732422 36.7499563,15.5847578 36.7903162,15.5857449 C36.7974165,15.5870609 36.8033958,15.5870609 36.8082539,15.5860739 C36.8968214,15.588706 37.249223,15.5923252 37.4797974,15.480459 C37.7327941,15.3583933 38.0325036,15.4561117 38.2320607,15.3498388 C38.2978324,15.3146339 38.3815418,15.3212143 38.4686145,15.3458906 C38.4734726,15.3488518 38.4790781,15.352142 38.4835626,15.3554321 C38.5183169,15.3761603 38.5429813,15.3804375 38.5803515,15.3860308 C38.7208637,15.4452541 38.8512859,15.5294827 38.9054728,15.5429725 C38.9731129,15.5600814 39.2470369,15.5804806 39.4820958,15.5567913 C39.4985388,15.5551462 39.5153554,15.552843 39.5317983,15.5508689 C39.6084073,15.5433015 39.7066911,15.5426435 39.82366,15.5857449 C39.9675355,15.6397038 40.0471341,15.6943208 40.233238,15.7805236 C40.2493072,15.7894071 40.267245,15.7976325 40.2889197,15.8048709 C40.475771,15.8815322 40.7422209,15.9489809 40.8995497,15.9947144 C40.9671899,16.0266292 41.0198819,16.059531 41.0662211,16.1078967 C41.0729477,16.131586 41.1095706,16.1562623 41.1559097,16.1973896 C41.1914114,16.2279883 41.5740829,16.440205 41.6551763,16.4737649 C41.6667611,16.4813323 41.6925466,16.4925189 41.7231902,16.5046926 C41.8386643,16.5639158 41.9283529,16.6366288 42.0105675,16.657028 C42.0501799,16.6668985 42.2183461,16.7600107 42.2340416,16.7679071 L42.2818755,16.7909384 C42.3218617,16.8093634 42.4657372,16.8593741 42.4896542,16.8662835 C42.5060971,16.8702317 42.5131974,16.8718768 42.5296403,16.874509 C42.5430936,16.8774701 42.5617788,16.8817474 42.595412,16.8893148 C42.6716473,16.9074108 42.7919795,16.9541314 42.8215021,16.9228746 C42.8510246,16.8919469 42.8973637,16.8893148 42.8973637,16.9097139 C42.8973637,16.9304421 42.8712045,16.9564345 42.8861526,16.9880202 C42.900727,17.019277 42.9508031,16.9797948 43.0064848,16.9771626 C43.0621665,16.9748595 43.0711354,16.9666341 43.1301804,16.9357063 C43.1881043,16.9047786 43.2265956,16.8840505 43.3032047,16.8455554 C43.3798137,16.8064022 43.4055992,16.8064022 43.473613,16.765604 C43.5408795,16.7241477 43.608146,16.7109869 43.722499,16.6777561 C43.8375994,16.6438672 43.7344574,16.7086838 43.6907342,16.7188834 C43.6466373,16.729412 43.4149417,16.8327237 43.3562704,16.8580581 C43.2972254,16.8840505 43.1473707,16.9824269 43.170914,16.9873622 C43.1944572,16.9926265 43.3327272,16.9541314 43.4672601,16.9386675 C43.6025404,16.9228746 43.7318415,16.8639804 43.8375994,16.8119955 C43.9433572,16.7603397 43.99007,16.7524432 43.9990389,16.7346763 C44.0080077,16.7162512 43.9519523,16.6984843 43.9246721,16.7086838 M34.9064815,14.9974604 C34.9019971,14.9974604 34.8840594,14.9803514 34.8623846,14.9602813 C34.8683638,14.955017 34.8780801,14.9560041 34.890786,14.9655456 C34.9027445,14.9836416 34.9105922,14.9974604 34.9064815,14.9974604 M35.1676996,14.9931831 C35.1748,15.0000925 35.1759211,15.0046988 35.1733052,15.008647 C35.1703155,15.0046988 35.1676996,15.0017376 35.1650837,14.9977894 C35.160973,14.9915381 35.158357,14.9866028 35.1561148,14.9823256 C35.160973,14.9866028 35.16471,14.989893 35.1676996,14.9931831 M35.1374297,15.2284311 C35.1538726,15.2304052 35.1748,15.2402758 35.1871321,15.2455401 C35.2117965,15.2554106 35.2196443,15.2718615 35.2259972,15.3113437 C35.199838,15.2827191 35.1703155,15.2580428 35.1374297,15.2284311 M35.4943157,15.0527354 C35.4831046,15.0366135 35.4827309,15.0198336 35.4969316,15.0046988 C35.4991738,15.0099631 35.5010423,15.0148983 35.5021634,15.0178595 C35.505153,15.0280591 35.507769,15.0527354 35.4943157,15.0527354 M35.5440181,15.0932047 L35.5440181,15.0925466 C35.52907,15.0405618 35.5772776,15.0616189 35.6026894,15.0724765 C35.605679,15.0839922 35.6082949,15.0964949 35.6112846,15.1093266 C35.6322119,15.1869748 35.6008209,15.1293967 35.5440181,15.0932047 M35.8074784,15.1011011 C35.7603919,15.0204917 35.7603919,15.0593158 35.716295,15.0066729 C35.6718244,14.95403 35.6254853,14.9056643 35.5884887,14.8540085 C35.5638243,14.8191325 35.5832569,14.8204486 35.6086687,14.8385446 C35.6516444,14.917838 35.6404334,14.9132317 35.7174161,14.9790354 C35.8018729,15.0504323 35.8112154,15.0573417 35.8194369,15.1073525 C35.8198106,15.1122877 35.8201843,15.117223 35.8201843,15.1218292 C35.8160736,15.1152489 35.8123366,15.1086685 35.8074784,15.1011011 M35.9745235,14.9783773 C35.9722813,14.9734421 35.970039,14.9681778 35.9670494,14.9625845 C35.9479906,14.9254054 35.9278106,14.8832911 35.9091255,14.8431509 C35.91361,14.8411768 35.9177207,14.8388736 35.9229525,14.8375576 C35.966302,14.8211067 35.966302,14.881317 35.9853608,14.9530429 C35.9961982,14.9941702 35.9909664,14.9931831 35.9745235,14.9783773 M36.1860391,15.2027677 C36.1654855,15.1524279 36.1524059,15.1284096 36.1430633,15.1076815 C36.1643644,15.1422284 36.1901499,15.1748012 36.2230357,15.2004646 C36.2252779,15.2096771 36.2275201,15.2192186 36.2308834,15.2304052 C36.2469526,15.2840352 36.2275201,15.3070665 36.1860391,15.2027677 M36.7039909,15.2550816 C36.6808213,15.2383017 36.6654995,15.2248119 36.6445722,15.207703 C36.6326137,15.1961874 36.6251397,15.189936 36.6113127,15.1810525 C36.5926275,15.1669047 36.5690843,15.1501248 36.5369458,15.1284096 C36.4928489,15.099127 36.4719216,15.0790569 36.4569735,15.0599738 C36.4536102,15.0504323 36.4502468,15.0385877 36.4457624,15.0244399 C36.413624,14.9260634 36.3680323,14.8247259 36.409887,14.8671692 C36.4420254,14.9211282 36.4741638,14.9944992 36.5350773,15.0382586 C36.5503991,15.0764247 36.5425514,15.0846502 36.6072019,15.1205132 C36.6483092,15.1425574 36.6647521,15.1455186 36.677458,15.1520989 L36.6957694,15.1678918 C36.7021224,15.1757882 36.7103438,15.1876329 36.7215549,15.2057289 C36.7536933,15.2557396 36.7802262,15.2787709 36.7910636,15.2965379 C36.7615411,15.2827191 36.7252919,15.2692294 36.7039909,15.2550816 M38.377431,14.8694723 C38.3751888,14.8619049 38.3733203,14.8533504 38.3680885,14.8336093 C38.3658462,14.8253839 38.3647251,14.8155133 38.3624829,14.8039977 C38.3688359,14.8122232 38.3751888,14.8375576 38.3819155,14.8540085 C38.3841577,14.8589437 38.3871473,14.8648661 38.3886421,14.8704594 C38.3852788,14.8701304 38.3815418,14.8701304 38.377431,14.8694723 M38.4996318,13.5905787 C38.477957,13.6215065 38.4581508,13.6468409 38.4409605,13.668556 C38.429002,13.6261127 38.46413,13.6149261 38.4996318,13.5905787 M38.7290852,13.5201689 C38.7328222,13.5116144 38.738054,13.5083242 38.7451544,13.5096403 C38.7649606,13.5326715 38.7836457,13.5698506 38.7888776,13.6047265 C38.7963516,13.6478279 38.7862616,13.6784266 38.7772928,13.6952065 C38.765708,13.6840199 38.748144,13.6655949 38.7290852,13.6369703 C38.6920886,13.5843274 38.7092789,13.5678765 38.7290852,13.5201689 M38.7604762,14.0159992 C38.7515073,13.9998773 38.7406699,13.9623693 38.7290852,13.9077522 C38.7070367,13.8093758 38.7115211,13.8449098 38.7253481,13.8156272 C38.738054,13.8297749 38.7503862,13.8583995 38.7567391,13.885708 C38.7675765,13.9324286 38.7705661,13.9617112 38.7604762,14.0159992 M38.9219157,14.4848501 C38.9163101,14.5861877 38.8856665,14.5930971 38.8251267,14.7424713 C38.7739295,14.8704594 38.7937357,14.8619049 38.7899987,14.9069804 C38.7425384,15.0346394 38.7761717,15.0056858 38.7601025,15.0895855 C38.7515073,15.1316998 38.7541232,15.1669047 38.7567391,15.2007936 C38.7369329,15.1859878 38.7193689,15.170853 38.702926,15.1557181 C38.7010575,15.1428864 38.6995626,15.1290676 38.7003101,15.1149199 C38.7006838,15.1053783 38.7006838,15.0964949 38.7010575,15.0879404 C38.7107737,15.0550386 38.7118948,15.0366135 38.7092789,15.0208207 C38.7133896,15.0010796 38.7193689,14.9790354 38.7290852,14.9517269 C38.7552443,14.8760527 38.7365592,14.8737496 38.7317011,14.8204486 C38.7283377,14.7924821 38.7331959,14.7520128 38.7432858,14.7036472 C38.7466492,14.6918025 38.7503862,14.6799579 38.7541232,14.6684422 C38.7922409,14.5440734 38.800836,14.5624984 38.8213897,14.4874822 C38.842317,14.4124661 38.8359641,14.3891058 38.8778188,14.3298825 C38.917805,14.2716463 38.9181787,14.3700228 38.9320056,14.4055567 C38.9278949,14.4252978 38.9237842,14.4506322 38.9219157,14.4848501 M38.9761026,14.0643649 C38.9753551,14.066668 38.9753551,14.0689711 38.9749814,14.0719323 C38.9652652,14.1657025 38.9144416,14.1887338 38.8908984,14.156819 C38.8867876,14.1512257 38.8841717,14.1466194 38.8819295,14.1430002 C38.8867876,14.1311556 38.8920195,14.1166788 38.8979987,14.0969377 C38.9017357,14.0834479 38.9043517,14.0729194 38.9058465,14.0627198 C38.9069676,14.0591006 38.9080887,14.0558104 38.9092098,14.0525202 C38.9219157,14.0074448 38.9204209,13.9840845 38.9219157,13.9646724 C38.9256527,13.957763 38.9305108,13.9511826 38.9368638,13.9429572 C38.96676,13.9074232 38.9787185,13.9784912 38.9761026,14.0643649 M38.9839503,14.5506537 C38.9925455,14.5361769 39.0048777,14.5233452 39.0123517,14.4957077 C39.0172098,14.4789278 39.0228154,14.4660961 39.029542,14.4562255 C39.0272998,14.4713604 39.0246839,14.4924175 39.0127254,14.5279515 C38.9940403,14.5842136 39.0048777,14.5954002 39.0194521,14.6151413 C39.0175835,14.6204056 39.0160887,14.6253408 39.0145939,14.6312632 C39.0003932,14.6710744 39.0003932,14.6908155 39.0067462,14.7059503 C39.0015143,14.6983829 38.9966562,14.6904864 38.9917981,14.681932 C38.9652652,14.6348824 38.9988984,14.627315 38.9839503,14.5506537 M39.0101095,14.8882264 C39.0201995,14.8767107 39.0314105,14.8730915 39.0474797,14.8905295 C39.0336528,14.8902005 39.0213206,14.8892134 39.0101095,14.8882264 M38.9910507,14.8039977 C38.9884347,14.8000495 38.9865662,14.7961013 38.9850714,14.7924821 C39.0026354,14.7681347 39.0138465,14.7349039 39.0362687,14.7529999 C39.0429953,14.7651736 39.0482272,14.7812955 39.0512168,14.8039977 C39.0669123,14.9076384 39.0224417,14.8589437 38.9910507,14.8039977 M39.0997981,13.8834049 C39.0784971,13.9455893 39.0448638,13.9877037 39.0213206,13.9077522 C39.0123517,13.8774826 39.0059988,13.8560964 39.0037565,13.8383294 C39.0059988,13.8139821 39.0172098,13.7925959 39.0437427,13.7593651 C39.0706493,13.7258052 39.0975559,13.7123155 39.1181095,13.7113284 C39.1289469,13.7149476 39.1349261,13.7241601 39.1341787,13.7363338 C39.1315628,13.8001633 39.1207255,13.8208915 39.0997981,13.8834049 M39.463037,14.6029676 C39.4409886,14.6904864 39.390165,14.7786633 39.4432308,14.7408262 C39.4458467,14.7388521 39.4480889,14.736878 39.4507048,14.7355619 L39.4462204,14.7401682 C39.3935283,14.8013656 39.3909124,14.8740786 39.3397152,14.8572987 C39.3554107,14.8362415 39.3557844,14.8309772 39.3001027,14.8079459 C39.2881442,14.8030107 39.2773068,14.7990624 39.2679643,14.7957723 C39.2694591,14.7885339 39.2724487,14.7796504 39.2773068,14.7694508 C39.303466,14.7112146 39.3404626,14.7158208 39.2668432,14.6852222 C39.2608639,14.682919 39.2556321,14.6809449 39.2507739,14.6786418 C39.2705802,14.6503462 39.289639,14.6368565 39.3139297,14.6871963 C39.3512999,14.7645155 39.3632584,14.8178165 39.3778328,14.7826115 C39.3924072,14.7477356 39.396518,14.7803084 39.3778328,14.6904864 C39.3598951,14.6052707 39.3628847,14.5128166 39.4088501,14.5141327 C39.3879228,14.5884908 39.3494314,14.6575846 39.3942757,14.6250118 C39.4237982,14.6039547 39.4495837,14.5868457 39.4660266,14.5888198 C39.4649055,14.5930971 39.4637844,14.5977033 39.463037,14.6029676 M39.6936115,15.0155564 C39.6525042,15.0711605 39.6024281,15.1511119 39.5762689,15.117552 C39.5751478,15.1162359 39.5740267,15.1149199 39.5725319,15.1132748 C39.5900959,15.0830051 39.6147603,15.044839 39.6468987,14.9991055 C39.7264973,14.8852652 39.7070648,14.8806589 39.7567672,14.7589222 C39.7590094,14.7701088 39.760878,14.7849147 39.760878,14.8049848 C39.760878,14.8878973 39.7350925,14.9606104 39.6936115,15.0155564 M39.8296392,14.5664466 C39.8371133,14.5348609 39.837487,14.5085394 39.8315077,14.4785988 C39.8262759,14.4539224 39.8378607,14.42793 39.855051,14.4022665 C39.8569195,14.4042406 39.8580406,14.4058857 39.8595354,14.4085179 C39.8830787,14.4450389 39.8606565,14.5085394 39.8296392,14.5664466 M40.0030372,14.6618619 C40.0000476,14.7039762 39.9914525,14.7487227 39.9850995,14.791495 C39.9630511,14.7477356 39.9540822,14.7421423 39.9813625,14.6625199 C40.0022898,14.6016515 40.0164905,14.591781 40.0325597,14.5697368 C40.0587189,14.5763171 40.0097639,14.5868457 40.0030372,14.6618619 M40.0818885,14.4193755 C40.0856255,14.3683777 40.073667,14.338766 40.0990788,14.2907294 C40.1080477,14.2963227 40.1144006,14.3068513 40.1144006,14.3236312 C40.1144006,14.373642 40.1005736,14.3989764 40.0818885,14.4193755 M40.1304698,14.9816675 C40.1282276,14.9767322 40.1267328,14.972126 40.1244906,14.9675197 C40.1334594,14.9589653 40.1409335,14.9513978 40.1450442,14.9471206 C40.1476601,14.9441594 40.1517709,14.9372501 40.1577501,14.9277085 C40.1581238,14.9987765 40.1570027,15.0547095 40.1304698,14.9816675 M40.3049889,15.0734636 C40.3255426,15.0385877 40.3539439,14.9846287 40.3602969,14.9757452 C40.3629128,14.971468 40.3744976,14.9615974 40.3898194,14.9487657 C40.406636,14.9385661 40.4290582,14.9260634 40.4585807,14.9102706 C40.5863869,14.8411768 40.5236049,14.8596018 40.5553696,14.8296611 C40.5830236,14.8030107 40.5942347,14.8039977 40.6222624,14.8046557 C40.5990928,14.8306482 40.5792866,14.8543375 40.5811551,14.8619049 C40.5822762,14.8707884 40.5830236,14.8905295 40.5792866,14.9069804 C40.5340686,14.9316568 40.4918402,14.9560041 40.4776395,14.9681778 C40.4451274,14.9968023 40.4290582,15.0583287 40.3049889,15.0734636 M40.621515,15.17184 C40.6159095,15.1754592 40.6099302,15.1797364 40.6046984,15.1833556 C40.5863869,15.1991485 40.5695703,15.2096771 40.5467745,15.225141 C40.5243523,15.2343535 40.4966983,15.2412628 40.4611966,15.244882 C40.4537225,15.2458691 40.4469959,15.2468561 40.4398955,15.2485012 C40.4843661,15.2021097 40.4851136,15.2126383 40.5419163,15.1675628 C40.5972243,15.1234743 40.5972243,15.1491378 40.6435634,15.1448605 C40.6364631,15.153415 40.6297364,15.1622985 40.621515,15.17184 M40.6854181,14.3999634 C40.701861,14.3802223 40.7254043,14.3542299 40.7594112,14.3177089 C40.8487262,14.2222936 40.8083663,14.2331512 40.8397573,14.1841275 C40.8461102,14.174915 40.8494736,14.1782052 40.8659165,14.1999204 C40.8625532,14.2045266 40.8595635,14.2091329 40.8550791,14.2137391 C40.8165877,14.2574986 40.8393836,14.2226226 40.7934182,14.2887553 C40.7482002,14.3542299 40.7803386,14.3571911 40.7302624,14.3785772 C40.7153143,14.3858156 40.6992451,14.3943701 40.6854181,14.3999634 M40.7743593,14.5990194 C40.7691275,14.5802654 40.7530583,14.5664466 40.7538057,14.5470345 C40.7638957,14.5532859 40.7754805,14.5598662 40.7829545,14.5624984 C40.7926708,14.5657886 40.8053767,14.5753301 40.8135981,14.5819105 C40.7956604,14.6065868 40.7807123,14.6207346 40.7743593,14.5990194 M40.8135981,15.3610254 L40.8139718,15.3606964 C40.8307884,15.3399683 40.843868,15.3291107 40.8573213,15.3241754 C40.9044078,15.3179241 40.8509684,15.334704 40.8135981,15.3610254 M40.8846016,14.0561394 C40.8842279,14.0610747 40.8842279,14.065681 40.8834805,14.0702872 C40.8767539,14.0541653 40.8782487,14.0419917 40.8849753,14.030805 C40.8857227,14.0363983 40.8857227,14.0446238 40.8846016,14.0561394 M40.8973075,14.0166573 C40.9070238,14.0081028 40.9193559,13.9995483 40.9309407,13.9900068 C40.9182348,14.0031675 40.9070238,14.0136961 40.8973075,14.0166573 M41.5591348,15.5057934 C41.5617507,15.5103997 41.5576399,15.515993 41.5479237,15.5209283 C41.5479237,15.516651 41.5516607,15.5120448 41.5591348,15.5057934 M40.9466362,14.5305836 C40.9713006,14.4874822 41.0139027,14.4614898 41.0385671,14.3910799 C41.0594944,14.3308696 41.0736951,14.3104705 41.1054598,14.2729624 C41.1110654,14.2811879 41.1181657,14.2904004 41.1267609,14.301587 C41.1607678,14.3463335 41.1432038,14.3417272 41.1062072,14.3815384 C41.0961173,14.3887768 41.0860273,14.3956862 41.0770584,14.4035826 C41.0142764,14.4539224 41.0366986,14.4667541 41.0284771,14.4914305 C41.0079235,14.5141327 40.9918542,14.5233452 40.9690584,14.5483506 C40.9455151,14.5608533 40.9309407,14.5572341 40.9466362,14.5305836 M41.0523941,14.6717324 C41.0314667,14.6746936 41.0363248,14.6720614 41.0112868,14.6852222 C40.9776535,14.7026601 40.995965,14.7115436 41.0165186,14.717795 C41.0068023,14.7260204 40.9989546,14.7260204 40.9948439,14.7112146 C40.9884909,14.6885123 40.9679373,14.6717324 40.9716743,14.6477141 C40.9776535,14.6542944 40.9907331,14.6559395 41.0202556,14.64574 C41.0935013,14.6207346 41.0538889,14.6227087 41.0647262,14.5954002 C41.0718266,14.5756591 41.0598681,14.5723689 41.0602418,14.5572341 C41.1159235,14.5147907 41.1383457,14.4934046 41.1663733,14.4374715 C41.1678682,14.4338523 41.1701104,14.429575 41.1719789,14.4262849 C41.1764633,14.4229947 41.1802003,14.4197045 41.1850585,14.4164143 C41.2474668,14.3680487 41.2086017,14.3999634 41.2059858,14.4206916 C41.2029962,14.4410907 41.1219027,14.5345318 41.110318,14.5572341 C41.1043387,14.5700658 41.1058335,14.5796073 41.1106917,14.5852006 C41.0998543,14.5986904 41.0912591,14.6121801 41.0759373,14.6355404 C41.0677159,14.6477141 41.0598681,14.6598878 41.0523941,14.6717324 M41.2725049,14.518739 C41.273626,14.5263064 41.2564357,14.5480216 41.2564357,14.5598662 C41.2564357,14.5796073 41.2489616,14.5723689 41.1966433,14.6299471 C41.1914114,14.6358694 41.1865533,14.6404757 41.1828163,14.6444239 C41.1839374,14.6414627 41.1854322,14.6378435 41.1876744,14.6338953 C41.2100965,14.5950712 41.2455983,14.5687497 41.2725049,14.518739 M41.1219027,15.3488518 C41.1129339,15.3498388 41.1043387,15.3508259 41.0957436,15.352142 C41.0920065,15.3376652 41.0957436,15.3192401 41.1170446,15.298183 C41.1185394,15.2971959 41.1204079,15.2958799 41.121529,15.2945638 C41.1282557,15.2939057 41.1357297,15.2939057 41.1428301,15.2939057 C41.2627886,15.2939057 41.2627886,15.2892995 41.2766156,15.3057504 C41.2893215,15.3215433 41.2059858,15.3422714 41.1219027,15.3488518 M41.3233284,14.882304 C41.3098751,14.8878973 41.2863319,14.8852652 41.2564357,14.8806589 C41.2657782,14.8701304 41.2747471,14.8589437 41.2840897,14.8487442 C41.3031485,14.8543375 41.3270655,14.862892 41.3315499,14.8714464 C41.328934,14.8750656 41.3266918,14.8780268 41.3233284,14.882304 M41.5056953,14.6927896 C41.4698198,14.7421423 41.4705672,14.7200981 41.4234807,14.7796504 C41.4234807,14.7803084 41.4234807,14.7803084 41.4227333,14.7806374 C41.4111485,14.7803084 41.3980689,14.7707669 41.3543457,14.7822825 C41.3476191,14.7839276 41.3408924,14.7852437 41.3356606,14.7868888 C41.3453769,14.7747151 41.3543457,14.7635285 41.3625672,14.7539869 C41.4148856,14.6898284 41.5557714,14.6223797 41.5056953,14.6927896 M41.5453078,15.896338 C41.5408233,15.896996 41.5378337,15.896996 41.5348441,15.896338 C41.5580136,15.8940349 41.5744566,15.8914027 41.5931417,15.8861384 C41.5811832,15.8923898 41.565114,15.8950219 41.5453078,15.896338 M41.9283529,15.3797795 C41.9556332,15.3409553 41.9406851,15.3600384 42.0423322,15.2692294 C42.0486851,15.2642941 42.0557855,15.2590298 42.0632595,15.2534365 C42.1690174,15.1748012 42.1884499,15.1511119 42.2190935,15.1261065 C42.2508582,15.1017591 42.3192458,15.0955078 42.2919655,15.1445315 C42.2897233,15.1488087 42.2886022,15.1511119 42.2886022,15.1524279 C42.2871074,15.153415 42.2859863,15.154402 42.2848652,15.1557181 C42.2056402,15.225799 42.1802284,15.2478432 42.14809,15.2764678 C42.1368789,15.2850223 42.1230519,15.2948928 42.1010035,15.3100276 C42.0329896,15.3574062 42.04009,15.3761603 41.9877716,15.3955724 C41.9455432,15.4120233 41.9186366,15.4037978 41.9283529,15.3797795 M41.8906089,15.7206423 C41.9376955,15.6933338 41.9705813,15.6887275 42.0079515,15.6679994 C42.012436,15.6670123 42.0165467,15.6663543 42.0210311,15.6653672 C42.1256679,15.6439811 42.0139308,15.6880695 41.9354532,15.7456477 C41.9261107,15.752228 41.9175155,15.7581504 41.9107889,15.7627566 C41.8659446,15.7657178 41.8409065,15.7499249 41.8906089,15.7206423 M41.9006989,16.1052645 C41.8674394,16.1200703 41.8547335,16.1273087 41.8457646,16.132902 C41.8461383,16.1309279 41.846512,16.1299409 41.8472594,16.1282958 C41.8524913,16.1151351 41.8625812,16.0917748 41.9096678,16.0802591 C41.9283529,16.0756529 41.9380692,16.077627 41.9421799,16.0825623 C41.9347058,16.0878266 41.9231211,16.0944069 41.9006989,16.1052645 M42.0912872,16.0200488 C42.0572803,16.0361707 42.0498062,16.0361707 41.992256,16.0568989 C41.9892664,16.0575569 41.9870242,16.0585439 41.984782,16.059531 C41.9941245,16.0503185 42.0053356,16.0404479 42.01991,16.0286033 C42.0718547,15.986818 42.0897924,15.9970175 42.0946505,16.0187327 L42.0912872,16.0200488 M42.0912872,15.6104212 C42.0909135,15.606802 42.0909135,15.6041699 42.0924083,15.6021958 C42.0950242,15.6002216 42.0980139,15.5982475 42.1006298,15.5966024 C42.1107198,15.5913382 42.130526,15.5857449 42.1637855,15.5656747 C42.1843392,15.5604105 42.1981662,15.5640297 42.1981662,15.5794935 C42.1641592,15.6143694 42.1705122,15.6225949 42.1234256,15.642994 C42.0662491,15.6679994 42.0935294,15.6262141 42.0912872,15.6104212 M42.2602008,16.404013 C42.1850866,16.439547 42.203398,16.4336246 42.1551904,16.4622492 C42.1540693,16.4550108 42.154443,16.4444822 42.1566852,16.4313215 C42.1593011,16.4148706 42.161917,16.4007228 42.1652803,16.3882201 C42.1966713,16.3704532 42.227315,16.3536732 42.2620693,16.3359062 C42.2874811,16.3441317 42.3166299,16.3395254 42.3241039,16.366834 C42.3136403,16.3734143 42.3117717,16.3796657 42.2602008,16.404013 M42.3203669,15.9289108 C42.3427891,15.9216724 42.3674534,15.915092 42.3954811,15.9094987 L42.4018341,15.9081826 C42.3749275,15.933188 42.3442839,15.9302269 42.3203669,15.9289108 M42.6189553,15.3037763 C42.6537096,15.2761388 42.7306923,15.2692294 42.7004224,15.3245044 C42.6884639,15.3455616 42.7112598,15.3241754 42.6533359,15.3748442 C42.6309137,15.3649737 42.6111075,15.3560902 42.6010175,15.3465487 C42.5939172,15.3402973 42.5913013,15.334375 42.5905539,15.3271366 C42.6002701,15.3189111 42.6088653,15.3113437 42.6189553,15.3037763 M42.4743324,15.8578429 C42.4747061,15.8542237 42.4747061,15.8506045 42.4747061,15.8476433 C42.4724638,15.8321795 42.4844223,15.8344826 42.5210452,15.8167156 C42.5180556,15.8193477 42.5146922,15.8216509 42.5120763,15.824612 C42.4960071,15.8394178 42.4836749,15.8506045 42.4743324,15.8578429 M42.5864431,16.2513486 C42.5688791,16.2618772 42.5658895,16.2645093 42.5427199,16.277012 C42.5367407,16.2806312 42.5318826,16.2829343 42.5281455,16.2845794 C42.5154396,16.27767 42.5098341,16.2668124 42.5072182,16.2503615 C42.5457096,16.2372008 42.5767269,16.2181177 42.595412,16.2075892 C42.6189553,16.1944284 42.6249345,16.2181177 42.6249345,16.2181177 C42.6249345,16.2181177 42.6040072,16.241149 42.5864431,16.2513486 M42.7732944,15.642994 C42.7519934,15.6597739 42.699675,15.6897146 42.6436196,15.7259066 C42.6723947,15.6999142 42.7049068,15.6719476 42.7557304,15.642665 C42.7744155,15.6318074 42.7882425,15.623911 42.7998273,15.6170016 C42.7919795,15.6262141 42.7837581,15.6357556 42.7732944,15.642994 M42.8958689,15.6012087 C42.8861526,15.5962734 42.8749415,15.5900221 42.8622356,15.5811386 C42.8603671,15.5801515 42.8596197,15.5794935 42.8581249,15.5788355 C42.8678412,15.5725841 42.8820419,15.5656747 42.904464,15.5548171 C42.9500557,15.53376 42.9306232,15.5650167 42.8958689,15.6012087 M42.9309969,16.4606041 C42.9306232,16.457643 42.9306232,16.4553398 42.9306232,16.4530367 C42.9444502,16.4464563 42.9605194,16.4385599 42.9799519,16.4267153 C42.9978897,16.4151996 43.0165748,16.4066452 43.036381,16.3984197 C43.0584295,16.3971036 43.0744987,16.404671 43.0857098,16.4181608 C43.0371284,16.4385599 42.9788308,16.4638943 42.9343602,16.4829774 C42.9332391,16.476068 42.932118,16.4685006 42.9309969,16.4606041 M43.0360073,16.6241262 C42.9851838,16.6948651 43.0027478,16.6241262 42.9672461,16.6070172 C42.9567824,16.6014239 42.9504294,16.5945145 42.9466924,16.584315 C42.9556613,16.5826699 42.9653775,16.5816828 42.9743464,16.5803667 C43.0154537,16.5757605 43.0561873,16.566548 43.0957997,16.5543743 C43.0823464,16.5704962 43.0621665,16.5879342 43.0360073,16.6241262 M43.2202427,16.3651889 C43.2191216,16.3622277 43.2176268,16.3592665 43.2150109,16.3572924 C43.2105264,16.3536732 43.2075368,16.3507121 43.2049209,16.3477509 C43.268824,16.3289969 43.25126,16.3477509 43.2202427,16.3651889" id="Fill-10"></path>
                <path d="M42.8608459,17.2176153 C42.786975,17.0817137 42.8496204,16.9927451 42.786975,16.9568312 C42.7243295,16.9221416 42.7583681,16.9037766 42.7243295,16.9221416 C42.6899288,16.9392824 42.661684,16.9274471 42.6160578,17.028251 C42.6149715,17.0311077 42.6138852,17.0331483 42.6127988,17.035597 C42.5657242,16.9103064 42.6120746,16.8270514 42.5548608,16.7919537 C42.4925774,16.753591 42.5269781,16.7340016 42.4925774,16.753591 C42.4585389,16.7727724 42.429932,16.7597127 42.3846679,16.869087 C42.3390417,16.9780531 42.3502672,16.9711152 42.3618548,17.0478404 C42.3730803,17.1253818 42.3618548,17.165785 42.3390417,17.0760002 C42.3162286,16.9862153 42.2706024,16.811135 42.2706024,16.811135 C42.2706024,16.811135 42.2394608,16.7956267 42.2249762,16.8160323 C42.2010768,16.7670588 42.1735563,16.7156366 42.1572612,16.6866606 C42.1228605,16.6274842 42.0468169,16.5323939 42.008795,16.5009692 C41.9711353,16.4695445 41.9142837,16.4177142 41.8878494,16.4299576 C41.886401,16.4303657 41.8853147,16.4311819 41.8835041,16.4324063 C41.8480171,16.3781273 41.8034772,16.3222158 41.777043,16.2989534 C41.7390212,16.2642638 41.6821695,16.2087605 41.6557353,16.2218201 C41.6495794,16.2246769 41.6437856,16.2312067 41.6376297,16.2393689 C41.5894687,16.1524409 41.4967679,15.97532 41.4475206,15.9434872 C41.4196379,15.9259383 41.3852372,15.9128787 41.3472154,15.9006353 C41.3015892,15.812483 41.2487208,15.718617 41.2157685,15.6965789 C41.1585547,15.6582163 41.0752688,15.6361782 40.9840165,15.6067941 C40.8927641,15.5770019 40.8971094,15.5386393 40.8138236,15.5643504 C40.7298134,15.5896534 40.6429064,15.6492378 40.6429064,15.6492378 L40.6012635,15.6957627 C40.5603448,15.7418794 40.2981752,15.9006353 40.2492901,15.9185923 L40.2293739,15.9185923 C40.2293739,15.9185923 40.2047502,15.9198166 40.1982322,15.93206 C40.1703495,15.9385898 40.1446395,15.9447115 40.123637,15.961036 C40.1207401,15.9622604 40.1182053,15.9634847 40.1163947,15.9671577 C40.0845288,15.9985824 39.9378732,15.9908282 39.911439,16.0038879 C39.8850048,16.0165394 39.7886829,15.9851147 39.7405219,15.9945013 C39.7137256,15.9989905 39.6934473,15.9973581 39.6753416,15.9998067 C39.586624,16.0026635 39.4479349,15.9965418 39.428743,15.9651171 C39.4247597,15.9398142 39.3791335,15.9353249 39.3679081,15.9443034 C39.3595795,15.9508332 39.3461813,15.9594036 39.3309726,15.9704226 C39.3128669,15.9814417 39.2911402,15.9961337 39.2650681,16.0136826 C39.2589122,16.0173556 39.2531184,16.0210286 39.2473246,16.0247016 C39.1930077,16.0569425 39.2074922,16.0173556 39.2241494,15.9847066 C39.2350127,15.9687902 39.2408065,15.9581792 39.2400823,15.9516494 L39.2400823,15.9512413 C39.2466003,15.9365492 39.1883002,15.9251221 39.1542616,15.9190004 C39.145933,15.9165517 39.1405014,15.914103 39.1405014,15.914103 C39.1405014,15.914103 39.136156,15.9145112 39.1292759,15.9153274 C39.1292759,15.9153274 39.1086354,15.9153274 39.0807528,15.9255302 C39.0434552,15.9353249 39.0021744,15.9540981 39.0000017,15.9867471 C38.9692221,16.0271503 38.9460469,16.0161312 38.9254065,15.9928688 C38.9221475,15.9794011 38.91744,15.9700145 38.9123704,15.9651171 C38.8989723,15.9540981 38.8928164,15.9385898 38.8808666,15.9328762 C38.8486386,15.8998191 38.6784457,15.8847189 38.5748815,15.9398142 C38.4981137,15.9802173 38.4644372,15.95369 38.4408999,15.9165517 L38.4307607,15.8928812 C38.4307607,15.8928812 38.4303986,15.8794135 38.4191731,15.8761486 C38.393101,15.8251345 38.2504287,15.8177884 38.2359441,15.8259507 C38.2352199,15.8251345 38.2341336,15.8259507 38.232323,15.8263588 C38.2167522,15.830848 38.1827136,15.8190128 38.1533825,15.7826907 C38.1522961,15.7757528 38.1512098,15.7704473 38.1457781,15.7733041 C38.1309315,15.7528985 38.1084805,15.7333091 38.0867538,15.7182089 C38.087478,15.7133116 38.0863917,15.7124953 38.0831326,15.714944 C38.0566984,15.6965789 38.0309884,15.6835193 38.0204872,15.682295 C38.0201251,15.6818869 38.0190387,15.6818869 38.0175903,15.6818869 C37.9933287,15.6773976 37.8988173,15.6476054 37.836534,15.5921021 C37.8350855,15.5867966 37.8325507,15.5835317 37.8274812,15.5835317 C37.7974258,15.5529232 37.7387636,15.4982361 37.6844467,15.4427328 C37.6768423,15.4260002 37.6616336,15.4125324 37.6446143,15.4019215 C37.6004366,15.3553966 37.5656738,15.3137691 37.5602421,15.2937716 L37.5595179,15.2937716 C37.5591558,15.2823444 37.5573452,15.269693 37.5544483,15.2537766 C37.5428607,15.2035787 37.4820258,15.1795 37.4476251,15.1660323 C37.4139486,15.1529727 37.3759268,15.1325671 37.3458714,15.1052235 C37.3150919,15.0778799 37.3002453,15.0897152 37.2810533,15.0517607 C37.2618613,15.0133981 37.2202184,15.0342119 37.1521412,15.0517607 C37.0837019,15.0684933 37.1329493,15.0558419 37.0800808,15.0725745 C37.0268503,15.0897152 37.0138142,15.1064478 36.9460992,15.1052235 C36.9283556,15.0876746 36.9033699,15.0615554 36.8559331,15.0301307 C36.7538174,14.9619759 36.7726472,15.0260496 36.6889992,15.059923 C36.6057133,15.0942045 36.5908667,15.1795 36.5637083,15.1660323 C36.5372741,15.1529727 36.530756,15.0876746 36.4938206,15.1166507 C36.456523,15.1456267 36.3739613,15.2219438 36.308781,15.3227476 C36.2432387,15.4235515 36.2819847,15.3753942 36.3015388,15.3035663 C36.3218171,15.2325547 36.273294,15.3043825 36.221874,15.3243801 C36.2063032,15.3309099 36.1918187,15.3362153 36.1784205,15.3407046 C36.1664708,15.2913229 36.179869,15.2684686 36.1976125,15.1999057 C36.2178908,15.1227723 36.1690056,15.1999057 36.1183098,15.2219438 C36.0925998,15.233779 36.0708731,15.2411251 36.0498705,15.2488792 C36.0585612,15.2174545 36.0531296,15.2015381 36.0411798,15.1999057 C36.0212637,15.1966408 35.9329082,15.2345953 35.8847472,15.2586739 C35.8365862,15.2823444 35.7851663,15.3088718 35.7478687,15.3500912 C35.7207102,15.3815159 35.6700145,15.4476301 35.6359759,15.494155 C35.6316305,15.4843603 35.620405,15.476198 35.6117143,15.4529356 C35.5932466,15.4039621 35.5827453,15.4423247 35.5175651,15.4288569 C35.4560059,15.4157973 35.4621618,15.4264083 35.4364519,15.450895 C35.4335549,15.4464058 35.4313823,15.4411003 35.4295717,15.4353867 C35.4107419,15.3823321 35.4009648,15.4239596 35.3350603,15.4096756 C35.2698801,15.3949836 35.2814677,15.4076351 35.2488775,15.4386516 C35.2162874,15.4692601 35.2188222,15.497828 35.1862321,15.5508827 C35.1532798,15.6031211 35.173196,15.5921021 35.1590736,15.6835193 C35.1445891,15.7745285 35.1290183,15.7459606 35.0982387,15.7924854 C35.0634759,15.8353373 34.9816385,15.8312561 35.0037273,15.8969623 C34.9982956,15.9083895 35.0033652,15.9165517 35.0149528,15.9214491 C35.0192982,15.9292032 35.0243677,15.9377736 35.0312479,15.9471602 C35.0870132,16.0259259 35.1170686,16.0855104 35.1373469,16.1377489 C35.1384332,16.1483598 35.1416922,16.1577464 35.1467618,16.1638681 C35.1529177,16.1814169 35.1583494,16.1985577 35.1626947,16.2148822 C35.1840594,16.2863019 35.3260075,16.5262722 35.4147251,16.6058542 C35.4516606,16.6397276 35.5099607,16.7050256 35.5682608,16.7744048 C35.5715198,16.7797103 35.5755031,16.7841995 35.5802105,16.7890969 C35.6562542,16.880106 35.7315736,16.9743801 35.7594563,17.0098859 C35.7609047,17.0164157 35.7634395,17.0217212 35.768147,17.0270266 C35.7934948,17.0564107 35.8322409,17.1306873 35.871349,17.0270266 C35.9100951,16.9229579 35.9615151,16.8192972 35.9702058,16.7364503 C35.9738269,16.699312 35.9861387,16.6531953 35.9944673,16.6189138 C36.0089518,16.6005488 36.0230742,16.5846324 36.0342997,16.5715727 C36.0451631,16.5593294 36.0581991,16.5483103 36.0701489,16.5389237 C36.0531296,16.651971 35.9915704,16.7821589 35.9531865,16.9066333 C35.9075603,17.0531458 35.8985075,17.0964058 35.8677279,17.1604795 C35.8677279,17.1604795 35.8619341,17.176804 35.9158889,17.2437345 C35.9702058,17.3110731 35.9669468,17.285362 36.0024338,17.3110731 C36.0375587,17.3367842 36.0581991,17.3392329 36.1009284,17.3780036 C36.1436577,17.4167743 36.134967,17.4392205 36.160677,17.4967644 C36.1860249,17.5539002 36.2262194,17.5575732 36.2262194,17.5575732 L36.308781,17.6216469 L36.3511482,17.6730692 C36.3565799,17.7261238 36.3830141,17.8938582 36.6375793,17.9934377 C36.6404762,17.9958864 36.6419246,17.9967026 36.6419246,17.9958864 C36.8740388,18.0873036 36.8599164,18.1024038 36.9558762,18.132196 C36.9645669,18.1354609 36.9728955,18.1375015 36.9794135,18.1387259 C36.9884663,18.1415826 36.9967949,18.1452557 37.0043993,18.1493368 C36.9989676,18.1762722 37.0080204,18.1995347 37.0301093,18.1995347 C37.0652342,18.1995347 37.0786324,18.33462 37.1391052,18.3313551 C37.180386,18.3921639 37.2379619,18.4546051 37.3375429,18.497457 C37.5787098,18.598669 37.858985,18.7170217 37.9285106,18.7468139 C37.997312,18.7766061 38.4007054,18.8753694 38.528169,18.8921021 L38.5292553,18.8921021 C38.6556326,18.9084266 38.6965513,18.9382188 38.7363837,18.9508703 C38.775854,18.964338 39.2458761,19.0231063 39.6032812,18.9900491 C39.724951,18.978622 39.8745035,18.9618893 40.0280393,18.9369945 C40.0302119,18.9374026 40.0316604,18.9374026 40.033471,18.9361782 C40.1891794,18.9112834 41.1857132,18.5509198 41.1857132,18.5509198 C41.1857132,18.5509198 41.5174083,18.4056316 41.5242884,18.4015505 C41.6010563,18.3742069 41.8070983,18.2705463 41.9686005,18.1615802 C41.9736701,18.1599477 41.9787397,18.157499 41.9841714,18.153826 C42.0240038,18.1305636 42.2926913,18.0432275 42.3488187,17.95834 C42.4223276,17.846109 42.5592062,17.8044815 42.5646378,17.7453051 C42.5704316,17.6861288 42.6787033,17.5971602 42.7471426,17.5792032 C42.8155819,17.5616544 42.8550521,17.6028738 42.9122659,17.5200269 C42.9691176,17.4367719 43.0426264,17.5853249 42.9691176,17.4367719 C42.8952466,17.2886269 42.935079,17.353925 42.8608459,17.2176153 L42.8608459,17.2176153 Z M35.4708525,15.8394184 C35.4596271,15.8504375 35.4509364,15.8585997 35.4436941,15.8655376 C35.4455047,15.8520699 35.4480395,15.8390103 35.4509364,15.8247263 C35.4523848,15.8153398 35.4538333,15.8067694 35.4552817,15.7986071 C35.4672314,15.7843232 35.4802675,15.7704473 35.4962004,15.7577958 C35.5114092,15.7455525 35.523721,15.7320847 35.5345844,15.7182089 C35.5233589,15.7565715 35.5056154,15.8039126 35.4708525,15.8394184 L35.4708525,15.8394184 Z M35.758732,15.5525151 C35.7536625,15.5590449 35.7496792,15.5647585 35.7449718,15.5704721 C35.7464202,15.5578206 35.752214,15.5516989 35.758732,15.5525151 L35.758732,15.5525151 Z M35.6185945,15.9740956 C35.6175081,15.9794011 35.6153355,15.9851147 35.613887,15.9896039 C35.6120764,15.9810335 35.613887,15.97532 35.6185945,15.9740956 L35.6185945,15.9740956 Z M35.6345274,16.4993368 C35.6305442,16.503826 35.6261988,16.507499 35.6233019,16.5099477 C35.6200429,16.5062747 35.6175081,16.5021936 35.6149733,16.4981124 C35.6211293,16.4870934 35.6345274,16.4699527 35.6500983,16.4519957 C35.6450287,16.4683202 35.6399591,16.4842366 35.6345274,16.4993368 L35.6345274,16.4993368 Z M35.7677849,16.1038755 C35.7572836,16.0928564 35.7467823,16.0822455 35.7380916,16.0712265 C35.7290388,16.0589831 35.7225208,16.047964 35.7196239,16.040618 C35.7322978,16.0455154 35.7438854,16.0467397 35.7511277,16.0393937 C35.752214,16.0381693 35.7525761,16.0361288 35.7536625,16.0357207 C35.7616289,16.0418423 35.7706818,16.0491884 35.7804588,16.0561263 C35.7764756,16.0720427 35.7724923,16.0883672 35.7677849,16.1038755 L35.7677849,16.1038755 Z M35.8662795,15.7373902 C35.8608478,15.7255549 35.8557782,15.7104548 35.8521571,15.6912735 C35.8521571,15.6900491 35.8521571,15.689641 35.851795,15.6888248 C35.8622962,15.6986195 35.8706248,15.6912735 35.8706248,15.6516865 C35.8706248,15.6463811 35.871349,15.6398513 35.8717112,15.6337296 C35.8764186,15.635362 35.8822124,15.6394431 35.8869199,15.6447486 C35.880764,15.6794382 35.8738838,15.711271 35.8662795,15.7373902 L35.8662795,15.7373902 Z M37.125707,16.6654387 C37.1162921,16.666663 37.1068771,16.6682955 37.0981864,16.6723766 C37.0952895,16.6736009 37.0913063,16.6752334 37.0880473,16.677274 C37.09022,16.6621738 37.0909442,16.6507466 37.0909442,16.64136 C37.1115846,16.6234031 37.1173784,16.6119759 37.1271555,16.5932027 C37.1267933,16.6168733 37.1260691,16.64136 37.125707,16.6654387 L37.125707,16.6654387 Z M38.2308746,16.7572641 C38.2308746,16.7572641 38.2428243,16.8372542 38.2478939,16.9115307 C38.2457212,16.9172443 38.2442727,16.9225497 38.2428243,16.9286714 C38.2272534,16.9792774 38.2239944,17.0098859 38.2341336,17.0331483 C38.2229081,17.0433511 38.2091478,17.0315159 38.2008192,16.99601 C38.1971981,16.9821342 38.1950254,16.973972 38.1939391,16.9711152 C38.1914043,16.9551988 38.1885074,16.9356094 38.1863347,16.9139794 C38.1910422,16.8935737 38.1939391,16.8560274 38.2044404,16.7997078 C38.2236323,16.6927822 38.2308746,16.7572641 38.2308746,16.7572641 L38.2308746,16.7572641 Z M38.0903749,16.6927822 C38.1095669,16.6201382 38.1360011,16.5519833 38.1624353,16.4875015 C38.174385,16.460158 38.1841621,16.460158 38.1917664,16.4695445 C38.1852484,16.49648 38.1794546,16.521783 38.174385,16.5454535 C38.1566415,16.6295248 38.1139122,16.6527872 38.077701,16.7303286 C38.0820463,16.7201258 38.0863917,16.7086986 38.0903749,16.6927822 L38.0903749,16.6927822 Z M38.1834378,16.9902965 C38.1772819,17.0041723 38.1671428,17.0229455 38.1475887,17.0388619 C38.1381738,17.0462079 38.1309315,17.050289 38.1251377,17.0527377 C38.1236893,17.0478404 38.1222408,17.0437592 38.1211545,17.03927 C38.1121016,16.9976425 38.100514,17.0233536 38.0961687,17.0343726 C38.0900128,17.021313 38.0838569,17.002948 38.0719072,16.9874397 C38.0697345,16.984991 38.0675618,16.9833585 38.0657512,16.9809099 C38.0671997,16.9690746 38.0711829,16.9564231 38.0795115,16.9462203 C38.10667,16.9172443 38.1182576,16.9074496 38.1312936,16.9160199 C38.1381738,16.938058 38.1417949,16.9372418 38.1468645,16.934385 C38.1573657,16.9494852 38.1718502,16.9727476 38.1834378,16.9902965 L38.1834378,16.9902965 Z M38.068286,16.7515505 C38.0563363,16.7813427 38.0469214,16.8070538 38.0407655,16.8311325 C38.0407655,16.8246027 38.0407655,16.8180729 38.0411276,16.8123593 C38.0440245,16.7744048 38.0595953,16.7670588 38.0748041,16.7360422 C38.0729935,16.7409396 38.0704587,16.7466531 38.068286,16.7515505 L38.068286,16.7515505 Z M37.9734125,16.8968386 C37.9806548,16.8339893 37.9922424,16.7744048 37.9922424,16.7433882 C37.9922424,16.7131879 38.0110722,16.6164652 38.0110722,16.5495347 C38.0110722,16.4977043 38.0400412,16.4511795 38.0538015,16.4315901 C38.0548879,16.4744419 38.0563363,16.5344345 38.0563363,16.5609618 C38.0563363,16.6054461 38.0335232,16.6801307 38.0107101,16.7609371 C37.987897,16.8421515 37.9922424,16.876433 38.026281,16.9066333 C38.0288158,16.9086739 38.0306263,16.9103064 38.0324369,16.9111226 C38.0335232,16.9274471 38.0371443,16.9441797 38.0429381,16.9613205 C38.0233841,16.9498933 38.0049163,16.9519339 37.9842759,16.9576474 C37.9542206,16.9662178 37.9842759,16.9576474 37.9806548,16.99601 C37.9777579,17.0249861 37.9592901,17.0376376 37.949151,17.0258023 C37.9487889,16.9531582 37.9672566,16.948669 37.9734125,16.8968386 L37.9734125,16.8968386 Z M37.7796823,16.3511918 C37.7796823,16.3291538 37.7836655,16.3079319 37.7905457,16.2895668 C37.791632,16.2871181 37.7927184,16.2854857 37.7927184,16.2846695 C37.7927184,16.2846695 37.833275,16.2924236 37.833275,16.3165023 C37.833275,16.3389485 37.8119103,16.380576 37.7699053,16.4707689 C37.7746127,16.4311819 37.7796823,16.3875139 37.7796823,16.3511918 L37.7796823,16.3511918 Z M37.6102136,16.6238112 C37.6207149,16.6078948 37.6359236,16.5874891 37.6580125,16.5609618 C37.7492649,16.4556687 37.6844467,16.5821837 37.6924132,16.6287085 C37.6927753,16.6315653 37.6931374,16.6352383 37.6931374,16.6393195 C37.6801013,16.6654387 37.6630821,16.6980877 37.6395447,16.7433882 C37.5852279,16.8466408 37.6029714,16.8478651 37.6214391,16.8478651 C37.6131105,16.8670464 37.6087652,16.8858196 37.6069546,16.9029603 C37.5917459,16.8748005 37.5721918,16.9511176 37.5787098,16.9996831 C37.5797962,17.0094778 37.5801583,17.0221293 37.5794341,17.035597 C37.5519135,17.0527377 37.5128053,17.0527377 37.5099084,17.0433511 C37.5062873,17.0306996 37.5327215,17.0049885 37.5613284,16.9576474 C37.5895732,16.9103064 37.5519135,16.8723519 37.5613284,16.8082782 C37.5627769,16.7964429 37.563139,16.7866482 37.5624148,16.7780778 C37.5750887,16.7270637 37.5895732,16.6658468 37.6015229,16.6438087 C37.6040577,16.6393195 37.6073167,16.6319734 37.6102136,16.6238112 L37.6102136,16.6238112 Z M37.3592696,16.7360422 C37.3498547,16.7552235 37.3426124,16.8029727 37.3465957,16.8380704 C37.3545621,16.898063 37.3237826,17.0343726 37.289744,17.1049762 C37.2557054,17.1759878 37.2781564,17.2776079 37.3317491,17.303319 C37.3375429,17.3061758 37.3415261,17.3078082 37.3462336,17.3090326 C37.3473199,17.3306625 37.347682,17.3531087 37.3487683,17.3739225 C37.3303006,17.3616791 37.3132813,17.3486195 37.3009695,17.3380086 C37.2633098,17.3049514 37.2292712,17.3592304 37.2162351,17.3890227 C37.202837,17.4188149 37.1572108,17.5196188 37.1724195,17.6240956 C37.183645,17.7004127 37.1666257,17.6396039 37.1572108,17.5918547 C37.1619183,17.4955401 37.1811102,17.3743306 37.1767649,17.3110731 C37.1883525,17.2682213 37.2184078,17.2078206 37.2347029,17.1837419 C37.2557054,17.1539497 37.2633098,17.0258023 37.2781564,16.9792774 C37.2937272,16.9319363 37.2669309,16.8678626 37.2633098,16.8164404 C37.2596887,16.7650182 37.2937272,16.709923 37.308936,16.6760496 C37.3237826,16.64136 37.3505789,16.4923989 37.3694088,16.4536282 C37.3886007,16.4152655 37.4266225,16.2822208 37.4342269,16.2585502 C37.4414692,16.2344716 37.5555346,16.0777563 37.5613284,16.0651048 C37.5613284,16.0651048 37.6011608,16.073267 37.6011608,16.09857 C37.6011608,16.1242811 37.5783477,16.1716222 37.5327215,16.2785478 C37.4983208,16.358946 37.4899922,16.3854733 37.4545052,16.4630147 C37.421553,16.4977043 37.3643392,16.5609618 37.3607181,16.5919784 C37.3592696,16.6070786 37.3596317,16.6658468 37.3592696,16.7360422 L37.3592696,16.7360422 Z M37.7604903,17.6273605 C37.7568692,17.6555203 37.7155884,17.7975436 37.711243,17.8807986 C37.707984,17.9640536 37.7000175,17.8530469 37.6927753,17.8330494 C37.6851709,17.81346 37.6543914,17.7779541 37.6507702,17.7604053 C37.6496839,17.7555079 37.6485976,17.7493863 37.6482354,17.7416321 C37.6482354,17.7306131 37.6482354,17.719594 37.6485976,17.708575 C37.6504081,17.6910261 37.6540292,17.6734773 37.6623578,17.6596014 C37.6811877,17.6273605 37.6699622,17.5490029 37.6699622,17.5490029 L37.6605473,17.5432893 C37.6667032,17.4494234 37.6330267,17.5208431 37.6123863,17.5130889 C37.6094894,17.5118646 37.6062304,17.5106403 37.6026093,17.509824 C37.5768993,17.4934995 37.5493787,17.4759507 37.5334458,17.462483 C37.4954239,17.4322826 37.4610232,17.4816643 37.4476251,17.5090078 C37.4450903,17.5151295 37.4414692,17.5224755 37.4367617,17.5330865 C37.4461766,17.4934995 37.437848,17.4322826 37.437848,17.4322826 L37.4150349,17.4175906 C37.4291573,17.3812685 37.4523325,17.3380086 37.4664549,17.3196435 C37.4733351,17.3110731 37.4787668,17.2914837 37.4834742,17.2694456 L37.4834742,17.274343 C37.4834742,17.274343 37.4899922,17.285362 37.5055631,17.3167867 C37.5055631,17.3645359 37.5262035,17.4106526 37.5595179,17.4282015 C37.5678465,17.4437098 37.5656738,17.4363637 37.5638632,17.4302421 C37.5968155,17.4449341 37.6076788,17.4310583 37.6239739,17.411877 C37.6529429,17.401266 37.6808256,17.3890227 37.6808256,17.3890227 C37.6808256,17.3890227 37.6829983,17.3833091 37.685533,17.3726981 C37.7173989,17.368617 37.7155884,17.4028985 37.7155884,17.4028985 C37.7155884,17.4028985 37.7307971,17.4261609 37.7720779,17.5090078 C37.7749748,17.5151295 37.7775096,17.5196188 37.7796823,17.524108 C37.7833034,17.5510434 37.7894593,17.5841006 37.7952531,17.6126685 C37.7775096,17.611036 37.762663,17.6138928 37.7604903,17.6273605 L37.7604903,17.6273605 Z M37.7702674,17.1421144 C37.7699053,17.1494605 37.7688189,17.1563984 37.7684568,17.1633363 C37.7670084,17.1755797 37.765922,17.1853744 37.7648357,17.1955772 C37.7525239,17.1955772 37.7431089,17.1935366 37.7420226,17.1894555 C37.7387636,17.1808851 37.7525239,17.165785 37.7702674,17.1421144 L37.7702674,17.1421144 Z M37.791632,16.9882559 C37.791632,16.9833585 37.7919941,16.9780531 37.7927184,16.9719314 C37.8024954,16.912755 37.7648357,16.8894926 37.7648357,16.8894926 C37.7648357,16.8894926 37.7474543,16.9221416 37.7253654,16.9862153 C37.723917,16.9686665 37.7224685,16.9507095 37.720658,16.9319363 C37.7181232,16.9009198 37.7170368,16.8772492 37.7170368,16.8580679 C37.7297108,16.8397028 37.7326077,16.8372542 37.7568692,16.8058295 C37.7912699,16.7629776 37.7684568,16.822154 37.7988743,16.8417434 C37.8148072,16.8519462 37.8137209,16.8515381 37.8231358,16.8335812 C37.8376203,16.8735762 37.8292917,16.8454164 37.8347234,16.8139917 C37.8445005,16.7976672 37.8611576,16.775221 37.8894024,16.7446126 C37.8948341,16.7442045 37.8991795,16.7466531 37.9046111,16.7523667 C37.9093186,16.7576722 37.9165609,16.7690993 37.9248894,16.7825671 C37.9230789,16.7915455 37.9227168,16.7997078 37.9238031,16.8058295 C37.9288727,16.8335812 37.9187335,16.8711275 37.9002658,16.9143875 C37.8959204,16.9037766 37.8915751,16.8927575 37.8894024,16.8805141 C37.8781769,16.8254189 37.8629682,16.8805141 37.8629682,16.8805141 C37.8629682,16.8805141 37.8325507,16.9192848 37.8097377,16.9449959 C37.8024954,16.9535663 37.7963395,16.9686665 37.791632,16.9882559 L37.791632,16.9882559 Z M37.9046111,17.8118275 C37.8894024,17.7648945 37.9314075,17.7138804 37.9429951,17.6024656 C37.9509616,17.5179863 37.9158366,17.600017 37.8901266,17.6775584 C37.9046111,17.5534921 37.8673135,17.6314417 37.8445005,17.6240956 C37.8394309,17.6220551 37.8321886,17.6200145 37.8249464,17.6179739 C37.8274812,17.6098117 37.8303781,17.6028738 37.8325507,17.5983845 C37.8383445,17.5861411 37.8419657,17.5734896 37.8611576,17.5290053 C37.887954,17.5188025 37.9122155,17.5090078 37.9122155,17.5090078 C37.9122155,17.5090078 37.9194578,17.4894184 37.9277863,17.4641154 C37.9310454,17.4828886 37.9343044,17.5028861 37.9429951,17.5045186 C37.9650839,17.5085997 37.9578417,17.4702371 37.987897,17.3890227 C37.9893455,17.3849415 37.991156,17.3812685 37.9926045,17.3780036 C37.9904318,17.4094283 37.9922424,17.4245285 37.9922424,17.462483 C37.9922424,17.4992131 37.9965877,17.535127 38.0016573,17.5690004 C37.9839138,17.6342984 37.9563932,17.7481619 37.9437193,17.7861164 C37.9187335,17.8632497 37.920182,17.8587605 37.9046111,17.8118275 L37.9046111,17.8118275 Z M38.036058,18.6680481 C38.0367822,18.6668238 38.0378686,18.663967 38.0385928,18.6607021 L38.0541636,18.6745779 C38.0483698,18.6721293 38.0422139,18.6704968 38.036058,18.6680481 L38.036058,18.6680481 Z M38.1081184,17.8175411 C38.1055836,17.824479 38.1037731,17.8314169 38.1023246,17.8375386 L38.0976171,17.8542712 C38.0976171,17.8501901 38.0976171,17.8457009 38.0983414,17.8420279 C38.1019625,17.7604053 38.0719072,17.6951073 38.0719072,17.6951073 C38.0719072,17.6951073 38.0512667,17.7873407 38.0349717,17.8599848 C38.0320748,17.846109 38.0299021,17.8338656 38.0299021,17.8248871 C38.0299021,17.7893813 37.9936908,17.7461214 37.9936908,17.7461214 C37.9936908,17.7461214 37.9850001,17.8057058 37.9922424,17.8726363 C37.9955014,17.9016123 37.9915182,17.9522183 37.9853622,18.0097622 C37.9650839,18.0448599 37.9429951,18.0775089 37.9429951,18.0640412 C37.9429951,18.0383301 37.9429951,18.0081298 37.9994846,17.6624582 C38.0027437,17.6428688 38.0056406,17.62532 38.0081753,17.6098117 C38.0092617,17.6175658 38.0099859,17.6245037 38.0110722,17.6314417 C38.0190387,17.683272 38.0378686,17.7661189 38.0378686,17.7661189 C38.0378686,17.7661189 38.0566984,17.7191859 38.0639407,17.7024533 C38.0719072,17.6873531 38.0755283,17.6710286 38.1211545,17.5804276 C38.1667806,17.4898265 38.1515719,17.6122604 38.174385,17.6159334 L38.1751092,17.6159334 C38.1577278,17.6465418 38.1385359,17.6914342 38.1247756,17.7391834 C38.1175333,17.7636702 38.1121016,17.7906056 38.1081184,17.8175411 L38.1081184,17.8175411 Z M38.2301503,17.7669351 C38.2308746,17.7648945 38.2308746,17.7636702 38.2312367,17.7620377 C38.2884505,17.4420773 38.2008192,17.8057058 38.1758335,17.8771256 C38.1548309,17.9363019 38.1522961,17.9428317 38.1428812,17.9183449 C38.1685912,17.8187654 38.2102342,17.6800071 38.2156658,17.611036 C38.2189249,17.574714 38.2102342,17.5698166 38.1961118,17.5849168 C38.2008192,17.5673679 38.2062509,17.5416568 38.2200112,17.5090078 C38.229064,17.4865616 38.2384789,17.4694209 38.2478939,17.4563613 C38.2982275,17.455545 38.2812082,17.5490029 38.2877262,17.5983845 C38.2938822,17.6440932 38.2562225,17.7167372 38.2301503,17.7669351 L38.2301503,17.7669351 Z M38.3300934,18.0056811 C38.328645,18.0444518 38.3297313,18.0730197 38.3300934,18.0803657 C38.3297313,18.0681223 38.3268344,17.9967026 38.3300934,17.9281397 C38.3308176,17.9158963 38.3300934,17.9048772 38.3293692,17.8938582 C38.3300934,17.8914095 38.3311798,17.8893689 38.331904,17.8873284 C38.3355251,17.8799823 38.3420431,17.8693714 38.3500096,17.8575361 C38.338422,17.9007961 38.3333524,17.9477291 38.3311798,17.9877241 C38.3293692,17.9913971 38.3293692,17.9971107 38.3300934,18.0056811 L38.3300934,18.0056811 Z M38.3529065,18.2444271 C38.3529065,18.2444271 38.3427674,18.1615802 38.3536307,18.0860793 C38.360873,18.1060768 38.3684774,18.12485 38.3764438,18.1440313 C38.3630457,18.200759 38.3529065,18.2444271 38.3529065,18.2444271 L38.3529065,18.2444271 Z M38.3797028,17.1853744 C38.3474748,17.209453 38.3376978,17.2000664 38.3275586,17.1812933 C38.3235754,17.0955896 38.3199543,16.9882559 38.3246617,16.9347931 C38.3268344,16.909082 38.3344388,16.8572517 38.3453021,16.7960348 C38.3601488,16.7539992 38.3775302,16.7144122 38.3945495,16.6760496 C38.4209837,16.6164652 38.4401756,16.695639 38.4401756,16.695639 C38.4401756,16.695639 38.4021538,16.8613328 38.3681152,16.9462203 C38.3340767,17.031924 38.3453021,17.0119264 38.3601488,17.0633487 C38.3753575,17.115179 38.3753575,17.0747758 38.3981706,17.0866111 C38.4191731,17.0980382 38.4177247,17.0670217 38.4332955,16.9809099 C38.4264154,17.0462079 38.4242427,17.1021194 38.4307607,17.1270143 C38.4325713,17.1351765 38.4343818,17.1453793 38.4354682,17.1563984 C38.4343818,17.1535416 38.4332955,17.1498686 38.4325713,17.1457874 C38.4173625,17.0866111 38.4325713,17.1457874 38.3797028,17.1853744 L38.3797028,17.1853744 Z M38.4470558,18.298298 C38.44778,18.3003385 38.4481421,18.301971 38.4488663,18.3036034 C38.4470558,18.3072764 38.4463316,18.3048278 38.4470558,18.298298 L38.4470558,18.298298 Z M38.4836291,17.708575 C38.454298,17.7718325 38.4343818,17.81346 38.418811,17.8448846 C38.4325713,17.7934624 38.4448831,17.7461214 38.44778,17.7146967 C38.4503148,17.6800071 38.4408999,17.6763341 38.4264154,17.6922505 C38.4246048,17.6685799 38.4177247,17.6338903 38.4086718,17.5934872 C38.4224321,17.589406 38.4390893,17.5836925 38.4593676,17.5767545 C38.4655235,17.5743059 38.4709552,17.5734896 38.4763869,17.5726734 C38.4861639,17.6024656 38.4977515,17.636339 38.5082528,17.6685799 C38.5020969,17.6742935 38.4937683,17.6861288 38.4836291,17.708575 L38.4836291,17.708575 Z M39.1517268,16.9711152 C39.1415877,17.0245779 39.1220336,17.1078329 39.1115323,17.1902717 C39.110446,16.9543825 39.1108081,16.7258394 39.116964,16.7046175 C39.1194988,16.6952309 39.1209473,16.6764577 39.12312,16.6552359 C39.1372423,16.6401357 39.1510026,16.6315653 39.1600554,16.6054461 C39.1611418,16.6107516 39.1622281,16.6168733 39.1633144,16.6234031 C39.1770747,16.7197177 39.1817822,16.7944023 39.1806959,16.8601085 C39.1698325,16.8992873 39.1582449,16.9376499 39.1517268,16.9711152 L39.1517268,16.9711152 Z M39.3947044,17.2555698 C39.3925317,17.2792403 39.3907211,17.3102569 39.3889106,17.3461708 C39.3755124,17.281689 39.3697186,17.2172072 39.3845652,17.173131 C39.3986876,17.1339522 39.4055678,17.0437592 39.4106373,16.9392824 C39.4186038,17.0653892 39.4033951,17.1482361 39.3947044,17.2555698 L39.3947044,17.2555698 Z M40.6262492,16.5332101 C40.5972802,16.4670959 40.5762777,16.4193467 40.570846,16.3581298 C40.5954697,16.4054708 40.6298704,16.4609742 40.6298704,16.4744419 C40.6298704,16.4834204 40.6291461,16.507499 40.6262492,16.5332101 L40.6262492,16.5332101 Z M40.8819007,16.7690993 C40.8551044,16.7107392 40.8326534,16.6682955 40.8181689,16.6270761 C40.831205,16.6474817 40.8446031,16.6719685 40.8551044,16.695639 C40.8681404,16.7250232 40.8837113,16.7621614 40.8960231,16.7964429 C40.8913156,16.7890969 40.8866082,16.7797103 40.8819007,16.7690993 L40.8819007,16.7690993 Z M41.1643485,17.4110608 C41.1632622,17.4041228 41.1629001,17.4008579 41.1629001,17.4008579 C41.1629001,17.4008579 41.156382,17.3812685 41.1408112,17.4200392 C41.1393628,17.4204473 41.1382764,17.4204473 41.1371901,17.4212636 C41.1361037,17.4159581 41.1346553,17.4106526 41.1328447,17.4053472 C41.1136528,17.3661683 41.0680266,17.4367719 41.0720098,17.3065839 C41.0756309,17.176804 41.0908397,17.2123098 41.0944608,17.1445631 C41.098444,17.0776326 41.1248783,17.1290548 41.0908397,17.0576351 C41.056439,16.9866235 41.0872185,17.006621 41.0187793,16.9274471 C40.9905345,16.8952062 40.9698941,16.8780655 40.9525127,16.8629653 C40.9380282,16.8290919 40.9242679,16.7988916 40.9119561,16.7597127 C40.889143,16.6874768 40.802236,16.4993368 40.8210658,16.4826042 C40.831205,16.4732176 40.8529317,16.4573012 40.8746585,16.4589336 C40.9105076,16.5413724 40.9152151,16.5699403 40.9354934,16.6111597 C40.9615655,16.6670711 41.0151581,16.753591 41.0151581,16.753591 C41.0151581,16.753591 41.0162445,16.7548154 41.0176929,16.7572641 C41.0202277,16.7646101 41.0227625,16.7727724 41.0260215,16.7813427 C41.0839595,16.9494852 41.1342932,17.1294629 41.1571063,17.2000664 C41.1560199,17.2090449 41.1538473,17.2180234 41.1513125,17.22741 C41.1284994,17.3184191 41.1705044,17.3845334 41.1705044,17.3845334 C41.1705044,17.3845334 41.178833,17.3935119 41.1889722,17.4028985 C41.1802815,17.4053472 41.1726771,17.408204 41.1643485,17.4110608 L41.1643485,17.4110608 Z M41.2918121,17.2000664 C41.3044861,17.1919042 41.3189706,17.1792527 41.3327309,17.162112 C41.3497502,17.2139423 41.3642347,17.260059 41.3754602,17.2951567 C41.2990544,17.2555698 41.2501692,17.2253694 41.2918121,17.2000664 L41.2918121,17.2000664 Z M41.5604997,17.397593 L41.5579649,17.3971849 C41.5127008,17.3718819 41.4920604,17.3518844 41.5232021,17.3347437 C41.5413077,17.3241327 41.5604997,17.3065839 41.5782432,17.2829133 C41.6017805,17.3118893 41.6271284,17.3367842 41.6271284,17.3367842 C41.6271284,17.3367842 41.5796916,17.3543331 41.5604997,17.397593 L41.5604997,17.397593 Z M41.5691904,16.8894926 C41.6035911,16.9221416 41.6332843,16.952342 41.6256799,16.9956019 C41.6209725,16.9894802 41.6155408,16.9833585 41.6086606,16.9751963 C41.5557922,16.9098982 41.5597755,16.9682584 41.5691904,16.8894926 L41.5691904,16.8894926 Z M41.7618343,17.2535292 C41.7354001,17.3065839 41.7129491,17.3404572 41.7049826,17.3620872 C41.6995509,17.3771874 41.6904981,17.4057553 41.6857906,17.4314664 C41.6716682,17.4269771 41.6571837,17.4220798 41.6434235,17.4188149 C41.6528384,17.3963687 41.6593564,17.3796361 41.6593564,17.3751468 C41.6593564,17.3620872 41.6977403,17.3114812 41.690136,17.2535292 C41.6821695,17.1955772 41.6705819,17.1270143 41.6593564,17.0927328 C41.6477688,17.0588594 41.6521142,16.9907046 41.6365433,16.8882683 C41.6216967,16.7854238 41.6477688,16.7515505 41.6025047,16.5891216 C41.5572407,16.4266927 41.5496363,16.3246645 41.5380487,16.2940561 C41.5315307,16.2773234 41.5065449,16.2193714 41.4797486,16.1618275 C41.4801107,16.1287704 41.4855424,16.1193838 41.500389,16.1691735 C41.5344276,16.2818127 41.5800538,16.4124088 41.6086606,16.4830123 C41.6372675,16.5540239 41.6086606,16.5483103 41.648493,16.68462 C41.6629775,16.7340016 41.6738409,16.7805265 41.6839801,16.822154 C41.6810832,16.8597004 41.6807211,16.8968386 41.6821695,16.9139794 C41.6861527,16.9474446 41.7089658,17.0376376 41.7241746,17.0588594 C41.7390212,17.0804894 41.7618343,17.1017113 41.7618343,17.144155 C41.7618343,17.1874149 41.7882685,17.2004746 41.7618343,17.2535292 L41.7618343,17.2535292 Z M41.857432,17.1457874 C41.8567078,17.1498686 41.8552593,17.1539497 41.8534487,17.1584389 C41.8458444,17.1780283 41.8346189,17.198434 41.8230313,17.2180234 C41.8266524,17.1821095 41.825204,17.1388495 41.8096331,17.0735515 C41.8074605,17.0653892 41.8052878,17.057227 41.8034772,17.0490647 C41.8371537,17.0788569 41.8653985,17.1070167 41.857432,17.1457874 L41.857432,17.1457874 Z M41.9399937,17.3494357 C41.9360104,17.3657602 41.9298545,17.3812685 41.9226123,17.3971849 C41.9226123,17.3931038 41.9226123,17.3882064 41.921888,17.3845334 C41.9142837,17.3306625 41.9026961,17.267405 41.8914706,17.2355723 C41.8802451,17.2041476 41.8835041,17.1412982 41.8686575,17.0462079 C41.8534487,16.9511176 41.8802451,16.919693 41.8346189,16.7690993 C41.8244797,16.7376747 41.8168754,16.7086986 41.8099952,16.6817632 C41.8281009,16.6409519 41.8422233,16.6270761 41.8494655,16.6507466 C41.8603289,16.6895173 41.8516382,16.7340016 41.9019718,16.9392824 C41.9063172,16.9588718 41.9110246,16.9780531 41.9146458,16.99601 C41.9131973,17.0270266 41.9124731,17.0560026 41.9142837,17.0694703 C41.9168184,17.0939571 41.931303,17.1498686 41.9447011,17.1825176 C41.9519434,17.2592428 41.9494086,17.3147461 41.9399937,17.3494357 L41.9399937,17.3494357 Z M42.1721078,17.4722777 C42.1623308,17.5073754 42.140604,17.542065 42.1264816,17.574714 C42.1094623,17.56043 42.0591287,17.3682089 42.0555076,17.3049514 C42.0565939,17.3016865 42.056956,17.2980135 42.0580424,17.2939324 C42.0732511,17.2082287 42.0844766,17.0294753 42.0844766,17.0294753 C42.0844766,17.0294753 42.0623877,16.9201011 42.0489895,16.8417434 C42.063474,16.814808 42.0746995,16.8070538 42.0808554,16.8270514 C42.092443,16.8617409 42.0837523,16.9037766 42.1333618,17.093549 C42.1387935,17.1131384 42.143863,17.1327278 42.1478463,17.1510929 C42.1322754,17.1861906 42.1199636,17.2351641 42.1377071,17.285362 C42.153278,17.3294382 42.1677625,17.3861659 42.178988,17.4326907 C42.1779016,17.448199 42.1750047,17.4620748 42.1721078,17.4722777 L42.1721078,17.4722777 Z M42.2481515,17.7097993 C42.2481515,17.7293887 42.198542,17.6861288 42.2061464,17.654296 C42.2072327,17.6498067 42.2083191,17.6453175 42.2090433,17.6408283 C42.2228036,17.6461337 42.2372881,17.6522554 42.2506862,17.6583771 C42.2481515,17.6828639 42.2481515,17.7004127 42.2481515,17.7097993 L42.2481515,17.7097993 Z M42.2865354,17.4367719 C42.2876217,17.4326907 42.2887081,17.4273853 42.2897944,17.4212636 C42.2999336,17.3682089 42.3082621,17.2751592 42.3129696,17.2204721 C42.317315,17.2314911 42.320574,17.2429183 42.323833,17.2535292 C42.3423007,17.3278057 42.3846679,17.4645235 42.3846679,17.4645235 L42.3730803,17.5159457 C42.3730803,17.5159457 42.3390417,17.5922628 42.3082621,17.5032942 C42.3017441,17.4820724 42.2937776,17.4596262 42.2865354,17.4367719 L42.2865354,17.4367719 Z M42.3806847,17.6938829 C42.3730803,17.6938829 42.3480945,17.6763341 42.3317995,17.6534797 C42.3321616,17.6510311 42.3328858,17.6477662 42.3332479,17.6440932 C42.3361448,17.6057306 42.3155044,17.5971602 42.3115212,17.5922628 L42.3115212,17.5902223 C42.3129696,17.5885898 42.3202119,17.5853249 42.3390417,17.5796113 C42.3690971,17.571041 42.3937207,17.56043 42.41074,17.5514516 C42.4212413,17.5914466 42.4284835,17.6232794 42.429932,17.6302173 C42.4335531,17.6465418 42.3922723,17.6938829 42.3806847,17.6938829 L42.3806847,17.6938829 Z M42.6044702,17.6269524 C42.6044702,17.6269524 42.5704316,17.697964 42.5396521,17.614709 C42.5240812,17.571041 42.5063377,17.5183944 42.4907669,17.4739101 C42.4980091,17.4706452 42.5063377,17.4669722 42.5153905,17.4645235 C42.5385657,17.4575856 42.5592062,17.4588099 42.5776739,17.4596262 C42.5965037,17.5188025 42.6160578,17.5792032 42.6160578,17.5792032 L42.6044702,17.6269524 Z" id="Fill-12"></path>
            </g>
        </g>
    </g>
</svg>