<svg width="50" height="49" viewBox="0 0 50 49" xmlns="http://www.w3.org/2000/svg" xmlns:xlink="http://www.w3.org/1999/xlink"><title>Shape</title><desc>Created with Sketch.</desc><defs><path d="M.511 4.132c-.854-1.148-.614-2.769.536-3.622 1.15-.852 2.774-.613 3.628.535l5.919 7.957c.328.443.506.978.51 1.528v26.055h27.371c.926 0 1.782.493 2.245 1.294.463.801.463 1.787 0 2.588-.463.801-1.319 1.294-2.245 1.294h-27.953c.518 2.08-.343 4.259-2.143 5.428-1.8 1.168-4.145 1.068-5.839-.248-1.694-1.317-2.366-3.561-1.673-5.59.693-2.029 2.599-3.396 4.746-3.405h.286v-26.544l-5.389-7.269zm36.852 11.553v-3.535c0-.973-.79-1.762-1.766-1.762h-19.39c-.975 0-1.766.789-1.766 1.762v19.356c0 .973.79 1.762 1.766 1.762h19.39c.975 0 1.766-.789 1.766-1.762v-3.54h-1.572c-1.956 0-3.541-1.583-3.541-3.535v-5.216c.003-1.95 1.587-3.53 3.541-3.53h1.572zm5.787.428c-.478-.339-1.105-.386-1.628-.12-.523.265-.855.798-.862 1.384v1.829h-4.868v5.231h4.868v1.829c-.006.592.321 1.137.846 1.411.525.274 1.16.231 1.644-.112l6.2-4.437c.408-.296.65-.77.65-1.273 0-.504-.242-.977-.65-1.273l-6.2-4.467z" id="b"/><filter x="-1%" y="-1%" width="102%" height="104.2%" filterUnits="objectBoundingBox" id="a"><feOffset dy="1" in="SourceAlpha" result="shadowOffsetOuter1"/><feColorMatrix values="0 0 0 0 1 0 0 0 0 1 0 0 0 0 1 0 0 0 0.1 0" in="shadowOffsetOuter1"/></filter></defs><g transform="translate(-124 -1285) translate(124 1285)" fill-rule="nonzero" fill="none"><use fill="#000" filter="url(#a)" xlink:href="#b"/><use fill="#1C385C" fill-rule="evenodd" xlink:href="#b"/><use fill="#4B88C4" fill-rule="evenodd" xlink:href="#b"/></g></svg>