<svg width="46" height="49" viewBox="0 0 46 49" xmlns="http://www.w3.org/2000/svg" xmlns:xlink="http://www.w3.org/1999/xlink"><title>Page 1</title><desc>Created with Sketch.</desc><defs><filter x="-1.1%" y="-1%" width="102.2%" height="104.2%" filterUnits="objectBoundingBox" id="a"><feOffset dy="1" in="SourceAlpha" result="shadowOffsetOuter1"/><feColorMatrix values="0 0 0 0 1 0 0 0 0 1 0 0 0 0 1 0 0 0 0.1 0" in="shadowOffsetOuter1" result="shadowMatrixOuter1"/><feMerge><feMergeNode in="shadowMatrixOuter1"/><feMergeNode in="SourceGraphic"/></feMerge></filter><path d="M12.238 23.22c0-.663-.538-1.201-1.202-1.201h-9.772c-.664 0-1.202.538-1.202 1.201v23.287c0 .664.538 1.201 1.202 1.201h9.772c.664 0 1.202-.537 1.202-1.201v-23.287z" id="b"/><path d="M42.151 31.787l.001-.028.022.018-.023.01m3.346-3.086c0-1.403-.499-2.614-1.222-3.2.943-.545 1.622-2.566 1.622-4.334 0-2.228-1.076-4.557-2.404-4.557h-.639l-12.823.683s1.477-2.568 1.765-4.145c.288-1.577 1.681-7.982.378-10.882-1.302-2.902-6.408-2.578-6.408 1.88v2.9059999999999997c0 1.854-3.628 4.883-5.161 6.282-.916.711-5.662 7.131-5.662 9.687v19.823c0 1.051 3.405.809 2.103.809h24.493l.005.092c1.191-.043 2.148-1.39 2.148-3.169 0-1.145-.397-2.103-.998-2.687 1.216-.002 2.2-1.377 2.2-3.104 0-1.12-.419-2.084-1.042-2.636.946-.403 1.644-1.784 1.644-3.447" id="c"/></defs><g filter="url(#a)" fill="none"><g transform=""><use fill="#1C385C" xlink:href="#b"/><use fill="#4B88C4" xlink:href="#b"/></g><g><use fill="#1C385C" xlink:href="#c"/><use fill="#4B88C4" xlink:href="#c"/></g></g></svg>