<svg width="30" height="49" viewBox="0 0 30 49" xmlns="http://www.w3.org/2000/svg" xmlns:xlink="http://www.w3.org/1999/xlink"><title>Group</title><desc>Created with Sketch.</desc><defs><filter x="-1.7%" y="-1%" width="103.3%" height="104.2%" filterUnits="objectBoundingBox" id="a"><feOffset dy="1" in="SourceAlpha" result="shadowOffsetOuter1"/><feColorMatrix values="0 0 0 0 1 0 0 0 0 1 0 0 0 0 1 0 0 0 0.1 0" in="shadowOffsetOuter1" result="shadowMatrixOuter1"/><feMerge><feMergeNode in="shadowMatrixOuter1"/><feMergeNode in="SourceGraphic"/></feMerge></filter><path id="b" d="M23.888 29.64h-18.186l-.661 2.163h4.847l.925 2.982h7.967l.922-2.982h4.846z"/><path d="M8.668 17.495c-.673.925-.945 2.054-.765 3.181.182 1.129.795 2.119 1.722 2.79l4.353 3.144c.233.168.386.416.431.698.045.282-.023.565-.192.797l.657.472 2.298-3.155c.539-.738.82-1.607.82-2.501 0-.225-.018-.453-.053-.681-.182-1.127-.794-2.119-1.723-2.788l-4.353-3.146c-.232-.169-.386-.416-.43-.698l-.015-.171c0-.224.07-.441.203-.624l.003-.001-.655-.471-2.303 3.154z" id="c"/><path d="M11.292 4.851c-.78 1.071-1.189 2.331-1.189 3.629 0 .328.025.657.079.988.261 1.636 1.149 3.071 2.497 4.043l5.471 3.941c.723.52 1.197 1.29 1.338 2.167.029.176.043.354.043.529 0 .695-.22 1.371-.638 1.945l.524.378 4.31-5.925c.978-1.341 1.372-2.98 1.109-4.617-.261-1.635-1.148-3.072-2.495-4.043l-6.607-4.775c-.415-.301-.689-.745-.771-1.247-.079-.504.042-1.009.343-1.424l-.524-.378-3.489 4.789z" id="d"/><path d="M.117 36.591h4.983c1.225 0 2.192.335 2.805.946.49.488.736 1.083.736 1.815v.031c0 1.204-.644 1.875-1.41 2.302 1.241.473 2.009 1.19 2.009 2.625v.03c0 1.951-1.595 2.928-4.017 2.928h-5.104v-10.676h-.001zm4.477 4.315c1.043 0 1.701-.336 1.701-1.128v-.03c0-.703-.552-1.098-1.548-1.098h-2.33v2.255h2.177zm.628 4.3c1.043 0 1.671-.365 1.671-1.158v-.031c0-.718-.537-1.16-1.748-1.16h-2.729v2.348h2.806v.001z" id="e"/><path d="M10.266 36.591h4.983c1.227 0 2.192.335 2.805.946.49.488.736 1.083.736 1.815v.031c0 1.204-.644 1.875-1.41 2.302 1.241.473 2.009 1.19 2.009 2.625v.03c0 1.951-1.594 2.928-4.017 2.928h-5.105v-10.676zm4.477 4.315c1.043 0 1.703-.336 1.703-1.128v-.03c0-.703-.552-1.098-1.551-1.098h-2.33v2.255h2.178zm.628 4.3c1.043 0 1.671-.365 1.671-1.158v-.031c0-.718-.535-1.16-1.747-1.16h-2.731v2.348h2.807v.001z" id="f"/><path d="M20.416 36.591h4.982c1.226 0 2.192.335 2.806.946.49.488.735 1.083.735 1.815v.031c0 1.204-.644 1.875-1.41 2.302 1.242.473 2.009 1.19 2.009 2.625v.03c0 1.951-1.595 2.928-4.018 2.928h-5.104v-10.676h-.001zm4.476 4.315c1.042 0 1.701-.336 1.701-1.128v-.03c0-.703-.552-1.098-1.548-1.098h-2.331v2.255h2.178zm.628 4.3c1.042 0 1.671-.365 1.671-1.158v-.031c0-.718-.536-1.16-1.748-1.16h-2.729v2.348h2.806v.001z" id="g"/></defs><g filter="url(#a)" fill-rule="evenodd" fill="none"><g id="Shape" transform=""><use fill="#1C385C" xlink:href="#b"/><use fill="#4B88C4" xlink:href="#b"/></g><g id="Shape"><use fill="#1C385C" xlink:href="#c"/><use fill="#4B88C4" xlink:href="#c"/></g><g id="Shape"><use fill="#1C385C" xlink:href="#d"/><use fill="#4B88C4" xlink:href="#d"/></g><g id="Shape"><use fill="#1C385C" xlink:href="#e"/><use fill="#4B88C4" xlink:href="#e"/></g><g id="Shape"><use fill="#1C385C" xlink:href="#f"/><use fill="#4B88C4" xlink:href="#f"/></g><g><use fill="#1C385C" xlink:href="#g"/><use fill="#4B88C4" xlink:href="#g"/></g></g></svg>