<?xml version="1.0" encoding="UTF-8" standalone="no"?>
<svg width="20px" height="21px" viewBox="0 0 20 21" version="1.1" xmlns="http://www.w3.org/2000/svg" xmlns:xlink="http://www.w3.org/1999/xlink">
    <!-- Generator: Sketch 50 (54983) - http://www.bohemiancoding.com/sketch -->
    <title>Combined Shape Copy 4</title>
    <desc>Created with Sketch.</desc>
    <defs></defs>
    <g id="Page-1" stroke="none" stroke-width="1" fill="none" fill-rule="evenodd" opacity="0.5">
        <g id="KM-skip---step-1" transform="translate(-732.000000, -702.000000)" fill="#56616D">
            <g id="Group-10" transform="translate(460.000000, 538.000000)">
                <g id="Group-8" transform="translate(272.000000, 68.000000)">
                    <path d="M11.7991498,106.603604 L14.8569089,103.545845 C15.2790973,103.123656 15.2790973,102.439153 14.8569089,102.016965 C14.4347204,101.594777 13.7502177,101.594777 13.3280293,102.016965 L10.2702703,105.074724 L7.21251122,102.016965 C6.79032279,101.594777 6.10582011,101.594777 5.68363169,102.016965 C5.26144327,102.439153 5.26144327,103.123656 5.68363169,103.545845 L8.74139074,106.603604 L5.68363169,109.661363 C5.26144327,110.083551 5.26144327,110.768054 5.68363169,111.190242 C6.10582011,111.612431 6.79032279,111.612431 7.21251122,111.190242 L10.2702703,108.132483 L13.3280293,111.190242 C13.7502177,111.612431 14.4347204,111.612431 14.8569089,111.190242 C15.2790973,110.768054 15.2790973,110.083551 14.8569089,109.661363 L11.7991498,106.603604 Z M10,116.333333 C4.4771525,116.333333 0,111.856181 0,106.333333 C0,100.810486 4.4771525,96.3333333 10,96.3333333 C15.5228475,96.3333333 20,100.810486 20,106.333333 C20,111.856181 15.5228475,116.333333 10,116.333333 Z" id="Combined-Shape-Copy-4"></path>
                </g>
            </g>
        </g>
    </g>
</svg>