<svg width="16px" height="24px" viewBox="0 0 16 24" version="1.1" xmlns="http://www.w3.org/2000/svg" xmlns:xlink="http://www.w3.org/1999/xlink">
  <g id="Page-1" stroke="none" stroke-width="1" fill="none" fill-rule="evenodd">
    <g id="Menu" transform="translate(-333.000000, -455.000000)">
      <g id="Group-89" transform="translate(329.000000, 455.000000)">
        <g id="Group-80-Copy">
          <rect id="Rectangle-30-Copy" x="0" y="0" width="24" height="24"></rect>
          <path d="M19.9977192,21.6196762 C20.021705,22.0778658 19.8556497,22.5256001 19.5401446,22.8577108 C19.2252545,23.1898214 18.7873605,23.3786324 18.3285558,23.3786324 L5.67145131,23.3786324 C5.21326166,23.3786324 4.77475265,23.1898214 4.45924756,22.8577108 C4.14374248,22.5256001 3.97830219,22.0772508 4.00228796,21.6196762 L4.78151786,6.58429064 C4.82702932,5.69681727 5.56013275,5 6.44945117,5 L17.5493259,5 C18.4398744,5 19.1735929,5.69681727 19.2191043,6.58429064 L19.9977192,21.6196762 Z M15.3165074,9.08133861 C14.614062,10.2319427 13.3467166,11 11.8999819,11 C10.3561548,11 9.01660316,10.1253927 8.34977944,8.84463039 C8.44559249,8.66779579 8.5,8.46525167 8.5,8.25 C8.5,7.55964406 7.94035594,7 7.25,7 C6.55964406,7 6,7.55964406 6,8.25 C6,8.94035594 6.55964406,9.5 7.25,9.5 C7.35282681,9.5 7.45275373,9.48758409 7.54836336,9.46416966 C8.40767178,10.9784102 10.0345243,12 11.8999819,12 C13.7507452,12 15.3666477,10.994441 16.2311514,9.49986078 C16.2374232,9.49995348 16.2437062,9.5 16.25,9.5 C16.9403559,9.5 17.5,8.94035594 17.5,8.25 C17.5,7.55964406 16.9403559,7 16.25,7 C15.5596441,7 15,7.55964406 15,8.25 C15,8.56918605 15.1196337,8.86043014 15.3165074,9.08133861 Z" id="Combined-Shape" fill="#FFFFFF" fill-rule="nonzero"></path>
          <path d="M7,1.77635684e-15 C7.46327033,2.28224032 9.48102397,4 11.8999819,4 C14.3189398,4 16.3366934,2.28224032 16.7999638,1.55431223e-15 L15.7739644,0 C15.3299216,1.72522721 13.7638213,3 11.8999819,3 C10.0361425,3 8.47004216,1.72522721 8.02599937,2.70894418e-14 L7,0 L7,1.77635684e-15 Z" id="Combined-Shape-Copy" fill="#FFFFFF" transform="translate(11.899982, 2.000000) scale(1, -1) translate(-11.899982, -2.000000) "></path>
          <g id="Group-70" transform="translate(6.000000, 7.000000)"></g>
        </g>
      </g>
    </g>
  </g>
</svg>