<svg width="69" height="64" viewBox="0 0 69 64" xmlns="http://www.w3.org/2000/svg"><title>Group 88</title><desc>Created with Sketch.</desc><g fill-rule="nonzero" fill="#00939B"><path d="M67.369 41.911h-65.831c-.849 0-1.538-.689-1.538-1.538 0-.849.689-1.538 1.538-1.538h65.831c.849 0 1.538.689 1.538 1.538 0 .849-.688 1.538-1.538 1.538zm-15.143-8.712c-.849 0-1.538-.689-1.538-1.538 0-8.974-7.301-16.275-16.275-16.275-8.974 0-16.275 7.301-16.275 16.275 0 .849-.689 1.538-1.538 1.538-.849 0-1.538-.689-1.538-1.538 0-.393.012-.783.035-1.17h-11.155c-.849 0-1.538-.689-1.538-1.538 0-.849.689-1.538 1.538-1.538h11.59c.744-3.311 2.34-6.303 4.543-8.735l-.058-.055-4.048-4.047c-.601-.601-.601-1.575 0-2.175.6-.601 1.575-.601 2.175 0l4.048 4.047.114.128c2.953-2.375 6.615-3.902 10.613-4.208v-10.828c0-.849.689-1.538 1.538-1.538.849 0 1.538.689 1.538 1.538v10.835c4.041.328 7.735 1.904 10.695 4.34l.1-.11 4.047-4.047c.6-.601 1.575-.601 2.175 0 .601.601.601 1.575 0 2.175l-4.047 4.047-.067.064c2.128 2.402 3.669 5.334 4.396 8.572h11.679c.849 0 1.538.689 1.538 1.538 0 .849-.689 1.538-1.538 1.538h-11.243c.023.387.035.777.035 1.17 0 .849-.689 1.538-1.538 1.538z" id="Shape"/><g><path d="M24.991 60.963c.438.237.89.459 1.341.658l.583-1.316c-.417-.186-.835-.39-1.241-.609l-.683 1.267zM27.719 62.175c.47.166.949.315 1.426.443l.373-1.391c-.441-.119-.885-.256-1.321-.41l-.478 1.359zM22.481 59.349c.396.3.808.588 1.224.855l.778-1.211c-.386-.248-.767-.515-1.134-.793l-.867 1.149zM20.247 57.371c.347.359.711.706 1.08 1.032l.952-1.079c-.342-.302-.678-.624-1-.956l-1.032 1.002zM30.601 62.948c.49.092.988.165 1.478.218l.153-1.431c-.454-.048-.914-.117-1.366-.201l-.265 1.414zM16.422 46.611l-1.422.22c.076.491.172.984.285 1.468l1.4-.329c-.104-.448-.193-.905-.263-1.359zM17.053 49.302l-1.37.437c.15.47.32.943.508 1.405l1.334-.54c-.175-.428-.332-.867-.471-1.302zM19.514 54.239l-1.174.833c.289.408.595.806.91 1.185l1.106-.921c-.291-.351-.575-.719-.842-1.097zM18.092 51.866l-1.287.643c.221.443.462.884.718 1.311l1.234-.739c-.237-.396-.461-.804-.665-1.215zM55.668 49.95l-2.158-3.6c-.205-.341-.647-.451-.987-.247l-3.596 2.16.74 1.235 1.934-1.161c-2.02 7.809-9.211 13.504-17.409 13.504l-.58-.009-.045 1.439.625.011c8.952 0 16.797-6.289 18.877-14.869l1.367 2.28 1.233-.742z"/></g></g></svg>