<?xml version="1.0" encoding="UTF-8"?>
<svg width="40px" height="27px" viewBox="0 0 40 27" version="1.1" xmlns="http://www.w3.org/2000/svg" xmlns:xlink="http://www.w3.org/1999/xlink">
    <!-- Generator: Sketch 55 (78076) - https://sketchapp.com -->
    <title>youtube</title>
    <desc>Created with Sketch.</desc>
    <g id="Page-1" stroke="none" stroke-width="1" fill="none" fill-rule="evenodd">
        <g id="home-2" transform="translate(-1457.000000, -7146.000000)" fill="#FFFFFF" fill-rule="nonzero">
            <g id="footer" transform="translate(0.000000, 7066.000000)">
                <g id="Group-2" transform="translate(1348.000000, 80.000000)">
                    <g id="youtube" transform="translate(109.884081, 0.000000)">
                        <path d="M36.8214302,2.28107971 C35.4383879,0.660889498 32.884889,0 28.0082745,0 L10.3061986,0 C5.31797674,0 2.72121909,0.703519672 1.34336787,2.42845831 C0,4.11027958 0,6.58831069 0,10.0179691 L0,16.55488 C0,23.1992189 1.59389751,26.5727273 10.3061986,26.5727273 L28.0083981,26.5727273 C32.2373681,26.5727273 34.5807534,25.9895465 36.0967853,24.5597305 C37.6515028,23.0934961 38.314844,20.6995073 38.314844,16.55488 L38.314844,10.0179691 C38.314844,6.40110333 38.2108995,3.90845615 36.8214302,2.28107971 Z M24.5982534,14.1889053 L16.5597992,18.329026 C16.3800902,18.4215944 16.1835721,18.4675132 15.9873012,18.4675132 C15.7650751,18.4675132 15.5433434,18.4085617 15.3469489,18.2913897 C14.9771489,18.0705654 14.7513385,17.6755664 14.7513385,17.2495082 L14.7513385,8.99581932 C14.7513385,8.57049199 14.9765309,8.17585837 15.3455894,7.95491227 C15.7147714,7.73396617 16.1739316,7.71886291 16.5569564,7.91496171 L24.5954107,12.0284081 C25.0043908,12.2376614 25.2612238,12.6537319 25.2618418,13.1076823 C25.2623362,13.5619982 25.0066155,13.9786777 24.5982534,14.1889053 Z" id="XMLID_823_"></path>
                    </g>
                </g>
            </g>
        </g>
    </g>
</svg>