<svg width="32px" height="23px" viewBox="0 0 32 23" version="1.1" xmlns="http://www.w3.org/2000/svg" xmlns:xlink="http://www.w3.org/1999/xlink">
  <g id="Page-1" stroke="none" stroke-width="1" fill="none" fill-rule="evenodd">
    <g id="Menu" transform="translate(-325.000000, -346.000000)" fill="#FFFFFF">
      <g id="km-icon-copy-2" transform="translate(325.000000, 346.000000)">
        <path d="M19.6772819,12.4391311 C19.6772819,12.4391311 17.540049,13.6262279 15.6239092,13.4778408 C13.7070324,13.6262279 11.5705366,12.4391311 11.5705366,12.4391311 C4.79034953,9.0262279 1.25286065,13.4778408 1.25286065,13.4778408 C1.25286065,13.4778408 6.11690786,22.974615 15.6239092,22.974615 C25.1301736,22.974615 29.9949578,13.4778408 29.9949578,13.4778408 C29.9949578,13.4778408 26.5311666,9.0262279 19.6772819,12.4391311" id="Fill-4"></path>
        <path d="M20.7827472,0.122927896 C20.4142588,-0.0254592008 19.9713357,-0.0254592008 19.6028473,0.0487343475 C18.8658704,0.197121444 17.4663514,0.568089186 15.6976069,1.38421822 C13.9288625,0.568089186 12.5286065,0.197121444 11.7916296,0.0487343475 C11.4231412,-0.0254592008 10.9809551,-0.0254592008 10.6124667,0.122927896 C4.56925647,2.1261537 0,10.2132505 0,10.2132505 C0,10.2132505 1.76874444,12.5132505 8.25414073,9.69389564 C9.8754898,8.95196015 11.7179319,8.87776661 13.4866764,9.39712144 C14.2236532,9.61970209 14.9606301,9.76808919 15.6239092,9.76808919 C16.3608861,9.76808919 17.0978629,9.61970209 17.7604051,9.39712144 C19.4561889,8.87776661 21.298631,8.95196015 22.9936777,9.69389564 C29.5520347,12.5132505 31.2478185,10.2132505 31.2478185,10.2132505 C31.2478185,10.2132505 26.8259574,2.1261537 20.7827472,0.122927896" id="Fill-1"></path>
      </g>
    </g>
  </g>
</svg>