<?xml version="1.0" encoding="UTF-8"?>
<svg width="26px" height="21px" viewBox="0 0 26 21" version="1.1" xmlns="http://www.w3.org/2000/svg" xmlns:xlink="http://www.w3.org/1999/xlink">
    <!-- Generator: Sketch 55 (78076) - https://sketchapp.com -->
    <title>twitter-twitter</title>
    <desc>Created with Sketch.</desc>
    <g id="Page-1" stroke="none" stroke-width="1" fill="none" fill-rule="evenodd">
        <g id="home-2" transform="translate(-1348.000000, -7202.000000)" fill="#FFFFFF">
            <g id="footer" transform="translate(0.000000, 7066.000000)">
                <g id="Group-2" transform="translate(1348.000000, 80.000000)">
                    <path d="M26.0165537,58.4835814 C25.0595472,58.9019003 24.0309293,59.1843549 22.9509532,59.3114595 C24.0529245,58.6605982 24.8993383,57.6302468 25.2977553,56.4026061 C24.2666694,57.0049137 23.1242648,57.4427541 21.9085068,57.6784428 C20.9348405,56.6564577 19.5475131,56.0181818 18.01239,56.0181818 C15.0644236,56.0181818 12.6745749,58.3722085 12.6745749,61.2758061 C12.6745749,61.688154 12.7218681,62.0893468 12.8127887,62.4741287 C8.37670194,62.2548509 4.44370879,60.1616478 1.81122392,56.9804582 C1.35168511,57.7569938 1.08850558,58.6602765 1.08850558,59.6239472 C1.08850558,61.4479246 2.03081241,63.0572008 3.4629649,64.0002774 C2.58798644,63.973033 1.76494701,63.7363074 1.04542268,63.3424799 C1.04491454,63.3644685 1.04491454,63.386457 1.04491454,63.4088031 C1.04491454,65.9562576 2.8848483,68.0812458 5.32663599,68.5644577 C4.87863918,68.6845903 4.40701392,68.7488398 3.92036228,68.7488398 C3.57638871,68.7488398 3.24196088,68.7156603 2.91602624,68.6545571 C3.59533502,70.7432195 5.56662262,72.2634331 7.90224563,72.3060516 C6.07541459,73.7162866 3.77398205,74.5567142 1.27317768,74.5567142 C0.8423487,74.5567142 0.417508492,74.5319368 0,74.4833832 C2.3622277,75.9753514 5.16766119,76.8454545 8.18208484,76.8454545 C17.9999769,76.8454545 23.3688247,68.8336834 23.3688247,61.8854432 C23.3688247,61.6574416 23.3635255,61.4308343 23.3532539,61.2052639 C24.396027,60.4640172 25.301276,59.5380667 26.0165537,58.4835814 Z" id="twitter-twitter"></path>
                </g>
            </g>
        </g>
    </g>
</svg>