<svg width="66" height="64" viewBox="0 0 66 64" xmlns="http://www.w3.org/2000/svg"><title>Group</title><desc>Created with Sketch.</desc><g fill-rule="nonzero" fill="#00939B"><path d="M63.224 45.936c-2.936 1.249-6.033 1.882-9.203 1.882-1.761 0-3.535-.201-5.269-.597-12.688-2.901-20.653-15.583-17.754-28.271.555-2.425 1.48-4.73 2.75-6.849.333-.559.286-1.265-.121-1.773-.406-.508-1.085-.708-1.704-.506-9.239 3.052-16.048 10.528-18.213 20.001-3.377 14.788 5.905 29.569 20.69 32.947 2.023.463 4.093.698 6.151.698 10.416 0 20.104-6.051 24.681-15.416.285-.584.178-1.284-.27-1.755-.447-.47-1.14-.616-1.738-.361zm-22.673 14.418c-1.825 0-3.661-.208-5.458-.619-13.111-2.996-21.341-16.104-18.347-29.218 1.615-7.069 6.148-12.886 12.429-16.164-.501 1.263-.906 2.567-1.213 3.903-3.281 14.362 5.733 28.718 20.097 32.001 4.072.931 8.307.892 12.291-.088-4.528 6.289-11.928 10.186-19.798 10.186zM12.806 8.499c-.43-.745-1.382-1-2.127-.57l-2.616 1.51v-3.019c0-.86-.697-1.557-1.557-1.557s-1.557.697-1.557 1.557v3.017l-2.613-1.507c-.743-.43-1.696-.175-2.127.57-.43.744-.175 1.697.57 2.127l2.613 1.507-2.613 1.507c-.745.43-1 1.382-.57 2.127.288.499.812.779 1.35.779.264 0 .531-.067.776-.209l2.613-1.507v3.018c0 .86.697 1.557 1.557 1.557s1.557-.697 1.557-1.557v-3.02l2.616 1.51c.245.142.513.209.777.209.538 0 1.062-.28 1.35-.779.43-.744.175-1.697-.57-2.127l-2.613-1.507 2.613-1.507c.746-.43 1.001-1.382.571-2.127zM44.549 35.331c.289.499.812.778 1.35.778.264 0 .531-.067.777-.209l2.829-1.635v3.267c0 .859.698 1.556 1.557 1.556s1.557-.697 1.557-1.556v-3.265l2.829 1.633c.246.142.513.209.777.209.538 0 1.06-.279 1.349-.778.431-.744.175-1.697-.569-2.127l-2.83-1.635 2.83-1.635c.744-.43 1-1.382.569-2.127-.429-.745-1.382-1-2.127-.569l-2.829 1.633v-3.268c0-.86-.698-1.557-1.557-1.557s-1.557.697-1.557 1.557v3.269l-2.829-1.634c-.745-.431-1.697-.176-2.127.569-.43.744-.175 1.697.57 2.127l2.83 1.635-2.83 1.635c-.743.43-.998 1.382-.568 2.127zM64.611 8.991l-2.427-1.402 2.427-1.402c.744-.43 1-1.382.57-2.127-.431-.745-1.382-1-2.127-.57l-2.426 1.401v-2.803c0-.86-.697-1.557-1.557-1.557-.859 0-1.556.697-1.556 1.557v2.803l-2.426-1.401c-.745-.431-1.697-.175-2.127.57-.43.744-.175 1.697.57 2.127l2.427 1.402-2.427 1.402c-.744.431-1 1.382-.57 2.127.289.499.812.778 1.35.778.264 0 .532-.067.777-.209l2.426-1.401v2.801c0 .86.697 1.557 1.556 1.557.86 0 1.557-.697 1.557-1.557v-2.801l2.426 1.401c.246.142.513.209.777.209.538 0 1.061-.28 1.35-.778.432-.744.177-1.697-.568-2.127z"/></g></svg>