<svg width="23px" height="25px" viewBox="0 0 23 25" version="1.1" xmlns="http://www.w3.org/2000/svg" xmlns:xlink="http://www.w3.org/1999/xlink">
  <g id="Page-1" stroke="none" stroke-width="1" fill="none" fill-rule="evenodd">
    <g id="Menu" transform="translate(-329.000000, -285.000000)" fill="#FFFFFF">
      <g id="mm-icon" transform="translate(329.000000, 285.000000)">
        <path d="M12.5201438,13.2075206 C12.5241977,13.2041579 12.5291204,13.2032408 12.5334639,13.2001838 L14.0545634,11.5539833 C13.725904,11.3931845 13.3697356,11.1070483 13.0558442,10.7756683 C13.0173316,10.73501 12.9793983,10.6934347 12.942044,10.6515536 C12.9243804,10.6344344 12.9061376,10.6179265 12.8896323,10.6005015 C12.8792078,10.5894963 12.8748643,10.5751283 12.8658877,10.5629003 C12.6342335,10.2886864 12.4384857,9.99643612 12.3180255,9.72222222 L10.7592822,11.3271531 C10.7563865,11.3317386 10.7555178,11.3369355 10.7523325,11.341521 C10.7508847,11.4809207 10.9472117,11.935804 11.4519283,12.4689468 C11.9569345,13.0020895 12.3805721,13.2035465 12.5201438,13.2075206" id="Fill-1"></path>
        <path d="M16.4574855,0.14342846 C13.4827558,1.28675063 12.8332553,8.73148992 12.8271743,8.80638669 C12.8263056,8.81586342 12.821383,8.82350595 12.8199352,8.83237128 C12.8164603,8.85468746 12.8103794,8.87578084 12.801982,8.89687422 C12.7956115,8.91338208 12.7886618,8.92836143 12.7796852,8.94303509 C12.7750521,8.95067762 12.7736043,8.95893155 12.7683921,8.96596267 C12.767813,9.02496299 12.8051672,9.14265792 12.8836401,9.29642558 C13.0510102,8.69633429 13.428317,8.13995826 13.4983924,8.03999399 C13.5936602,7.9042627 13.7743505,7.87552679 13.9034977,7.97671386 C14.0317763,8.07698383 14.0589956,8.26835272 13.9640174,8.40408402 C13.6260918,8.88648038 13.2539972,9.69689404 13.4341084,10.0294969 C13.8507964,10.3348923 14.4655488,10.2398192 15.2688098,9.73785799 C15.9964936,9.28266903 16.5846057,8.66545847 16.5906867,8.65934445 C16.7039077,8.53981532 16.8869145,8.53981532 17.0001355,8.65934445 C17.1133565,8.77887359 17.1133565,8.97207669 17.0001355,9.09160583 C16.9740744,9.11911893 16.3541098,9.76995661 15.5635898,10.2639696 C15.0979648,10.5553028 14.6983613,10.7127388 14.3552235,10.7787703 C14.4342755,10.8136202 14.4968221,10.8319623 14.5344659,10.8319623 L14.5359138,10.8319623 C14.543153,10.8264597 14.5515504,10.8246255 14.5590792,10.8197342 C14.5723993,10.8105632 14.5862986,10.8035321 14.6010665,10.7968067 C14.6210467,10.7879413 14.6410269,10.7818273 14.6621653,10.7778532 C14.6708523,10.7763247 14.6780915,10.7711278 14.6873577,10.7702107 C14.7583018,10.7634852 21.8110144,10.0759634 22.8931292,6.93733006 C23.3402218,5.64024023 22.6823238,4.04876022 20.9379676,2.2072167 C19.1930322,0.365673172 17.6852528,-0.328574063 16.4574855,0.14342846" id="Fill-3"></path>
        <g id="Group-7" transform="translate(0.000000, 11.805556)">
          <path d="M11.0391631,1.18526437 C10.7148472,0.842879117 10.4342561,0.452193091 10.2854182,0.0957455896 L0.0929222975,10.5922991 C0.050645403,10.6366258 -0.024931785,10.7931447 0.00807894079,11.0484052 C0.03935226,11.2865463 0.173711705,11.6741754 0.638757544,12.1651314 C1.10380338,12.6560873 1.47068575,12.7979327 1.69654861,12.8306427 C1.93746899,12.8657983 2.0865964,12.7860103 2.13118983,12.7386266 L12.0729201,1.97917017 C11.7347049,1.82234549 11.3643478,1.52856672 11.0391631,1.18526437" id="Fill-5"></path>
        </g>
      </g>
    </g>
  </g>
</svg>