
<svg width="29px" height="30px" viewBox="0 0 29 30" version="1.1" xmlns="http://www.w3.org/2000/svg" xmlns:xlink="http://www.w3.org/1999/xlink">
  <defs>
    <polygon id="path-1" points="0.000155913978 0 28.7662849 0 28.7662849 29.9662187 0.000155913978 29.9662187"></polygon>
  </defs>
  <g id="Page-1" stroke="none" stroke-width="1" fill="none" fill-rule="evenodd">
    <g id="Menu" transform="translate(-326.000000, -618.000000)">
      <g id="Group-8" transform="translate(326.000000, 618.000000)">
        <mask id="mask-2" fill="white">
          <use xlink:href="#path-1"></use>
        </mask>
        <g id="Clip-2"></g>
        <path d="M20.0351022,21.8412188 L21.282414,21.8412188 L21.282414,15.5912188 L20.0351022,15.5912188 L20.0351022,21.8412188 Z M20.0351022,24.3412188 L21.282414,24.3412188 L21.282414,23.0912188 L20.0351022,23.0912188 L20.0351022,24.3412188 Z M26.4275753,11.8412188 L15.2017688,11.8412188 C13.8262957,11.8412188 12.5512312,12.9627813 12.5512312,14.3412188 L12.5512312,24.9662188 C12.5512312,26.3449688 13.8262957,27.4662188 15.2017688,27.4662188 L18.6318763,27.4662188 L20.3157473,29.7159063 C20.4333065,29.8734063 20.6185323,29.9662188 20.814672,29.9662188 C21.0108118,29.9662188 21.1960376,29.8734063 21.3135968,29.7159063 L22.9974677,27.4662188 L26.4275753,27.4662188 C27.8033602,27.4662188 28.7662849,26.3449688 28.7662849,24.9662188 L28.7662849,14.3412188 C28.7662849,12.9627813 27.8033602,11.8412188 26.4275753,11.8412188 L26.4275753,11.8412188 Z" id="Fill-1" fill="#333333" mask="url(#mask-2)"></path>
        <path d="M10.8556667,9.570625 C10.2575806,10.0596875 9.84097849,10.3628125 9.84097849,10.90375 L9.84097849,11.52875 L8.59366667,11.52875 L8.59366667,10.90375 C8.59366667,9.7428125 9.44558065,9.1103125 10.0676774,8.6021875 C10.7487097,8.045625 11.2442043,7.664375 11.2442043,6.8803125 C11.2442043,5.3940625 9.81197849,5.27875 9.37323656,5.27875 C9.08978495,5.27875 7.66629032,5.371875 7.49977419,7.21 L6.25745161,7.0971875 C6.44984946,4.9775 7.96096774,4.02875 9.37323656,4.02875 C11.2382796,4.02875 12.4525376,5.1746875 12.4525376,6.8803125 C12.4525376,8.2978125 11.5501075,9.00375 10.8556667,9.570625 L10.8556667,9.570625 Z M8.7311828,14.02875 L9.97849462,14.02875 L9.97849462,12.77875 L8.7311828,12.77875 L8.7311828,14.02875 Z M9.35515054,0 C4.18847312,0 0,4.1971875 0,9.375 C0,14.5525 4.18847312,18.75 9.35515054,18.75 C10.1512473,18.75 10.9242688,18.649375 11.6620538,18.461875 L11.6620538,13.6215625 C11.6620538,12.091875 13.077129,10.8475 14.6035269,10.8475 L18.5939892,10.8475 C18.6697634,10.3675 18.7096774,9.8759375 18.7096774,9.375 C18.7096774,4.1971875 14.5215161,0 9.35515054,0 L9.35515054,0 Z" id="Fill-3" fill="#333333" mask="url(#mask-2)"></path>
      </g>
    </g>
  </g>
</svg>