<svg width="32px" height="28px" viewBox="0 0 32 28" version="1.1" xmlns="http://www.w3.org/2000/svg" xmlns:xlink="http://www.w3.org/1999/xlink">
  <defs>
    <polygon id="path-1" points="0 0 32 0 32 27.99986 0 27.99986"></polygon>
  </defs>
  <g id="Page-1" stroke="none" stroke-width="1" fill="none" fill-rule="evenodd">
    <g id="Menu" transform="translate(-325.000000, -568.000000)">
      <g id="Group" transform="translate(325.000000, 568.000000)">
        <g id="Group-3">
          <mask id="mask-2" fill="white">
            <use xlink:href="#path-1"></use>
          </mask>
          <g id="Clip-2"></g>
          <path d="M15.4961962,19.1717008 L14.4214483,22.7647944 C14.3569635,23.0957187 14.6438744,23.3899259 14.9775135,23.3240235 L18.54334,22.2418117 C18.7709062,22.1952093 18.9788465,22.0836459 19.1461334,21.9198314 L30.5393952,10.4419849 C30.9982658,9.98019732 30.9982658,9.22890983 30.5393952,8.76665148 L28.8721342,7.08708145 C28.4137308,6.62529384 27.6679493,6.62529384 27.2095459,7.08708145 L15.8158169,18.5649279 C15.6536701,18.732979 15.5377843,18.943396 15.4961962,19.1717008 M5.43177826,22.67146 C5.43177826,22.2981267 5.756762,21.97146 6.12817199,21.97146 L12.3028631,21.97146 C12.6747373,21.97146 12.9992568,22.2981267 12.9992568,22.67146 C12.9992568,23.0447933 12.6747373,23.37146 12.3028631,23.37146 L6.12817199,23.37146 C5.756762,23.37146 5.43177826,23.0447933 5.43177826,22.67146 M5.43177826,18.38046 C5.43177826,18.00666 5.756762,17.68046 6.12817199,17.68046 L13.2313881,17.68046 C13.6032623,17.68046 13.9277818,18.00666 13.9277818,18.38046 C13.9277818,18.7533267 13.6032623,19.08046 13.2313881,19.08046 L6.12817199,19.08046 C5.756762,19.08046 5.43177826,18.7533267 5.43177826,18.38046 M5.43177826,14.0889933 C5.43177826,13.71566 5.756762,13.3889933 6.12817199,13.3889933 L17.4097505,13.3889933 C17.7816247,13.3889933 18.1061442,13.71566 18.1061442,14.0889933 C18.1061442,14.4623267 17.7816247,14.7889933 17.4097505,14.7889933 L6.12817199,14.7889933 C5.756762,14.7889933 5.43177826,14.4623267 5.43177826,14.0889933 M5.43177826,9.79799333 C5.43177826,9.42466 5.756762,9.09799333 6.12817199,9.09799333 L17.4097505,9.09799333 C17.7816247,9.09799333 18.1061442,9.42466 18.1061442,9.79799333 C18.1061442,10.1713267 17.7816247,10.4979933 17.4097505,10.4979933 L6.12817199,10.4979933 C5.756762,10.4979933 5.43177826,10.1713267 5.43177826,9.79799333 M5.43177826,5.50652667 C5.43177826,5.13319333 5.756762,4.80652667 6.12817199,4.80652667 L17.4097505,4.80652667 C17.7816247,4.80652667 18.1061442,5.13319333 18.1061442,5.50652667 C18.1061442,5.87986 17.7816247,6.20652667 17.4097505,6.20652667 L6.12817199,6.20652667 C5.756762,6.20652667 5.43177826,5.87986 5.43177826,5.50652667 M23.5849058,9.27358125 L26.4373249,6.33882226 C26.834924,5.92933793 27.3652065,5.7037037 27.9288856,5.7037037 C28.4925646,5.7037037 29.0228471,5.92887366 29.4208975,6.33882226 L31.2956155,8.26739132 C31.6936659,8.67687565 31.9129997,9.22239049 31.9129997,9.80226116 C31.9129997,10.3821318 31.6936659,10.9271824 31.2956155,11.3366667 L23.5849058,19.2693059 L23.5849058,27.29986 C23.5849058,27.67366 23.2594578,27.99986 22.8885121,27.99986 L0.69630088,27.99986 C0.324890889,27.99986 -9.28524985e-05,27.67366 -9.28524985e-05,27.29986 L-9.28524985e-05,0.69986 C-9.28524985e-05,0.326526667 0.324890889,-0.00014 0.69630088,-0.00014 L22.8885121,-0.00014 C23.2594578,-0.00014 23.5849058,0.326526667 23.5849058,0.69986 L23.5849058,9.27358125 Z" id="Fill-1" fill="#FFFFFF" mask="url(#mask-2)"></path>
        </g>
      </g>
    </g>
  </g>
</svg>