<svg width="26px" height="25px" viewBox="0 0 26 25" version="1.1" xmlns="http://www.w3.org/2000/svg" xmlns:xlink="http://www.w3.org/1999/xlink">
  <g id="Page-1" stroke="none" stroke-width="1" fill="none" fill-rule="evenodd">
    <g id="Menu" transform="translate(-328.000000, -513.000000)" fill="#FFFFFF" stroke="#FFFFFF">
      <path d="M347.950632,536.99304 C348.177266,536.989168 348.391082,536.886743 348.536706,536.712292 C348.682329,536.537841 348.745436,536.308522 348.709684,536.083725 L347.50249,528.74486 L352.770316,523.518538 C352.978572,523.309817 353.052587,523.00138 352.961869,522.720294 C352.87115,522.439207 352.631047,522.233028 352.340474,522.186696 L345.014901,521.066097 L341.695059,514.425304 C341.560849,514.164099 341.292668,514 341,514 C340.707332,514 340.439151,514.164099 340.304941,514.425304 L336.985099,521.066097 L329.659526,522.186696 C329.368953,522.233028 329.12885,522.439207 329.038131,522.720294 C328.947413,523.00138 329.021428,523.309817 329.229684,523.518538 L334.49751,528.74486 L333.290277,536.083725 C333.240825,536.377962 333.361639,536.674934 333.602099,536.850207 C333.842558,537.02548 334.161136,537.048787 334.424348,536.910361 L341,533.484343 L347.575652,536.910361 C347.691865,536.96878 347.820741,536.997195 347.950632,536.99304 L347.950632,536.99304 Z" id="Path-Copy"></path>
    </g>
  </g>
</svg>