<svg width="76" height="64" viewBox="0 0 76 64" xmlns="http://www.w3.org/2000/svg"><title>Group</title><desc>Created with Sketch.</desc><g fill-rule="nonzero" fill="#004C91"><path d="M74.039 47.624h-23.027v-15.937c0-.69-.565-1.255-1.255-1.255h-24.22c-.69 0-1.255.565-1.255 1.255v7.341h-23.027c-.69 0-1.255.565-1.255 1.255v21.961c0 .69.565 1.255 1.255 1.255h72.78399999999999c.69 0 1.255-.565 1.255-1.255v-13.365c0-.69-.565-1.255-1.255-1.255zm-71.529-6.086h21.773v19.451h-21.773v-19.451zm24.282-1.255v-7.341h21.773v28.046999999999997h-21.773v-20.706zm45.992 20.706h-21.773v-10.855h21.773v10.855zM60.298 37.773c-.878.753-1.38 1.882-1.38 3.137 0 2.322 1.882 4.267 4.267 4.267 2.384 0 4.267-1.882 4.267-4.267 0-1.255-.565-2.322-1.38-3.137l4.204-8.345c.627-1.255.565-2.761-.188-4.016-.753-1.192-2.071-1.945-3.514-1.945h-6.714c-1.443 0-2.761.753-3.514 1.945-.753 1.192-.816 2.698-.188 4.016l4.141 8.345zm4.643 3.137c0 .941-.753 1.757-1.757 1.757s-1.757-.753-1.757-1.757.753-1.757 1.757-1.757 1.757.753 1.757 1.757zm-6.463-14.18c.314-.502.816-.753 1.38-.753h6.651c.565 0 1.067.251 1.38.753.314.502.314 1.067.063 1.569l-4.204 8.408-.627-.063c-.188 0-.376 0-.627.063l-4.141-8.408c-.251-.502-.188-1.067.125-1.569zM10.541 29.553c-.878.753-1.38 1.882-1.38 3.137 0 2.322 1.882 4.267 4.267 4.267 2.384 0 4.267-1.882 4.267-4.267 0-1.255-.565-2.322-1.38-3.137l4.204-8.345c.627-1.255.565-2.761-.188-4.016-.753-1.255-2.071-1.945-3.514-1.945h-6.776c-1.443 0-2.761.753-3.514 1.945-.753 1.192-.816 2.698-.188 4.016l4.204 8.345zm4.58 3.137c0 .941-.753 1.757-1.757 1.757s-1.757-.753-1.757-1.757.753-1.757 1.757-1.757 1.757.753 1.757 1.757zm-6.463-14.18c.314-.502.816-.753 1.38-.753h6.714c.565 0 1.067.251 1.38.753.314.502.314 1.067.063 1.569l-4.204 8.408-.627-.063c-.188 0-.376 0-.627.063l-4.141-8.408c-.251-.502-.251-1.067.063-1.569zM28.298 11.545h1.945l.125 1.757c.251 3.388 2.824 6.086 6.086 6.651v5.459h-3.137c-.69 0-1.255.565-1.255 1.255s.565 1.255 1.255 1.255h8.784c.69 0 1.255-.565 1.255-1.255s-.565-1.255-1.255-1.255h-3.137v-5.459c3.263-.565 5.835-3.325 6.086-6.651l.125-1.757h1.945c2.51 0 4.58-2.071 4.58-4.58 0-2.51-2.071-4.58-4.58-4.58h-1.255l.063-.565c0-.376-.125-.69-.314-.941-.251-.251-.565-.376-.941-.376h-13.929c-.376 0-.69.125-.941.376s-.376.627-.314.941l.063.565h-1.255c-2.51 0-4.58 2.071-4.58 4.58 0 2.51 2.008 4.58 4.58 4.58zm18.698-6.651c1.129 0 2.071.941 2.071 2.071 0 1.129-.941 2.071-2.071 2.071h-1.757l.314-4.141h1.443zm-3.827-1.882l-.753 10.102c-.125 2.51-2.259 4.455-4.769 4.455-2.51 0-4.643-1.945-4.831-4.455l-.753-10.102h11.106zm-14.871 1.882h1.443l.314 4.141h-1.757c-1.129 0-2.071-.941-2.071-2.071 0-1.129.878-2.071 2.071-2.071z"/></g></svg>