<svg width="40px" height="40px" viewBox="0 0 40 40" version="1.1" xmlns="http://www.w3.org/2000/svg" xmlns:xlink="http://www.w3.org/1999/xlink">
  <g id="Page-1" stroke="none" stroke-width="1" fill="none" fill-rule="evenodd">
    <g id="1c.-Dashboard-Desktop---video" transform="translate(-1583.000000, -182.000000)" fill="#FFFFFF" fill-rule="nonzero">
      <path d="M1621.41216,221.98365 C1620.96698,222.008117 1620.5326,221.841046 1620.21856,221.524573 L1603.00315,204.240307 L1585.78775,221.524573 C1585.37772,221.934604 1584.78008,222.09474 1584.21997,221.944658 C1583.65986,221.794576 1583.22236,221.357078 1583.07228,220.796964 C1582.92219,220.236851 1583.08233,219.639217 1583.49236,219.229186 L1600.77663,201.94492 L1583.49236,184.798378 C1583.17797,184.499397 1583,184.084538 1583,183.650685 C1583,183.216832 1583.17797,182.801972 1583.49236,182.502991 C1583.78788,182.182383 1584.20403,182 1584.64005,182 C1585.07608,182 1585.49223,182.182383 1585.78775,182.502991 L1603.07201,199.787256 L1620.21856,182.502991 C1620.51407,182.182383 1620.93022,182 1621.36625,182 C1621.80228,182 1622.21843,182.182383 1622.51394,182.502991 C1622.82833,182.801972 1623.0063,183.216832 1623.0063,183.650685 C1623.0063,184.084538 1622.82833,184.499397 1622.51394,184.798378 L1605.22968,202.013782 L1622.51394,219.229186 C1622.97546,219.673165 1623.11896,220.354004 1622.87589,220.946485 C1622.63282,221.538966 1622.05251,221.922859 1621.41216,221.914789 L1621.41216,221.98365 Z" id="Shape"></path>
    </g>
  </g>
</svg>