<svg width="46px" height="45px" viewBox="0 0 46 45" version="1.1" xmlns="http://www.w3.org/2000/svg" xmlns:xlink="http://www.w3.org/1999/xlink">
  <g id="Page-1" stroke="none" stroke-width="1" fill="none" fill-rule="evenodd">
    <g id="4a.-Dashboard-Desktop---ONLY-shop-order---no-clubs" transform="translate(-1405.000000, -4448.000000)">
      <g id="Group-16" transform="translate(477.000000, 4155.000000)">
        <g id="Group-5">
          <g id="Group-11-Copy" transform="translate(752.000000, 293.000000)">
            <g id="Group-10" transform="translate(176.527778, 0.000000)">
              <path d="M20.9412862,31.0714286 L20.9412862,23.2518619 L18.2986111,23.2518619 L18.2986111,20.204271 L20.9412862,20.204271 L20.9412862,17.9569252 C20.9412862,15.3486564 22.5409862,13.9285714 24.8778276,13.9285714 C25.997049,13.9285714 26.9587985,14.0115341 27.2392262,14.0486631 L27.2392262,16.7742629 L25.6188166,16.774939 C24.347895,16.774939 24.1020114,17.3763271 24.1020114,18.2585771 L24.1020114,20.204271 L27.1325946,20.204271 L26.738038,23.2518619 L24.1020114,23.2518619 L24.1020114,31.0714286 L20.9412862,31.0714286 Z" id="facebook-facebook-copy" fill="#333333"></path>
              <g id="Group-9-Copy-2" stroke="#333333" stroke-width="1.05">
                <rect id="Rectangle-5" x="0.525" y="0.525" width="44.1583333" height="43.95" rx="2.1"></rect>
              </g>
            </g>
          </g>
        </g>
      </g>
    </g>
  </g>
</svg>