<svg width="46px" height="45px" viewBox="0 0 46 45" version="1.1" xmlns="http://www.w3.org/2000/svg" xmlns:xlink="http://www.w3.org/1999/xlink">
  <g id="Page-1" stroke="none" stroke-width="1" fill="none" fill-rule="evenodd">
    <g id="4a.-Dashboard-Desktop---ONLY-shop-order---no-clubs" transform="translate(-1229.000000, -4448.000000)">
      <g id="Group-16" transform="translate(477.000000, 4155.000000)">
        <g id="Group-5">
          <g id="Group-11-Copy" transform="translate(752.000000, 293.000000)">
            <g id="Group-9">
              <rect id="Rectangle-5" stroke="#333333" stroke-width="1.05" fill="#333333" x="0.525" y="0.525" width="44.1583333" height="43.95" rx="2.1"></rect>
              <path d="M34.3465909,13.9285714 L11.1661756,13.9285714 C10.3398569,13.9285714 9.6875,14.6212121 9.6875,15.487013 L9.6875,29.512987 C9.6875,30.3787879 10.3398569,31.0714286 11.1661756,31.0714286 L34.3465909,31.0714286 C35.1729097,31.0714286 35.8252666,30.3787879 35.8252666,29.512987 L35.8252666,15.487013 C35.8252666,14.6212121 35.1294192,13.9285714 34.3465909,13.9285714 Z M32.8679153,18.3441558 L32.8679153,27.9112554 L12.6448513,27.9112554 L12.6448513,18.3441558 L21.9953002,24.534632 C22.4736953,24.8376623 23.0825617,24.8376623 23.5609568,24.534632 L32.8679153,18.3441558 Z" id="Shape" fill="#FFFFFF" fill-rule="nonzero"></path>
            </g>
          </g>
        </g>
      </g>
    </g>
  </g>
</svg>