<svg width="74px" height="61px" viewBox="0 0 74 61" version="1.1" xmlns="http://www.w3.org/2000/svg" xmlns:xlink="http://www.w3.org/1999/xlink">
  <g id="Desktop" stroke="none" stroke-width="1" fill="none" fill-rule="evenodd">
    <g id="Shop---Product" transform="translate(-571.000000, -1816.000000)" fill="#F7AFB8">
      <g id="review-2" transform="translate(364.000000, 1784.000000)">
        <g id="review-1">
          <path d="M251.63871,84.516129 C248.93332,80.2193334 247.580645,74.967773 247.580645,68.7612903 C247.580645,60.8042613 249.609657,53.6430426 253.667742,47.2774194 C257.725827,40.9117961 263.892432,35.8193739 272.167742,32 L274.316129,36.2967742 C269.382771,38.3656017 265.125824,41.6279347 261.545161,46.083871 C257.964498,50.5398072 256.174194,55.0752457 256.174194,59.6903226 C256.174194,61.6000095 256.412901,63.2709606 256.890323,64.7032258 C259.436572,62.6343983 262.380628,61.6 265.722581,61.6 C270.019376,61.6 273.63977,62.9924592 276.583871,65.7774194 C279.527972,68.5623795 281,72.2623425 281,76.8774194 C281,81.174215 279.527972,84.7946089 276.583871,87.7387097 C273.63977,90.6828104 270.019376,92.1548387 265.722581,92.1548387 C259.516098,92.1548387 254.821521,89.6086276 251.63871,84.516129 Z M211.058065,84.516129 C208.352675,80.2193334 207,74.967773 207,68.7612903 C207,60.8042613 209.029012,53.6430426 213.087097,47.2774194 C217.145182,40.9117961 223.311787,35.8193739 231.587097,32 L233.735484,36.2967742 C228.802126,38.3656017 224.545179,41.6279347 220.964516,46.083871 C217.383853,50.5398072 215.593548,55.0752457 215.593548,59.6903226 C215.593548,61.6000095 215.832256,63.2709606 216.309677,64.7032258 C218.855927,62.6343983 221.799983,61.6 225.141935,61.6 C229.438731,61.6 233.059125,62.9924592 236.003226,65.7774194 C238.947327,68.5623795 240.419355,72.2623425 240.419355,76.8774194 C240.419355,81.174215 238.947327,84.7946089 236.003226,87.7387097 C233.059125,90.6828104 229.438731,92.1548387 225.141935,92.1548387 C218.935453,92.1548387 214.240876,89.6086276 211.058065,84.516129 Z" id="“"></path>
        </g>
      </g>
    </g>
  </g>
</svg>