<svg width="30" height="28" viewBox="0 0 30 28" xmlns="http://www.w3.org/2000/svg" xmlns:xlink="http://www.w3.org/1999/xlink"><title>Path</title><desc>Created with Sketch.</desc><defs><linearGradient x1="18.242%" y1="98.237%" x2="87.09%" y2="42.401%" id="a"><stop stop-color="#FFE6CD" offset="0%"/><stop stop-color="#FBFDFA" offset="100%"/></linearGradient><path d="M1116.287 23.993c.243-.004.472-.111.627-.293.156-.182.223-.421.185-.656l-1.292-7.658 5.639-5.454c.223-.218.302-.54.205-.833-.097-.293-.354-.508-.665-.557l-7.842-1.169-3.554-6.93c-.144-.273-.431-.444-.744-.444s-.6.171-.744.444l-3.554 6.93-7.842 1.169c-.311.048-.568.263-.665.557-.097.293-.018.615.205.833l5.639 5.454-1.292 7.658c-.053.307.076.617.334.8.257.183.598.207.88.063l7.039-3.575 7.039 3.575c.124.061.262.091.401.086z" id="b"/></defs><g transform="translate(-1094 2)" fill="none"><use fill="url(#a)" xlink:href="#b"/><path stroke="#AC8D68" stroke-width="2" d="M1108.846 21.453l-6.583 3.343c-.614.315-1.354.262-1.916-.137-.57-.405-.859-1.097-.741-1.781l1.205-7.139-5.264-5.091c-.496-.484-.673-1.205-.456-1.863.216-.651.781-1.125 1.467-1.232l7.334-1.094 3.325-6.483c.318-.603.946-.977 1.629-.977.682 0 1.311.375 1.634.987l3.32 6.473 7.34 1.095c.68.106 1.245.579 1.461 1.231.218.657.04 1.378-.459 1.866l-5.261 5.088 1.206 7.144c.086.526-.065 1.062-.413 1.467-.343.4-.842.634-1.37.642h.015c-.302.009-.602-.055-.885-.194l-6.587-3.345z"/></g></svg>