<?xml version="1.0" encoding="UTF-8"?>
<svg width="27px" height="26px" viewBox="0 0 27 26" version="1.1" xmlns="http://www.w3.org/2000/svg" xmlns:xlink="http://www.w3.org/1999/xlink">
    <!-- Generator: Sketch 55 (78076) - https://sketchapp.com -->
    <title>facebook-facebook</title>
    <desc>Created with Sketch.</desc>
    <g id="Page-1" stroke="none" stroke-width="1" fill="none" fill-rule="evenodd">
        <g id="home-2" transform="translate(-1408.000000, -7146.000000)" fill="#FFFFFF">
            <g id="footer" transform="translate(0.000000, 7066.000000)">
                <g id="Group-2" transform="translate(1348.000000, 80.000000)">
                    <path d="M84.5831905,0 L61.4383461,0 C60.6451054,0 60.0024915,0.638612279 60.0024915,1.4269134 L60.0024915,24.4276321 C60.0024915,25.2156085 60.6451054,25.8545455 61.4383461,25.8545455 L73.898668,25.8545455 L73.898668,15.8424179 L70.508367,15.8424179 L70.508367,11.9403002 L73.898668,11.9403002 L73.898668,9.06281179 C73.898668,5.7231996 75.9509312,3.90493103 78.9488766,3.90493103 C80.3847312,3.90493103 81.6185645,4.01115601 81.9783266,4.05869574 L81.9783266,7.54853781 L79.8994951,7.54940348 C78.2690234,7.54940348 77.9535782,8.31941732 77.9535782,9.44904507 L77.9535782,11.9403002 L81.8415285,11.9403002 L81.3353498,15.8424179 L77.9535782,15.8424179 L77.9535782,25.8545455 L84.5831905,25.8545455 C85.3761046,25.8545455 86.0190452,25.2156085 86.0190452,24.4276321 L86.0190452,1.4269134 C86.0190452,0.638612279 85.3761046,0 84.5831905,0 Z" id="facebook-facebook"></path>
                </g>
            </g>
        </g>
    </g>
</svg>