<?xml version="1.0" encoding="UTF-8"?>
<svg width="27px" height="26px" viewBox="0 0 27 26" version="1.1" xmlns="http://www.w3.org/2000/svg" xmlns:xlink="http://www.w3.org/1999/xlink">
    <!-- Generator: Sketch 55 (78076) - https://sketchapp.com -->
    <title>instagram-instagram</title>
    <desc>Created with Sketch.</desc>
    <g id="Page-1" stroke="none" stroke-width="1" fill="none" fill-rule="evenodd">
        <g id="home-2" transform="translate(-1348.000000, -7146.000000)" fill="#FFFFFF">
            <g id="footer" transform="translate(0.000000, 7066.000000)">
                <g id="Group-2" transform="translate(1348.000000, 80.000000)">
                    <path d="M23.0150876,10.9372768 L20.7505314,10.9372768 C20.9153498,11.5739413 21.0131665,12.2389926 21.0131665,12.9267317 C21.0131665,17.3211272 17.4289742,20.8823149 13.0080954,20.8823149 C8.58739801,20.8823149 5.00338722,17.3211272 5.00338722,12.9267317 C5.00338722,12.2389926 5.10138539,11.5739413 5.26638527,10.9372768 L3.00128464,10.9372768 L3.00128464,21.8766817 C3.00128464,22.42512 3.44949923,22.8703631 4.0029711,22.8703631 L22.0134011,22.8703631 C22.5670545,22.8703631 23.0150876,22.42512 23.0150876,21.8766817 L23.0150876,10.9372768 Z M23.0150876,3.97696203 C23.0150876,3.42801877 22.5670545,2.98259528 22.0134011,2.98259528 L19.012298,2.98259528 C18.4596972,2.98259528 18.0117004,3.42801877 18.0117004,3.97696203 L18.0117004,6.96063939 C18.0117004,7.50961871 18.4596972,7.95500614 19.012298,7.95500614 L22.0134011,7.95500614 C22.5670545,7.95500614 23.0150876,7.50961871 23.0150876,6.96063939 L23.0150876,3.97696203 Z M13.0080954,7.95500614 C10.2448011,7.95500614 8.00485334,10.1806808 8.00485334,12.9267317 C8.00485334,15.6726382 10.2448011,17.8995393 13.0080954,17.8995393 C15.7715711,17.8995393 18.0117004,15.6726382 18.0117004,12.9267317 C18.0117004,10.1806808 15.7715711,7.95500614 13.0080954,7.95500614 L13.0080954,7.95500614 Z M23.0150876,25.8545455 L3.00128464,25.8545455 C1.34388155,25.8545455 0,24.5184914 0,22.8703631 L0,2.98259528 C0,1.33533268 1.34388155,0 3.00128464,0 L23.0150876,0 C24.6732166,0 26.0165537,1.33533268 26.0165537,2.98259528 L26.0165537,22.8703631 C26.0165537,24.5184914 24.6732166,25.8545455 23.0150876,25.8545455 L23.0150876,25.8545455 Z" id="instagram-instagram"></path>
                </g>
            </g>
        </g>
    </g>
</svg>