<svg width="50px" height="50px" viewBox="0 0 50 50" version="1.1" xmlns="http://www.w3.org/2000/svg" xmlns:xlink="http://www.w3.org/1999/xlink">
  <g id="Page-1" stroke="none" stroke-width="1" fill="none" fill-rule="evenodd">
    <g id="1a.-Dashboard-Mobile" transform="translate(-201.000000, -455.000000)" fill="#f05e7c" fill-rule="nonzero">
      <g id="Group-14" transform="translate(0.000000, 272.000000)">
        <g id="icon-copy" transform="translate(201.000000, 183.000000)">
          <path d="M25.0517241,0.267241379 C11.3921987,0.267241379 0.318965517,11.3404746 0.318965517,25 C0.318965517,38.6595254 11.3921987,49.7327586 25.0517241,49.7327586 C38.7112495,49.7327586 49.7844828,38.6595254 49.7844828,25 C49.7702281,11.3463834 38.7053407,0.28149608 25.0517241,0.267241379 Z M25.0517241,47.1465517 C16.0942801,47.1465517 8.01884371,41.7507176 4.59097828,33.4751184 C1.16311286,25.1995192 3.05787782,15.6738925 9.39174723,9.3400231 C15.7256166,3.00615368 25.2512434,1.11138872 33.5268426,4.53925415 C41.8024418,7.96711957 47.1982759,16.042556 47.1982759,25 C47.1840245,37.2252948 37.2770189,47.1323003 25.0517241,47.1465517 Z" id="Shape"></path>
          <polygon id="Path" points="26.3189655 20.4913793 21.5948276 20.4913793 21.5948276 22.8362069 23.6810345 22.8362069 23.6810345 31.5948276 21.5948276 31.5948276 21.5948276 33.9396552 28.4051724 33.9396552 28.4051724 31.5948276 26.3189655 31.5948276"></polygon>
          <path d="M24.9051724,17.5172414 C25.3296154,17.524007 25.7381003,17.3556238 26.0344828,17.0517241 C26.3433056,16.7580212 26.5152223,16.3485468 26.5086207,15.9224138 C26.5173678,15.4958687 26.3451022,15.0855633 26.0344828,14.7931034 C25.7355063,14.4940745 25.3279679,14.3291926 24.9051724,14.3362069 C24.4728809,14.3236233 24.0557639,14.4961152 23.7586207,14.8103448 C23.1507635,15.4304832 23.1507635,16.4229651 23.7586207,17.0431034 C24.0563973,17.3564113 24.4730835,17.5287252 24.9051724,17.5172414 Z" id="Path"></path>
        </g>
      </g>
    </g>
  </g>
</svg>