<svg width="79" height="64" viewBox="0 0 79 64" xmlns="http://www.w3.org/2000/svg"><title>Shape</title><desc>Created with Sketch.</desc><path d="M32.475.346c-8.61 0-16.378.945-22.147 2.568-2.885.812-5.263 1.777-7.074 2.986-1.72 1.148-3.089 2.704-3.224 4.657l-.03.149v34.542c0 2.102 1.356 3.742 3.134 5.135 1.778 1.393 4.151 2.608 7.044 3.672 5.786 2.128 13.614 3.613 22.296 3.613 6.274 0 11.767-.749 16.685-1.97.666-.16 1.197-.664 1.392-1.321.195-.657.024-1.369-.448-1.866-.472-.497-1.173-.705-1.839-.545-4.625 1.148-9.817 1.881-15.789 1.881-8.25 0-15.72-1.438-20.983-3.374-2.631-.968-4.692-2.051-5.999-3.075-1.307-1.024-1.671-1.87-1.671-2.15v-2.209c1.72 1.239 3.887 2.206 6.417 3.045 5.819 1.931 13.614 2.986 22.236 2.986 5.633 0 9.997-.111 14.685-.985 1.035-.202 1.712-1.202 1.515-2.238-.197-1.036-1.195-1.717-2.231-1.524-4.328.807-8.388.926-13.969.926-8.31 0-15.813-1.041-21.042-2.777-2.615-.868-4.646-1.934-5.91-2.986-1.264-1.051-1.701-1.932-1.701-2.836v-2.329c1.732 1.269 3.848 2.312 6.417 3.165 5.819 1.931 13.614 2.986 22.236 2.986 7.193 0 12.351-.621 17.67-1.97.661-.171 1.181-.681 1.364-1.339.183-.658.001-1.364-.478-1.851-.478-.487-1.18-.682-1.842-.512-5.026 1.275-9.736 1.851-16.715 1.851-8.31 0-15.813-1.041-21.042-2.777-2.615-.868-4.646-1.934-5.91-2.986-1.264-1.051-1.701-1.932-1.701-2.836v-2.2089999999999996c1.72 1.239 3.887 2.206 6.417 3.045 5.819 1.931 13.614 2.986 22.236 2.986s16.417-1.054 22.236-2.986c2.53-.84 4.697-1.806 6.417-3.045v2.209c-.01.689.352 1.33.947 1.677s1.331.347 1.926 0 .957-.988.947-1.677v-17.375l-.03-.179c-.159-1.925-1.522-3.462-3.224-4.598-1.811-1.208-4.189-2.174-7.074-2.986-5.769-1.623-13.536-2.568-22.147-2.568zm0 3.822c8.322 0 15.823.933 21.102 2.418 2.64.743 4.725 1.657 5.999 2.508 1.274.85 1.552 1.482 1.552 1.761 0 .904-.437 1.785-1.701 2.836s-3.295 2.118-5.91 2.986c-5.23 1.736-12.733 2.777-21.042 2.777-8.31 0-15.813-1.041-21.042-2.777-2.615-.868-4.646-1.934-5.91-2.986-1.264-1.051-1.701-1.932-1.701-2.836 0-.279.278-.911 1.552-1.761 1.274-.85 3.36-1.765 5.999-2.508 5.28-1.485 12.78-2.418 21.102-2.418zm-28.654 13.077c1.72 1.239 3.887 2.206 6.417 3.045 5.819 1.931 13.614 2.986 22.236 2.986s16.417-1.054 22.236-2.986c2.53-.84 4.697-1.806 6.417-3.045v2.2089999999999996c0 .904-.437 1.785-1.701 2.836s-3.295 2.118-5.91 2.986c-5.23 1.736-12.733 2.777-21.042 2.777-8.31 0-15.813-1.041-21.042-2.777-2.615-.868-4.646-1.934-5.91-2.986-1.264-1.051-1.701-1.932-1.701-2.836v-2.2089999999999996zm59.128 13.644c-.431.023-.841.192-1.164.478l-7.641 6.688c-.421.363-.664.892-.664 1.448 0 .556.242 1.085.664 1.448l7.641 6.688c.517.453 1.236.594 1.885.37.649-.224 1.129-.778 1.258-1.453.128-.675-.114-1.367-.636-1.814l-3.791-3.314h13.998c.689.01 1.331-.352 1.678-.947.348-.595.348-1.332 0-1.927s-.989-.957-1.678-.947h-14.028l3.82-3.344c.634-.529.855-1.406.55-2.173-.305-.767-1.069-1.251-1.893-1.2zm5.671 15.286c-.78.049-1.452.569-1.695 1.313-.243.743-.009 1.56.591 2.061l3.82 3.344h-14.207c-.683.032-1.296.426-1.61 1.033-.314.607-.279 1.336.09 1.911s1.017.91 1.699.878h13.998l-3.791 3.314c-.799.693-.886 1.902-.194 2.702s1.901.887 2.701.194l7.641-6.688c.421-.363.664-.892.664-1.448 0-.556-.242-1.085-.664-1.448l-7.641-6.688c-.384-.342-.89-.514-1.403-.478z" fill-rule="nonzero" fill="#004C91"/></svg>