<svg width="92px" height="92px" viewBox="0 0 92 92" version="1.1" xmlns="http://www.w3.org/2000/svg" xmlns:xlink="http://www.w3.org/1999/xlink">
    <defs>
        <circle id="path-1" cx="40" cy="40" r="40"></circle>
        <filter x="-11.2%" y="-11.2%" width="122.5%" height="122.5%" filterUnits="objectBoundingBox" id="filter-2">
            <feOffset dx="0" dy="0" in="SourceAlpha" result="shadowOffsetOuter1"></feOffset>
            <feGaussianBlur stdDeviation="3" in="shadowOffsetOuter1" result="shadowBlurOuter1"></feGaussianBlur>
            <feColorMatrix values="0 0 0 0 0   0 0 0 0 0   0 0 0 0 0  0 0 0 0.3 0" type="matrix" in="shadowBlurOuter1"></feColorMatrix>
        </filter>
    </defs>
    <g id="Page-1" stroke="none" stroke-width="1" fill="none" fill-rule="evenodd">
        <g id="Trade---Before-Collection-Launches" transform="translate(-563.000000, -825.000000)">
            <g id="Group-6" transform="translate(569.000000, 831.000000)">
                <g id="Oval">
                    <use fill="black" fill-opacity="1" filter="url(#filter-2)" xlink:href="#path-1"></use>
                    <use fill="#FFFFFF" fill-rule="evenodd" xlink:href="#path-1"></use>
                </g>
                <g id="noun_trading_1172752" transform="translate(10.810811, 10.810811)" fill="#37AD48" fill-rule="nonzero" stroke="#37AD48">
                    <path d="M1.35279279,37.7693694 L1.84288288,36.9333333 C5.26054054,49.4025225 16.5434234,58.0482883 29.5495495,58.0482883 C42.8093694,58.0482883 54.283964,49.0652252 57.4536937,36.2025225 C57.5495495,35.8162162 57.3131532,35.4255856 56.9268468,35.3304505 C56.541982,35.2381982 56.1499099,35.4717117 56.0547748,35.858018 C53.0436036,48.074955 42.1448649,56.6068468 29.5495495,56.6068468 C17.1654054,56.6068468 6.42666667,48.3545946 3.20864865,36.4641441 L4.17801802,37.0327928 C4.5218018,37.2345946 4.96288288,37.1185586 5.16396396,36.7754955 C5.36504505,36.4317117 5.25045045,35.9906306 4.90738739,35.7888288 L2.5045045,34.3805405 C2.15927928,34.1787387 1.7181982,34.2940541 1.51855856,34.6378378 L0.11027027,37.0407207 C-0.0908108108,37.3845045 0.0237837838,37.8255856 0.366846847,38.0273874 C0.481441441,38.0944144 0.606846847,38.1261261 0.730810811,38.1261261 C0.978018018,38.1254054 1.21873874,37.9985586 1.35279279,37.7693694 Z" id="Path"></path>
                    <path d="M58.6803604,20.3553153 C58.3228829,20.1837838 57.8918919,20.3336937 57.7181982,20.6918919 L57.2526126,21.6598198 C53.8284685,9.19927928 42.5535135,0.562882883 29.5495495,0.562882883 C16.2753153,0.562882883 4.79855856,9.55747748 1.63891892,22.4367568 C1.5445045,22.8237838 1.7809009,23.2136937 2.16720721,23.3081081 C2.22486486,23.3225225 2.28252252,23.329009 2.33945946,23.329009 C2.66306306,23.329009 2.95783784,23.1084685 3.03927928,22.7798198 C6.04036036,10.5477477 16.9412613,2.00432432 29.5495495,2.00432432 C41.92,2.00432432 52.6428829,10.2320721 55.8767568,22.0972973 L54.9621622,21.6576577 C54.6054054,21.4861261 54.1736937,21.636036 54,21.9942342 C53.8277477,22.3531532 53.9783784,22.7834234 54.3372973,22.9556757 L56.8468468,24.1636036 C56.9477477,24.2118919 57.0536937,24.234955 57.1589189,24.234955 C57.427027,24.234955 57.6843243,24.085045 57.809009,23.827027 L59.0169369,21.3174775 C59.1899099,20.9585586 59.0392793,20.5275676 58.6803604,20.3553153 Z" id="Path"></path>
                    <path d="M24.7646847,38.4461261 C24.9491892,38.4461261 25.1336937,38.3754955 25.2742342,38.234955 L42.3524324,21.1567568 C42.6342342,20.874955 42.6342342,20.4194595 42.3524324,20.1376577 C42.0706306,19.8558559 41.6151351,19.8558559 41.3333333,20.1376577 L24.7646847,36.7063063 L17.765045,29.7066667 C17.4832432,29.4248649 17.0277477,29.4248649 16.7459459,29.7066667 C16.4641441,29.9884685 16.4641441,30.443964 16.7459459,30.7257658 L24.2551351,38.234955 C24.3963964,38.3754955 24.5801802,38.4461261 24.7646847,38.4461261 Z" id="Path" stroke-width="2"></path>
                </g>
            </g>
        </g>
    </g>
</svg>