<svg width="23px" height="23px" viewBox="0 0 23 23" version="1.1" xmlns="http://www.w3.org/2000/svg" xmlns:xlink="http://www.w3.org/1999/xlink">
  <g id="Page-1" stroke="none" stroke-width="1" fill="none" fill-rule="evenodd">
    <g id="Menu" transform="translate(-329.000000, -399.000000)" fill="#FFFFFF">
      <path d="M330.722289,422 L350.275493,422 C350.499972,422 350.681672,421.752669 350.681672,421.448501 L350.681672,404.788611 C350.681672,404.484443 350.499512,404.237112 350.275493,404.237112 L330.722289,404.237112 C330.497809,404.237112 330.316109,404.483819 330.316109,404.788611 L330.316109,421.448501 C330.316109,421.752669 330.497809,422 330.722289,422 M330.722289,403.767856 L350.275953,403.766479 C350.445692,403.766479 350.603932,403.658578 350.659592,403.48915 L351.965071,399.570269 C352.082371,399.305337 351.890551,399 351.593852,399 L329.40439,399 C329.13299,399 328.934271,399.271819 329.02029,399.53216 L330.326229,403.452877 C330.367629,403.633324 330.529089,403.767856 330.722289,403.767856 M334.666326,411.049371 C335.745945,411.049371 336.621324,411.923142 336.621324,413.001235 C336.621324,414.07887 335.745945,414.95264 334.666326,414.95264 C333.586707,414.95264 332.711327,414.07887 332.711327,413.001235 C332.711787,411.923142 333.586707,411.049371 334.666326,411.049371 M340.486701,414.95264 C339.407082,414.95264 338.531702,414.07887 338.531702,413.001235 C338.531702,411.923142 339.407082,411.049371 340.486701,411.049371 C341.56632,411.049371 342.441699,411.923142 342.441699,413.001235 C342.441699,414.07887 341.56632,414.95264 340.486701,414.95264 M344.375998,413.001235 C344.375998,411.923142 345.251377,411.049371 346.330996,411.049371 C347.411075,411.049371 348.285994,411.923142 348.285994,413.001235 C348.285994,414.07887 347.410615,414.95264 346.330996,414.95264 C345.251377,414.95264 344.375998,414.07887 344.375998,413.001235 M334.666326,416.799371 C335.745945,416.799371 336.621324,417.673142 336.621324,418.751235 C336.621324,419.82887 335.745945,420.70264 334.666326,420.70264 C333.586707,420.70264 332.711327,419.82887 332.711327,418.751235 C332.711787,417.673142 333.586707,416.799371 334.666326,416.799371 M340.486701,420.70264 C339.407082,420.70264 338.531702,419.82887 338.531702,418.751235 C338.531702,417.673142 339.407082,416.799371 340.486701,416.799371 C341.56632,416.799371 342.441699,417.673142 342.441699,418.751235 C342.441699,419.82887 341.56632,420.70264 340.486701,420.70264 M344.375998,418.751235 C344.375998,417.673142 345.251377,416.799371 346.330996,416.799371 C347.411075,416.799371 348.285994,417.673142 348.285994,418.751235 C348.285994,419.82887 347.410615,420.70264 346.330996,420.70264 C345.251377,420.70264 344.375998,419.82887 344.375998,418.751235 M344.375998,407.485876 C344.375998,406.407782 345.251377,405.534471 346.330996,405.534471 C347.411075,405.534471 348.285994,406.408242 348.285994,407.485876 C348.285994,408.563511 347.410615,409.437281 346.330996,409.437281 C345.251377,409.437281 344.375998,408.563511 344.375998,407.485876 M340.486701,409.437281 C339.407082,409.437281 338.531702,408.563511 338.531702,407.485876 C338.531702,406.407782 339.407082,405.534471 340.486701,405.534471 C341.56632,405.534471 342.441699,406.408242 342.441699,407.485876 C342.441699,408.563511 341.56632,409.437281 340.486701,409.437281 M336.621324,407.485876 C336.621324,408.563511 335.745945,409.437281 334.666326,409.437281 C333.586707,409.437281 332.711327,408.563511 332.711327,407.485876 C332.711327,406.407782 333.586707,405.534471 334.666326,405.534471 C335.745945,405.534471 336.621324,406.407782 336.621324,407.485876" id="sm-icon"></path>
    </g>
  </g>
</svg>