<svg width="22px" height="22px" viewBox="0 0 22 22" version="1.1" xmlns="http://www.w3.org/2000/svg" xmlns:xlink="http://www.w3.org/1999/xlink">
  <g id="Page-1" stroke="none" stroke-width="1" fill="none" fill-rule="evenodd">
    <g id="Menu" transform="translate(-330.000000, -722.000000)" fill="#FFFFFF">
      <path d="M330.979225,731.9033 C330.365002,731.9033 329.933456,731.413433 330.03145,730.8154 C330.03145,730.8154 329.959711,731.1663 330.03293,730.8066 C331.05836,725.782533 335.5369,722 340.906267,722 C347.033336,722 352,726.925067 352,733 C352,739.0753 347.033336,744 340.906267,744 C335.542817,744 331.068345,740.2259 330.036627,735.210267 C329.96156,734.845433 330.03145,735.183867 330.03145,735.183867 C329.940482,734.583633 330.365372,734.097067 330.979225,734.097067 L341.466131,734.097067 C341.87512,734.097067 341.970526,734.329533 341.67987,734.6159 L339.66229,736.607633 C338.616521,737.642 340.185544,739.193 341.231683,738.159367 L345.756077,733.749467 C346.19391,733.3245 346.19317,732.6381 345.7509,732.212767 L341.231683,727.841 C340.185544,726.807 338.616521,728.358367 339.66229,729.392367 L341.67987,731.384467 C341.970896,731.670833 341.873271,731.9033 341.466131,731.9033 L330.979225,731.9033 Z" id="Fill-1"></path>
    </g>
  </g>
</svg>