<svg width="46px" height="45px" viewBox="0 0 46 45" version="1.1" xmlns="http://www.w3.org/2000/svg" xmlns:xlink="http://www.w3.org/1999/xlink">
  <g id="Page-1" stroke="none" stroke-width="1" fill="none" fill-rule="evenodd">
    <g id="4a.-Dashboard-Desktop---ONLY-shop-order---no-clubs" transform="translate(-1317.000000, -4448.000000)">
      <g id="Group-16" transform="translate(477.000000, 4155.000000)">
        <g id="Group-5">
          <g id="Group-11-Copy" transform="translate(752.000000, 293.000000)">
            <g id="Group-9-Copy" transform="translate(88.263889, 0.000000)">
              <rect id="Rectangle-5" stroke="#333333" stroke-width="1.05" x="0.525" y="0.525" width="44.1583333" height="43.95" rx="2.1"></rect>
              <path d="M33.2125042,15.9578335 C32.426337,16.3021503 31.5813422,16.5346377 30.6941573,16.639257 C31.5994109,16.1035354 32.2947277,15.2554566 32.6220216,14.2449897 C31.7749993,14.7407471 30.8365303,15.101132 29.8378025,15.2951266 C29.0379496,14.4539341 27.89828,13.9285714 26.6371983,13.9285714 C24.2154861,13.9285714 22.2522596,15.8661628 22.2522596,18.256104 C22.2522596,18.5955062 22.2911103,18.9257266 22.3658002,19.2424393 C18.7216185,19.0619525 15.4907209,17.3390442 13.3281723,14.7206178 C12.9506677,15.3597816 12.7344695,16.1032705 12.7344695,16.8964646 C12.7344695,18.3977742 13.5085611,19.7223639 14.6850539,20.498607 C13.9662716,20.4761823 13.2901565,20.2813343 12.6990775,19.9571762 C12.6986601,19.9752749 12.6986601,19.9933736 12.6986601,20.0117666 C12.6986601,22.1085677 14.2101394,23.8576382 16.216033,24.2553683 C15.84801,24.354249 15.4605766,24.4071326 15.0607993,24.4071326 C14.7782299,24.4071326 14.5035022,24.3798226 14.2357516,24.3295288 C14.793794,26.0486997 16.4131786,27.2999823 18.3318594,27.3350615 C16.8311439,28.4958211 14.94055,29.1875742 12.886175,29.1875742 C12.5322552,29.1875742 12.183255,29.16718 11.8402778,29.1272157 C13.780814,30.3552496 16.0854375,31.0714286 18.5617433,31.0714286 C26.6270011,31.0714286 31.0374327,24.4769671 31.0374327,18.7578943 C31.0374327,18.5702269 31.0330795,18.3837072 31.0246415,18.198041 C31.8812647,17.5879234 32.6249138,16.8257767 33.2125042,15.9578335 Z" id="twitter-twitter" fill="#333333"></path>
            </g>
          </g>
        </g>
      </g>
    </g>
  </g>
</svg>