<svg width="24" height="24" viewBox="0 0 24 24" xmlns="http://www.w3.org/2000/svg"><defs><radialGradient cx="9.17%" cy="98.199%" fx="9.17%" fy="98.199%" r="144.567%" id="a"><stop stop-color="#FED576" offset="0%"/><stop stop-color="#F47133" offset="26.34%"/><stop stop-color="#BC3081" offset="60.91%"/><stop stop-color="#4C63D2" offset="100%"/></radialGradient></defs><g transform="translate(0 0)" fill-rule="nonzero" fill="url(#a)"><path d="M11.631 2.094c3.1 0 3.468.008 4.695.065 1.129.049 1.75.237 2.159.401.54.213.932.466 1.333.867.409.409.654.793.867 1.333.155.409.352 1.022.401 2.159.057 1.227.065 1.595.065 4.695 0 3.1-.008 3.468-.065 4.695-.049 1.129-.237 1.75-.401 2.159-.213.54-.466.932-.867 1.333-.409.409-.793.654-1.333.867-.409.155-1.022.352-2.159.401-1.227.057-1.595.065-4.695.065-3.1 0-3.468-.008-4.695-.065-1.129-.049-1.75-.237-2.159-.401-.54-.213-.932-.466-1.333-.867-.409-.409-.654-.793-.867-1.333-.155-.409-.352-1.022-.401-2.159-.057-1.227-.065-1.595-.065-4.695 0-3.1.008-3.468.065-4.695.049-1.129.237-1.75.401-2.159.213-.54.466-.932.867-1.333.409-.409.793-.654 1.333-.867.409-.155 1.022-.352 2.159-.401 1.227-.049 1.595-.065 4.695-.065zm0-2.094c-3.157 0-3.55.016-4.793.074-1.235.057-2.078.254-2.822.54-.761.294-1.415.695-2.061 1.341-.646.646-1.047 1.292-1.341 2.061-.286.736-.483 1.587-.54 2.822-.057 1.243-.074 1.636-.074 4.793s.016 3.55.074 4.793c.057 1.235.254 2.078.54 2.822.294.761.695 1.415 1.341 2.061.646.646 1.292 1.047 2.061 1.341.736.286 1.587.483 2.822.54 1.243.057 1.636.074 4.793.074s3.55-.016 4.793-.074c1.235-.057 2.078-.254 2.822-.54.761-.294 1.415-.695 2.061-1.341.646-.646 1.047-1.292 1.341-2.061.286-.736.483-1.587.54-2.822.057-1.243.074-1.636.074-4.793s-.016-3.55-.074-4.793c-.057-1.235-.254-2.078-.54-2.822-.294-.761-.695-1.415-1.341-2.061-.646-.646-1.292-1.047-2.061-1.341-.736-.286-1.587-.483-2.822-.54-1.243-.057-1.636-.074-4.793-.074zM11.631 5.652c-3.296 0-5.963 2.675-5.963 5.963 0 3.288 2.675 5.963 5.963 5.963 3.288 0 5.963-2.675 5.963-5.963 0-3.288-2.666-5.963-5.963-5.963zm0 9.84c-2.143 0-3.869-1.734-3.869-3.869 0-2.143 1.734-3.869 3.869-3.869 2.135 0 3.869 1.734 3.869 3.869.008 2.135-1.726 3.869-3.869 3.869z"/><circle cx="17.839" cy="5.423" r="1.39"/></g></svg>