<svg id="Layer_1" data-name="Layer 1" xmlns="http://www.w3.org/2000/svg" viewBox="0 0 851.83 242.57"><defs><style>.cls-1,.cls-2{fill:#231f20;}.cls-2{stroke:#231f20;stroke-miterlimit:10;stroke-width:4px;}</style></defs><title>LGFullLogoBlack18July2019</title><path class="cls-1" d="M390.67,223.11c.63,0,1.9,1.91,2.21,3.81a1.42,1.42,0,0,0,2.54.63c.32-.63.32-1-.32-1.58-.31-.64-.31-.95.32-1.59.32-.63.63-2.22.63-6.34,0-4.75.32-6,1-6.34a8.1,8.1,0,0,0,.63-3.8c.32-1.9.32-3.17.95-3.49a15.65,15.65,0,0,0,1-4.44c0-2.53.32-4.12.64-4.44a6.4,6.4,0,0,0,.63-2.85c.32-1.27.32-1.9.95-2.53a2.7,2.7,0,0,0,.63-1.91,3.1,3.1,0,0,1,1-2.53,3.15,3.15,0,0,0,.95-2.54c0-.95,0-1.58.63-1.58a2.38,2.38,0,0,0,.63-1.27,4,4,0,0,1,.32-1.9,1,1,0,0,0,0-1.27,2,2,0,0,1,.32-2.85c.63-.32.95-.64.95-1.27a3.43,3.43,0,0,1,1-2.22,5.87,5.87,0,0,0,.63-2.22,1.76,1.76,0,0,1,1-1.59c.31-.31.63-.95.63-2.53-.32-1.9,0-2.54.63-2.85.32,0,.95-1,.95-1.59.32-1.58,1.27-1.58,1.27,0v2.54a2.46,2.46,0,0,1-.95,2.22,2.87,2.87,0,0,0-1,2.21c0,1-.32,1.59-.63,1.59s-.64.95-.64,2.22a10.15,10.15,0,0,1-.95,2.53c-.63.32-.95,1.59-.95,2.86s0,2.22-.63,2.53a6.23,6.23,0,0,0-.64,2.22,3.83,3.83,0,0,1-.95,2.54,5.33,5.33,0,0,0-.63,2.85,7.19,7.19,0,0,1-.95,2.54,3.66,3.66,0,0,0-.64,2.22c-.31.63-.63,1.9-1,2.53a9.1,9.1,0,0,0-.63,3.81,6.11,6.11,0,0,1-.95,3.8c-.64.63-.64,1.59-.64,3.49a6.79,6.79,0,0,1-.63,3.17,18.56,18.56,0,0,0-.95,3.17,5.31,5.31,0,0,1-.64,2.85,47.15,47.15,0,0,0-.95,9.83c0,3.17,0,3.17.95,3.48,1,0,1,0,1-3.8,0-2.22,0-4.12.32-4.44.64-.31.64-1.58-.32-2.22-1-1-.63-1.9.64-2.22.63-.31.95-.63.95-2.21a6.13,6.13,0,0,1,.95-3.17c.63-1,.63-1.91.63-4.13,0-2.53.32-3.48,1-3.8.31-.32.63-1,.63-2.54-.32-1.9,0-2.21.63-2.85.64-.32.64-.95.95-3.17,0-1.9.32-3.17,1-3.8a4.17,4.17,0,0,0,.63-2.54c0-1,.32-1.9.63-1.9a6.81,6.81,0,0,0,1-2.54,5.34,5.34,0,0,1,.64-2.85,3.69,3.69,0,0,0,.63-2.22c0-1.58.32-2.22.95-2.53s.95-.64.95-1.91a3.39,3.39,0,0,1,.64-1.9,2.67,2.67,0,0,0,.63-1.9c0-1.27,0-2.22.64-2.54a2.73,2.73,0,0,0,.95-1.9,2.15,2.15,0,0,1,.95-1.58,6,6,0,0,0,.63-2.54,4.58,4.58,0,0,1,.64-2.22,4.59,4.59,0,0,0,.63-1.9,1.91,1.91,0,0,1,.95-1.9,1.42,1.42,0,0,0,.95-1.27,5.84,5.84,0,0,1,.64-2.22c.63-.63,1-1.58.63-1.9a3.43,3.43,0,0,1,.63-1.59,3.84,3.84,0,0,0,1-2.85c0-1,.31-1.58.63-1.58.63,0,.95-1,.95-2.54,0-1.27.32-1.59.63-1.59.64,0,.64-.31.64-.95a3.61,3.61,0,0,1,.95-1.9,2.69,2.69,0,0,0,.95-1.58,2.45,2.45,0,0,1,.63-1.27,7.6,7.6,0,0,0,1-2.22c0-1,.31-1.9.63-1.9a1.65,1.65,0,0,0,.63-1.27,1.76,1.76,0,0,1,1-1.59,4.61,4.61,0,0,0,.63-2.21c0-1,.63-1.91,1.58-3.17a5.72,5.72,0,0,0,1.59-2.22,3.43,3.43,0,0,1,.63-1.59,2.86,2.86,0,0,0,.95-1.58c0-.32.32-1,.32-1.27a8.51,8.51,0,0,0,2.54-5.07c0-1,.31-1.59.63-1.59s.63-.32.95-.63c0-.64.64-.95.95-1.27.32,0,.64-.64.64-1.27,0-1-.32-1.27-.95-1.27-.32,0-1,.32-1,.64-.31.63-.63.95-.95.95a2.42,2.42,0,0,0-.63,1.27,1.75,1.75,0,0,1-1,1.58,1.27,1.27,0,0,0-.63,1.27,1.16,1.16,0,0,1-.64,1.58c-.32.64-.63,1-.63,1.27s-.64,1-.95,1.59a2.13,2.13,0,0,0-.95,1.58c0,.64-.32,1-.64,1a2.68,2.68,0,0,0-.63,1.91l-.64,1.26c-.31,0-.63.64-.63,1.27a18.21,18.21,0,0,1-1.27,1.9,3.69,3.69,0,0,0-.63,2.22c0,1-.32,1.59-.64,1.59a1.65,1.65,0,0,0-.63,1.27c0,.63-.64,1.26-.95,1.58a3.1,3.1,0,0,0-.95,2.54c0,.95,0,1.58-.64,1.9-.31,0-.63.63-.63.95a3.27,3.27,0,0,1-.64,1.58,2.28,2.28,0,0,0-.95,1.91c0,.95-.31,1.26-.63,1.26s-.63.64-.95,1.27c0,.64-.32,1.59-.95,1.59-.32.31-.32,1.27-.32,1.9a6.07,6.07,0,0,1-.95,2.54,2.15,2.15,0,0,0-.95,1.58,2.4,2.4,0,0,1-.64,1.27,3.76,3.76,0,0,0-.63,2.22c-.32.95-.63,1.9-.95,1.9a2.41,2.41,0,0,0-.63,1.58,2.18,2.18,0,0,1-.95,1.59,2.4,2.4,0,0,0-.64,1.27.69.69,0,0,1-.63.63c-.64,0-.32-3.17.31-3.49a2.65,2.65,0,0,0,.64-1.9,2.48,2.48,0,0,1,.95-2.22,4.4,4.4,0,0,0,.63-1.9c0-.32.32-1,.64-1,.63-.32.63-.95.63-1.9a3.15,3.15,0,0,1,.95-2.54,4.16,4.16,0,0,0,.95-1.58,2.42,2.42,0,0,1,.64-1.59,2.89,2.89,0,0,0,1-2.22,2.67,2.67,0,0,1,.63-1.9c.32,0,.64-.63.95-1.27,0-.95.32-1.58.64-1.58.31-.32,2.53-4.76,2.53-5.71a1.27,1.27,0,0,1,.64-1.27,2.43,2.43,0,0,0,.63-1.58,3.44,3.44,0,0,1,.63-1.9,2.26,2.26,0,0,0,1-1.9c0-1,.63-1.91,1.9-3.49,1.9-1.59,2.22-2.22,2.53-3.81,0-1.58.64-2.53,1.59-4.12a5.22,5.22,0,0,0,1.58-2.85,3.35,3.35,0,0,1,1.59-2.85,6.27,6.27,0,0,0,1.27-2.54,2.38,2.38,0,0,1,.63-1.27c.32,0,.63-1,.95-1.26,0-.64.32-1.27.64-1.27s.95-1,1.58-2.22c.95-1.27,1.59-2.22,1.9-2.22a3.23,3.23,0,0,0,.32-1.27,1.74,1.74,0,0,1,.95-1.58,4.43,4.43,0,0,0,.63-1c0-.32.64-1,1-1.59a11,11,0,0,0,.95-1.9A8.46,8.46,0,0,1,450,83a6.51,6.51,0,0,0,1.58-1.59,8.84,8.84,0,0,1,1.59-2.53A16,16,0,0,0,454.38,76a.69.69,0,0,1,.64-.64,5.89,5.89,0,0,0,1-1.27,6.67,6.67,0,0,1,1.9-2.53c2.85-2.86,4.12-4.44,4.12-5.08A9,9,0,0,1,464.53,64a9.58,9.58,0,0,0,2.22-2.85c0-.64,1.26-2.22,2.85-3.49l2.54-3.17c0-.63,2.21-2.22,2.53-2.22a.64.64,0,1,0,0-1.27.68.68,0,0,0-.63.64c0,.31-.64,1-1.27,1.26a14.13,14.13,0,0,0-2.54,2.22,11.75,11.75,0,0,1-1.58,1.27c-.64,0-5.71,5.71-5.71,6.34s-1.27,1.9-2.22,2.22c-.31.32-.63.63-.63.95a.68.68,0,0,1-.64.63c-.31,0-.63.64-.95,1.27,0,1-.63,1.27-1.58,1.59-.63,0-1.27.31-1.27.63a5.57,5.57,0,0,1-.63,1.59,1.67,1.67,0,0,0-.95,1.27,3.8,3.8,0,0,1-1.59,1.9,4.83,4.83,0,0,0-1.27,1.9,12.69,12.69,0,0,1-2.53,3.17,9.45,9.45,0,0,0-2.22,2.85,4.83,4.83,0,0,1-1.27,1.9c-.63,1-1.27,1.59-1.27,1.91A9,9,0,0,1,442.34,89a16.16,16.16,0,0,0-1.91,2.54c0,.63-.31,1-.63,1-.32.32-.63.63-.63.95,0,.63-.64,1.59-1.59,2.85A4.63,4.63,0,0,0,436,98.85c0,.32-.32.63-.64,1-.31,0-.63.63-.63,1a10,10,0,0,1-1,1.9,2.4,2.4,0,0,0-.64,1.27,2.38,2.38,0,0,1-.63,1.27,2.92,2.92,0,0,0-.95,1.58,8.84,8.84,0,0,1-1.27,2.54,7.52,7.52,0,0,0-1.9,2.85c0,.64-.64,1.59-.64,1.91-.63.31-.63.63-.63,1.26a2.45,2.45,0,0,1-.63,1.27,1.26,1.26,0,0,0-.64,1.27c0,.63-.63,1.27-1,1.9a1.75,1.75,0,0,0-.95,1.59,2.46,2.46,0,0,1-.63,1.58c-.64,0-.95.64-.95,1.27a2.4,2.4,0,0,1-.64,1.27,10.43,10.43,0,0,0-1,1.9c-.32,2.22-.95,1.58-.95-.63,0-1.59.32-2.22.63-2.54.32,0,.64-.63.64-1.27a1.72,1.72,0,0,1,.95-1.58,3.32,3.32,0,0,0,.63-1.59c0-.63.32-1.27.64-1.27.63-.31.63-1,.63-1.9,0-1.27.32-1.9.95-2.22.32-.31,1-.63,1-.95a17.26,17.26,0,0,1,1.27-2.53,6.6,6.6,0,0,0,1.59-2.86,1.7,1.7,0,0,1,1-1.27,2.43,2.43,0,0,0,.63-1.26c0-.64.64-1.27.95-1.91a6.61,6.61,0,0,0,.95-2.21,2.42,2.42,0,0,1,.64-1.59c.31,0,.63-.63.63-1.27A3.31,3.31,0,0,1,434.1,97c.63-.64.95-1.27.63-1.59,0-.31.32-.63.63-1.27,2.22-1.9,5.71-7,5.71-7.6A6.14,6.14,0,0,1,442.34,84a6.62,6.62,0,0,0,1.9-2.54c0-1,.32-1.26,2.85-3.8a13.73,13.73,0,0,0,1.59-2.54,1.61,1.61,0,0,1,.63-1.26c.32,0,.64-.64.64-1.27a9.31,9.31,0,0,1,1.58-2.22,5,5,0,0,0,1.27-1.9c0-.64,2.22-3.17,5.07-5.39.63-.64,1.27-1.27,1.27-1.9a8.46,8.46,0,0,1,1.27-2.22,6.69,6.69,0,0,0,1.9-2.54,4.66,4.66,0,0,1,1.58-1.9,7.91,7.91,0,0,0,2.54-2.22c4.44-4.76,6.66-6.66,7.61-7A3.18,3.18,0,0,0,475.62,44c.32-.32.95-1.27,1.59-1.59,5.7-3.8,6-4.12,4.44-4.43-1.27-.32-1.27-1,0-1.27.63,0,1.26-.32,1.26-.64s.95-.95,2.22-.95c.95,0,2.22-.63,2.22-1a2.41,2.41,0,0,1,1.59-.63c.63,0,1.26-.32,1.26-.64.32-.63,1.27-.63,2.86,0,1.27.64,1.27.64,1.9,0,1-.95,6-.95,7,0a3.4,3.4,0,0,0,1.91.64,3.63,3.63,0,0,1,2.21.63c.64.32,1,.63,1.59.63a1.7,1.7,0,0,1,1.27,1c.63.31,1.27.95,1.9.95s3.17,1.9,5.07,4.12C520,45.28,521,46.23,521,48.45a3.62,3.62,0,0,0,.64,2.21c.63.64.63,2.54.31,17.76s-.31,17.11-.95,17.75-.63,1.9-1,4.12c0,2.85-.31,3.8-1,4.44a6.38,6.38,0,0,0-.63,1.9,2.4,2.4,0,0,1-.64,1.27c-.95.63-.95,1.9-.31,2.22.63,0,.63.31,0,1.27-.32.63-.32,2.85-.32,4.75,0,2.85-.32,3.49-.95,4.12a3.41,3.41,0,0,0-1,2.85c0,1.27,0,2.22-.64,2.54a2.89,2.89,0,0,0-1,2.22c.32.95,0,1.27-.63,1.9-7.61,11.1-13.32,13.32-21.87,6-.64-.31-.64-.63-.64-1.9s.32-1.9,1.27-2.22a6.82,6.82,0,0,0,1.58-1.58,4.63,4.63,0,0,1,1.59-2.54c.63-1,1.58-2.22,1.58-2.85.32-1.27.64-1.59,1.59-1.9.95,0,1.27-.32,1.27-1.59s0-1.58.63-1.58c1,0,1-.32,1-2.86a7.22,7.22,0,0,1,.95-4.12,7.37,7.37,0,0,0,.64-2.53,1.9,1.9,0,0,1,.95-1.9c.63-.64.63-1.27.63-4.44s0-3.49.64-3.81c.31-.31.95-1,.95-1.58a3.32,3.32,0,0,1,.63-1.59c.64-.63.64-1,.32-1.9a1.42,1.42,0,0,1,0-1.58c.32-.64.63-2.22.63-5.39,0-4.12,0-4.76.95-5.39s1-.64,0-2.22c-.31-.95-.63-1.9-.31-2.22,1-.95,1.26-5.71,1-9.51a24.69,24.69,0,0,1,.31-4.44c0-2.22,0-2.85-.63-3.8s-.95-1.59-.63-4.12a24,24,0,0,0-.32-3.17,60.07,60.07,0,0,0-6.34,2.85,8.2,8.2,0,0,1-2.85,1.27,37.27,37.27,0,0,0-7.29,6c-2.86,2.85-5.39,5.07-6,5.07-.31,0-.95.32-1.27,1.27a3.21,3.21,0,0,1-1.58,1.9,1.43,1.43,0,0,0-1.27,1,19,19,0,0,1-3.8,4.12,60.39,60.39,0,0,0-4.76,5.39,13.69,13.69,0,0,1-2.53,3.17A2.73,2.73,0,0,0,469,77c0,.63-.32,1-1.59,1.26-.95.32-1.27.64-1.27,1.27a6.58,6.58,0,0,1-.95,1.59,2.89,2.89,0,0,0-1,1.58,3.13,3.13,0,0,1-.32.95,7.17,7.17,0,0,0-1.27,1.59c0,1-1.26,2.53-2.53,3.49a15.46,15.46,0,0,0-1.9,2.53,4.83,4.83,0,0,1-1.27,1.9,4.66,4.66,0,0,0-1.59,2.54,1.68,1.68,0,0,1-.95,1.27,2.43,2.43,0,0,0-.63,1.58,2.46,2.46,0,0,1-.63,1.59c-.32.31-.64.63-.64.95s-.63,1-1,1.27a3.11,3.11,0,0,0-.95,2.53c0,1.9,0,1.9-1.27,1.9-1.27.32-1.27.32-1.58,1.59a3.3,3.3,0,0,1-.32,1.27c-1,0-2.54,3.48-2.54,5.07,0,1.27-.31,1.9-.95,2.22a1.75,1.75,0,0,0-.95,1.58,1.67,1.67,0,0,1-.63,1.27c-.32,0-.64.64-.64,1.27a3.25,3.25,0,0,1-.63,1.58,1.75,1.75,0,0,0-.95,1.59,1.71,1.71,0,0,1-.95,1.27c-.32.31-.64.63-.64,1.9a3.39,3.39,0,0,1-.63,1.9,2.67,2.67,0,0,0-.63,1.9,1.75,1.75,0,0,1-1,1.59c-.31.32-.95.95-.95,1.27a5.51,5.51,0,0,1-.95,2.22c-.31,1-.63,1.58-.31,2.21,0,.64,0,1-.64,1.27a1.71,1.71,0,0,0-.95,1.27,2.75,2.75,0,0,1-.95,1.9,2.38,2.38,0,0,0-.63,1.27c.31.32,0,.95-.64,1.27s-.63,1-.63,2.22-.32,1.9-1,2.22c-.32.31-1,.63-1,1a5.25,5.25,0,0,1-.63,1.58,2.31,2.31,0,0,0-.63,2.54c0,1.27,0,1.58-.64,1.9s-1,1.27-1.27,2.22a3.69,3.69,0,0,1-.63,2.22,2.67,2.67,0,0,0-.63,1.9,2.26,2.26,0,0,1-.95,1.9,2.29,2.29,0,0,0-.64,2.54,1.82,1.82,0,0,1-.63,2.22c-.64.31-1,.95-1,2.22,0,1.58,0,1.9-.64,2.22s-.95.95-.95,2.21-.32,1.91-.63,1.91a3,3,0,0,0-.64,2.22,3.09,3.09,0,0,1-1,2.53c-.63.64-.63,1.27-.63,2.85s-.32,2.54-.95,2.86a2.85,2.85,0,0,0-.95,2.22,2.67,2.67,0,0,1-.64,1.9c-.31.32-.63,1.27-.63,4.12,0,3.49-.32,4.12-1,4.44a2.39,2.39,0,0,0-.64,1.58,2.41,2.41,0,0,1-.63,1.59c-.63.31-1.59,5.7-1.27,7.61a2.37,2.37,0,0,1-.32,2.21c-1,.64-1.58,5.71-.63,6a.59.59,0,0,1,0,.95c-.32.32-.63,3.8-.63,7.92,0,6.34,0,7.29.63,7.61a3.69,3.69,0,0,1,.63,2.22,3.44,3.44,0,0,0,1.27,2.85c1.27,1.27,1.59,1.27,3.17,1a4.73,4.73,0,0,0,2.54-1c.32-.31.63-.63,1-.63a5.43,5.43,0,0,0,1.58-.63,1.72,1.72,0,0,1,1.27-1c.64,0,1.27-.63,2.22-1.26a4,4,0,0,1,2.22-1.27,2.4,2.4,0,0,0,1.27-.64,2.46,2.46,0,0,1,1.58-.63,8.46,8.46,0,0,0,2.22-1.27,4.91,4.91,0,0,1,1.91-1.27,9.5,9.5,0,0,0,3.17-2.21,8.68,8.68,0,0,1,2.85-2.54,5.43,5.43,0,0,0,1.58-.63,2.74,2.74,0,0,1,1.9-1,8.27,8.27,0,0,0,2.54-1.9,44.52,44.52,0,0,1,4.12-3.8c1-.95,2.86-2.54,4.12-3.81s2.54-2.53,2.86-2.53a1.45,1.45,0,0,0,.95-.95A3.13,3.13,0,0,1,456.6,213c.95,0,1.27-.63,1.59-1.27,0-.95.31-1.27.63-1.27s.63-.31.95-.31a9.33,9.33,0,0,0,2.85-2.22,32.2,32.2,0,0,1,3.49-3.17,3.81,3.81,0,0,1,2.54-1.59,2.11,2.11,0,0,0,1.27-1.58,4.54,4.54,0,0,1,1.58-1.9,3.87,3.87,0,0,0,1.59-1.59c.31-1.27.63-2.22,1.58-2.22.64,0,4.44-3.49,4.44-4.44a5.54,5.54,0,0,1,.63-1.58c.64-.32.95-1.27.95-2.85a3.88,3.88,0,0,1,1-2.86c1-1,1-3.48.31-3.8-.31-.32-.95,0-1.27.32-1.26,1-6.34,1.26-7.29.31a7.77,7.77,0,0,0-3.48-.95,6.17,6.17,0,0,1-3.17-.95,3.44,3.44,0,0,0-1.59-.32c-.63.32-1.27,0-1.9-.63a2.9,2.9,0,0,0-2.54-1.27c-1.27,0-1.9-.32-3.17-1.58-1.58-1.27-1.9-1.91-1.9-3.81a5.1,5.1,0,0,0-.95-3.48c-.63-1-.63-1.59-.63-3.81.31-2.22.31-2.85-.32-3.17-.63,0-.32-.32.32-1.27,1.26-1.26,2.22-1.26,4.75,1.27l2.22,1.9h3.49c2.22.32,4.12.32,4.75,0a28,28,0,0,1,3.49.64c2.54.63,2.85.63,3.8,0,.64-.64.64-.64,1.27,0,.32.63,1,.63,1.59.63.63-.32,1.26,0,1.58,0,.32.64,10.46,0,11.41-.63.64-.32,2.86-.64,8.25-.64s7.6-.31,7.92-.63a23.84,23.84,0,0,1,4.76-.95c2.21,0,4.12-.32,4.43-.64S520,160,521.9,160c4.44,0,6,.63,8.56,3.17,1.59,1.59,1.91,1.9,1.91,3.49,0,1.27,0,1.9.63,1.9,1,.32,1,1.58,0,2.85-.63.64-.63,1.27.63,1.27.32,0,1,.32,1.27.32.32.31.32.63-.63,1.58a7.16,7.16,0,0,1-4.76,1.59,3.39,3.39,0,0,0-1.9.63,4.47,4.47,0,0,1-1.9.64,2.38,2.38,0,0,0-1.27.63c-.32.63-1,.63-2.22.63s-1.9,0-1.9.64a3.07,3.07,0,0,1-2.22.63c-1.27,0-1.9,0-2.22.64s-1,1-2.22,1-2.22.31-2.22.63a2.38,2.38,0,0,1-1.58.63c-.64,0-1.27.32-1.27.64a4.9,4.9,0,0,1-1.9,1.27c-1.9,1-4.44,3.17-4.44,4.12a2.49,2.49,0,0,1-.63,1.27,2.39,2.39,0,0,0-.64,1.58,1.68,1.68,0,0,1-1,1.27,2.41,2.41,0,0,0-.63,1.58,6.72,6.72,0,0,1-1.59,3.49,6.69,6.69,0,0,0-1.58,3.49,2.67,2.67,0,0,1-.64,1.9,3.46,3.46,0,0,0-.63,1.9c-.32.95-.63,1.59-.95,1.59-.64,0-.95.63-.64,2.53,0,1,0,1.27-.63,1.59-.95.63-.95,1-.95,3.8s-.32,3.49-1,3.81a2.71,2.71,0,0,0-.95,2.53c0,.95,0,1.9-.32,1.9s-.95.64-1.58,1.59c-1,1.27-1,1.9-1,5.39,0,3.17-.31,4.12-.95,4.75a2.45,2.45,0,0,0-.63,1.27,2.71,2.71,0,0,1-.95,1.59c-5.39,11.72-4.44,26.31-3.81,28.21.32,1.27-.31,2.53-.63,2.53-2.22,2.54-19.34-.31-14.9-33.6.32-2.22,0-3.17.64-3.48a12.78,12.78,0,0,0,.95-3.49c0-3.81-.32-4.12-2.54-1.9a22.78,22.78,0,0,0-2.85,2.53c-1.91,1.9-3.81,4.12-3.81,4.44,0,.63-2.22,2.54-3.17,2.85-.31.32-1.58,1.27-2.53,2.22a16,16,0,0,0-2.54,2.86c-1.9,1.9-4.44,3.8-5.07,3.48-.32-.31-1.27.32-2.22,1.59a5.22,5.22,0,0,1-2.85,1.58c-.32,0-.95.32-.95.64a2.46,2.46,0,0,1-1.59.63c-.63,0-1.27.32-1.27.63a1.62,1.62,0,0,1-1.26.64,4.6,4.6,0,0,0-2.54,1.58,4,4,0,0,1-2.22,1.27c-.63,0-1.27.64-1.59,1-.63.64-1.26.95-6.65.95s-6-.31-6.34-.95a2.46,2.46,0,0,0-1.59-.63,6.07,6.07,0,0,1-2.53-1.59,3.05,3.05,0,0,0-2.86-1.58c-1.26,0-1.58-.32-5.07-3.81-2.22-2.21-4.12-4.43-4.12-4.75a4.72,4.72,0,0,0-1.27-1.9,5.63,5.63,0,0,1-1.58-2.22,3.27,3.27,0,0,0-1.59-2.22,3.29,3.29,0,0,1-1.27-2.54c.32-.63,0-1.26-.63-1.9s-.63-1.58-.63-3.49-.32-2.53-.64-2.85C390,224.06,390,223.11,390.67,223.11Zm11.09-46.6c-.63.64-.95,1.27-.63,1.91,0,.63,0,1.26-.64,1.58-.95.32-.95.64-.95,2.85,0,1.91-.32,2.86-1,3.49s-.63,1.9-.63,3.17c0,2.22-.64,3.17-1.27,2.22-.32-.32-.32-2.54,0-5.39a3.47,3.47,0,0,1,.95-2.22,2,2,0,0,0,.32-1.9,4.45,4.45,0,0,1,.63-1.9,4.24,4.24,0,0,0,1-3.17c0-1.59,0-2.54.64-2.54.31-.31.95-.63.95-1.27.31-.63.63-1,.95-1C402.71,172.39,402.39,175.25,401.76,176.51ZM398,231.36a1,1,0,0,0,1-1c.31-1.26,0-1.9-1-1.9a.69.69,0,0,0-.64.64C396.69,229.77,397.32,231.36,398,231.36ZM402.71,219c.64,0,1-.63,1-2.85,0-2.54-.31-3.17-1-3.17-.32,0-.63.32-.63,2.85C401.76,219,401.76,219.31,402.71,219Zm2.54-20c.31.95,1.27.95,1.27-.63.31-.64.63-1.27,1-1.27a1.55,1.55,0,0,0,0-2.85c-.64,0-.64.31-.64,1.26a2.73,2.73,0,0,1-.95,1.91C405.25,197.75,404.93,198.07,405.25,199Zm3.17-9.51c.31.32.63.64.95.32a1,1,0,0,0,0-1.27c0-.63-.32-.63-.64-.32A1.94,1.94,0,0,0,408.42,189.51Zm3.17-44.7a6.68,6.68,0,0,0,.63-1.9c-.32-.31.32-1.27.95-2.22a4.48,4.48,0,0,0,1.91-2.53c.63-1.27,1.26-1.27,1.26,0a2.38,2.38,0,0,1-.63,1.58,1.75,1.75,0,0,0-.95,1.59,2.43,2.43,0,0,1-.64,1.27,2.43,2.43,0,0,0-.63,1.58c0,.63-.32,1.27-.95,1.27-.64.32-.64.63-.64,1.9,0,1-.31,1.27-.63,1.27-.63,0-.63-.32-.63-1.27A4.21,4.21,0,0,1,411.59,144.81ZM411,187.93a.84.84,0,0,0,.95.95c1,0,1.27-.32,1.27-1.27s-.31-1.59-.63-1.59C411.59,185.71,411,186.34,411,187.93Zm1.27-6.34c.64,0,.95-.32.64-1,0-.64-.32-1-.64-1s-.63.32-.63,1C411.27,181.27,411.59,181.59,412.22,181.59Zm.95-7.29c.32.63.32.63.95,0s.64-.64,0-1.27c-.63-.95-.63-.95-.95,0Zm1.27-3.17c.32,1,1.27.63,1.27-.64,0-.32,0-1-.32-1C414.76,169.22,414.12,170.49,414.44,171.13Zm1.27,8.24c0-.64-.32-1-.63-1-.64-.32-.64,0-.64,1,0,.63,0,.95.64.95C415.39,180.32,415.71,179.68,415.71,179.37Zm0-12.05c.32,1.27,1.27,1.59,1.9.64v-2.22c0-1.27,0-1.59-.63-1.59C416,164.15,415.39,165.42,415.71,167.32Zm1.9-4.75a.91.91,0,0,0,1.59,0c.31-.64-.32-2.54-1-2.54S417,161.93,417.61,162.57Zm2.22-3.49a.68.68,0,0,0,.63-.63c.32-1-.31-1.59-.95-1C418.88,157.81,419.2,159.08,419.83,159.08Zm1.58-3.49c.32,0,.64-.31,1-1,0-.63.31-.95.95-.63,1.26.31,1.9-.95.95-1.59-.64,0-.95,0-.95.32s-.64.32-1.27.32c-.95-.32-1.27,0-1.59.63C420.15,154.64,420.78,155.91,421.41,155.59Zm0,5.39c0,.32-.31,0-.63,0,0-.32,0-.63.32-.63.31-.32.63-.32.63,0S421.73,161,421.41,161Zm2.22-15.85a.9.9,0,0,0,1.59,0,.68.68,0,0,1,.63-.63c.64,0,1.27-1.27.95-1.59C425.85,142,423.32,143.86,423.63,145.13Zm2.86,4.12c0-.63-.32-.95-.64-.95s-.63.32-1,.95c0,.32.32.64,1,.64S426.49,149.57,426.49,149.25ZM430,132.13c0,1,.64,1,1.27.32.32-.63.32-.63,0-1.27C430.29,130.87,430,131.18,430,132.13Zm1,107.78a1.13,1.13,0,0,1-.64-.31.69.69,0,0,1,.64-.64l.63.64S431.56,239.91,430.93,239.91Zm.31-103.65c0,1,.95,1.26,1.27.31.32-.63,0-1.58-.63-1.58C431.56,135,431.24,135.62,431.24,136.26Zm1.27,102.07c0,.95.95.95,2.22.32a7.18,7.18,0,0,0,1.58-1c.32,0,.64-.64.64-1,.32-1.26-1.27-1.26-1.59-.31a1.74,1.74,0,0,1-1.58.95A4.35,4.35,0,0,0,432.51,238.33Zm.95-113.17a.68.68,0,0,0,.64.63c.63,0,.95-.31.95-.63s-.32-.63-.95-.63A.68.68,0,0,0,433.46,125.16Zm4.44-7-.32-.32a.68.68,0,0,1,.64-.63c.31,0,.63.31.31.63A1.08,1.08,0,0,1,437.9,118.19Zm1.27-3.49c.31,1,1.26.32,1.26-1.27,0-1,0-1.27-.63-1C438.85,112.48,438.53,113.75,439.17,114.7Zm.31,122.36c.32.64,1.27.32,1.59,0s1.27-.95,2.53-1.9c1.27-.63,2.54-1.59,3.17-1.9A4,4,0,0,1,449,232c1.27-.63,2.86-2.54,2.22-3.17a3.13,3.13,0,0,0-.95-.32c-.95,0-1.27-.63-.31-.95.31-.32.63-.63.63-1a.68.68,0,0,1,.63-.63.69.69,0,0,0,.64-.64c0-.31.63-.63,1.27-1a3.73,3.73,0,0,0,1.9-1.9c.63-.63,1-1.27,1.27-1.27a3.41,3.41,0,0,0,1.58-.32c.95,0,.95,0,.32.64-.95.95-.95,2.85,0,2.85.63,0,6-5.07,6-5.7a1.39,1.39,0,0,1,1-.32c.32,0,.95-.32,1.59-1.27a17.93,17.93,0,0,1,2.53-2.85c1.27-1,2.22-1.9,2.22-2.54a5.24,5.24,0,0,1,.64-1.58,1.75,1.75,0,0,0,.95-1.59c0-1.58-1.27-1.27-3.17.32-3.81,3.8-4.76,4.44-5.08,4.44a1.13,1.13,0,0,0-.63.31.69.69,0,0,1-.63.64c-.64,0-6,5.07-6,5.7,0,.32-.95.64-2.22,1.27a24.61,24.61,0,0,0-2.21,1.27c0,.32,0,.63-.32.63a15.49,15.49,0,0,0-2.54,1.91,9.53,9.53,0,0,1-2.85,2.21c-1,0-.64,1.27.32,1.91.63.63.63.63-.32,1a6.65,6.65,0,0,0-3.17,2.22c-.32.31-.64.31-1.27.31C441.39,232.62,439.48,235.48,439.48,237.06Zm4.12-136c.32-.64.64-1.27,1-1.27s.63-.63.63-1.58a3.23,3.23,0,0,1,.32-1.27c.95,0,2.53-2.22,2.53-2.86s.64-1.26.95-1.58,1-1,1-1.27a6.26,6.26,0,0,1,1.26-2.53,3.77,3.77,0,0,0,1.59-1.91,2.92,2.92,0,0,1,.95-1.58,5.28,5.28,0,0,0,.63-1.59A.69.69,0,0,1,455,83c.31-.32.63-.64.63-1a1.43,1.43,0,0,1,1-1c.32-.32.95-.95.95-1.27,0-1,1.9-3.17,2.54-3.17a3.23,3.23,0,0,0,.32-1.27c0-.63.31-1.27.63-1.27s.63,0,.63-.31.64-1,1.59-1.91c.63-1,1.27-1.58,1.27-1.9s.31-.63.63-1c.95-.63.95-1.58.32-1.58a.68.68,0,0,0-.64.63,8.29,8.29,0,0,1-1.58,1.9c-.95.64-1.59,1.27-1.59,1.59s-.31.63-.95.63a1.68,1.68,0,0,0-.63,1.27.68.68,0,0,1-.64.63c-.31,0-.63.64-.63,1.27a11.78,11.78,0,0,1-1.9,2.22c-1.27.63-1.59,1.27-1.59,2.22A3.38,3.38,0,0,1,455,81.1c-.95,0-3.81,3.48-4.12,4.75-.32.32-.64,1-.95,1.27-.32,0-.64.63-.64.95a5.57,5.57,0,0,1-.63,1.59,1.72,1.72,0,0,0-.95,1.58,4.83,4.83,0,0,1-1.27,1.9,4.8,4.8,0,0,0-1.27,1.91,2.18,2.18,0,0,1-.95,1.58,2.4,2.4,0,0,0-.64,1.27c0,.32-.63.95-1,1.27-.95.31-1.26,2.22-.63,2.53A.88.88,0,0,0,443.6,101.07Zm-.63,8.87c.32-.31.63-.63.63-1,0-.63-.63-.95-1.26-.63A.85.85,0,0,0,443,109.94Zm8.56-16.16c-.63,0-.63-.32,0-.64.32-.31.32-.31.32,0S451.85,93.78,451.53,93.78Zm5.39,130.6c0-.32-1.59,0-1.9.64a11.08,11.08,0,0,0-2.22,1.9,2.78,2.78,0,0,0-1.27,1.58c0,.95,1.27.32,2.85-.95A6.51,6.51,0,0,1,456,226C456.6,226,456.92,225,456.92,224.38Zm3.17-4.44a.32.32,0,1,0,0-.63c-.32,0-.64,0-.64.32S459.77,219.94,460.09,219.94Zm3.17-2.85a1.08,1.08,0,0,0,.63-.32.68.68,0,0,0-.63-.63.69.69,0,0,0-.64.63A1.12,1.12,0,0,0,463.26,217.09Zm-.32,7.29c-.32,0-.32-.32-.32-.63a.32.32,0,0,1,.64,0C463.26,224.06,463.26,224.38,462.94,224.38Zm1.59-8.87a.69.69,0,0,0,.63-.64,1.11,1.11,0,0,0-.63-.32l-.32.32A1.12,1.12,0,0,0,464.53,215.51Zm2.53,29.16c-.95,0-1.26,1.9-.95,3.49s1.27,1.26,1.59-.32C468,245.94,467.7,244.67,467.06,244.67Zm0-25c-.31-.32,0-.32.32-.32H468C468,219.94,467.06,219.94,467.06,219.63ZM469,234.21c-.32-.32-.64,0-1,.32-.31.63-.63,7.6,0,8.24.32.31,1.27.31,1.27-.32.32-.32.32-2.22.32-4.44C469.6,235.16,469.6,234.21,469,234.21Zm-.32-15.53c.32,0,1-.32,1-.64.32-.63-1-.63-1.27,0S468.33,219,468.65,218.68Zm4.44.31c-.64,0-.95.64-.95,1.9,0,1,0,1.59-.64,1.91-.32,0-.63.63-.63,1.26a3.4,3.4,0,0,1-.64,1.91c-1,.63-1,1.26-1,3.8,0,1.9,0,3.49.32,3.49.63.63,1.27-.32,1.58-2.86.32-1.58.64-2.85,1-2.85.31-.32.63-1,.63-2.53,0-1.91,0-2.22.63-2.86a1.72,1.72,0,0,0,1-1.58,2.86,2.86,0,0,1,1-2.22c.95-1,.95-2.85-.32-2.85-.64,0-.95.31-.95,1.58S473.72,218.68,473.09,219Zm2.53,10.15c0-.95-.63-2.22-1.27-1.59-.31,0-.31.64-.31,1.59s0,1,.63,1C475,230.09,475.31,229.77,475.62,229.14Zm.64-6c-.95,0-1.27.64-.95,1.91s1.26.95,1.58-.64C476.89,223.43,476.89,223.11,476.26,223.11Zm.95-2.22c0,1,.31,1.59.63,1.59a4.09,4.09,0,0,0,0-3.17C477.52,219.31,477.21,219.94,477.21,220.89Zm2.22-3.48c.31,0,.63-.64.63-1.27,0-1.59-1.27-2.22-1.59-.63S478.47,217.72,479.43,217.41Zm6.65-31.07c0,1.27,1.59,1.59,1.59.32.32-.64,0-.95-.64-.95C486.72,185.71,486.08,186,486.08,186.34Z" transform="translate(-35.44 -26.58)"/><path class="cls-1" d="M608.24,38a6.64,6.64,0,0,1-.63,4.75,4.69,4.69,0,0,0-.32,1.9c0,.32-.63,1-.95,1.59a6.68,6.68,0,0,0-.63,1.9,1.64,1.64,0,0,1-.64,1.27.69.69,0,0,0-.63.63,2.42,2.42,0,0,1-.63,1.27,2.87,2.87,0,0,0-.95,1.59l-.64.63a.31.31,0,0,0-.32.32c.32.95-.63,3.17-1.58,4.12a4.83,4.83,0,0,0-1.27,1.9,2.45,2.45,0,0,1-.63,1.27,2.41,2.41,0,0,0-.64,1.58c0,.32,0,.64-.31.64-.32.31-.64.63-.64.95,0,.63-.31,1.27-.63,1.27-.32.63-.64,1-.64,1.27,0,1-1.26,4.43-1.9,4.75-.31.32-.63.63-.63,1,.32.32-.95,3.17-1.59,3.17a1.18,1.18,0,0,0-.31,1,5.55,5.55,0,0,1-1,2.22,9.67,9.67,0,0,0-1.27,2.85,3.4,3.4,0,0,1-.64,1.91,2.43,2.43,0,0,0-.63,1.58c0,1-.32,1.59-1.59,4.12a13.36,13.36,0,0,0-.95,2.54,1.18,1.18,0,0,1-.31,1,2.4,2.4,0,0,0-.64,1.27c0,.31-.31.63-.63,1s-.32.63.63.63,1,.64-.31,1.27c-1,.63-1.27,1-1.27,1.58a3.4,3.4,0,0,1-.64,1.91A1.74,1.74,0,0,0,581,102a2.38,2.38,0,0,1-.63,1.27,7.37,7.37,0,0,0-1,2.22,13,13,0,0,1-.64,1.58,3.38,3.38,0,0,0-.31,1.27,3.34,3.34,0,0,1-.64,1.9,6.22,6.22,0,0,0-1.27,2.54c-.31,1-.63,1.9-.95,1.9s-.31.64-.31,1a6.09,6.09,0,0,1-.95,2.86c-.64,1.26-1.59,3.8-1.91,4.43a.31.31,0,0,1-.31.32c0,.32-.64,1.27-1,2.54a3.17,3.17,0,0,0-.32,2.85c0,.63,0,.95-1,2.22-1.27.95-1.27,1.27-.64,2.22s.64.95-.31,2.22c-1,.63-1.27,1.27-1,1.58a1,1,0,0,1-.32.64,1.87,1.87,0,0,0-.32,1.26c.32.32,0,1-.32,1.27a17.12,17.12,0,0,0-.95,2.22c-.31,1.59-1.26,3.49-1.58,3.49-.64,0-.32,1.27,0,1.27.32.31-.32,1-1.27,1.9a8.78,8.78,0,0,0-1.27,2.22c0,.31-.31.63-.63,1a2.4,2.4,0,0,0-.64,1.27,1.61,1.61,0,0,1-.63,1.26,2.38,2.38,0,0,0-.32,1.59c-.31.63-.63,1.9-1,2.54a6,6,0,0,0-.95,2.85c-.32,1.9-.63,3.8-1,3.8s-.32.64,0,1c.32.95.32,1.27-.32,1.91a1.7,1.7,0,0,0-1,1.26c0,1-1,2.54-1.58,2.54a.69.69,0,0,0-.64.63,2.38,2.38,0,0,1-.63,1.27c-.63.64-.63,2.54.32,2.54s.95.63,0,1.58c-.64.64-.64,1.27-.32,1.59s-.63,2.22-1.27,2.22-.32,1.58,0,1.9c.64.63.32.95-.32.63-.63,0-.95,0-1.26.95a2.4,2.4,0,0,1-.64,1.27c-.31.32-.31.64,0,1.59.64.95.64,1.26.32,1.9a3.41,3.41,0,0,0-.32,1.58c.32,0,0,.64,0,.64-.31.31-.31,1.27-.31,1.9-.32,2.85-.64,4.44-1.59,5.39-.63.63-.63,1-.32,1.9.64.95.64,2.54,0,2.85v1c.64.32.32,2.54-.31,3.49-.32.64-.32,1,0,1,.63.32.63.95,0,.95s-.64.32-.32.95c0,.64-.32,2.86-.63,4.76-.32,2.22-.64,4.12-.32,4.75a1.88,1.88,0,0,1-.32,1.27c-.63,1.9-.95,8.24-.63,12.37A21,21,0,0,0,545.8,238c.63,1.26.63,1.9.31,2.21s-.31.64,0,1.27c.32.32.64.64.64.95,0,1.59,5.07-.63,6.65-2.85.32-.95,1-1.58,1.27-1.58s1-.64,1.59-1.59c1.26-2.22,4.75-6,5.7-6,.32,0,.64-.32.32-.64,0-.63,0-1,.32-1,.63,0,3.17-1.9,3.17-2.53,0-.32,1-1.59,2.53-3.17,1.27-1.59,2.86-3.49,3.17-4.44a11.22,11.22,0,0,1,2.54-3.17,5.63,5.63,0,0,0,1.58-2.22c-.31-.63.32-1.9.95-1.9.32,0,.64-.64.64-.95.32-.95,1.27-2.22,3.17-4.12a4.49,4.49,0,0,0,.63-1.91c0-.95,2.54-4.75,3.17-4.75.32,0,.32,0,0-.32a5.73,5.73,0,0,1,1-1.27,2.83,2.83,0,0,0,.95-1.58c0-.32.64-1,1.27-1.59a4.72,4.72,0,0,0,1.27-1.9,1.16,1.16,0,0,1,.32-.95,12.91,12.91,0,0,0,5.7,1.59h.64a8.09,8.09,0,0,1-1.27,2.21,5.83,5.83,0,0,0-1.59,2.22,3.59,3.59,0,0,1-.95,2.22,2.41,2.41,0,0,0-1,1c0,.32-.63,1.27-3.48,5.71a3.45,3.45,0,0,0-1,1.9l-1.26,1.9a2.8,2.8,0,0,0-1.27,1.91c0,.31,0,.63-.32.63,0,.32-.32.63-.32,1s-.31.95-.63.95-.32.32-.32.64a2.35,2.35,0,0,1-.63,1.26c-.32,0-.63.95-.95,1.59a2.63,2.63,0,0,1-1.27,1.9,1.75,1.75,0,0,0-.63,1.59.94.94,0,0,1-.32,1.26,2.41,2.41,0,0,0-.63,1.59c0,.63-.32.95-.64.95-.32.32-1,.63-1.27,1.27a1.18,1.18,0,0,1-.63.95.31.31,0,0,0-.32.32,4.85,4.85,0,0,1-1.27,1.9,4.77,4.77,0,0,0-1.26,1.9c0,.32-.64.95-1.27,1.9a4.85,4.85,0,0,0-1.27,1.9A14.26,14.26,0,0,1,568,238a5.39,5.39,0,0,0-1.27,2.21c0,.64-.64,1.27-1,1.91a8.52,8.52,0,0,0-2.86,3.48c-.31.32-.63.64-.95.32a.69.69,0,0,0-.63.63c0,1.27-2.54,2.54-6.34,3.49a4.54,4.54,0,0,0-2.22.64,6.45,6.45,0,0,1-1.9-.64l-1.27-.63c-.32.31-.63,0-1-.32-.32,0-.95-.32-1.27,0-.63,0-1,0-1.27-.32a1.38,1.38,0,0,0-1-.31,2.4,2.4,0,0,1-1.27-.64,2.89,2.89,0,0,0-1.58-1c-.64,0-.95-.32-.95-.63,0-.64-.64-.64-1,0,0,.31-.64,0-1.27-.95-.64-.64-1.27-1.27-1.59-1.27a1,1,0,0,1-.63-.32c-.32-.32-.63-.63-.95-.32-.64.64-1.59-.31-1.27-1v-.31c-.63,0-3.8-3.49-3.8-3.81s0-.63-.32-.63c-.32-.32-.63-.64-.32-.95,0-.32,0-.64-.31-.64a.31.31,0,0,1-.32-.31c0-.32-.32-.64-.64-1-.31,0-.63-.64-.63-1a2.43,2.43,0,0,0-.63-1.26,4.51,4.51,0,0,1-.64-1.91c0-.95,0-1.58-.63-1.58-1-.32-1-1.9-.32-1.9.32,0,.32,0-.32-.64s-1-2.85-1-5.07c0-.63,0-1.58-.31-1.58a1.44,1.44,0,0,1,0-1.59c.31-.63.31-1,0-1.27-.32,0-.32-.31-.32-.63.32-.32,0-.63,0-1-.32,0-.32-.32-.32-.64.32-.31.32-1,.64-1.9,0-1.9,0-2.53.63-3.17a.59.59,0,0,0,0-1c-.32,0-.32-.63,0-1.27a4,4,0,0,0,.32-1.9,1.18,1.18,0,0,1,.31-1,.43.43,0,0,0,0-.63c-.31-.95.32-4.12,1-4.12.31,0,.63-1.59.63-4.13-.32-.63,0-1.58.32-1.58a2.43,2.43,0,0,0,.31-1.59c-.31-.31,0-1,.32-1.26a13.61,13.61,0,0,0,.32-1.59,3.2,3.2,0,0,1,.31-1c.32,0,.64-.63.64-.95a11.13,11.13,0,0,1,1-2.22c.63-1.27.63-1.9.32-1.9-.95-.32-.64-.64.31-1.9,1.27-1.27,1.27-1.91,0-.95-.31.31-.63.31-.63-.32,0-.32.32-.64.95-.95.32-.32.63-.64.32-1.27a1.94,1.94,0,0,1,.31-1.27c1.27-1.58,1.59-2.53,1.27-3.8a1.45,1.45,0,0,1,0-1.59c.64-.31.64-.31,1,0,.32,1,.64,0,0-1.27A4.22,4.22,0,0,1,535,168c.63-1,1-1.59.63-1.9-.63-.64-.32-.95.32-.64.63,0,.95,0,.63-.63,0-.32-.31-.32-.63-.32-.64,0-.64-.32,0-1.58,1.58-3.17,1.9-4.44,1.58-4.44-.63-.32,0-.95.64-.64.31,0,.31,0,.31-.95-.31-1-.31-1.58,0-1.9.32,0,.64-.63.64-1.27s.32-1.26.32-1.9a3.76,3.76,0,0,0,.63-2.22c0-.95.32-1.58.63-1.58,0-.32.32-.32.32-.64a.69.69,0,0,1,.63-.63c1,0,1.91-1.59,1.27-1.9a2.16,2.16,0,0,1,.64-2.54,2.45,2.45,0,0,0,.63-1.27c0-.31,0-.31.32-.31s.63-1.59.31-1.91c-.63-.31-.31-2.53.32-4.12.32-.63.64-1.26.32-1.26a1.18,1.18,0,0,1,.32-1,5.26,5.26,0,0,0,1-1.9,2.38,2.38,0,0,1,.63-1.58c.32-.32.63-.64.32-.95s.63-2.54.95-2.54a.68.68,0,0,0,.63-.63c0-.95,1.27-3.81,1.9-4.12a3.3,3.3,0,0,0,.32-1.27,2.37,2.37,0,0,1,.32-1.59c.32-.32.32-.32,0-.32a.31.31,0,0,1-.32-.31.69.69,0,0,1,.64-.64c.31,0,.31,0,.31-.31a.61.61,0,0,1,.32-1c.32,0,.32-.64.63-1.27a2.42,2.42,0,0,1,.64-1.59c.31,0,1-1,1-1.26.32-.64.32-1,.63-1a3.31,3.31,0,0,0,0-1.9,2.48,2.48,0,0,1,1-2.22c.32-.31.64-.63.64-1-.32-.31.63-2.22,1.27-2.53.31-.32.31-.64,0-1.59,0-.95,0-1.27.31-1.27.64,0,1.27-1.27,1-2.22a3.13,3.13,0,0,0,.32-1,1.15,1.15,0,0,0,.32-.95c.31-.32.63-1,1-1.27a4.2,4.2,0,0,1,.63-1V92.2c0-.64,0-1,.32-1,.63,0,.63,0,.63-.63-.31-1,.32-1.9,1-1.9s1.27-1.27,1-2.22c0,0,.31-.32.63-.63s.32-.32-.32-.32c-.31,0-.63,0-.63-.32s.32-.32.63-.32.64-.31.32-.31c0-.32,0-.64.32-.64,0-.31.31-1,.31-1.27-.31-.63,0-1,.64-1.58.31-.32.95-.95.95-1.27a5.74,5.74,0,0,1,1-4.12c.63,0,.63-.63.63-.95,0-.63,0-1.27.32-1.58s.63-.64.32-1-.32-.63.31-1a1.43,1.43,0,0,0,1-1,8.79,8.79,0,0,1,1.58-3.8c.63-1.59,1.9-4.12,1.9-4.44,0-1.27,2.54-6.34,3.49-7s1-1,.63-1.91a2.88,2.88,0,0,1,1-2.53,5.47,5.47,0,0,0,1-2.22V47.18a4.66,4.66,0,0,0,.31-3.49c-.31-.63-.31-.95,0-1.26a1.7,1.7,0,0,0,.95-1.27,2.94,2.94,0,0,1,1-1.59c.64-.63,1.27-1.27,1.27-1.58a2.4,2.4,0,0,1,.64-1.27,1.94,1.94,0,0,0,.31-1.27,1.39,1.39,0,0,1,.32-1c.63,0,1.27-1.58,1.59-2.22a8.43,8.43,0,0,1,2.21-4.44c0-.31.32-.63,0-.63,0-.32,0-.63.32-.63s.64,0,.64.31c.31.32,1,.64,5.07.95,3.17,0,3.8.32,3.8,1.27s1,1.59,2.22,1.27c1.9-.63,2.85-.32,2.54.95-.32.63,0,1,.63,1,1.9,0,2.54.32,2.85,1.59,0,.63.64,1.27,1,1.58s.32.64,0,1.27S607.93,37.67,608.24,38ZM531.53,212c.32-.32.63-1.27.63-3.17s0-3.17.32-3.49a3.62,3.62,0,0,0,.64-2.21c.31-.64.31-1.27.63-1.59.32,0,.32-.63,0-1.58a6.39,6.39,0,0,1,.32-1.59.6.6,0,0,0,0-.95c-.32-.95-.32-.95.31-.63h.32a13,13,0,0,1,.63-1.91,11.29,11.29,0,0,0,.64-3.48,3.74,3.74,0,0,1,.63-2.22c.32-.32.32-1.27.64-2.22,0-.95,0-1.59.31-1.9.32,0,.32-.32.32-.64-.32-.31,0-.63.32-.63s.63,0,.31-.64a2.37,2.37,0,0,1,.64-1.26c.32-.32.32-.64.32-1.27-.32-.64.31-1.9.95-2.54v-.95c.31-1.9,1.26-5.7,1.9-6.34.32-.32.63-.63.32-.95-.32-.63.31-3.49,1-4.12a14,14,0,0,0,.31-1.59c0-1.26.64-3.17,1.27-3.17V160c-.32-.31,0-.63.32-.95.32,0,.63-.31.32-1,0-.63,0-1.27.31-1.27a13.6,13.6,0,0,0,.95-2.53c.32-1,1-2.22,1-2.54a1.16,1.16,0,0,0,.32-.95c-.32,0,0-.63.64-1.27a2.17,2.17,0,0,0,.95-1.58c0-1.59-.95-1-2.54,1.58-.63,1-1.27,2.22-1.58,2.54a1.7,1.7,0,0,0-1,1.27c0,.31,0,.63-.31.63a7.66,7.66,0,0,0-.95,2.22c-.32,1.58-1,2.85-1,3.17a27.51,27.51,0,0,0-1.91,5.39c0,.32-.63,1-1,1.58a1.91,1.91,0,0,0-.95,1.91c.32.63,0,1.26-.32,1.26a1,1,0,0,0-.31.64,2.88,2.88,0,0,1,0,3.17,2.65,2.65,0,0,0-.64,1.9,2.25,2.25,0,0,1-.95,1.9c-.63.64-.63.95-.63,1.27a1,1,0,0,1,0,1.27,2.39,2.39,0,0,0-.64,1.58c0,.95,0,1.59-.31,1.59-.32.31-.32.63-.32,1.9-.32.63-.32,1.27-1,1.58a5.28,5.28,0,0,0-.63,1.59,2.4,2.4,0,0,1-.64,1.27c0,.31-.32.63,0,1,0,.32,0,.95-.63.95a3,3,0,0,0-.64,2.22,5.33,5.33,0,0,1-.63,2.85c-.63.64-.63.64,0,1.27.32,0,.63.32.32.63-.64.32-1.59,3.17-1.59,5.39a6.12,6.12,0,0,1-.63,2.54,24.31,24.31,0,0,0-.32,2.85,9.46,9.46,0,0,1-1,2.85c-.32.32-.63.64-.32.64s.64.63.64,1.27c0,.95-.32,1.58-.64,1.58,0,0-.31,0,0,.32a4.3,4.3,0,0,1-.31,1.58v1.59c.31.32.31.63.31,1.27s.32,1,.32,1.26c.32,0,.32.32.32,1-.32.63-.32,1.26,0,1.26a5.12,5.12,0,0,1,0,2.22c0,1.59,0,1.59.63,1.59s.95,0,.63-.64v-1.26c.32,0,.32-1,.32-2.22a4.9,4.9,0,0,1,.64-2.54c.31-.32.31-.63,0-1.27-.64-.63-.64-.95,0-1.27,0-.31.31-.63.31-1.26a1.12,1.12,0,0,1,.32-.64c.63,0,.63-.31-.32-2.22,0-.63,0-.63.64-.63.63.32.63.32.31-.32C531.21,212.66,531.21,212,531.53,212Zm1.9,12c.32-.32,0-.64,0-.95a.59.59,0,0,0-.95,0c-.63.63-.63.63-.32.63a2.18,2.18,0,0,1,0,1.59c0,1.58.64,1.9,1,.31A3.5,3.5,0,0,0,533.43,224.07ZM573.06,97.9c0-.32-.32-.32-.64,0a4.28,4.28,0,0,1-1.26.95c-.64.32-.64.64-1,2.86,0,.63-.31,1-.63,1a3.84,3.84,0,0,0-1,.63,2.07,2.07,0,0,1-.63,1.59,4.65,4.65,0,0,0-.32,1.9.61.61,0,0,1-.32,1c-.32,0-.63.63-.63,1a15.83,15.83,0,0,1-1.27,3.17c-1,1.9-1.27,2.85-1,3.17s.32.63,0,.63-.64.64-1.27,1.59a8.11,8.11,0,0,1-1.27,2.85c-.31.64-.63,1.9-1,2.54-.32,1-.63,1.9-1,1.9,0,0-.32.32,0,1a4,4,0,0,1-.32,1.9,7.92,7.92,0,0,0-1,2.22,7.37,7.37,0,0,1-.95,2.22c-.32,0-.63,1-.32,1.9,0,1.27,0,1.59-.63,1.59-.32,0-.95.31-.95,1.58l-.32.64c-.31.31-.31,1.26-.63,2.22a17.32,17.32,0,0,1-.32,2.21,1.18,1.18,0,0,0-.32,1c.32.63,0,.63-.63,1-.32,0-.63.63-.63.95s-.32.63-.32,1c-.32,0-.32.32-.32.63s-.63,1.27-1,2.22a8.5,8.5,0,0,0-1,3.17,4.54,4.54,0,0,1-.63,1.9,2.4,2.4,0,0,0-.64,1.27,6.38,6.38,0,0,1-.63,1.9,8.32,8.32,0,0,0-.95,2.54c-.32.95-.64,2.22-1,2.85a27.3,27.3,0,0,0-1,2.86c0,.95-.32,2.21-.64,2.21-.32.32-.63,1-.32,1.27a1.94,1.94,0,0,1-.31,1.27,1.56,1.56,0,0,0-.32.95c.32.32,0,1.27-.63,1.9a8.32,8.32,0,0,0-1,2.54c.31.95,0,1.58-.32,1.58s-.32.64-.32,1a1.5,1.5,0,0,1,0,1.26,2.41,2.41,0,0,0-.63,1.59,1.9,1.9,0,0,1-.32,1.27c-.32,0-.32.63-.32,1a.43.43,0,0,1,0,.63c-.31,0-.63.64-.63,1.59,0,.63-.63,1.58-.63,1.9a3.68,3.68,0,0,0-.64,2.22,17.86,17.86,0,0,1-.32,2.22,2.4,2.4,0,0,0-.31,1.58c-.32.64-.64,1.59-1,2.22a4.47,4.47,0,0,0-.64,1.9,5.49,5.49,0,0,1-.31,2.22c-.32.64-.64,1.59-.32,1.59a2.37,2.37,0,0,1-.64,1.26c-1,.64-1,.64-.31,1,.31,0,.63.63.63.95,0,1,0,1-.63,1-.64-.32-.64.31,0,.95a1.46,1.46,0,0,1,0,1.58,4.58,4.58,0,0,0-.64,2.22,4,4,0,0,1-.31,1.59,26.23,26.23,0,0,0-.32,3.8c-.32.64-.32,1.27-.63,1.27v1.27a3.3,3.3,0,0,1-.32,1.27c-.32.31-.32.95-.64,1.9,0,1.58.32,1.9,1.59,1.27.32-.32.32-1,.32-1.91a2,2,0,0,1,.63-2.22c.32-.31.63-.95.32-1.26a1.94,1.94,0,0,1,.31-1.27,1,1,0,0,0,.32-.64c-.32-.31-.32-.63,0-.63.32-.32.32-1.9.64-3.49,0-1.9.31-3.17.63-3.48,0,0,.32-.64,0-1,0-1,.63-3.17,1.27-3.49a11.48,11.48,0,0,0,.31-1.9,7.37,7.37,0,0,1,.64-2.54,7.49,7.49,0,0,0,.63-2.85,11.17,11.17,0,0,1,.64-3.17c0-.64.31-1.59,0-1.9,0-.64,0-1,.63-1.27s1-.64.63-1.59a6.09,6.09,0,0,1,.32-2.53,14.73,14.73,0,0,0,1-2.22,3.68,3.68,0,0,1,.64-2.22c.63-.64,1.26-2.22.95-2.85-.32,0-.32-.32.31-.64a2.35,2.35,0,0,0,.32-1.58c0-.32.32-.95.64-.95,0-.32.31-.64,0-1a1.56,1.56,0,0,1,1.9-1.26.69.69,0,0,0,.63-.64c0-.31-.32-.31-.63-.31-.64.31-.64,0-.32-1.27V168s0-.32.63-.64c.32-.31.64-.31,0-.95-.63-1-.63-1.9,0-1.9.32,0,2.22-4.12,2.22-4.75a5.55,5.55,0,0,1,.95-2.22c.32-.64.64-1.59.32-1.9a.69.69,0,0,1,.64-.64c.31-.32.31-.63.31-1.27-.31-.63,0-.95.64-1.58l.95-.64-.95-.31c-.64-.32-.64-.32-.64-.95a3.4,3.4,0,0,0,.64-1.91,5,5,0,0,1,.95-1.9.68.68,0,0,0,.63-.63c0-.32,0-.64.32-.64.63,0,.63-.31.63-.63-.31-.63-.31-.95,0-.95s1.9-3.49,1.9-4.12c0-.32,0-.32-.31-.32s0-.63.31-1c1-.63,1-.95.32-1.27s-1-1.27-.32-1.27c.32,0,.32,0,.32.32-.32.32,0,.32,0,.32a.69.69,0,0,0,.64-.64c0-.31,0-1,.31-1s.64-.63.64-.95c0-.63.31-1.27.63-1.27,0-.31.32-.31,0-.63a1.16,1.16,0,0,1,.32-.95,1.67,1.67,0,0,0,.63-1.27c0-.32.32-.63.32-.95.32,0,.32-.32.32-.63a5.4,5.4,0,0,1,1-2.22,15.3,15.3,0,0,0,.95-2.86,1.73,1.73,0,0,1,1-1.58c.32-.32.63-.63,0-1-.32,0-.32-.32,0-1a2.38,2.38,0,0,0,.63-1.27c-.31,0,0-1,.64-1.59a13.63,13.63,0,0,0,.63-2.21,7.14,7.14,0,0,0,1-1.59,4.54,4.54,0,0,0,.64-1.27,13.74,13.74,0,0,0,.31-1.58c.64-.64.64-1,.64-2.22a.83.83,0,0,1,.95-1c.31,0,.31-.32,0-.32-.32-.32-.32-.32,0-.63a2.43,2.43,0,0,0,.31-1.59c-.31-.63-.31-.95,0-.95.32.63,2.54-2.85,2.54-3.49a1.17,1.17,0,0,1,.32-1C573.06,98.53,573.37,98.22,573.06,97.9Zm-36.14,130a3.23,3.23,0,0,0,.32-1.27c0-.63-.32-.63-.32-.31C536.29,226.92,536.29,227.87,536.92,227.87Zm-.32-3.49c.32,1,.95.64.95-.95,0-1,0-1-.63-.63A2.35,2.35,0,0,0,536.6,224.38Zm1.27,4.44c-.63,0-1.27,1-1.27,1.59s.64.63,1.27,0C538.5,229.46,538.5,228.82,537.87,228.82Zm1.59-14.26c-.32-.32-.64-.64-1-.32l.32-.63c.32-.32.32-.64-.32-1.27l-1-1v1.27c0,.63.32,1.58.32,1.9.63.63.32.95-.32,1.58s-.95,1-.31,1.27c1,.63,1.26.32,1-.32,0-.63,0-1,.63-1S539.77,215.51,539.46,214.56Zm.95-11.41-.95.95a1.94,1.94,0,0,0-.32,2.22,2,2,0,0,1,0,1.9c-.64.95-.64,2.53,0,2.53.32,0,.32,0,.32-.31v-1.27A10.55,10.55,0,0,0,540.41,203.15Zm2.85-8.56c0,.31-.32.95-.63.95-1,.31,0,1.9,1,1.9.63-.32.63-.63.95-2.22C544.53,193.32,543.89,193,543.26,194.59Zm0-43.75c1,.63,1.27.63,1-.32-.32-.63-.63-.63-1-.31S542.94,150.52,543.26,150.84ZM545.8,186c-.32,0-1,1.27-1,1.9a1.18,1.18,0,0,1-.31.95,1.16,1.16,0,0,0-.32,1c.63.64,1.59.32,1.59-.32v-1.26a1.17,1.17,0,0,1,.31-.95C546.43,186.66,546.43,186,545.8,186Zm-.32-37.09c.32,0,.63-.32.63-.95-.31-1-1-1.27-1.27-.32S544.84,148.94,545.48,148.94Zm.32-2.22a2.41,2.41,0,0,0,1-.95c1-1,1-1,.31-1.59-.95-.63-1.26-.63-1.26,0s-.32.95-.64.95C544.84,145.45,545.16,146.72,545.8,146.72Zm1,36.14c-.32-.64-.64-.64-1-.64a1.27,1.27,0,0,0,.63,1.27C547.06,184.44,547.38,184.13,546.75,182.86Zm.31-7.29-.31-.32c-.32-.32-.32-.63,0-.63s.31.31.31.63Zm1.27.63a1.16,1.16,0,0,0-.32-.95c-.31-.32-1.58,1.27-1.26,1.9C547.06,177.47,548.33,176.83,548.33,176.2Zm-1.27-35.82a.31.31,0,0,1-.31-.32c0-.31.31-.63.31-.95.32,0,.64,0,.64.32S547.38,140.06,547.06,140.38Zm.64,40.89c-.32.32-.32.32-.64,0s.32-1,1-.63A1,1,0,0,1,547.7,181.27Zm.31-7.61c-.63,0-.63-.31,0-.63h.32C548.33,173.35,548.33,173.66,548,173.66Zm5.39-8.55h-.95a1.6,1.6,0,0,0-1.58,1.26c-.32.64-.64,1.27-.32,1.59s-.63,1.9-1.27,1.58h-.63c0,.32,1,2.86,1.27,2.86,0,0,.31-.64.63-1.27a3.32,3.32,0,0,0,.63-1.59,5,5,0,0,1,1-2.53Zm-3.48,13.31c-.32,0-.32,0-.32-.32a1.13,1.13,0,0,1,.63-.31.31.31,0,0,1,.32.31C550.23,178.42,550.23,178.42,549.92,178.42Zm1.26-35.82c.32.63,1,1,.32.32a5.27,5.27,0,0,1,.64-1.59c.31-.32.31-1.27.31-1.9-.31-.64-.31-1,.32-1,.32,0,.63-.32,1-.95.63-.64.63-.95,0-1.27-.32-.32-.63,0-1,.32h0c0-.32,0-1,.63-1a9.54,9.54,0,0,0,1-1.9,2.39,2.39,0,0,1,.64-1.58,3.62,3.62,0,0,0,1-2.22c.32-.95.63-1.59.95-1.59,0,0,.32-1.26.63-2.85.32-1.27.64-2.85,1-2.85a3.31,3.31,0,0,0,.31-.95,6.38,6.38,0,0,1,1-2.54,6,6,0,0,0,1-2.85c0-1,1.27-4.12,1.91-4.12.31,0,.31-.64.31-1,0-.64.32-1,.32-1.27.32,0,.32-.32.32-.64a8.59,8.59,0,0,1,1-1.9c.32-.63,1-1.58,1-1.58a6.6,6.6,0,0,1,1.27-3.49,4.23,4.23,0,0,0,.95-2.54c0-.31,0-.31.32-.31s.31-.32.31-.64a1.66,1.66,0,0,1,.64-1.27c.31-.31.63-1.58.95-3.8a7.59,7.59,0,0,1,1.27-2.85,32.94,32.94,0,0,0,2.21-5.39A5.37,5.37,0,0,1,574,84a16,16,0,0,0,1.58-3.8c.95-2.54.95-3.17.64-3.49a1.16,1.16,0,0,1-.32-1c.32,0,.32-.32.32-.63s.31-1,.63-1A4.42,4.42,0,0,0,578.45,71c0-.32,0-.64.31-.64s.64-.31,1-.95a3.39,3.39,0,0,1,.64-1.9c.63-.63.95-2.85.63-3.17-.63-.32-2.22,2.22-3.17,4.44,0,.31-.31.63-.63,1a9.83,9.83,0,0,1-1.27,2.85,29.12,29.12,0,0,1-1.58,3.17,3.13,3.13,0,0,1-.32,1c0,1-1.59,3.81-1.9,3.81v1c.31,1,.31,1.26,0,1.26-.32.32-.64.64-.64,1a.3.3,0,0,1-.31.31c-.32,0-.32.64-.32,1,0,.64-.32,1.27-.64,1.27,0,.32-.31.64-.31,1.27a16.74,16.74,0,0,1-2.22,5.71,8.94,8.94,0,0,0-1.59,3.48,9.46,9.46,0,0,1-1.26,1.9c-1,1.27-1,2.86-.64,2.86s.32,0,0,.32a6.24,6.24,0,0,0-1.9,3.8,3.46,3.46,0,0,1-.63,1.9c-.32.32-.64,1-.32,1.27a5.55,5.55,0,0,1-1,2.22c-.64.95-1.27,1.58-1,1.9,0,.32,0,.63-.32.63s-.32.64-.32.64c.32.32,0,1-.31,1.58a4.69,4.69,0,0,0-.32,1.9c.32.64,0,.64-.64.64s-.63.32-.63,1c0,.32,0,.63-.32.63a15.89,15.89,0,0,0-1.26,5.39c0,1-.32,2.22-1,2.54-.31.63-.63,1-.31,1,0,0,0,.32-.64.63-1.9,1.91-2.22,3.17-.95,3.81.64.32.64.32,0,1.27a4.54,4.54,0,0,0-.63,1.9c0,.32,0,1-.32,1-.32.32-.32.32-.32.63.32.32,0,1.27-.31,2.22C550.55,141.65,550.55,142.28,551.18,142.6Zm4.44,4.44c-.63,0-.63,0-.63-.32h.63C555.94,147,555.94,147,555.62,147Zm1.27-31.39c-.32.32-.32,0-.32,0,0-.31,0-.63.32-.63,0-.32.32,0,.32,0A1.08,1.08,0,0,1,556.89,115.65ZM562,137.21c0-.32-.31-.63-1-.63-1,0-1,0-.32.95C561.33,137.84,562,137.84,562,137.21Zm1.59-3.49c0-.31,0-.63-.64-.31a.68.68,0,0,0-.63.63C562,135,563.23,134.67,563.55,133.72Zm13.63-46.6a2.84,2.84,0,0,0-1.9,1.91c0,.31-.32,1-.32,1.26-.32.64-.63.95-.63,1.27s-.32.64-.32,1.27c-1.59,3.49-1.59,3.8,0,3.49.63-.32,1-.64.63-1-.31,0-.31-.31,0-.63a2.35,2.35,0,0,0,.32-1.58c0-.64,0-1,.32-1,.63,0,.63-.32.63-1.59a3.15,3.15,0,0,1,1-2.54C577.5,87.44,577.5,87.12,577.18,87.12Zm3.17-7.29c0-.63-.32-.63-.32-.63,0,.31-.63.63-.95.63-.63,0-.63.32-1,1.59,0,.63-.32,1.58-.63,1.58-.32.32-.32,1.59,0,1.59a2.27,2.27,0,0,1,1-1,2.49,2.49,0,0,0,.63-1.59c0-.32.32-1,.63-1S580.35,80.47,580.35,79.83Zm.95-5.07c-.63.63-1.59,2.85-.95,2.85A4.48,4.48,0,0,0,581.3,76C582.25,74.76,582.25,74.13,581.3,74.76Z" transform="translate(-35.44 -26.58)"/><path class="cls-1" d="M709.69,174.22a5.43,5.43,0,0,0-1.42,2.13c0,.71-1.07,1.78-1.42,2.13a7,7,0,0,0-2.49,5.33c0,1.42-.35,2.13-1.77,3.91A26.46,26.46,0,0,0,700.1,192c-.35,1.06-1.42,2.49-1.78,3.55a13.5,13.5,0,0,0-.71,3.2,5.7,5.7,0,0,1-1.06,3.19c-1.78,2.14-2.49,3.56-2.49,5.33A1.64,1.64,0,0,1,693,209a3.49,3.49,0,0,0-1.42,1.77,15.54,15.54,0,0,1-.36,1.78c-.35,0-.35.71-.71,1.42a4.52,4.52,0,0,1-1.42,2.49,11.76,11.76,0,0,0-1.06,2.13c0,.71,0,1.06-.36,1.06a6.1,6.1,0,0,1-.71,1.78,7.41,7.41,0,0,1-1.07,2.48,13.76,13.76,0,0,0-1.42,1.78c-3.19,4.62-4.26,6-4.26,6.39a6.15,6.15,0,0,1-1.06,2.49,9.56,9.56,0,0,0-1.42,2.49,1.93,1.93,0,0,1-1.07,1.42c-.35.35-1.07,1.06-1.07,1.42a5.89,5.89,0,0,1-.71,1.77,3.82,3.82,0,0,0-.71,1.78,6.81,6.81,0,0,1-1.77,2.84l-3.91,3.91a19.39,19.39,0,0,1-6.39.35,20.09,20.09,0,0,1-6.39-1.06c-.71-1.07-1.07-2.14-1.43-2.49-.71-1.07-1.06-1.07-1.77-.36-.36.36-.71.36-1.07-.35a5.46,5.46,0,0,1-.71-1.07,10.25,10.25,0,0,0-1.42-2.84,7,7,0,0,1-1.06-2.84,19.13,19.13,0,0,1-1.42-2.13,8.39,8.39,0,0,1-1.07-3.2c0-.71,0-1.77-.35-2.13a2.67,2.67,0,0,1-.72-1.77,7.16,7.16,0,0,0-.71-2.13,2.36,2.36,0,0,1-.35-2.14,5.22,5.22,0,0,0-.36-2.13,7.13,7.13,0,0,1-.71-3.19,4.54,4.54,0,0,0-.71-2.84c-.35-.36-.71-2.13-.71-5.69,0-3.9,0-5.68-.71-6-.71-1.07-.71-9.59,0-11a5.49,5.49,0,0,0,.71-2.85,10.65,10.65,0,0,1,.71-3.55,15,15,0,0,0,.71-4.26c0-1.06,0-2.49.36-2.84a2.7,2.7,0,0,0,.35-2.49,3,3,0,0,1,.71-2.13,2.62,2.62,0,0,0,.71-1.42,1.84,1.84,0,0,1,.72-1.42,2.14,2.14,0,0,0,.35-1.42,2.76,2.76,0,0,1,.71-1.42,2.69,2.69,0,0,0,.71-1.42c-.35,0-2.49,3.55-6,9.59.36-.36,0-.36,0-1.07.36-1.06.71-2.13,1.07-3.19h-.36c-1.06,0-1.06,1.06-.71,3.19-.35,1.07-.71,1.78-1.06,2.84a18.68,18.68,0,0,0-2.49,3.91c-.71,1.07-1.06,2.13-1.42,2.13-1.06,0-2.49,2.49-2.49,3.91a1.63,1.63,0,0,1-1.06,1.77,5.24,5.24,0,0,0-2.13,1.78c-.36.71-.71,1.07-1.07,1.07A6.5,6.5,0,0,1,628,197a1.9,1.9,0,0,1-1.42,1.07c-1.06-.36-1.42,1.06-.71,2.13,1.07,1.42,1.07,2.48,0,2.84a3.6,3.6,0,0,0-.35,1.07c0,.71-2.49,4.26-4.27,6,0,.36-.35,1.07-.35,1.42a5.37,5.37,0,0,1-1.42,2.13c-1.07,1.78-2.84,5-2.84,6.4a9.72,9.72,0,0,1-1.42,2.48,10.25,10.25,0,0,0-1.42,2.84c0,.36-.36.71-.36,1.07a10.14,10.14,0,0,0-2.13,3.91c-.71,1.42-2.13,3.19-2.84,3.19s-.71,1.42,0,2.13,0,1.78-1.78,3.91a25.52,25.52,0,0,0-2.84,3.2,16.83,16.83,0,0,1-3.55,3.55,3.81,3.81,0,0,0-2.13,2.13,3.63,3.63,0,0,1-1.42.36c-.36,0-1.42.35-1.42.71-.71.35-.71.35-1.42,0a3.78,3.78,0,0,0-2.13-.71,2.14,2.14,0,0,1-2.13-1.07c0-.36-.72-.71-1.43-.71-1.06-.36-1.06-.71-1.42-1.42,0-1.78-1.77-3.55-2.84-3.55s-1.77-1.78-1.42-3.55-.71-3.91-2.84-5.69a3.22,3.22,0,0,1-1.06-2.48,2,2,0,0,0-1.07-1.78,6,6,0,0,1-.71-3.2v-7.45c0-4.62.35-5.33,1.06-6s.72-1.42.72-5.33c0-3.55,0-5,.71-5.68a8,8,0,0,0,.35-2.84c-.35-1.42,0-2.49.71-4.27.71-1.42,1.07-2.48.71-2.84l.71-.71a2.14,2.14,0,0,0,1.07-2.13,4.56,4.56,0,0,1,.35-2.13,4,4,0,0,0,1.07-2.48,5.49,5.49,0,0,1,.71-2.85,4.15,4.15,0,0,0,.71-2.48,5.73,5.73,0,0,1,1.06-3.2,5.42,5.42,0,0,0,1.42-3.55,4,4,0,0,1,1.07-2.49,5.94,5.94,0,0,0,.36-2.48,3.86,3.86,0,0,1,1.42-3.2c1.06-1.06,1.77-1.77,1.77-2.84,0-.71,0-1.78.36-2.13a12.23,12.23,0,0,0,1.06-2.84c0-1.78,1.42-4.62,2.13-5,.36,0,.36-1.07.36-2.14a4.56,4.56,0,0,1,.71-2.84c1.77-1.77,2.13-2.48,2.13-3.19a5.37,5.37,0,0,1,1.42-2.13,5.41,5.41,0,0,0,1.42-2.85,9.42,9.42,0,0,1,1.78-3.19,5.43,5.43,0,0,0,1.42-2.13,8.07,8.07,0,0,1,1.77-3.55,17.5,17.5,0,0,0,3.55-5.33c.36-.36,1.07-1.78,1.78-2.49a47.35,47.35,0,0,0,3.2-3.91,22.79,22.79,0,0,1,3.55-3.19A8.19,8.19,0,0,0,622,111c.71-.71,1.43-1.42,1.78-1.42a3.06,3.06,0,0,0,2.13-1.06,5.7,5.7,0,0,1,3.55-1.78,9.18,9.18,0,0,0,3.2-1.42c.35-.36,1.42-.36,3.55-.36a28.19,28.19,0,0,0,3.2-.35,2.15,2.15,0,0,1,2.84-.36c0,.36,1.06.71,2.13.71,1.42,0,2.13,0,2.49.36,0,.71,1.06,1.07,2.48,1.07,2.13.35,2.84.71,3.91,2.13,1.06,1.06,2.49,2.13,3.2,2.84,1.77,1.06,2.48,1.77,4.26,4.26.71.71,1.42,1.42,1.77,1.42a7.39,7.39,0,0,1,2.85,2.49h.35a12.82,12.82,0,0,0,2.13-5.33,3.63,3.63,0,0,1,.36-1.42c.35,0,.71-.71.71-1.42,0-2.13,1.42-2.13,2.84,0,.71.71,1.42,1.42,1.77,1.06a5.46,5.46,0,0,1,1.07.71,2,2,0,0,0,1.78,1.07,12.09,12.09,0,0,1,2.13,1.06l2.48,2.49c1.07,1.07,1.42,1.78,1.42,2.49a2.41,2.41,0,0,0,1.42,2.13,11.41,11.41,0,0,0,2.13,1.77c0,10.3-4.61,19.54-8.52,28.42-3.55,7.45-5.33,15.62-7.46,23.79,0,0-6.75,19.89-7.1,23.09v.35a1.3,1.3,0,0,1-.36,1.07,3.83,3.83,0,0,0-.71,2.13c0,.71-.35,1.78-.35,2.49-.71.71-.71,2.13-.71,3.55a15.27,15.27,0,0,1-.71,3.9c-.36,1.78-.36,2.49,0,3.2a2.67,2.67,0,0,1,0,3.2c-1.07,1.06-.71,5,.35,5,.71,0,5-4.26,5-5s2.84-3.91,3.55-3.91c.35,0,1.42-1.07,2.48-2.49,1.78-3.19,3.2-4.61,4.26-5,.72-.35,1.07-1.06,1.43-2.13a6.5,6.5,0,0,1,1.06-1.42c.36,0,.71-.71,1.07-1.42a34.62,34.62,0,0,1,2.48-3.55c.71-1.07,2.84-3.55,4.26-5.69,1.42-1.77,2.49-3.55,2.85-3.9a25.78,25.78,0,0,1,2.13-2.84,19.13,19.13,0,0,1,3.19-4.26,52,52,0,0,1,3.55-4.62c1.07-1.42,2.14-2.49,2.49-2.49.71.36,1.42-.35,1.42-1.77,0-.71,0-.71.71-.36.71,1.07,1.42.36,1.07-1.06,0-1.43.71-1.78,1.42-1.07s.71.71.35,0v-.71A14.61,14.61,0,0,0,709.69,174.22Zm-53.27-46.88a23.84,23.84,0,0,1-2.14-4.26c-3.55-2.49-7.45-1.78-11,.35-8.16,5-15.27,15.27-19.88,24.15a168.48,168.48,0,0,0-10.3,23.09c-1.43,3.2-3.56,7.1-4.62,10.65-1.42,3.2-2.84,5.69-4.26,9.24-1.07,2.48-2.13,4.62-3.2,7.46-1.07,2.13-.71,3.9-1.78,6-.71,1.06-.71,4.26.36,5.32,1.07,1.42,2.84-1.06,3.2-2.13,1.06-1.06,2.13-2.84,3.19-3.55a3.94,3.94,0,0,0,1.07-2.13l1.42-2.13c4.62-6.75,5.68-8.53,5.68-9.24a.35.35,0,0,1,.36-.35c.35,0,.71-.36.71-1.07,0-.35,1.06-1.06,1.77-1.77a1.81,1.81,0,0,0,1.42-1.78,2.71,2.71,0,0,1,.71-1.77,1.3,1.3,0,0,0,.36-1.07,7.26,7.26,0,0,1,2.48-2.84c1.07-1.42,2.49-3.91,3.56-5.33a25.89,25.89,0,0,1,4.26-5.68c1.42-1.78,2.84-3.91,2.84-4.62s1.06-2.13,2.13-3.55c2.84-3.2,3.55-4.26,3.55-5s1.07-2.13,5.68-7.46a12.3,12.3,0,0,1,1.43-1.78,64.79,64.79,0,0,1,5-7.81,27.45,27.45,0,0,0,4.62-5.68c.71-.36,1.42-1.07,2.13-1.07h.71c.35-.35.35-.35.35-1.06A3.76,3.76,0,0,0,656.42,127.34Zm-36.94,68.9c0-2.13-1.42-2.13-2.13,0a7.91,7.91,0,0,1-1.07,1.78s-1.42,1.42-2.84,3.19c-1.78,2.13-2.49,3.56-2.49,4.27s-.71,1.77-2.13,3.19c-1.06,1.42-2.13,2.49-2.13,2.84s-.35.71-.71,1.07a7.2,7.2,0,0,0-1.77,3.2c0,1.42,1.77.71,3.55-1.43a18.75,18.75,0,0,0,2.13-3.55c1.42-2.48,1.77-3.55,2.84-3.9.71-.36,1.07-1.07,1.42-1.42,0-.71.36-1.07.71-1.07a3.73,3.73,0,0,0,.71-1.42,3,3,0,0,1,1.07-1.78c.71-.35.71-.71.71-2.13-.36-1.77,0-2.13,1.06-1.06C619.12,198.73,619.48,198,619.48,196.24Zm31.25-48.66c-.71-1.06-1.06-1.06-1.77,0-.36.36-1.07.71-1.42,1.07-.71.35-1.07.71-1.07,1.42a3.88,3.88,0,0,1-1.06,2.13c-.36.71-1.07,1.42-1.07,1.78s-.71.71-1.42,1.42a3.16,3.16,0,0,0-2.13,2.13,9.42,9.42,0,0,1-1.78,3.19c-.71,1.07-1.77,2.49-2.13,3.2a21.43,21.43,0,0,1-2.84,4.26,7.46,7.46,0,0,0-2.49,2.84,6.31,6.31,0,0,1-1.77,2.49c-1.07,1.42-1.42,2.13-1.07,2.49s0,.71-.71,1.77a2.93,2.93,0,0,0-1.42,2.13c-.35.36-.71.71-1.06.71-.71,0-1.42,1.07-2.13,2.14-.36.71-1.07,1.77-1.43,1.77-1.06,0-.71,1.07,0,1.42a1.12,1.12,0,0,1-.35,2.13.76.76,0,0,1-.71-.71.77.77,0,0,0-.71-.71c-.71,0-.71.71.35,2.13.71,1.07.71,1.42.36,2.13-.71,1.78-.36,2.49,1.06,1.42.36,0,.71-.71.71-1.77a4.92,4.92,0,0,1,1.78-2.84,13.76,13.76,0,0,0,1.42-1.78,15.7,15.7,0,0,1,2.13-3.19,14.54,14.54,0,0,0,2.13-3.56c0-1.06,2.13-3.9,2.84-3.9a2.5,2.5,0,0,0,1.07-1.42c.35-.71.71-2.13,1.42-2.49,1.42-1.42,2.84-3.91,2.84-4.62a12.26,12.26,0,0,1,2.13-2.84c1.07-1.42,2.13-2.84,2.13-3.55.36-.71.71-1.78,1.42-2.13s1.43-.71,1.43-1.07.71-1.06,1.42-2.13a30.66,30.66,0,0,0,1.77-2.84,4.55,4.55,0,0,1,1.42-2.49C650.73,148.29,651.09,147.94,650.73,147.58Zm-9.59,30.9c0,.71.36.71,0,1.07,0,.35-.35.71-.35,1.06V181c-.36.35-.71.71-.71,1.06v-.71C640.43,180.26,640.79,179.55,641.14,178.48Zm0,1.07a1.31,1.31,0,0,1-.35,1.06V181c-.36,0-.36,0-.71.35.35-1.06.71-1.77,1.06-2.84C641.14,179.19,641.5,179.19,641.14,179.55Zm17.05-39.07c0-1.06-.35-1.78-.71-1.78a5.62,5.62,0,0,0-2.48,2.49.76.76,0,0,1-.72.71,1.87,1.87,0,0,0-1.42.71L651.44,144c-.71.36-.71.71-.35,1.07.71,1.06,1.42.71,2.48,0l.71-.71a5.9,5.9,0,0,0,1.07-1.42c0-.36.71-.71,1.42-.71C658.19,141.9,658.19,141.55,658.19,140.48Zm0,0c0,1.07,0,1.42-1.42,1.78-.71,0-1.42.35-1.42.71a5.9,5.9,0,0,1-1.07,1.42l-.71.71c.36-.71,1.07-1.42,1.43-2.13a14,14,0,0,0,2.48-4.27C657.84,138.7,658.19,139.42,658.19,140.48Zm-.35-8.88c0-.35.35-.71.35-1.06C658.19,131.25,658.19,131.25,657.84,131.6Zm31.61,65.71c-.36-1.07-2.14-.36-2.14.71a2.66,2.66,0,0,1-.71,1.77c-.35.36-.71,1.07-.35,1.42,0,.71.35.71,1.42,0a5.89,5.89,0,0,0,.71-1.77,5.46,5.46,0,0,1,.71-1.07C689.8,198,689.8,197.66,689.45,197.31Z" transform="translate(-35.44 -26.58)"/><path class="cls-1" d="M887.27,181.32c0,.36-.36.71-.36,1.07,0,.71,0,1.07-.35.36-.71-.36-1.78.71-1.78,1.77,0,.71,0,1.07-.35,1.07a2.45,2.45,0,0,0-1.07,1.42l-1.77,1.77c-.71,0-1.07.71-1.42,1.78s-.71,1.77-1.07,1.77-1.07.71-1.42,1.78c-.71,1.07-2.13,2.49-3.2,3.91-2.48,2.48-6,6.75-7.46,8.17a2.69,2.69,0,0,0-.71,1.42c-.35.35-.35.71-.71,1.42-.35,1.42.36,2.13,1.78,1.06.71-.71.71-.71.35,0-.35,1.07-1.77,1.42-2.13.71-.71-.71-.71-.71-.71,1.07a1.94,1.94,0,0,1-1.06,1.77,10.56,10.56,0,0,0-1.42,2.14,6.25,6.25,0,0,0-1.07,1.42c-.71,0,.71-2.85,1.78-4.27,1.06-1.06,1.06-1.06.35-1.42-.71,0-1.42.36-2.48,2.13a31.27,31.27,0,0,0-3.2,3.91L856,219.33l1.43.71c1.42,1.42,1.42,1.77.35,2.13-.35,0-1.06,1.06-1.42,1.77a2.37,2.37,0,0,1-1.78,1.42c-.71,0-1.06,1.07-1.06,2.14,0,.71-1.07,1.77-2.13,3.19a5.29,5.29,0,0,0-2.13,2.49c.35.35-.36,1.42-1.42,2.13a6.27,6.27,0,0,0-1.78,2.49,4.79,4.79,0,0,1-.71,1.06,2.65,2.65,0,0,0-.36,1.78c0,1.42-1.42,4.26-2.13,3.9-.35,0-3.9,3.56-4.61,4.62-.36.71-1.07,1.07-2.49,1.42-2.49.36-4.26-.35-5-1.77-.36-1.07-.71-1.07-1.78-1.07s-1.42-.36-2.13-1.78a5.2,5.2,0,0,0-1.77-2.13c-2.14-.71-6.75-7.1-6.4-8.52.36-.36,0-1.07,0-1.07-.35,0-.71-.71-.71-1.06s0-1.07-.35-1.07a15,15,0,0,1-1.42-3.9c-.71-2.85-.36-4.62.71-5.33a.68.68,0,0,0,0-1.07c-.71-.71-.71-5,0-6a10.86,10.86,0,0,0,1.06-3.2,7.48,7.48,0,0,1,1.42-3.91,6.6,6.6,0,0,0,.71-2.84c0-.71.36-1.77.71-1.77a4.14,4.14,0,0,0,.71-2.49,4.19,4.19,0,0,1,.71-2.49c.71-.71.71-1.06,0-2.13-.71-.71-.71-1.06-.35-1.42,1.06-.71,2.48-2.84,2.13-3.2a1.31,1.31,0,0,1,.35-1.06c.36,0,.72-1.07.72-1.78a2.66,2.66,0,0,1,.71-1.77,2.71,2.71,0,0,0,.35-1.78,6.65,6.65,0,0,1,.71-2.48,6.64,6.64,0,0,0,.71-2.85,3.86,3.86,0,0,1,.71-2.13,2.66,2.66,0,0,0,.71-1.77c-.35-.36,0-1.42.36-2.13a9.19,9.19,0,0,0,.71-2.49c0-.71.35-1.42.71-1.42a1.59,1.59,0,0,0,.35-1.07,2.71,2.71,0,0,1,.71-1.77,2.65,2.65,0,0,0,.36-1.78c0-.35.35-1.06.71-1.06a1.61,1.61,0,0,0,0-1.78c0-1.06.71-4.62,1.78-5.68a3.71,3.71,0,0,0,.35-1.42,2.76,2.76,0,0,1,.71-1.78c0-.35.36-.71.36-1.42a1.26,1.26,0,0,1,.35-.71,1.82,1.82,0,0,0,.71-1.42,2.76,2.76,0,0,1,.71-1.78,2.61,2.61,0,0,0,.36-1.77,2.71,2.71,0,0,1,.71-1.78,1.23,1.23,0,0,0,.35-.71,2.76,2.76,0,0,1,.71-1.42c.36-.35.71-1.06.71-2.84s.71-3.55,2.13-6c0-.35.36-1.06.36-1.42,0-.71.35-1.06.71-1.06.35-.36.35-1.07.35-2.84a4.65,4.65,0,0,1,.71-2.85,2.67,2.67,0,0,0,.72-1.77,2.62,2.62,0,0,1,.71-1.42,2.76,2.76,0,0,0,.71-1.78c0-.71,0-1.42.35-1.42a15,15,0,0,1,.71-2.13,3.83,3.83,0,0,1,.71-2.13c.36-.71,0-.36-1.06.35-2.13,1.07-7.82,7.11-7.82,7.46a4.16,4.16,0,0,1-1.77,2.13,8,8,0,0,0-2.84,3.2c-.71,1.07-2.14,2.49-3.2,3.91-1.07,1.06-2.13,2.13-2.13,2.48a3.5,3.5,0,0,1-.36,1.42c-1.06,2.13-1.06,2.49-1.06,3.91.35,1.78-.36,2.13-1.07,1.07-.71-1.42-1.77-1.07-2.13.35a2.71,2.71,0,0,1-.71,1.78,5.89,5.89,0,0,0-.71,1.77c0,.36,0,.71-.71.36-.71,0-.71,0-.71.35a24,24,0,0,1-2.13,3.91,8.86,8.86,0,0,0-1.78,3.91c0,.35-.71,1.06-1.42,1.42-1.42.71-2.84,3.19-2.48,4.26.35.35,0,.71-.36,1.06-.36,0-1.07.72-1.42,1.43a14.59,14.59,0,0,1-1.78,3.19,5.69,5.69,0,0,0-1.77,3.55,14.65,14.65,0,0,1-1.78,3.2,5.51,5.51,0,0,0-1.06,2.13,6.42,6.42,0,0,1-2.13,3.2c-.36,0-.71.71-.71,1.42a5.22,5.22,0,0,1-.36,2.13,6.1,6.1,0,0,0-.71,1.78,2.76,2.76,0,0,1-.71,1.42c-.36.35-.36.71,0,1.42.71,1.06.71,1.42,0,2.13-.71.35-1.07,1.06-.71,1.42,0,.35,0,.71-.36.71a1.31,1.31,0,0,0-.35,1.06,2.69,2.69,0,0,1-.71,1.42,2.69,2.69,0,0,0-.71,1.42c0,1.07,0,1.07-1.07,1.07-.71,0-1.06,0-1.06.36a6.18,6.18,0,0,1-.71,1.77,3.5,3.5,0,0,0-.36,1.42c.36.36,0,1.07,0,2.13a9.19,9.19,0,0,0-.71,2.49,11.67,11.67,0,0,1-1.06,2.13,3.08,3.08,0,0,0-1.07,2.13c0,.36,0,1.07-.35,1.07-.36.35-.36,1.06-.36,2.13a5.64,5.64,0,0,1-1.07,3.19,7,7,0,0,0-1.42,2.85c0,.71,0,1.06-.35,1.42-.36,0-.71.71-.71,1.42s-.36,1.42-.71,1.42a2.66,2.66,0,0,0-.71,1.77,6.85,6.85,0,0,1-.36,2.49c-1.77,3.2-1.77,3.55-1.42,4.26.71.71.36,1.07-.35,2.49a3.83,3.83,0,0,0-1.07,2.48,2.71,2.71,0,0,1-.71,1.78c-.71.71-1.06,2.13-.71,4.26a3.88,3.88,0,0,1-1.06,2.13c-1.07,1.42-1.42,3.2-.71,3.91.35.35-3.91,5.33-4.62,5.33-.36,0-.36-.36-.71-.71,0-.36-.36-.36-.71-.36-.36.36-.71.36-1.42,0-.36-.35-1.42-.35-1.78-.35a2.61,2.61,0,0,1-1.77-.36,3.6,3.6,0,0,0-1.07-.35,2,2,0,0,1-1.78-1.07,2.42,2.42,0,0,0-1.77-1.07,5.9,5.9,0,0,1-3.2-1.77,9.8,9.8,0,0,0-2.84-1.78c-1.78,0-8.88-9.59-8.88-12.07,0-1.07-.35-1.78-.71-1.78s-.35-.71-.35-3.91a27.9,27.9,0,0,1,1.06-5,3.76,3.76,0,0,0,.71-2.13c0-1.06,0-1.42.71-1.77.71,0,.71-.36.71-1.07-.35-.71,0-1.78.71-2.84a5.75,5.75,0,0,0,1.07-3.2,4.09,4.09,0,0,1,.71-2.48,4.19,4.19,0,0,0,.71-2.49c0-.71,0-1.78.35-2.13a1.84,1.84,0,0,0,.71-1.42.76.76,0,0,1,.71-.71,7.2,7.2,0,0,0,.36-1.78,3,3,0,0,1,.71-2.13,2.61,2.61,0,0,0,.36-1.77,3.82,3.82,0,0,1,.71-2.14c.35-.71.71-1.06.71-1.77a9.2,9.2,0,0,1,1.06-2.49,9.63,9.63,0,0,0,1.07-2.84,5.89,5.89,0,0,1,.71-1.77,5.59,5.59,0,0,0,.71-2.85,4.33,4.33,0,0,1,1.06-3.19,3.08,3.08,0,0,0,1.07-2.13c0-.71.35-1.78.35-2.49.36-.71,1.07-2.13,1.42-2.84,0-1.07.71-1.78,1.07-1.78a2.1,2.1,0,0,0,.36-1.42,2.66,2.66,0,0,1,.71-1.77c.35-.36.71-1.07.35-1.42a5.46,5.46,0,0,1,1.07-2.13c1.77-1.07,1.77-2.14.71-1.07-.36,0-1.07.36-1.42,0,0-.36,1.06-4.26,1.77-5a2.12,2.12,0,0,0,.36-1.42,7.16,7.16,0,0,1,.71-2.13,21.47,21.47,0,0,0,1.77-4.27c0-.71.36-1.06.71-1.06a3.63,3.63,0,0,0,.36-1.42,4.94,4.94,0,0,1,1.77-3.91,29.23,29.23,0,0,0,.71-2.84,12.48,12.48,0,0,1,1.78-6.39,2.12,2.12,0,0,0,.36-1.42c0-.71.35-1.07.71-.71.71,1.06,1.06.35.71-2.49,0-2.13,0-2.84.71-3.2a2.67,2.67,0,0,0,.35-1.77,2.76,2.76,0,0,1,.71-1.78,2.62,2.62,0,0,0,.71-1.42,6.75,6.75,0,0,1,.71-2.49,5,5,0,0,0,.71-2.13c0-.35,0-1.06.36-1.06.35-.71.35-.71,0-.71a.35.35,0,0,0-.36.35c0,.36-.35.36-.71.36-.71,0-7.1,6.39-7.46,7.81l-2.13,2.13a12.94,12.94,0,0,0-1.77,1.42c0,.36-.71,1.07-1.07,1.78a3.22,3.22,0,0,0-1.06,1.78,1.25,1.25,0,0,1-.36.71c-.71,0-3.55,2.84-3.55,3.55,0,0-.36.71-.71,1.42-1.07,2.13-1.07,2.48-.71,3.9,0,1.07,0,1.43-.36,1.43s-1.06-.36-1.06-.71c-.36-1.07-1.42-.72-1.78.71a5.12,5.12,0,0,0-.71,2.13,2.69,2.69,0,0,0-.71,1.42c0,.71-.35.71-1.06.35-.36,0-.71,0-.71.71s-.36,1.07-.36,1.42c-.35,0-.71.71-1.06,1.07a6.05,6.05,0,0,1-1.43,2.48c-.35,1.07-1.06,2.14-.71,2.49,0,.36-.71.71-1.42,1.42-1.42.71-3.19,3.55-2.48,4.26.35.36,0,.71-3.2,5a7.2,7.2,0,0,0-2.13,3.9c-.71,2.13-2.13,4.62-2.84,4.62a1.22,1.22,0,0,1-.36.71,6.74,6.74,0,0,1-1.77,3.55,2.71,2.71,0,0,0-.71,1.78c0,.71-.36,1.06-.36,1.42a.76.76,0,0,0-.71.71,5.36,5.36,0,0,1-.35,2.13,2.26,2.26,0,0,0-.36,2.49,1.59,1.59,0,0,1,0,1.77c-.71.36-.71.71-.71,1.07,0,.71-.35,1.06-1.42,3.55a2.29,2.29,0,0,0-.71,1.77c0,.71-.36.71-1.07.71-1.06-.35-1.06,0-1.77,1.43,0,1.06-.36,2.13,0,2.48a1.41,1.41,0,0,1-.71,1.42,3.82,3.82,0,0,0-.36,1.78c.36,1.06-.35,2.48-1.42,3.55a1.42,1.42,0,0,0-.71,1.42,2.14,2.14,0,0,1-.35,1.42,6.51,6.51,0,0,0-.71,2.49c0,1.42-1.07,3.9-1.78,3.9a3.71,3.71,0,0,0-.35,1.42,2.74,2.74,0,0,1-.71,1.78,2.71,2.71,0,0,0-.71,1.78c0,.71,0,1.06-.36,1.06a2.71,2.71,0,0,0-.71,1.78,6.65,6.65,0,0,1-.71,2.48,3.5,3.5,0,0,0-.36,1.42,1.1,1.1,0,0,1-.35.71c-.71.71-1.07,2.14-.36,2.14s.36,1.06-.71,2.48a3.84,3.84,0,0,0-1.06,2.49,2.71,2.71,0,0,1-.71,1.77,4.58,4.58,0,0,0-.71,2.85c0,1.77,0,2.48-1.07,3.55-1.06,1.42-1.06,3.19-.35,3.9,0,.36-.71,1.42-2.13,3.2-2.14,2.13-2.49,2.49-2.85,1.42-.71-.35-.71-.35-1.42,0a1.31,1.31,0,0,1-1.06-.35,3.82,3.82,0,0,0-1.78-.36c-.35.36-1.42,0-1.77,0-2.84-1.42-3.2-1.78-3.2-2.13s-.71-.71-1.42-.71a4.37,4.37,0,0,1-3.2-1.42,14,14,0,0,0-1.77-1.42c-1.07,0-3.55-2.13-5.68-4.62a28.87,28.87,0,0,1-2.14-3.55c0-.36-.71-1.07-1.06-1.78a7.07,7.07,0,0,1-1.07-2.84,2.06,2.06,0,0,0-.71-1.77c-.71,0-.35-7.46.36-8.53a3.83,3.83,0,0,0,.71-2.13,2.15,2.15,0,0,1,1.06-2.13c.36-.36.71-.71.36-1.42,0-.71,0-1.07.35-1.42.71-.36,1.78-3.2,1.78-4.62,0-.71,0-1.77.36-2.13.35,0,.71-1.06.71-2.13a4.12,4.12,0,0,1,.71-2.49c.35-.35.71-.71.71-1.06a2.62,2.62,0,0,1,.71-1.42,2.17,2.17,0,0,0,.35-1.42,2.65,2.65,0,0,1,.36-1.78,5.12,5.12,0,0,0,.71-2.13,3.71,3.71,0,0,1,.71-1.78c.35-.35.35-1.42.35-2.13a2.76,2.76,0,0,1,.71-1.42,8.42,8.42,0,0,0,1.07-2.48c.35-.71,1.06-2.13,1.42-2.84a8.67,8.67,0,0,0,.71-3.2,4.35,4.35,0,0,1,1.06-3.2,5,5,0,0,0,.72-2.13,2.53,2.53,0,0,1,1.06-2.13,7.25,7.25,0,0,0,.71-2.13,3.85,3.85,0,0,1,1.07-2.49,4.68,4.68,0,0,0,1.06-2.48l.71-1.42a2.71,2.71,0,0,0,.71-1.78A2.46,2.46,0,0,1,710.4,160a2.75,2.75,0,0,0,1.06-2.48,4.19,4.19,0,0,1,.71-2.49,2.61,2.61,0,0,0,.36-1.77,20.32,20.32,0,0,1,1.42-2.13,8.13,8.13,0,0,0,1.06-3.91c0-1.07,0-2.13.36-2.13a2.71,2.71,0,0,0,.71-1.78,2.76,2.76,0,0,1,.71-1.42,1.82,1.82,0,0,0,.71-1.42,6.28,6.28,0,0,1,1.07-2.49,19.36,19.36,0,0,0,1.42-5.32,27.56,27.56,0,0,1,.35-3.55c.36,0,.36-.71.36-1.07,0-1.07,1.77-3.91,3.19-5.68a5.83,5.83,0,0,0,.71-1.78,2.35,2.35,0,0,1,.36-2.13,5.12,5.12,0,0,0,.71-2.13,1.33,1.33,0,0,1,.35-1.07c.36,0,.72-.71.72-1.06.71-1.07,1.77-1.42,2.13-.71a5.32,5.32,0,0,0,4.26,1.77,4.25,4.25,0,0,1,1.77.36c0,.35.36.35.71.35s1.07.71,1.78,1.42a3.11,3.11,0,0,0,1.78,1.43,3.23,3.23,0,0,1,1.77,1.06c.71.36,1.42,1.07,1.78,1.07s.35,0,.35.71c-.35.71,0,1.42,1.07,2.13,1.06,1.42,1.06,1.77,1.06,4.62,0,2.13-.35,3.55-.71,3.9a3.82,3.82,0,0,0-.71,1.78c0,.71-.71,1.42-1.06,2.13-1.07,1.06-1.07,1.77-1.07,3.2,0,1.06-.35,2.13-.71,2.13a1.23,1.23,0,0,0-.35.71,14.9,14.9,0,0,1-2.13,3.55c-1.07,1.77-1.78,3.19-1.78,4.26a4,4,0,0,1-1.07,2.84,5.39,5.39,0,0,0-1.06,2.49,20.82,20.82,0,0,1-1.78,5c0,.35-.35,1.07-.35,1.42-1.42,2.84-1.78,3.91-2.49,4.26s-1.06,1.07-1.06,2.84c-.36,1.42-.36,2.85-.71,2.85-.36.35-.36.71-.36,1.42a2.69,2.69,0,0,1-.71,1.42c-.35.35-.71.71-.71,1.06a6.1,6.1,0,0,1-.71,1.78,5.94,5.94,0,0,0-.36,2.48,2.62,2.62,0,0,1-.71,1.42,2.76,2.76,0,0,0-.71,1.43,2.66,2.66,0,0,1-.71,1.77,1.87,1.87,0,0,0-.71,1.42,1.33,1.33,0,0,1-.35,1.07,3.55,3.55,0,0,0-.36,1.06,2.62,2.62,0,0,1-.71,1.42c-.71.36-.71.71-.35,1.07.35.71.35.71-.36,1.42a24.19,24.19,0,0,0-1.06,2.84,3,3,0,0,1-.71,2.13,1.56,1.56,0,0,0-.36,1.07c0,.35-.35.71-.71,1.06-.35,0-.35.71-.35,2.49a3.44,3.44,0,0,1-.71,2.49c-.36,0-.71.71-.71,1.06,0,1.07-.36,1.42-1.78,4.62a7.16,7.16,0,0,0-.71,2.13,2.35,2.35,0,0,1-.36,2.13,5.55,5.55,0,0,0-.71,2.84,4.12,4.12,0,0,1-.71,2.49l-.71,1.42a3.78,3.78,0,0,1-.71,2.13,66.09,66.09,0,0,0-1.77,6.75c0,.35,0,1.06-.36,1.06s-.35.71-.35,1.07c.35,1.06.35,1.06,1.06-.36a26.74,26.74,0,0,0,1.42-3.19c.71-2.14,3.55-8.17,4.62-9.24a2.69,2.69,0,0,0,.71-1.42,3.81,3.81,0,0,1,.36-1.77,7.72,7.72,0,0,0,1.06-2.49c.36-.71.36-1.78.71-2.13,0-.36.71-1.42,1.07-2.49.71-1.06,1.42-2.84,2.13-3.9a6.21,6.21,0,0,0,1.06-2.49c.36-1.42,2.49-6.39,2.49-6.39.35,0,.35-.36.35-.71s.71-1.43,1.07-2.49c1.78-2.49,2.84-5,2.49-5.68,0-.71.35-1.42.71-1.42a2.76,2.76,0,0,0,.71-1.42,2.62,2.62,0,0,1,.71-1.42c.71-.72.71-.72,1.06,0,.36,1.06,1.07,1.06,1.42.35s0-1.07-.35-1.42-.71-.71-.71-1.07c0-.71,2.84-6.74,3.55-7.1a11.67,11.67,0,0,0,1.06-2.13,40.66,40.66,0,0,1,3.2-6,3.55,3.55,0,0,0,.36-1.06,3.71,3.71,0,0,1,.71-1.78,3.06,3.06,0,0,0,1.06-2.13c.71-1.42,1.07-2.13,2.49-1.78,1.06,0,1.06,0,.35-1.42-.35-.71-.35-1.06,0-1.42a27.06,27.06,0,0,1,1.42-2.48,15.84,15.84,0,0,1,2.13-3.56,15.44,15.44,0,0,0,2.14-3.19,18.69,18.69,0,0,1,2.48-3.91,11.28,11.28,0,0,0,1.07-2.13.76.76,0,0,1,.71-.71c1.06,0,1.06,0-.36,2.49-1.06,2.13-1.06,2.13-.35,2.13.35,0,3.19-3.91,3.19-4.62,0-.35,0-.71-.71-.71-.35,0-.35-.36-.35-.71s0-.71.35-.71l.71-.71a6.22,6.22,0,0,1,1.07-2.49,12.66,12.66,0,0,0,1.78-2.84c.71-1.06,1.77-2.13,2.13-1.42.35,0,0,.71-.36,1.07-.35.71-.71,1.42-.35,2.13.35.35.35.35,1.06-.36,1.07-1.77,1.42-2.84.71-3.19s0-2.14,1.42-3.2c1.07-1.07,1.42-1.07,1.78-.71.71.35,1.06.35,1.42,0s.71-.71.71-1.07.35-.71.71-1.06c.71-.36.71-.36,0-.71-.71-.71-.71-.71,0-1.78,1.78-2.13,3.2-4.26,3.2-5a.76.76,0,0,1,.71-.71c.71,0,.71,2.13,0,2.49s-.36,2.13.35,1.77c0,0,.71,0,.71.36.71.71.71.71,1.78-.36,1.42-1.06.71-2.13-.71-1.06-1.42.71-1.42,0,0-1.43.71-1.42,1.42-1.42,1.77-1.06s.36-.36.36-2.49c-.36-2.84,0-3.9,1.42-3.9,1.06,0,2.49-1.07,2.49-2.13,0-.36.35-.71.71-1.07a2.73,2.73,0,0,0,.71-1.42c0-.71,0-.71,1.06,0s1.78.35,1.07-.71c-.36-.36-.36-.71.71-1.07a9.14,9.14,0,0,1,2.48-.71c.36,0,.71-.35,1.07-1.06.71-2.13,1.42-2.49,3.55-2.49a8.12,8.12,0,0,1,3.91,1.07,6,6,0,0,0,3.55,1.06c1.77,0,2.13.36,2.84,1.07a2,2,0,0,0,1.78,1.06c.35,0,.71.36,1.06.71,0,.36.71.71,1.07.71.71,0,1.06,0,1.06.36a.35.35,0,0,0,.36.35c.35,0,1.42,1.07,2.48,2.14,2.13,1.77,2.13,1.77,1.42,2.48a11.07,11.07,0,0,0-.71,4.62c0,1.77,0,3.55-.35,3.91a5.74,5.74,0,0,0-1.78,3.19,2.62,2.62,0,0,1-.71,1.42,2.76,2.76,0,0,0-.71,1.42c0,.36,0,.71-.35.71a26.39,26.39,0,0,1-.36,4.27c0,2.48-.35,3.9-.71,4.26a2.71,2.71,0,0,0-.71,1.77,3.88,3.88,0,0,1-1.06,2.13,3.52,3.52,0,0,0-1.07,2.85,4.09,4.09,0,0,1-.71,2.48,1.3,1.3,0,0,0-.36,1.07c0,.35-1.06,1.77-1.77,3.19a6.82,6.82,0,0,0-1.78,4.27,3.22,3.22,0,0,1-1.06,2.48,3.08,3.08,0,0,0-1.07,2.13A6.51,6.51,0,0,1,796,159a6.65,6.65,0,0,0-.71,2.49c0,.35-.35.71-.71,1.06-.35,0-.35.36-.35.71,0,1.42-1.42,4.26-2.13,4.26-.72.36-1.07,1.07-1.07,2.84-.36,1.43-.71,3.2-1.07,3.56-.35.71-.71,1.42-.35,1.77a1.08,1.08,0,0,1-.36.71.77.77,0,0,0-.71.71,5,5,0,0,1-.71,2.13,7.57,7.57,0,0,0-.71,2.13,1.86,1.86,0,0,1-.71,1.43,2.67,2.67,0,0,0-.35,1.77c0,.71-.36,1.42-.71,1.42s-.71.71-.71,1.42c0,.36-.36,1.07-.36,1.42-.35,0-.71.36-.71,1.07a1.42,1.42,0,0,1-.71,1.42.67.67,0,0,0,0,1.06c.36.71.36.71-.35,1.78a2,2,0,0,0-.71,2.49c.35,1.42,0,1.77-.36,2.13-.35,0-.71.71-.71,1.77,0,1.78,0,1.78-.71,1.07-.71-1.07-1.07-.71-1.07.71a4.33,4.33,0,0,0,.36,1.78c.35,0,.35.35.35,1.42-.35,2.13-1.06,3.19-1.77,2.84-.36,0-.71.35-1.07,1.06a6.1,6.1,0,0,0-.71,1.78c-.35.35-.35,2.13-.35,3.55,0,2.49,0,2.84-.71,3.55A3.25,3.25,0,0,0,774,220c.36.35,0,.71-.35.71a1.06,1.06,0,0,0-.36,1.42c0,.71,0,1.06-.35,1.42a26.33,26.33,0,0,0-2.49,7.46,3.71,3.71,0,0,1-.35,1.42.68.68,0,0,0-.36,1.06c0,1.07,0,1.07,1.07-.35.35-1.07,1.06-2.13,1.06-2.49a19.64,19.64,0,0,1,2.49-6,12.09,12.09,0,0,1,1.06-2.13,7.6,7.6,0,0,1,1.07-1.77,2.76,2.76,0,0,0,.71-1.42,2.71,2.71,0,0,1,.71-1.78,5.12,5.12,0,0,0,.71-2.13,7.16,7.16,0,0,1,.71-2.13c.35-.36.71-1.78,1.42-2.84.36-1.07.71-2.13,1.07-2.13a16.31,16.31,0,0,0,2.13-5.33c.35-1.42,1.06-2.49,1.06-2.84.36,0,.36-.71.71-1.42,0-.71.36-1.42.71-1.42a1.25,1.25,0,0,0,.36-.71,1.33,1.33,0,0,1,.35-1.07c1.07-1.06,3.2-5.68,3.2-6.75a2.67,2.67,0,0,1,.35-1.77c.71-.36.71-.71.71-1.07a1.93,1.93,0,0,1,1.07-1.42c.71-.71.71-.71,1.07,0,0,1.07.71,1.07,1.06,0,.36-.35,0-.71-.35-1.06-.36,0-.71-.71-.71-1.07,0-1.07,3.19-7.1,4.26-8.17.35-.35.71-.71.71-1.06a23.2,23.2,0,0,1,2.84-6c.35-.36.35-.71.35-1.42a3.25,3.25,0,0,1,1.07-1.78,3,3,0,0,0,1.07-2.13c.35-1.42,1.06-2.13,2.13-1.42.71.71,1.06,0,.35-1.42-.35-.71-.35-1.07,0-1.42.71-.36,2.49-3.91,2.49-4.62,0-.35.35-.71,1.06-1.06a8.6,8.6,0,0,0,2.13-3.56,18.58,18.58,0,0,1,2.49-3.9,5.6,5.6,0,0,0,1.07-2.13c0-.36.35-.71,1.06-.71s.71,0-.35,2.13-1.42,2.48-.71,2.48,3.55-3.9,3.55-4.61-.36-1.07-.71-1.07-.71,0-.71-.35a1.23,1.23,0,0,1,.35-.71.76.76,0,0,0,.71-.72c0-.35,0-.71.36-.71a4.46,4.46,0,0,0,.71-1.06c.35-1.07,2.48-4.62,3.19-5,1.07-.71,1.42,0,.71,1.06-.71.71-1.06,2.49-.35,2.49a8.18,8.18,0,0,0,1.42-1.78c.71-1.42.71-1.77.36-2.13-.72-.35,0-2.13,1.42-3.55,1.06-.71,1.06-.71,1.77-.36.71.72.71.36,1.42,0a3.5,3.5,0,0,0,.36-1.42.76.76,0,0,1,.71-.71c1.06,0,1.06-.71,0-1.06-.71-.36-.71-.71.71-2.13,1.42-1.78,2.48-3.55,2.48-4.26a.77.77,0,0,1,.72-.72c.71,0,.71,1.07,0,2.49s-.72,1.78,0,1.78c.35,0,.71,0,.71-.36l1.42-2.13c1.06-1.42,1.42-1.78,1.77-1.42s.71.36.36-.71a5.21,5.21,0,0,0-.36-2.49c-.35-.71.71-2.84,1.78-2.84s2.84-1.42,2.84-2.13c0-.35,1.06-2.84,1.42-2.84a1.76,1.76,0,0,1,1.07.36c1.06.71,1.77.35,1.06-.71-.71-.36-.35-.72.71-1.43a4.56,4.56,0,0,1,2.13-.35c.36,0,1.07-1.07,1.78-1.78,1.06-1.77,1.06-1.77,3.19-1.77,1.42,0,2.49,0,2.49.35.36.71,3.2,1.78,4.62,1.78a5.45,5.45,0,0,1,2.84.71,2.34,2.34,0,0,0,1.77,1.42,2.76,2.76,0,0,0,1.42.71,7.91,7.91,0,0,0,1.78,1.07,15.82,15.82,0,0,1,3.2,2.48c1.77,1.42,1.77,1.78,1.42,2.49-.36.35-.71,1.77-.71,4.26a22,22,0,0,1-.36,3.91,8.35,8.35,0,0,0-1.77,3.55,2.76,2.76,0,0,1-.71,1.42c-.36.35-.71.71-.71,1.06a2.44,2.44,0,0,1-1.07,1.78,3.25,3.25,0,0,0-1.07,1.78,2.69,2.69,0,0,1-.71,1.42,6.18,6.18,0,0,0-.71,1.77c0,.71-.35,1.42-.71,1.42a2.71,2.71,0,0,0-.35,1.78,3.55,3.55,0,0,1-.36,1.06c-.35.36-.71,1.78-1.42,2.85-1.06,3.19-1.77,5.32-2.48,5.68a.76.76,0,0,0-.71.71,2.12,2.12,0,0,1-.36,1.42c-.35,0-.71,1.42-.71,2.84a9.83,9.83,0,0,1-1.06,4.62,8.19,8.19,0,0,0-1.07,3.19,3.76,3.76,0,0,1-.71,2.13,3.82,3.82,0,0,0-.71,2.14,3.54,3.54,0,0,1-1.42,1.77c-1.42.71-2.13,2.84-1.07,2.84.71,0,0,1.42-.71,1.42-2.13,0-2.48,0-2.48.36s.35.71,1.06,1.06c1.07.36,1.07.71,1.07,2.14a1.64,1.64,0,0,1-1.07,1.77c-1.06,0-1.42,1.07-1.42,3.91,0,3.19,0,3.55-.71,3.55s-2.48,2.49-2.48,3.55c0,.71,0,1.78-.36,2.13l-.71,1.42c.36.36,0,1.78-.36,2.84-.71,1.78-.71,2.49-.35,2.85s0,.71-.36,1.06c-.71.36-1.42,3.2-.71,3.2s.36,1.42-.35,1.77-1.07.71-.71,1.78a2.65,2.65,0,0,1-.36,1.78,14,14,0,0,1-.71,2.48c-.35,2.84-.71,3.91-1.77,3.91a15.93,15.93,0,0,0-1.78.35c-.71.71-1.06,1.78-.35,1.78s0,5.33-1.07,7.46c-1.42,2.48-2.13,6.39-1.06,5a1.41,1.41,0,0,1,1.42-.71,2.65,2.65,0,0,0,1.06-1.07c.36-.71,2.13-2.48,4.26-5,.36-.35,1.07-1.06,1.07-1.42a28.77,28.77,0,0,1,2.49-2.84,44.23,44.23,0,0,0,3.9-4.26,4.18,4.18,0,0,1,2.13-1.78,2.48,2.48,0,0,0,.71-1.42c.36-1.42.71-1.42,1.42-1.42,1.07,0,1.42-.35,2.85-1.78.71-1.42,2.48-3.19,3.55-4.61a22.79,22.79,0,0,0,3.19-3.55c.71-.71,1.42-1.43,1.78-1.78a1.13,1.13,0,0,0,1.06-1.07,4.18,4.18,0,0,1,1.78-2.13c.71-.71,1.78-1.77,1.78-2.13.35-.71,3.19-3.9,3.9-3.9a1.25,1.25,0,0,0,.36-.71c0-.71,3.19-3.91,3.55-3.2a5.25,5.25,0,0,1-1.07,1.77,12.61,12.61,0,0,0-2.84,3.2,19.42,19.42,0,0,1-2.13,2.84c-.71.71-1.06,1.42-.71,1.78.71.35,1.07,0,2.13-1.78.36-.71,1.07-1.77,1.78-1.77.35-.36,1.06-.71,1.06-1.07a.77.77,0,0,1,.71-.71c.71,0,1.07,0,1.07-.35s.71-1.07,1.42-2.14a14,14,0,0,0,1.42-1.77c0-.36.71-1.07,1.42-1.78a4.83,4.83,0,0,0,1.07-1.42A12.07,12.07,0,0,0,887.27,181.32Zm-190.72,33c-1.07-.35-2.49,1.78-2.49,3.91a4.12,4.12,0,0,1-.71,2.49c-.35.71-.71,4.61-.35,4.61s.71-.35,1.42-.71a5.18,5.18,0,0,0,.71-2.48,6.6,6.6,0,0,1,.71-2.84C696.55,217.91,696.9,214.71,696.55,214.35Zm7.1-19.17a3.89,3.89,0,0,1,.71-2.14,1.82,1.82,0,0,0,.71-1.42,2.29,2.29,0,0,1,.71-1.77,2.12,2.12,0,0,0,.36-1.42c0-.71.35-1.07.35-1.78,1.78-3.19,2.84-5.68,2.84-6.75a22.72,22.72,0,0,1,1.42-3.19c.36-1.42,1.07-3.2,1.42-4.26a4.17,4.17,0,0,1,.71-2.49,3.63,3.63,0,0,0,.36-1.42,7,7,0,0,1,1.42-2.84,7.66,7.66,0,0,0,1.07-2.49,7.11,7.11,0,0,1,1.06-2.84,7.17,7.17,0,0,0,1.07-2.84c0-.36.35-.71.71-1.07.71-.35,1.06-3.9.35-3.9s-1.42,1.06-1.42,2.13a1.55,1.55,0,0,1-.35,1.06c-.36,0-.71,0-.71.36a9.73,9.73,0,0,1-1.07,2.84c-.36,1.06-1.07,2.49-1.07,2.84a19,19,0,0,1-1.42,2.84c-.35,1.07-1.06,2.49-1.06,2.84a29.07,29.07,0,0,1-1.42,3.91,58.07,58.07,0,0,0-2.13,5.68,30.34,30.34,0,0,1-2.13,5,7.15,7.15,0,0,0-1.07,2.85,5.89,5.89,0,0,1-.71,1.77,8.8,8.8,0,0,0-1.42,3.55,9,9,0,0,1-1.07,2.49c-.35,0-.35.35-.35,1.06,0,1.07-3.55,12.79-4.26,14.21a4.12,4.12,0,0,0-.71,2.49,3.63,3.63,0,0,1-.36,1.42c-.35.35.36,1.42.71,1.42a6.75,6.75,0,0,0,1.07-1.42,4.7,4.7,0,0,0,1.06-2.49c0-.71,0-1.77.36-2.13a6.18,6.18,0,0,0,.71-1.77c0-.36.71-1.78,1.06-2.85a13.25,13.25,0,0,0,1.42-3.9c0-1.07.36-1.78.71-1.78A2.61,2.61,0,0,0,703.65,195.18Zm-5,27a3.53,3.53,0,0,0-.36-1.07c0-.35,0-.35-.35-.35a1.52,1.52,0,0,0-.36,1.06c0,1.07.36,1.42.71,1.42S699,222.88,698.68,222.17Zm1.42-4.26c0-.71-.36-.71-1.07,0s-.35,1.77.71,1.06A1.28,1.28,0,0,0,700.1,217.91Zm1.06-3.2c0-.71-.35-.71-.71-.71-.71,0-1.42.35-1.06,1.42C699.74,216.13,700.81,215.78,701.16,214.71Zm.71-4.26c0-.36,0-1.07-.35-1.07s-1.07,1.78-.71,2.13C701.16,212.22,701.87,211.51,701.87,210.45Zm.71-3.91c-.35,0-.71.36-.71,1.07,0,1.06,1.07,1.42,1.42.35S703.29,206.54,702.58,206.54Zm2.85-5-.36-1.42-.71,1.77a17.86,17.86,0,0,0-.71,1.78c0,.36.71.36,1.42-.36A14.85,14.85,0,0,0,705.43,201.57Zm1.42-3.91a8.38,8.38,0,0,1,.71-3.19c1.06-1.43,1.06-2.14,0-2.14-.71,0-2.13,3.2-2.13,5.33C705.43,200.15,706.49,200.15,706.85,197.66Zm2.13-6h-.71c-.36-.71.35-1.42.71-.71C709.33,190.91,709.33,191.27,709,191.62Zm22.37.36a.78.78,0,0,0-1.06-1.07c-.71.36-.36,1.78.35,1.78A.76.76,0,0,0,731.35,192Zm.36-6.39c0-.71-.36-1.07-.71-1.07-.71,0-1.07,1.07-1.07,2.13S731.35,187,731.71,185.59Zm2.84-7.11c0,.36-.36.36-.36,0-.35-.35.36-1.06.71-.71A1.1,1.1,0,0,1,734.55,178.48Zm5-2.48c0-.36-.35-.36-1.06-.36s-1.07.71-1.78,2.13c-.36,1.42-.71,2.49-.71,2.49l1.77-1.78C738.46,177.42,739.52,176.35,739.52,176Zm3.2-9.59c-.71,0-2.49,2.84-2.49,3.9,0,.36,0,1.07-.35,1.07-.71.36-.71,1.42,0,1.42h1.06l.71-.71a2.11,2.11,0,0,1,.36-1.42C743.07,169.6,743.43,166.41,742.72,166.41Zm-1.78-.36c.36,0,.71-.71,1.07-1.42a18.12,18.12,0,0,0,.71-1.77c0-.36-.36,0-1.07,1.06C740.23,165.34,739.88,166.05,740.94,166.05Zm10.3-14.56c-.35,0-1.77,2.13-2.84,4.26,0,.36-.71,1.07-1.07,1.78a3.88,3.88,0,0,0-1.06,2.13,5.53,5.53,0,0,1-1.07,2.13c-1.42,2.84-1.42,3.91,0,2.49a2.81,2.81,0,0,0,1.07-1.42c0-.36,0-.71.35-.71L748,160a10.19,10.19,0,0,1,1.78-2.84,5.89,5.89,0,0,0,.71-1.77,2.69,2.69,0,0,1,.71-1.42C752,153.27,752,151.49,751.24,151.49Zm-5.68,5.68c0,.36,1.42-1.06,1.77-2.13.71-1.42.71-2.13,0-1.77-.35.35-.71.71-.71,1.06a5.83,5.83,0,0,1-.71,1.78C745.91,156.46,745.56,156.82,745.56,157.17Zm3.2-5.68a1.23,1.23,0,0,0,.35.71h.71v-1.06c.36-.36.36-.71-.35-.71C749.11,150.43,748.76,150.78,748.76,151.49Zm8.87-8.88c-.35-.71-1.06-.35-2.13,2.13-1.77,2.84-3.19,3.91-3.55,3.2-.71-1.07-1.06.35-.35,1.42.71,1.42,1.42,1.42,2.48,0,.36-.36,1.07-1.42,1.42-1.78C757.63,144,758,143,757.63,142.61Zm-.35,77.78c-1.42.71-2.49,2.49-2.49,5a4.27,4.27,0,0,0,.36,1.78,4.79,4.79,0,0,0,1.06-.71c.71-.71.71-1.42.71-2.84a4.19,4.19,0,0,1,.71-2.49C758.7,220,758.35,219.68,757.28,220.39Zm-.71-1.77c-.36.35-.36,0-.36-.36s0-.71.36-.71.35.36.35.71A.35.35,0,0,1,756.57,218.62Zm9.94-89.15c-2.48,2.84-3.9,4.26-3.9,4.62a5.25,5.25,0,0,1-1.07,1.77c-1.06,1.42-1.42,1.42-1.42.36-.35-1.42-1.06-1.42-1.77,0-.72,1.06-.72,1.42-.36,1.77h1.07c.71-.71.71.36,0,1.43-.71.71-1.43,2.48-.71,2.48a4.79,4.79,0,0,0,1.06-.71c.36-.35.71-.71.71-1.06l.71-.71c.71,0,1.07-.72,1.07-1.43l1.06-2.13c2.13-2.13,4.62-5.32,5-6.39S767.58,128.41,766.51,129.47Zm-5.68,94.47c-.71-2.13-1.06-2.13-1.42,0-.35.71,0,1.07.71,1.07S760.83,225,760.83,223.94Zm5-27.7c0-.71,0-1.42.36-1.42a15.86,15.86,0,0,0,1.06-2.84c1.78-5,2.14-5.68,2.49-6a7.6,7.6,0,0,0,.36-2.13c0-1.06,0-1.42.35-.71.36,1.07.71,0,.71-2.13-.35-1.42,0-1.42.71-1.42.36,0,.71-.36.36-2.13-.36-1.42,0-1.78.35-1.07,1.07.71,1.42,0,1.07-2.13-.36-1.06,0-1.77.35-1.77a2.71,2.71,0,0,0,.71-1.78c0-1.07.36-1.78.71-1.78.71,0,.71-.71,0-1.42s-.71-.35-1.42.71a15,15,0,0,0-.71,2.13,10.36,10.36,0,0,1-1.06,3.2,26.74,26.74,0,0,0-2.13,5.68,22.11,22.11,0,0,1-1.43,3.56l-1.42,3.55c-.71,1.77-1.42,3.55-1.77,4.26a3.81,3.81,0,0,0-.36,1.77,3.58,3.58,0,0,1-.35,1.42c-.36.72-.71,2.14-1.07,2.85a3,3,0,0,1-.71,2.13,2.69,2.69,0,0,0-.71,1.42,3.68,3.68,0,0,1-.71,1.77,11.14,11.14,0,0,0-.35,3.56c0,1.77,0,2.13-.71,1.77-.36-.71-.36-.35-.36,1.78,0,1.42,0,3.19-.35,3.55-.36,1.06-.36,1.06.35.35a2.66,2.66,0,0,0,.71-1.77,3.83,3.83,0,0,1,.71-2.13,7.25,7.25,0,0,0,.71-2.13,6.79,6.79,0,0,1,1.07-3.2,7.11,7.11,0,0,0,1.06-2.84,6.1,6.1,0,0,1,.71-1.78A6.6,6.6,0,0,0,765.8,196.24Zm-3.55,23.44c0-1.06-.71-.71-1.42,0s0,1.78.71,1.07C761.9,220.39,762.25,220,762.25,219.68Zm-.35-3.9c-.71.71-.36,1.77.35,1.77a.76.76,0,0,0,.71-.71C763.32,216.13,762.25,215.06,761.9,215.78Zm2.13-3.56c0-1.06-.71-1.42-1.07-.35-.35.71,0,2.13.36,1.77A1.85,1.85,0,0,0,764,212.22Zm1.06-3.19c0-.36,0-.71-.35-.71-.71,0-.71.35-.71,1.06C764,210.8,765.09,210.45,765.09,209Zm2.13-5.33c0-1.42-.71-1.78-.71-.71a6.1,6.1,0,0,0-.71,1.78c-.35.71,0,1.06.71.35A1.82,1.82,0,0,0,767.22,203.7Zm-1.06-75.65c-.36,0-.36,0-.36-.36s0-.35.36-.35h.35C766.51,127.69,766.16,127.69,766.16,128.05Zm3.55,68.19c.71-1.42.36-2.13-.35-2.13s-2.14,3.55-2.14,5.33c0,2.48,1.07,2.48,1.42,0C769,198.37,769.36,197,769.71,196.24Zm2.49-73.52c-.71,0-3.2,2.49-3.2,3.2,0,1.06.71,1.06,1.78-.36C772.2,124.5,772.91,122.37,772.2,122.72Zm-1.78,70.68c-.71,0-.35-.71.36-1.07.35,0,.35,0,.35.71A1.08,1.08,0,0,1,770.42,193.4Zm2.84-34.1a.66.66,0,0,1-1.06,0c0-.71.71-1.42,1.06-.71Zm2.13-44a1.23,1.23,0,0,0,.71-.35.76.76,0,0,0-.71-.71.76.76,0,0,0-.71.71A1.26,1.26,0,0,0,775.39,115.26Zm0,51.15s-.35,0-.35-.71a1.23,1.23,0,0,1,.35-.71c.36,0,.71,0,.71.35S775.75,166.05,775.39,166.41Zm1.07-3.55c-.36,0-.36,0,0-.36l.71-.71v.71C777.17,162.86,776.81,162.86,776.46,162.86Zm.35,4.26c-.35,0-.35,0-.35-.71,0-.36,0-.71.35-.71s.36.35.36.71C777.17,166.41,777.17,167.12,776.81,167.12Zm.71,43.68a.76.76,0,0,0,.71-.71c0-.35-.35-.35-.71-.35a1.23,1.23,0,0,0-.35.71Zm.36-50.08c.35,0,.71-.35.71-1.06s0-.71-.71,0S777.17,161.08,777.88,160.72Zm3.91-49c.35-1.06-1.07-1.77-1.42-.71a2.65,2.65,0,0,0-.36,1.78c0,1.06,0,1.42.71.71A2,2,0,0,0,781.79,111.71Zm-.71,26.64a1.33,1.33,0,0,0,.35-1.07c0-1.06-.35-1.42-1.06-.71A1.46,1.46,0,0,0,781.08,138.35Zm-.36,17.05c-.35,0-.35-.36-.35-.71a.36.36,0,1,1,.71,0C781.08,155,781.08,155.4,780.72,155.4Zm3.91-30.19c-.36.35-.36.35-.36,0s0-.36.36-.36H785A.35.35,0,0,1,784.63,125.21Zm3.19-8.17a1.26,1.26,0,0,1-.35-.71,1.22,1.22,0,0,1,.71-.36c.35,0,.71.36.35.36A.76.76,0,0,1,787.82,117Zm4.62,69.61c-.71,1.07-.71,2.13,0,2.13.36,0,.71-.35,1.07-.71C793.86,186.65,792.8,185.59,792.44,186.65Zm.71,6.75c0-.36-.35-1.07-.71-1.07a3.6,3.6,0,0,0-.35,1.07c-.36.71,0,1.07.35,1.07C793.15,194.47,793.15,194.11,793.15,193.4Zm-.35-77.07c0,.35.35.71,1.06.71s1.07-.36,1.07-.71a1.56,1.56,0,0,0-1.07-.36A1.52,1.52,0,0,0,792.8,116.33Zm3.55,64.28c-.71,0-.71-.71,0-1.06a.34.34,0,0,1,.35.35A1.23,1.23,0,0,1,796.35,180.61Zm1.06-62.86c-.35,0,0-.36,0-.71.36,0,.36,0,.36.35C797.77,118.46,797.77,118.46,797.41,117.75Zm3.91,60c0-.71-1.42-.71-2.13,0a15.54,15.54,0,0,0-.36,1.78c-.35.35-.35,1.42-.71,1.77s.36,0,1.42-1.06A6.34,6.34,0,0,0,801.32,177.77Zm3.2-9.59c-.36,0-.71.36-1.07,1.07a2.69,2.69,0,0,1-.71,1.42c-.36,0-.36.71-.36,1.07,0,.71-.35,1.42-.71,1.42a1.23,1.23,0,0,0-.35.71c0,.71.71,1.06,1.42.35,1.07-.35,2.13-2.84,2.13-4.62C805.23,168.54,805.23,168.18,804.52,168.18Zm-1.78-.35c.36,0,.71-.36,1.07-1.07,0-.35,0-.71-.36-.71h-.71a1.3,1.3,0,0,1-.36,1.07C802.38,167.47,802.38,167.83,802.74,167.83Zm1.78-2.49h-.71a.76.76,0,0,1,.71-.71l.35.36ZM813,153.27c0,.35-.36.71-.71,1.06s-1.07,2.13-2.13,3.55a20.12,20.12,0,0,0-2.49,4.62,7.63,7.63,0,0,0-1.06,2.49,2.62,2.62,0,0,0-.71,1.42c0,.35.35.35,1.42-.36a6.18,6.18,0,0,0,.71-1.77,1.22,1.22,0,0,1,.71-.36,1.23,1.23,0,0,0,.35-.71,1.87,1.87,0,0,1,.71-1.42c.36-.35.71-.71.71-1.07a3.27,3.27,0,0,1,1.07-1.77,12.09,12.09,0,0,0,1.06-2.13c0-.36,0-.71.71-1.07C813.75,155,813.75,153.27,813,153.27Zm-5.68,5.32c0,.71,1.42-.71,2.13-2.13.71-1.77.71-1.77-.36-1.06a1.59,1.59,0,0,0-1.06,1.42,2.12,2.12,0,0,1-.36,1.42Zm3.55-4.61c-.36,0-.36-.36-.36-.71a1.22,1.22,0,0,1,.36-.71c0-.36.35-.36.71-.36s.35.36.35.71a1.23,1.23,0,0,1-.35.71C811.62,154,811.26,154,810.91,154Zm8.17-9.95c-.36,0-1.07,1.07-1.78,2.49-1.77,2.84-2.84,3.91-3.55,3.19-.71-.35-.71-.35-.71,0,0,1.07.71,2.49,1.42,2.49a3.22,3.22,0,0,0,1.78-1.06,6.69,6.69,0,0,1,1.06-1.43,3.94,3.94,0,0,1,1.07-2.13C819.43,145.81,819.79,144,819.08,144Zm.71,84.53a1.22,1.22,0,0,1-.36-.71,1.25,1.25,0,0,1,.36-.71c.35,0,.35.36.35.71S820.14,228.56,819.79,228.56Zm9.94-97.31c0-1.07-.35-1.07-2.13,1.06a23.15,23.15,0,0,0-3.55,4.62c-1.78,2.13-1.78,2.13-2.13,1.06-.36-1.42-1.07-1.42-1.78,0-1.06,1.78-.71,1.78.36,1.78,1.42-.35,1.42,0,.35,1.42-1.42,2.13-1.06,3.2.36,1.78.71-.36.71-.71.71-1.07s.35-.35,1.06-.71c.36,0,.71-.71,1.07-1.42,0-1.07,1.42-2.84,4.26-6A4.43,4.43,0,0,0,829.73,131.25Zm-6.39,79.91c-1.07-1.07-1.42-.36-1.42,2.48,0,1.78,0,2.85-.71,2.85-.36.35-.36.35-.36.71,0,.71,1.78.71,1.78,0a10.36,10.36,0,0,1,1.06-3.2C824.05,211.51,824.05,211.51,823.34,211.16Zm.35-7.1c-.35,0-.35-.36-.35-.72a1.23,1.23,0,0,1,.71-.35.34.34,0,0,1,.35.35A.76.76,0,0,1,823.69,204.06Zm0,2.84a1.26,1.26,0,0,1-.35-.71,1.59,1.59,0,0,1,.35-1.07c.36,0,.36.36.36,1.07C824.05,206.54,824.05,206.9,823.69,206.9Zm0,25.57a1.26,1.26,0,0,1-.35-.71l.35-.36a.35.35,0,0,1,.36.36C824.05,232.11,824.05,232.47,823.69,232.47Zm2.14,1.06a.36.36,0,1,1,0-.71c.35,0,.35,0,.35.36S826.18,233.53,825.83,233.53Zm.71-35.51c.71-.36,1.06-.71,1.42-.71s.71,0,.71-.36a1.26,1.26,0,0,0-.71-.35,2.1,2.1,0,0,1-1.42-.36c-.36,0-.71,0-.71,1.07C825.83,198.73,825.83,198.73,826.54,198ZM828,208.67c-.36-.35-.36-.35-1.07,0-.35.71-1.06,3.2-.71,3.55.71.71,1.07.36,1.78-1.42C828.31,209.38,828.67,209,828,208.67Zm-1.07-14.92c0,1.07,0,1.43.71,1.78,1.07,0,1.78-.71,1.07-1.06-.36,0-.71-.72-.71-1.43C827.6,191.62,826.89,192,826.89,193.75Zm.71-63.92c-.35,0-.35-.36,0-.71.36,0,.36,0,.36.35S828,129.83,827.6,129.83Zm1.07,74.23c-.71,0-.71.35-1.07,1.42,0,1.42.36,1.42,1.42,0S830.09,203.7,828.67,204.06Zm0-13.86c-.71,0-.71-.71,0-1.06,0-.36.35,0,.35.35A1.23,1.23,0,0,1,828.67,190.2Zm.71,12.79c-.36,0-.36-.36-.36-.71s0-.36.36-.36.35,0,.35.36A1.12,1.12,0,0,1,829.38,203Zm.35-17.05a1.55,1.55,0,0,1-.35-1.06,1.23,1.23,0,0,1,.35-.71c.36,0,.36.35.36.71C830.09,185.59,830.09,185.94,829.73,185.94Zm1.42,13.85c0-.71-.35-1.06-.71-1.06-.71,0-1.06,1.77-.35,2.13C830.44,201.57,831.15,200.86,831.15,199.79Zm1.42-7.1c-.35-.71-1.42-.36-1.42,1.06a7.21,7.21,0,0,1-.71,2.14c-.35.71,0,1.06.36,1.77.71.71,1.06.36,1.42-2.13A10.13,10.13,0,0,0,832.57,192.69ZM831.15,182l.71-.71c.36-.35.71-.71,1.07-.71s.71-.35,1.06-1.06c0-.71.36-1.78.36-2.13a3.71,3.71,0,0,0,.71-1.78c.36-.71.71-1.77,1.07-2.48a7.06,7.06,0,0,0,.35-2.49,4.39,4.39,0,0,1,.71-2.49,7.16,7.16,0,0,0,.71-2.13c0-.35.36-1.06,1.42-3.19A5.49,5.49,0,0,0,840,160a21.91,21.91,0,0,1,2.49-6.74c.35-.71.35-1.07-.36-1.78s-.71-.35-1.77,1.42a10.93,10.93,0,0,0-1.42,3.2,12,12,0,0,1-1.42,3.55,10.34,10.34,0,0,0-1.07,3.55,20.41,20.41,0,0,1-.35,2.49,8.61,8.61,0,0,0-2.14,4.61,5.08,5.08,0,0,1-.71,2.49c0,.36-.35,1.42-.35,1.78a3.86,3.86,0,0,1-.71,2.13,6.47,6.47,0,0,0-.71,2.48,15.54,15.54,0,0,1-.36,1.78C830.44,181.32,830.44,182,831.15,182Zm-.35,6.4v-.71c0-.36,0-.71.35-.71a.49.49,0,0,1,0,.71A1.26,1.26,0,0,1,830.8,188.43Zm3.55-64.29c-1.07,0-3.2,2.49-3.2,3.55s.36,1.07,1.78-.35C834,126.27,834.71,124.14,834.35,124.14ZM832.22,237.8c-.36,0-.71-.71-.71-1.07.35-.36,1.42.36,1.42.71S832.57,237.8,832.22,237.8Zm0-54c-.36,0-.71-.35-.36-.71l.36-.35a1.26,1.26,0,0,1,.71.35A.76.76,0,0,1,832.22,183.81Zm.35,4.26c-.35.36-.35,2.13.36,2.13.71.36,1.06.36,1.42,0C834.71,189.49,833.28,187.72,832.57,188.07Zm2.14-2.48c.71,0,1.06-.36,1.06-1.42s0-1.42-.71-1.42a2.09,2.09,0,0,0-.71,1.77C834,185.59,834.35,185.94,834.71,185.59Zm1.77-6.4c-.71.36-1.06.71-.71,1.07.36.71.71.35,1.42-.36C838.26,178.84,837.9,178.84,836.48,179.19Zm7.1-19.18c-.71,0-2.13,1.43-2.48,2.85a32,32,0,0,1-1.07,3.55,7,7,0,0,0-1.06,2.84c0,.35-.71,1.77-1.07,2.84a11.23,11.23,0,0,0-.71,2.84,2,2,0,0,1-.71,1.78c-1.06,1.06-1.06,2.13.36,1.42.35-.36,1.42-.71,1.77-1.42a2.71,2.71,0,0,0,.71-1.78,6.72,6.72,0,0,1,1.07-3.19,19.46,19.46,0,0,0,1.42-2.85,15.49,15.49,0,0,1,1.42-6.39C843.94,161.44,844.29,160,843.58,160Zm-5.32-40.13c-1.07,0-2.49,1.07-2.49,1.78,0,1.06.71,1.06,1.78.35C838.26,121.3,838.61,119.88,838.26,119.88ZM837.19,117c.71,0,.71-.36.71-.36l-.71-.71a.77.77,0,0,0-.71.71A1.25,1.25,0,0,0,837.19,117Zm2.49,95.18c.71-.35.71-1.06,0-1.06-.36,0-.36.35-.36.71S839.32,212.58,839.68,212.22Zm1.77-62.51c.71.72,2.13.36,2.13-.35.36-1.07,0-2.13-.35-2.13C842.52,147.23,841.45,149.36,841.45,149.71Zm2.49-36.22c0-.71-.36-1.07-.71-1.07-1.07-.35-1.78,1.42-1.42,2.49,0,.71.35.71,1.06.35A3,3,0,0,0,843.94,113.49Zm0,43.33a.76.76,0,0,0-.71.71.76.76,0,0,0,.71.71c.35,0,.35-.36.35-.71S844.29,156.82,843.94,156.82Zm.35-2.49c0,.71,1.07.71,1.78,0s.71-2.13,0-2.13A5.3,5.3,0,0,0,844.29,154.33Zm37.65,25.93a1.31,1.31,0,0,0-.35,1.06,2.74,2.74,0,0,1-.71,1.78,2.71,2.71,0,0,0-.71,1.78c0,.35-.36,1.06-.71,1.06a.77.77,0,0,0-.72.71c-1.06,2.49,1.07.71,2.85-2.48S883.36,179.19,881.94,180.26Z" transform="translate(-35.44 -26.58)"/><path class="cls-2" d="M117,247.45a.78.78,0,0,1,0,1.56H38.22a.78.78,0,0,1,0-1.56,2.81,2.81,0,0,0,2.21-1,4.9,4.9,0,0,0,1.17-2.34V70.91A11.47,11.47,0,0,0,41,69.35a2.55,2.55,0,0,0-1.17-1.17,3.46,3.46,0,0,0-1.56-.39.78.78,0,0,1,0-1.56H59.54c.35,0,.52.26.52.78s-.17.78-.52.78a3.37,3.37,0,0,0-2.47.91,3.33,3.33,0,0,0-.91,2.47V247.45h57.72l3.12-3.38Z" transform="translate(-35.44 -26.58)"/><path class="cls-2" d="M178.88,67.53a3.37,3.37,0,0,0-2.47.91,3.33,3.33,0,0,0-.91,2.47v172.9a3.43,3.43,0,0,0,.91,2.34,3.1,3.1,0,0,0,2.47,1,.78.78,0,0,1,0,1.56H157.56a.78.78,0,0,1,0-1.56,3.2,3.2,0,0,0,2.34-1,3.23,3.23,0,0,0,1-2.34V70.91a3.13,3.13,0,0,0-1-2.47,3.48,3.48,0,0,0-2.34-.91.78.78,0,0,1,0-1.56h21.32a.78.78,0,0,1,0,1.56Z" transform="translate(-35.44 -26.58)"/><path class="cls-2" d="M295.88,66a.78.78,0,0,1,0,1.56,3.88,3.88,0,0,0-3.9,2.86l-.26,1v.26l-29.9,144.56L255.06,248v.52h-.52a.23.23,0,0,1-.26.26v-.26h-.52V248L217.36,72a8.63,8.63,0,0,0-1.82-3,3.66,3.66,0,0,0-2.6-1.43.78.78,0,0,1,0-1.56h21.32a.78.78,0,0,1,0,1.56q-2.34,0-2.34,4.16L261,212.35,290.16,71.17c0-2.42-.78-3.64-2.34-3.64a.78.78,0,0,1,0-1.56h8.06Z" transform="translate(-35.44 -26.58)"/><path class="cls-2" d="M408.72,66.23a.69.69,0,0,1,.78.78v4.16a.78.78,0,0,1-1.56,0,4,4,0,0,0-.39-1.82,2.55,2.55,0,0,0-1.17-1.17,3.46,3.46,0,0,0-1.56-.39H347.88v88.92h21.58a3.11,3.11,0,0,0,3.12-3.12.78.78,0,1,1,1.56,0v8.06a.78.78,0,1,1-1.56,0,3,3,0,0,0-.26-1.3,8,8,0,0,0-.65-1,2.49,2.49,0,0,0-1-.78,3.32,3.32,0,0,0-1.17-.26H347.88v88.92h56.94a3,3,0,0,0,2.21-.91,3.35,3.35,0,0,0,.91-2.47.78.78,0,1,1,1.56,0V248a.69.69,0,0,1-.78.78h-61.1a.78.78,0,0,1-.52.26H329.94a.78.78,0,1,1,0-1.56,2.83,2.83,0,0,0,2.21-1,5.09,5.09,0,0,0,1.17-2.34V70.91a11,11,0,0,1-.52-1.17,3.19,3.19,0,0,0-.65-1,3.76,3.76,0,0,0-.91-.65,3,3,0,0,0-1.3-.26.78.78,0,0,1,0-1.56Z" transform="translate(-35.44 -26.58)"/></svg>