<svg width="233px" height="50px" viewBox="0 0 233 50" version="1.1" xmlns="http://www.w3.org/2000/svg" xmlns:xlink="http://www.w3.org/1999/xlink">
  <g id="Page-1" stroke="none" stroke-width="1" fill="none" fill-rule="evenodd">
    <g id="1a.-Dashboard-Desktop" transform="translate(-510.000000, -2795.000000)" fill="#333333">
      <g id="Group-20" transform="translate(482.000000, 2759.000000)">
        <g id="Group-Copy-2" transform="translate(28.000000, 36.000000)">
          <path d="M22.0998735,19.6898332 C23.4839316,19.6898332 24.6852209,19.2454203 25.7054029,18.3565943 C26.7621387,17.4677684 27.599552,16.3746685 28.2193043,15.0414296 C28.8756104,13.7081907 29.2743786,12.2720351 29.4937011,10.6986573 C29.6764699,9.12683883 29.6399161,7.69068326 29.3109324,6.39174993 C29.0201638,5.05851105 28.4369653,3.99815731 27.5629983,3.1451963 C26.6890312,2.28911659 25.5242957,1.87900919 24.0305763,1.91331475 C22.8641793,1.94762031 21.66289,2.28911659 20.4233854,2.93936292 C19.1489886,3.58804991 17.9460377,4.5111814 16.7813022,5.74306294 C15.6165666,6.93907958 14.5598308,8.40954072 13.5762025,10.1185814 C12.5925742,11.8276222 11.8648222,13.7424963 11.3181774,15.8943906 C11.0257474,17.1590184 10.8446401,18.2879832 10.8446401,19.2454203 C10.8446401,20.2028573 10.9543014,21.0573777 11.1719624,21.8432869 C12.0824832,21.5360962 12.8118967,21.1244295 13.35688,20.6472703 C13.9035248,20.1685518 14.3421698,19.6898332 14.6694921,19.2111147 C14.9968143,18.7323962 15.3241366,18.3222888 15.5800129,17.9464869 C15.8342276,17.5706851 16.1632114,17.3648517 16.5619797,17.2619351 C16.7447484,17.2276295 17.0371785,17.3648517 17.4376082,17.6049907 C17.838038,17.8435703 18.2750215,18.150761 18.7485588,18.4579517 C19.2220961,18.7667017 19.7321871,19.0738925 20.3153856,19.348337 C20.9334764,19.552611 21.5166749,19.6898332 22.0998735,19.6898332 M12.9581118,38.2179554 C12.7387892,38.4908405 12.482913,38.6280628 12.1921444,38.6280628 C11.9013759,38.6280628 11.6089459,38.6623684 11.2450699,38.6623684 C10.8811939,38.6623684 10.4807641,38.6966739 10.0437806,38.7980313 C9.60513554,38.9009479 9.09504451,39.1410869 8.58661502,39.5854998 C7.27566445,40.611548 6.36348212,41.6017313 5.85505263,42.5248628 C5.3449616,43.4479943 5.16219282,44.3025146 5.27185409,45.0541183 C5.37985382,45.8072813 5.74539136,46.4559683 6.36348212,46.9689924 C6.98323442,47.4820165 7.71098644,47.8578183 8.62316877,48.0620923 C9.53368957,48.2679257 10.5156563,48.3022313 11.5723922,48.165009 C12.629128,48.0293461 13.6858638,47.6535443 14.7425996,47.0719091 C15.7993354,46.4902739 16.7447484,45.6357535 17.6187155,44.5753998 C18.4943441,43.5166054 19.1855423,42.1490609 19.6956334,40.4743258 C20.2057244,38.7980313 20.2057244,37.2605183 19.6956334,35.8243628 C19.1855423,34.3897665 18.1288065,33.1921906 16.5270874,32.2690591 C15.3241366,31.5860665 14.2325086,30.9358202 13.285434,30.2871332 C12.3383595,29.6368869 11.4643924,29.0225054 10.6984251,28.3722591 C9.93411933,27.7235721 9.24125953,27.0733258 8.58661502,26.4246388 C7.96686272,25.7400869 7.34711043,25.0227888 6.76557342,24.2711851 C6.50969714,24.2711851 6.14582113,24.202574 5.70883761,24.0996573 C5.23530033,23.9967406 4.76176306,23.8252128 4.28822578,23.6209388 C3.8146885,23.4166647 3.30459747,23.1765258 2.86761395,22.8693351 C2.39407668,22.5948906 2.02853913,22.2876999 1.73777063,21.9462036 C1.04657236,21.158735 0.573035083,20.4757425 0.317158801,19.8598017 C0.0263902979,19.2797258 -0.0467172113,18.8696184 0.0263902979,18.6980906 C0.136051562,18.5265628 0.426820064,18.5608684 0.90035734,18.8696184 C1.37389462,19.1768091 2.02853913,19.7911906 2.8310602,20.750187 C3.37770498,21.3645684 3.96090352,21.8089814 4.65210179,22.0834259 C5.3449616,22.356311 5.89160638,22.5262795 6.29037461,22.5262795 C5.85505263,20.8515443 5.74539136,19.108198 5.96305236,17.3305462 C6.14582113,15.5528943 6.58280465,13.8438536 7.27566445,12.203424 C7.96686272,10.5286888 8.84082976,8.98961658 9.97067309,7.48484989 C11.0988549,6.0159481 12.3732517,4.71701477 13.8304173,3.62235548 C15.2875829,2.52925552 16.8544097,1.67473516 18.5674516,1.02448883 C20.2057244,0.307190714 21.9902122,0 23.8112538,0 C25.7054029,0 27.3453373,0.272885152 28.7659491,0.8202148 C30.1865609,1.36754445 31.3147427,2.15345369 32.1887098,3.1451963 C33.0643383,4.16968512 33.6093216,5.40000732 33.8651979,6.87046846 C34.1194126,8.34092959 34.0097514,10.0156648 33.5727678,11.8603684 C33.1723381,13.5366629 32.5891395,14.9728185 31.7517262,16.2031407 C30.9508667,17.4334629 30.0037922,18.4922573 28.9470563,19.3140314 C27.8903205,20.1685518 26.7621387,20.7829332 25.5242957,21.2273461 C24.2847911,21.6390129 23.0835018,21.8775925 21.880551,21.8775925 C21.3721215,21.8775925 20.8603689,21.8089814 20.3153856,21.6717591 C19.7687409,21.5360962 19.2220961,21.3302628 18.7485588,21.0916832 C18.2384678,20.8515443 17.7649305,20.5443536 17.3645007,20.2371629 C16.9275172,19.8941073 16.6350872,19.5869165 16.3808724,19.2111147 C16.5619797,19.0395869 16.6350872,19.0738925 16.5619797,19.3826425 C16.4905337,19.6898332 16.2346574,20.0313295 15.8707814,20.510048 C15.5069054,20.954461 14.9968143,21.4331795 14.3421698,21.9462036 C13.6858638,22.4249221 12.921558,22.800724 11.9728219,23.0393036 C12.3018057,23.6209388 12.7387892,24.1682684 13.285434,24.7155981 C13.8304173,25.2270628 14.4136158,25.7400869 15.0333681,26.253111 C15.6531204,26.7661351 16.3443187,27.2448536 17.0371785,27.7563183 C17.7283767,28.2693424 18.4577903,28.7496203 19.1855423,29.261085 C21.6263362,30.9701258 23.3377165,32.8163887 24.2847911,34.764009 C25.2318656,36.7131887 25.3415269,38.7980313 24.6137749,40.9873499 C24.1767914,42.3205887 23.4473778,43.5852165 22.4637495,44.7812331 C21.4801212,45.9772498 20.2788319,46.9689924 18.8947738,47.8235127 C17.474162,48.6780331 15.8707814,49.2939739 14.0862936,49.6697757 C12.265252,50.0455776 10.2979953,50.1141887 8.22107747,49.8054386 C6.58280465,49.566859 5.37985382,49.0210887 4.61554804,48.1307035 C3.8146885,47.2761831 3.4125972,46.2516943 3.34115123,45.1227294 C3.26804372,43.9953239 3.52225847,42.8320535 4.06890325,41.6017313 C4.61554804,40.4057146 5.45296132,39.3453609 6.54625089,38.4908405 C7.49332545,37.7049313 8.40384624,37.1919072 9.27781329,36.9533276 C10.1517803,36.7131887 10.9177476,36.6804425 11.5374999,36.7817998 C12.1555907,36.8847165 12.629128,37.0889905 12.921558,37.3961812 C13.1757728,37.6020146 13.2123265,37.9107647 12.9581118,38.2179554" id="Fill-1"></path>
          <path d="M43.3825976,8.05183213 C43.128087,7.9825541 42.7621241,8.22345272 42.2880358,8.84538054 C41.815611,9.46730836 41.2683301,10.3647738 40.7210493,11.607055 C40.1371721,12.8146971 39.5532949,14.3340904 38.934485,16.1636603 C38.3140115,17.9585913 37.7301344,20.0290598 37.2194498,22.3420015 C37.5122201,22.0302504 37.8765195,21.5138141 38.3140115,20.8572473 C38.7515035,20.1676159 39.2255918,19.407132 39.6996801,18.5443056 C40.1737684,17.6814791 40.684453,16.7840136 41.1585413,15.8188446 C41.6326296,14.8505266 42.1067179,13.9199967 42.4710173,13.0571702 C42.871913,12.1581303 43.1646833,11.3315173 43.4191939,10.5710334 C43.6737044,9.81212404 43.7834933,9.19019622 43.7834933,8.70839897 C43.746897,8.36200879 43.6387716,8.12111017 43.3825976,8.05183213 L43.3825976,8.05183213 Z M35.9801663,28.6573243 C36.6355726,27.7614333 37.3292386,26.7254118 38.0944338,25.5854732 C38.8612924,24.4471091 39.6630838,23.3764486 40.5380678,22.3420015 C41.3764555,21.340619 42.2514395,20.4777926 43.128087,19.7881612 C44.003071,19.0969553 44.878055,18.7521397 45.753039,18.7521397 C46.9923225,18.7521397 47.8323736,19.1315944 48.3047985,19.8574392 C48.7805502,20.6147741 48.9984645,21.5484531 48.9984645,22.6868172 C48.9269354,23.7921168 48.7439539,25.0690369 48.377991,26.4498741 C48.0136916,27.8307114 47.6493922,29.2446131 47.2484965,30.6600893 C46.8476008,32.0755656 46.4833013,33.4910418 46.1539347,34.83724 C45.8262316,36.1834382 45.6432502,37.3910803 45.6432502,38.4271018 C45.6432502,38.6333615 45.6798464,38.8758346 45.7164427,39.1513722 C45.753039,39.4269099 45.8262316,39.704022 45.8994242,39.9449206 C45.9726168,40.1873938 46.0458093,40.3936534 46.190531,40.5322094 C46.3003199,40.70383 46.4467051,40.7731081 46.5548305,40.7731081 C46.8476008,40.7731081 47.2484965,40.5322094 47.7225848,40.0141987 C48.1966731,39.4961879 48.6707614,38.8411956 49.1814459,38.0460726 C49.6904671,37.2525242 50.2028151,36.3550588 50.7484325,35.4229543 C51.2957134,34.4577853 51.7698017,33.5256808 52.2072937,32.6282153 C52.6447857,31.7307499 53.0473448,30.9025625 53.4116443,30.1420786 C53.7759437,29.3831692 54.0304543,28.8651584 54.1768394,28.5203427 C54.1768394,28.4164257 54.1768394,28.3471476 54.2134357,28.3125086 L54.250032,28.3471476 L54.4330134,27.8984149 C54.506206,27.7614333 54.5777351,27.6575163 54.6509277,27.5535992 C54.7607166,27.4496822 54.9071017,27.3804041 55.125016,27.3804041 C55.3445937,27.3804041 55.5259117,27.4496822 55.6357006,27.5535992 C55.7454894,27.6575163 55.8918746,27.8307114 56,28.002332 C55.8552783,28.2448051 55.7088932,28.5203427 55.5259117,28.8651584 C55.3445937,29.2099741 55.1982086,29.5563643 55.0518234,29.935819 L54.687524,30.7986454 C54.1402431,32.0409265 53.4848369,33.3871247 52.7911708,34.83724 C52.0991683,36.2873552 51.3323097,37.6335534 50.5305182,38.8758346 C49.7270633,40.1181157 48.8537428,41.1872018 47.940499,42.0169637 C47.0289187,42.8451511 46.0824056,43.2592448 45.0959693,43.2592448 C44.2209853,43.2592448 43.4923864,43.1206888 42.9085093,42.8451511 C42.3246321,42.568039 41.8871401,42.2232233 41.5228407,41.7398516 C41.1951376,41.2911188 40.9389635,40.738469 40.7942418,40.1181157 C40.6478567,39.4961879 40.5746641,38.8065565 40.5746641,38.0460726 C40.6478567,37.2871633 40.7576456,36.4589758 40.9023672,35.4922323 C41.0853487,34.5254888 41.2683301,33.5603198 41.5228407,32.5242983 C41.7790147,31.5229158 42.0335253,30.5215333 42.2880358,29.5563643 C42.5808061,28.5896208 42.8353167,27.7267943 43.0914907,26.9316714 L43.309405,26.2766791 C43.6021753,25.2752965 43.8932821,24.4124701 44.1111964,23.6881997 C44.3307742,22.9277158 44.4771593,22.3766405 44.4771593,21.9956113 C44.4771593,21.6161566 44.3673704,21.4445361 44.1477927,21.4445361 C43.6021753,21.4445361 42.9817019,21.7547127 42.3246321,22.3766405 C41.6692258,22.9969939 40.9755598,23.7921168 40.246961,24.7919248 C39.5166987,25.7933073 38.8246961,26.8639679 38.1310301,28.036971 C37.4390275,29.2099741 36.7819578,30.3152736 36.1631478,31.3843597 L35.4694818,33.2485687 C35.1417786,34.1806731 34.8856046,35.2166947 34.7042866,36.3896978 C34.5213052,37.5642754 34.4115163,38.6333615 34.4115163,39.634744 C34.4115163,40.6361265 34.5213052,41.3950359 34.7408829,41.9476857 C34.9587972,42.498761 35.0685861,42.8451511 35.0685861,42.9837072 C35.0685861,43.2592448 34.812412,43.3962264 34.3383237,43.3962264 C33.5365323,43.3962264 32.8445298,43.2592448 32.3321817,42.9490682 C31.8231606,42.637317 31.3856686,42.2578623 31.056302,41.7398516 C30.7285988,41.2564798 30.5106846,40.70383 30.3277031,40.0488377 C30.181318,39.4269099 30.0731926,38.8065565 30,38.1499897 L30,36.8384305 C30,35.7000664 30.1097889,34.3885073 30.3277031,32.973031 C30.5456174,31.5229158 30.8017914,30.0728005 31.0928983,28.5896208 C31.3856686,26.9316714 31.7865643,25.207593 32.18746,23.3418095 C32.624952,21.5138141 33.0990403,19.7188832 33.6097249,17.9585913 C34.1570058,16.1967248 34.7408829,14.54035 35.3962892,12.9532532 C36.0533589,11.3992209 36.7453615,10.0199581 37.5122201,8.91465858 C38.2774152,7.77629449 39.0792067,6.91189354 39.9175944,6.32617924 C40.7576456,5.73889043 41.6326296,5.53105633 42.5808061,5.73889043 C43.0182981,5.80816847 43.3825976,5.91208552 43.7103007,6.01600258 C44.0396673,6.11834513 44.2941779,6.22226218 44.5137556,6.39545727 C44.7316699,6.56707786 44.878055,6.77491197 44.9878439,7.0158106 C45.0959693,7.25828372 45.1691619,7.6030994 45.1691619,8.05183213 C45.1691619,8.9492976 44.9512476,10.0876617 44.4771593,11.4684989 C44.003071,12.8493361 43.3825976,14.2994514 42.6174024,15.8865482 C41.815611,17.4752195 40.9389635,19.0623163 39.9175944,20.6840522 C38.8978887,22.3073625 37.8399232,23.8613948 36.7087652,25.3099356 L35.9801663,28.6573243 Z" id="Fill-3"></path>
          <path d="M63.8612337,20.918492 C62.8693435,21.0538332 61.9143141,21.6340888 60.9961455,22.6577033 C60.0779769,23.6813178 59.2335299,24.942946 58.4979897,26.3741395 C57.764125,27.8411129 57.1391672,29.4092032 56.663328,31.0815217 C56.147277,32.7522845 55.8540663,34.3203748 55.6697623,35.7873482 C55.5239947,37.2543216 55.5608555,38.4817256 55.7803447,39.4711159 C56.0383702,40.4605062 56.5158849,41.004982 57.2497496,41.1076545 C57.8747074,41.1761029 58.4979897,41.0734303 59.0860868,40.7669683 C59.7110446,40.4605062 60.2991416,40.0155917 60.8872387,39.4368917 C61.4736602,38.856636 61.9880357,38.2094877 62.5024112,37.4923353 C62.9799259,36.7425143 63.4574406,35.9911377 63.8612337,35.2086482 C64.2650268,34.4230474 64.6319592,33.6732265 64.9268454,32.9576297 C65.2217317,32.2404773 65.4412209,31.5933289 65.588664,31.0472975 C65.6607101,30.8077281 65.7344317,30.3985935 65.8081533,29.7514451 C65.8818748,29.1369653 65.9187356,28.4213685 65.9555964,27.6715476 C65.9924572,26.8859468 65.9924572,26.1019016 65.9187356,25.2836323 C65.8818748,24.4653629 65.7712925,23.7139863 65.6255248,23.066838 C65.4780817,22.3839098 65.256917,21.8736582 64.9637062,21.4645235 C64.7056807,21.0211646 64.3387484,20.8500437 63.8612337,20.918492 M69.1138953,38.8224118 C69.0770345,38.9935328 69.0770345,39.2657707 69.0770345,39.6080126 C69.0770345,39.9486989 69.1138953,40.2209368 69.2244777,40.426282 C69.33506,40.6642957 69.5176884,40.7669683 69.7388531,40.7327441 C69.9952031,40.7327441 70.3621355,40.4605062 70.8413257,40.0155917 C71.3908864,39.4711159 71.9789835,38.7197393 72.6408021,37.7319046 C73.3009452,36.7767385 73.9627638,35.7188998 74.6229069,34.52572 C75.2847255,33.3652087 75.9465442,32.1378047 76.6066873,30.8419523 C77.2685059,29.5803241 77.8566029,28.3529201 78.4447,27.1597403 C78.5167461,26.9886193 78.6273284,26.8859468 78.8116323,26.8517226 C78.9942607,26.8174984 79.2154254,26.8174984 79.3980539,26.8174984 C79.5823578,26.8517226 79.7298009,26.920171 79.8772441,26.9886193 C79.9861509,27.0912919 80.0230117,27.1939645 79.9861509,27.3308613 C79.6929401,27.9437855 79.3243323,28.7620548 78.8484931,29.8198935 C78.3709784,30.8761765 77.8566029,32.0024636 77.2316451,33.2298676 C76.6066873,34.4572716 75.9465442,35.6846756 75.1741432,36.9478595 C74.4034177,38.2094877 73.5958315,39.3342191 72.7145237,40.3236094 C71.8315403,41.3114441 70.9133717,42.0970448 69.9583424,42.6757448 C69.003313,43.2560005 67.9762375,43.4955698 66.9474866,43.358673 C66.3225287,43.2902247 65.8081533,43.0522109 65.4412209,42.6757448 C65.0742886,42.3008344 64.7425415,41.8574755 64.5230523,41.3456682 C64.3018876,40.8354166 64.15612,40.2893852 64.0823984,39.6749054 C64.0086768,39.0619812 63.971816,38.4817256 63.971816,37.9014699 C63.5680229,38.4817256 63.127369,39.0962054 62.6498543,39.7433538 C62.1354788,40.3920578 61.5842426,41.004982 60.9240995,41.5510134 C60.2622809,42.0970448 59.5284162,42.5404037 58.6822936,42.88109 C57.8378466,43.2217763 56.8828172,43.358673 55.7803447,43.3244488 C54.9727584,43.2902247 54.2372183,43.1191037 53.6507967,42.8468658 C53.0626997,42.5404037 52.5483242,42.1654932 52.1813918,41.653686 C51.7775987,41.1761029 51.4827125,40.5958473 51.300084,39.9486989 C51.1157801,39.2999949 51.0051978,38.6186223 51.0051978,37.9014699 C50.9700125,36.7082901 51.1157801,35.3782135 51.3721301,33.94702 C51.6301556,32.5142708 52.0339487,31.0815217 52.585185,29.6487725 C53.1364212,28.2160234 53.7613791,26.8174984 54.5321045,25.521646 C55.2676447,24.1915694 56.1120917,23.0326138 57.0654456,22.0447791 C57.9852897,21.0538332 59.0123652,20.269788 60.1148377,19.691088 C61.2173102,19.1108324 62.3566435,18.8728187 63.5680229,18.9412671 C64.6319592,19.0081598 65.4780817,19.5199671 66.0276425,20.4751332 C66.5805542,21.3960751 66.9843473,22.5208065 67.2038365,23.8166589 C67.2775581,22.895717 67.4233258,22.0774477 67.6444905,21.3960751 C67.9025159,20.7147025 68.0499591,20.269788 68.1588659,20.0659985 C68.4168914,19.4172945 68.8558698,19.0766082 69.5176884,18.9412671 C70.1795071,18.8385945 70.8044649,18.8385945 71.4277472,18.9739356 C72.052705,19.1108324 72.5670805,19.3161776 72.9708736,19.6226397 C73.3746668,19.8948776 73.4483883,20.1344469 73.2272236,20.3040122 C73.0445952,20.4751332 72.7865697,20.9869404 72.5302197,21.8736582 C72.2738697,22.7603759 71.9789835,23.8166589 71.6857727,25.0440629 C71.3908864,26.2730226 71.1345364,27.6373234 70.8413257,29.1027411 C70.5833002,30.5697144 70.3252747,31.9682394 70.0689247,33.2640918 C69.8125747,34.5941684 69.6282708,35.753124 69.4456424,36.7425143 C69.2981992,37.7661288 69.1876169,38.4475014 69.1138953,38.8224118" id="Fill-5"></path>
          <path d="M88.7709603,20.4114517 C87.9952581,20.3421165 87.2566546,20.6178817 86.5163649,21.1709879 C85.7777615,21.7240941 85.0745705,22.4836302 84.4101647,23.4511721 C83.7440726,24.418714 83.152178,25.4902588 82.5602835,26.7335659 C82.0054878,27.9422053 81.4894772,29.22018 81.1184891,30.4981547 C80.7120886,31.7761295 80.4169845,33.0541042 80.1943917,34.2989871 C79.9734852,35.5422942 79.8621888,36.6485066 79.8621888,37.6491403 C79.8621888,38.6166822 80.010584,39.4108859 80.3056881,39.9986598 C80.6007922,40.5864336 81.0442915,40.8968664 81.6361861,40.8968664 C82.4118883,40.8968664 83.152178,40.5170983 83.9278803,39.7559864 C84.66817,38.9964502 85.4067734,38.0982436 86.0728656,37.0282746 C86.7743702,35.9567299 87.4033635,34.8520933 87.9952581,33.6765456 C88.5871526,32.5025738 89.1031632,31.5350319 89.5466625,30.7061605 C89.6208601,30.56749 89.6950577,30.2223895 89.8063541,29.6692834 C89.9176505,29.1161772 90.0289469,28.4606439 90.1031445,27.6995319 C90.1756558,26.9415716 90.2127546,26.145792 90.2498534,25.3169206 C90.2869523,24.4533816 90.2498534,23.6938455 90.1756558,22.9674012 C90.1031445,22.2425326 89.9547493,21.6547588 89.7321565,21.1709879 C89.4741512,20.6872169 89.1773608,20.4461193 88.7709603,20.4114517 M93.170541,38.5820145 C93.170541,38.7553527 93.170541,39.0657855 93.1334422,39.4455536 C93.1334422,39.8599893 93.170541,40.2066655 93.2447386,40.4824307 C93.356035,40.7581959 93.5398427,40.931534 93.7607492,40.9662016 C93.983342,41.0008693 94.3914288,40.7251041 94.9074395,40.1719979 C95.6106304,39.4455536 96.2767225,38.6860174 96.9040295,37.857146 C97.5701217,37.0282746 98.2345275,36.0954004 98.9377184,35.0238556 C99.6392231,33.9538866 100.379513,32.7436714 101.155215,31.3963614 C101.932604,30.0490514 102.745405,28.4953115 103.632403,26.7335659 C103.927507,26.6642306 104.113001,26.629563 104.224298,26.629563 C104.445204,26.629563 104.630698,26.6988982 104.741995,26.8375687 C104.853291,26.9746634 104.925802,27.1133339 105,27.286672 L104.704896,28.0115406 C104.445204,28.5299791 104.075903,29.2895153 103.595304,30.2917248 C103.114706,31.2939343 102.559911,32.4332385 101.932604,33.641878 C101.30361,34.8520933 100.565007,36.0954004 99.7505195,37.3040398 C98.9377184,38.5473469 98.0507198,39.6535593 97.1266224,40.6211012 C96.2025249,41.5870673 95.2025436,42.3481792 94.168836,42.8666178 C93.1334422,43.3850564 92.0609495,43.5221511 90.9884569,43.2810535 C90.3611499,43.142383 89.8434529,42.8666178 89.4370524,42.4852739 C89.0306519,42.072414 88.698449,41.6217349 88.4387574,41.0355369 C88.1790658,40.4824307 88.0323569,39.8599893 87.9581592,39.2391236 C87.8839616,38.5820145 87.8468628,37.9958165 87.8839616,37.4080427 C87.9210604,37.2000369 87.9210604,36.993607 87.9581592,36.7509336 C87.9581592,36.5445037 87.9952581,36.3364979 88.0677693,36.0954004 C87.8839616,36.6138389 87.5888575,37.2693722 87.1453582,38.063576 C86.7001726,38.8593555 86.1099644,39.6535593 85.4067734,40.4130954 C84.7052688,41.1726316 83.8907815,41.8644083 83.0037828,42.4159387 C82.0796854,42.9690449 81.1184891,43.2463859 80.0476828,43.2463859 C79.2331955,43.2463859 78.494592,43.1077154 77.8655987,42.7972826 C77.2366054,42.4852739 76.7205948,42.1055059 76.3125079,41.5870673 C75.9061074,41.0686287 75.6110033,40.4824307 75.3884105,39.8253216 C75.167504,39.1697884 75.0562076,38.4780117 75.0191088,37.7531431 C74.9449112,36.4405008 75.0933064,35.0585232 75.3513117,33.5394509 C75.6481021,32.0188028 76.0545026,30.5328224 76.6463972,29.0468419 C77.2011929,27.5624372 77.9397963,26.1804597 78.7525973,24.8331497 C79.6024972,23.4858397 80.5265946,22.3465355 81.5619885,21.344326 C82.5973823,20.3421165 83.7440726,19.617248 85.0003729,19.0988094 C86.2566733,18.5803708 87.5146599,18.4086085 88.8822567,18.5457032 C89.2515584,18.6150384 89.6208601,18.7537089 89.9918481,19.0294741 C90.3611499,19.3052393 90.6933528,19.7212508 90.9142593,20.2396894 C91.1739509,20.7565522 91.3594449,21.4136612 91.4336425,22.1731974 C91.5449389,22.9327335 91.5078401,23.8309402 91.3594449,24.8331497 C91.5078401,24.3147111 91.654549,23.6938455 91.8029442,22.9674012 C91.9513394,22.207865 92.0980483,21.4483289 92.2464435,20.6872169 C92.3931524,19.9276808 92.5415476,19.1681446 92.6528441,18.4763679 C92.7641405,17.786167 92.9125357,17.1983932 93.0221458,16.7492899 C93.2076398,15.9897538 93.356035,15.19555 93.5398427,14.3666786 C93.7253367,13.5031396 93.8720456,12.70736 93.983342,11.9478239 C94.0946384,11.1867119 94.2059348,10.496511 94.3172312,9.87406958 C94.3914288,9.25320393 94.4268413,8.80410061 94.4268413,8.49366779 C94.4268413,8.00989684 94.35433,7.69946402 94.2430336,7.59546114 C94.1317372,7.49145827 93.9462432,7.42212302 93.797848,7.42212302 C93.6511391,7.42212302 93.4285463,7.42212302 93.2447386,7.45679065 C93.0592446,7.49145827 92.8754369,7.42212302 92.6899429,7.2487849 C92.5786465,7.14635782 92.5044488,7.00768732 92.5044488,6.8343492 C92.5044488,6.66258688 92.5786465,6.48924875 92.7270417,6.31748643 C92.9125357,6.1441483 93.2076398,6.00547781 93.6140403,5.86838311 C94.0204408,5.72971261 94.6123353,5.66037736 95.3880376,5.66037736 C96.2767225,5.66037736 96.9782271,5.79904786 97.4959241,6.04014543 C98.013621,6.2828188 98.4200215,6.62791925 98.6780268,7.04235495 C98.9377184,7.45679065 99.1232124,7.90589397 99.1586249,8.45900016 C99.2328225,8.97743873 99.1957237,9.4943015 99.1232124,10.0474077 C98.9377184,11.2213795 98.6780268,12.5686895 98.3458239,14.1240052 C98.013621,15.6793209 97.6443193,17.3023961 97.20082,19.0641418 C96.7927331,20.8258874 96.3492338,22.5876331 95.9057345,24.418714 C95.4622352,26.2497949 95.0187359,28.0115406 94.6123353,29.7386186 C94.2059348,31.4656966 93.8720456,33.0887718 93.5769415,34.6440875 C93.4656451,36.0954004 93.2447386,37.4427103 93.170541,38.5820145" id="Fill-7"></path>
          <path d="M112.514648,37.3604597 C112.799921,36.9055645 113.194412,36.2048663 113.587274,35.2264426 C114.015998,34.2815374 114.372997,33.1961734 114.694132,32.0421761 C115.016898,30.8865827 115.266308,29.6974706 115.445622,28.4381291 C115.623306,27.2139024 115.659169,26.0583089 115.515718,25.0431744 C115.409759,24.0280398 115.088624,23.1900749 114.552311,22.5244914 C114.051861,21.860504 113.264508,21.5444715 112.229375,21.5444715 C111.298571,21.5444715 110.584574,21.9993668 110.048261,22.9091572 C109.549441,23.8189476 109.15495,25.0782891 108.90554,26.6185483 C108.726225,27.493224 108.6545,28.4732439 108.618637,29.5921265 C108.618637,30.7126052 108.726225,31.7963731 108.977265,32.8466224 C109.226675,33.8968717 109.619537,34.8401807 110.191713,35.6462231 C110.799751,36.5560135 111.549611,37.0811381 112.514648,37.3604597 M106.975466,42.2238482 C107.296601,42.2238482 107.691093,42.118504 108.119817,41.9094119 C108.546911,41.6987235 108.977265,41.4545166 109.40599,41.1400803 C109.834714,40.8240478 110.191713,40.4744968 110.512848,40.089831 C110.835614,39.7051652 111.049161,39.3556142 111.120887,39.0395817 C110.476985,38.8656043 109.90644,38.4458238 109.441853,37.815355 C108.941403,37.1848862 108.512678,36.4506693 108.189913,35.5759936 C107.832914,34.7013179 107.583504,33.7564128 107.368327,32.7061635 C107.15315,31.6575103 107.047191,30.6423757 107.011328,29.5921265 C106.975466,28.5434733 107.011328,27.5634534 107.118917,26.5834336 C107.224876,25.6034137 107.440053,24.7638527 107.725325,24.0280398 C107.440053,24.4143017 107.118917,25.1134038 106.726056,26.1636531 C106.333194,27.2139024 105.938703,28.4030144 105.617567,29.7325853 C105.260569,31.097271 104.975296,32.4970713 104.760119,33.9319864 C104.544941,35.40042 104.437353,36.7299909 104.473216,37.9558138 C104.509079,39.1800406 104.724256,40.1600604 105.081254,40.9645067 C105.474116,41.8391824 106.082154,42.2238482 106.975466,42.2238482 M104.65253,44.2541173 C103.40222,44.043429 102.437183,43.4831897 101.793282,42.6101101 C101.115147,41.7338383 100.65056,40.7187037 100.363657,39.5647064 C100.078385,38.410709 99.970796,37.2200009 100.006659,35.9606594 C100.042522,34.7013179 100.15011,33.5808392 100.327795,32.6375302 C100.794012,29.8730442 101.472146,27.5985681 102.40132,25.7789873 C103.294632,23.9594065 104.331394,22.5244914 105.474116,21.4742421 C106.618467,20.4255889 107.797051,19.689776 109.013128,19.3402249 C110.227575,18.9555592 111.40616,18.8151003 112.514648,18.8853297 C113.836684,18.9906739 114.873447,19.4455691 115.587444,20.2149006 C116.303071,20.9842322 116.803521,21.9291373 117.088793,23.0847308 C117.374066,24.2387281 117.445792,25.4980696 117.374066,26.8978699 C117.303971,28.2976703 117.088793,29.6623559 116.803521,30.9919268 C116.516618,32.3214977 116.159619,33.5808392 115.730895,34.7364326 C115.302171,35.89043 114.945172,36.8002204 114.586544,37.5009186 C115.016898,37.6046667 115.479855,37.5009186 115.980305,37.1848862 C116.482385,36.8704498 116.981205,36.4155546 117.481655,35.8202005 C117.982105,35.2264426 118.482555,34.4906296 118.947142,33.6861833 C119.411729,32.8817371 119.876316,32.0421761 120.340903,31.2026151 C120.769628,30.3630541 121.198352,29.4867823 121.591213,28.6488174 C121.985705,27.8076603 122.30684,27.0383288 122.592113,26.3727453 C122.771427,25.9529648 122.949112,25.7087579 123.128426,25.6385284 C123.30774,25.568299 123.485424,25.568299 123.628876,25.6736432 C123.772327,25.7789873 123.878286,25.9529648 123.950012,26.1636531 C124.021737,26.40786 124.021737,26.653663 123.914149,26.8978699 C123.736465,27.4229946 123.449562,28.086982 123.128426,28.9632538 C122.80566,29.8379295 122.412799,30.7461238 121.913979,31.7277398 C121.447762,32.7061635 120.913079,33.6861833 120.30504,34.6662032 C119.697002,35.6462231 119.054731,36.5208988 118.339103,37.2200009 C117.625106,37.9558138 116.873616,38.5160532 116.052031,38.8991228 C115.230445,39.2853847 114.372997,39.3891328 113.443822,39.2151553 C112.871647,39.9844869 112.265238,40.6851851 111.621337,41.3491725 C110.977435,42.014756 110.299301,42.6101101 109.583674,43.0985239 C108.869677,43.5885338 108.083954,43.939681 107.260738,44.1838879 C106.439153,44.3578654 105.581704,44.3929801 104.65253,44.2541173" id="Fill-9"></path>
          <path d="M147.764979,22.2118453 C147.289208,22.0372614 146.886889,22.2467621 146.629805,22.7689267 C146.337665,23.2910914 146.154034,23.9862528 146.008798,24.8559981 C145.898619,25.7257435 145.861893,26.6653224 145.898619,27.7080646 C145.972072,28.7523938 146.080581,29.6919728 146.264212,30.5966349 C146.703258,29.6221392 147.033794,28.6492306 147.289208,27.7080646 C147.544622,26.735156 147.764979,25.8654106 147.873489,25.0988285 C147.983667,24.3338335 148.05712,23.6720017 148.020393,23.1514242 C148.020393,22.559426 147.946941,22.2800917 147.764979,22.2118453 L147.764979,22.2118453 Z M154.462507,29.0999746 C154.754647,28.892061 155.046788,28.8222274 155.230419,28.8571442 C155.41405,28.892061 155.70619,29.0999746 156,29.3793088 L156,29.4142256 C155.485833,30.422051 154.938278,31.2933835 154.352328,32.0234617 C153.766378,32.7202102 153.108645,33.2757045 152.37579,33.658202 C151.644604,34.0422866 150.764844,34.2502002 149.851696,34.2502002 C148.898484,34.285117 147.836762,34.1121202 146.593079,33.7629524 C146.154034,34.7723649 145.643205,35.9547741 144.947076,37.2419338 C144.287674,38.5290934 143.483036,39.7480066 142.568219,40.8605823 C141.653402,41.9747452 140.628406,42.8444905 139.456506,43.5063223 C138.286275,44.166567 137.042592,44.3395637 135.688729,44.0967334 C134.919148,43.9237366 134.333198,43.6444023 133.857426,43.2619048 C133.418381,42.8794073 133.052788,42.3921595 132.797374,41.7652445 C132.540291,41.1399166 132.358329,40.4431681 132.284876,39.6432563 C132.211424,38.8433445 132.174698,37.9386823 132.174698,36.8943531 C131.515295,38.0783495 130.820836,39.1560084 130.087981,40.1305041 C129.356795,41.1049998 128.552157,41.9049116 127.709123,42.600073 C126.867759,43.2619048 126.026394,43.7491527 125.148304,44.0618166 C124.270213,44.3395637 123.390453,44.4093973 122.514032,44.2697302 C121.74445,44.0967334 121.123443,43.8189862 120.682729,43.4364887 C120.206957,43.0174873 119.841364,42.4969098 119.58595,41.8699948 C119.328867,41.2097502 119.181962,40.4780848 119.108509,39.6083395 C119.036726,38.7385941 119,37.7640984 119,36.6864395 C119,35.815107 119.036726,34.9453617 119.108509,34.0422866 C119.181962,33.1360374 119.255414,32.2313752 119.365593,31.3283002 C119.475772,30.422051 119.58595,29.5523056 119.696129,28.7174771 C119.804638,27.8826485 119.951543,27.0827367 120.061722,26.3510714 C120.206957,25.4130796 120.317136,24.578251 120.427315,23.8815024 C120.535824,23.186341 120.57255,22.6641764 120.535824,22.3499253 C120.499098,22.0721782 120.464041,21.8642646 120.427315,21.6896807 C120.353862,21.5166839 120.317136,21.3420999 120.243683,21.1325992 L120.170231,20.9230985 L120.170231,20.9580153 C120.096779,20.8897689 120.096779,20.8199353 120.061722,20.7501017 C120.061722,20.6802682 120.024995,20.6104346 120.024995,20.4723546 C119.951543,20.1247739 120.061722,19.8803564 120.317136,19.775606 C120.57255,19.6708557 120.829634,19.5676925 121.1585,19.4978589 C121.634272,19.4280253 122.036591,19.4280253 122.330401,19.4629421 C122.622541,19.4978589 122.914681,19.5676925 123.135039,19.6359389 C123.941346,19.9851067 124.488901,20.5421882 124.854494,21.2722664 C125.221756,22.0372614 125.403718,22.8387603 125.47717,23.6720017 C125.513896,24.0910031 125.440444,24.8559981 125.295208,25.9003274 C125.148304,26.9430696 124.964672,28.1619828 124.707589,29.4840592 C124.488901,30.8061356 124.270213,32.1980456 124.013129,33.6232852 C123.794441,35.050112 123.647537,36.3721884 123.574084,37.5545977 C123.500632,38.7385941 123.537358,39.7130898 123.684263,40.4431681 C123.831168,41.2097502 124.123308,41.5573309 124.59908,41.4874973 C125.47717,41.4176638 126.318535,41.0002495 127.088116,40.2336673 C127.892754,39.4702595 128.62394,38.5290934 129.320069,37.3816009 C130.016197,36.2325213 130.637204,34.9802784 131.223155,33.5883685 C131.809105,32.1980456 132.321603,30.874382 132.723922,29.5523056 L133.236419,26.108241 C133.381655,25.1686621 133.491834,24.3338335 133.602012,23.6370849 C133.712191,22.9419235 133.748917,22.4197589 133.712191,22.1070949 C133.675465,21.8293478 133.638738,21.6198471 133.602012,21.4468503 C133.52856,21.2722664 133.491834,21.0976825 133.418381,20.8897689 L133.344929,20.6802682 L133.344929,20.715185 C133.271476,20.6453514 133.236419,20.5771049 133.236419,20.5072714 C133.236419,20.4374378 133.199693,20.3676042 133.199693,20.2279371 C133.126241,19.8803564 133.236419,19.6359389 133.491834,19.5327757 C133.748917,19.4280253 134.004331,19.323275 134.333198,19.2534414 C134.80897,19.185195 135.211289,19.185195 135.505098,19.2201117 C135.797239,19.2534414 136.089379,19.323275 136.309737,19.3931085 C137.116044,19.7406892 137.663599,20.2977707 138.029191,21.0278489 C138.396454,21.794431 138.578415,22.5943428 138.651868,23.4291714 C138.688594,23.8465857 138.615142,24.578251 138.469906,25.5860764 C138.323001,26.5954888 138.13937,27.7429813 137.883956,29.0317281 C137.663599,30.3188877 137.444911,31.675881 137.224553,33.0677909 C137.005865,34.4581138 136.85896,35.7468606 136.785508,36.9292699 C136.712056,38.1132663 136.712056,39.0861748 136.85896,39.8860866 C137.005865,40.6875855 137.298006,41.1399166 137.773777,41.2430798 C138.396454,41.382747 139.054187,41.1399166 139.71359,40.5479184 C140.408049,39.9559202 141.030726,39.1909252 141.690128,38.2862631 C142.311135,37.3816009 142.897085,36.4071052 143.372857,35.3992799 C143.848628,34.3898674 144.252617,33.5534517 144.508031,32.8582902 C144.068986,32.128212 143.664997,31.2584667 143.372857,30.2490542 C143.080716,29.2396417 142.860359,28.1619828 142.788576,27.0827367 C142.678397,26.0034906 142.715124,24.9258317 142.860359,23.8815024 C143.007264,22.8387603 143.262678,21.9340982 143.664997,21.1325992 C144.068986,20.3326875 144.61821,19.7406892 145.312669,19.323275 C146.008798,18.9058607 146.886889,18.7677807 147.946941,18.9407775 C148.532891,19.010611 149.008663,19.3581917 149.337529,19.9152732 C149.668065,20.4723546 149.81497,21.3071832 149.81497,22.3848421 C149.81497,23.4640882 149.594613,24.7861646 149.22902,26.3859881 C148.863427,27.9873988 148.240751,29.8316399 147.436113,31.9536281 C147.946941,32.440876 148.532891,32.6852934 149.192294,32.7202102 C149.851696,32.755127 150.50943,32.6154599 151.168832,32.3012088 C151.826566,32.0234617 152.449242,31.5711306 153.035192,31.0140492 C153.619473,30.4569678 154.095245,29.8316399 154.425781,29.1348913 L154.462507,29.0999746 Z" id="Fill-11"></path>
          <path d="M168.389578,23.2982983 C169.157176,22.9899707 169.706175,22.8178081 170.071619,22.8522406 C170.438731,22.8522406 170.657329,22.9555382 170.730752,23.1261357 C170.804174,23.2982983 170.730752,23.5033284 170.510485,23.7787886 C170.291886,24.0526836 169.998196,24.2592788 169.596042,24.4643088 C168.534754,24.9792316 167.803867,25.5285869 167.401713,26.1108095 C167.03627,26.6945974 166.889425,27.2439526 166.962847,27.7588754 C167.03627,28.2737981 167.291579,28.6509908 167.730445,28.9593184 C168.169311,29.267646 168.681599,29.3709436 169.26731,29.267646 C169.961485,29.1659136 170.583907,28.8560208 171.132906,28.3082307 C171.718617,27.7933079 172.230905,27.1750876 172.63306,26.4895673 C173.071926,25.8024819 173.400658,25.0825291 173.620925,24.3610112 C173.876235,23.6410585 173.986368,22.9899707 173.986368,22.475048 C174.059791,21.1368748 173.839524,20.0052969 173.327235,19.0771838 C172.851658,18.1506359 171.900504,17.5684132 170.547196,17.2600856 C169.596042,17.087923 168.644888,17.1912205 167.658691,17.5684132 C166.705869,17.9800384 165.791426,18.5638262 164.913694,19.3855114 C164.035963,20.2103269 163.231654,21.1368748 162.462387,22.2684528 C161.7315,23.3655983 161.072367,24.5331739 160.561748,25.6991844 C160.047791,26.86676 159.645636,28.067203 159.390327,29.2332135 C159.135017,30.4007891 159.024883,31.463502 159.098306,32.39005 C159.280193,34.6203385 159.865904,36.3028369 160.853769,37.4344148 C161.841634,38.5659928 163.048098,39.2530782 164.474829,39.4236757 C165.938271,39.6302708 167.548558,39.3892432 169.304021,38.7381554 C171.059484,38.0855026 172.814947,37.0572222 174.572079,35.650184 C176.474387,34.1398483 178.083005,32.253885 179.401271,29.9547314 C180.75458,27.6555778 181.887621,25.0825291 182.875486,22.2340203 C183.863351,19.3855114 184.704372,16.2991051 185.436927,12.970106 C186.167814,9.67553945 186.826947,6.24480789 187.484411,2.67634624 C187.557834,2.26628617 187.521123,1.92196093 187.410989,1.68093325 C187.302524,1.44147069 187.229102,1.20200814 187.229102,0.995412988 C187.229102,0.583787806 187.410989,0.309892723 187.778101,0.206595148 C188.143544,0.103297574 188.508988,0.0344325247 188.911142,0 C189.386719,0.0688650495 189.790543,0.137730099 190.082564,0.241027673 C190.374585,0.342760133 190.631563,0.480490231 190.850162,0.652652855 C191.070429,0.824815479 191.217274,0.995412988 191.325738,1.20200814 C191.435872,1.40703817 191.546006,1.61363332 191.654471,1.85309588 C191.94816,2.50574873 192.168428,3.53559424 192.387026,5.00993235 C192.570582,6.48583557 192.752469,8.16676882 192.862603,10.0542972 C192.972737,11.9762581 193.04449,13.9999515 193.117913,16.1269425 C193.191335,18.2539334 193.191335,20.348057 193.228046,22.3028853 L193.228046,27.7244429 C193.228046,29.3709436 193.191335,30.6058191 193.191335,31.4979346 C193.558447,30.7779818 194.034024,29.8858663 194.618066,28.7527233 C195.203777,27.6555778 195.86291,26.3862697 196.593797,25.0136641 C197.324683,23.6410585 198.09395,22.1651552 198.861548,20.6219521 C199.667526,19.0771838 200.471835,17.5339807 201.239433,15.956345 C202.043742,14.4115767 202.813009,12.8668084 203.543895,11.3580378 C204.276451,9.84770207 204.970626,8.4406639 205.593048,7.13692331 C206.213801,5.83318271 206.727758,4.70160474 207.129913,3.70619175 C207.568779,2.71077876 207.824088,1.95639345 207.970933,1.40703817 L208.044356,1.51033574 C208.044356,1.44147069 208.081067,1.30530571 208.117778,1.16757561 C208.299665,0.928113053 208.519933,0.721517904 208.811953,0.514922756 C209.103974,0.342760133 209.471086,0.241027673 209.909952,0.241027673 C210.714261,0.241027673 211.410106,0.377192657 211.994148,0.652652855 C212.579858,0.928113053 213.018724,1.27087319 213.310745,1.71536578 C213.604435,2.1629886 213.787991,2.64347883 213.859744,3.22570152 C213.933167,3.80948933 213.859744,4.35727949 213.641146,4.9410673 C211.555282,10.6725176 209.946663,15.7153173 208.775242,20.1414619 C207.60549,24.5676064 206.801181,28.4099631 206.360646,31.7045297 C205.92178,34.9990963 205.776604,37.7427424 205.92178,39.9385985 C206.068625,42.1344545 206.434069,43.8842528 206.946357,45.1879934 C207.495356,46.4573014 208.154489,47.3165494 208.995509,47.761042 C209.799819,48.2086648 210.640839,48.3103973 211.520239,48.0709347 C212.06757,47.8987721 212.579858,47.5904445 212.982013,47.0755218 C213.384167,46.560599 213.641146,46.0801088 213.677857,45.6340511 C213.751279,45.1879934 213.567723,44.8108007 213.128858,44.5713381 C212.689992,44.3303105 211.957436,44.364743 210.897817,44.7075031 C210.714261,44.7763682 210.567417,44.7763682 210.385529,44.7419357 C210.201973,44.7075031 210.056797,44.6402032 209.983375,44.5369056 C209.909952,44.433608 209.909952,44.3303105 210.020086,44.1941455 C210.128551,44.0564154 210.385529,43.8842528 210.824395,43.7465227 C211.738838,43.3708951 212.543147,43.2675975 213.165569,43.4381951 C213.787991,43.6103577 214.263568,43.8842528 214.5923,44.364743 C214.884321,44.8108007 215.031166,45.360156 214.994454,45.9783763 C214.957743,46.6294641 214.737476,47.2132519 214.300279,47.7954745 C213.896456,48.3792624 213.275702,48.8941851 212.471393,49.3058103 C211.665415,49.7174355 210.67755,49.9584631 209.471086,49.9928957 C207.532067,50.0601956 205.958492,49.6485704 204.752028,48.7908875 C203.543895,47.9332046 202.631121,46.8016267 202.007031,45.3257235 C201.386278,43.8842528 201.020834,42.2033195 200.873989,40.2829237 C200.727145,38.3609628 200.763856,36.3701368 200.984123,34.2775784 C201.057546,33.0082703 201.276144,31.5323671 201.604876,29.8514338 C201.935277,28.1705006 202.30072,26.4207023 202.702875,24.6364714 C203.10503,22.8522406 203.543895,21.0680098 203.98443,19.283779 C204.421627,17.5339807 204.823782,15.956345 205.227605,14.5493068 C205.593048,13.1422686 205.885069,12.0091256 206.142048,11.0825776 C206.397357,10.1904622 206.507491,9.70997197 206.507491,9.60823951 C206.544202,9.50494194 206.397357,9.77883702 206.068625,10.3970574 C205.776604,11.0481451 205.337738,11.9073931 204.78707,13.0389711 C204.23974,14.170549 203.617318,15.4742896 202.923142,16.9157603 C202.190587,18.3916635 201.4597,19.9019993 200.653722,21.4452024 C199.849413,23.0228381 199.081815,24.5331739 198.277506,26.0419445 C197.471528,27.5522802 196.70393,28.9248859 196.008086,30.1253289 C195.31391,31.327337 194.691489,32.32275 194.105778,33.1115679 C193.558447,33.8659532 193.154624,34.3120109 192.862603,34.3808759 C192.533871,34.449741 192.20347,34.449741 191.94816,34.3808759 C191.654471,34.3120109 191.435872,34.1742808 191.217274,33.9692508 C191.033718,33.7626556 190.850162,33.5576256 190.741697,33.2821654 C190.631563,33.0427028 190.594852,32.8016751 190.631563,32.5622126 C190.668274,31.8078273 190.704985,30.9157119 190.704985,29.8858663 C190.741697,28.8560208 190.778408,27.7244429 190.778408,26.4895673 C190.81345,25.2875592 190.81345,24.0182511 190.850162,22.7145105 L190.850162,18.8721538 C190.850162,17.6372782 190.81345,16.4697026 190.778408,15.3725572 C190.741697,14.2738466 190.668274,13.3144313 190.594852,12.4896158 C190.155986,14.2394141 189.606987,16.161375 188.947854,18.2539334 C188.290389,20.3464919 187.4477,22.4406154 186.498215,24.5676064 C185.547061,26.6945974 184.412351,28.7527233 183.130796,30.7435492 C181.85091,32.7328101 180.387468,34.5170409 178.778849,36.0962417 C177.131851,37.64101 175.339677,38.9447506 173.327235,39.9041659 C171.316462,40.8995789 169.120465,41.4145017 166.74258,41.4489342 C164.841941,41.5177992 163.158231,41.2767716 161.694789,40.7618488 C160.231347,40.2484912 158.988172,39.4925407 158.000307,38.5315603 C157.012442,37.5377124 156.244844,36.3701368 155.732555,35.0319637 C155.220267,33.6609231 155,32.1850199 155,30.5369541 C155.036711,29.3020785 155.220267,28.0327705 155.512288,26.6945974 C155.84102,25.3908568 156.281555,24.1215487 156.865597,22.8866731 C157.451307,21.6517976 158.147152,20.484222 158.951461,19.3855114 C159.75577,18.288366 160.63517,17.3289506 161.621367,16.5041351 C162.609232,15.6808848 163.670519,14.9953645 164.841941,14.5148743 C166.011693,14.0343841 167.181446,13.7589239 168.426289,13.7244913 C169.85302,13.6900588 171.059484,13.896654 171.973927,14.3427117 C172.88837,14.7887694 173.620925,15.3725572 174.169924,16.161375 C174.717255,16.9157603 175.084367,17.8423083 175.266254,18.9065863 C175.449811,19.9708643 175.559944,21.1024423 175.523233,22.3028853 C175.486522,23.0572706 175.266254,23.9509512 174.900811,24.9103665 C174.498657,25.9057795 173.986368,26.7978949 173.327235,27.6555778 C172.669771,28.5132607 171.865462,29.2332135 170.986062,29.8514338 C170.10833,30.4352216 169.120465,30.7435492 168.097557,30.7435492 C167.291579,30.7435492 166.560693,30.4696542 165.974982,29.8858663 C165.389271,29.3020785 165.023828,28.6165583 164.913694,27.8277404 C164.805229,27.0044901 164.987117,26.1796746 165.462694,25.3564242 C166.23196,24.5331739 167.108023,23.8476536 168.389578,23.2982983" id="Fill-13"></path>
          <path d="M223.681321,22.607806 C223.094805,22.607806 222.473198,22.9160723 221.849921,23.5341699 C221.226643,24.1507027 220.605037,24.8720773 220.018521,25.7295898 C219.432005,26.5871024 218.882251,27.4790407 218.369258,28.4054046 C217.894698,29.3317685 217.453558,30.1548554 217.124374,30.8058138 C217.857936,30.7713882 218.663351,30.6696759 219.579051,30.4975475 C220.45799,30.3269838 221.300166,30.0171527 222.107252,29.6400349 C222.912667,29.2284915 223.572707,28.7480967 224.157552,28.0955734 C224.744067,27.4790407 225.110013,26.7232403 225.25706,25.8672926 C225.293822,25.6263128 225.293822,25.3180464 225.25706,24.9409287 C225.220298,24.5638109 225.146775,24.219554 225.038161,23.876862 C224.927876,23.5341699 224.744067,23.2259035 224.523497,23.0193494 C224.304598,22.7095182 224.012176,22.607806 223.681321,22.607806 M217.637366,43.3962264 C216.466006,43.3962264 215.476782,43.1896723 214.632935,42.7437032 C213.790758,42.3321597 213.095628,41.7484879 212.545874,40.9942524 C211.996119,40.2400169 211.593412,39.41693 211.33608,38.4561404 C211.080419,37.4953507 210.970134,36.5001354 211.006896,35.4032078 L211.043658,35.1278024 L211.043658,34.5112696 C211.043658,34.2718546 211.080419,34.0653005 211.117181,33.893172 C211.372842,32.2125726 211.849073,30.4631218 212.582635,28.6792453 C213.314527,26.8953688 214.193465,25.2836207 215.256212,23.8424363 C216.318959,22.4012518 217.527081,21.2010472 218.845489,20.2746833 C220.165567,19.3483193 221.557498,18.8679245 223.058043,18.8679245 C224.012176,18.8679245 224.780829,19.0744786 225.367345,19.4515964 C225.95219,19.8631398 226.39333,20.3779603 226.648991,20.9960579 C226.941413,21.6470163 227.08846,22.3339653 227.125222,23.1226265 C227.161983,23.9112877 227.08846,24.6999488 226.941413,25.48861 C226.759276,26.5871024 226.283045,27.5823177 225.586244,28.3709789 C224.891114,29.1940658 224.047267,29.8794499 223.058043,30.4286961 C222.070491,30.9779423 221.007744,31.4239114 219.871474,31.7666035 C218.700113,32.1092955 217.563843,32.3158497 216.429244,32.4191267 C216.318959,32.7618188 216.208674,33.2077879 216.098389,33.7226084 C215.988104,34.2374289 215.916251,34.819536 215.842728,35.4376335 C215.769205,36.0541663 215.769205,36.6722639 215.769205,37.3247871 C215.769205,37.9757455 215.87949,38.5249917 216.061627,39.0382474 C216.245435,39.5546327 216.502767,40.0006018 216.868713,40.3761548 C217.234659,40.7548374 217.71089,40.9613915 218.332496,41.0631037 C219.249867,41.2008065 220.200658,41.028678 221.118029,40.5827089 C222.033729,40.1367398 222.912667,39.520207 223.791606,38.729981 C224.670544,37.9413199 225.475959,37.0165207 226.246283,35.952454 C227.014937,34.8883873 227.748499,33.8243207 228.406868,32.7273931 C229.066907,31.6304655 229.653423,30.5663988 230.201506,29.5023322 C230.75126,28.474256 231.190729,27.547892 231.556675,26.7920917 C231.630199,26.6215281 231.777245,26.518251 231.961054,26.4838253 C232.143191,26.4838253 232.326999,26.518251 232.474046,26.5871024 C232.656184,26.6559538 232.766469,26.7920917 232.913515,26.9297945 C233.022129,27.0674972 233.022129,27.2380608 232.948606,27.3757636 C232.58266,28.0955734 232.143191,28.9890765 231.66696,30.0515783 C231.153968,31.115645 230.569123,32.2125726 229.909084,33.4127772 C229.213954,34.580121 228.480391,35.7803256 227.638214,36.9476693 C226.796038,38.1134483 225.878667,39.1759502 224.854353,40.1367398 C223.828367,41.0631037 222.728859,41.8517649 221.520737,42.4354368 C220.310943,43.0191087 218.992536,43.3962264 217.637366,43.3962264" id="Fill-15"></path>
        </g>
      </g>
    </g>
  </g>
</svg>