<?xml version="1.0" encoding="UTF-8"?>
<svg width="232px" height="54px" viewBox="0 0 232 54" version="1.1" xmlns="http://www.w3.org/2000/svg" xmlns:xlink="http://www.w3.org/1999/xlink">
    <!-- Generator: Sketch 53 (72520) - https://sketchapp.com -->
    <title>logo_shadowme_home2</title>
    <desc>Created with Sketch.</desc>
    <g id="Page-1" stroke="none" stroke-width="1" fill="none" fill-rule="evenodd">
        <g id="FAQ-General" transform="translate(-1263.000000, -846.000000)" fill="#000000" fill-rule="nonzero">
            <g id="Group" transform="translate(1192.000000, 760.000000)">
                <g id="logo_shadowme_home2" transform="translate(71.000000, 85.972868)">
                    <path d="M21.5650618,21.4461892 C22.8962541,21.4461892 24.0644969,20.9776045 25.0704473,20.0390807 C26.0750835,19.1012341 26.8904881,17.9250323 27.5160039,16.5104753 C28.1408627,15.0965954 28.5482364,13.5635379 28.7387822,11.9113027 C28.9286709,10.2590676 28.8741354,8.73345867 28.5751756,7.33244452 C28.2762159,5.93278468 27.7124632,4.7775744 26.8839175,3.86681362 C26.0547148,2.95740715 24.9206388,2.5165854 23.4810326,2.54367122 C22.3660112,2.57211133 21.1984254,2.93641564 19.9756471,3.63590699 C18.7528688,4.33607549 17.5773984,5.32335368 16.449893,6.59706448 C15.3223876,7.87212955 14.289498,9.41872997 13.3518813,11.2388972 C12.4149217,13.0590644 11.6875624,15.1033668 11.1717747,17.3711273 C10.8721579,18.7159383 10.7236635,19.8995888 10.7236635,20.9214014 C10.7236635,21.943214 10.8314205,22.8607462 11.0495625,23.6726437 C11.9457848,23.3361024 12.6521183,22.9095007 13.1685631,22.3914844 C13.6843509,21.873468 14.1061798,21.3622231 14.4327358,20.8584269 C14.7586349,20.3539534 15.04971,19.9063602 15.3085894,19.5136158 C15.5668118,19.1215485 15.8854832,18.8838704 16.2665748,18.7999044 C16.4564636,18.7721414 16.7416252,18.891319 17.1220597,19.1567601 C17.5024942,19.4235554 17.9236661,19.724208 18.3862324,20.0600722 C18.8474846,20.3959364 19.3501313,20.7108091 19.8941724,21.0053674 C20.4368993,21.2992486 20.9940815,21.4461892 21.5650618,21.4461892 M12.720452,41.1044016 C12.502967,41.3840626 12.2578857,41.5310032 11.9865222,41.5459004 C11.7145016,41.5594434 11.4089713,41.566892 11.0699312,41.566892 C10.729577,41.566892 10.3425719,41.6149693 9.90825897,41.7138326 C9.47328894,41.8113415 8.99758154,42.0849083 8.48113673,42.5331787 C7.20382289,43.6247373 6.3213988,44.6675414 5.8325503,45.6622682 C5.34304472,46.6556407 5.15249894,47.5521815 5.26156997,48.3498588 C5.36998396,49.1482137 5.71625166,49.8206192 6.30103009,50.3663985 C6.88515151,50.9128548 7.61185373,51.2974735 8.48113673,51.5216087 C9.35107682,51.7457439 10.3018346,51.7802781 11.3347242,51.6265664 C12.3669567,51.4728542 13.3860482,51.0807867 14.3913414,50.4503642 C15.3966347,49.8206192 16.3276809,48.9389758 17.1838228,47.8047567 C18.0393077,46.6698609 18.7121314,45.2207691 19.20098,43.4568052 C19.6898284,41.6921639 19.6898284,40.0399287 19.20098,38.5007769 C18.7121314,36.9595937 17.69304,35.7001029 16.1443627,34.7202733 C14.9754628,33.9916647 13.9287751,33.2914962 13.0056136,32.6197679 C12.0817951,31.9473623 11.2460218,31.275634 10.4989509,30.6032284 C9.75122295,29.9308229 9.07248572,29.238103 8.46142511,28.5237144 C7.8497074,27.8093259 7.25901545,27.04686 6.68803517,26.2342853 C6.44361092,26.2342853 6.09668617,26.171988 5.64857505,26.0453617 C5.20046393,25.9194127 4.73789758,25.7453863 4.26284723,25.5205739 C3.78713981,25.2971159 3.32523054,25.0309977 2.87711941,24.7228965 C2.42835123,24.4147952 2.06894245,24.092474 1.79692191,23.7566098 C1.14512391,22.9162722 0.683214634,22.1815693 0.411194095,21.5511467 C0.139830611,20.9214014 0.0511282617,20.5083426 0.146401156,20.3119704 C0.24167405,20.1162753 0.520265132,20.1792498 0.981517351,20.500894 C1.44408367,20.8232153 2.06894245,21.4881722 2.85675072,22.4964419 C3.37319551,23.1410845 3.9632304,23.6089921 4.63014065,23.9035504 C5.29507973,24.1974315 5.81809507,24.3592693 6.19918667,24.3863551 C5.79115584,22.594628 5.68274186,20.7602407 5.87328768,18.8838704 C6.06251932,17.0075001 6.48434829,15.1873329 7.13680333,13.4226916 C7.78860136,11.6587274 8.65788437,9.9929494 9.74530947,8.4246803 C10.8314205,6.85641121 12.0745675,5.4912858 13.4747505,4.32930403 C14.8736194,3.16732227 16.401928,2.24369575 18.0596764,1.55707016 C19.7167677,0.870444573 21.4428497,0.527131783 23.2359512,0.527131783 C25.055992,0.527131783 26.6532914,0.81491864 28.0252211,1.38846092 C29.3971507,1.96335749 30.5042875,2.78879791 31.3472883,3.86681362 C32.188975,4.94550648 32.7330161,6.26120028 32.9774404,7.8152493 C33.2218646,9.36997551 33.1265918,11.1407111 32.6922788,13.1294876 C32.3111872,14.8934517 31.7270658,16.4339578 30.9399146,17.7496516 C30.1507922,19.0660226 29.2479994,20.1718012 28.2289079,21.0676648 C27.2098165,21.9648827 26.1099074,22.636611 24.9278664,23.0842042 C23.7458255,23.5324746 22.5696981,23.7566098 21.4021123,23.7566098 C20.9126068,23.7566098 20.4033896,23.6794152 19.8738037,23.525026 C19.3435607,23.3719911 18.8343435,23.1613989 18.345495,22.8952807 C17.8559895,22.6291625 17.4078783,22.3217384 16.9998476,21.970977 C16.5924738,21.6215699 16.2797159,21.264037 16.0622309,20.8997327 C16.2527767,20.7040377 16.3073122,20.7602407 16.2258374,21.0676648 C16.1443627,21.3764432 15.9203071,21.7752819 15.5530137,22.2655353 C15.1863773,22.7557887 14.6903012,23.259585 14.0654424,23.7769241 C13.4399266,24.2956176 12.6797146,24.6802363 11.7828353,24.9321345 C12.1087343,25.549014 12.5299062,26.1367764 13.046351,26.6967757 C13.5621387,27.2574523 14.1265485,27.8032316 14.7376091,28.3347908 C15.3493268,28.8670272 15.9945542,29.3992636 16.6739486,29.9308229 C17.3526858,30.4630593 18.0458782,30.9959728 18.7528688,31.5275321 C21.1169507,33.3476993 22.7602438,35.2938156 23.6847195,37.365881 C24.6078809,39.4379464 24.716952,41.6359608 24.0106184,43.9606015 C23.5756484,45.3887015 22.882456,46.7335126 21.9316982,47.993003 C20.9802834,49.2531709 19.8258387,50.3311867 18.4677072,51.2277275 C17.1082615,52.1235912 15.5530137,52.7750052 13.8006495,53.1806155 C12.0482853,53.5869028 10.1526832,53.6356572 8.11450036,53.3282329 C6.53822676,53.0756577 5.36998396,52.4878954 4.60911494,51.5642688 C3.84824587,50.6392881 3.43364452,49.5748154 3.36596791,48.3715274 C3.29894836,47.1668857 3.53548796,45.920938 4.07952904,44.633007 C4.62291308,43.344399 5.42451947,42.2386203 6.48434829,41.3149938 C7.40816685,40.4746562 8.291248,39.9349712 9.13359181,39.6972931 C9.97527853,39.459615 10.7026378,39.3959634 11.3143555,39.5083695 C11.9254161,39.6200985 12.3741843,39.8367851 12.6593459,40.1597835 C12.9445076,40.4807505 12.9648762,40.7956232 12.720452,41.1044016" id="Fill-1"></path>
                    <path d="M42.4056362,10.8265033 C42.151698,10.7439791 41.7844432,11.0188379 41.3045545,11.651745 C40.8246658,12.2853177 40.2949452,13.2350112 39.7167579,14.5008255 C39.1378878,15.7666398 38.5378563,17.3352645 37.917346,19.2066998 C37.296153,21.0788005 36.7166003,23.2111186 36.180736,25.6056506 C36.4626621,25.2755539 36.8230906,24.7597779 37.2606562,24.0576569 C37.6982218,23.3555359 38.1637753,22.5655667 38.6579992,21.6837559 C39.1515404,20.8032763 39.646447,19.8675587 40.1406709,18.8766031 C40.6342121,17.8856475 41.0786041,16.9299644 41.4745293,16.0075571 C41.8690892,15.0851499 42.1865121,14.2319564 42.4267977,13.4473112 C42.6664008,12.6633316 42.7872264,12.0237693 42.7872264,11.5279587 C42.7872264,11.1432896 42.660257,10.9090274 42.4056362,10.8265033 L42.4056362,10.8265033 Z M34.9956909,32.1290532 C35.6441891,31.1933356 36.3568545,30.1338318 37.1336871,28.9498761 C37.909837,27.766586 38.7221664,26.6518442 39.5686272,25.6056506 C40.415088,24.5601226 41.2765667,23.679643 42.151698,22.9635461 C43.0261467,22.2481148 43.9019604,21.8900664 44.777092,21.8900664 C46.0187953,21.8900664 46.8727648,22.2760665 47.339001,23.0460703 C47.8045546,23.8174051 48.0373313,24.7943848 48.0373313,25.9776749 C47.980673,27.1336788 47.7765668,28.4274449 47.4236471,29.8583075 C47.0700449,31.2891701 46.6966464,32.7419949 46.3014039,34.2134541 C45.9054789,35.6862443 45.5395892,37.1244277 45.2003224,38.5273386 C44.861738,39.930915 44.6924459,41.1701086 44.6924459,42.2429228 C44.6924459,42.4632091 44.7136071,42.7181023 44.7559303,43.0069369 C44.7982532,43.2957715 44.8542289,43.5639751 44.9252225,43.8115476 C44.9955332,44.0597856 45.0876884,44.266096 45.2003224,44.4311444 C45.3129559,44.5961927 45.4399252,44.6787169 45.581912,44.6787169 C45.891826,44.6787169 46.2802423,44.4171685 46.7457959,43.8947373 C47.2120321,43.370975 47.6987469,42.6974713 48.2073059,41.8715641 C48.7151824,41.0456568 49.2373943,40.1378909 49.7739411,39.1469354 C50.3098054,38.1559798 50.8040295,37.1923105 51.2559302,36.2572584 C51.7071485,35.3222063 52.1092173,34.4683473 52.4628195,33.6970125 C52.8157392,32.9270087 53.0765037,32.3626499 53.2457958,32.0046015 C53.2457958,31.8947911 53.2601308,31.8262428 53.2881186,31.798291 L53.3304419,31.8395531 L53.5004165,31.3856702 C53.5563923,31.2485736 53.6342121,31.1241218 53.7331932,31.0143114 C53.8314921,30.904501 53.9939581,30.8485975 54.2199084,30.8485975 C54.4458588,30.8485975 54.6219772,30.9111562 54.749629,31.0342769 C54.8765979,31.1587287 54.9960581,31.3171219 55.109375,31.5094564 C54.9673878,31.757029 54.8131135,32.0598394 54.6438213,32.4172223 C54.4745292,32.7752708 54.3188895,33.1472951 54.1775852,33.5319641 L53.796678,34.4403955 C53.2314604,35.7348271 52.596615,37.1310828 51.8914585,38.6304938 C51.1849366,40.1305703 50.4231219,41.5274915 49.6046489,42.8212575 C48.7854935,44.1150236 47.9246973,45.1951585 47.0215783,46.0616623 C46.1177763,46.9288315 45.1723345,47.3620836 44.1838865,47.3620836 C43.3087553,47.3620836 42.5817547,47.2243212 42.0035673,46.9494626 C41.4246973,46.6739386 40.9659702,46.2952592 40.6273859,45.8140898 C40.2881189,45.3329206 40.0485159,44.7678963 39.9072115,44.1216787 C39.7659072,43.4747957 39.6955963,42.7653541 39.6955963,41.9953503 C39.751572,41.224681 39.8648885,40.3442014 40.0341806,39.3532458 C40.2034728,38.3622902 40.4082617,37.3440484 40.6485474,36.2978549 C40.8881504,35.2523269 41.1495976,34.22743 41.4315236,33.2224985 C41.7134497,32.2188981 41.9824058,31.3171219 42.2363441,30.5185009 L42.4479593,29.8583075 C42.7585556,28.8400657 43.0261467,27.9456102 43.2527796,27.1742754 C43.4780475,26.4042716 43.6050164,25.8266024 43.6336872,25.4406023 C43.6336872,25.0559332 43.5203703,24.8629331 43.2951029,24.8629331 C42.7298852,24.8629331 42.1162012,25.1863746 41.4526852,25.8332576 C40.7891691,26.4801406 40.0983478,27.3120375 39.3781735,28.3309448 C38.6579992,29.3491866 37.9446512,30.4639285 37.2394947,31.6745048 C36.5336556,32.8857466 35.8701395,34.0417506 35.2496291,35.1425165 L34.5717778,37.0825001 C34.2331935,38.0455039 33.9717463,39.1263044 33.788119,40.3235703 C33.6044916,41.5208364 33.5130192,42.6422333 33.5130192,43.6884269 C33.5130192,44.7060031 33.6188268,45.497969 33.830442,46.0616623 C34.0427398,46.6260214 34.1485474,46.9760833 34.1485474,47.1145112 C34.1485474,47.3893698 33.9082618,47.5271318 33.4283731,47.5271318 C32.6092174,47.5271318 31.9388751,47.3687387 31.417346,47.0532834 C30.8951343,46.7358313 30.4719039,46.3232107 30.1469721,45.8140898 C29.822723,45.3049689 29.5824374,44.7266342 29.4267978,44.0804167 C29.2718409,43.4335337 29.1660333,42.7799955 29.109375,42.1198021 L29.109375,40.7574878 C29.109375,39.5728666 29.2220089,38.238504 29.4479593,36.7524034 C29.6745924,35.2663028 29.9285306,33.752916 30.2104567,32.2115774 C30.5210532,30.504525 30.8876254,28.7016381 31.3115384,26.8029166 C31.7347688,24.9035297 32.2146575,23.0460703 32.7512044,21.229873 C33.2870687,19.4130102 33.8795913,17.6933129 34.5294548,16.0694503 C35.1786356,14.4455875 35.8844747,13.0493318 36.6469721,11.8786865 C37.4087869,10.7093722 38.2136072,9.82157185 39.0607507,9.21595094 C39.9072115,8.61099549 40.796678,8.40468506 41.7284675,8.59635414 C42.151698,8.67954381 42.525779,8.76872316 42.8500283,8.86522321 C43.1742773,8.96172322 43.4432334,9.09283018 43.6548484,9.25787855 C43.8664638,9.42292687 44.0289297,9.63589249 44.1415637,9.89744087 C44.2541976,10.1589892 44.3115383,10.509717 44.3115383,10.9502895 C44.3115383,11.8860072 44.0787617,13.0626421 43.6125255,14.4795289 C43.1469719,15.8977467 42.5182701,17.4177887 41.7284675,19.0416514 C40.9379824,20.6661797 40.0341806,22.3233183 39.0184277,24.0163948 C38.001992,25.7088059 36.9288982,27.2987272 35.7998287,28.7841622 L34.9956909,32.1290532 Z" id="Fill-4"></path>
                    <path d="M63.5218798,23.6788547 C62.565933,23.8189163 61.644316,24.4310126 60.7576889,25.5164903 C59.8704013,26.6033147 59.0715783,27.9190861 58.3618805,29.4644777 C57.6515225,31.0098693 57.0573569,32.6670408 56.580704,34.435319 C56.1027305,36.2042705 55.7884828,37.8607687 55.6386212,39.4054869 C55.4880991,40.9508786 55.5290303,42.2464487 55.7614152,43.2908506 C55.9931401,44.3352525 56.4638512,44.9123334 57.1742092,45.0241133 C57.7743166,45.1076116 58.3684822,44.9823642 58.9553861,44.6483711 C59.5422899,44.3143779 60.1159898,43.8470569 60.6758261,43.2484281 C61.2350018,42.6497993 61.7539065,41.9602651 62.2318799,41.1811722 C62.7091932,40.401406 63.146235,39.6007652 63.5423456,38.7792499 C63.9377958,37.9577345 64.2797712,37.1638274 64.5662909,36.3988754 C64.852811,35.6325766 65.06407,34.9571833 65.2007281,34.3726953 C65.2825909,34.1222004 65.357852,33.6696936 65.4265108,33.0145015 C65.4938496,32.3613294 65.542043,31.6226389 65.5697707,30.8011236 C65.5968383,29.9796082 65.5902365,29.1372183 65.5493053,28.2739538 C65.5083737,27.4113626 65.4119867,26.6241893 65.2627852,25.9137805 C65.1122635,25.2040451 64.9003444,24.6397583 64.6276883,24.2222669 C64.3543717,23.8047755 63.9859892,23.6236381 63.5218798,23.6788547 M68.6000159,42.6430655 C68.5722883,42.8376704 68.5590847,43.1090398 68.5590847,43.4578472 C68.5590847,43.8059811 68.6066177,44.0975518 68.7023446,44.3352525 C68.7980714,44.5709332 68.9683989,44.6827131 69.2146474,44.6692456 C69.4602359,44.6544314 69.8147548,44.3978762 70.2788642,43.8962132 C70.7977688,43.3110518 71.3780709,42.5110844 72.01977,41.4942908 C72.6608086,40.4774972 73.3025077,39.349597 73.9448668,38.1112636 C74.5859054,36.8722568 75.2203427,35.57736 75.8488378,34.2265733 C76.4766728,32.8757865 77.0635767,31.574156 77.6095489,30.3203351 C77.6643441,30.1533385 77.7871386,30.0489656 77.9779318,30.0072165 C78.1693851,29.9654674 78.3535766,29.9587336 78.5311659,29.9863419 C78.7080951,30.0146236 78.8586172,30.0772473 78.9814117,30.1742131 C79.1048657,30.2725256 79.1385355,30.3910393 79.0844003,30.5297541 C78.8110838,31.1708055 78.449303,32.0482108 77.9990577,33.1612968 C77.5481519,34.2750562 77.0292472,35.4790475 76.4423434,36.7739443 C75.8554395,38.0695144 75.1939351,39.3846124 74.4565096,40.7219317 C73.7190837,42.0585776 72.9268629,43.2484281 72.081167,44.29283 C71.2348111,45.3372319 70.3468634,46.1661544 69.4193047,46.7789239 C68.4904254,47.3910201 67.521275,47.6273744 66.5111934,47.4886595 C65.910426,47.4051611 65.4265108,47.168134 65.0574678,46.7789239 C64.6890853,46.3883677 64.3953034,45.9223933 64.1774425,45.3796545 C63.9582616,44.8362422 63.8150013,44.2443471 63.7470025,43.6039692 C63.6790037,42.9629178 63.6446739,42.3366807 63.6446739,41.7245844 C63.2617672,42.3366807 62.8319873,42.9911995 62.3546743,43.6874675 C61.8767009,44.383062 61.3241269,45.0241133 60.6962914,45.6086014 C60.0677963,46.1937626 59.3514967,46.667144 58.5460719,47.0294187 C57.7406472,47.3910201 56.8058266,47.5438759 55.7409494,47.4886595 C54.9487286,47.460378 54.2667584,47.2866475 53.6930585,46.9667953 C53.1200187,46.6455961 52.6427053,46.2281049 52.2597987,45.7136476 C51.8782122,45.1978436 51.591032,44.5992148 51.4002388,43.9177611 C51.2094455,43.2342873 51.1130586,42.5184915 51.1130586,41.7656602 C51.0866515,40.4849043 51.2021837,39.0856347 51.4609758,37.5678514 C51.7210883,36.0507414 52.1099367,34.5329581 52.6288417,33.0145015 C53.1477463,31.4973915 53.7683196,30.0354982 54.4918811,28.6294948 C55.2147829,27.2234915 56.0274695,25.9912184 56.9286207,24.9320023 C57.8291118,23.8741329 58.8121262,23.0391501 59.8770031,22.4263805 C60.9418799,21.8136108 62.0476884,21.5489751 63.1944285,21.6324734 C64.2315777,21.7159717 65.0231384,22.2526502 65.5697707,23.2404887 C66.1157433,24.2290006 66.4973294,25.4060571 66.7165108,26.7703113 C66.770646,25.7959402 66.9139058,24.9468165 67.1462907,24.2222669 C67.3780152,23.4977173 67.5490031,23.0250093 67.6585936,22.8014494 C67.9041821,22.1334631 68.3405638,21.7368463 68.9683989,21.6115988 C69.5962339,21.4863514 70.2108654,21.5004922 70.8116329,21.653348 C71.4117403,21.8068771 71.9029173,22.0290902 72.2858239,22.3213342 C72.6680708,22.6142516 72.7499337,22.8580127 72.5314124,23.0526176 C72.339959,23.2196141 72.1148364,23.7697601 71.8560443,24.7030554 C71.5959317,25.6356774 71.3298774,26.7561704 71.0572214,28.0652081 C70.7839052,29.3742457 70.5178509,30.8011236 70.2590589,32.3465152 C69.9989463,33.8919068 69.7533578,35.3618806 69.5216329,36.7537431 C69.2892484,38.1456056 69.0918534,39.3778786 68.9274672,40.4498888 C68.7637416,41.5218991 68.6541511,42.2531824 68.6000159,42.6430655" id="Fill-6"></path>
                    <path d="M87.332825,23.8156578 C86.5871873,23.7610369 85.8555675,24.0228176 85.1379662,24.6009999 C84.4196975,25.1791822 83.7441506,25.9645243 83.1093238,26.9563601 C82.4738295,27.9475298 81.8803897,29.0772501 81.3283374,30.3441888 C80.7756176,31.6117936 80.3070072,32.9133699 79.9205038,34.2489177 C79.5333326,35.5857978 79.2302711,36.9006963 79.0093167,38.1949454 C78.7883622,39.4891946 78.684894,40.6395642 78.6989125,41.6453883 C78.7122631,42.6505463 78.8577861,43.4631989 79.1334786,44.083346 C79.4091711,44.7028271 79.8377293,45.0125676 80.4178181,45.0125676 C81.1627884,45.0125676 81.9010835,44.6202296 82.6327032,43.8355536 C83.3643225,43.0502115 84.0618979,42.1063355 84.7240938,41.0052579 C85.3862896,39.902848 86.0077659,38.7531445 86.5871873,37.554815 C87.167276,36.3564856 87.6639229,35.3306782 88.0784632,34.4760608 C88.1332012,34.3388424 88.2159757,33.9804759 88.3267866,33.4022936 C88.4362623,32.8234452 88.5263799,32.1486771 88.5958038,31.3773233 C88.6645598,30.6059695 88.7126226,29.7799947 88.740659,28.8980669 C88.768028,28.0168051 88.740659,27.2041525 88.6578845,26.4601092 C88.5751101,25.7167319 88.4302548,25.0965847 88.222651,24.6009999 C88.0157146,24.1054151 87.7193288,23.8436344 87.332825,23.8156578 M91.5977137,42.6165747 C91.5977137,42.8090801 91.590371,43.1121596 91.5770199,43.5258131 C91.5630019,43.9388004 91.604389,44.2965008 91.7011819,44.5995802 C91.7979744,44.9026597 91.9708665,45.0678546 92.2191899,45.095165 C92.4675133,45.1224755 92.8399983,44.8473726 93.337313,44.2691903 C93.9995089,43.5258131 94.6476863,42.7264827 95.283181,41.8725314 C95.9180078,41.0185801 96.5735284,40.0400665 97.25041,38.9389888 C97.9266239,37.836579 98.6375499,36.5836286 99.3825202,35.1788054 C100.128158,33.7739823 100.928534,32.1619993 101.784315,30.3441888 C102.060008,30.2615913 102.253593,30.2202926 102.364405,30.2202926 C102.584691,30.2202926 102.75024,30.2895678 102.861052,30.4267862 C102.971195,30.5653368 103.053969,30.7158774 103.109375,30.8810723 L102.819664,31.6251157 C102.571341,32.1486771 102.219549,32.9333531 101.763622,33.9804759 C101.308362,35.0275988 100.769661,36.1779684 100.148852,37.4302527 C99.5280433,38.6838692 98.8237926,39.951474 98.0367674,41.2317348 C97.25041,42.5126618 96.4079794,43.6557042 95.5108107,44.6615283 C94.613642,45.6673524 93.6610678,46.4387064 92.653756,46.976256 C91.6457764,47.5124734 90.6177705,47.6576853 89.5690712,47.4098925 C88.960946,47.271342 88.4576234,46.9962393 88.057102,46.5832518 C87.6565802,46.1702646 87.3395007,45.6740135 87.1051953,45.095165 C86.8702224,44.5169827 86.7180245,43.8968356 86.6499358,43.2360558 C86.580512,42.575276 86.5598182,41.9411405 86.5871873,41.3356478 C86.6145563,41.1151658 86.63525,40.8946838 86.6499358,40.674868 C86.6632864,40.4537199 86.6973308,40.2332379 86.7527362,40.012756 C86.5871873,40.5363174 86.2834584,41.2110855 85.8422169,42.0377263 C85.4003081,42.8643671 84.8409126,43.6763536 84.1646987,44.4763501 C83.4884845,45.2743483 82.7088024,45.9631046 81.8256517,46.541953 C80.941834,47.1201353 79.9892599,47.4098925 78.9679296,47.4098925 C78.1675538,47.4098925 77.4633031,47.2573536 76.8565127,46.9549405 C76.2490549,46.6511949 75.752408,46.2382073 75.3659042,45.7153122 C74.9794008,45.1917508 74.6823472,44.5855919 74.4754113,43.8968356 C74.2684748,43.2080792 74.1509886,42.4926785 74.1229522,41.7486352 C74.0682141,40.399099 74.179025,38.9456499 74.4547175,37.3896201 C74.7310774,35.8335903 75.1449498,34.2908826 75.6970022,32.7614971 C76.2490549,31.2327777 76.9319441,29.7799947 77.7470057,28.402482 C78.5607325,27.0249693 79.4719192,25.827306 80.4792314,24.8068275 C81.4872111,23.7883473 82.5913158,23.0096663 83.7922134,22.4721166 C84.993111,21.9358991 86.2420709,21.7493887 87.5397614,21.9145837 C87.8982284,21.9698707 88.2573627,22.1417267 88.6164971,22.431484 C88.974964,22.7205752 89.2793608,23.1342286 89.5276842,23.6711122 C89.7760077,24.2079958 89.9475645,24.8694417 90.0450244,25.6547838 C90.1418173,26.4394598 90.1204562,27.3553592 89.9829437,28.402482 C90.1204562,27.8795867 90.2659793,27.231463 90.4181772,26.4601092 C90.5690403,25.6894214 90.713896,24.9040793 90.8527433,24.1054151 C90.9902559,23.3060847 91.1217605,22.542058 91.245922,21.8113368 C91.3700839,21.0819478 91.4875702,20.4831162 91.5977137,20.0141756 C91.7632626,19.243488 91.929479,18.4168471 92.095028,17.5349192 C92.2605769,16.6536575 92.4054326,15.8203555 92.5295941,15.0350134 C92.653756,14.2503374 92.7572238,13.5409317 92.8399983,12.9067962 C92.9234406,12.273993 92.9648276,11.7910643 92.9648276,11.4606743 C92.9648276,10.9650895 92.9020795,10.6546829 92.7779175,10.5314528 C92.653756,10.4068905 92.5089004,10.3449423 92.3433514,10.3449423 C92.1778024,10.3449423 91.9975681,10.3595967 91.8046501,10.3862411 C91.6117321,10.4142177 91.4321647,10.3449423 91.2666157,10.1797474 C91.1564722,10.0698395 91.0937241,9.92529387 91.080373,9.74611064 C91.066355,9.56692741 91.1424542,9.38841028 91.3080032,9.20856095 C91.4735522,9.03004382 91.7565873,8.87150999 92.1571091,8.73362547 C92.5569631,8.59574099 93.1303766,8.52713178 93.8753469,8.52713178 C94.7311286,8.52713178 95.4140178,8.6576891 95.9253505,8.9194698 C96.4353484,9.1812505 96.8218518,9.5256287 97.0841932,9.95260433 C97.3465351,10.3802461 97.5054088,10.8618426 97.5608142,11.3987262 C97.6155523,11.9362759 97.6022013,12.4798206 97.5194268,13.0313586 C97.3538778,14.2436763 97.1055544,15.6484995 96.7744564,17.2458281 C96.4426911,18.8431566 96.0768815,20.5450643 95.677027,22.3488865 C95.2758378,24.1533749 94.8552901,25.999162 94.4133813,27.8855817 C93.9714725,29.7726676 93.5576,31.6044664 93.1717641,33.3809781 C92.7845928,35.158156 92.4468196,36.8460754 92.1571091,38.4427379 C91.8667308,40.0400665 91.6804881,41.4315674 91.5977137,42.6165747" id="Fill-8"></path>
                    <path d="M111.172103,40.3979917 C111.488635,39.928883 111.862211,39.2052295 112.294223,38.2276975 C112.725541,37.2488329 113.114422,36.1680171 113.459475,34.9825847 C113.804529,33.798485 114.070276,32.5717391 114.257412,31.304346 C114.444548,30.0362865 114.473071,28.8795071 114.343676,27.8320086 C114.214281,26.7845102 113.88314,25.9302525 113.350951,25.2692357 C112.818761,24.6075526 112.006215,24.2770441 110.912618,24.2770441 C109.934501,24.2770441 109.179697,24.7461529 108.647507,25.6823713 C108.114622,26.619256 107.719479,27.8873155 107.460689,29.485217 C107.288162,30.3674612 107.194246,31.3803096 107.180333,32.5237621 C107.165724,33.6665482 107.288162,34.776017 107.546953,35.8508356 C107.805743,36.9256543 108.222451,37.8831958 108.798468,38.7234601 C109.373789,39.5637245 110.164769,40.1221238 111.172103,40.3979917 M105.388976,45.3576168 C105.734725,45.3576168 106.136824,45.254333 106.597359,45.0484316 C107.057199,44.8411975 107.503821,44.5786565 107.935138,44.2628078 C108.367151,43.9449599 108.755336,43.5944611 109.10039,43.2086458 C109.446139,42.8221642 109.661798,42.4650019 109.748061,42.1331608 C109.085781,41.9405864 108.496546,41.5267845 107.97827,40.8937543 C107.460689,40.2593914 107.021719,39.5017542 106.662752,38.6201763 C106.302394,37.737932 106.015081,36.76773 105.799423,35.7062382 C105.583764,34.6454128 105.453673,33.5839211 105.410542,32.5237621 C105.36741,31.4629367 105.410542,30.436095 105.540632,29.4439034 C105.670027,28.4517119 105.878033,27.5841273 106.166042,26.8398171 C105.878033,27.2256323 105.525328,27.9492858 105.108619,29.0094448 C104.691216,30.0709365 104.30303,31.2903527 103.943368,32.6676932 C103.583705,34.0463664 103.28874,35.4783473 103.059168,36.9669679 C102.828204,38.4549221 102.735679,39.8189356 102.778811,41.0590085 C102.821943,42.2997477 103.037602,43.325923 103.425787,44.1382008 C103.813972,44.9511448 104.467905,45.3576168 105.388976,45.3576168 M102.972904,47.4246269 C101.678257,47.2040659 100.67788,46.6456667 99.9731628,45.7507619 C99.2691421,44.8545244 98.7724316,43.8216857 98.4844231,42.6502466 C98.1971102,41.4788075 98.074672,40.2527279 98.1178035,38.9713415 C98.1609354,37.6906214 98.2687648,36.553166 98.4412916,35.5616408 C98.9310451,32.7503202 99.6496751,30.4221017 100.599268,28.5756525 C101.548862,26.7298697 102.612546,25.2692357 103.792406,24.1944171 C104.971572,23.1195984 106.201522,22.3899478 107.482255,22.0041325 C108.762293,21.6176509 109.977633,21.46639 111.128972,21.5490171 C112.509882,21.6596308 113.573566,22.10675 114.32211,22.8923738 C115.069958,23.6773313 115.587539,24.656196 115.875547,25.8269687 C116.16286,26.9990741 116.264428,28.2937875 116.178165,29.7124415 C116.091206,31.1324283 115.897113,32.5237621 115.595191,33.8871093 C115.292573,35.2511228 114.925954,36.5258458 114.494637,37.7112782 C114.063319,38.8953778 113.659829,39.8322625 113.286949,40.5219323 C113.746788,40.6318797 114.235846,40.5279295 114.753427,40.2120807 C115.271703,39.8942329 115.789284,39.4264569 116.306864,38.8060872 C116.824445,38.186384 117.335764,37.4633968 117.838736,36.6357931 C118.342403,35.8095221 118.824504,34.9619279 119.285039,34.0943434 C119.744879,33.2260924 120.176196,32.3585079 120.579687,31.4902569 C120.981786,30.622006 121.326839,29.843712 121.614848,29.1547086 C121.787375,28.7415731 121.97451,28.4930255 122.176256,28.4103983 C122.377305,28.3277712 122.557484,28.3344347 122.715402,28.4310551 C122.87332,28.5283419 122.988801,28.6995932 123.060455,28.9474745 C123.13211,29.1953558 123.125153,29.4439034 123.03889,29.6917848 C122.83784,30.215534 122.564441,30.9178643 122.219387,31.8001086 C121.873638,32.6823528 121.45693,33.6185712 120.967872,34.6107627 C120.478118,35.6029543 119.917406,36.6018094 119.285039,37.6079943 C118.651282,38.6128465 117.968826,39.4884272 117.234892,40.2320711 C116.501653,40.9763814 115.70302,41.5481076 114.83969,41.9479162 C113.977056,42.3470584 113.070594,42.4503423 112.121697,42.2577678 C111.517157,43.028732 110.884095,43.7597153 110.22251,44.4487187 C109.56023,45.1370558 108.848556,45.7301051 108.086099,46.2258676 C107.323642,46.7216305 106.518053,47.0867888 105.670027,47.3213433 C104.821306,47.5552311 103.921802,47.5898814 102.972904,47.4246269" id="Fill-10"></path>
                    <path d="M145.845097,24.8212085 C145.364107,24.6559004 144.982185,24.841872 144.700013,25.3797898 C144.417841,25.9177077 144.212874,26.6275992 144.085794,27.5087978 C143.958715,28.3913297 143.923187,29.3631812 143.980578,30.4243523 C144.036602,31.4855235 144.162999,32.4713729 144.361134,33.3805673 C144.784733,32.3887189 145.131127,31.3955373 145.400318,30.4036888 C145.668142,29.4111738 145.865593,28.5159773 145.993356,27.7160995 C146.119753,26.9168883 146.169628,26.2483238 146.141616,25.710406 C146.11292,25.1724882 146.014536,24.8772 145.845097,24.8212085 L145.845097,24.8212085 Z M152.541376,31.8921281 C152.85156,31.6714951 153.113234,31.5888411 153.325034,31.644166 C153.537517,31.6994908 153.798508,31.8787968 154.109375,32.1814172 L154.109375,32.2227442 C153.601056,33.2712507 153.056527,34.1597816 152.477836,34.88967 C151.897779,35.6202251 151.234368,36.1788064 150.485555,36.5647474 C149.736741,36.9500219 148.88886,37.1573235 147.942595,37.1846527 C146.996329,37.2119818 145.915469,37.0466738 144.700013,36.6887285 C144.276414,37.7359018 143.731884,38.9277197 143.069157,40.2655153 C142.40438,41.6019777 141.613207,42.8351226 140.695637,43.9662831 C139.7767,45.0961104 138.738883,45.9986391 137.580135,46.6745361 C136.421387,47.349766 135.164255,47.549069 133.808055,47.2744444 C133.045577,47.109136 132.437507,46.8258459 131.985896,46.4259071 C131.533602,46.0259682 131.180375,45.5167128 130.926216,44.896141 C130.672056,44.2762357 130.502616,43.5530129 130.417897,42.7251394 C130.333177,41.8985991 130.290134,40.9614089 130.290134,39.9142356 C129.640388,41.126717 128.940766,42.2292152 128.192636,43.2210636 C127.443139,44.2142452 126.651966,45.0541169 125.819116,45.7440116 C124.985582,46.432573 124.130869,46.9291636 123.255659,47.2324508 C122.379082,47.5357375 121.502506,47.6050606 120.627296,47.4397522 C119.864818,47.2744444 119.249916,46.9844887 118.783957,46.5712184 C118.317315,46.157948 117.957256,45.6200304 117.703097,44.9581315 C117.448254,44.2968992 117.28633,43.517685 117.215958,42.6218219 C117.145586,41.7259587 117.109375,40.7261115 117.109375,39.6242799 C117.109375,38.7417481 117.145586,37.8325537 117.215958,36.8953636 C117.28633,35.95884 117.37105,35.0283155 117.470117,34.1044567 C117.569185,33.1812644 117.681917,32.2847347 117.808996,31.4168673 C117.936076,30.5483334 118.056324,29.7424565 118.169056,28.9979036 C118.310483,28.0327178 118.430731,27.1928461 118.529798,26.4749558 C118.628866,25.7590652 118.66371,25.2351453 118.635698,24.9045291 C118.607685,24.6292378 118.565326,24.4012727 118.507935,24.2219668 C118.45191,24.0433274 118.395886,23.8573558 118.338495,23.664052 L118.253775,23.4567504 L118.253775,23.498744 C118.197751,23.4160899 118.162223,23.3474337 118.147876,23.2914423 C118.133528,23.2367839 118.127379,23.1407986 118.127379,23.0021531 C118.070671,22.6442078 118.162223,22.4022448 118.402035,22.2789303 C118.643213,22.1542827 118.918552,22.064963 119.228736,22.0096382 C119.709043,21.9549798 120.103946,21.9476476 120.415496,21.9889746 C120.72568,22.0303016 120.994187,22.0922922 121.221017,22.1749462 C122.011508,22.5335581 122.583367,23.098805 122.937276,23.8706871 C123.28982,24.6425692 123.494787,25.4697761 123.551495,26.3516413 C123.579507,26.7929072 123.515967,27.5574571 123.360875,28.6459574 C123.2051,29.7357909 123.014481,30.9616036 122.789017,32.3267283 C122.562187,33.6911865 122.336723,35.1109695 122.111259,36.5847443 C121.884428,38.0591857 121.736168,39.403647 121.665796,40.6167949 C121.594741,41.8299429 121.630269,42.8217913 121.771696,43.5936734 C121.913124,44.3648889 122.223307,44.7235007 122.704297,44.6688424 C123.579507,44.5861883 124.413724,44.1522547 125.204897,43.3663748 C125.995387,42.5811614 126.736686,41.6019777 127.429475,40.4308233 C128.122264,39.2583358 128.756979,37.9632004 129.337036,36.5440839 C129.915727,35.1243008 130.417897,33.7391792 130.841496,32.3887189 L131.349815,28.8325956 C131.491242,27.8674097 131.610806,27.027538 131.710557,26.3096477 C131.808941,25.5937572 131.844469,25.0698372 131.816456,24.7385545 C131.787761,24.4639298 131.745401,24.2359646 131.688694,24.0566587 C131.631986,23.8773528 131.575962,23.6920477 131.519254,23.498744 L131.434535,23.2914423 L131.434535,23.3334359 C131.377827,23.2507818 131.342299,23.1814591 131.328635,23.1261342 C131.314287,23.0714759 131.308138,22.974824 131.308138,22.8361785 C131.250747,22.4788998 131.342299,22.2369367 131.583477,22.1136222 C131.823289,21.9889746 132.098628,21.899655 132.409495,21.84433 C132.889802,21.7896717 133.284705,21.7823395 133.596255,21.8236666 C133.906439,21.8649936 134.174946,21.9269841 134.401777,22.0096382 C135.192267,22.36825 135.764125,22.933497 136.118035,23.7047124 C136.470579,24.4765945 136.675546,25.304468 136.732254,26.1863333 C136.760266,26.6275992 136.696726,27.3714855 136.542317,28.4186588 C136.385859,29.4671653 136.19524,30.6516509 135.969776,31.9747821 C135.743628,33.2979133 135.524997,34.6763693 135.312514,36.1101502 C135.100715,37.542598 134.953138,38.8657291 134.867735,40.0795437 C134.783015,41.2920251 134.811028,42.304537 134.953138,43.1184126 C135.093882,43.9309551 135.404066,44.3928846 135.885056,44.5035343 C136.506106,44.6408467 137.156536,44.4068825 137.834294,43.800975 C138.512736,43.1937345 139.169314,42.4218524 139.805396,41.4853289 C140.441477,40.5474722 141.00582,39.5622894 141.501158,38.5284473 C141.994446,37.4952719 142.369536,36.6200723 142.623695,35.9028485 C142.171401,35.1589622 141.796994,34.2630991 141.501158,33.2152592 C141.203955,32.1674193 141.00582,31.0855846 140.906753,29.9697551 C140.807685,28.8532591 140.828866,27.7574265 140.970976,26.6822575 C141.11172,25.6070884 141.380227,24.6632327 141.775814,23.8500236 C142.171401,23.0368145 142.722763,22.4169092 143.429216,21.9889746 C144.134987,21.5617066 145.01088,21.4310599 146.056896,21.596368 C146.649935,21.679022 147.109061,22.0096382 147.434276,22.5882164 C147.758807,23.1681278 147.913899,24.008666 147.900234,25.1111642 C147.885203,26.2136624 147.688435,27.5787872 147.307196,29.2045387 C146.925274,30.8316234 146.32472,32.7333329 145.505534,34.9110001 C146.014536,35.4069243 146.600059,35.6688843 147.264153,35.6962134 C147.928247,35.7235426 148.585508,35.5862302 149.235254,35.2822767 C149.885,34.9796563 150.506734,34.5383904 151.099773,33.9598121 C151.693495,33.3805673 152.159453,32.7333329 152.498333,32.0161091 L152.541376,31.8921281 Z" id="Fill-12"></path>
                    <path d="M166.021497,25.1935417 C166.770713,24.8569749 167.325911,24.6961557 167.687091,24.7097269 C168.047601,24.7246553 168.263101,24.8223683 168.332249,25.0049015 C168.401397,25.1867561 168.332249,25.4188243 168.124805,25.6990705 C167.916018,25.9793166 167.617272,26.218849 167.229237,26.4149535 C166.173891,26.9476247 165.458914,27.529831 165.084306,28.1615722 C164.709699,28.792635 164.563346,29.3755198 164.646593,29.908191 C164.73051,30.4415408 164.986962,30.8697135 165.417962,31.1920305 C165.84762,31.515026 166.354481,31.6202031 166.937205,31.5082404 C167.603174,31.3962776 168.220807,31.0597109 168.790774,30.4971829 C169.359399,29.936012 169.852834,29.2913781 170.269065,28.5612453 C170.685296,27.8317911 171.011567,27.0813014 171.247878,26.3097763 C171.483519,25.5375727 171.602346,24.8712247 171.602346,24.3093754 C171.657396,22.8789665 171.441225,21.6785902 170.956517,20.7109606 C170.470467,19.7426526 169.560801,19.1048042 168.228191,18.7953799 C167.284287,18.5992755 166.340383,18.7112382 165.39648,19.1319467 C164.452575,19.5533338 163.549623,20.1918607 162.689637,21.048206 C161.828979,21.9038728 161.030084,22.9203588 160.294967,24.0996997 C159.559179,25.2776834 158.934161,26.4923095 158.421257,27.7401852 C157.907011,28.989418 157.518305,30.2386507 157.254468,31.4865264 C156.990632,32.7357592 156.901343,33.8513152 156.98459,34.8331946 C157.177936,37.1905192 157.755288,38.9724232 158.712619,40.1789066 C159.670621,41.3847114 160.863592,42.0938087 162.294217,42.3048415 C163.7235,42.5145172 165.30652,42.2763419 167.041934,41.5889585 C168.776676,40.9008966 170.504705,39.8138402 172.226021,38.3264321 C174.086304,36.7270613 175.676037,34.7137676 176.994549,32.2865511 C178.313732,29.8593345 179.458366,27.1301579 180.431138,24.0996997 C181.402567,21.0685629 182.241742,17.7999294 182.950005,14.2917635 C183.658269,10.7842761 184.330281,7.1505762 184.970739,3.38930661 C185.025789,2.94077708 184.996921,2.58317486 184.886821,2.31649997 C184.775379,2.05050364 184.720329,1.8041856 184.720329,1.57958156 C184.720329,1.13105203 184.899577,0.850127326 185.261429,0.737486023 C185.621939,0.626201843 185.997218,0.555631388 186.385252,0.527131783 C186.857204,0.583452435 187.245239,0.667594132 187.552041,0.779556872 C187.856158,0.892198175 188.106568,1.03266052 188.301257,1.20094392 C188.495273,1.36922732 188.648339,1.55854613 188.759781,1.76890038 C188.869881,1.97925462 188.981324,2.21132285 189.092766,2.46374794 C189.369358,3.13688152 189.60567,4.25311613 189.80103,5.81041609 C189.995047,7.36703749 190.147442,9.15640569 190.258884,11.1771635 C190.370326,13.1972428 190.452901,15.3435347 190.509294,17.6173962 C190.564344,19.8905791 190.597911,22.0789418 190.61268,24.1838414 C190.626778,26.2880624 190.626778,28.2104287 190.61268,29.9502619 C190.597911,31.6907736 190.591868,33.0227909 190.591868,33.9490282 C190.952378,33.1910743 191.42433,32.2227662 192.007724,31.0447825 C192.591119,29.8661202 193.236277,28.5469955 193.94454,27.088087 C194.652132,25.6291786 195.402691,24.0779857 196.192858,22.4372226 C196.985039,20.7951024 197.769164,19.1468751 198.546576,17.490505 C199.323316,15.8354922 200.079245,14.2076218 200.816376,12.6082509 C201.550822,11.0088801 202.216791,9.52147209 202.814955,8.14602674 C203.411105,6.77193854 203.918638,5.55799097 204.334198,4.5055412 C204.7511,3.45309144 205.028363,2.64628114 205.168673,2.08443174 L205.251248,2.21132285 C205.251248,2.12718115 205.278773,2.00029004 205.335166,1.83200665 C205.501658,1.57958156 205.7232,1.35497751 206.001135,1.15887307 C206.277727,0.962768634 206.639579,0.864377134 207.082663,0.864377134 C207.8876,0.864377134 208.575052,1.00483948 209.14502,1.28508562 C209.712973,1.56601032 210.150687,1.93786233 210.456147,2.40064167 C210.762278,2.863421 210.941526,3.39677079 210.997918,4.00001248 C211.052968,4.60393271 210.98382,5.21463858 210.789802,5.8314515 C208.734831,11.892368 207.139056,17.2665796 206.001135,21.9527293 C204.861871,26.6395575 204.071032,30.7224655 203.626605,34.2014533 C203.182178,37.680441 203.036498,40.5921509 203.189563,42.9359043 C203.341957,45.2789792 203.682998,47.1307752 204.21,48.4919706 C204.737001,49.8531659 205.402971,50.7658322 206.20925,51.2279328 C207.013515,51.6913909 207.84732,51.7965677 208.707306,51.5441427 C209.261833,51.3758595 209.741841,51.0243642 210.144645,50.4916932 C210.546778,49.9583432 210.775033,49.4460287 210.831426,48.9554286 C210.886476,48.4641496 210.707228,48.0848333 210.289654,47.8188369 C209.872752,47.5514834 209.137635,47.6010187 208.08296,47.9660851 C207.916468,48.0224055 207.742591,48.029191 207.562671,47.9871205 C207.381409,47.9450496 207.250498,47.8744792 207.166581,47.7767659 C207.082663,47.6783746 207.097433,47.5514834 207.208875,47.3981286 C207.318975,47.2434164 207.583483,47.0819187 207.999042,46.9136351 C208.916093,46.5207478 209.686791,46.4087851 210.311137,46.5770683 C210.934812,46.7453519 211.400722,47.0676688 211.706182,47.5446979 C212.011641,48.0224055 212.142553,48.5971478 212.102272,49.2709596 C212.059978,49.9447718 211.837093,50.5900845 211.43496,51.2075758 C211.032156,51.8243887 210.435335,52.3577386 209.645168,52.8062682 C208.852987,53.2547979 207.874845,53.4943299 206.708727,53.5221513 C204.793394,53.5784718 203.244613,53.1570846 202.064397,52.2600258 C200.884853,51.360931 199.989285,50.1408764 199.379037,48.5971478 C198.768118,47.0540973 198.400223,45.2721933 198.275354,43.2514356 C198.150485,41.2313563 198.184723,39.112207 198.380083,36.8953447 C198.462658,35.5490775 198.663389,33.9843134 198.983618,32.2024094 C199.301833,30.4205054 199.663685,28.5754951 200.066489,26.6673785 C200.469293,24.7585834 200.892238,22.8721809 201.337336,21.0054566 C201.78042,19.1394109 202.182553,17.462684 202.544405,15.975276 C202.904915,14.4885464 203.20299,13.2678133 203.43863,12.313755 C203.674942,11.3596967 203.793097,10.8405967 203.793097,10.7564551 C203.820622,10.6444923 203.682998,10.9247384 203.377538,11.597872 C203.071407,12.2710056 202.654505,13.204707 202.127503,14.3969406 C201.600501,15.5905313 200.982868,16.9646195 200.274605,18.5219194 C199.567012,20.079898 198.823168,21.6860544 198.045756,23.3417458 C197.268344,24.9981158 196.484219,26.6246292 195.693381,28.2246785 C194.901871,29.8240493 194.159369,31.2693865 193.465875,32.5600116 C192.771038,33.8513152 192.153405,34.903765 191.611634,35.7173609 C191.071205,36.5302783 190.661016,36.9794864 190.383082,37.0636281 C190.050097,37.1477698 189.744637,37.1477698 189.468045,37.0636281 C189.190111,36.9794864 188.953799,36.8322384 188.759781,36.6218842 C188.564422,36.4115299 188.412699,36.1733546 188.301257,35.9066797 C188.190485,35.6406834 188.148862,35.3807941 188.176387,35.1276905 C188.203912,34.3419156 188.231437,33.3953215 188.260305,32.2865511 C188.28783,31.1777806 188.315355,29.9787615 188.342879,28.6874578 C188.370404,27.3968328 188.391216,26.0566727 188.405986,24.6676561 C188.418741,23.2786396 188.418741,21.9255868 188.405986,20.6057835 C188.391216,19.2873374 188.363691,18.0455688 188.322068,16.8804778 C188.281116,15.7160653 188.21801,14.6989007 188.134093,13.8289841 C187.719876,15.68078 187.180119,17.7151091 186.514821,19.9319714 C185.850194,22.1495123 185.047943,24.3806244 184.106053,26.6246292 C183.164834,28.8706696 182.064508,31.0522467 180.805746,33.1707175 C179.546312,35.2898668 178.113001,37.1755908 176.506484,38.8319609 C174.901311,40.4869737 173.112861,41.8339195 171.142478,42.872798 C169.171424,43.910998 167.006353,44.457919 164.646593,44.5149182 C162.786981,44.5705603 161.134813,44.3249208 159.690761,43.7779998 C158.24738,43.2304002 157.032255,42.4371612 156.047399,41.3996397 C155.061872,40.3614398 154.318699,39.1189926 153.819222,37.6743339 C153.319745,36.2289967 153.083433,34.6370901 153.11163,32.8972569 C153.139154,31.5781323 153.31236,30.2237224 153.631918,28.8347058 C153.950804,27.4456892 154.395231,26.0987435 154.964528,24.7938687 C155.533153,23.4889938 156.213891,22.2546894 157.00473,21.0895983 C157.79624,19.9251858 158.677709,18.9012356 159.649809,18.0170692 C160.621238,17.1329028 161.675913,16.4319482 162.815177,15.9121697 C163.952427,15.3937482 165.132643,15.1196092 166.354481,15.0911096 C167.770338,15.0639671 168.936455,15.281107 169.852834,15.7438863 C170.768542,16.2073442 171.490232,16.8451925 172.018577,17.6587885 C172.545579,18.4737415 172.90676,19.441371 173.100777,20.5637127 C173.294794,21.6860544 173.37804,22.8932163 173.350515,24.1838414 C173.322319,24.9981158 173.115546,25.9236745 172.732211,26.9611959 C172.348205,28.0000745 171.827245,28.9751682 171.170674,29.8871556 C170.513433,30.7998216 169.748776,31.5706681 168.87402,32.2024094 C167.999264,32.8341507 167.047976,33.149682 166.021497,33.149682 C165.215889,33.149682 164.522395,32.8477219 163.939,32.2444802 C163.355606,31.6412385 163.008523,30.9117843 162.898423,30.055439 C162.786981,29.1997722 162.9669,28.32307 163.438852,27.4246538 C163.910804,26.5269162 164.772133,25.7832122 166.021497,25.1935417" id="Fill-14"></path>
                    <path d="M222.243427,25.4466615 C221.677002,25.4466615 221.09689,25.7700058 220.504393,26.4160149 C219.911244,27.0620241 219.331783,27.8350613 218.76601,28.733768 C218.200237,29.6324747 217.680743,30.5814493 217.208831,31.5772952 C216.737571,32.5751789 216.339966,33.4249764 216.016016,34.1266877 C216.716713,34.0995159 217.49237,33.986753 218.341681,33.7897576 C219.19034,33.5934415 219.992069,33.2843624 220.746867,32.8631998 C221.501013,32.4413578 222.155432,31.9013186 222.708169,31.240365 C223.260905,30.5814493 223.60441,29.7873539 223.739335,28.8594375 C223.76606,28.6067399 223.76606,28.2847543 223.739335,27.8907634 C223.711959,27.4981312 223.644171,27.1184055 223.536622,26.752945 C223.429073,26.3881638 223.267423,26.0790848 223.051674,25.8263872 C222.835924,25.5730103 222.566726,25.4466615 222.243427,25.4466615 M216.461203,47.5271318 C215.35573,47.5271318 214.399522,47.3022853 213.590623,46.8532719 C212.781725,46.4035788 212.114921,45.7847413 211.588909,44.9987975 C211.063549,44.2121744 210.679632,43.3134676 210.436505,42.3013187 C210.194031,41.2905284 210.087134,40.2084121 210.113207,39.0570078 L210.153619,38.7628732 L210.153619,38.1093918 C210.153619,37.8702802 210.180344,37.6522266 210.234444,37.4559104 C210.476918,35.658497 210.94166,33.8182879 211.629321,31.9359627 C212.316983,30.0536374 213.165642,28.3404564 214.176602,26.7950613 C215.187563,25.2503454 216.326278,23.9861782 217.5934,23.0025596 C218.860523,22.0196204 220.19413,21.5271318 221.596178,21.5271318 C222.511973,21.5271318 223.247217,21.7383924 223.799954,22.159555 C224.352039,22.5807177 224.763332,23.1289084 225.033182,23.8034479 C225.301728,24.4773082 225.450993,25.2354009 225.477718,26.0790848 C225.504442,26.9214101 225.450993,27.7644147 225.316068,28.6067399 C225.127695,29.7873539 224.696195,30.8124094 224.022221,31.6832651 C223.348248,32.5541207 222.546519,33.2843624 221.616384,33.8739901 C220.686248,34.4636178 219.66877,34.9350482 218.563297,35.2855642 C217.457824,35.6374388 216.366039,35.8690783 215.288594,35.9811619 C215.180393,36.3466224 215.072844,36.8105806 214.965295,37.3716779 C214.857094,37.9334546 214.776269,38.5441404 214.722821,39.205094 C214.668068,39.864689 214.648514,40.5317563 214.66155,41.2062958 C214.675239,41.880156 214.769099,42.4915212 214.945089,43.0390326 C215.119774,43.5872233 215.375936,44.0566159 215.712923,44.451286 C216.04991,44.8439183 216.514652,45.08303 217.107801,45.1672625 C217.997524,45.3071972 218.880077,45.1387322 219.756764,44.6618674 C220.632148,44.183644 221.481459,43.5233697 222.304045,42.6810444 C223.12598,41.8387191 223.907503,40.8551006 224.648613,39.7315473 C225.389723,38.6073148 226.077385,37.4620241 226.710946,36.2977132 C227.343855,35.1320437 227.916798,33.9942253 228.429122,32.8835786 C228.940794,31.7742906 229.372946,30.8124094 229.723621,29.9972559 C229.804445,29.8009398 229.9322,29.6963285 230.107538,29.681384 C230.282223,29.6677981 230.451043,29.7024421 230.613344,29.7873539 C230.774993,29.8715865 230.909266,29.990463 231.017467,30.1446629 C231.125016,30.3002213 231.138052,30.4612141 231.057228,30.6296792 C230.706553,31.387772 230.295911,32.3299535 229.824652,33.4528275 C229.352088,34.5763807 228.793485,35.7637877 228.146888,37.0130104 C227.498986,38.2629124 226.778082,39.5134937 225.982872,40.7640751 C225.188313,42.0139771 224.305108,43.1375303 223.335212,44.1354141 C222.364664,45.1319392 221.306773,45.9470927 220.160888,46.5788365 C219.015002,47.2112598 217.781122,47.5271318 216.461203,47.5271318" id="Fill-16"></path>
                </g>
            </g>
        </g>
    </g>
</svg>