<svg width="154px" height="60px" viewBox="0 0 154 60" version="1.1" xmlns="http://www.w3.org/2000/svg" xmlns:xlink="http://www.w3.org/1999/xlink">
  <defs>
    <polygon id="path-1" points="57.8909644 59.3877551 0 59.3877551 0 0.197142857 57.8909644 0.197142857 57.8909644 59.3877551"></polygon>
  </defs>
  <g id="Page-1" stroke="none" stroke-width="1" fill="none" fill-rule="evenodd">
    <g id="1a.-Dashboard-Desktop" transform="translate(-523.000000, -1621.000000)">
      <g id="kiss-me" transform="translate(523.000000, 1621.000000)">
        <g id="Group-3">
          <mask id="mask-2" fill="white">
            <use xlink:href="#path-1"></use>
          </mask>
          <g id="Clip-2"></g>
          <path d="M1.29816033,25.792898 C1.29816033,26.6463673 4.36159697,27.8194286 8.51473241,27.8194286 C9.08581089,27.8194286 9.7087514,27.7661633 10.3841501,27.6596327 C10.3841501,27.2861633 10.4360121,26.9665714 10.4360121,26.6463673 C8.61845648,25.5259592 6.74963494,24.8867755 4.98453748,24.8867755 C2.38845526,24.8867755 1.29816033,25.2596327 1.29816033,25.792898 M10.6434602,23.7663673 C11.1626767,16.728 11.578169,9.1024898 12.2011096,1.15677551 C12.2011096,1.15677551 12.3048336,0.19677551 12.6166019,0.19677551 C13.4469906,0.19677551 15.0570981,1.21065306 15.2126842,2.0102449 C14.6934677,7.60922449 14.5372855,14.2747347 14.5372855,20.9941224 L14.5372855,25.792898 L15.0046399,26.0598367 C24.1424917,21.7937143 35.2534851,10.4886122 41.0685901,2.48963265 C41.0685901,2.48963265 41.6396686,1.74330612 41.8995748,1.74330612 C42.0032989,1.74330612 41.9514369,1.90310204 42.0032989,2.17004082 C42.107023,2.32983673 42.3669293,2.59677551 42.3669293,3.28983673 C42.3669293,3.66330612 42.210747,4.40963265 42.107023,4.67657143 C38.1088775,14.6482041 28.1924992,24.3002449 18.8990613,28.9924898 C29.17907,37.6312653 39.2516306,52.2418776 47.7146798,52.2418776 C51.6603671,52.2418776 54.8793898,50.3757551 57.4754721,47.7094286 C57.4754721,47.7094286 57.6310582,47.6561633 57.7347822,47.6561633 C57.7872404,47.6561633 57.8909644,47.7094286 57.8909644,47.8159592 C57.8909644,47.8698367 57.8909644,47.923102 57.8391024,47.9757551 C57.319886,49.2026939 54.7756658,52.8822857 54.7238037,52.935551 C53.7372329,56.6684082 48.5969305,59.388 45.2741837,59.388 C36.240056,59.388 25.752003,40.3508571 15.4719943,30.5390204 L14.6416057,30.8586122 C14.7453297,37.6312653 14.9527779,44.030449 15.0570981,48.7759592 C15.0570981,50.1088163 14.9527779,50.2692245 14.1742513,50.2692245 C13.862483,50.2692245 13.4994487,50.535551 13.1876804,50.535551 C12.772188,50.535551 11.9412033,49.2026939 11.8380753,49.0961633 C11.8380753,49.0961633 11.6300311,49.4157551 11.4225829,49.4157551 C10.1242438,49.4157551 8.87836276,45.8433061 8.87836276,44.7235102 C9.29385513,40.8308571 9.7087514,36.5114694 10.0723817,31.8718776 C9.50130327,31.9257551 9.03394885,31.9790204 8.51473241,31.9790204 C3.68619831,31.9790204 -0.000178834597,28.7788163 -0.000178834597,26.1663673 C-0.000178834597,24.352898 1.76551475,22.8602449 6.0748324,22.8602449 C7.5806197,22.8602449 9.13767292,23.1798367 10.6434602,23.7663673" id="Fill-1" fill="#1D2736" mask="url(#mask-2)"></path>
        </g>
        <path d="M52.6377367,45.8158584 C54.3471594,45.8158584 54.9881162,44.6358737 54.9881162,42.9730562 C54.9881162,42.2759045 54.8813923,41.4709777 54.7213064,40.6666667 C52.7444606,42.0073903 51.355823,43.1344111 51.355823,44.3673595 C51.355823,45.2794457 51.9434179,45.8158584 52.6377367,45.8158584 L52.6377367,45.8158584 Z M52.2102277,32.1382602 C51.6226328,33.2640493 50.8743387,35.9461124 49.7531243,38.7889145 C46.9752358,45.7622787 43.9832861,49.0879138 41.7396305,49.0879138 C39.4959749,49.0879138 38,45.869438 38,39.7545804 C38,35.0882217 38.8016561,29.9384142 39.335889,27.6320246 C39.335889,27.6320246 39.5493368,26.934873 39.9768458,26.934873 C40.8846124,26.934873 41.7929924,26.8812933 43.2356053,26.5591994 C43.8765621,26.5591994 43.8765621,26.9884527 43.8765621,26.9884527 C42.4879246,34.7661278 41.7396305,37.8774442 41.7396305,43.2409546 C41.7396305,45.6551193 42.1137775,46.7279446 42.8080963,46.7279446 C43.9832861,46.7279446 46.0134938,43.4558891 48.3638733,37.9846035 C50.7142529,32.5668976 51.8360807,26.5056197 51.9967799,24.2528099 C52.1035038,23.0728253 54.4005214,22.0535797 55.2021774,22.0535797 C55.3622633,22.0535797 55.6290731,22.1071594 55.6290731,22.3220939 C55.6290731,22.3750577 54.8280304,25.8620477 54.8280304,29.9926097 C54.8280304,32.191224 56.0565821,34.6589684 57.1250479,37.1802925 C60.2237215,35.0882217 63.1616959,32.9425712 63.7492908,30.7969207 C63.7492908,30.7969207 63.3217818,29.1341032 63.3217818,27.1491917 C63.3217818,26.2371055 63.4291191,25.2184758 63.6959289,24.2528099 C63.9627386,23.2335643 66.2597562,22 67.8630683,22 C68.0231542,22 68.1298781,22.0535797 68.2905773,22.0535797 C68.4506632,22.0535797 68.717473,22.1071594 68.717473,22.3220939 C68.717473,22.3750577 67.2754734,25.8620477 66.3670935,28.4369515 C66.3137315,28.9727483 66.3137315,29.5633564 66.3137315,30.0991532 C66.3137315,35.1418014 70,39.3789069 70,43.9923018 C70,47.8007698 67.0614123,50 64.3902476,50 C62.253316,50 60.3304454,48.5515012 60.3304454,45.3330254 C60.3304454,42.7587375 61.3455493,40.130254 63.3217818,40.130254 C63.9627386,40.130254 63.9627386,40.3981524 63.9627386,40.452348 C63.3217818,41.3638183 62.5741011,43.4023095 62.5741011,45.0115473 C62.5741011,46.6207852 63.3217818,47.2643572 64.1767998,47.2643572 C65.3519896,47.2643572 66.6878786,46.0307929 66.6878786,44.4751347 C66.6878786,40.452348 64.7643947,36.9117783 64.0700759,33.1568899 C62.199954,35.4103156 59.8495745,37.1802925 57.7126428,38.6281755 C58.2468757,40.0766744 58.6743847,41.5245574 58.6743847,42.9194765 C58.6743847,46.8886836 56.0032201,48.8735951 53.5455033,48.8735951 C51.5159089,48.8735951 49.5930384,47.4786759 49.5930384,44.6894534 C49.5930384,42.8123172 51.7293567,40.9881447 54.2937974,39.1110085 C53.4927547,36.161047 52.2102277,33.1033102 52.2102277,32.191224 L52.2102277,32.1382602 Z" id="Fill-4" fill="#333333"></path>
        <path d="M79.8051803,29.5510081 C80.0141379,29.5510081 80.2236961,29.6558473 80.2236961,29.8655256 C80.2236961,29.9179452 80.2236961,29.9709673 80.1186168,30.128226 C77.6609624,33.643953 76.6149731,37.4223804 76.6149731,40.8862903 C76.6149731,47.4983877 80.4326537,52.9560492 85.4008024,52.9560492 C100.776604,52.9560492 110.765741,3.7316537 110.399465,4.57157203 C110.765741,3.78407328 111.86397,3.4165337 112.962199,3.4165337 C114.426103,3.4165337 115.890608,4.04677371 115.890608,5.25362909 C115.890608,12.1278243 115.524332,21.3120962 115.524332,29.0786294 C115.524332,37.6850808 115.942848,44.507459 117.61631,44.507459 C120.963236,44.507459 128.232921,10.6064515 132.992112,2.20967832 C133.044352,2.10483916 133.25391,2 133.358389,2 C133.514506,2 133.619586,2.10483916 133.829144,2.36753958 C134.14258,2.78749874 135.659325,4.36129119 136.600835,4.99092867 C137.176069,5.41088783 137.385027,5.88326657 137.385027,6.40806489 C137.385027,6.7231849 137.280548,7.09012196 137.176069,7.51008112 C136.077841,11.236089 134.665575,20.7872979 134.665575,29.8137085 C134.665575,37.8953617 135.763203,45.5564531 139.162968,48.338306 C139.477005,48.6004039 139.842681,48.9679435 139.947761,49.1252022 C140,49.1776218 140,49.2300414 140,49.2830635 C140,49.4403222 139.842681,49.4927418 139.633724,49.4927418 C139.477005,49.4927418 139.319687,49.4403222 139.215208,49.3879027 C139.215208,49.3879027 139.05849,49.6500006 138.692213,49.6500006 C136.809793,49.6500006 131.370889,46.763911 129.958623,39.9415329 C128.964873,35.218348 128.651437,31.1778227 128.651437,27.3993952 C128.651437,24.0403245 128.912634,20.9445566 129.174432,17.7957667 C129.174432,17.7957667 129.122192,17.5860884 129.017113,17.5860884 C128.964873,17.5860884 128.912634,17.638508 128.860395,17.7433471 C127.657087,20.6294366 123.212533,38.0526204 119.394852,45.6618948 C118.244384,47.9707664 116.936598,49.1776218 115.73389,49.1776218 C110.503944,49.1776218 109.980949,32.4370976 109.980949,22.8858887 C109.980949,19.3177421 110.033189,15.3290338 110.190507,10.9733885 C108.568684,14.6999989 102.554546,56 85.0345261,56 C79.0203881,56 74,50.6471776 74,43.3000011 C74,39.2070562 75.5689839,34.4838713 79.3344251,29.7082669 C79.4389039,29.6034277 79.648462,29.5510081 79.8051803,29.5510081" id="Fill-6" fill="#333333"></path>
        <path d="M147.993069,24.8675662 C145.753257,24.8675662 144.072812,29.6133543 143.971109,34.0134678 C146.0081,32.6784489 148.757014,28.2295209 148.757014,25.806961 C148.757014,25.3619546 148.553023,24.8675662 147.993069,24.8675662 M151.55678,36.2379318 C151.55678,35.3978689 151.403641,34.5078562 151.097946,33.5684615 C151.097946,33.5190794 151.097946,33.272169 151.708751,33.272169 C153.592602,33.272169 154,35.2985371 154,37.0291803 C154,40.5392812 151.200234,44 147.433116,44 C142.188961,44 140,39.5011223 140,34.5572383 C140,28.5751954 143.207164,22 148.145625,22 C150.436874,22 151.708751,23.631879 151.708751,25.9057251 C151.708751,28.9708197 149.367819,33.1234552 144.021961,36.0897856 C144.327655,40.193039 145.85496,41.7749684 147.53482,41.7749684 C149.51979,41.7749684 151.55678,39.4517402 151.55678,36.2379318" id="Fill-8" fill="#333333"></path>
        <path d="M47.2202732,19.047617 C47.2192043,19.0433867 47.2176008,19.0391563 47.2149284,19.0356311 C47.2106525,19.0306957 47.2074456,19.0257603 47.2047732,19.02153 C47.2689112,18.9933278 47.2512733,19.02153 47.2202732,19.047617 M47.0358764,19.4361021 C46.9851004,19.5425654 47.0027384,19.4361021 46.9674625,19.4107201 C46.9567728,19.4022595 46.950359,19.3916837 46.9466176,19.3761725 C46.9557038,19.3740573 46.9653245,19.3726472 46.9744108,19.370532 C47.015566,19.3634815 47.0561868,19.3500854 47.0957385,19.331754 C47.0823765,19.3557259 47.0620661,19.3818129 47.0358764,19.4361021 M46.9311176,19.1907431 C46.9305831,19.1865128 46.9305831,19.1829875 46.9305831,19.1794622 C46.9444797,19.1695915 46.9605142,19.1576055 46.9797556,19.1399792 C46.997928,19.1230578 47.016635,19.1096618 47.0364109,19.0976759 C47.0583247,19.0955607 47.0743592,19.1068416 47.0855834,19.1272882 C47.0369453,19.1576055 46.9786866,19.1956785 46.9343245,19.2245857 C46.9332555,19.2140099 46.9321865,19.202729 46.9311176,19.1907431 M46.8958417,17.9019032 C46.8862209,17.8941476 46.8749968,17.8849819 46.8621692,17.8715858 C46.8605657,17.8701757 46.8594968,17.8694707 46.8578933,17.8680606 C46.8680485,17.8588948 46.8819451,17.848319 46.9043934,17.8321028 C46.9498245,17.8003753 46.9305831,17.847614 46.8958417,17.9019032 M46.7734449,17.964653 C46.7520655,17.98933 46.6996862,18.0344535 46.6435654,18.0887427 C46.6724275,18.0499647 46.705031,18.0076614 46.7558069,17.963948 C46.7745139,17.9477317 46.7884104,17.9357458 46.7996346,17.92517 C46.7921518,17.9392711 46.7836001,17.9533722 46.7734449,17.964653 M46.5863756,18.8769938 C46.5687377,18.892505 46.5660652,18.8967353 46.542548,18.9157718 C46.5366686,18.9207072 46.5318583,18.9242324 46.5281169,18.9270527 C46.5152893,18.9164768 46.5099445,18.9002606 46.507272,18.8755837 C46.5457549,18.8558421 46.5767549,18.8269349 46.5954618,18.8114237 C46.6189791,18.7916822 46.6248584,18.8269349 46.6248584,18.8269349 C46.6248584,18.8269349 46.6040136,18.8614826 46.5863756,18.8769938 M46.474134,18.286863 C46.4746685,18.2812226 46.4746685,18.2755821 46.4746685,18.2713518 C46.4725306,18.248085 46.4842892,18.2516103 46.5211686,18.2248182 C46.5179617,18.2290485 46.5147548,18.2325738 46.5120824,18.2368041 C46.4960479,18.2593659 46.4837548,18.2755821 46.474134,18.286863 M46.6189791,17.4556036 C46.6537206,17.4140054 46.7306862,17.4034295 46.7002206,17.486626 C46.688462,17.5183534 46.7114448,17.4859209 46.6531861,17.5620668 C46.6307378,17.5472607 46.6109619,17.5338646 46.6008067,17.5197636 C46.5938584,17.5105978 46.591186,17.5014321 46.5906515,17.4908563 C46.6002722,17.4781653 46.6088239,17.4668845 46.6189791,17.4556036 M46.3202028,18.3933263 C46.3426511,18.3827505 46.3672373,18.3728797 46.3955649,18.364419 L46.4019788,18.3623039 C46.3747201,18.3996718 46.3442545,18.3954414 46.3202028,18.3933263 M46.2603406,19.1061365 C46.1849784,19.1590156 46.2031508,19.150555 46.1550473,19.1935633 C46.1539783,19.1822824 46.1545128,19.1667712 46.1566508,19.1470297 C46.1593232,19.1223528 46.1619956,19.1012012 46.1652025,19.0821647 C46.196737,19.0553726 46.2272026,19.0306957 46.261944,19.0039036 C46.2875992,19.0158895 46.3164614,19.009544 46.3239441,19.0504372 C46.3137889,19.060308 46.311651,19.0694737 46.2603406,19.1061365 M46.0914437,17.9152992 C46.0909093,17.9103638 46.0909093,17.9061335 46.0925127,17.9033133 C46.0951851,17.9004931 46.0978575,17.8976728 46.10053,17.8948526 C46.1106852,17.887097 46.1304611,17.8786364 46.163599,17.848319 C46.1844439,17.8405634 46.1983405,17.8462039 46.1983405,17.8694707 C46.1641335,17.9216447 46.1705473,17.9336306 46.1235128,17.964653 C46.066323,18.0020209 46.0935817,17.9392711 46.0914437,17.9152992 M46.0914437,18.5301069 C46.0572368,18.5540787 46.049754,18.5540787 45.9920298,18.5851011 C45.9893574,18.5865113 45.9872194,18.5879214 45.984547,18.5893315 C45.9941677,18.5752304 46.0053919,18.5604242 46.0198229,18.5427979 C46.0716678,18.480048 46.0898403,18.4955592 46.0946506,18.5279917 C46.0935817,18.5286968 46.0925127,18.5294018 46.0914437,18.5301069 M45.9006331,18.6577218 C45.8674951,18.6802835 45.8546675,18.6908593 45.8455813,18.69932 C45.8461157,18.6964998 45.8466502,18.6950897 45.8471847,18.6922695 C45.8525295,18.6725279 45.8626847,18.6379802 45.9097193,18.6203539 C45.9284262,18.6133033 45.9380469,18.6161235 45.9423228,18.6238791 C45.93484,18.6316347 45.9230814,18.6415055 45.9006331,18.6577218 M45.8904779,18.0809871 C45.9375125,18.0400939 45.9706504,18.0330433 46.0080643,18.0020209 C46.0123402,18.0006108 46.016616,17.9992007 46.0208919,17.9977906 C46.1256507,17.9660632 46.0139436,18.0323383 45.9353745,18.118355 C45.9262883,18.1282257 45.9177366,18.1373914 45.9107883,18.144442 C45.8658916,18.1486723 45.8407709,18.1247004 45.8904779,18.0809871 M45.9284262,17.5698224 C45.9556849,17.5113029 45.9407194,17.5402101 46.0422712,17.4034295 C46.0486851,17.396379 46.0556333,17.3886234 46.0631161,17.3801627 C46.1689439,17.2624186 46.1881853,17.2264608 46.2191853,17.1890929 C46.2507199,17.1524301 46.3191338,17.1432644 46.2918751,17.21659 C46.2897372,17.2229355 46.2886682,17.2264608 46.2886682,17.228576 C46.2870648,17.2299861 46.2859958,17.2313962 46.2849268,17.2335114 C46.2058232,17.3385645 46.180168,17.3717021 46.148099,17.4147104 C46.1368749,17.4274014 46.1229783,17.4422075 46.1010645,17.4647693 C46.033185,17.5359798 46.0401333,17.564182 45.9877539,17.5930892 C45.9455297,17.6177662 45.9188055,17.6057802 45.9284262,17.5698224 M45.5452014,18.3446775 C45.5409256,18.3453826 45.5377187,18.3453826 45.5350463,18.3446775 C45.5580291,18.3411522 45.574598,18.3369219 45.593305,18.3291663 C45.5810118,18.338332 45.5649773,18.3425623 45.5452014,18.3446775 M45.5056497,16.5390325 C45.4698392,16.6130633 45.4703737,16.5799257 45.4233392,16.6694676 C45.4233392,16.6701727 45.4233392,16.6701727 45.4228047,16.6708777 C45.411046,16.6701727 45.3982184,16.6560716 45.3543908,16.6729929 C45.3474425,16.6758131 45.3410287,16.6779283 45.3356838,16.6800435 C45.3453046,16.661712 45.3543908,16.6454958 45.362408,16.6306896 C45.4147874,16.5348022 45.5558911,16.4332743 45.5056497,16.5390325 M45.3233907,16.8231695 C45.3100286,16.8316302 45.2865114,16.8281049 45.2565803,16.8210544 C45.2656665,16.8048381 45.2747527,16.7886219 45.2838389,16.7731107 C45.3030803,16.7815713 45.3271321,16.7942623 45.331408,16.8069533 C45.3287356,16.8125937 45.3265976,16.8168241 45.3233907,16.8231695 M45.1218904,17.5232888 C45.1128042,17.5246989 45.1042524,17.526109 45.0957007,17.5282242 C45.0919593,17.5063675 45.0957007,17.4788704 45.11708,17.4471429 C45.1186835,17.4457328 45.1202869,17.4436176 45.1213559,17.4415025 C45.1283042,17.4407974 45.135787,17.4407974 45.1427352,17.4407974 C45.2629941,17.4407974 45.2629941,17.4337469 45.2763562,17.4584238 C45.2891838,17.4823957 45.2058043,17.5134181 45.1218904,17.5232888 M45.2726148,16.2781623 C45.2736837,16.2894432 45.2565803,16.3218757 45.2565803,16.3395021 C45.2565803,16.3691143 45.2490975,16.3585385 45.1967181,16.4445552 C45.1913733,16.4537209 45.1865629,16.4607715 45.1828215,16.4664119 C45.1838905,16.4621816 45.1854939,16.4565411 45.1876319,16.4509007 C45.2100802,16.3923812 45.2453561,16.3528981 45.2726148,16.2781623 M45.0524075,16.5073051 C45.0315626,16.5122404 45.036373,16.5080101 45.0112523,16.5277516 C44.9775798,16.5538387 44.9957522,16.5672347 45.0165971,16.5764004 C45.0069764,16.5890914 44.9989591,16.5890914 44.9946833,16.5665297 C44.9882695,16.532687 44.9679591,16.5073051 44.9717005,16.4713473 C44.9775798,16.481218 44.9909419,16.4840383 45.0203385,16.4685271 C45.0935628,16.4311592 45.054011,16.4339794 45.0647006,16.3930862 C45.0716489,16.3634739 45.0598903,16.3585385 45.0604248,16.3359768 C45.1160111,16.2718168 45.1384594,16.2400893 45.1662525,16.1561878 C45.167856,16.1505474 45.1699939,16.1442019 45.1721318,16.1392665 C45.1764077,16.1343311 45.1801491,16.1293958 45.1849595,16.1244604 C45.247494,16.0518398 45.2084767,16.0997835 45.2058043,16.1308059 C45.2031319,16.1618283 45.1218904,16.3014291 45.1101317,16.3359768 C45.1042524,16.3550133 45.1058559,16.3691143 45.1106662,16.377575 C45.0999766,16.3980216 45.0914248,16.4184682 45.0759248,16.4530159 C45.0679075,16.4713473 45.0598903,16.4896787 45.0524075,16.5073051 M44.9465797,16.2957887 C44.971166,16.2309236 45.0139247,16.1921456 45.0385109,16.0863874 C45.0593558,15.9961404 45.0737869,15.9658231 45.1053214,15.9094187 C45.1112007,15.9214046 45.118149,15.9355057 45.1267007,15.952427 C45.1609077,16.0194072 45.1432697,16.0123567 45.1063904,16.0722863 C45.0962352,16.0828622 45.08608,16.093438 45.0769938,16.1054239 C45.0144592,16.1808648 45.0369075,16.1999012 45.0283557,16.2372691 C45.0080454,16.2711118 44.9920109,16.2852128 44.9690281,16.3225807 C44.9455108,16.3409122 44.9310797,16.3359768 44.9465797,16.2957887 M45.559098,17.7587771 C45.5617704,17.7658276 45.5574946,17.7735832 45.5478739,17.7813388 C45.5478739,17.7749933 45.5516152,17.7679428 45.559098,17.7587771 M44.8974072,15.5251639 C44.907028,15.5117679 44.9193211,15.4990769 44.9310797,15.4849758 C44.9182521,15.5047173 44.907028,15.5202285 44.8974072,15.5251639 M44.8845796,15.5843885 C44.8840452,15.5914391 44.8840452,15.5984896 44.8835107,15.6055402 C44.8765624,15.5808632 44.8781658,15.5625318 44.8851141,15.5463156 C44.8856486,15.5547762 44.8856486,15.5667621 44.8845796,15.5843885 M44.8134933,17.5416202 L44.8140278,17.5409152 C44.8305968,17.5098928 44.8439589,17.4936765 44.857321,17.4859209 C44.9043555,17.4767552 44.8509072,17.5021372 44.8134933,17.5416202 M44.774476,16.3987266 C44.7691312,16.3705245 44.7530967,16.3493728 44.7536311,16.3204656 C44.7637863,16.3296313 44.775545,16.3395021 44.7830277,16.3437324 C44.7926485,16.3486678 44.8054761,16.3627689 44.8134933,16.3726396 C44.7958554,16.4100075 44.7808898,16.4311592 44.774476,16.3987266 M44.6852172,16.0997835 C44.7017862,16.0701712 44.7253035,16.0313932 44.7595105,15.9763989 C44.8487692,15.8332728 44.8081485,15.8494891 44.839683,15.7761634 C44.8460968,15.7620623 44.8493037,15.7669977 44.8658727,15.7994302 C44.8626658,15.8064807 44.8594589,15.8135313 44.855183,15.8205818 C44.8167002,15.8861519 44.8391485,15.8339779 44.7931829,15.9326855 C44.7482863,16.0313932 44.7803553,16.0356235 44.7301139,16.068056 C44.7151483,16.0786318 44.6991138,16.0913228 44.6852172,16.0997835 M44.6216137,17.2574832 C44.6157344,17.2631237 44.609855,17.2694691 44.6045102,17.2751096 C44.5863378,17.2983764 44.5697688,17.3145926 44.546786,17.3378595 C44.5243377,17.3512555 44.4965445,17.3618313 44.4612686,17.3674717 C44.4537858,17.3688819 44.4468375,17.370292 44.4398892,17.3724071 C44.4842514,17.3033118 44.4853203,17.318823 44.5419756,17.2511377 C44.5970274,17.1848626 44.5970274,17.2236406 44.6435275,17.2172951 C44.6365792,17.2299861 44.6296309,17.2433821 44.6216137,17.2574832 M44.3051994,17.1101268 C44.3255097,17.0579528 44.3538374,16.9768715 44.3602512,16.9634754 C44.3629236,16.9571299 44.3746822,16.9423238 44.3896478,16.9232873 C44.4067512,16.9077761 44.4291996,16.8887396 44.4585962,16.8654728 C44.5863378,16.7618298 44.5238032,16.7893269 44.5553377,16.7442034 C44.5831309,16.7047204 44.594355,16.7061305 44.6221482,16.7068355 C44.5991654,16.7456135 44.5793895,16.7815713 44.5809929,16.7928522 C44.5820619,16.8062482 44.5831309,16.8358605 44.5793895,16.8605374 C44.5339584,16.8972003 44.4917341,16.9338631 44.4778376,16.9521946 C44.4452341,16.9952029 44.4291996,17.087565 44.3051994,17.1101268 M44.1304232,16.9726411 C44.1282853,16.9648855 44.1266818,16.957835 44.1245439,16.9514895 C44.1336301,16.9380935 44.1411129,16.9268126 44.1448543,16.9204671 C44.1475267,16.9162368 44.1518025,16.9056609 44.1576819,16.8915599 C44.1582163,16.9980231 44.1571474,17.0819246 44.1304232,16.9726411 M44.0817852,16.1286907 C44.0855266,16.0525448 44.0737679,16.0081264 44.0988887,15.9362108 C44.1079749,15.9446714 44.1143887,15.9601826 44.1143887,15.9855646 C44.1143887,16.0603004 44.1004921,16.0983734 44.0817852,16.1286907 M44.0032161,16.4924989 C44.0000092,16.5559538 43.9914574,16.622934 43.9850436,16.687094 C43.9631298,16.6215239 43.9540436,16.6130633 43.9813023,16.493909 C44.0021471,16.4022519 44.0165782,16.3874458 44.0326127,16.3543082 C44.0588024,16.364179 44.0096299,16.3803952 44.0032161,16.4924989 M43.8295089,16.3493728 C43.8369917,16.3021342 43.8375261,16.2626511 43.8316468,16.2175276 C43.826302,16.1808648 43.8380606,16.1420867 43.8551641,16.1033087 C43.8567676,16.106129 43.8578365,16.1089492 43.85944,16.1124745 C43.8829573,16.1674687 43.8605089,16.2626511 43.8295089,16.3493728 M43.69375,17.0234051 C43.6525948,17.1066015 43.6023533,17.2264608 43.5761636,17.1764019 C43.5750947,17.1742868 43.5740257,17.1721716 43.5724223,17.1700564 C43.5900602,17.1242279 43.6146465,17.0671185 43.6467155,16.9987282 C43.7263535,16.8281049 43.7071121,16.8210544 43.7568191,16.6384452 C43.7589571,16.6553665 43.761095,16.6772232 43.761095,16.7075406 C43.761095,16.8316302 43.7349053,16.9409137 43.69375,17.0234051 M43.4628531,16.4043671 C43.4409393,16.5355072 43.3901633,16.6680575 43.4430772,16.6109481 C43.4457496,16.6081279 43.4478876,16.6053077 43.45056,16.6031925 L43.4462841,16.610243 C43.3933702,16.7019001 43.3906978,16.8111836 43.3399219,16.7858017 C43.3554219,16.7540742 43.3559564,16.7463186 43.2998356,16.7117709 C43.2880769,16.7047204 43.2773873,16.6983749 43.2677666,16.6934395 C43.26937,16.6828637 43.2725769,16.6694676 43.2773873,16.6539564 C43.303577,16.5665297 43.3404563,16.5735802 43.2666976,16.5277516 C43.2608183,16.5242264 43.2554734,16.5214062 43.2506631,16.5178809 C43.270439,16.4755776 43.2896804,16.455131 43.3137322,16.5305719 C43.351146,16.6469059 43.3634391,16.7265771 43.3778702,16.673698 C43.3923013,16.6215239 43.3965771,16.6701727 43.3778702,16.5355072 C43.3596978,16.4078924 43.3629047,16.2689966 43.4088703,16.2711118 C43.3880254,16.3825104 43.3495426,16.4861534 43.3944392,16.4375047 C43.4238358,16.4057772 43.449491,16.3803952 43.46606,16.3832154 C43.464991,16.3895609 43.4639221,16.3966115 43.4628531,16.4043671 M43.0999387,15.3249284 C43.0785594,15.4179956 43.0448869,15.4814505 43.0213696,15.3615912 C43.0122834,15.3157627 43.0058696,15.2840352 43.0037316,15.2572432 C43.0058696,15.2205803 43.0170937,15.1888529 43.0438179,15.138794 C43.0705421,15.0887351 43.0978008,15.0682885 43.1181111,15.0668784 C43.1288008,15.0725188 43.1346801,15.0859149 43.1341457,15.1042463 C43.1314732,15.2001337 43.1207836,15.2311561 43.0999387,15.3249284 M42.990904,16.7061305 C42.9882316,16.699785 42.9866282,16.6941445 42.9850247,16.6885041 C43.0026627,16.6518413 43.0138868,16.6024874 43.0363351,16.6292795 C43.0427489,16.6476109 43.0480938,16.6715828 43.0513007,16.7061305 C43.0668007,16.8612425 43.0224386,16.7886219 42.990904,16.7061305 M43.0101454,16.8323353 C43.0203006,16.8147089 43.0315248,16.8097735 43.0475593,16.8358605 C43.0336627,16.8351555 43.0213696,16.8337454 43.0101454,16.8323353 M42.9839557,16.326106 C42.9925075,16.3042493 43.0048006,16.2852128 43.0122834,16.2436146 C43.0170937,16.2182327 43.0229731,16.1991962 43.0293869,16.18439 C43.0272489,16.2069518 43.0245765,16.2386792 43.0128179,16.2915583 C42.9941109,16.3761649 43.0048006,16.3930862 43.0192317,16.4226985 C43.0176282,16.4304541 43.0160248,16.4382097 43.0144213,16.4466704 C43.0005247,16.5066 43.0005247,16.5362123 43.0069385,16.5587741 C43.0015937,16.5474932 42.9967834,16.5355072 42.991973,16.5228163 C42.9652488,16.4523108 42.9989213,16.4410299 42.9839557,16.326106 M42.9759385,15.5963744 C42.975404,15.5998997 42.975404,15.603425 42.9748695,15.6076553 C42.9652488,15.7486663 42.9144729,15.7832139 42.8909556,15.7352702 C42.8866797,15.7268096 42.8840073,15.719759 42.8818694,15.7141186 C42.8866797,15.6964922 42.8920246,15.6746355 42.8979039,15.6450232 C42.9016453,15.6252817 42.9043177,15.6090654 42.9059211,15.5942593 C42.9069901,15.5886188 42.9080591,15.5836835 42.909128,15.5787481 C42.9219556,15.5110628 42.9203522,15.4758101 42.9219556,15.4469029 C42.925697,15.436327 42.9305074,15.4264563 42.9369212,15.4144703 C42.9668523,15.3608862 42.9786109,15.4673494 42.9759385,15.5963744 M42.9219556,16.2273984 C42.9160763,16.3789851 42.8856108,16.3895609 42.8252141,16.6137683 C42.7739037,16.8055432 42.7936796,16.7928522 42.7899382,16.8605374 C42.7423691,17.0516073 42.7760416,17.0085989 42.7600071,17.1340987 C42.7514554,17.1975536 42.7541278,17.2504327 42.7568002,17.3011966 C42.7370243,17.2786349 42.7193863,17.2560731 42.7028173,17.2335114 C42.7012139,17.2144749 42.6996104,17.1933232 42.7001449,17.1721716 C42.7006794,17.1580705 42.7006794,17.1446745 42.7012139,17.1319835 C42.7108346,17.0826297 42.7119036,17.0551325 42.7092311,17.0311607 C42.713507,17.0015484 42.7193863,16.9684108 42.729007,16.9275176 C42.7551967,16.8140038 42.7364898,16.8104786 42.7316795,16.7308074 C42.7284726,16.6885041 42.7332829,16.6278694 42.7434381,16.5552488 C42.746645,16.5376224 42.7503864,16.519996 42.7541278,16.5023697 C42.7920761,16.3162353 42.8006278,16.3437324 42.8214727,16.2309236 C42.8423176,16.1188199 42.8359038,16.0835672 42.8775935,15.9947303 C42.9176798,15.9073035 42.9182143,16.05466 42.9321108,16.1082441 C42.927835,16.1378564 42.9235591,16.1759294 42.9219556,16.2273984 M42.7605416,15.5237538 C42.7514554,15.499782 42.7407657,15.4433776 42.729007,15.3615912 C42.7070932,15.2142348 42.7113691,15.2671139 42.7252657,15.2234005 C42.7380933,15.2445522 42.7503864,15.2875605 42.7568002,15.3284537 C42.7674899,15.3982541 42.7706968,15.4426725 42.7605416,15.5237538 M42.729007,14.7799211 C42.7327484,14.7672302 42.7380933,14.7622948 42.7450415,14.7644099 C42.7648174,14.7989576 42.7835244,14.8546569 42.7888692,14.906831 C42.796352,14.971696 42.7861968,15.0175246 42.7771106,15.0429065 C42.7658864,15.0259852 42.7482484,14.9984881 42.729007,14.9554798 C42.6921277,14.8765136 42.7092311,14.8518367 42.729007,14.7799211 M42.4997135,14.8856793 C42.4777997,14.932213 42.4580238,14.9702859 42.4409203,15.0027184 C42.4291617,14.9392635 42.4639031,14.9223422 42.4997135,14.8856793 M42.3773168,16.8041331 C42.3751789,16.7928522 42.3730409,16.7801612 42.3682306,16.7505489 C42.3660926,16.7378579 42.3644892,16.7230518 42.3623512,16.7061305 C42.3687651,16.7181164 42.3751789,16.7561894 42.3821271,16.7808663 C42.3842651,16.7886219 42.3869375,16.7970825 42.3885409,16.8055432 C42.385334,16.8048381 42.3815927,16.8048381 42.3773168,16.8041331 M40.7038484,17.3822779 C40.6808657,17.357601 40.6653656,17.3371544 40.6445208,17.3117724 C40.6327621,17.2941461 40.6252794,17.2849804 40.6113828,17.2715843 C40.5926758,17.2504327 40.5691586,17.2250507 40.5370895,17.1926182 C40.4927274,17.1489048 40.4718825,17.1185875 40.456917,17.0896802 C40.4537101,17.0755791 40.4499687,17.0579528 40.4456928,17.0368011 C40.4136238,16.8887396 40.3681927,16.7371529 40.4098824,16.8006078 C40.4419515,16.8816891 40.4740205,16.9916776 40.5349516,17.0572477 C40.5504516,17.1143571 40.5424344,17.1270481 40.6071069,17.1806323 C40.6482621,17.2137698 40.6648311,17.2180002 40.6776587,17.2278709 L40.6958312,17.2518428 C40.702245,17.2638287 40.7102623,17.2814551 40.7214864,17.3082472 C40.7535554,17.383688 40.7802796,17.4182357 40.7909693,17.4450278 C40.7615727,17.4238761 40.7252278,17.4041346 40.7038484,17.3822779 M40.1859338,17.3040168 C40.1656234,17.228576 40.1522613,17.1926182 40.1431751,17.1615958 C40.1645544,17.2130648 40.1902097,17.2624186 40.2228132,17.3004916 C40.2254856,17.3145926 40.2276235,17.3286937 40.2308304,17.3456151 C40.2468649,17.4259913 40.2276235,17.460539 40.1859338,17.3040168 M39.9742783,16.9677058 C39.9721403,16.9599502 39.9700024,16.9521946 39.9667955,16.9437339 C39.9480886,16.8880346 39.9277782,16.8245797 39.9090712,16.76465 C39.9133471,16.7618298 39.917623,16.7583045 39.9229678,16.7561894 C39.966261,16.7315124 39.966261,16.8217594 39.9855024,16.9296328 C39.9961921,16.9909726 39.9908472,16.9895624 39.9742783,16.9677058 M39.8075194,17.151725 C39.7604848,17.0304556 39.7604848,17.0889752 39.7161226,17.010009 C39.6717605,16.9310429 39.6252604,16.8584223 39.588381,16.7808663 C39.5637948,16.7286922 39.5830362,16.7308074 39.6086914,16.7575995 C39.6514501,16.8767537 39.640226,16.8697032 39.7171916,16.9684108 C39.80164,17.0755791 39.8112607,17.0861549 39.819278,17.1608907 C39.8198125,17.1686463 39.820347,17.1756969 39.820347,17.1827474 C39.8160711,17.1728767 39.8123297,17.1630059 39.8075194,17.151725 M39.5440189,17.1397391 L39.5440189,17.139034 C39.5290534,17.060773 39.5771569,17.0925004 39.6028121,17.1087167 C39.6054845,17.125638 39.6081569,17.1446745 39.6113638,17.163711 C39.6322087,17.280045 39.6006742,17.1940283 39.5440189,17.1397391 M39.4943119,17.0791044 C39.4830878,17.0551325 39.4825533,17.0297506 39.4969843,17.0071888 C39.4991223,17.0149444 39.5012602,17.021995 39.5023292,17.0269303 C39.5050016,17.0417365 39.507674,17.0791044 39.4943119,17.0791044 M39.1372768,17.3427948 C39.1538458,17.3456151 39.1746907,17.3604212 39.1869838,17.3681768 C39.2115701,17.3829829 39.2195873,17.4076599 39.2260011,17.4668845 C39.1998114,17.4238761 39.1704148,17.3872133 39.1372768,17.3427948 M39.1677424,16.9895624 C39.1746907,17.0001383 39.1757597,17.0071888 39.1730872,17.0128293 C39.1704148,17.0071888 39.1677424,17.0022534 39.16507,16.996613 C39.1607941,16.9874473 39.1581217,16.9796917 39.1559838,16.9733462 C39.1607941,16.9796917 39.1645355,16.9846271 39.1677424,16.9895624 M38.9063799,16.9959079 C38.902104,16.9959079 38.8839316,16.970526 38.8625522,16.9402086 C38.8684316,16.932453 38.8780523,16.9338631 38.8908799,16.9479642 C38.9026385,16.9754614 38.9106558,16.9959079 38.9063799,16.9959079 M47.9247227,19.563012 C47.8969295,19.5785232 47.8696709,19.5009671 47.9049468,19.4777003 C47.9402227,19.4544335 47.9199123,19.3035518 47.9049468,19.2725294 C47.8905157,19.241507 47.8755502,19.280285 47.8434812,19.319063 C47.8108777,19.357136 47.7788087,19.3458551 47.7814811,19.319063 C47.784688,19.2915659 47.8199639,19.280285 47.8637916,19.2372767 C47.9081537,19.1949734 47.8873088,19.1794622 47.8637916,19.1329286 C47.8402743,19.086395 47.834395,19.0906253 47.8306536,19.0906253 C47.8269122,19.0906253 47.752619,19.1329286 47.6906189,19.1872178 C47.6291532,19.241507 47.6350326,19.163951 47.6644292,19.125173 C47.6938258,19.086395 47.7494121,19.0941506 47.8108777,19.0398614 C47.8728778,18.9855722 47.7729293,18.9623054 47.7258948,18.8967353 C47.6788602,18.8304602 47.6761878,18.8304602 47.6163256,18.776171 C47.5569979,18.7225868 47.5495152,18.8036681 47.4672047,18.8692382 C47.4271184,18.9016707 47.4036011,18.9143617 47.3806183,18.931988 C47.3811528,18.9256425 47.3811528,18.9178869 47.3806183,18.9115414 C47.4153598,18.8784039 47.4570495,18.8332804 47.5318772,18.7804013 C47.6526705,18.6950897 47.6173946,18.6718229 47.587998,18.6252893 C47.5586014,18.5787557 47.5436359,18.5244664 47.5206531,18.4821632 C47.4971358,18.4391548 47.4736185,18.4356296 47.455446,18.4511408 C47.4383426,18.466652 47.3442734,18.571 47.2416526,18.6675925 C47.2202732,18.6880391 47.2053077,18.7021402 47.1951525,18.7113059 C47.1882042,18.7169464 47.1817904,18.7225868 47.1753766,18.7282272 C47.1727042,18.7275222 47.1828594,18.712716 47.1764456,18.7070756 C47.1684283,18.6986149 47.1823249,18.6767582 47.2095836,18.6393904 C47.2309629,18.6316347 47.2550147,18.6210589 47.2801354,18.5984972 C47.3047217,18.5773455 47.3004458,18.5611293 47.2849458,18.544913 C47.3330493,18.4906238 47.3934459,18.4384498 47.4618599,18.3890959 C47.5468428,18.3270511 47.4383426,18.3390371 47.4207046,18.3037843 C47.4030666,18.2692367 47.3795494,18.2614811 47.3410665,18.222703 C47.3031182,18.18322 47.2854802,18.2769923 47.2416526,18.3270511 C47.2250836,18.3453826 47.1935491,18.3742898 47.1556007,18.4095425 C47.1443766,18.3982617 47.1310145,18.3862757 47.1074972,18.3651241 C47.1689628,18.2925035 47.2192043,18.2332789 47.2325664,18.2184727 C47.2705147,18.1761694 47.2913596,18.145147 47.294032,18.1218802 C47.2972389,18.0986134 47.2560836,18.0210574 47.2149284,17.9625379 C47.1737732,17.9047234 47.0770316,17.8659454 47.047635,17.8271674 C47.0182384,17.7883894 47.0535143,17.7418558 47.047635,17.6875666 C47.0417557,17.6339824 47.0182384,17.6339824 46.9829625,17.5944993 C46.9476866,17.5557213 46.9241693,17.5331596 46.8888934,17.461244 C46.8536174,17.3886234 46.8888934,17.4316317 46.8888934,17.3547808 C46.8888934,17.2772248 46.8418588,17.2694691 46.8359795,17.2462023 C46.8301002,17.2229355 46.7595483,17.1764019 46.736031,17.1376239 C46.7125138,17.0988459 46.671893,17.0600679 46.6302033,16.9670007 C46.5895825,16.8739335 46.5895825,16.8894447 46.5660652,16.8125937 C46.542548,16.7350377 46.52491,16.7350377 46.4602375,16.6807485 C46.3955649,16.6264593 46.4602375,16.6342149 46.3367717,16.5566589 C46.213306,16.4791029 46.2838579,16.4868585 46.2838579,16.3705245 C46.2838579,16.2541904 45.8060295,15.6964922 45.7766329,15.6577142 C45.7477708,15.6189362 45.6435464,15.4821556 45.6339257,15.461709 C45.624305,15.4405574 45.6146843,15.4250462 45.5574946,15.3735772 C45.5008393,15.3221082 45.5163393,15.3347992 45.4634254,15.2706392 C45.4105116,15.2057742 45.4324254,15.190263 45.3853908,15.1105918 C45.3383563,15.0302156 45.3127011,15.0457268 45.2833045,15.0302156 C45.2539078,15.0147044 45.1710629,14.920227 45.167856,14.9103563 C45.1651836,14.9004855 45.0769938,14.8151739 45.0769938,14.8151739 L44.9930798,14.7340926 C44.9930798,14.7340926 44.971166,14.7044803 44.9374935,14.6854438 C44.9038211,14.6664073 44.8744245,14.623399 44.8610624,14.6078878 C44.8482348,14.5923766 44.7702001,14.571225 44.7509587,14.532447 C44.7317173,14.493669 44.7333208,14.5056549 44.6964414,14.5014246 C44.659562,14.4971942 44.6216137,14.4605314 44.6039757,14.4280989 C44.5863378,14.3949613 44.5809929,14.4083573 44.5425101,14.4182281 C44.5040273,14.4280989 44.462872,14.3893209 44.430803,14.3618237 C44.398734,14.3350317 44.3912512,14.351953 44.3693374,14.3815653 C44.3474236,14.4104725 44.3516994,14.4027169 44.3030614,14.4161129 C44.2843545,14.4210483 44.2699234,14.4238685 44.2586993,14.4273938 C44.2410613,14.4203433 44.234113,14.4337393 44.2180785,14.4541859 C44.1983026,14.4802729 44.2025785,14.4732224 44.1592853,14.4852083 C44.1518025,14.4873235 44.1453887,14.4894386 44.1395094,14.4908487 C44.1314922,14.4795679 44.1266818,14.4725173 44.1138542,14.4704022 C44.0983542,14.4675819 44.0427679,14.5112953 44.0139058,14.4837982 C43.9684746,14.4414949 43.9871816,14.4781578 43.9417505,14.4993094 C43.9005952,14.5190509 43.8460779,14.5423177 43.8407331,14.5402026 C43.8081295,14.5246914 43.8054571,14.5810957 43.7701812,14.5535986 C43.7349053,14.5268065 43.729026,14.5578289 43.7012328,14.5768654 C43.6729052,14.5966069 43.6018189,14.6092979 43.5606636,14.5937867 C43.5195084,14.5782755 43.4959911,14.5550087 43.4585772,14.5754553 C43.4216979,14.5966069 43.368784,14.5655845 43.3452667,14.5394975 C43.3217494,14.5134105 43.3137322,14.5239863 43.2554734,14.4929639 C43.1966802,14.4619415 43.1945423,14.4696971 43.1614043,14.4414949 C43.1277318,14.4132927 43.1239905,14.4154079 43.0753524,14.3970765 C43.02618,14.3794501 43.0181627,14.3688743 42.9828868,14.3279811 C42.9476109,14.2863829 42.9454729,14.2814475 42.9005763,14.2602959 C42.8556797,14.2398493 42.8166624,14.2243381 42.7717657,14.1855601 C42.7263346,14.1467821 42.5793516,14.0953131 42.5440757,14.0487795 C42.5093343,14.0022459 42.3602133,14.0269228 42.336696,14.0078863 C42.3131788,13.9881448 42.1458854,14.0078863 42.107937,14.0403188 C42.0694542,14.0741614 41.9903506,14.042434 41.9524023,14.0769817 C41.9139195,14.1122344 41.8198503,14.1355012 41.781902,14.158768 C41.7434192,14.1820348 41.6317121,14.2285684 41.6081948,14.2588858 C41.585212,14.2899082 41.5146602,14.3209306 41.4943498,14.31388 C41.4735049,14.3054194 41.3735565,14.4139978 41.3206426,14.4217534 C41.2677287,14.429509 41.1004353,14.5380874 41.0737111,14.5733401 C41.0475214,14.6078878 41.0213317,14.6311546 40.9598661,14.6544214 C40.897866,14.6776882 40.8625901,14.7552442 40.8064693,14.7742807 C40.750883,14.7940222 40.7482106,14.7897919 40.7161416,14.8250446 C40.6835381,14.8595923 40.5365551,14.9491343 40.5189171,14.9724011 C40.5012791,14.9949628 40.4162962,15.0795694 40.3633824,15.1028362 C40.3104685,15.126103 40.3222271,15.1338586 40.2890891,15.1853276 C40.2559511,15.2367966 40.2655718,15.2339763 40.19502,15.2706392 C40.1244682,15.306597 39.7556744,15.642203 39.6910019,15.6541889 C39.6263294,15.6654698 39.4264325,15.8903822 39.4120014,15.9404411 C39.3970359,15.9912051 39.2356218,16.1110643 39.2179839,16.1385615 C39.2003459,16.1653536 38.9245523,16.3345667 38.8657591,16.4064822 C38.8069659,16.4791029 38.7636728,16.4946141 38.7855866,16.5228163 C38.8069659,16.5510185 38.8363625,16.6215239 38.8069659,16.5975521 C38.7775693,16.5749903 38.7540521,16.5594791 38.7187761,16.5566589 C38.6835002,16.5538387 38.6150863,16.6342149 38.5525517,16.6856839 C38.4900171,16.7371529 38.4472584,16.8337454 38.4264136,16.8816891 C38.4061032,16.9303379 38.4574136,16.9648855 38.5103275,17.0234051 C38.5247586,17.0396213 38.544,17.0600679 38.5637759,17.0819246 C38.5536207,17.0939105 38.5477414,17.1108319 38.5552241,17.1305734 C38.5573621,17.138329 38.5600345,17.1446745 38.5627069,17.151725 C38.5306379,17.1136521 38.4841378,17.0685286 38.4531378,17.0212899 C38.4205343,16.9733462 38.4002239,16.9423238 38.3911377,16.9437339 C38.3825859,16.9458491 38.3563962,16.9789866 38.3398272,17.0057787 C38.3237927,17.0332758 38.3029478,17.0445567 38.3195168,17.0642982 C38.3355513,17.0833347 38.4103791,17.2384467 38.3986204,17.2384467 C38.3868618,17.2384467 38.2869133,17.0755791 38.2623271,17.0544275 C38.2372064,17.0332758 38.2430857,17.0368011 38.2281201,17.0544275 C38.2136891,17.0720538 38.2152925,17.1143571 38.231327,17.1362138 C38.2473615,17.1566604 38.298672,17.228576 38.3195168,17.2899157 C38.3398272,17.3512555 38.298672,17.3040168 38.2842409,17.2899157 C38.2692754,17.2758146 38.2195684,17.151725 38.2078098,17.1340987 C38.1960511,17.1164723 38.1901718,17.112242 38.1784132,17.1340987 C38.1666545,17.1552503 38.0859475,17.2462023 38.0859475,17.2462023 C38.0859475,17.2462023 38.1110682,17.2708793 38.1271027,17.2969663 C38.1431372,17.3216432 38.1842925,17.4048396 38.1901718,17.4415025 C38.1960511,17.4781653 38.1575683,17.4556036 38.1415338,17.4281064 C38.1254993,17.4013144 38.0725854,17.3293988 38.0549474,17.3174129 C38.0373095,17.306132 37.985999,17.3420898 38.003637,17.3893284 C38.0725854,17.5754629 38.1051889,17.6339824 38.1928442,17.7418558 C38.281034,17.8504342 38.2869133,17.8194118 38.2959996,17.7883894 C38.3045513,17.757367 38.266603,17.680516 38.2227753,17.5944993 C38.1784132,17.5091877 38.2281201,17.5366849 38.2633961,17.5712325 C38.298672,17.6064853 38.3136375,17.7263446 38.3606721,17.8391533 C38.4077066,17.951257 38.4632929,17.9667682 38.6337932,18.0210574 C38.803759,18.0753466 38.839035,18.0365686 38.8540005,17.990035 C38.8684316,17.9435014 38.8363625,17.9202346 38.7861211,17.8194118 C38.7364141,17.718589 38.6776209,17.6607745 38.6011897,17.5486708 C38.5247586,17.435862 38.6305863,17.5056625 38.6835002,17.564182 C38.7364141,17.6219965 39.0154146,18.1486723 39.0800871,18.145147 C39.1447596,18.1409167 39.1768286,18.1677088 39.2003459,18.0556051 C39.2238632,17.9435014 39.1944666,17.9745238 39.1506389,17.7926197 C39.1372768,17.7376254 39.133001,17.7094233 39.1346044,17.6981424 C39.1394148,17.6995525 39.1442251,17.7009626 39.148501,17.7023727 C39.1607941,17.719294 39.1773631,17.7545468 39.1885873,17.7806338 C39.214777,17.8426786 39.2062252,17.9279902 39.2297425,18.0443242 C39.2532598,18.1606582 39.2853288,18.1521976 39.3382427,18.1331611 C39.3911566,18.1141246 39.5001912,18.145147 39.6348811,18.1606582 C39.6958123,18.1670037 39.7230709,18.1655936 39.7342951,18.1620683 C39.7513986,18.1613633 39.768502,18.1550178 39.7930883,18.1458521 C39.819278,18.1606582 39.8470711,18.1254055 39.9138816,18.1366864 C40.0020714,18.1521976 40.0581922,18.1254055 40.1843303,18.1141246 C40.2286925,18.1098943 40.2463304,18.1014336 40.2511408,18.0887427 C40.3013823,18.0654759 40.4601239,18.0133018 40.5467103,17.9413862 C40.6455897,17.8595999 40.749814,17.8772263 40.7904348,17.8786364 C40.7973831,17.8807515 40.8032624,17.8807515 40.8080728,17.8793414 C40.8967971,17.8828667 41.2490218,17.8885071 41.4799187,17.7207041 C41.7327295,17.5373899 42.0325748,17.6840413 42.2319372,17.5246989 C42.2976787,17.4718198 42.3815927,17.4816906 42.4687135,17.5190585 C42.4735238,17.5232888 42.4788687,17.5282242 42.483679,17.5331596 C42.5184205,17.564182 42.5430067,17.5705275 42.5804206,17.5789881 C42.7209898,17.667825 42.8514038,17.7940298 42.9053866,17.8144764 C42.9732661,17.8398584 43.2469217,17.8708808 43.4820945,17.834923 C43.4986635,17.8328078 43.5152325,17.8292825 43.5318015,17.8264623 C43.6082327,17.8151815 43.7065777,17.8137713 43.8236296,17.8786364 C43.9674057,17.9597177 44.0470437,18.041504 44.2330441,18.170529 C44.2490786,18.183925 44.267251,18.196616 44.2886304,18.2071918 C44.4756996,18.3221158 44.742407,18.4236436 44.8995452,18.4920339 C44.9674246,18.5399776 45.019804,18.5893315 45.0663041,18.6619521 C45.0727179,18.6972048 45.1095973,18.7345727 45.1560973,18.7959125 C45.1913733,18.841741 45.5740636,19.1604257 45.6553051,19.2104846 C45.6665292,19.2217655 45.6927189,19.2386868 45.7231845,19.2570182 C45.838633,19.3458551 45.9284262,19.4551386 46.0107367,19.4854559 C46.0502885,19.5002621 46.2181164,19.6398629 46.2341509,19.6518488 L46.2817199,19.6863965 C46.3218062,19.7138937 46.4655823,19.7893345 46.4896341,19.7992053 C46.5062031,19.8055508 46.5131514,19.8076659 46.5297203,19.8118962 L46.5297203,19.8118962 C46.5430824,19.8161266 46.5617894,19.8224721 46.5954618,19.8337529 C46.671893,19.8612501 46.7921518,19.9310505 46.8215484,19.8845169 C46.850945,19.8379833 46.8974451,19.8337529 46.8974451,19.8647753 C46.8974451,19.8957978 46.8712554,19.9345758 46.8862209,19.9818144 C46.900652,20.0290531 46.9508935,19.9698285 47.0064798,19.9655982 C47.0620661,19.9620729 47.0711523,19.950087 47.1299455,19.9035534 C47.1882042,19.8570197 47.226687,19.8259973 47.3031182,19.7681829 C47.3795494,19.7096633 47.4057391,19.7096633 47.4736185,19.6483236 C47.5409634,19.5862788 47.6083084,19.5665372 47.7226879,19.5164783 C47.8376019,19.4657144 47.7344465,19.563012 47.6906189,19.5785232 C47.6467912,19.5940344 47.4148253,19.7491464 47.3560321,19.7872193 C47.2972389,19.8259973 47.1475835,19.9733538 47.1711007,19.9811094 C47.194618,19.988865 47.3325148,19.9310505 47.4672047,19.9077837 C47.6024291,19.8845169 47.7317741,19.79568 47.8376019,19.718124 C47.9434296,19.640568 47.9899297,19.628582 47.9990159,19.60179 C48.0081022,19.5742928 47.9519814,19.5475008 47.9247227,19.563012" id="Fill-10" fill="#333333"></path>
        <path d="M45.6045036,20.6268914 C45.6045036,20.6268914 45.5703221,20.6980188 45.539766,20.6146482 C45.5242289,20.5709223 45.5061024,20.5184513 45.4905653,20.4741424 C45.4978159,20.4706443 45.5061024,20.4671463 45.5154246,20.4648142 C45.5387302,20.4578181 45.5589283,20.4589841 45.5775728,20.4595671 C45.5962172,20.5190343 45.6158974,20.5790845 45.6158974,20.5790845 L45.6045036,20.6268914 Z M45.3807703,20.6939377 C45.3730017,20.6939377 45.3481425,20.6764474 45.3315696,20.65371 C45.3320875,20.6507949 45.3326054,20.6478798 45.3331233,20.6443818 C45.3362307,20.605903 45.3155147,20.5971578 45.3113715,20.5924937 L45.3113715,20.5901617 C45.3129252,20.5884127 45.3201758,20.5854976 45.3388202,20.5796675 C45.3688585,20.5709223 45.3937178,20.5604281 45.4108085,20.5516829 C45.4211666,20.5913277 45.4284172,20.6233934 45.4299709,20.6303895 C45.4335962,20.6467138 45.3921641,20.6939377 45.3807703,20.6939377 L45.3807703,20.6939377 Z M45.2865122,20.4368297 C45.287548,20.4327486 45.2885838,20.4275015 45.2896196,20.4210884 C45.2999776,20.3680343 45.3082641,20.2753355 45.3129252,20.2205324 C45.3170684,20.2316096 45.3206937,20.2426868 45.3238011,20.2537641 C45.3424456,20.3278065 45.3843956,20.4648142 45.3843956,20.4648142 L45.3730017,20.5161192 C45.3730017,20.5161192 45.3388202,20.5924937 45.3082641,20.503293 C45.3015314,20.4823046 45.2937628,20.4595671 45.2865122,20.4368297 L45.2865122,20.4368297 Z M45.2481875,20.7096791 C45.2481875,20.7295015 45.198469,20.6863586 45.2062375,20.654293 C45.2072733,20.6496289 45.2083091,20.6455478 45.208827,20.6408837 C45.2228103,20.6461308 45.2373116,20.6525439 45.250777,20.658374 C45.2481875,20.6828605 45.2481875,20.7003509 45.2481875,20.7096791 L45.2481875,20.7096791 Z M45.172056,20.4723934 C45.1622159,20.5073741 45.140464,20.5423548 45.1264807,20.5750034 C45.10939,20.5604281 45.0591535,20.3680343 45.0555282,20.3050691 C45.056564,20.301571 45.0570819,20.2980729 45.0581177,20.2939919 C45.0731369,20.2082892 45.0845307,20.0293046 45.0845307,20.0293046 C45.0845307,20.0293046 45.0622609,19.9202815 45.0487955,19.8415749 C45.0632967,19.8147564 45.0746906,19.8071773 45.0809054,19.8269997 C45.0922992,19.8619803 45.0834949,19.9039572 45.1332134,20.0934359 C45.1389103,20.1132583 45.1435714,20.1324977 45.1477147,20.151154 C45.1321776,20.1861347 45.119748,20.2351077 45.1378745,20.2852467 C45.1534116,20.3295556 45.1679128,20.3861077 45.1787887,20.4327486 C45.1777529,20.4484899 45.1751634,20.4618992 45.172056,20.4723934 L45.172056,20.4723934 Z M44.9400362,20.349378 C44.935893,20.3657023 44.9296782,20.3814436 44.9224276,20.3971849 C44.9224276,20.3931038 44.9224276,20.3884397 44.9219097,20.3843586 C44.9141412,20.3307216 44.9027473,20.2671733 44.8913535,20.2356907 C44.8799597,20.2042081 44.883585,20.1412428 44.8685658,20.046212 C44.8535467,19.9511811 44.8799597,19.9196985 44.8343844,19.7692815 C44.8245442,19.7377989 44.8167757,19.7086483 44.810043,19.6818298 C44.8281695,19.641019 44.8421529,19.6270267 44.8494035,19.6509302 C44.8602794,19.6894089 44.8514751,19.7343008 44.9017115,19.9395209 C44.9063726,19.9587602 44.9110338,19.9779996 44.9146591,19.996073 C44.9131054,20.0269726 44.9125875,20.0561232 44.9141412,20.0695324 C44.9167307,20.0940189 44.9312319,20.149988 44.9446973,20.1826367 C44.951948,20.2590112 44.9493585,20.3149803 44.9400362,20.349378 L44.9400362,20.349378 Z M44.857172,20.1459069 C44.8566541,20.149988 44.8551004,20.1540691 44.8535467,20.1587332 C44.8457782,20.1779726 44.8343844,20.198378 44.8229905,20.2182004 C44.8266158,20.1820537 44.8250621,20.1389108 44.8095251,20.0736135 C44.8074535,20.0654514 44.8053819,20.0572892 44.8033103,20.049127 C44.8369739,20.0788606 44.8654584,20.1068452 44.857172,20.1459069 L44.857172,20.1459069 Z M44.7618782,20.2537641 C44.7354652,20.3068181 44.7126776,20.3406328 44.704909,20.3622042 C44.69973,20.3773625 44.6904078,20.4059301 44.6857467,20.4315826 C44.6717633,20.4269185 44.6572621,20.4222544 44.6432788,20.4187563 C44.652601,20.3966019 44.6593337,20.3796946 44.6593337,20.3750305 C44.6593337,20.3622042 44.6976584,20.3114822 44.6898899,20.2537641 C44.6821214,20.1954629 44.6707275,20.1272506 44.6593337,20.0928529 C44.6479399,20.0590382 44.6520831,19.9908259 44.6365461,19.8882159 C44.6215269,19.7856058 44.6479399,19.7517912 44.6023646,19.589131 C44.5573072,19.4264708 44.5495386,19.3244437 44.5381448,19.2941271 C44.5314121,19.2772198 44.5065528,19.2195017 44.479622,19.1617835 C44.4801399,19.1285519 44.4853189,19.1192237 44.500338,19.1693627 C44.5345195,19.2818839 44.5800948,19.4124785 44.6085794,19.4830229 C44.637064,19.5541503 44.6085794,19.5483202 44.6484578,19.6847448 C44.662959,19.7343008 44.673835,19.7803587 44.6836751,19.8223356 C44.6810856,19.8596483 44.6805677,19.896961 44.6821214,19.9138684 C44.6862646,19.947683 44.7090522,20.0374668 44.7240714,20.0590382 C44.7390905,20.0806097 44.7618782,20.1015981 44.7618782,20.1441579 C44.7618782,20.1873008 44.7882911,20.20071 44.7618782,20.2537641 L44.7618782,20.2537641 Z M44.5692189,19.8893819 C44.6034004,19.9220305 44.6334387,19.9523471 44.6256701,19.99549 C44.621009,19.9896599 44.6153121,19.9832467 44.6085794,19.9750846 C44.5557535,19.9097873 44.5598967,19.9680884 44.5692189,19.8893819 L44.5692189,19.8893819 Z M44.5604146,20.3977679 L44.5578251,20.3971849 C44.5127676,20.3721154 44.4920516,20.35171 44.5231257,20.3348027 C44.5412522,20.3243085 44.5604146,20.3068181 44.5780232,20.2829146 C44.6018467,20.3120652 44.6272238,20.3365517 44.6272238,20.3365517 C44.6272238,20.3365517 44.5795769,20.3546251 44.5604146,20.3977679 L44.5604146,20.3977679 Z M44.2916238,20.200127 C44.3045713,20.1919648 44.3190726,20.1791386 44.332538,20.1622313 C44.3496287,20.2141193 44.36413,20.2601772 44.3755238,20.2951579 C44.2988744,20.2555131 44.2501917,20.2251965 44.2916238,20.200127 L44.2916238,20.200127 Z M44.1642201,20.4111772 C44.1631843,20.404181 44.1626664,20.400683 44.1626664,20.400683 C44.1626664,20.400683 44.1564515,20.3814436 44.1409145,20.4199223 C44.1393608,20.4205054 44.138325,20.4205054 44.1372892,20.4210884 C44.1362534,20.4158413 44.1346997,20.4105942 44.1326281,20.4053471 C44.1134657,20.3662853 44.0678904,20.4368297 44.0720336,20.3068181 C44.0756589,20.1768065 44.0906781,20.2123703 44.0943034,20.1447409 C44.0984466,20.0776946 44.1248596,20.1289996 44.0906781,20.0578722 C44.0564966,19.9867448 44.0870528,20.0065672 44.0186898,19.9272776 C43.9907231,19.895212 43.9700071,19.8783047 43.9523984,19.8631464 C43.9378972,19.8293317 43.9244317,19.7990151 43.9120021,19.7599533 C43.8892145,19.6876599 43.802207,19.4993472 43.8208515,19.4824399 C43.8312095,19.4731117 43.8529614,19.4573704 43.8747132,19.4591194 C43.9104484,19.541324 43.9151095,19.5698916 43.9353077,19.6112854 C43.9617206,19.6672545 44.0150645,19.7535402 44.0150645,19.7535402 C44.0150645,19.7535402 44.0161003,19.7547062 44.017654,19.7570383 C44.0202435,19.7646174 44.022833,19.7727796 44.0259404,19.7815248 C44.0839454,19.9494321 44.1341818,20.1295826 44.1569694,20.200127 C44.1559336,20.2088722 44.153862,20.2182004 44.1512725,20.2275285 C44.1284849,20.3184783 44.1704349,20.3843586 44.1704349,20.3843586 C44.1704349,20.3843586 44.1787213,20.3936868 44.1890793,20.403015 C44.180275,20.4053471 44.1725065,20.4082621 44.1642201,20.4111772 L44.1642201,20.4111772 Z M43.8819638,19.7692815 C43.855033,19.7109804 43.8327632,19.6684205 43.818262,19.6270267 C43.8312095,19.6474321 43.8446749,19.6719186 43.855033,19.6958221 C43.8679805,19.7249726 43.8835175,19.7622854 43.8959472,19.7966831 C43.8912861,19.7891039 43.886625,19.7797757 43.8819638,19.7692815 L43.8819638,19.7692815 Z M43.6261206,19.5331619 C43.5971181,19.4672816 43.5764021,19.4194746 43.5707051,19.3582584 C43.5955644,19.4054823 43.6297459,19.4608684 43.6297459,19.4742777 C43.6297459,19.4836059 43.629228,19.5075093 43.6261206,19.5331619 L43.6261206,19.5331619 Z M42.3945513,20.2555131 C42.3924797,20.2794166 42.3909259,20.3103162 42.3888543,20.3464629 C42.3753889,20.2817486 42.369692,20.2170343 42.3847111,20.1733085 C42.3986945,20.1342467 42.4054272,20.0438799 42.4106062,19.9395209 C42.4183747,20.0654514 42.4033556,20.148239 42.3945513,20.2555131 L42.3945513,20.2555131 Z M42.1516555,19.9710035 C42.1412975,20.0246405 42.1221352,20.1080112 42.1112592,20.1902158 C42.1102234,19.9546792 42.1107413,19.7261387 42.1169562,19.7045672 C42.1195457,19.6952391 42.1210994,19.6765827 42.123171,19.6550113 C42.1371543,19.640436 42.1511376,19.6316908 42.159942,19.6054553 C42.1609778,19.6107024 42.1620136,19.6171155 42.1630494,19.6235286 C42.1770327,19.7197255 42.1816938,19.794351 42.180658,19.8602313 C42.1697821,19.8992931 42.1583883,19.9377718 42.1516555,19.9710035 L42.1516555,19.9710035 Z M41.4835628,20.708513 C41.4540425,20.7720613 41.4343622,20.8134551 41.4188252,20.8449377 C41.4328085,20.7936327 41.4447202,20.7464088 41.4478277,20.7149262 C41.4504172,20.6799455 41.4410949,20.6764474 41.4265937,20.6921887 C41.4245221,20.6688683 41.4177894,20.6338876 41.4084672,20.5936598 C41.4224505,20.5895787 41.4390233,20.5837486 41.4592215,20.5767524 C41.4654363,20.5744204 41.4711332,20.5732544 41.4763122,20.5726714 C41.4861523,20.6024049 41.4975462,20.6362196 41.5084221,20.6688683 C41.5022073,20.6741154 41.4939209,20.6863586 41.4835628,20.708513 L41.4835628,20.708513 Z M41.4467918,21.2985207 C41.4478277,21.3002697 41.4483456,21.3020187 41.4488635,21.3037678 C41.4467918,21.3072658 41.4462739,21.3049338 41.4467918,21.2985207 L41.4467918,21.2985207 Z M41.3794647,20.1855517 C41.3473548,20.2094552 41.3375147,20.200127 41.3276745,20.1814706 C41.3235313,20.095768 41.319906,19.9884938 41.3245671,19.9348568 C41.3266387,19.9092043 41.3344073,19.8573162 41.3452832,19.7961 C41.3603023,19.7541232 41.3773931,19.7144784 41.3944838,19.6759997 C41.4208968,19.6165325 41.4400591,19.6958221 41.4400591,19.6958221 C41.4400591,19.6958221 41.4022523,19.8613973 41.3680708,19.946517 C41.3338894,20.0322197 41.3452832,20.0118143 41.3603023,20.0631193 C41.3753215,20.1150073 41.3753215,20.0747795 41.3981091,20.0864398 C41.4193431,20.0981 41.4177894,20.0672004 41.4333264,19.9809147 C41.4265937,20.046212 41.4240042,20.1021811 41.4307369,20.1272506 C41.4328085,20.1354127 41.4343622,20.1453239 41.435398,20.1564011 C41.4343622,20.1534861 41.4333264,20.149988 41.4322906,20.1459069 C41.4172715,20.0864398 41.4322906,20.1459069 41.3794647,20.1855517 L41.3794647,20.1855517 Z M41.3530517,21.2443006 C41.3530517,21.2443006 41.3426937,21.161513 41.3535696,21.0863045 C41.3608202,21.1061269 41.3685888,21.1247832 41.3763573,21.1440226 C41.3628918,21.2005747 41.3530517,21.2443006 41.3530517,21.2443006 L41.3530517,21.2443006 Z M41.3302641,21.0058489 C41.3287103,21.0443277 41.3297462,21.0728952 41.3302641,21.0804744 C41.3297462,21.0682311 41.3266387,20.9965207 41.3302641,20.9283084 C41.330782,20.9160651 41.3302641,20.9049879 41.3292283,20.8939107 C41.3302641,20.8915786 41.3312999,20.8892466 41.3318178,20.8874976 C41.3354431,20.8799184 41.3421758,20.8694242 41.3499443,20.857764 C41.3385505,20.9009068 41.3333715,20.9475478 41.3312999,20.9877755 C41.3292283,20.9912736 41.3292283,20.9971037 41.3302641,21.0058489 L41.3302641,21.0058489 Z M41.2303091,20.7668142 C41.230827,20.7650652 41.230827,20.7638991 41.2313449,20.7621501 C41.288314,20.4420768 41.2007887,20.805876 41.1759295,20.8770034 C41.1546955,20.9364705 41.152106,20.9428837 41.1427838,20.9183972 C41.1686788,20.8187022 41.2101109,20.6799455 41.2158079,20.6111501 C41.2189153,20.5750034 41.2101109,20.5697563 41.1961276,20.5849146 C41.2007887,20.5674243 41.2064856,20.5417717 41.2199511,20.5091231 C41.2292733,20.4863857 41.2385955,20.4694783 41.2479177,20.4566521 C41.2981542,20.455486 41.2810634,20.5487679 41.2877961,20.5983239 C41.294011,20.6443818 41.2562042,20.7166752 41.2303091,20.7668142 L41.2303091,20.7668142 Z M41.1080844,20.8175362 C41.1054949,20.8245323 41.1039412,20.8315285 41.1023875,20.8373586 L41.0977264,20.8542659 C41.0977264,20.8501848 41.0977264,20.8455207 41.0982443,20.8420227 C41.1018696,20.7604011 41.0718313,20.6951038 41.0718313,20.6951038 C41.0718313,20.6951038 41.0511152,20.7872196 41.0350603,20.860096 C41.0319529,20.8461038 41.0298813,20.8338605 41.0298813,20.8251153 C41.0298813,20.7895516 40.9936282,20.7464088 40.9936282,20.7464088 C40.9936282,20.7464088 40.9848239,20.805876 40.9920745,20.8729223 C40.9956998,20.9014898 40.9915566,20.9522118 40.9853418,21.00993 C40.9651436,21.0449107 40.9428739,21.0775593 40.9428739,21.0641501 C40.9428739,21.0384975 40.9428739,21.0081809 40.9993251,20.6624551 C41.0029504,20.6426327 41.0055399,20.6251424 41.0081294,20.6099841 C41.0091652,20.6175632 41.010201,20.6245594 41.0112368,20.6315555 C41.0190054,20.6834435 41.0376498,20.7662312 41.0376498,20.7662312 C41.0376498,20.7662312 41.0568122,20.7190072 41.0640628,20.7026829 C41.0718313,20.6875246 41.0754566,20.6712003 41.1210319,20.5802505 C41.1666072,20.4898837 41.1515881,20.6123161 41.1743758,20.6158142 L41.1748937,20.6158142 C41.1578029,20.6467138 41.1386406,20.6916057 41.1246572,20.7394126 C41.1174066,20.7638991 41.1122276,20.7907177 41.1080844,20.8175362 L41.1080844,20.8175362 Z M41.0360961,21.66815 C41.036614,21.6669839 41.0376498,21.6640689 41.0386856,21.6605708 L41.0542227,21.6745631 C41.0485257,21.672231 41.0423109,21.670482 41.0360961,21.66815 L41.0360961,21.66815 Z M40.9045492,20.8117061 C40.88953,20.7650652 40.93148,20.7137601 40.9428739,20.6024049 C40.9511603,20.5178683 40.915943,20.6000729 40.8900479,20.6776134 C40.9045492,20.553432 40.8672603,20.6315555 40.8444726,20.6239764 C40.8392936,20.6222273 40.832043,20.6198953 40.8247924,20.6181463 C40.8273819,20.6099841 40.8304893,20.602988 40.8325609,20.5983239 C40.8382578,20.5860806 40.8418831,20.5732544 40.8610455,20.5289455 C40.8879763,20.5190343 40.9123177,20.5091231 40.9123177,20.5091231 C40.9123177,20.5091231 40.9195683,20.4893007 40.9278547,20.4642312 C40.9309621,20.4828876 40.9340695,20.50271 40.9428739,20.504459 C40.9651436,20.5085401 40.957893,20.4700613 40.9879313,20.3890227 C40.989485,20.3849417 40.9910387,20.3814436 40.9925924,20.3779455 C40.9905208,20.4094281 40.9920745,20.4245864 40.9920745,20.4624822 C40.9920745,20.4992119 40.9967356,20.5353586 41.0013967,20.5691733 C40.9837881,20.6344706 40.9563393,20.7481578 40.9439097,20.7860536 C40.9185325,20.8630111 40.9200862,20.85893 40.9045492,20.8117061 L40.9045492,20.8117061 Z M40.7916467,19.9884938 C40.7916467,19.9832467 40.7921646,19.9779996 40.7926825,19.9721695 C40.8025226,19.9127023 40.7647158,19.8893819 40.7647158,19.8893819 C40.7647158,19.8893819 40.7476251,19.9220305 40.7253553,19.9861618 C40.7238016,19.9686714 40.7222479,19.9505981 40.7206942,19.9319417 C40.7181047,19.9010421 40.7170689,19.8771386 40.7170689,19.8578993 C40.7294985,19.8398259 40.7326059,19.8374939 40.7569473,19.8060112 C40.7911288,19.7628684 40.7683411,19.8223356 40.7988973,19.8415749 C40.8149522,19.8520691 40.8139164,19.8514861 40.8232387,19.8334128 C40.8377399,19.8736406 40.8294535,19.845656 40.8346325,19.8141734 C40.8444726,19.7978491 40.8610455,19.7751116 40.88953,19.744795 C40.894709,19.744212 40.8993702,19.7465441 40.9045492,19.7523742 C40.9092103,19.7576213 40.9164609,19.7692815 40.9247473,19.7826908 C40.9231936,19.7914359 40.9226757,19.7995981 40.9237115,19.8060112 C40.9288905,19.8334128 40.9185325,19.8713085 40.900406,19.9144514 C40.8957448,19.9039572 40.8916016,19.8928799 40.88953,19.8806367 C40.8781362,19.8252506 40.8631171,19.8806367 40.8631171,19.8806367 C40.8631171,19.8806367 40.8325609,19.9191155 40.8097732,19.944768 C40.8025226,19.9535131 40.7963078,19.9686714 40.7916467,19.9884938 L40.7916467,19.9884938 Z M40.7704127,20.1424089 C40.7698948,20.149405 40.768859,20.1564011 40.7683411,20.1633973 C40.7667874,20.1756405 40.7657516,20.1855517 40.7647158,20.1954629 C40.7522862,20.1954629 40.742964,20.1937139 40.7419282,20.1896328 C40.7388207,20.1808876 40.7522862,20.1657293 40.7704127,20.1424089 L40.7704127,20.1424089 Z M40.7605726,20.6274744 C40.7569473,20.655459 40.7155152,20.7977138 40.711372,20.8810844 C40.7077467,20.9638721 40.6999782,20.8530999 40.6927275,20.8332775 C40.684959,20.8134551 40.6544028,20.7778914 40.6507775,20.7604011 C40.6497417,20.755737 40.6487059,20.7493238 40.648188,20.7417447 C40.648188,20.7306675 40.648188,20.7195903 40.6487059,20.708513 C40.6502596,20.6910227 40.6538849,20.6735323 40.6621714,20.6595401 C40.6813337,20.6274744 40.6699399,20.5487679 40.6699399,20.5487679 L40.6606177,20.5435208 C40.6668325,20.4496559 40.6331689,20.5207833 40.6124528,20.5132042 C40.6093454,20.5120382 40.606238,20.5108721 40.6026127,20.5097061 C40.5767176,20.4933818 40.5492689,20.4758914 40.5332139,20.4624822 C40.4954071,20.4321656 40.4612256,20.4817216 40.4477602,20.5091231 C40.4451707,20.5149532 40.4415454,20.5225324 40.4368843,20.5330266 C40.4462065,20.4933818 40.4379201,20.4321656 40.4379201,20.4321656 L40.4151324,20.4175903 C40.4291158,20.3814436 40.4524213,20.3383007 40.4664047,20.3196444 C40.4731374,20.3108992 40.4788343,20.2916598 40.4834954,20.2695054 L40.4834954,20.2741695 C40.4834954,20.2741695 40.4902281,20.2852467 40.5057652,20.3167293 C40.5057652,20.3645363 40.5259633,20.4105942 40.5596269,20.4280845 C40.5679133,20.4438258 40.5658417,20.4362467 40.5637701,20.4304166 C40.5969158,20.4449918 40.6077917,20.4309996 40.6238467,20.4117602 C40.6528491,20.401266 40.6808158,20.3890227 40.6808158,20.3890227 C40.6808158,20.3890227 40.6828874,20.3831926 40.6854769,20.3726984 C40.7175868,20.3686173 40.7155152,20.403015 40.7155152,20.403015 C40.7155152,20.403015 40.7305343,20.4263355 40.7719664,20.5091231 C40.7750738,20.5149532 40.7776633,20.5196173 40.779735,20.5242814 C40.7833603,20.5510999 40.7895751,20.5843316 40.795272,20.6128992 C40.7776633,20.6111501 40.7626442,20.6140652 40.7605726,20.6274744 L40.7605726,20.6274744 Z M40.3591991,19.7360499 C40.3498769,19.7552892 40.3426262,19.8030962 40.3467695,19.8380769 C40.354538,19.8981271 40.3239818,20.0345517 40.2898003,20.1050961 C40.2556188,20.1762235 40.2784065,20.2776675 40.3317503,20.30332 C40.3374472,20.3062351 40.3415904,20.3079841 40.3462516,20.3091502 C40.3472874,20.3307216 40.3478053,20.352876 40.3488411,20.3738644 C40.3301966,20.3616212 40.3131059,20.3487949 40.3011941,20.3383007 C40.2633873,20.3050691 40.2292059,20.3592891 40.2162583,20.3890227 C40.2027929,20.4187563 40.1572176,20.5196173 40.1722367,20.6239764 C40.1836305,20.7003509 40.1665398,20.6397177 40.1572176,20.5919107 C40.1618787,20.4957138 40.181041,20.3744474 40.1768978,20.3108992 C40.1882916,20.2683394 40.2183299,20.2077062 40.2349028,20.1838027 C40.2556188,20.1540691 40.2633873,20.0258066 40.2784065,19.9791657 C40.2939435,19.9319417 40.2670127,19.8678105 40.2633873,19.8165054 C40.259762,19.7652004 40.2939435,19.7098143 40.3089627,19.6759997 C40.3239818,19.641602 40.3503948,19.492351 40.3695571,19.4538723 C40.3887195,19.4153935 40.4265263,19.2824669 40.4342948,19.2585634 C40.4415454,19.23466 40.5554837,19.0778299 40.5611806,19.0650036 C40.5611806,19.0650036 40.601059,19.0731658 40.601059,19.0988183 C40.601059,19.1244708 40.5782713,19.1716947 40.532696,19.2783858 C40.4985145,19.3588414 40.4902281,19.3856599 40.4544929,19.4632005 C40.4213472,19.4975982 40.3643781,19.5611464 40.3607528,19.592046 C40.3591991,19.6072043 40.359717,19.6660885 40.3591991,19.7360499 L40.3591991,19.7360499 Z M40.6103812,19.6241116 C40.6207392,19.6077873 40.6357584,19.5873819 40.6580281,19.5611464 C40.7491788,19.4556213 40.6844411,19.5821348 40.6922096,19.6287757 C40.6927275,19.6316908 40.6932454,19.6351889 40.6932454,19.6392699 C40.6802979,19.6655055 40.6632072,19.6981541 40.6393837,19.743629 C40.5850041,19.846822 40.6031306,19.8479881 40.6212572,19.8479881 C40.6129707,19.8672274 40.6088275,19.8858838 40.6067559,19.9027911 C40.5917368,19.8748066 40.5720565,19.9511811 40.5787892,19.9995711 C40.579825,20.0094822 40.5803429,20.0223085 40.5793071,20.0357178 C40.5518584,20.0526251 40.5130158,20.0526251 40.5099084,20.0432969 C40.5062831,20.0304707 40.532696,20.0048182 40.5611806,19.9575942 C40.5896652,19.9103703 40.5518584,19.8724745 40.5611806,19.8083433 C40.5627343,19.7966831 40.5632522,19.7867719 40.5622164,19.7780267 C40.5751639,19.7273047 40.5896652,19.6660885 40.6015769,19.643934 C40.6041664,19.6392699 40.6072738,19.6322738 40.6103812,19.6241116 L40.6103812,19.6241116 Z M40.779735,19.3512623 C40.779735,19.3291078 40.7838782,19.3081194 40.7906109,19.289463 C40.7916467,19.287131 40.7926825,19.285382 40.7926825,19.284799 C40.7926825,19.284799 40.8330788,19.2923781 40.8330788,19.3162816 C40.8330788,19.339019 40.8118448,19.3804128 40.7698948,19.4707796 C40.7745559,19.4311348 40.779735,19.387409 40.779735,19.3512623 L40.779735,19.3512623 Z M40.97343,19.896961 C40.9806807,19.8339958 40.9920745,19.7745286 40.9920745,19.743629 C40.9920745,19.7133124 41.0112368,19.6165325 41.0112368,19.5494862 C41.0112368,19.4975982 41.0402393,19.4509572 41.0537048,19.4317179 C41.0547406,19.4742777 41.0562943,19.5343279 41.0562943,19.5611464 C41.0562943,19.6054553 41.0335066,19.6800808 41.0107189,19.7611194 C40.9879313,19.8421579 40.9920745,19.8765556 41.026256,19.9068722 C41.0288455,19.9086213 41.0303992,19.9103703 41.0324708,19.9109533 C41.0335066,19.9272776 41.0371319,19.944185 41.0428288,19.9610923 C41.0231486,19.9500151 41.005022,19.9517641 40.984306,19.9575942 C40.9542677,19.9663394 40.984306,19.9575942 40.9806807,19.996073 C40.9775733,20.0252236 40.9594467,20.0374668 40.9490887,20.0258066 C40.9485708,19.9529301 40.9672152,19.9488491 40.97343,19.896961 L40.97343,19.896961 Z M41.068206,19.7517912 C41.0562943,19.7815248 41.046972,19.8071773 41.0407572,19.8310807 C41.0407572,19.8246676 41.0407572,19.8182545 41.0412751,19.8124244 C41.0438646,19.7745286 41.0594017,19.7669495 41.0749387,19.7360499 C41.0728671,19.7407139 41.0702776,19.7465441 41.068206,19.7517912 L41.068206,19.7517912 Z M41.1831801,19.9902429 C41.1774832,20.0042351 41.1671251,20.0228915 41.1474449,20.0386328 C41.1381227,20.046212 41.130872,20.0502931 41.1251751,20.0526251 C41.1236214,20.047961 41.1220677,20.0438799 41.1210319,20.0392158 C41.1122276,19.997822 41.1003159,20.0234745 41.0961727,20.0345517 C41.0899578,20.0211425 41.083743,20.0030691 41.0718313,19.9873278 C41.0697597,19.9849958 41.0676881,19.9832467 41.0656165,19.9809147 C41.0671702,19.9692545 41.0713134,19.9564282 41.0795998,19.946517 C41.1065307,19.9173664 41.1184424,19.9074552 41.1313899,19.9162004 C41.1381227,19.9383548 41.141748,19.9371888 41.146927,19.9342738 C41.157285,19.9494321 41.1717863,19.9727525 41.1831801,19.9902429 L41.1831801,19.9902429 Z M41.0904757,19.692907 C41.1096381,19.6200306 41.1360511,19.5518182 41.162464,19.487687 C41.1743758,19.4602854 41.1842159,19.4602854 41.1919844,19.4696136 C41.1852517,19.4964321 41.1795548,19.5220846 41.1743758,19.5454051 C41.1567671,19.6293588 41.1137813,19.6526792 41.0775282,19.7302197 C41.0821893,19.7203085 41.0863325,19.7086483 41.0904757,19.692907 L41.0904757,19.692907 Z M41.230827,19.7570383 C41.230827,19.7570383 41.2427387,19.8374939 41.2479177,19.9115363 C41.2458461,19.9173664 41.2442924,19.9226135 41.2427387,19.9284437 C41.2272017,19.9791657 41.2240943,20.0100653 41.2339344,20.0333857 C41.2230585,20.0432969 41.2090751,20.0316367 41.2007887,19.996073 C41.1971634,19.9820807 41.1950918,19.9739185 41.194056,19.9710035 C41.1914665,19.9552622 41.1883591,19.9354398 41.1862875,19.9138684 C41.1909486,19.893463 41.194056,19.8561502 41.204414,19.7995981 C41.2235764,19.692907 41.230827,19.7570383 41.230827,19.7570383 L41.230827,19.7570383 Z M40.1256256,19.6655055 C40.1163034,19.6666715 40.1069811,19.6684205 40.0981768,19.6725016 C40.0950694,19.6736676 40.0914441,19.6754167 40.0878188,19.6771657 C40.0904083,19.6620074 40.0909262,19.6509302 40.0909262,19.641602 C40.1116423,19.6235286 40.1173392,19.6118684 40.1271793,19.593212 C40.1266614,19.6171155 40.1261435,19.641602 40.1256256,19.6655055 L40.1256256,19.6655055 Z M38.8660896,18.7373512 C38.8609106,18.7256909 38.8557316,18.7105326 38.8521063,18.6912933 C38.8521063,18.6901272 38.8521063,18.6895442 38.8515884,18.6889612 C38.8624643,18.6988724 38.8707507,18.6912933 38.8707507,18.6516485 C38.8707507,18.6464014 38.8712686,18.6399882 38.8717865,18.6335751 C38.8764476,18.6353241 38.8821445,18.6394052 38.8868056,18.6446523 C38.8805908,18.679633 38.8738581,18.7111156 38.8660896,18.7373512 L38.8660896,18.7373512 Z M38.7676883,19.1040654 C38.7573303,19.0929882 38.7469723,19.082494 38.738168,19.0714167 C38.7288457,19.0591735 38.7226309,19.0480963 38.7195235,19.0405171 C38.732471,19.0457642 38.7438649,19.0469303 38.7511155,19.0393511 C38.7521513,19.0381851 38.7526692,19.0364361 38.753705,19.035853 C38.7614735,19.0416832 38.7707957,19.0492623 38.7806359,19.0562584 C38.7764927,19.0719998 38.7723494,19.0883241 38.7676883,19.1040654 L38.7676883,19.1040654 Z M38.6345877,19.4993472 C38.6304445,19.5040113 38.6263013,19.5075093 38.6231939,19.5098414 C38.6200865,19.5063433 38.617497,19.5022622 38.6149074,19.4981812 C38.6211223,19.4871039 38.6345877,19.4701966 38.6501247,19.4521233 C38.6449457,19.4684476 38.6397667,19.4841889 38.6345877,19.4993472 L38.6345877,19.4993472 Z M38.6185328,18.9740538 C38.617497,18.9793009 38.6154254,18.985131 38.6138716,18.9897951 C38.6123179,18.98105 38.6138716,18.9752199 38.6185328,18.9740538 L38.6185328,18.9740538 Z M38.758884,18.5525365 C38.753705,18.5589496 38.7495618,18.5647798 38.7449007,18.5706099 C38.7464544,18.5577836 38.7521513,18.5519535 38.758884,18.5525365 L38.758884,18.5525365 Z M38.4709309,18.8393782 C38.4595371,18.8504554 38.4507327,18.8586176 38.4434821,18.8656137 C38.4455537,18.8522044 38.4481432,18.8387952 38.4507327,18.8248029 C38.4522864,18.8154747 38.4538401,18.8067295 38.4553938,18.7985674 C38.4673056,18.7845751 38.4802531,18.7705828 38.496308,18.7577566 C38.5113272,18.7455133 38.5237568,18.7321041 38.5346327,18.7181118 C38.5232389,18.7565905 38.5056303,18.8038145 38.4709309,18.8393782 L38.4709309,18.8393782 Z M45.8608648,20.2176174 C45.7868049,20.0817757 45.8494709,19.9925749 45.7868049,19.9570112 C45.7241388,19.9220305 45.7583203,19.9039572 45.7241388,19.9220305 C45.6899573,19.9395209 45.6614728,19.9272776 45.6158974,20.0281386 C45.6148616,20.0310537 45.6138258,20.0333857 45.61279,20.0357178 C45.565661,19.9103703 45.6122721,19.8269997 45.5547851,19.792019 C45.4926369,19.7535402 45.5268184,19.7343008 45.4926369,19.7535402 C45.4584554,19.7727796 45.4299709,19.7599533 45.3843956,19.8689765 C45.3388202,19.9779996 45.3502141,19.9710035 45.3616079,20.047961 C45.3730017,20.1255015 45.3616079,20.1657293 45.3388202,20.0759456 C45.3160326,19.9861618 45.2704573,19.8112583 45.2704573,19.8112583 C45.2704573,19.8112583 45.2393832,19.795517 45.224882,19.8159224 C45.2010585,19.7669495 45.1736097,19.7156445 45.1570369,19.6864939 C45.1228554,19.6276097 45.0467239,19.5325788 45.0089171,19.5010962 C44.9711103,19.4696136 44.9141412,19.4177256 44.8877282,19.4299688 C44.8861745,19.4305518 44.8851387,19.4311348 44.883585,19.4323009 C44.8478498,19.3780808 44.8033103,19.3221117 44.7768973,19.2987912 C44.7390905,19.2643936 44.6821214,19.2090075 44.6557084,19.2218337 C44.6494936,19.2247488 44.6437967,19.2311619 44.6375819,19.2393241 C44.589417,19.1524553 44.4967127,18.9752199 44.4475121,18.9437372 C44.4195454,18.9262469 44.3853639,18.9128376 44.3470392,18.9005944 C44.3014639,18.8125596 44.248638,18.7186948 44.2154923,18.6965404 C44.1585231,18.6580616 44.075141,18.6364902 43.9839904,18.6067566 C43.8928398,18.577023 43.896983,18.5385442 43.8136009,18.5641967 C43.7297009,18.5898492 43.6426934,18.6493164 43.6426934,18.6493164 L43.6012613,18.6959573 C43.5603471,18.7420153 43.2982891,18.9005944 43.2490884,18.9186677 L43.2294082,18.9186677 C43.2294082,18.9186677 43.2045489,18.9198338 43.1983341,18.932077 C43.1703674,18.9384901 43.1444724,18.9449033 43.1237563,18.9612276 C43.1206489,18.9623936 43.1180594,18.9635596 43.1165057,18.9670577 C43.0843958,18.9985403 42.9378297,18.9909612 42.9114168,19.0037874 C42.8850038,19.0166137 42.7886742,18.985131 42.7405093,18.9944592 C42.7135785,18.9991233 42.6933803,18.9973743 42.6752538,18.9997063 C42.5866926,19.0026214 42.4478951,18.9967913 42.4287327,18.9653087 C42.4245895,18.9396561 42.3790142,18.9355751 42.3676204,18.9443202 C42.359334,18.9507334 42.3463864,18.9594785 42.3308494,18.9705558 C42.3127229,18.981633 42.290971,18.9962083 42.2650759,19.0136986 C42.2588611,19.0171967 42.2531642,19.0212778 42.2474673,19.0247758 C42.1930876,19.0568415 42.2075889,19.0171967 42.2241617,18.984548 C42.2350377,18.9688067 42.2407346,18.9583125 42.2402167,18.9518994 L42.2402167,18.9513164 C42.2464315,18.9367411 42.1884265,18.9250809 42.154245,18.9192507 C42.1459586,18.9163357 42.1402617,18.9140036 42.1402617,18.9140036 C42.1402617,18.9140036 42.1361185,18.9145867 42.1293858,18.9151697 C42.1293858,18.9151697 42.1086697,18.9151697 42.0807031,18.9256639 C42.0434142,18.9355751 42.0019821,18.9542314 41.9999105,18.9868801 C41.9693543,19.0271079 41.9460487,19.0160307 41.9253327,18.9927102 C41.9222253,18.9793009 41.9175641,18.9699727 41.9123851,18.9653087 C41.8989197,18.9542314 41.8927049,18.9384901 41.8807932,18.93266 C41.8486833,18.9000114 41.6782937,18.8848531 41.5747135,18.9396561 C41.4980641,18.980467 41.4644005,18.9536484 41.4410949,18.9163357 L41.4307369,18.8930152 C41.4307369,18.8930152 41.430219,18.879606 41.4193431,18.8761079 C41.3929301,18.8253859 41.2505073,18.8178067 41.236006,18.8259689 C41.2349702,18.8253859 41.2339344,18.8259689 41.2323807,18.8265519 C41.2168437,18.830633 41.1826622,18.8189728 41.1531418,18.7828261 C41.152106,18.7758299 41.1510702,18.7705828 41.1458912,18.7734979 C41.130872,18.7530925 41.1086023,18.7332701 41.0868504,18.7181118 C41.0873683,18.7134477 41.0863325,18.7122817 41.0832251,18.7151967 C41.0568122,18.6965404 41.0309171,18.6837141 41.0205591,18.6825481 L41.0205591,18.6825481 C41.0200412,18.6819651 41.0190054,18.6819651 41.0174517,18.6819651 C40.9931103,18.677301 40.8988523,18.6475674 40.8367041,18.5921813 C40.8351504,18.5869342 40.8325609,18.5834361 40.8273819,18.5834361 C40.7973436,18.5531195 40.7388207,18.4983164 40.6844411,18.4429304 C40.6766726,18.426023 40.6616535,18.4126138 40.6445627,18.4021195 C40.6005411,18.3554786 40.5658417,18.3140848 40.5601448,18.2936794 L40.5596269,18.2936794 C40.559109,18.2826022 40.5575553,18.2697759 40.5544479,18.2540346 C40.5430541,18.2038956 40.4819417,18.1794092 40.4477602,18.1659999 C40.4140966,18.1531736 40.3757719,18.1327682 40.3457337,18.1053667 C40.3151775,18.0779652 40.3001583,18.0896254 40.280996,18.0517296 C40.2618336,18.0132509 40.2204015,18.0342393 40.1520386,18.0517296 C40.0836756,18.068637 40.1328762,18.0558107 40.0800503,18.0727181 C40.0267064,18.0896254 40.0137589,18.1065327 39.9459138,18.1053667 C39.9283052,18.0878763 39.9034459,18.0616408 39.855799,18.0301582 C39.7537724,17.9619459 39.7724169,18.0260771 39.6890348,18.0598918 C39.6056527,18.0942895 39.5906335,18.1794092 39.5637027,18.1659999 C39.5372897,18.1531736 39.530557,18.0878763 39.493786,18.1164439 C39.4564971,18.1455945 39.3741508,18.221969 39.3088952,18.32283 C39.2431217,18.423691 39.2819643,18.375301 39.3016446,18.3035906 C39.3218427,18.2324632 39.27316,18.3041736 39.2218878,18.324579 C39.2063508,18.3309921 39.1918495,18.3362392 39.1783841,18.3409033 C39.1664724,18.2913474 39.1799378,18.2686099 39.1975464,18.1998146 C39.2177446,18.122857 39.1690619,18.1998146 39.1183075,18.221969 C39.0924125,18.2336292 39.0706606,18.2412084 39.0499446,18.2487875 C39.0587489,18.2173049 39.053052,18.2015636 39.0411402,18.1998146 C39.02146,18.1968995 38.9328989,18.2347952 38.884734,18.2586987 C38.8365692,18.2826022 38.785297,18.3088377 38.7480081,18.3502315 C38.7205593,18.3817141 38.669805,18.4475944 38.6361414,18.4942354 C38.6314803,18.4843242 38.6206044,18.476162 38.6118,18.4528415 C38.5931556,18.4038686 38.5827976,18.4423473 38.517542,18.4289381 C38.4559117,18.4161118 38.4621266,18.426606 38.4362315,18.4510925 C38.433642,18.4464284 38.4315704,18.4411813 38.4294988,18.4353512 C38.4108543,18.3822972 38.4010142,18.424274 38.3352407,18.4096987 C38.2699852,18.3951234 38.281379,18.4079497 38.2487512,18.4388493 C38.2161234,18.4691659 38.2187129,18.4977334 38.1860852,18.5507875 C38.1534574,18.6032585 38.1731376,18.5921813 38.1591543,18.6837141 C38.1446531,18.7746639 38.129116,18.7460963 38.0980419,18.7927373 C38.0633425,18.8352971 37.9815141,18.831216 38.0037839,18.8970963 C37.998087,18.9081735 38.003266,18.9163357 38.0151777,18.9215828 C38.0193209,18.9291619 38.0244999,18.9379071 38.0312327,18.9472353 C38.087166,19.0259419 38.1172043,19.085409 38.1374024,19.1378801 C38.1384382,19.1483743 38.1415456,19.1577024 38.1467247,19.1641156 C38.1529395,19.1816059 38.1581185,19.1985133 38.1627796,19.2148376 C38.1840136,19.286548 38.3259185,19.5261657 38.4144796,19.6060383 C38.4517685,19.639853 38.5097735,19.7051502 38.5682963,19.7745286 C38.5714037,19.7797757 38.5755469,19.7844398 38.5802081,19.7891039 C38.6563396,19.8800537 38.7314352,19.9745016 38.7594019,20.0100653 L38.7594019,20.0100653 C38.7609556,20.0164784 38.7635451,20.0217255 38.7682062,20.0269726 C38.7935834,20.0567062 38.832426,20.1307486 38.8712686,20.0269726 C38.9101112,19.9231965 38.9613834,19.8194205 38.9701878,19.7366329 C38.9738131,19.6993201 38.9862427,19.6532622 38.9945291,19.6188645 C39.0090304,19.6007912 39.0230137,19.5844669 39.0344075,19.5716406 C39.0452834,19.5593974 39.058231,19.5483202 39.0701427,19.538992 C39.053052,19.6520962 38.9914217,19.7821078 38.953097,19.9068722 C38.9075217,20.0532081 38.8987174,20.096351 38.8676433,20.1604822 C38.8676433,20.1604822 38.8619464,20.1768065 38.9158081,20.2438529 C38.9701878,20.3108992 38.9670803,20.2852467 39.0022976,20.3108992 C39.0375149,20.3365517 39.058231,20.3394668 39.1006989,20.3779455 C39.1436847,20.4170073 39.1348804,20.4391617 39.1607754,20.4968799 C39.1861526,20.554015 39.226031,20.5575131 39.226031,20.5575131 L39.3088952,20.6216443 L39.3513631,20.6729493 C39.3565421,20.7260034 39.3829551,20.8939107 39.6377626,20.9936057 C39.6403521,20.9959377 39.6419058,20.9965207 39.6419058,20.9959377 C39.8739256,21.0874705 39.8599422,21.1026288 39.955754,21.1323624 C39.9645583,21.1352775 39.9728447,21.1376095 39.9795774,21.1387755 C39.9883817,21.1416906 39.9966682,21.1451886 40.0044367,21.1492697 C39.9987398,21.1760883 40.008062,21.1994087 40.0303317,21.1994087 C40.0650311,21.1994087 40.0784966,21.3346674 40.139091,21.3311693 C40.1805231,21.3923855 40.2380102,21.4547678 40.3374472,21.4973276 C40.5787892,21.5987716 40.8589739,21.7171229 40.9283726,21.7468565 C40.9972535,21.7765901 41.4006986,21.875119 41.5281024,21.8920264 L41.5291382,21.8920264 L41.5291382,21.8920264 C41.6555061,21.9083507 41.6964203,21.9380843 41.7362987,21.9509105 C41.7756592,21.9643198 42.2459136,22.023204 42.6032655,21.9899723 C42.7249723,21.9788951 42.8746458,21.9619878 43.0279446,21.9369183 C43.0300162,21.9375013 43.0315699,21.9375013 43.0336415,21.9363353 C43.1890119,21.9112658 44.185454,21.5509647 44.185454,21.5509647 C44.185454,21.5509647 44.5174288,21.4057948 44.5241615,21.4017137 C44.6008109,21.3743122 44.8069356,21.2705361 44.9685208,21.161513 C44.9736998,21.1597639 44.9788788,21.1574319 44.9840578,21.1539338 C45.0239362,21.1306134 45.292727,21.0431616 45.3486604,20.958625 C45.4222024,20.8461038 45.5589283,20.8047099 45.5646252,20.7452428 C45.5703221,20.6863586 45.6785635,20.5971578 45.7469265,20.5790845 C45.8152895,20.5615941 45.8551679,20.602988 45.912137,20.5202003 C45.9691061,20.4368297 46.0426481,20.5854976 45.9691061,20.4368297 C45.8950463,20.2887448 45.9349247,20.354042 45.8608648,20.2176174 L45.8608648,20.2176174 Z" id="Fill-12" fill="#333333"></path>
      </g>
    </g>
  </g>
</svg>