<svg width="140px" height="32px" viewBox="0 0 140 32" version="1.1" xmlns="http://www.w3.org/2000/svg" xmlns:xlink="http://www.w3.org/1999/xlink">
    <!-- Generator: Sketch 46.2 (44496) - http://www.bohemiancoding.com/sketch -->
    <desc>Created with Sketch.</desc>
    <defs></defs>
    <g id="Page-1" stroke="none" stroke-width="1" fill="none" fill-rule="evenodd">
        <g id="SM-Dashboard-and-Side-Menu-Panel" transform="translate(-144.000000, -847.000000)" fill="#000000">
            <g id="Group-40" transform="translate(0.000000, -328.000000)">
                <g id="Group-12" transform="translate(29.000000, 690.000000)">
                    <g id="Group-24-Copy-2" transform="translate(1.000000, 419.000000)">
                        <g id="Group-20">
                            <g id="ShadowMe-Logo" transform="translate(114.000000, 66.000000)">
                                <path d="M13.2723242,12.7113645 C14.0957909,12.7113645 14.8184581,12.4306659 15.4407323,11.8684575 C16.0621936,11.3066546 16.5665974,10.6020687 16.9535374,9.75469972 C17.3400709,8.90773634 17.5920696,7.98938141 17.7099399,6.99963493 C17.8274038,6.00988845 17.7936685,5.09599549 17.608734,4.25673915 C17.4237995,3.41829408 17.0750658,2.72628282 16.562533,2.18070535 C16.0495937,1.63593915 15.3480618,1.37187155 14.4575309,1.3880969 C13.7677861,1.40513352 13.0455254,1.62336451 12.2891228,2.04238423 C11.5327203,2.46180958 10.8055821,3.05322366 10.1081148,3.81622085 C9.4106474,4.5800293 8.77170877,5.5064969 8.19170533,6.59684056 C7.61210833,7.68718423 7.16216872,8.91179268 6.84310586,10.2702603 C6.65776488,11.075849 6.56590729,11.7848969 6.56590729,12.3969983 C6.56590729,13.0090997 6.63256501,13.5587335 6.76750625,14.0450885 C7.32190338,13.8434885 7.7588366,13.5879392 8.07830591,13.2776293 C8.39736878,12.9673194 8.65830936,12.6610659 8.86031477,12.3592744 C9.06191372,12.0570772 9.24197086,11.7889532 9.40211196,11.5536856 C9.56184662,11.3188237 9.75897463,11.1764462 9.99471535,11.1261476 C10.1121793,11.1095166 10.2885783,11.1809082 10.5239126,11.3399166 C10.7592469,11.4997363 11.019781,11.6798377 11.3059215,11.8810321 C11.591249,12.0822265 11.9021829,12.2708462 12.2387231,12.4472969 C12.5744504,12.623342 12.9191196,12.7113645 13.2723242,12.7113645 M7.80110735,24.4873194 C7.66657256,24.6548462 7.5149669,24.7428687 7.34710325,24.7517927 C7.17883315,24.7599054 6.98983413,24.7643673 6.78010618,24.7643673 C6.56956534,24.7643673 6.33016658,24.7931673 6.06150345,24.8523899 C5.79243388,24.9108011 5.49816443,25.0746772 5.17869512,25.3432068 C4.38855728,25.9970885 3.84269559,26.6217645 3.54029715,27.2176406 C3.23749227,27.8127054 3.11962191,28.3497645 3.18709253,28.8276011 C3.2541567,29.3058434 3.46835559,29.7086377 3.83009565,30.0355786 C4.19142927,30.3629251 4.64096242,30.5933251 5.17869512,30.7275899 C5.71683427,30.8618546 6.30496671,30.882542 6.94390534,30.7904631 C7.58243751,30.6983842 8.2128407,30.4635223 8.83470845,30.0858772 C9.4565762,29.7086377 10.0325151,29.1805025 10.5621189,28.5010659 C11.0913161,27.8212237 11.5075204,26.9531673 11.8099188,25.8964913 C12.1123173,24.8394096 12.1123173,23.8496631 11.8099188,22.9276575 C11.5075204,22.0044349 10.8771172,21.2499561 9.91911574,20.6630039 C9.19604206,20.226542 8.54856799,19.8071166 7.97750644,19.4047279 C7.40603843,19.0019335 6.88903465,18.5995448 6.42690156,18.1967504 C5.96436202,17.7939561 5.54449968,17.3789927 5.16650164,16.951049 C4.78809714,16.5231054 4.42269904,16.0663617 4.06949441,15.5796011 C3.9182952,15.5796011 3.70368986,15.5422828 3.42649129,15.4664293 C3.14929273,15.3909814 2.86315227,15.2867335 2.56928928,15.1520631 C2.27501983,15.0182039 1.98928583,14.8587899 1.71208726,14.6742265 C1.43448225,14.4896631 1.21215437,14.2965814 1.04388427,14.095387 C0.64068636,13.5919955 0.354952356,13.1518828 0.186682259,12.7742377 C0.0188186122,12.3969983 -0.0360520714,12.1495617 0.0228831073,12.0319279 C0.081818286,11.9146997 0.254152878,11.9524237 0.539480432,12.1450997 C0.825620886,12.3381814 1.21215437,12.7365138 1.69948733,13.3405025 C2.01895664,13.7266659 2.3839483,14.0069589 2.79649455,14.1834096 C3.20782145,14.3594546 3.53135526,14.4564011 3.76709598,14.4726265 C3.51469083,13.3993194 3.44762666,12.3004575 3.56549702,11.1764462 C3.68255448,10.0524349 3.94349507,8.96209127 4.34709943,7.90500958 C4.75029734,6.84833352 5.28803004,5.85047437 5.96070398,4.91102648 C6.63256501,3.97157859 7.40156748,3.15382085 8.26771138,2.45775324 C9.13304239,1.76168563 10.0784439,1.20840113 11.1039161,0.797088451 C12.1289817,0.385775775 13.1967246,0.180119437 14.3059253,0.180119437 C15.4317904,0.180119437 16.4198692,0.352513803 17.2685357,0.696085634 C18.1172023,1.04046873 18.8020697,1.53493634 19.3235445,2.18070535 C19.8442063,2.82688 20.1807465,3.61502648 20.3319457,4.54595606 C20.4831449,5.47729127 20.4242097,6.53802366 20.1555466,7.72937014 C19.9198059,8.7860462 19.5584723,9.7088631 19.0715458,10.4970096 C18.5833999,11.2855617 18.0249383,11.9479617 17.3945351,12.4846152 C16.7641319,13.02208 16.0837354,13.4244687 15.3525328,13.6925927 C14.6213301,13.9611223 13.8937855,14.095387 13.1715247,14.095387 C12.8687198,14.095387 12.5537215,14.0491448 12.2261231,13.9566603 C11.8981184,13.864987 11.58312,13.7388349 11.2807216,13.5794208 C10.9779167,13.4200068 10.7007181,13.235849 10.448313,13.0257307 C10.1963143,12.8164237 10.0028443,12.602249 9.86830955,12.384018 C9.98617991,12.2667899 10.0199152,12.3004575 9.96951548,12.4846152 C9.91911574,12.6695842 9.78051645,12.9085025 9.55331118,13.2021814 C9.32651235,13.4958603 9.01964297,13.7976518 8.63310949,14.1075561 C8.24616956,14.4182715 7.77590748,14.6486715 7.2211039,14.7995673 C7.42270286,15.1690997 7.68323699,15.5211899 8.00270631,15.856649 C8.32176917,16.1925138 8.6709093,16.5194546 9.04890734,16.8378772 C9.42731183,17.1567054 9.82644525,17.4755335 10.246714,17.7939561 C10.6665764,18.1127842 11.0953806,18.432018 11.5327203,18.7504406 C12.9951256,19.8407842 14.0116558,21.0065758 14.5835303,22.2478152 C15.1545919,23.4890546 15.2220625,24.805742 14.7851293,26.1982828 C14.5160597,27.0537645 14.0872554,27.8593532 13.499123,28.6138321 C12.9105841,29.3687166 12.1964523,30.0144856 11.3563212,30.5515448 C10.5153772,31.0881983 9.55331118,31.478418 8.46931034,31.7213927 C7.3853095,31.964773 6.21270267,31.9939786 4.9518963,31.8098208 C3.97682392,31.6585194 3.2541567,31.3064293 2.78348817,30.7531448 C2.31281964,30.199049 2.05635,29.5613927 2.0144857,28.8405814 C1.97302785,28.1189589 2.11934967,27.3725927 2.45588986,26.6010772 C2.79202361,25.8291561 3.28789201,25.1667561 3.94349507,24.6134715 C4.51496307,24.11008 5.06123121,23.7867899 5.58229948,23.6444124 C6.1029613,23.5020349 6.55290091,23.4639054 6.9313054,23.5312406 C7.30930344,23.5981701 7.58690846,23.727973 7.76330754,23.9214603 C7.93970663,24.1137307 7.95230657,24.3023504 7.80110735,24.4873194" id="Fill-1"></path>
                                <path d="M26.0804424,5.31369915 C25.9292432,5.26340056 25.7105733,5.43092732 25.4248393,5.81668507 C25.1391053,6.20284845 24.8237005,6.78168789 24.4794378,7.55320338 C24.1347686,8.32471887 23.7774995,9.28079775 23.4080369,10.42144 C23.0381678,11.5624879 22.6930922,12.8621386 22.3740293,14.321609 C22.541893,14.1204146 22.7564983,13.8060485 23.0170324,13.3781048 C23.2775666,12.9501611 23.5547651,12.4686738 23.8490346,11.931209 C24.1428976,11.3945555 24.4375735,10.8242344 24.7318429,10.2202456 C25.0257059,9.6162569 25.2903045,9.03376676 25.5260452,8.47155831 C25.7609731,7.90934986 25.9499721,7.38932732 26.0930423,6.91108507 C26.2357061,6.43324845 26.3076477,6.04343437 26.3076477,5.74123718 C26.3076477,5.50678085 26.232048,5.36399775 26.0804424,5.31369915 L26.0804424,5.31369915 Z M21.668433,18.2976315 C22.05456,17.7273104 22.4788933,17.0815414 22.9414328,16.3599189 C23.4035659,15.638702 23.8872408,14.9592654 24.3912382,14.321609 C24.8952356,13.6843583 25.4081749,13.1477048 25.9292432,12.7112428 C26.449905,12.2751865 26.9713797,12.0569555 27.492448,12.0569555 C28.2317796,12.0569555 28.740248,12.2922231 29.017853,12.7615414 C29.2950515,13.231671 29.4336508,13.8271414 29.4336508,14.5483583 C29.3999155,15.2529442 29.2783871,16.0414963 29.0682527,16.913609 C28.8577119,17.7857217 28.635384,18.6712203 28.4000497,19.5680766 C28.164309,20.4657442 27.9464521,21.3423189 27.7444467,22.1973949 C27.5428477,23.0528766 27.4420482,23.8081668 27.4420482,24.4620485 C27.4420482,24.5963132 27.4546482,24.751671 27.479848,24.9277161 C27.5050479,25.1037611 27.5383768,25.2672315 27.5806475,25.4181273 C27.6225118,25.5694287 27.6773825,25.6951752 27.7444467,25.7957724 C27.8115108,25.8963696 27.8871104,25.9466682 27.9716519,25.9466682 C28.15618,25.9466682 28.3874498,25.7872541 28.6646484,25.4688315 C28.9422534,25.1495977 29.2320519,24.7390963 29.5348568,24.2357048 C29.8372552,23.7323132 30.1481891,23.1790287 30.4676584,22.57504 C30.7867212,21.9710513 31.0809907,21.3836935 31.3500603,20.813778 C31.6187234,20.2438625 31.8581221,19.7234344 32.068663,19.2533048 C32.2787974,18.7839865 32.4340611,18.440009 32.5348606,18.221778 C32.5348606,18.1548485 32.543396,18.1130682 32.5600604,18.0960315 L32.5852603,18.1211808 L32.6864662,17.8445386 C32.7197951,17.760978 32.7661303,17.6851245 32.8250655,17.6181949 C32.8835942,17.5512654 32.9803292,17.5171921 33.114864,17.5171921 C33.2493988,17.5171921 33.3542628,17.5553217 33.4302688,17.6303639 C33.5058684,17.7062175 33.5769971,17.8027583 33.6444677,17.9199865 C33.5599262,18.0708823 33.4680686,18.2554456 33.3672692,18.473271 C33.2664697,18.691502 33.1737992,18.9182513 33.0896642,19.1527076 L32.8628653,19.7063977 C32.5263251,20.4953555 32.1483271,21.3463752 31.7284647,22.2602682 C31.3077895,23.1745668 30.8541919,24.0259921 30.3668589,24.8145442 C29.8791195,25.6030963 29.3665867,26.26144 28.828854,26.7895752 C28.2907148,27.3181161 27.7277822,27.5821837 27.1392433,27.5821837 C26.6181751,27.5821837 26.1853064,27.4982175 25.8410436,27.3306907 C25.4963744,27.1627583 25.2232404,26.9319527 25.0216414,26.6386794 C24.819636,26.3454062 24.6769722,26.0010231 24.5928372,25.6071527 C24.5087021,25.2128766 24.4668378,24.780471 24.4668378,24.3111527 C24.5001667,23.8414287 24.5676373,23.3047752 24.6684368,22.7007865 C24.7692363,22.0967977 24.8911711,21.476178 25.0342413,20.8385217 C25.1769051,20.201271 25.3325753,19.5765949 25.5004389,18.9640879 C25.6683026,18.3523921 25.8284437,17.8027583 25.9796429,17.3159977 L26.1056422,16.913609 C26.2905768,16.2929893 26.449905,15.7478175 26.5848462,15.2776879 C26.7189746,14.8083696 26.7945742,14.4562794 26.811645,14.2210118 C26.811645,13.9865555 26.7441744,13.8689217 26.6100461,13.8689217 C26.2735059,13.8689217 25.9081078,14.0660597 25.5130389,14.4603358 C25.1179699,14.8546118 24.706643,15.3616541 24.2778388,15.9826794 C23.8490346,16.6032992 23.4242948,17.2827358 23.0044325,18.0205837 C22.5841637,18.7588372 22.1890948,19.4634231 21.8196322,20.1343414 L21.4160278,21.3167639 C21.2144289,21.9037161 21.0587587,22.5624654 20.9494238,23.2922006 C20.8400889,24.0219358 20.7856246,24.7054287 20.7856246,25.3430851 C20.7856246,25.9632992 20.8486243,26.4460034 20.9746237,26.7895752 C21.1010295,27.1335527 21.1640291,27.3469161 21.1640291,27.4312879 C21.1640291,27.5988146 21.0209589,27.6827808 20.7352249,27.6827808 C20.2474855,27.6827808 19.8483521,27.58624 19.5378246,27.3939696 C19.2268908,27.2004823 18.9748921,26.9489893 18.7814221,26.6386794 C18.5883586,26.3283696 18.4452884,25.9758738 18.3526179,25.5820034 C18.2603538,25.1877273 18.1973542,24.7893949 18.1636189,24.3870062 L18.1636189,23.5566738 C18.1636189,22.8346456 18.230683,22.0213499 18.3652178,21.1155696 C18.500159,20.2097893 18.6513583,19.287378 18.8192219,18.3479301 C19.0041564,17.3074794 19.2224198,16.2086175 19.474825,15.0513442 C19.7268237,13.8936654 20.0125577,12.7615414 20.332027,11.6545668 C20.6510898,10.5471865 21.003888,9.49902873 21.390828,8.50928225 C21.7773614,7.51953577 22.1976302,6.66851606 22.6516343,5.9550062 C23.105232,5.24230761 23.5844359,4.70119211 24.0888398,4.33206535 C24.5928372,3.96334423 25.1224409,3.83759775 25.6772445,3.95442028 C25.9292432,4.00512451 26.1519775,4.05947944 26.345041,4.11829634 C26.5381045,4.17711324 26.6982456,4.2570231 26.824245,4.35762028 C26.9502443,4.45821746 27.0469793,4.58802028 27.1140435,4.74743437 C27.1811076,4.90684845 27.2152494,5.12061746 27.2152494,5.38914704 C27.2152494,5.95946817 27.0766501,6.67662873 26.7990451,7.5402231 C26.5218465,8.40462873 26.1475065,9.33109634 25.6772445,10.3208428 C25.2065759,11.3109949 24.6684368,12.3210231 24.0636399,13.3529555 C23.4584366,14.3844823 22.819498,15.3535414 22.1472305,16.2589161 L21.668433,18.2976315 Z" id="Fill-4"></path>
                                <path d="M38.3338383,13.3150287 C37.7452994,13.3994006 37.1778959,13.7681217 36.6320342,14.4220034 C36.0857661,15.0766963 35.5939622,15.8693048 35.1570289,16.8002344 C34.7196893,17.7311639 34.3538847,18.7294287 34.0604282,19.7946231 C33.7661587,20.8602231 33.5726887,21.8580823 33.4804247,22.7886062 C33.3877542,23.7195358 33.4129541,24.4999752 33.5560243,25.1291132 C33.6986881,25.7582513 33.9884866,26.1058794 34.4258263,26.1732146 C34.7952889,26.2235132 35.1610934,26.1480654 35.522427,25.946871 C35.8837607,25.7456766 36.2369653,25.4641668 36.5816345,25.1035583 C36.9258972,24.7429499 37.2453665,24.3275808 37.5396359,23.8582625 C37.8334989,23.3885386 38.1025685,22.90624 38.3464382,22.4113668 C38.5899015,21.9164935 38.8004423,21.4382513 38.9768414,20.9774513 C39.1532405,20.51584 39.2833043,20.1089893 39.3674394,19.7568992 C39.4178391,19.6060034 39.4641744,19.3334175 39.5064451,18.9387358 C39.547903,18.545271 39.5775738,18.1002907 39.5946447,17.6054175 C39.6113091,17.1105442 39.6072446,16.6030963 39.5820447,16.0830738 C39.5568449,15.5634569 39.4975032,15.089271 39.4056456,14.6613273 C39.3129752,14.2337893 39.1825049,13.8938682 39.0146412,13.6423752 C38.8463711,13.3908823 38.6195723,13.2817668 38.3338383,13.3150287 M41.4602479,24.7388935 C41.443177,24.8561217 41.435048,25.0195921 41.435048,25.2297104 C41.435048,25.4394231 41.4643124,25.6150625 41.5232476,25.7582513 C41.5821828,25.9002231 41.6870467,25.9675583 41.8386524,25.9594456 C41.9898516,25.9505217 42.208115,25.7959752 42.493849,25.493778 C42.8133183,25.1412823 43.1705874,24.6593893 43.5656564,24.0468823 C43.9603188,23.4343752 44.3553878,22.7549386 44.7508631,22.008978 C45.1455256,21.2626118 45.5361236,20.482578 45.9230635,19.6688766 C46.309597,18.8551752 46.6709306,18.0710851 47.0070643,17.3157949 C47.0407997,17.2151977 47.1163993,17.1523245 47.2338632,17.1271752 C47.3517335,17.1020259 47.4651329,17.0979696 47.5744679,17.1146006 C47.6833963,17.1316372 47.7760668,17.1693611 47.8516664,17.2277724 C47.9276725,17.2869949 47.9484014,17.3583865 47.9150725,17.441947 C47.7468025,17.8281104 47.5240681,18.3566513 47.2468696,19.0271639 C46.9692645,19.6980823 46.6497952,20.4233555 46.2884616,21.2033893 C45.927128,21.9838287 45.5198656,22.7760315 45.0658615,23.5816203 C44.6118574,24.3868034 44.124118,25.1035583 43.6034562,25.7326963 C43.0823879,26.3618344 42.5357133,26.8611696 41.9646517,27.2302963 C41.3927773,27.5990175 40.7961094,27.7413949 40.1742417,27.6578344 C39.8043726,27.6075358 39.5064451,27.4647527 39.2792398,27.2302963 C39.052441,26.9950287 38.871571,26.7143301 38.7374426,26.3873893 C38.6025014,26.0600428 38.5143019,25.7034907 38.4724376,25.317733 C38.4305733,24.9315696 38.4094379,24.5543301 38.4094379,24.185609 C38.1736972,24.5543301 37.9090986,24.9486062 37.6152356,25.3680315 C37.3209661,25.7870513 36.9807679,26.1732146 36.5942344,26.5253048 C36.2072945,26.8778006 35.7662967,27.1629611 35.2704283,27.3811921 C34.7745599,27.5990175 34.1990274,27.6910963 33.5434244,27.6578344 C33.055685,27.6407977 32.6358226,27.5361442 32.282618,27.3434682 C31.9298198,27.1499808 31.6359568,26.8984879 31.4002161,26.5885837 C31.1652883,26.2778682 30.9884828,25.9172597 30.8710189,25.5067583 C30.753555,25.09504 30.6942133,24.6638513 30.6942133,24.2103527 C30.6779553,23.4388372 30.749084,22.5959301 30.9084122,21.6816315 C31.0685533,20.7677386 31.3079521,19.85344 31.6274214,18.9387358 C31.9468907,18.0248428 32.3289533,17.1442118 32.7744219,16.2972485 C33.2194841,15.4502851 33.7198235,14.7079752 34.274627,14.0699132 C34.8290242,13.4326625 35.4342275,12.9296766 36.0898306,12.5605499 C36.7454336,12.1914231 37.4262365,12.032009 38.1322393,12.0823076 C38.7707715,12.1326062 39.2581045,12.4558963 39.5946447,13.0509611 C39.9307784,13.6464315 40.1657062,14.3554794 40.3006475,15.1772935 C40.3339763,14.5903414 40.4221759,14.0788372 40.5652461,13.6423752 C40.7079099,13.2059132 40.8131803,12.9211583 40.8806509,12.7864879 C41.0318501,12.3840992 41.3005132,12.1451808 41.6870467,12.069733 C42.0735802,11.9942851 42.4519847,12.0028034 42.8218538,12.0948823 C43.1913164,12.1873668 43.4937148,12.3212259 43.7294555,12.497271 C43.9647898,12.6737217 44.0151895,12.8205611 43.8806547,12.9377893 C43.7627844,13.0383865 43.6241851,13.3697893 43.4648569,13.9319977 C43.3047158,14.4938006 43.1409166,15.1687752 42.973053,15.9573273 C42.8047829,16.7458794 42.6409837,17.6054175 42.4816555,18.536347 C42.3215144,19.4672766 42.1703152,20.3527752 42.0276514,21.1912203 C41.8845812,22.0296654 41.7630528,22.7719752 41.6618469,23.4177442 C41.5610474,24.0635132 41.4935768,24.5040315 41.4602479,24.7388935" id="Fill-6"></path>
                                <path d="M52.9824818,13.2900823 C52.5284777,13.2568203 52.083009,13.4162344 51.6460758,13.7683245 C51.2087361,14.1204146 50.7974092,14.5986569 50.4108758,15.2026456 C50.0239358,15.8062287 49.6626022,16.4941837 49.3264685,17.2656992 C48.9899283,18.0376203 48.7046007,18.8302287 48.4692665,19.6435245 C48.2335257,20.4576315 48.0489977,21.2583527 47.9144629,22.0464992 C47.7799281,22.8346456 47.7169284,23.5351752 47.7254639,24.1476823 C47.7335928,24.7597837 47.8221988,25.2546569 47.9900625,25.632302 C48.1579261,26.0095414 48.4188667,26.1981611 48.7720713,26.1981611 C49.225669,26.1981611 49.6752021,25.9592428 50.1206708,25.4814062 C50.5661395,25.0031639 50.9908792,24.4283808 51.3940771,23.7578682 C51.797275,23.0865442 52.1756795,22.3864203 52.5284777,21.6566851 C52.8816823,20.9269499 53.1840807,20.3022738 53.4364859,19.7818456 C53.4698148,19.6982851 53.5202145,19.4800541 53.5876851,19.1279639 C53.6543428,18.7754682 53.7092135,18.3645611 53.7514843,17.8948372 C53.7933486,17.4251132 53.8226129,16.9221273 53.8396838,16.3850682 C53.8563482,15.8484146 53.8396838,15.3535414 53.7892841,14.9004485 C53.7388843,14.4477611 53.6506848,14.0701161 53.524279,13.7683245 C53.3982796,13.466533 53.2178161,13.3071189 52.9824818,13.2900823 M55.5792877,24.7390963 C55.5792877,24.8563245 55.5748168,25.0408879 55.5666878,25.2927865 C55.5581523,25.5442794 55.5833522,25.7621048 55.6422874,25.9466682 C55.7012226,26.1312315 55.806493,26.2318287 55.9576922,26.2484597 C56.1088914,26.2650907 56.3356902,26.0975639 56.6384951,25.7454738 C57.041693,25.2927865 57.4363555,24.8060259 57.8232954,24.2860034 C58.2098289,23.7659808 58.6089623,23.1701048 59.0211021,22.4995921 C59.4328355,21.8282682 59.8657042,21.065271 60.3193019,20.2097893 C60.773306,19.3543076 61.2606389,18.3726738 61.7817072,17.2656992 C61.9495708,17.2154006 62.0674412,17.1902513 62.1349118,17.1902513 C62.2690402,17.1902513 62.3698396,17.2324372 62.4373103,17.3159977 C62.5043744,17.4003696 62.5547742,17.4920428 62.5885095,17.59264 L62.4121104,18.045733 C62.2609112,18.3645611 62.0467123,18.8423977 61.7691073,19.4800541 C61.4919087,20.1177104 61.1639039,20.81824 60.7859059,21.5808315 C60.4079079,22.3442344 59.9791036,23.1161555 59.4998997,23.8957837 C59.0211021,24.6758175 58.5081629,25.3718851 57.9618947,25.9843921 C57.4156266,26.5968992 56.8356231,27.0666231 56.2222908,27.3939696 C55.6085521,27.7205048 54.9826198,27.808933 54.3440876,27.6580372 C53.9738121,27.5736654 53.6673492,27.4061386 53.4234795,27.1546456 C53.1796098,26.9031527 52.9865463,26.6009555 52.8438825,26.2484597 C52.7008123,25.8963696 52.6081418,25.5187245 52.5666839,25.1163358 C52.5244132,24.713947 52.5118133,24.3277837 52.5284777,23.9590625 C52.5451421,23.8247977 52.5577421,23.690533 52.5666839,23.5566738 C52.5748129,23.4220034 52.5955419,23.2877386 52.6292772,23.1534738 C52.5284777,23.472302 52.3435432,23.883209 52.07488,24.3866006 C51.8058105,24.8899921 51.4652058,25.3844597 51.0534724,25.8716259 C50.6417391,26.3575752 50.167006,26.7770006 49.6292733,27.1294963 C49.0911342,27.4815865 48.5111308,27.6580372 47.889263,27.6580372 C47.40193,27.6580372 46.9731258,27.565147 46.6036632,27.3809893 C46.2337942,27.1960203 45.9313957,26.9445273 45.6960615,26.6261048 C45.4607272,26.3072766 45.2798572,25.9381499 45.1538578,25.5187245 C45.0278585,25.0992992 44.9563234,24.6636485 44.9392525,24.2105555 C44.9059236,23.3887414 44.9733942,22.5036485 45.1412579,21.5560879 C45.309528,20.6085273 45.5615267,19.6690794 45.8976604,18.7377442 C46.2337942,17.8068146 46.649592,16.9221273 47.1458669,16.0832766 C47.6413288,15.2444259 48.1961324,14.5150963 48.8094647,13.8936654 C49.4232034,13.2734513 50.0954709,12.7992654 50.8266736,12.4719189 C51.5578763,12.1453837 52.3183433,12.0318062 53.1084811,12.1324034 C53.3267445,12.166071 53.5454144,12.2707245 53.7640842,12.4471752 C53.9823476,12.6232203 54.1676886,12.8751189 54.3188878,13.2020597 C54.470087,13.5290006 54.5745445,13.9317949 54.6338861,14.4100372 C54.6928213,14.8878738 54.6798149,15.4456203 54.5960863,16.0832766 C54.6798149,15.7648541 54.7684209,15.3701724 54.8610914,14.9004485 C54.952949,14.4311301 55.0411486,13.9528879 55.1256901,13.466533 C55.2094186,12.9797724 55.2894892,12.5145104 55.3650888,12.0695301 C55.4406884,11.6253611 55.5122235,11.2606963 55.5792877,10.9751301 C55.6800872,10.5058118 55.7812931,10.0024203 55.8820926,9.46536113 C55.9828921,8.92870761 56.0710916,8.42125972 56.1466912,7.94301746 C56.2222908,7.46518085 56.2852905,7.03318085 56.3356902,6.64701746 C56.3864964,6.26166535 56.4116963,5.96758085 56.4116963,5.76638648 C56.4116963,5.46459493 56.37349,5.27556958 56.2978904,5.20052732 C56.2222908,5.1246738 56.1340913,5.08694986 56.0332918,5.08694986 C55.9324923,5.08694986 55.822751,5.0958738 55.705287,5.11209915 C55.5878231,5.12913577 55.4784882,5.08694986 55.3776887,4.98635268 C55.3106246,4.9194231 55.2724183,4.83140056 55.2642893,4.72228507 C55.2557539,4.61316958 55.3020891,4.50445972 55.4028886,4.39493859 C55.5036881,4.28622873 55.6760227,4.18968789 55.9198924,4.10572169 C56.1633556,4.02175549 56.5124958,3.97997521 56.9660934,3.97997521 C57.4871617,3.97997521 57.9029595,4.05947944 58.2142999,4.21889352 C58.5248273,4.37830761 58.7601616,4.58802028 58.9198962,4.84803155 C59.0796309,5.10844845 59.1763659,5.40172169 59.2101012,5.72866254 C59.24343,6.05600901 59.235301,6.3870062 59.1849013,6.72287099 C59.0841018,7.46112451 58.9329026,8.3166062 58.7313036,9.28931606 C58.5292982,10.2620259 58.3065639,11.2984203 58.0631006,12.3968766 C57.8188245,13.4957386 57.5627613,14.6197499 57.2936917,15.7685048 C57.0246222,16.9176654 56.7726235,18.0331583 56.5376956,19.1149837 C56.3019549,20.1972146 56.0962915,21.2250907 55.9198924,22.1973949 C55.7430869,23.1701048 55.6296874,24.0174738 55.5792877,24.7390963" id="Fill-8"></path>
                                <path d="M67.4799261,23.4558738 C67.6648606,23.1703076 67.883124,22.7297893 68.1355291,22.1347245 C68.3875278,21.5388485 68.6147331,20.8809104 68.8163321,20.1592879 C69.017931,19.4384766 69.1731947,18.6917048 69.2825297,17.9201893 C69.3918646,17.1482682 69.408529,16.4440879 69.3329294,15.8064315 C69.2573298,15.1687752 69.0638598,14.6487527 68.7529259,14.2463639 C68.4419921,13.8435696 67.967259,13.6423752 67.3283204,13.6423752 C66.7568524,13.6423752 66.3158547,13.9279414 66.0049208,14.4978569 C65.6935805,15.068178 65.4627172,15.8400992 65.311518,16.812809 C65.2107185,17.3498682 65.1558478,17.9664315 65.1477188,18.6624992 C65.1391834,19.3581611 65.2107185,20.0335414 65.3619177,20.6878287 C65.5131169,21.3421161 65.7565802,21.9250118 66.0931204,22.4365161 C66.4292541,22.9480203 66.8913872,23.2879414 67.4799261,23.4558738 M64.1011113,26.4750062 C64.3031167,26.4750062 64.5380445,26.412133 64.8071141,26.2867921 C65.0757772,26.16064 65.3367178,26.0008203 65.5887165,25.8085499 C65.8411217,25.6150625 66.0679205,25.4016992 66.2695194,25.1668372 C66.4715249,24.9315696 66.5975242,24.7141499 66.6479239,24.5121442 C66.260984,24.3949161 65.9167213,24.1430175 65.6139164,23.7576654 C65.311518,23.371502 65.0550483,22.9102963 64.8453204,22.3736428 C64.6347795,21.8365837 64.4669159,21.2459808 64.3409165,20.5998062 C64.2149172,19.9540372 64.1389111,19.3078625 64.1137113,18.6624992 C64.0885114,18.0167301 64.1137113,17.3916485 64.1897173,16.7876597 C64.2653169,16.183671 64.3868453,15.6555358 64.5551154,15.2024428 C64.3868453,15.4373048 64.1807754,15.8778231 63.9373122,16.5231865 C63.6934425,17.1693611 63.4666436,17.911671 63.2565092,18.7501161 C63.0463748,19.5893724 62.8740403,20.4610794 62.7399119,21.3672654 C62.6049707,22.2730456 62.5509129,23.103378 62.5761128,23.8582625 C62.6013126,24.6135527 62.727312,25.2382287 62.9541108,25.7326963 C63.1809096,26.2275696 63.5629722,26.4750062 64.1011113,26.4750062 M62.6895122,27.7332823 C61.9331096,27.5990175 61.3486352,27.2590963 60.9369019,26.7143301 C60.525575,26.1687527 60.23537,25.5400203 60.0670999,24.8269161 C59.8992363,24.1138118 59.8277012,23.3674456 59.8529011,22.5874118 C59.8781009,21.8077837 59.9411006,21.1153668 60.0419001,20.5117837 C60.3280405,18.8004146 60.7479029,17.3831301 61.3027065,16.2591189 C61.85751,15.1355132 62.4789713,14.2463639 63.1683097,13.5920766 C63.8572416,12.9377893 64.5758443,12.4936203 65.3241179,12.2587583 C66.071985,12.0234907 66.7820523,11.9314118 67.4547262,11.9817104 C68.2615285,12.0490456 68.8829898,12.3212259 69.3203295,12.7994682 C69.7572627,13.2773048 70.0596611,13.8731808 70.2279312,14.5858794 C70.3957949,15.2993893 70.4551365,16.0875358 70.4047367,16.9511301 C70.3539306,17.8155358 70.2405311,18.6624992 70.0641321,19.4924259 C69.8873265,20.3227583 69.6731276,21.0987358 69.4211289,21.8203583 C69.1691302,22.5411696 68.9333895,23.1114907 68.7155326,23.5313217 C68.9841957,23.5982513 69.2699297,23.5349724 69.5723282,23.342702 C69.875133,23.1492146 70.1775315,22.8644597 70.4799299,22.4868146 C70.7823283,22.1095752 71.0810687,21.6694625 71.3749317,21.1656654 C71.6692012,20.6626794 71.9508707,20.1467132 72.2199402,19.618578 C72.4886034,19.0900372 72.7406021,18.561902 72.9763428,18.0333611 C73.2112706,17.5048203 73.4128696,17.03104 73.5811397,16.6116146 C73.6819391,16.3601217 73.791274,16.2088203 73.9091444,16.1585217 C74.0266083,16.1082231 74.1318787,16.1122794 74.2241428,16.1710963 C74.3164068,16.2303189 74.3838774,16.3345668 74.4257417,16.4854625 C74.467606,16.6363583 74.4635415,16.7876597 74.4131418,16.9385555 C74.2956779,17.2573837 74.1359432,17.6849217 73.9343443,18.2219808 C73.7323389,18.75904 73.4888756,19.3289555 73.2031416,19.9329442 C72.9170012,20.536933 72.5894029,21.144978 72.2199402,21.7574851 C71.8496647,22.3691808 71.4509378,22.9021837 71.0221335,23.354871 C70.5937358,23.8079639 70.1271317,24.1559977 69.6227279,24.399378 C69.1187305,24.6423527 68.5891268,24.7052259 68.0347297,24.5879977 C67.681525,25.0573161 67.311656,25.5022963 66.9251225,25.9217217 C66.5381826,26.3407414 66.1223847,26.7017555 65.6769161,27.003547 C65.2314474,27.3053386 64.7607789,27.5276259 64.2653169,27.670409 C63.7694485,27.8127865 63.2439093,27.8338794 62.6895122,27.7332823" id="Fill-10"></path>
                                <path d="M88.5329538,13.9943842 C88.2468134,13.893787 88.0196081,14.0069589 87.8517445,14.3343054 C87.6838808,14.6616518 87.561946,15.0936518 87.4863464,15.6298997 C87.4107468,16.1669589 87.3896114,16.758373 87.4237531,17.404142 C87.457082,18.049911 87.5322752,18.6498434 87.6501455,19.2031279 C87.9021442,18.5995448 88.1082141,17.9951504 88.2683552,17.3915673 C88.4276834,16.7875786 88.5451473,16.2428124 88.6211534,15.7560518 C88.6963465,15.2696969 88.7260174,14.8628462 88.7093529,14.5354997 C88.6922821,14.2081532 88.6337533,14.0284575 88.5329538,13.9943842 L88.5329538,13.9943842 Z M92.5165655,18.2973476 C92.7010936,18.1630828 92.8567637,18.1127842 92.9827631,18.1464518 C93.1091689,18.1801194 93.2644326,18.2892349 93.4493671,18.4733927 L93.4493671,18.498542 C93.1469687,19.1366039 92.8230284,19.6773138 92.4787657,20.1214828 C92.13369,20.5660575 91.7390276,20.9059786 91.2935589,21.1408406 C90.8480902,21.3752969 90.3436864,21.501449 89.7807538,21.51808 C89.2178213,21.534711 88.5748181,21.4341138 87.8517445,21.2162885 C87.5997458,21.8535392 87.2758055,22.5788124 86.8815495,23.3929194 C86.4860741,24.2062152 86.0154056,24.9566377 85.4695439,25.6449983 C84.9228693,26.3325476 84.3054725,26.8817758 83.6161341,27.2930885 C82.9267958,27.7039955 82.1789287,27.82528 81.3721264,27.6581589 C80.9185288,27.5575617 80.5567887,27.3851673 80.2881256,27.141787 C80.019056,26.8984068 79.8089216,26.5885025 79.6577224,26.2108575 C79.5065232,25.833618 79.4057237,25.3935054 79.3553239,24.8897082 C79.3049242,24.3867223 79.2793179,23.8164011 79.2793179,23.1791504 C78.8927844,23.9169983 78.4765801,24.5879166 78.0315179,25.1914997 C77.5856428,25.7958941 77.1149743,26.3069927 76.6195123,26.7268237 C76.1236439,27.1458434 75.6151756,27.4480406 75.0945138,27.6326039 C74.573039,27.8171673 74.0515643,27.8593532 73.5309025,27.7587561 C73.0773048,27.6581589 72.7115003,27.4817082 72.4343017,27.2302152 C72.1566967,26.9787223 71.9424978,26.6513758 71.7912986,26.2485814 C71.6396929,25.8461927 71.5433644,25.3720068 71.5015001,24.8268349 C71.4596358,24.2816631 71.438094,23.6732124 71.438094,23.0026997 C71.438094,22.4656406 71.4596358,21.9123561 71.5015001,21.3420349 C71.5433644,20.7721194 71.5937641,20.2058546 71.6526993,19.6436462 C71.7116345,19.0818434 71.7786987,18.5362659 71.8542983,18.0081307 C71.9298979,17.4795899 72.001433,16.9891786 72.0684972,16.5360856 C72.1526322,15.9487279 72.2241673,15.4376293 72.2831025,15.0007617 C72.3420377,14.565111 72.3627666,14.2462828 72.3461022,14.0450885 C72.3294377,13.8775617 72.3042379,13.7388349 72.2700961,13.6297194 C72.2367673,13.5210096 72.2034384,13.4078377 72.1692966,13.2902039 L72.1188969,13.1640518 L72.1188969,13.1896068 C72.085568,13.1393082 72.0644327,13.0975279 72.0558972,13.0634546 C72.0473618,13.0301927 72.0437037,12.9717814 72.0437037,12.8874096 C72.0099684,12.6695842 72.0644327,12.5223392 72.2070964,12.4472969 C72.3505731,12.3714434 72.5143723,12.3170885 72.6989003,12.2834208 C72.9846344,12.2501589 73.2195622,12.2456969 73.4049031,12.2708462 C73.5894312,12.2959955 73.7491659,12.3337194 73.8841071,12.384018 C74.3543692,12.602249 74.6945674,12.9462265 74.9051083,13.4159504 C75.1148362,13.8856744 75.2367711,14.3890659 75.2705064,14.9257194 C75.2871708,15.194249 75.249371,15.659511 75.157107,16.321911 C75.0644365,16.9851223 74.9510371,17.7310828 74.8169087,18.5618208 C74.6819675,19.3921532 74.5478392,20.2561532 74.4137108,21.1530096 C74.2787696,22.0502715 74.19057,22.8684349 74.1487057,23.6066885 C74.106435,24.344942 74.1275704,24.9485251 74.2117054,25.418249 C74.2958405,25.8875673 74.4803685,26.1057983 74.766509,26.0725363 C75.2871708,26.0222377 75.7834457,25.7581701 76.2541142,25.2799279 C76.7243763,24.8020913 77.165374,24.2062152 77.5775138,23.4935166 C77.9896536,22.7800068 78.3672452,21.9918603 78.7123208,21.1282659 C79.0565836,20.2642659 79.3553239,19.4213589 79.6073226,18.5995448 L79.9097211,16.4354885 C79.9938561,15.8481307 80.0649848,15.3370321 80.1243264,14.9001645 C80.1828551,14.4645138 80.2039905,14.1456856 80.1873261,13.9440856 C80.1702552,13.7769645 80.1450553,13.6382377 80.11132,13.5291223 C80.0775847,13.4200068 80.0442559,13.3072406 80.0105206,13.1896068 L79.9601208,13.0634546 L79.9601208,13.0890096 C79.9263855,13.038711 79.9052501,12.9965251 79.8971211,12.9628575 C79.8885857,12.9295955 79.8849277,12.8707786 79.8849277,12.7864068 C79.8507859,12.568987 79.9052501,12.421742 80.0487268,12.3466997 C80.1913906,12.2708462 80.3551897,12.2164913 80.5401243,12.1828237 C80.8258583,12.1495617 81.0607861,12.1450997 81.2461271,12.170249 C81.4306551,12.1953983 81.5903898,12.2331223 81.725331,12.2834208 C82.1955931,12.5016518 82.5357914,12.8456293 82.7463322,13.3149476 C82.9560601,13.7846715 83.077995,14.2884687 83.1117303,14.8251223 C83.1283947,15.0936518 83.0905949,15.5463392 82.9987373,16.1835899 C82.9056604,16.8216518 82.792261,17.5424631 82.6581327,18.3476462 C82.5235979,19.1528293 82.393534,19.99168 82.2671282,20.8641983 C82.1411289,21.7359054 82.0533358,22.5410885 82.0025296,23.2797476 C81.9521299,24.0175955 81.9687943,24.6337532 82.0533358,25.1290321 C82.1370644,25.6234997 82.3215925,25.9046039 82.6077329,25.9719392 C82.9771955,26.0554997 83.3641354,25.9131223 83.7673334,25.5444011 C84.1709377,25.1748687 84.5615357,24.7051448 84.9399402,24.1352293 C85.3183447,23.5645025 85.654072,22.9649758 85.9487479,22.3358377 C86.2422044,21.7071054 86.4653452,21.1745082 86.6165444,20.7380462 C86.3474748,20.2853589 86.1247405,19.740187 85.9487479,19.1025307 C85.7719423,18.4648744 85.654072,17.8065307 85.5951368,17.1274997 C85.5362016,16.4480631 85.5488016,15.7812011 85.6333431,15.1269138 C85.7170717,14.4726265 85.8768063,13.898249 86.1121406,13.4033758 C86.3474748,12.9085025 86.6754796,12.5312631 87.0957484,12.2708462 C87.5156107,12.0108349 88.036679,11.9313307 88.6589532,12.0319279 C89.0117514,12.0822265 89.2848854,12.2834208 89.4783554,12.635511 C89.6714189,12.9884124 89.763683,13.4999166 89.755554,14.1708349 C89.7466121,14.8417532 89.6295546,15.6724913 89.4027558,16.6618321 C89.1755505,17.6519842 88.8182814,18.8092575 88.3309484,20.1344631 C88.6337533,20.4362546 88.9820806,20.5956687 89.3771495,20.6122997 C89.7722184,20.6289307 90.1632228,20.5453701 90.5497563,20.3604011 C90.9362898,20.1762434 91.3061588,19.9077138 91.658957,19.5556237 C92.0121616,19.2031279 92.2893602,18.8092575 92.4909592,18.3727955 L92.5165655,18.2973476 Z" id="Fill-12"></path>
                                <path d="M101.012986,15.0512631 C101.466584,14.8500687 101.802717,14.7539335 102.021387,14.7620462 C102.239651,14.7709701 102.370121,14.8293814 102.411985,14.9384969 C102.45385,15.0472068 102.411985,15.1859335 102.286392,15.3534603 C102.159987,15.520987 101.979116,15.6641758 101.744189,15.7814039 C101.10525,16.0998265 100.672381,16.4478603 100.445582,16.8255054 C100.218784,17.2027448 100.130178,17.5511842 100.180577,17.8696068 C100.231384,18.1884349 100.386647,18.4443899 100.647588,18.6370659 C100.907716,18.8301476 101.214585,18.8930208 101.567383,18.8260913 C101.970581,18.7591617 102.344515,18.5579673 102.68959,18.2216969 C103.033853,17.8862377 103.332593,17.5008856 103.584592,17.0644237 C103.836591,16.6283673 104.034125,16.1797363 104.177195,15.7185307 C104.319859,15.2569194 104.391801,14.858587 104.391801,14.5227223 C104.42513,13.6676462 104.294253,12.95008 104.000796,12.3716462 C103.706527,11.7928068 103.155788,11.411511 102.348986,11.226542 C101.777518,11.1093138 101.20605,11.1762434 100.634582,11.4277363 C100.063114,11.6796349 99.5164389,12.0613363 98.9957771,12.5732462 C98.4747088,13.0847504 97.9910339,13.6923899 97.5459717,14.3973814 C97.100503,15.1015617 96.7220985,15.8276462 96.4115711,16.5736068 C96.1002308,17.3203786 95.8648965,18.0671504 95.7051619,18.813111 C95.5454272,19.5598828 95.4913694,20.2267448 95.5417692,20.8136969 C95.6588266,22.2228687 96.0083732,23.2880631 96.5879702,24.00928 C97.1679737,24.7300913 97.8902344,25.1539786 98.7563783,25.2801307 C99.6217093,25.4054715 100.580117,25.2630941 101.630789,24.852187 C102.681055,24.4408744 103.727256,23.791049 104.769392,22.9018997 C105.895664,21.9458208 106.858136,20.7423054 107.656403,19.2913532 C108.455076,17.8404011 109.148073,16.208942 109.737018,14.3973814 C110.325151,12.5854152 110.833213,10.6314772 111.262017,8.53435042 C111.690821,6.4376293 112.097677,4.26546028 112.48543,2.01703211 C112.518759,1.74890817 112.501281,1.53513915 112.434624,1.37572507 C112.367153,1.21671662 112.333824,1.06947155 112.333824,0.935206761 C112.333824,0.667082817 112.442346,0.499150423 112.661422,0.431815211 C112.879686,0.365291268 113.106891,0.323105352 113.341819,0.306068732 C113.627553,0.339736338 113.862481,0.39003493 114.048228,0.456964507 C114.23235,0.524299718 114.383955,0.608265915 114.501826,0.708863099 C114.61929,0.809460282 114.71196,0.922632113 114.779431,1.04837859 C114.846089,1.17412507 114.913559,1.31285183 114.98103,1.46374761 C115.148487,1.86613634 115.291557,2.53340394 115.409834,3.46433352 C115.527298,4.39485746 115.619562,5.4645138 115.687033,6.67249127 C115.754503,7.8800631 115.804497,9.16308282 115.838638,10.5223617 C115.871967,11.8812349 115.89229,13.1894039 115.901231,14.44768 C115.909767,15.7055504 115.909767,16.854711 115.901231,17.8947561 C115.89229,18.9352068 115.888632,19.7314659 115.888632,20.2851561 C116.106895,19.8320631 116.392629,19.2532237 116.745834,18.5490434 C117.099038,17.8444575 117.489636,17.0559054 117.91844,16.1837927 C118.346838,15.31168 118.801249,14.3844011 119.27964,13.4035786 C119.75925,12.4219448 120.233983,11.4366603 120.704652,10.4465082 C121.174914,9.45716732 121.632576,8.48405183 122.078858,7.52797296 C122.523513,6.57189408 122.926711,5.68274479 123.288858,4.86052507 C123.649785,4.03911662 123.957061,3.31343775 124.208653,2.68429972 C124.461058,2.05516169 124.628922,1.5728631 124.71387,1.23699831 L124.763863,1.31285183 C124.763863,1.26255324 124.780527,1.18669972 124.814669,1.08610254 C124.915469,0.935206761 125.049597,0.800941972 125.217867,0.683713803 C125.385324,0.566485634 125.604401,0.507668732 125.872657,0.507668732 C126.35999,0.507668732 126.776195,0.59163493 127.12127,0.75916169 C127.465126,0.927094085 127.730132,1.14938141 127.915066,1.42602366 C128.100407,1.70266592 128.208929,2.02149408 128.243071,2.38210254 C128.2764,2.74311662 128.234535,3.10818704 128.117071,3.47690817 C126.87293,7.1000293 125.906799,10.312649 125.217867,13.1139561 C124.528122,15.9156687 124.049325,18.3563673 123.780255,20.4360518 C123.511186,22.5157363 123.422986,24.256311 123.515657,25.6573701 C123.607921,27.0580237 123.814397,28.1649983 124.13346,28.9786997 C124.452523,29.7924011 124.855721,30.3379786 125.343866,30.6142152 C125.830793,30.8912631 126.335603,30.9541363 126.856265,30.8032406 C127.191992,30.7026434 127.482604,30.4925251 127.726473,30.1741025 C127.969937,29.8552744 128.10813,29.5490208 128.142271,29.2557476 C128.1756,28.9620687 128.067078,28.7353194 127.814267,28.576311 C127.561861,28.4164913 127.116799,28.4461025 126.478267,28.6643335 C126.377468,28.6980011 126.272197,28.7020575 126.163269,28.6769082 C126.053527,28.6517589 125.97427,28.609573 125.923463,28.5511617 C125.872657,28.4923448 125.881599,28.4164913 125.94907,28.324818 C126.015728,28.2323335 126.175869,28.1357927 126.427461,28.0351955 C126.982671,27.8003335 127.449275,27.7334039 127.827273,27.8340011 C128.204865,27.9345983 128.486941,28.1272744 128.671875,28.4124349 C128.85681,28.6980011 128.936067,29.041573 128.91168,29.4443673 C128.886074,29.8471617 128.751133,30.2329194 128.507669,30.6020462 C128.2638,30.9707673 127.902466,31.2895955 127.424075,31.5577194 C126.944465,31.8258434 126.352268,31.9690321 125.646265,31.9856631 C124.486664,32.0193307 123.548985,31.7674321 122.834447,31.2311842 C122.120315,30.6937194 121.578112,29.9643899 121.208649,29.041573 C120.83878,28.1191617 120.616046,27.0539673 120.540446,25.8459899 C120.464847,24.638418 120.485575,23.3716237 120.603852,22.046418 C120.653846,21.2416406 120.775374,20.306249 120.96925,19.2410546 C121.161907,18.1758603 121.380984,17.072942 121.624853,15.9322997 C121.868723,14.7912518 122.124786,13.6635899 122.394262,12.5476913 C122.662519,11.4321983 122.905982,10.4298772 123.125059,9.54072789 C123.343322,8.65198423 123.523786,7.92224901 123.666449,7.35192789 C123.80952,6.78160676 123.881055,6.4712969 123.881055,6.42099831 C123.897719,6.35406873 123.814397,6.52159549 123.629462,6.92398423 C123.444121,7.32637296 123.191716,7.88452507 122.872653,8.59722366 C122.553591,9.31073352 122.179657,10.132142 121.750853,11.0630715 C121.322455,11.9944068 120.872109,12.954542 120.40144,13.9442885 C119.930772,14.9344406 119.456039,15.9067448 118.977241,16.8632293 C118.498037,17.8193082 118.048504,18.6833082 117.628642,19.4548237 C117.207967,20.2267448 116.834033,20.8558828 116.506028,21.3422377 C116.178837,21.828187 115.930496,22.0967166 115.762226,22.1470152 C115.560627,22.1973138 115.375692,22.1973138 115.208235,22.1470152 C115.039965,22.0967166 114.896895,22.0086941 114.779431,21.8829476 C114.661154,21.7572011 114.569296,21.6148237 114.501826,21.4554096 C114.434762,21.2964011 114.409562,21.1410434 114.426226,20.989742 C114.442891,20.520018 114.459555,19.9541589 114.477032,19.2913532 C114.493697,18.6285476 114.510361,17.9117927 114.527026,17.1398715 C114.54369,16.3683561 114.55629,15.5672293 114.565232,14.7368969 C114.572954,13.9065645 114.572954,13.0977307 114.565232,12.308773 C114.55629,11.5206265 114.539626,10.7783166 114.514426,10.0818434 C114.489632,9.38577577 114.451426,8.7777307 114.40062,8.25770817 C114.149841,9.36468282 113.823055,10.580773 113.420264,11.9059786 C113.017879,13.2315899 112.532172,14.5653138 111.961923,15.9067448 C111.392081,17.2493927 110.72591,18.5535054 109.963817,19.8198941 C109.201318,21.0866885 108.333548,22.2139448 107.360914,23.2040969 C106.389094,24.1934377 105.306312,24.9986208 104.113383,25.6196462 C102.920047,26.2402659 101.609247,26.5672068 100.180577,26.60128 C99.0547123,26.634542 98.05444,26.4877025 97.1801671,26.1607617 C96.3063007,25.8334152 95.5706271,25.3592293 94.9743657,24.7390152 C94.3776978,24.1183955 93.9277582,23.37568 93.6253597,22.5120856 C93.3229613,21.6480856 93.1798911,20.6964687 93.196962,19.6564237 C93.2136264,18.8678715 93.3184904,18.0582265 93.5119603,17.2278941 C93.7050238,16.3975617 93.9740934,15.5923786 94.3187626,14.8123448 C94.6630253,14.032311 95.0751651,13.2944631 95.5539627,12.5979899 C96.0331666,11.9019223 96.5668348,11.2898208 97.1553737,10.76128 C97.7435062,10.2327392 98.3820383,9.81371944 99.0717831,9.50300394 C99.7603086,9.19309972 100.474847,9.02922366 101.214585,9.01218704 C102.071787,8.99596169 102.77779,9.12576451 103.332593,9.40240676 C103.88699,9.67945465 104.323924,10.0607504 104.643799,10.5471054 C104.962862,11.0342715 105.181532,11.6127054 105.298996,12.2836237 C105.41646,12.954542 105.46686,13.6761645 105.450195,14.44768 C105.433124,14.9344406 105.307938,15.4877251 105.075855,16.1079392 C104.843366,16.7289645 104.527961,17.3118603 104.130454,17.8570321 C103.73254,18.4026096 103.269594,18.8634096 102.73999,19.2410546 C102.210386,19.6186997 101.634447,19.8073194 101.012986,19.8073194 C100.525247,19.8073194 100.105384,19.6268124 99.7521796,19.2662039 C99.398975,18.9055955 99.1888406,18.4695392 99.1221829,17.9576293 C99.0547123,17.4461251 99.1636407,16.9220462 99.4493747,16.384987 C99.7351087,15.8483335 100.256583,15.4037589 101.012986,15.0512631" id="Fill-14" opacity="0.98999995"></path>
                                <path d="M134.34465,14.3972597 C133.991446,14.3972597 133.629706,14.5903414 133.260243,14.9760992 C132.890374,15.3618569 132.52904,15.8234682 132.176242,16.3601217 C131.823444,16.8967752 131.499504,17.4634456 131.205234,18.0581048 C130.911371,18.6539808 130.663437,19.1614287 130.461432,19.5804485 C130.898365,19.5642231 131.38204,19.4968879 131.911643,19.3792541 C132.440841,19.2620259 132.940774,19.0774625 133.411442,18.8259696 C133.881704,18.574071 134.28978,18.2515921 134.634449,17.8569104 C134.979118,17.4634456 135.193317,16.9892597 135.277452,16.4351639 C135.294116,16.2842682 135.294116,16.0919977 135.277452,15.8567301 C135.260381,15.6222738 135.21811,15.3955245 135.151046,15.1772935 C135.083982,14.9594682 134.983182,14.7749048 134.848648,14.624009 C134.714113,14.4727076 134.546249,14.3972597 134.34465,14.3972597 M130.739037,27.5823865 C130.049698,27.5823865 129.453437,27.4481217 128.949033,27.1799977 C128.444629,26.9114682 128.028831,26.5419358 127.700827,26.0726175 C127.373228,25.6028935 127.133829,25.06624 126.982224,24.4618456 C126.831025,23.8582625 126.764367,23.2120879 126.780625,22.5245386 L126.805825,22.3488992 L126.805825,21.9586794 C126.805825,21.8158963 126.822489,21.6856879 126.856224,21.5684597 C127.007424,20.4951527 127.297222,19.3962907 127.726026,18.2722794 C128.154831,17.1482682 128.684028,16.1252597 129.314431,15.2024428 C129.944834,14.2800315 130.654902,13.525147 131.445039,12.9377893 C132.235177,12.3508372 133.066773,12.0567527 133.941046,12.0567527 C134.512107,12.0567527 134.970582,12.1829048 135.315252,12.4343977 C135.659514,12.6858907 135.915984,13.0132372 136.084254,13.4160315 C136.251711,13.8184203 136.344788,14.2711076 136.361453,14.7749048 C136.378117,15.2778907 136.344788,15.7812823 136.260653,16.2842682 C136.143189,16.9892597 135.87412,17.6013611 135.453851,18.1213837 C135.033582,18.6414062 134.533649,19.0774625 133.953646,19.4295527 C133.373642,19.7816428 132.739175,20.0631527 132.049836,20.2724597 C131.360498,20.482578 130.679695,20.6208992 130.007834,20.6878287 C129.940363,20.9060597 129.873299,21.1831076 129.806235,21.5181611 C129.738764,21.8536203 129.688365,22.2182851 129.655036,22.6129668 C129.620894,23.0068372 129.608701,23.4051696 129.61683,23.8079639 C129.625365,24.2103527 129.683894,24.5754231 129.793635,24.9023639 C129.902564,25.2297104 130.062298,25.5100034 130.272433,25.7456766 C130.482567,25.980133 130.772365,26.1229161 131.142235,26.1732146 C131.697038,26.2567752 132.247371,26.156178 132.794045,25.8714231 C133.339907,25.5858569 133.869511,25.1915808 134.38245,24.6885949 C134.894983,24.185609 135.382316,23.5982513 135.844449,22.927333 C136.306582,22.256009 136.735386,21.5721104 137.130455,20.8768541 C137.525118,20.1807865 137.882387,19.5013499 138.201856,18.8381386 C138.520919,18.1757386 138.790395,17.6013611 139.009065,17.1146006 C139.059464,16.9973724 139.139129,16.9349048 139.248464,16.9259808 C139.357392,16.9178682 139.462662,16.9385555 139.563868,16.9892597 C139.664668,17.0395583 139.748396,17.1105442 139.815867,17.2026231 C139.882931,17.2955132 139.89106,17.3916485 139.84066,17.4922456 C139.621991,17.944933 139.365927,18.507547 139.072064,19.1780597 C138.777389,19.848978 138.429061,20.5580259 138.025863,21.3039865 C137.621853,22.0503527 137.172319,22.7971245 136.676451,23.5438963 C136.180989,24.2902625 135.63025,24.9611808 135.025453,25.5570569 C134.42025,26.1521217 133.760582,26.6388823 133.046044,27.0161217 C132.331506,27.3937668 131.562097,27.5823865 130.739037,27.5823865" id="Fill-16"></path>
                            </g>
                        </g>
                    </g>
                </g>
            </g>
        </g>
    </g>
</svg>