<?xml version="1.0" encoding="UTF-8"?>
<svg width="157px" height="58px" viewBox="0 0 157 58" version="1.1" xmlns="http://www.w3.org/2000/svg" xmlns:xlink="http://www.w3.org/1999/xlink">
    <!-- Generator: Sketch 53 (72520) - https://sketchapp.com -->
    <title>logo_kissme</title>
    <desc>Created with Sketch.</desc>
    <g id="Page-1" stroke="none" stroke-width="1" fill="none" fill-rule="evenodd">
        <g id="FAQ-General" transform="translate(-473.000000, -848.000000)" fill="#000000" fill-rule="nonzero">
            <g id="logo_kissme" transform="translate(473.000000, 848.000000)">
                <path d="M1.3104008,24.9598306 C1.3104008,25.7918946 4.40434422,26.9361393 8.59863704,26.9361393 C9.17533125,26.9361393 9.80464355,26.8843181 10.4865739,26.7802579 C10.4865739,26.416256 10.5387711,26.1044932 10.5387711,25.7923125 C8.70303132,24.6998889 6.81551536,24.0763633 5.03323557,24.0763633 C2.41117114,24.0763633 1.30997985,24.4399473 1.30997985,24.9598306 M10.7484015,22.9835218 C11.2728986,16.1201431 11.6925805,8.68422402 12.3214718,0.936124244 C12.3214718,0.936124244 12.426287,0 12.7411537,0 C13.5796755,0 15.2057848,0.988781233 15.3632181,1.76818825 C14.838721,7.22779857 14.6812877,13.7275934 14.6812877,20.2800452 L14.6812877,24.9594127 L15.1531667,25.2197722 C24.3819579,21.0598701 35.6035013,10.0357534 41.4765215,2.23583246 C41.4765215,2.23583246 42.0532157,1.50824661 42.3158852,1.50824661 C42.4207004,1.50824661 42.3680823,1.66412801 42.4207004,1.92448756 C42.5255156,2.08036897 42.7877642,2.34072852 42.7877642,3.01649321 C42.7877642,3.38049509 42.6299099,4.10849886 42.5250947,4.36885842 C38.4869724,14.0924311 28.4722774,23.5046589 19.0860529,28.0799661 C29.4682325,36.5038306 39.6412027,50.7513072 48.1884845,50.7513072 C52.1735678,50.7513072 55.4245236,48.9317157 58.046588,46.3314635 C58.046588,46.3314635 58.2036004,46.2796423 58.3084156,46.2796423 C58.3614546,46.2796423 58.4662698,46.3314635 58.4662698,46.4355237 C58.4662698,46.4881807 58.4662698,46.5400019 58.4140727,46.5914051 C57.8895756,47.7878889 55.3201293,51.3760866 55.2679321,51.4279078 C54.2715561,55.0679266 49.0800453,57.72 45.7242743,57.72 C36.6002983,57.72 26.0076463,39.1563219 15.6254666,29.5886306 L14.7869448,29.9003934 C14.89176,36.5046664 15.1013905,42.7445196 15.2066267,47.3720659 C15.2066267,48.6717741 15.1013905,48.8280734 14.3150658,48.8280734 L13.3186898,49.0875971 C12.8990079,49.0875971 12.0596442,47.7878889 11.9556709,47.6838287 C11.9556709,47.6838287 11.7456195,47.9955915 11.535989,47.9955915 C10.2247463,47.9955915 8.96654269,44.511872 8.96654269,43.4198663 C9.38622454,39.6239661 9.8050645,35.4122428 10.1725492,30.8879209 C9.59585499,30.9405779 9.123976,30.9923991 8.59947893,30.9923991 C3.72283478,30.9923991 0,27.8718456 0,25.3242504 C0,23.5560621 1.78312168,22.1004725 6.13526875,22.1004725 C7.65614189,22.1004725 9.22879123,22.4122353 10.7492434,22.9839398" id="Shape"></path>
                <path d="M52.3014346,44.0075436 C54.0014242,44.0075436 54.6390269,42.8537475 54.6390269,41.2278097 C54.6390269,40.5461552 54.5328309,39.7591119 54.3737501,38.9724902 C52.4076307,40.2835264 51.0266557,41.3854713 51.0266557,42.5911187 C51.0266557,43.4831292 51.6109471,44.0075436 52.3014346,44.0075436 L52.3014346,44.0075436 Z M51.876224,30.6328668 C51.2919325,31.733547 50.5477073,34.3564625 49.4324356,37.1361965 C46.6696327,43.9552708 43.6944377,47.2071464 41.4630414,47.2071464 C39.2316451,47.2071464 37.7440476,44.0598165 37.7440476,38.0804798 C37.7440476,33.517568 38.5411576,28.4816714 39.0725643,26.226352 C39.0725643,26.226352 39.2849564,25.5446975 39.710167,25.5446975 C40.6130466,25.5446975 41.5163527,25.4924246 42.9510654,25.177523 C43.5886681,25.177523 43.5886681,25.5973918 43.5886681,25.5973918 C42.2076931,33.2026664 41.4634679,36.2454507 41.4634679,41.4900169 C41.4634679,43.8507252 41.8353673,44.8999757 42.5258548,44.8999757 C43.6944377,44.8999757 45.7134419,41.7003729 48.0510342,36.3504179 C50.3886265,31.0527356 51.5043246,25.1256717 51.6638319,22.9226251 C51.7700279,21.7688289 54.054309,20.7722728 54.851419,20.7722728 C55.0104998,20.7722728 55.2757767,20.8245457 55.2757767,21.0349016 C55.2757767,21.0867529 54.4790931,24.4962901 54.4790931,28.5356305 C54.4790931,30.6855612 55.7009873,33.0985423 56.7633742,35.5642177 C59.8451917,33.5184111 62.766649,31.4203316 63.3513669,29.3222522 C63.3513669,29.3222522 62.9261563,27.6963144 62.9261563,25.755475 C62.9261563,24.8634645 63.0327788,23.8673299 63.2980557,22.9230467 C63.5633325,21.9264905 65.8476136,20.72 67.4422601,20.72 L67.8674707,20.7722728 C68.0265515,20.7722728 68.2918284,20.8245457 68.2918284,21.0349016 C68.2918284,21.0867529 66.8579686,24.4962901 65.9542361,27.0142383 C65.9013513,27.5382313 65.9013513,28.1157617 65.9013513,28.6397546 C65.9013513,33.5706839 69.5674603,37.7141484 69.5674603,42.2252089 C69.5674603,45.9492262 66.6451501,48.1 63.9885432,48.1 C61.8633429,48.1 59.9509613,46.6835751 59.9509613,43.5362451 C59.9509613,41.01914 60.9604634,38.4484973 62.9257298,38.4484973 C63.5633325,38.4484973 63.5633325,38.710283 63.5633325,38.7633989 C62.9257298,39.6545663 62.1823575,41.6481001 62.1823575,43.2217651 C62.1823575,44.79543 62.9257298,45.4248117 63.7761511,45.4248117 C64.944734,45.4248117 66.2732507,44.2187427 66.2732507,42.6973506 C66.2732507,38.7638205 64.3604425,35.3015889 63.669955,31.6298445 C61.8100317,33.8333127 59.4728659,35.5642177 57.3476656,36.9797995 C57.8790723,38.3962245 58.3042829,39.8122279 58.3042829,41.1759584 C58.3042829,45.0572157 55.647676,46.9980551 53.2034612,46.9980551 C51.1848835,46.9980551 49.2729283,45.633903 49.2729283,42.9064419 C49.2729283,41.0709912 51.3972756,39.2869703 53.9476865,37.4515196 C53.1510029,34.5668185 51.875371,31.5767286 51.875371,30.6851396 L51.875371,30.6332884 L51.876224,30.6328668 Z" id="Shape"></path>
                <path d="M81.4124163,28.2865579 C81.6257587,28.2865579 81.8395294,28.3887399 81.8395294,28.5926935 C81.8395294,28.6435793 81.8395294,28.6952858 81.7324298,28.8483536 C79.2245858,32.2691926 78.1574455,35.9452814 78.1574455,39.315645 C78.1574455,45.7490055 82.0528718,51.059185 87.1225381,51.059185 C102.8122,51.059185 113.005082,3.16497661 112.631519,3.98202201 C113.005082,3.21586241 114.125772,2.85802032 115.246463,2.85802032 C116.740288,2.85802032 118.234541,3.47111215 118.234541,4.64558927 C118.234541,11.3341995 117.860978,20.2699924 117.860978,27.8269443 C117.860978,36.2009415 118.288091,42.8386659 119.995687,42.8386659 C123.410879,42.8386659 130.829025,9.85358687 135.685349,1.68395357 C135.73847,1.5817716 135.952669,1.48 136.058912,1.48 C136.218276,1.48 136.325376,1.58218197 136.539147,1.83743172 C136.85916,2.2461596 138.406535,3.7772477 139.367433,4.38992916 C139.954338,4.79865704 140.167681,5.25827073 140.167681,5.76877022 C140.167681,6.07531613 140.06101,6.43233748 139.954338,6.84106537 C138.833648,10.4662683 137.392516,19.7594929 137.392516,28.5418077 C137.392516,36.4048951 138.51235,43.8592546 141.98152,46.5656405 C142.301961,46.8204799 142.675096,47.178322 142.782196,47.3313897 C142.835317,47.3822755 142.835317,47.4335717 142.835317,47.4848679 C142.835317,47.6379357 142.674668,47.6888215 142.461754,47.6888215 C142.301961,47.6888215 142.141312,47.6379357 142.034641,47.5866395 C142.034641,47.5866395 141.874848,47.8414789 141.500857,47.8414789 C139.579918,47.8414789 134.030017,45.0333213 132.588885,38.3951865 C131.574866,33.79946 131.254853,29.8681215 131.254853,26.1920327 C131.254853,22.9238511 131.521317,19.91174 131.788637,16.8479223 C131.788637,16.8479223 131.735516,16.6439687 131.627988,16.6439687 C131.574866,16.6439687 131.521317,16.6948545 131.468195,16.7970365 C130.240405,19.6051941 125.704952,36.5575525 121.809526,43.9610262 C120.635714,46.2073881 119.301253,47.3818652 118.073892,47.3818652 C112.737333,47.3818652 112.203549,31.0938948 112.203549,21.8006702 C112.203549,18.3289453 112.25667,14.4480823 112.41732,10.2101978 C110.762417,13.8362215 104.62561,54.02 86.7476895,54.02 C80.6108829,54.02 75.4880952,48.8120024 75.4880952,41.6633681 C75.4880952,37.6811438 77.0890199,33.0854173 80.9313249,28.438805 C81.0379961,28.336623 81.2517669,28.2857372 81.4115595,28.2857372" id="Path"></path>
                <path d="M149.805246,25.2864829 C147.437044,25.2864829 145.660352,30.3945545 145.553198,35.1309821 C147.706659,33.6940163 150.613226,28.905413 150.613226,26.2979187 C150.613226,25.8189301 150.397621,25.2869106 149.805678,25.2869106 M153.573371,37.5254976 C153.573371,36.6214065 153.411343,35.6634293 153.088151,34.6519935 C153.088151,34.5989626 153.088151,34.3329529 153.734102,34.3329529 C155.725967,34.3329529 156.156746,36.5140618 156.156746,38.3769854 C156.156746,42.1550081 153.196601,45.88 149.213736,45.88 C143.669351,45.88 141.355159,41.0375106 141.355159,35.7160325 C141.355159,29.2770569 144.746082,22.2 149.967274,22.2 C152.389918,22.2 153.734535,23.9564342 153.734535,26.4039805 C153.734535,29.7030146 151.25961,34.1730049 145.607639,37.3655496 C145.930831,41.7820813 147.545495,43.4850569 149.321754,43.4850569 C151.420342,43.4850569 153.573803,40.9844797 153.573803,37.5250699" id="Shape"></path>
                <path d="M47.9235387,17.6806843 L47.9173426,17.670459 L47.905393,17.6581033 C47.9815163,17.633818 47.9602726,17.6581033 47.9235387,17.6806843 M47.705348,18.0159914 C47.6451575,18.1080197 47.6659586,18.0159914 47.6243563,17.9942624 L47.599572,17.9644384 L47.6323227,17.9597518 C47.6810063,17.953787 47.7292472,17.9422835 47.7761604,17.9260933 L47.705348,18.0159914 M47.5814263,17.8042409 L47.5809837,17.7944416 L47.639404,17.760357 L47.7066757,17.7237161 C47.7327878,17.7220119 47.7518186,17.7318112 47.765096,17.7492795 L47.5858521,17.8332128 L47.5818689,17.8038149 M47.5402666,16.6913794 L47.5004346,16.6653899 L47.4955663,16.6624075 L47.5504459,16.6313054 C47.6044404,16.6040377 47.5814263,16.6445131 47.5402666,16.6913794 M47.3951012,16.7454887 L47.2410843,16.8524291 C47.2751627,16.8187705 47.313667,16.7825557 47.3738575,16.7446366 L47.4256391,16.7109781 L47.3946586,16.7450626 M47.1729273,17.5328425 L47.1211458,17.566501 L47.1038852,17.5763003 L47.0791009,17.5319904 L47.1835492,17.4766029 C47.2114316,17.4595606 47.2185128,17.4898107 47.2185128,17.4898107 L47.1729273,17.5328425 M47.0401541,17.023278 L47.0405967,17.0100702 L47.0954763,16.9700209 L47.0848544,16.9802462 L47.0397115,17.023278 M47.2114316,16.3057976 C47.2525913,16.2700088 47.3437622,16.2606356 47.3074709,16.3326392 L47.2517061,16.397826 L47.1897453,16.3611851 L47.1777957,16.3360477 L47.2114316,16.3057976 M46.8578122,17.1153064 L46.9472128,17.090169 L46.9547366,17.0884648 C46.9224285,17.1208451 46.8865797,17.1170106 46.8578122,17.1153064 M46.7869998,17.730533 L46.6621929,17.8059452 L46.6639633,17.7658958 L46.6741425,17.7100823 L46.7887701,17.6423392 C46.8193079,17.6525645 46.8533864,17.6470258 46.862238,17.6823886 L46.7869998,17.730533 M46.5869548,16.7024569 L46.5882825,16.6922315 L46.5975766,16.6849886 L46.6723722,16.6449392 C46.6971566,16.6381223 46.7135319,16.643235 46.7135319,16.6632597 C46.6728148,16.7084217 46.6807812,16.7186471 46.6250164,16.7454887 C46.5573021,16.777869 46.5896102,16.7237598 46.5869548,16.702883 M46.5869548,17.2337503 L46.4692292,17.2810426 L46.4603776,17.2848772 L46.5019799,17.2448278 C46.5634982,17.1907185 46.5847419,17.2039263 46.5904954,17.2320461 L46.5865122,17.2337503 M46.3603551,17.3440991 L46.2952962,17.3798879 L46.2970665,17.3739231 C46.3032626,17.3568808 46.3152122,17.3270568 46.370977,17.3117188 L46.4094812,17.3147012 L46.3599125,17.3440991 M46.3479629,16.8460382 L46.4873748,16.777869 L46.5024225,16.7740345 C46.6263442,16.7467669 46.4940135,16.8038585 46.4010722,16.8779925 L46.3718621,16.9005735 C46.3187528,16.904408 46.2891001,16.8835312 46.3479629,16.8456121 M46.3931058,16.4042169 C46.425414,16.353516 46.4077109,16.3786534 46.528092,16.2606356 L46.5528763,16.2406109 C46.6781257,16.1387832 46.7011398,16.1081071 46.7378737,16.0757267 C46.7750502,16.0441985 46.8560419,16.0361034 46.8241763,16.0995859 L46.8201931,16.1098113 L46.8157673,16.1140719 L46.653784,16.2704349 L46.5980192,16.3134667 C46.5174701,16.3748189 46.5258791,16.3991042 46.4639182,16.4242415 C46.413907,16.4455444 46.382484,16.435319 46.3935484,16.4042169 M45.9399065,17.0731267 L45.9279569,17.0731267 L45.996999,17.0599189 L45.9399065,17.0731267 M45.8929933,15.5141833 L45.7956263,15.6266624 L45.7951837,15.6279406 L45.714192,15.6296448 L45.6920631,15.6356096 L45.7239287,15.5930039 C45.7858896,15.5103488 45.9531838,15.422581 45.8934359,15.5137572 M45.6774581,15.7591662 L45.5982367,15.757462 L45.6305449,15.7161344 L45.6867522,15.7455324 L45.6774581,15.7595923 M45.4389088,16.3641675 L45.4079284,16.368428 C45.4035026,16.3496815 45.4079284,16.3258223 45.4331553,16.2985547 L45.4380237,16.293868 L45.4632506,16.293442 C45.6057605,16.293442 45.6057605,16.2874772 45.6216933,16.30878 C45.636741,16.3296568 45.5380462,16.3560724 45.4389088,16.3645935 M45.6172676,15.2896511 L45.5982367,15.3424822 L45.5274243,15.4332324 L45.511049,15.4519789 L45.5168025,15.4387712 L45.6172676,15.2896511 M45.3565894,15.4873417 L45.3079059,15.50481 C45.2680739,15.5273911 45.2897602,15.5388946 45.314102,15.5469897 L45.2879899,15.5384686 L45.2609927,15.4562395 L45.3185278,15.4536832 C45.405273,15.4213028 45.3583597,15.4238592 45.3711945,15.3884964 L45.3663261,15.3390738 C45.4322702,15.2836863 45.4588248,15.2564187 45.4915756,15.1839889 L45.4986568,15.169503 L45.5137044,15.1567213 L45.5384888,15.16226 C45.5353907,15.1891016 45.4389088,15.3096758 45.4251889,15.3394998 L45.4256315,15.3752886 L45.3844718,15.4404754 L45.3565894,15.4873417 M45.23134,15.3045631 C45.2605501,15.2487496 45.311004,15.2150911 45.3402141,15.1239149 C45.3649984,15.0459464 45.3818163,15.0199569 45.4194354,14.9709603 L45.4446623,15.0080273 C45.4853795,15.0659711 45.4641358,15.0595802 45.4207632,15.1115592 L45.3857995,15.140105 C45.3118891,15.2052918 45.3384438,15.221482 45.3282645,15.2538623 L45.2578947,15.3275702 C45.2300123,15.3433343 45.2127518,15.3390738 45.23134,15.3045631 M45.1578722,14.6901886 L45.1565444,14.7085091 L45.1583147,14.6573822 L45.1578722,14.6901886 M45.0737824,16.3799316 L45.074225,16.3795055 L45.125564,16.3322132 C45.1813288,16.3241181 45.1180402,16.3462731 45.0737824,16.3803577 M45.0277544,15.3936091 L45.00297,15.325866 L45.0379337,15.3458907 L45.074225,15.3710281 C45.0534239,15.4034084 45.0357208,15.4217289 45.028197,15.3936091 M44.9224209,15.1354184 L45.0104939,15.0289041 C45.1162699,14.9053475 45.0680289,14.9194074 45.105648,14.8559249 L45.1366284,14.8759496 L45.1237937,14.89427 L45.0503258,14.990985 C44.9972165,15.0761965 45.0352782,15.080031 44.9755302,15.1077247 L44.9224209,15.1349924 M44.8471828,16.1345226 L44.8268242,16.1498607 L44.7586673,16.20397 L44.657317,16.2295334 L44.6320901,16.233794 L44.7529138,16.1289839 C44.8179727,16.0718922 44.8179727,16.1051247 44.8732948,16.0995859 L44.8471828,16.1340966 M44.4723197,16.0067055 L44.5373786,15.8801665 L44.5723422,15.8456558 L44.6537764,15.7958071 C44.8051379,15.7063351 44.7307849,15.7301943 44.768404,15.690997 C44.8011547,15.6569125 44.814432,15.6581906 44.8476254,15.6586167 L44.7989418,15.7327507 L44.7971715,15.7911205 L44.6767905,15.8703671 C44.6382862,15.9074341 44.6192554,15.9871068 44.4723197,16.0067055 M44.2651934,15.8878355 L44.2581122,15.869515 L44.2820114,15.8426734 L44.297059,15.817536 C44.2975016,15.9095644 44.2966164,15.9819941 44.2647508,15.8874094 M44.2072158,15.1588516 C44.2116415,15.0932387 44.1979216,15.0548936 44.2275743,14.9926892 L44.24572,15.035295 C44.24572,15.0996296 44.2293446,15.1328621 44.2072158,15.1588516 M44.1142745,15.4728557 L44.0925882,15.6407223 C44.0664761,15.5840567 44.0558543,15.5768137 44.0881624,15.4741339 C44.1129468,15.3948873 44.1297647,15.3821056 44.1487955,15.3535597 C44.179776,15.3620809 44.1217983,15.3761408 44.1138319,15.4728557 M43.9080334,15.3492991 C43.916885,15.3083977 43.9173275,15.2743131 43.9106889,15.2355419 C43.9044928,15.2040136 43.9182127,15.1703551 43.9385713,15.1371226 L43.9434396,15.1452177 C43.971322,15.1925101 43.9447673,15.2747391 43.9080334,15.3497252 M43.7473778,15.9317194 C43.6986943,16.0037231 43.6389463,16.1068289 43.6079659,16.0637971 L43.6035401,16.0582584 L43.691613,15.9104165 C43.785882,15.7630007 43.7633106,15.7570359 43.8221734,15.5993947 L43.8270417,15.6590428 C43.8270417,15.7659831 43.7960613,15.8605678 43.7473778,15.9317194 M43.4738649,15.3974436 C43.4477528,15.5107748 43.3875623,15.6249582 43.4504083,15.5759616 L43.4592599,15.5691447 L43.4543915,15.5751095 C43.3915455,15.6543561 43.3884475,15.7485148 43.3282569,15.7267859 C43.3464026,15.6995182 43.3472878,15.6927013 43.2809011,15.6628773 L43.2428395,15.6471132 L43.2543465,15.6130286 C43.2853269,15.5376164 43.3291421,15.5435812 43.2415118,15.5039579 L43.2224809,15.4954368 C43.2459375,15.4587959 43.268509,15.4413275 43.2972765,15.5065143 C43.3415343,15.6070638 43.3561393,15.675659 43.3733998,15.6300709 C43.3906604,15.5849088 43.3955287,15.6270885 43.3733998,15.5107748 C43.3517135,15.400426 43.3556967,15.2807039 43.4101338,15.2824082 C43.3853494,15.3786971 43.3397639,15.4681691 43.3928732,15.4259894 C43.4278369,15.3987218 43.4579321,15.3765668 43.4778481,15.3791232 L43.4738649,15.3974436 M43.0441222,14.4656564 C43.0188953,14.5461813 42.9790633,14.6007166 42.9511809,14.4971847 L42.9303798,14.4072866 C42.9330353,14.3757584 42.9463126,14.3480646 42.9777356,14.3050329 C43.0096012,14.2620011 43.0414667,14.2441067 43.0658085,14.2428285 L43.0848393,14.2752089 C43.0817413,14.357864 43.0689065,14.3847056 43.0441222,14.4656564 M42.9148896,15.6581906 L42.9078083,15.6428526 C42.9286095,15.6113243 42.9418868,15.5687186 42.9684415,15.5917257 L42.9861446,15.6581906 C43.0042902,15.7919726 42.9520661,15.7293422 42.914447,15.6581906 M42.906038,15.3301266 L42.9396739,15.258975 L42.9600325,15.2078481 L42.9405591,15.3003026 C42.9184302,15.3731584 42.931265,15.3880704 42.9480829,15.4136338 L42.9423294,15.4345106 C42.925954,15.4860635 42.925954,15.511627 42.9334778,15.5312256 L42.9157747,15.5001234 L42.9064806,15.3301266 M42.8971865,14.6999879 L42.8958588,14.7097872 C42.8843517,14.8316396 42.8241612,14.8614636 42.7962788,14.8201361 L42.785657,14.8018156 L42.8046878,14.7421676 L42.8139819,14.6982837 L42.8179651,14.6850759 L42.8330128,14.5713186 L42.8507159,14.5431989 C42.8861221,14.4967586 42.9002845,14.588787 42.8967439,14.700414 M42.8330128,15.2453412 C42.8259315,15.3761408 42.7900827,15.385514 42.7183852,15.578944 C42.6577521,15.7446803 42.6812087,15.7336028 42.6767829,15.7919726 C42.6205756,15.9568568 42.6604075,15.9197898 42.6413767,16.0280083 C42.6311974,16.0829697 42.6342955,16.1285578 42.6373935,16.1724417 L42.5736624,16.1140719 L42.5705643,16.0612408 L42.5718921,16.0267301 L42.5811862,15.9398145 L42.6046428,15.8503425 C42.6356232,15.7523493 42.6134943,15.7493669 42.6077408,15.6803456 C42.6037576,15.6437047 42.6095111,15.5912997 42.6214607,15.5286692 L42.6342955,15.4830811 L42.7139594,15.2487496 C42.7387438,15.1520346 42.7312199,15.1213585 42.780346,15.0446682 C42.8277018,14.9692561 42.828587,15.0962211 42.8449623,15.1426614 L42.8330128,15.2453412 M42.6418193,14.6377836 C42.6311974,14.6169068 42.6183627,14.5683362 42.6046428,14.4976107 C42.5785307,14.3702196 42.5838416,14.4162338 42.600217,14.3783147 L42.6373935,14.4690649 C42.6502283,14.529139 42.6537689,14.5674841 42.6418193,14.6377836 M42.6046428,13.9957153 L42.6236736,13.9825075 C42.6471302,14.0123315 42.6692591,14.060476 42.6754552,14.1056381 C42.6843067,14.1614516 42.6723571,14.2010749 42.6617353,14.2232299 L42.6046428,14.1478177 C42.5608276,14.0796486 42.5811862,14.0583457 42.6046428,13.9961414 M42.3329002,14.0873176 L42.2634156,14.1882932 C42.2496957,14.1333318 42.2904128,14.1188459 42.3329002,14.0873176 M42.1877348,15.7434021 L42.177113,15.6969618 L42.1700317,15.6586167 L42.1934883,15.7229513 L42.2010121,15.7442542 L42.1877348,15.742976 M40.205873,16.241889 L40.1355031,16.1809629 L40.0961137,16.1464522 L40.0080408,16.0782831 C39.9553741,16.040364 39.9310324,16.0143745 39.9128867,15.9892371 L39.8996094,15.943649 C39.8615477,15.8158318 39.8079958,15.6850322 39.8571219,15.7395676 C39.8951836,15.809441 39.9332452,15.9044517 40.0053854,15.9611173 C40.023531,16.01054 40.0142369,16.0211914 40.0908028,16.0676316 L40.17445,16.1085331 L40.1961362,16.1294099 L40.2266741,16.1779805 L40.3089935,16.2959983 L40.205873,16.241889 M39.5924606,16.1741459 L39.5420068,16.0510154 C39.5672337,16.0953254 39.5977715,16.1379311 39.6362758,16.1707375 L39.6455699,16.2095087 C39.6646007,16.278956 39.6415867,16.30878 39.5924606,16.1737199 M39.3419618,15.8835749 L39.3331102,15.8626981 L39.2649533,15.7080393 L39.2813286,15.7007964 C39.3326676,15.6794935 39.3326676,15.757462 39.3552391,15.8503425 C39.3680738,15.9031735 39.3614352,15.9018954 39.3419618,15.8831489 M39.1445722,16.0420682 C39.0888074,15.9372581 39.0888074,15.9879589 39.0361407,15.9197898 C38.983474,15.8516206 38.9285944,15.7889902 38.8847792,15.7220992 C38.8555691,15.6769372 38.8785832,15.6790674 38.9086784,15.7020745 C38.9591322,15.8047543 38.9458549,15.7987895 39.0370259,15.884001 C39.1370484,15.9764554 39.1485554,15.9858287 39.1578495,16.0501633 L39.1591773,16.0689098 L39.1441296,16.0420682 M38.8321125,16.0318428 L38.8321125,16.0314168 C38.8144094,15.9636737 38.8715019,15.9913674 38.9015972,16.0054273 L38.9117765,16.0527196 C38.9365608,16.1532691 38.8989417,16.0787091 38.8321125,16.0318428 M38.7732497,15.9794378 C38.7599724,15.958561 38.7595298,15.9368321 38.7763478,15.9172334 L38.7825438,15.9342757 L38.7732497,15.9794378 M38.3505882,16.2069524 L38.409451,16.2286813 C38.4386612,16.241463 38.4479553,16.2627659 38.4554791,16.3138927 L38.3505882,16.2069524 M38.0775179,15.9074341 L38.0257364,15.8592897 L38.0593723,15.8661066 L38.0775179,15.9074341 M48.7577972,18.1233578 C48.7250465,18.1365656 48.6927383,18.0696746 48.7343406,18.0496499 C48.7759429,18.0296252 48.7520437,17.8992517 48.7343406,17.8724101 C48.7170801,17.8455685 48.699377,17.879227 48.6617579,17.9124595 C48.6232537,17.9452659 48.585192,17.9354666 48.58829,17.9124595 C48.5922732,17.8886003 48.6338755,17.8788009 48.6856571,17.841734 C48.7383238,17.805093 48.7135395,17.7918853 48.6856571,17.7518359 L48.6462677,17.715195 C48.6418419,17.715195 48.553769,17.7518359 48.4803011,17.7987022 C48.4077184,17.8455685 48.4143571,17.7786775 48.4493207,17.745019 L48.6228111,17.6713111 C48.6962789,17.6244448 48.5776682,17.6044201 48.522346,17.5477545 C48.4665812,17.4906628 48.4634832,17.4906628 48.3926708,17.4437965 C48.322301,17.3973563 48.3134494,17.4676557 48.2160824,17.5243213 L48.1134044,17.5784306 L48.1134044,17.5609622 C48.1545641,17.5324164 48.2041328,17.4932191 48.2926483,17.447631 C48.4356008,17.3739231 48.3939985,17.3538984 48.3590349,17.313849 L48.279371,17.1902925 C48.2514886,17.1532255 48.2236062,17.1502431 48.2023625,17.1634508 C48.1820039,17.1766586 48.070917,17.2669828 47.9492082,17.35049 L47.8943286,17.3884091 L47.870872,17.402895 L47.8721997,17.3845745 L47.9115891,17.3262047 L47.9952363,17.290842 C48.0244464,17.2725215 48.0191354,17.2584616 48.0009898,17.2444017 C48.0580822,17.1975354 48.1293372,17.1523734 48.2103289,17.1097676 C48.310794,17.0560844 48.1824465,17.0667359 48.1616454,17.0360597 L48.0673764,16.9661863 C48.0222335,16.9321018 48.0014323,17.0130526 47.9496508,17.0560844 L47.847858,17.127236 L47.7907655,17.0888908 L47.9390289,16.9623518 C47.9841718,16.9257109 48.0085136,16.8988693 48.0116116,16.8788446 C48.0155948,16.8588199 47.9664687,16.7919289 47.9177852,16.7412281 C47.8691017,16.6913794 47.7544741,16.6577209 47.7195105,16.6244884 C47.6845469,16.5908299 47.7265917,16.5507805 47.7195105,16.5039142 C47.7124293,16.457474 47.6845469,16.457474 47.6429446,16.4233894 C47.6013423,16.3897309 47.5734599,16.3705583 47.5314151,16.308354 C47.4898128,16.2457236 47.5314151,16.2827905 47.5314151,16.2163256 C47.5314151,16.1494346 47.4756503,16.1426177 47.4685691,16.122593 L47.3504009,16.0288604 C47.3225185,15.9952019 47.2742776,15.9619694 47.2251515,15.8814446 L47.1490281,15.7480887 C47.1211458,15.6811977 47.1003446,15.6811977 47.0237787,15.6343314 C46.9472128,15.5874651 47.0237787,15.5942821 46.8777282,15.5273911 C46.7316776,15.4605001 46.8148822,15.467317 46.8148822,15.3667675 C46.8148822,15.266218 46.2488256,14.7847733 46.2143046,14.7515408 L46.04524,14.5823961 C46.0337329,14.5640757 46.0226685,14.5508679 45.9545116,14.5061319 L45.8429821,14.4170859 C45.7801361,14.3612724 45.8062481,14.3476386 45.7504834,14.2790434 C45.6947186,14.209596 45.6641808,14.2232299 45.6296597,14.209596 C45.5946961,14.1963883 45.4968865,14.1145853 45.4929033,14.1060641 L45.385357,14.0238351 L45.285777,13.9539617 L45.219833,13.911782 C45.180001,13.8951658 45.1450374,13.8580988 45.1291046,13.8448911 C45.114057,13.8316833 45.0215583,13.8133628 44.9985443,13.7797043 C44.9759728,13.7460458 44.9777431,13.7566972 44.933928,13.7528627 C44.8901128,13.7490282 44.8454125,13.7174999 44.8246113,13.6893802 C44.8038102,13.6608343 44.7971715,13.6723379 44.7520286,13.680859 C44.7064431,13.6893802 44.6577596,13.6557216 44.619698,13.6322885 C44.5816363,13.6092814 44.5727848,13.6237674 44.5471153,13.6493308 L44.468779,13.6791548 L44.4161123,13.6889541 L44.3678714,13.7119612 L44.2983867,13.7388028 L44.2749301,13.7434894 L44.2443923,13.7260211 C44.2262466,13.7234647 44.1603026,13.7613838 44.1262241,13.7375246 C44.0722296,13.7008837 44.0943585,13.732838 44.0408066,13.7507324 L43.9213107,13.7860952 L43.8376636,13.7975987 C43.7960613,13.7745916 43.7889801,13.8014332 43.7562293,13.8176234 C43.7225935,13.8346657 43.6385037,13.8457432 43.5898202,13.8321093 C43.5411367,13.8189016 43.5132543,13.7984508 43.4689966,13.8163452 C43.4251814,13.8346657 43.362778,13.8078241 43.3348956,13.785243 L43.228677,13.7451937 L43.1171475,13.7008837 L43.0153547,13.6625386 C42.9569344,13.6472005 42.9476403,13.6382533 42.906038,13.6028905 C42.8644358,13.5671017 42.8617803,13.5628412 42.808671,13.5445207 C42.7555617,13.5270524 42.7090911,13.5134185 42.6559818,13.4801861 C42.6019873,13.4465275 42.4280544,13.4022176 42.3864521,13.3621682 C42.3452924,13.3221188 42.168704,13.3434217 42.1408216,13.3268055 C42.1129392,13.3097632 41.9146645,13.3268055 41.8699642,13.3549252 L41.685852,13.3864535 C41.6402665,13.4167035 41.528737,13.4371543 41.4840367,13.457179 C41.4384512,13.4772037 41.3061205,13.517253 41.2782381,13.5436686 C41.2507983,13.5705102 41.1675938,13.5973518 41.143252,13.5909609 C41.1184677,13.583718 41.0002995,13.6774506 40.9374535,13.6842675 C40.8746075,13.6910844 40.6767754,13.784817 40.6449098,13.815067 C40.6139294,13.8448911 40.5829489,13.8649157 40.5099237,13.8849404 L40.3284669,13.9884723 C40.2625229,14.0055146 40.2594248,14.0016801 40.2213632,14.0323562 L39.9876823,14.1597474 C39.9668811,14.179346 39.8659735,14.2522018 39.80357,14.2722265 C39.740724,14.2922512 39.7548865,14.2990681 39.7154971,14.343378 C39.6761077,14.387688 39.6876147,14.3855577 39.6039676,14.4170859 C39.5203205,14.4481881 39.0834965,14.737907 39.0069306,14.7481324 C38.9303647,14.7579317 38.6935858,14.9522138 38.6763253,14.9952456 C38.6586222,15.0391295 38.4674287,15.1426614 38.4466275,15.1660945 C38.4258264,15.1891016 38.0992042,15.3352393 38.029277,15.3974436 C37.9597923,15.460074 37.9084534,15.4737079 37.9341229,15.4979931 C37.9593498,15.5222784 37.9943134,15.5832046 37.9593498,15.5623278 C37.9243861,15.5427291 37.8965038,15.5295214 37.8549015,15.526965 C37.8132992,15.5244087 37.7323075,15.593856 37.6579545,15.638166 C37.5840441,15.6824759 37.5331477,15.7659831 37.5083633,15.8073107 C37.4844642,15.8494903 37.5450973,15.8793143 37.6079433,15.9295891 L37.6712318,15.9802899 L37.6610526,16.0224696 L37.6699041,16.04079 L37.5402289,15.9283109 L37.4667611,15.8614199 L37.4061279,15.9151032 C37.3870971,15.9389624 37.3623128,15.9487617 37.3822288,15.965804 C37.4012596,15.9824202 37.4897751,16.1162022 37.4760552,16.1162022 L37.3145144,15.9572828 L37.2737973,15.9572828 C37.2565368,15.9726209 37.2587496,16.0088357 37.2777805,16.0280083 C37.2968113,16.0454767 37.3574444,16.107681 37.3822288,16.1605121 C37.4061279,16.2133432 37.3574444,16.1728678 37.3406265,16.1605121 L37.2498981,16.025878 L37.2149345,16.025878 L37.1056178,16.122593 L37.1543014,16.1664769 C37.1733322,16.1877798 37.2220157,16.2597835 37.229097,16.2913117 C37.2361782,16.3228399 37.1905927,16.3036673 37.1715619,16.2798081 C37.1525311,16.2568011 37.0901276,16.1945967 37.0688839,16.1843713 C37.0480828,16.174572 36.9874497,16.2056742 37.0082508,16.2465757 C37.0896851,16.4071993 37.1286319,16.4579001 37.232195,16.5507805 C37.3366433,16.6445131 37.3437245,16.6176715 37.3543464,16.5908299 C37.3645257,16.5639883 37.3193828,16.4975234 37.2676012,16.4233894 C37.2149345,16.3496815 37.2737973,16.3735407 37.3158421,16.4033647 C37.3574444,16.4336148 37.3751475,16.5371467 37.4309123,16.6347138 C37.486677,16.7314288 37.5526211,16.7450626 37.7544364,16.7919289 C37.9558091,16.8387952 37.9974114,16.8051367 38.0151145,16.7650873 C38.032375,16.725038 37.9943134,16.7050133 37.9345654,16.6176715 C37.8757026,16.5307559 37.806218,16.4809072 37.7154896,16.3837661 C37.6247612,16.286199 37.7504532,16.3466991 37.8128566,16.3969739 C37.8757026,16.4468226 38.2058654,16.9014256 38.2824313,16.8984432 C38.3589972,16.8946087 38.3970589,16.9180419 38.4249413,16.8213269 C38.4528236,16.7246119 38.41786,16.7514535 38.3660785,16.5942384 L38.3470476,16.5128615 L38.363423,16.516696 L38.4107788,16.5844391 C38.4417592,16.6381223 38.4315799,16.7118302 38.4594623,16.8119536 C38.4873447,16.9125031 38.5254063,16.9052602 38.5878098,16.8886439 C38.6506558,16.8720277 38.7794458,16.8988693 38.9392163,16.9125031 L39.0569419,16.9137813 L39.1264265,16.8997214 L39.269379,16.8916263 C39.3738273,16.9048341 39.4402139,16.881827 39.5898051,16.8720277 C39.6424718,16.8681932 39.663273,16.8609502 39.6690265,16.8502988 C39.7283319,16.8302741 39.9164273,16.785112 40.0191053,16.7229077 C40.1363883,16.6521822 40.2594248,16.6675202 40.3076658,16.6687984 L40.3284669,16.6692245 C40.4333578,16.6722069 40.8507083,16.6773195 41.1242212,16.5324601 C41.4238461,16.3743928 41.7787932,16.5009318 42.014687,16.3633154 C42.0925807,16.3177272 42.191718,16.3262484 42.2952811,16.3586287 L42.3129842,16.3709844 C42.3541439,16.397826 42.3833541,16.4033647 42.4276118,16.4106077 L42.8126542,16.613837 C42.8932033,16.6355659 43.21717,16.6624075 43.4955512,16.6313054 L43.554414,16.6240624 C43.6451424,16.6142631 43.7615403,16.6129849 43.900067,16.6692245 C44.0704593,16.7390978 44.1647283,16.8098233 44.3851319,16.9210243 L44.451076,16.9525525 C44.6728073,17.0518239 44.988365,17.1395916 45.1746901,17.1983875 C45.2552392,17.2397151 45.3172,17.2823208 45.3720796,17.3449512 C45.3796035,17.3752013 45.4234186,17.4075816 45.4782982,17.4604127 C45.5199005,17.5000361 45.9730998,17.775269 46.0695817,17.8183008 L46.1501308,17.8583502 C46.2868873,17.9350405 46.3931058,18.0291991 46.4904729,18.0556147 C46.5373861,18.0683964 46.7361034,18.1889706 46.7551342,18.199196 L46.8113415,18.22902 C46.8586973,18.2528792 47.0290897,18.3180659 47.0574146,18.3265871 L47.1047704,18.3376646 L47.182664,18.3564111 C47.2733924,18.3802703 47.4154598,18.4403444 47.4504234,18.400295 C47.485387,18.3602456 47.5402666,18.3564111 47.5402666,18.3832527 C47.5402666,18.4100943 47.5092862,18.4433268 47.5269893,18.4842283 C47.5442498,18.5251298 47.6035552,18.4740029 47.6694992,18.4701684 C47.7354433,18.467186 47.7460651,18.4569606 47.8155498,18.4164852 L48.0204632,18.2997455 L48.2222785,18.1962136 C48.3019424,18.1425304 48.3816064,18.1254881 48.5170351,18.0824563 C48.6533489,18.0385724 48.530755,18.1225057 48.4789734,18.1361395 C48.4271919,18.1493473 48.1523512,18.2835553 48.0828666,18.3163617 C48.0133819,18.3500202 47.8359084,18.4769853 47.8637907,18.4838022 L48.2143121,18.4203197 C48.3745251,18.400295 48.5276569,18.3236047 48.6529064,18.2567137 C48.7781558,18.1898227 48.833478,18.1795973 48.8440998,18.1561642 C48.8547217,18.132305 48.7883351,18.1092979 48.7560269,18.1225057" id="Shape"></path>
                <path d="M47.6991789,20.4218876 C47.6991789,20.4218876 47.6612444,20.5138758 47.6269419,20.4060276 L47.5720579,20.2241658 L47.5999035,20.2120065 L47.6693155,20.2051338 L47.7120927,20.3600335 L47.6995824,20.4218876 L47.6991789,20.4218876 Z M47.4497797,20.5085892 L47.3948958,20.456251 L47.39651,20.4440917 C47.400142,20.3943969 47.3767356,20.3827662 47.3722965,20.3769509 L47.3722965,20.3737789 L47.4029669,20.3600335 L47.4832751,20.3235554 L47.5046637,20.4255883 C47.5086993,20.446735 47.4626936,20.5080605 47.4497797,20.5080605 L47.4497797,20.5085892 Z M47.3448545,20.1755284 L47.3484865,20.1549104 C47.3601897,20.0861835 47.369068,19.9661759 47.3743143,19.8953344 L47.386421,19.9381565 L47.4538153,20.2114778 L47.441305,20.27809 C47.441305,20.27809 47.4033705,20.3769509 47.369068,20.2617013 L47.3448545,20.1755284 L47.3448545,20.1755284 Z M47.3020773,20.5292072 C47.3020773,20.5551119 47.2467898,20.4990731 47.2552645,20.4573084 L47.2580894,20.4398623 L47.3049022,20.4625951 L47.3020773,20.5292072 L47.3020773,20.5292072 Z M47.21733,20.2220512 L47.1664817,20.3547468 C47.1475144,20.3357148 47.0914198,20.0867122 47.0873842,20.0052973 L47.0902091,19.9910233 C47.106755,19.8800031 47.1196689,19.6479179 47.1196689,19.6479179 L47.0797166,19.4047306 C47.0958589,19.3698386 47.1087728,19.3603225 47.1156333,19.3856986 C47.1281436,19.431164 47.1184582,19.4856168 47.1737457,19.7309187 L47.189888,19.8054609 C47.172535,19.8509263 47.158814,19.9143665 47.178992,19.9793926 L47.2245941,20.1702417 L47.2169265,20.2215225 L47.21733,20.2220512 Z M46.958649,20.0629221 L46.9388747,20.1247763 L46.9384711,20.1083876 C46.9299964,20.0391321 46.9170825,19.9566599 46.9045722,19.9159525 L46.879148,19.6706506 C46.8626021,19.547471 46.8916583,19.5067635 46.8412135,19.3116851 L46.8141751,19.1985502 C46.834353,19.1456834 46.8500918,19.1277087 46.858163,19.1583714 C46.8702697,19.2080662 46.8605843,19.2662197 46.9162754,19.5321396 L46.9308035,19.6056244 L46.9303999,19.7007846 L46.9642988,19.8472256 C46.97237,19.9460865 46.9695451,20.018514 46.9590526,20.0634508 L46.958649,20.0629221 Z M46.8662341,19.7991169 L46.8621985,19.8155056 L46.8282996,19.8926911 C46.8323352,19.8456396 46.830721,19.7901295 46.813368,19.7055427 L46.8065075,19.6738226 C46.8440384,19.7124153 46.8759195,19.7483648 46.8666377,19.7991169 L46.8662341,19.7991169 Z M46.7600982,19.9386852 L46.6967396,20.0793108 L46.675351,20.1691844 L46.6281346,20.1527957 L46.6458912,20.0962282 C46.6458912,20.0798395 46.6886684,20.013756 46.6797901,19.9392139 C46.6713154,19.8636144 46.6584015,19.7753268 46.6458912,19.7309187 L46.620467,19.4660561 C46.6039211,19.3333605 46.6329773,19.289481 46.5825325,19.0785426 C46.5324912,18.8676041 46.523613,18.7354371 46.5111026,18.6963157 L46.4457262,18.5250273 C46.4461297,18.4822052 46.4521831,18.4700458 46.468729,18.535072 C46.5066635,18.6809843 46.5575119,18.850158 46.589393,18.9416176 L46.6337844,19.2027795 L46.6729296,19.3809406 L46.6713154,19.4993622 C46.6757545,19.5432416 46.7011787,19.6595486 46.7181282,19.687568 C46.7346741,19.7155873 46.7600982,19.7425494 46.7600982,19.7980595 C46.7600982,19.8540983 46.789558,19.8715444 46.7600982,19.9402712 L46.7600982,19.9386852 Z M46.5454051,19.4665848 C46.5833396,19.5088782 46.616835,19.5479996 46.6083602,19.6040384 L46.589393,19.577605 C46.5304735,19.4930182 46.5353162,19.5686177 46.5454051,19.4665848 L46.5454051,19.4665848 Z M46.5357197,20.125305 L46.5328948,20.1247763 C46.4828535,20.0925275 46.4594472,20.0660942 46.4941532,20.0438901 L46.5554941,19.9767493 L46.610378,20.0460048 C46.610378,20.0460048 46.5571083,20.0692662 46.5361233,20.125305 L46.5357197,20.125305 Z M46.2362793,19.8694297 L46.2818814,19.8202636 L46.3299049,19.9926093 C46.2443505,19.9413285 46.1902736,19.9022071 46.2362793,19.8694297 Z M46.0942267,20.142751 L46.0926125,20.1290056 L46.068399,20.153853 L46.0643634,20.155439 L46.0591171,20.134821 C46.0377285,20.0840689 45.9868801,20.1755284 45.9917228,20.007412 C45.9957584,19.838767 46.0123043,19.8852897 46.0163399,19.7975309 L46.0123043,19.6849246 C45.9743698,19.5929364 46.0082687,19.6183125 45.9319962,19.5157509 L45.858145,19.43275 L45.8129464,19.2989971 C45.7875222,19.2054228 45.6906682,18.9611783 45.7112497,18.9395029 L45.7713799,18.9093688 L45.8387742,19.106562 L45.927557,19.291067 L45.930382,19.2958251 L45.9396638,19.3275451 C46.0042332,19.5448276 46.0603278,19.7784988 46.085752,19.8699584 L46.079295,19.9053791 C46.0538709,20.0232721 46.1006836,20.1083876 46.1006836,20.1083876 L46.1212651,20.1327063 L46.0934196,20.1432797 L46.0942267,20.142751 Z M45.7798546,19.3111564 L45.7088283,19.1266513 L45.7499913,19.2159962 L45.7955934,19.3465772 L45.7798546,19.3111564 Z M45.4945388,19.0050577 C45.4622541,18.9199422 45.4392513,18.8575594 45.4327943,18.7782592 L45.4985744,18.9284009 L45.4945388,19.0045291 L45.4945388,19.0050577 Z M44.1220363,19.9407999 L44.1155794,20.0586928 C44.1006477,19.9746346 44.0941908,19.8911051 44.1111402,19.8345376 C44.126879,19.7837855 44.1341431,19.6669499 44.1401964,19.5316109 C44.1486712,19.6949693 44.1321253,19.8017602 44.1224399,19.9407999 L44.1220363,19.9407999 Z M43.8512485,19.5723184 C43.8395454,19.6415738 43.8181568,19.7499508 43.80605,19.856213 C43.8048393,19.5511716 43.8056464,19.2551176 43.8125069,19.2270982 L43.8193674,19.1631294 L43.8605304,19.0991606 L43.8641624,19.122422 C43.8799012,19.2471876 43.8847439,19.3439338 43.8839368,19.4290494 L43.8516521,19.5723184 L43.8512485,19.5723184 Z M43.1066831,20.5276212 L43.0344461,20.7041963 L43.0667308,20.5355512 C43.0695557,20.4900858 43.0590632,20.4858564 43.0429209,20.5059458 L43.0227429,20.3785369 L43.0792411,20.3568615 L43.0982084,20.3515748 L43.1341251,20.4763404 L43.1062796,20.5276212 L43.1066831,20.5276212 Z M42.9904583,19.8503977 C42.9545416,19.8815891 42.9436455,19.8694297 42.9327494,19.845111 C42.9283103,19.7340907 42.9242747,19.5950511 42.9291174,19.5257956 L42.9521202,19.3460485 L43.0070042,19.1906201 C43.0364639,19.1134346 43.0578525,19.2165249 43.0578525,19.2165249 C43.0578525,19.2165249 43.0158824,19.431164 42.9775444,19.5411269 C42.9396099,19.6521472 42.9521202,19.6257138 42.9690697,19.692326 L43.0110397,19.72246 C43.0348497,19.7377914 43.0328319,19.6976126 43.0501849,19.585535 C43.0425173,19.6701219 43.0396924,19.7425494 43.04736,19.7753268 L43.0526063,19.8128622 L43.0489742,19.7991169 L42.9900547,19.8503977 L42.9904583,19.8503977 Z M42.9609985,21.2217621 C42.9609985,21.2217621 42.9492953,21.1144426 42.961402,21.0171677 L42.9868262,21.0917098 L42.9609985,21.2217621 L42.9609985,21.2217621 Z M42.9355743,20.9130201 L42.9355743,21.0097663 L42.9355743,20.8125732 L42.9343636,20.7681651 L42.9371885,20.7597064 L42.9573665,20.7211137 C42.9448561,20.7771524 42.9388028,20.8374206 42.936785,20.8897587 L42.9355743,20.9130201 Z M42.8241922,20.6032207 L42.8254028,20.5974054 C42.8887615,20.1829298 42.7915039,20.6539728 42.7636584,20.745961 C42.7398484,20.8231466 42.7370235,20.8310766 42.726531,20.7993565 C42.7555872,20.6703615 42.8015929,20.4906145 42.8080498,20.4012696 C42.8116818,20.3542181 42.8015929,20.3478741 42.7862577,20.3674348 L42.8128925,20.2691026 L42.8439665,20.2009045 C42.9000612,20.1993185 42.8810939,20.3203834 42.888358,20.3843522 C42.8952185,20.4440917 42.8532484,20.5376659 42.8241922,20.602692 L42.8241922,20.6032207 Z M42.6877894,20.6687755 L42.6813324,20.6946803 L42.6760862,20.7163556 L42.6764897,20.7004956 C42.6805253,20.594762 42.64703,20.5101752 42.64703,20.5101752 L42.605867,20.723757 L42.6002172,20.6782916 C42.6002172,20.6322974 42.5598613,20.5762587 42.5598613,20.5762587 C42.5598613,20.5762587 42.5501759,20.6534442 42.5582471,20.7401457 C42.5622827,20.7771524 42.5578435,20.8427073 42.5505795,20.9177781 L42.5033631,20.9880909 C42.5033631,20.9547849 42.5033631,20.9156634 42.5663183,20.4678817 L42.5760037,20.3996836 L42.5796357,20.427703 L42.6090955,20.6021634 L42.6385552,20.5196912 L42.7019139,20.3610908 C42.7527623,20.2442552 42.7358128,20.4028556 42.761237,20.4070849 L42.7616406,20.4070849 C42.7426733,20.4472637 42.7212847,20.5054172 42.705546,20.5672713 L42.6869823,20.6682469 L42.6877894,20.6687755 Z M42.4609895,20.6608455 C42.4444436,20.6005774 42.4908528,20.5339652 42.5037667,20.3896389 C42.5130486,20.2802046 42.4739034,20.3864669 42.4448472,20.4869138 C42.4609895,20.3261987 42.419423,20.4271743 42.3939988,20.4176583 L42.3722066,20.4102569 L42.3806814,20.3843522 L42.4125625,20.2944787 L42.4698678,20.2685739 L42.4872208,20.2104205 L42.5037667,20.2627586 C42.5283838,20.2680453 42.5203126,20.2183505 42.553808,20.1131456 L42.5590542,20.0988716 L42.5586507,20.2083058 L42.5691432,20.3462881 L42.5049774,20.6270108 C42.4767283,20.726929 42.4783425,20.7216423 42.4609895,20.6603168 L42.4609895,20.6608455 Z M42.3350793,19.5945224 L42.3362899,19.5733757 C42.347186,19.4961902 42.3052159,19.4660561 42.3052159,19.4660561 L42.261228,19.5913504 L42.2559818,19.5210376 L42.2519462,19.4253487 L42.2963376,19.3582079 C42.3342721,19.3021691 42.3088479,19.3793546 42.3431504,19.404202 L42.3701888,19.3936286 L42.3826992,19.3687812 L42.44404,19.2789077 L42.4605859,19.2889524 L42.4831852,19.3280738 L42.4819745,19.3582079 C42.4876244,19.3936286 42.4763247,19.4427947 42.4561468,19.4988335 L42.44404,19.4549541 C42.4315297,19.3830553 42.4145803,19.4549541 42.4145803,19.4549541 L42.3552572,19.5379549 L42.3350793,19.5945224 L42.3350793,19.5945224 Z M42.3112693,19.7938302 L42.3088479,19.8207923 L42.3048124,19.862557 L42.2793882,19.8551557 L42.3112693,19.7938302 L42.3112693,19.7938302 Z M42.3003732,20.4224163 C42.2963376,20.4588944 42.250332,20.6428708 42.2454893,20.7507191 C42.2414537,20.8580386 42.2329789,20.714241 42.2249078,20.6888649 L42.178095,20.5942334 L42.1752701,20.5699146 L42.1756736,20.5270925 L42.1906053,20.4636524 C42.2119939,20.4218876 42.19908,20.3203834 42.19908,20.3203834 L42.1885875,20.3135107 C42.195448,20.1919171 42.1579171,20.2839053 42.1349142,20.2743893 L42.1240182,20.2696313 L42.0465349,20.2083058 C42.0045648,20.1691844 41.9662268,20.2331532 41.9512951,20.2685739 L41.9391884,20.2997654 C41.9496809,20.2484846 41.940399,20.1691844 41.940399,20.1691844 L41.9149748,20.1501523 L41.9722802,20.0232721 L41.9912474,19.9582459 L41.9912474,19.9640613 L42.016268,20.0190427 C42.016268,20.0808969 42.0388673,20.1406363 42.0763983,20.163369 L42.0808374,20.166541 C42.1179648,20.1855731 42.1300715,20.1670697 42.1478281,20.1422223 L42.2111868,20.1126169 L42.2164331,20.0914702 C42.2523498,20.0861835 42.2499284,20.1305916 42.2499284,20.1305916 L42.3128835,20.2680453 L42.3213583,20.287606 L42.3387113,20.4023269 L42.2999697,20.421359 L42.3003732,20.4224163 Z M41.8532304,19.2678057 C41.8427379,19.292653 41.8346667,19.3545072 41.8395094,19.3999726 C41.8479841,19.4776868 41.8140852,19.6542619 41.7761507,19.7457214 C41.7382162,19.8377096 41.7636404,19.9693479 41.8229635,20.002654 L41.8391059,20.0100554 L41.8419308,20.0941135 L41.788661,20.0481194 C41.746691,20.0052973 41.7083529,20.0750815 41.6938248,20.1136743 C41.6788931,20.152267 41.6280448,20.282848 41.6445907,20.418187 C41.657101,20.5170478 41.6381337,20.438805 41.6280448,20.3764222 C41.633291,20.2516566 41.6546796,20.0946422 41.6498369,20.01217 C41.6623472,19.9571886 41.6958426,19.8784171 41.7144063,19.8477543 C41.7374091,19.8091616 41.7462874,19.6431598 41.7628333,19.5828917 C41.7801863,19.5215662 41.750323,19.4385654 41.7462874,19.3719532 C41.7422518,19.3053411 41.7801863,19.2339709 41.7971358,19.1900915 L41.86453,18.9024962 C41.8859186,18.8528014 41.9278887,18.6804556 41.936767,18.6492642 C41.9448382,18.6180728 42.0719591,18.4150644 42.0780125,18.3986757 C42.0780125,18.3986757 42.1224039,18.409249 42.1224039,18.4425551 C42.1224039,18.4758612 42.0969797,18.5371866 42.0461314,18.675169 L41.9589627,18.9146555 C41.9218353,18.9590636 41.8584767,19.0415358 41.8544411,19.0817146 L41.8528268,19.2683343 L41.8532304,19.2678057 Z M42.1333,19.1229507 L42.1865697,19.0415358 C42.2882665,18.9046108 42.2160295,19.0684979 42.2245042,19.1292947 L42.2257149,19.14304 L42.1655847,19.278379 C42.1050509,19.412132 42.1252288,19.413718 42.1454068,19.413718 L42.1292644,19.4845595 C42.1127185,19.4480814 42.0905228,19.547471 42.0981904,19.6098538 L42.098594,19.6569052 C42.0679235,19.6785806 42.0247428,19.6785806 42.0211107,19.6669499 L42.078416,19.5559296 C42.1102972,19.4946042 42.0679235,19.4454381 42.078416,19.3624372 L42.0796267,19.3233158 L42.1236146,19.1493841 L42.1333,19.1234793 L42.1333,19.1229507 Z M42.3221654,18.7692718 L42.3342721,18.689443 L42.3366935,18.6836277 C42.3366935,18.6836277 42.381892,18.6936723 42.381892,18.7243351 C42.381892,18.7539405 42.3580821,18.8073359 42.3116729,18.9247002 L42.3225689,18.7698005 L42.3221654,18.7692718 Z M42.5380692,19.4761008 L42.5586507,19.2773217 L42.5800393,19.0256758 C42.5800393,18.9585349 42.6123239,18.8982668 42.6272556,18.8728908 L42.6300805,19.0404785 C42.6300805,19.0981033 42.6046563,19.1943208 42.5792321,19.2995257 C42.553808,19.4047306 42.5586507,19.4491387 42.5965852,19.4882602 L42.6034457,19.4935468 L42.6151489,19.558573 L42.5497724,19.553815 L42.5457368,19.6035098 C42.5421048,19.6410452 42.5219268,19.6569052 42.5106272,19.6421025 C42.5102236,19.547471 42.5308051,19.5421843 42.5376656,19.4750435 L42.5380692,19.4761008 Z M42.6438015,19.287895 L42.6131311,19.3904566 L42.6135346,19.3661379 L42.6510656,19.267277 L42.6433979,19.287895 L42.6438015,19.287895 Z M42.7721331,19.5966371 L42.7321808,19.6595486 L42.7071602,19.6775233 L42.702721,19.6600772 C42.6930356,19.6066818 42.6797182,19.6394592 42.6748755,19.6542619 L42.6478371,19.5929364 L42.6409766,19.5844777 L42.6567154,19.5400696 C42.6865787,19.5025342 42.6998961,19.4893175 42.7144242,19.5009482 L42.7317773,19.5242096 L42.7721331,19.5966371 L42.7721331,19.5966371 Z M42.6688221,19.2112382 C42.6902107,19.1166066 42.7196705,19.0283191 42.7491303,18.9453183 L42.7822221,18.9220569 L42.7624477,19.0203891 C42.7426733,19.1292947 42.6950534,19.1594287 42.6546976,19.2598756 L42.6692257,19.2117669 L42.6688221,19.2112382 Z M42.8254028,19.294239 L42.8443701,19.4946042 L42.8387203,19.5162796 C42.8213672,19.5818344 42.8181388,19.6220131 42.8290349,19.6521472 C42.8169281,19.6648352 42.8011893,19.6500325 42.7919075,19.6040384 L42.7842399,19.5717897 L42.7757651,19.4977762 L42.7959431,19.3497492 C42.8173317,19.2117669 42.8254028,19.2947677 42.8254028,19.2947677 L42.8254028,19.294239 Z M41.5937423,19.1758174 L41.5630718,19.1848048 L41.5513686,19.1906201 L41.5550007,19.144626 L41.5953565,19.0817146 L41.5937423,19.1752888 L41.5937423,19.1758174 Z M40.1901658,17.9736267 L40.174427,17.9138872 L40.1740235,17.9107152 C40.1861302,17.9234032 40.1954121,17.9138872 40.1954121,17.8626064 L40.1966227,17.8393451 L40.2131686,17.8536191 L40.1901658,17.9736267 L40.1901658,17.9736267 Z M40.0803979,18.4488991 L40.0473061,18.4066057 L40.0267246,18.3664269 L40.0618342,18.3648409 L40.0646591,18.3600829 L40.0945224,18.3865163 L40.0799943,18.4483704 L40.0803979,18.4488991 Z M39.9318884,18.9611783 L39.9193781,18.9749237 L39.9100962,18.9595923 L39.9492414,18.8998528 L39.9318884,18.9611783 L39.9318884,18.9611783 Z M39.7498835,18.1063223 L39.719213,18.1401571 L39.7272842,18.0872903 L39.7325305,18.0534555 L39.7781326,18.0005888 L39.8209098,17.949308 C39.8083995,17.9990027 39.7886251,18.0603282 39.7498835,18.1063223 L39.7498835,18.1063223 Z M47.9857054,19.8916338 C47.9029759,19.7155873 47.9731951,19.6003378 47.9029759,19.553815 L47.8331603,19.5083495 C47.7952258,19.5310823 47.7633447,19.5152222 47.7124963,19.6458032 L47.7088643,19.6558479 C47.6564017,19.4935468 47.7084607,19.3856986 47.6442949,19.3402332 L47.5748829,19.2905384 C47.5369484,19.3153858 47.5050672,19.2989971 47.4542189,19.4401514 C47.4033705,19.5813057 47.4162844,19.5723184 47.4287947,19.6722366 C47.441305,19.7726835 47.4287947,19.8250216 47.4033705,19.7087147 L47.3270979,19.3656092 C47.3270979,19.3656092 47.2923919,19.3449912 47.2762496,19.3714246 L47.2007841,19.2038368 C47.1628496,19.1277087 47.0776988,19.0045291 47.0357287,18.9638216 C46.9937586,18.9231142 46.9299964,18.8559734 46.9005366,18.8718334 L46.8960975,18.8750054 C46.8561452,18.8046926 46.8065075,18.7322651 46.7770477,18.702131 C46.7350776,18.6577229 46.6713154,18.5858241 46.6418556,18.6022128 L46.6216777,18.6249455 C46.5680044,18.5123393 46.4646934,18.2828974 46.4098095,18.24219 L46.2980238,18.1861512 C46.2471754,18.0719589 46.1882558,17.9503653 46.151532,17.9218172 C46.0881733,17.8721225 45.9949513,17.8441031 45.8936581,17.8055103 C45.7919614,17.7669176 45.7968041,17.7172228 45.7035821,17.7505288 C45.6099565,17.7838349 45.5131025,17.8610204 45.5131025,17.8610204 L45.4670968,17.9212886 C45.4214947,17.981028 45.1293183,18.1861512 45.0744344,18.2099412 L45.0526422,18.2099412 L45.0179362,18.2273873 L44.9348031,18.2649227 L44.926732,18.272324 C44.8908153,18.3130315 44.7277776,18.3035154 44.6983178,18.3199042 L44.5078382,18.3077448 L44.4351977,18.3146175 C44.3363259,18.3183181 44.181763,18.3109168 44.1603744,18.2702094 C44.1559352,18.2369033 44.1050868,18.2316166 44.092173,18.2432473 L44.05101,18.2770821 L43.9775624,18.3331208 L43.957788,18.3473949 C43.8972542,18.3891596 43.9133966,18.3373502 43.9319602,18.2950568 L43.9497168,18.2527633 L43.9497168,18.2522347 C43.9565773,18.2332026 43.892008,18.2183999 43.8540735,18.2104699 L43.8383347,18.2035972 L43.8262279,18.2051832 L43.7721511,18.2189286 C43.7305846,18.2316166 43.6845789,18.2559353 43.6821575,18.2982288 C43.6482586,18.3505669 43.6220273,18.3357642 43.5990245,18.3056301 L43.5844964,18.2702094 L43.5493868,18.2279159 C43.5134701,18.1856225 43.3237976,18.1660618 43.2083799,18.2369033 C43.1228254,18.2897701 43.0852945,18.254878 43.0594668,18.2067692 L43.0477636,18.1766352 L43.0352533,18.1549598 C43.0057935,18.089405 42.847195,18.0793603 42.8310527,18.0899336 L42.8270171,18.0904623 C42.8096641,18.095749 42.7717296,18.0804176 42.7386378,18.0338948 L42.7305666,18.0217355 L42.6647865,17.9498366 L42.660751,17.946136 L42.5909353,17.9038425 L42.5873033,17.9033139 C42.5602649,17.8974985 42.4549361,17.8589058 42.3859276,17.7870069 L42.3754351,17.7759049 L42.2160295,17.5940432 L42.1716381,17.5411764 C42.1224039,17.4809082 42.0840659,17.4269841 42.0776089,17.4005507 L42.0772054,17.4005507 L42.0715555,17.3492699 C42.0590452,17.2842438 41.9908438,17.2525237 41.9525058,17.2350777 C41.9149748,17.218689 41.8721976,17.1922556 41.8387023,17.1563062 L41.7664653,17.0870507 C41.7450767,17.0373559 41.6990711,17.0643179 41.6227985,17.0870507 L41.5424904,17.1140127 C41.4831673,17.1356881 41.4686391,17.1578922 41.3931737,17.1563062 L41.2926876,17.0590313 C41.1788841,16.9707437 41.1998692,17.0537446 41.1066472,17.097624 C41.0138287,17.1420321 40.9968793,17.2525237 40.9670159,17.2350777 C40.9375562,17.218689 40.9298885,17.1341021 40.8891291,17.1711089 C40.8475626,17.2086443 40.7559548,17.3080338 40.6829107,17.4386148 L40.6748396,17.4137674 C40.6974388,17.3217792 40.6429584,17.4142961 40.5860567,17.4407295 L40.5376297,17.4618762 C40.5243122,17.3979074 40.5392439,17.368302 40.5590183,17.2789571 C40.5816176,17.1790389 40.5271372,17.2789571 40.470639,17.3075052 L40.3943664,17.3423972 C40.4040518,17.3016898 40.3979984,17.2810718 40.384681,17.2789571 C40.3628888,17.2752564 40.264017,17.3244225 40.2103437,17.3550853 C40.1566705,17.3862767 40.0993651,17.4201114 40.0577986,17.4735069 L39.933099,17.6601266 L39.9060606,17.6067312 C39.8854791,17.543291 39.8737759,17.5929858 39.8011354,17.5755398 C39.7325305,17.5591511 39.739391,17.5723678 39.7103347,17.6040878 L39.7026671,17.5834698 C39.6820857,17.514743 39.670786,17.5691958 39.5977419,17.5501637 C39.5251014,17.5311317 39.5376117,17.5480491 39.5012914,17.5876991 L39.4314758,17.7325541 C39.3951556,17.8007523 39.4169477,17.7859496 39.4016125,17.9048999 C39.3854702,18.0227928 39.3681171,17.9857861 39.3334111,18.0460542 C39.2946695,18.1010357 39.2034653,18.095749 39.2284859,18.1813932 L39.2409962,18.2131132 L39.2587528,18.2464193 C39.3209008,18.3484522 39.3543961,18.4256377 39.3769954,18.4933072 L39.3874879,18.527142 L39.4052445,18.5926968 C39.4290545,18.6857423 39.5872494,18.9960704 39.6857177,19.0996893 C39.7272842,19.1435687 39.7918536,19.2281556 39.85723,19.3180291 L39.8705475,19.3370611 L40.0703089,19.6230705 L40.0799943,19.6447459 C40.1082434,19.6833386 40.1514242,19.7790275 40.1950085,19.6447459 C40.2381893,19.5104642 40.2954946,19.3756539 40.30518,19.268863 L40.3322184,19.116078 L40.3766098,19.0547525 L40.4165621,19.0124591 C40.3975949,19.1589001 40.3289899,19.3275451 40.2862127,19.4887888 C40.2353644,19.6785806 40.225679,19.7340907 40.1909729,19.8170916 C40.1909729,19.8170916 40.184516,19.8382383 40.2446462,19.9249398 C40.30518,20.0116414 40.3019515,19.9783353 40.3410967,20.0116414 L40.4508646,20.0983429 C40.4988881,20.149095 40.4887991,20.1776431 40.5178553,20.2521852 C40.5461044,20.3261987 40.5904958,20.3309568 40.5904958,20.3309568 L40.6829107,20.4139576 L40.7301271,20.4805698 C40.7357769,20.5492966 40.7652367,20.7665791 41.0493419,20.8961027 L41.053781,20.8992747 C41.312462,21.0176963 41.2967232,21.037257 41.4036662,21.0758498 L41.4303011,21.0843085 L41.4581466,21.0980538 C41.4516897,21.1329459 41.4621822,21.16308 41.4872028,21.16308 C41.5259445,21.16308 41.5408761,21.3380691 41.6082704,21.3338397 C41.6542761,21.4131399 41.7184419,21.4940261 41.8294204,21.5490075 L42.4880279,21.8720236 C42.564704,21.9106164 43.0142682,22.0380253 43.1563208,22.0602294 L43.1575315,22.0602294 C43.2983734,22.0813761 43.3439755,22.1199689 43.3883669,22.1363576 C43.4323548,22.1538036 43.9561738,22.2299318 44.354486,22.1871097 C44.4900817,22.1728356 44.6567513,22.1506316 44.8278601,22.1183829 L44.8343171,22.1178542 C45.0074437,22.0856054 46.1180367,21.6187917 46.1180367,21.6187917 L46.4953639,21.4252993 C46.5809183,21.3898785 46.8105431,21.2555969 46.9905301,21.1139139 L47.0078832,21.1038692 C47.0522746,21.0737351 47.351715,20.9606002 47.4142666,20.8506373 L47.6547874,20.574144 C47.6612444,20.4980158 47.7819084,20.3822375 47.8577774,20.3589762 C47.9340499,20.3362434 47.9784414,20.3901676 48.0418,20.282848 L48.1051587,20.1749997 L47.9844947,19.8911051 L47.9857054,19.8916338 Z" id="Shape"></path>
            </g>
        </g>
    </g>
</svg>