<?xml version="1.0" encoding="UTF-8"?>
<svg width="237px" height="41px" viewBox="0 0 237 41" version="1.1" xmlns="http://www.w3.org/2000/svg" xmlns:xlink="http://www.w3.org/1999/xlink">
    <!-- Generator: Sketch 53 (72520) - https://sketchapp.com -->
    <title>MorpheMe</title>
    <desc>Created with Sketch.</desc>
    <g id="Page-1" stroke="none" stroke-width="1" fill="none" fill-rule="evenodd">
        <g id="Testimonials" transform="translate(-745.000000, -935.000000)" fill="#000000">
            <g id="MorpheMe" transform="translate(745.000000, 935.000000)">
                <path d="M27.8685087,24.8079463 L27.8685087,9.80395185 C27.8685087,7.98423519 28.3425435,7.38698338 29.7035895,7.38698338 L29.7035895,7 L22.8350808,7 L22.8328605,7.00559225 L22.8328605,8.10838304 L22.8350808,8.1027908 L22.8350808,24.8079463 C22.8350808,26.8356945 22.3321821,27.6118982 21,27.6118982 L21,28 L30,28 L30,27.6118982 C28.6378438,27.6118982 27.8685087,26.8356945 27.8685087,24.8079463" id="Fill-1"></path>
                <path d="M9.37856618,8 L1.33346696,8 L1.33346696,8.38320362 C2.15126612,8.44173328 3.39273067,8.67806058 4.54446449,10.6802167 L4.54446449,21.1073307 C4.54446449,23.0498528 3.90839848,28.3517564 0,28.3517564 L0,28.73496 L9.33086123,28.73496 L9.33086123,28.3517564 C5.48266186,28.3517564 4.93746242,23.0211401 4.93746242,21.1073307 L4.93746242,11.2986432 L14.0865905,29 L14.4795884,29 L17,22.7019878 L9.37856618,8 Z" id="Fill-3"></path>
                <path d="M52.5303524,8 C48.9115444,8 48.0001667,10.3835098 48.0001667,18.6514894 C48.0001667,26.9494213 48.9115444,29 52.5303524,29 C56.1178137,29 57.0001667,26.9494213 57.0001667,18.6514894 C57.0001667,10.3835098 56.1178137,8 52.5303524,8 M52.5007313,30 C45.9934982,30 42.0001667,25.2160762 42.0001667,19.1524061 C42.0001667,13.1178213 45.9934982,8 52.5007313,8 C59.0090938,8 63.0001667,13.1178213 63.0001667,19.1524061 C63.0001667,25.2160762 59.0090938,30 52.5007313,30" id="Fill-6"></path>
                <path d="M81.9741771,8.00021515 L81.0001667,8.00021515 L81.0001667,19 L81.9741771,18.9999958 C85.5547448,18.9999958 87.0001667,19.0319375 87.0001667,13.5154848 C87.0001667,7.87718039 85.3352326,8.00021515 81.9741771,8.00021515 L81.9741771,8.00021515 Z M95.0001667,29 L90.8065725,29 C87.1895008,29 87.219321,28.3143508 85.8884595,22.3189066 C85.2224765,19.2767654 82.1576296,19.3656036 82.1576296,19.3656036 L80.7980524,19.3656036 L80.7980524,25.5102506 C80.7980524,27.9863326 81.3182481,28.6127563 82.5331424,28.6127563 L82.5331424,29 L74.0001667,29 L74.0001667,28.6127563 C75.2437766,28.6127563 75.7937924,28.0455581 75.7937924,25.5102506 L75.7937924,11.0421412 C75.7937924,9.19248292 75.2735968,8.38724374 74.0001667,8.38724374 L74.0001667,8 L81.6948653,8 C87.4501509,8 92.0777937,8.71640091 92.0777937,13.6970387 C92.0777937,17.7551253 88.9831266,18.8872437 85.8597438,19.0968109 C88.4629309,19.0079727 90.4884911,20.0216401 91.8767839,25.3906606 C92.4555154,27.6583144 94.2491411,28.5546697 95.0001667,28.6127563 L95.0001667,29 Z" id="Fill-8"></path>
                <path d="M115.478436,20 C118.750167,20 120.000167,19.9131051 120.000167,14.5155972 C120.000167,8.97215047 118.589728,9.00000139 115.478436,9.00000139 L115.000167,9 L115.000167,20 L115.478436,20 Z M114.811725,24.9134396 C114.811725,28.522779 116.260357,28.6127563 117.710096,28.6127563 L117.710096,29 L108.175021,29 L108.175021,28.6127563 C109.391252,28.6127563 109.7974,27.5683371 109.7974,25.5410023 L109.7974,11.3712984 C109.7974,9.52164009 109.276158,8.38724374 108.000167,8.38724374 L108.000167,8 L115.332967,8 C121.100935,8 126.000167,8.71640091 126.000167,14.0261959 C126.000167,19.3052392 121.100935,20.0216401 115.332967,20.0216401 L114.811725,20.0216401 L114.811725,24.9134396 Z" id="Fill-10"></path>
                <path d="M157.736626,25.5410023 C157.736626,27.001139 157.592837,28.404328 159,28.6127563 L159,29 L152.303351,29 L152.303351,28.6127563 C153.080474,28.4635535 152.993761,27.001139 152.993761,25.5410023 L152.993761,19.1867882 L146.036973,19.1867882 L146.036973,25.5410023 C146.036973,27.001139 145.95026,28.4635535 146.726285,28.6127563 L146.726285,29 L140,29 L140,28.6127563 C141.465338,28.404328 141.29301,27.001139 141.29301,25.5410023 L141.29301,11.5501139 C141.29301,10.2369021 141.379723,8.50797267 140,8.38724374 L140,8 L146.726285,8 L146.726285,8.38724374 C145.892085,8.50797267 146.036973,10.2369021 146.036973,11.5501139 L146.036973,18.738041 L152.993761,18.738041 L152.993761,11.5501139 C152.993761,10.2369021 153.107915,8.50797267 152.303351,8.38724374 L152.303351,8 L159,8 L159,8.38724374 C157.679549,8.50797267 157.736626,10.2369021 157.736626,11.5501139 L157.736626,25.5410023 Z" id="Fill-12"></path>
                <path d="M190,22.8257403 L190,29 L173,29 L173,28.6127563 C174.243847,28.6127563 174.71764,26.9419134 174.71764,24.9134396 L174.71764,12.1173121 C174.71764,10.2676538 174.302647,8.38724374 173,8.38724374 L173,8 L189.614407,8 L189.614407,13.905467 L189.228815,13.905467 C188.874884,8.41799544 180.819276,8.38724374 180.819276,8.38724374 L179.751829,8.38724374 L179.751829,18.2004556 L181.5,18.2004556 C181.5,18.2004556 185.319742,18.261959 185.645404,14.8906606 L186.030996,14.8906606 L186.030996,21.9009112 L185.645404,21.9009112 C185.319742,18.5592255 181.5,18.5899772 181.5,18.5899772 L179.751829,18.5899772 L179.751829,28.6127563 L180.819276,28.6127563 C180.819276,28.6127563 188.992484,28.7915718 189.614407,22.8257403 L190,22.8257403 Z" id="Fill-14"></path>
                <path d="M223.040167,6.04 C223.040167,6 223.079167,6 223.000167,6 L223.000167,6.04 L223.040167,6.04 Z M223.01044,6 C222.97144,6.119 223.05044,6.119 223.13044,6.119 C223.13044,6.119 223.08944,6.039 223.01044,6 L223.01044,6 Z M223.055922,9.12 C222.975922,9.12 222.975922,9 223.095922,9 C223.095922,9.08 223.055922,9.08 223.055922,9.12 L223.055922,9.12 Z M223.081167,10 L223.000167,10 L223.081167,10 Z M223.199167,10.12 C223.160167,10.04 223.160167,10 223.040167,10 C223.081167,10.04 223.000167,10.04 223.000167,10.16 C223.081167,10.199 223.199167,10.199 223.199167,10.12 L223.199167,10.12 Z M223.000167,8 C223.000167,8.079 223.040167,8.079 223.081167,8.079 C223.160167,8.04 223.081167,8 223.000167,8 L223.000167,8 Z M223.040042,7 C223.000042,7.04 222.960042,7.199 223.081042,7.199 C223.040042,7.159 223.160042,7.04 223.040042,7 L223.040042,7 Z M223.024041,7 C222.984041,7.079 222.984041,7.278 223.105041,7.198 C223.105041,7.159 223.105041,7.039 223.024041,7 L223.024041,7 Z M223.000167,11.039 L223.000167,11 L223.000167,11.039 Z M223.119167,9.039 C223.119167,9 223.000167,9 223.000167,9 L223.000167,9.039 L223.119167,9.039 Z M223.000167,4 C223.000167,4.04 223.000167,4.12 223.119167,4.12 C223.119167,4.04 223.119167,4 223.000167,4 L223.000167,4 Z M223.119167,4.12 C223.159167,4.04 223.000167,4.12 223.000167,4.04 L223.000167,4 L223.000167,4.12 C223.119167,4.12 223.000167,4.239 223.119167,4.12 L223.119167,4.12 Z M223.007073,8 C223.126073,8.119 222.966073,8.119 223.007073,8.238 C223.166073,8.318 223.126073,8.039 223.007073,8 L223.007073,8 Z M223.134605,12 C223.015605,12 222.974605,12.159 223.015605,12.159 C223.015605,12.119 223.134605,12.159 223.134605,12 L223.134605,12 Z M223.031102,4.04 C222.911102,4.199 223.190102,4 223.031102,4 L223.031102,4.04 Z M223.000167,10.239 C223.041167,10.239 223.041167,10.358 223.160167,10.318 C223.160167,10.239 223.160167,10.04 223.041167,10 L223.041167,10.119 C223.041167,10.159 223.000167,10.119 223.000167,10.239 L223.000167,10.239 Z M223.222826,8.199 C223.182826,8.199 223.222826,8.358 223.182826,8.358 C223.063826,8.199 223.182826,8.12 223.063826,8 C223.022826,8.159 222.943826,8.358 223.063826,8.398 C223.182826,8.239 223.182826,8.558 223.262826,8.438 C223.262826,8.358 223.222826,8.358 223.222826,8.199 C223.262826,8.159 223.222826,8.159 223.222826,8.199 L223.222826,8.199 Z M223.039167,10.159 C223.039167,10.079 223.080167,10.039 223.080167,10 L223.000167,10 L223.000167,10.079 C223.000167,10.079 223.000167,10.159 223.039167,10.159 L223.039167,10.159 Z M223.000167,13.08 C223.000167,13.08 223.040167,13.08 223.040167,13 C223.040167,13 223.000167,13 223.000167,13.08 L223.000167,13.08 Z M222.053056,9 C221.934056,9.04 222.053056,9.04 222.053056,9.12 C222.173056,9.16 222.132056,9 222.053056,9 L222.053056,9 Z M222.000167,11 L222.080167,11 L222.000167,11 Z M222.200167,10.16 C222.080167,10.2 222.159167,10 222.000167,10 L222.000167,10.16 C222.080167,10.16 222.200167,10.2 222.200167,10.16 L222.200167,10.16 Z M222.000167,10.0045139 L222.000167,10.2035139 C222.039167,10.2035139 222.119167,9.96451395 222.000167,10.0045139 L222.000167,10.0045139 Z M222.159167,10 L222.000167,10 C222.000167,10.079 222.000167,10.119 222.039167,10.119 C222.039167,10.04 222.198167,10.079 222.159167,10 L222.159167,10 Z M222.017944,13 C222.017944,13.079 221.977944,13.198 222.017944,13.238 C222.017944,13.198 222.176944,13 222.017944,13 L222.017944,13 Z M222.052611,12 C222.052611,12.119 221.934611,12.199 222.052611,12.238 C222.052611,12.199 222.091611,12.039 222.052611,12 L222.052611,12 Z M222.032418,4 C222.072418,4.159 221.913418,4.398 222.072418,4.438 C222.072418,4.358 222.072418,4.119 222.032418,4 L222.032418,4 Z M222.045215,11 C222.085215,11.119 221.926215,11.159 222.045215,11.159 C222.045215,11.159 222.085215,11 222.045215,11 L222.045215,11 Z M222.041167,12.16 C222.041167,12.199 222.041167,12.199 222.119167,12.199 C222.041167,12.16 222.159167,12.04 222.119167,12 C222.041167,12.04 222.041167,12.16 222.000167,12.16 L222.041167,12.16 Z M222.198167,11.199 L222.198167,11.04 C222.159167,11.04 222.159167,11.04 222.119167,11 C222.119167,11.04 222.041167,11.079 222.000167,11.159 C222.159167,11.079 222.159167,11.199 222.198167,11.199 L222.198167,11.199 Z M222.041167,11 C222.119167,11.04 222.000167,11.04 222.000167,11.159 C222.159167,11.199 222.159167,11 222.041167,11 L222.041167,11 Z M222.000167,9 C222.000167,9.08 222.041167,9.12 222.119167,9.12 C222.159167,9.08 222.159167,9 222.000167,9 L222.000167,9 Z M222.000167,12.06 L222.039167,12.06 C222.039167,11.98 222.000167,11.98 222.000167,12.06 L222.000167,12.06 Z M222.052611,15 C222.052611,15.079 221.934611,15.278 222.052611,15.318 C222.013611,15.199 222.211611,15.04 222.052611,15 L222.052611,15 Z M222.017944,15 C222.056944,15 222.017944,15 222.017944,15 C221.977944,15.04 222.017944,15.04 222.017944,15 L222.017944,15 Z M222.000167,10 C222.000167,10.04 222.040167,10.119 222.079167,10.119 C222.079167,10.04 222.079167,10 222.000167,10 L222.000167,10 Z M222.000167,10.079 L222.079167,10.079 C222.120167,10.079 222.120167,10.039 222.040167,10 C222.040167,10.039 222.040167,10.039 222.000167,10.039 L222.000167,10.079 Z M222.000167,11.119 L222.118167,11.119 L222.118167,11 L222.000167,11 L222.000167,11.119 Z M222.000167,15.04 L222.041167,15.04 L222.041167,15 L222.000167,15 L222.000167,15.04 Z M222.0175,17 C222.0175,17.04 221.9785,17.04 222.0175,17.08 C222.0175,17.04 222.0585,17 222.0175,17 L222.0175,17 Z M222.055089,8 C221.976089,8.04 221.976089,8.358 222.096089,8.239 C222.016089,8.199 222.135089,8.04 222.055089,8 L222.055089,8 Z M222.000167,13 C222.040167,13 222.040167,13.039 222.040167,13 L222.000167,13 Z M222.040167,9.04 L222.000167,9.159 L222.000167,9 C222.040167,9 222.040167,9.04 222.040167,9.04 L222.040167,9.04 Z M222.254457,13.5154343 C222.215457,13.5154343 222.215457,13.5728643 222.175457,13.5154343 C222.175457,13.5154343 222.175457,13.4005743 222.056457,13.4005743 C222.016457,13.5728643 221.935457,13.7437186 222.095457,13.9145729 C222.136457,13.8571429 222.136457,13.6862886 222.215457,13.6862886 C222.254457,14.2002872 221.896457,14.7717157 222.175457,15 C222.175457,14.3711414 222.373457,13.9720029 222.254457,13.5154343 C222.295457,13.4580043 222.413457,13.4580043 222.373457,13.3431443 L222.254457,13.3431443 C222.254457,13.17229 222.413457,13.17229 222.413457,13 C222.254457,13 222.175457,13.28715 222.254457,13.3431443 C222.295457,13.4005743 222.254457,13.4005743 222.254457,13.5154343 L222.254457,13.5154343 Z M222.06398,12 C222.02398,12.04 221.94298,12.279 222.06398,12.318 C222.02398,12.16 222.14398,12.08 222.06398,12 L222.06398,12 Z M222.139917,16.557 C222.100917,16.597 221.979917,16.756 222.180917,16.756 C222.180917,16.637 222.100917,16.637 222.139917,16.557 C222.259917,16.438 222.180917,16.199 222.259917,16.119 C222.100917,16.04 222.139917,16.239 222.060917,16.199 C221.979917,16.08 222.100917,16.08 222.060917,16 C221.979917,16 221.979917,16.199 222.060917,16.199 C222.100917,16.318 222.139917,16.398 222.139917,16.557 L222.139917,16.557 Z M222.100917,15.358 C222.180917,15.358 222.180917,15.159 222.100917,15.12 L222.060917,15.12 L222.060917,15 C221.979917,15 221.979917,15.199 222.060917,15.12 C221.979917,15.239 221.979917,15.358 222.100917,15.358 L222.100917,15.358 Z M222.000167,17.0050881 C222.000167,17.0840881 222.000167,17.3240881 222.081167,17.1640881 C222.000167,17.1640881 222.160167,16.9660881 222.000167,17.0050881 L222.000167,17.0050881 Z M222.000167,13.159 C222.121167,13.159 222.121167,13 222.081167,13 C222.081167,13.04 222.081167,13.04 222.000167,13.04 L222.000167,13.159 Z M222.000167,10 L222.000167,10.12 C222.000167,10.12 222.081167,10 222.000167,10 L222.000167,10 Z M222.000167,17 C222.000167,17.041 222.000167,17.319 222.039167,17.359 C222.039167,17.319 222.120167,17 222.000167,17 L222.000167,17 Z M222.148487,16 L222.028487,16 C221.948487,16.04 222.067487,16.159 222.028487,16.279 C222.148487,16.279 222.067487,16.04 222.148487,16 L222.148487,16 Z M222.075902,13.319 L222.075902,13.24 C222.195902,13.24 222.195902,13.041 222.075902,13 L222.075902,13.24 C221.995902,13.2 221.955902,13.359 222.075902,13.319 L222.075902,13.319 Z M222.080167,14 L222.000167,14 C222.000167,14 222.000167,14.119 222.080167,14.119 L222.080167,14 Z M222.014745,17 C221.975745,17 222.014745,17.16 222.134745,17.16 C222.134745,17.041 222.134745,17 222.014745,17 L222.014745,17 Z M222.028335,14.16 L222.068335,14.16 C222.148335,14.16 222.187335,14 222.068335,14 C222.028335,14.08 222.028335,14.12 222.028335,14.16 C221.948335,14.239 222.068335,14.359 222.028335,14.16 L222.028335,14.16 Z M222.003633,14 C222.003633,14.16 221.962633,14.398 222.162633,14.398 C222.003633,14.279 222.201633,14.08 222.003633,14 L222.003633,14 Z M222.170018,11.119 C222.050018,11.158 221.970018,11.119 222.011018,11.04 L222.011018,11 C222.090018,11 222.170018,11.079 222.170018,11.119 L222.170018,11.119 Z M222.027241,11.1455202 C221.986241,11.0655202 221.986241,10.9465202 222.066241,11.0265202 C222.106241,11.0655202 222.027241,11.0265202 222.027241,11.1455202 L222.027241,11.1455202 Z M222.041167,19.079 C222.041167,19.04 222.041167,19 222.000167,19 C222.000167,19.04 222.000167,19.12 222.041167,19.12 L222.041167,19.079 Z M222.000167,18 C222.000167,18.239 222.120167,18.239 222.200167,18.319 C222.239167,18.239 222.080167,18.119 222.000167,18 L222.000167,18 Z M222.000167,16.0351111 C222.000167,15.9561111 222.000167,16.0351111 222.000167,16.0351111 C222.000167,16.0751111 222.041167,16.0351111 222.000167,16.0351111 L222.000167,16.0351111 Z M222.080856,19 C221.921856,19 222.039856,19.28 222.080856,19.28 L222.080856,19 Z M221.118167,16 L221.000167,16 L221.000167,16.159 C221.118167,16.159 221.118167,16.08 221.118167,16 L221.118167,16 Z M221.118167,15 C221.000167,15.12 221.000167,15.477 221.000167,15.517 C221.118167,15.398 221.198167,15.12 221.118167,15 L221.118167,15 Z M221.150413,19.0220165 C221.032413,18.9430165 220.952413,19.1020165 221.032413,19.1020165 C221.032413,19.0630165 221.150413,19.0630165 221.150413,19.0220165 L221.150413,19.0220165 Z M221.000167,19.12 C221.041167,19.16 221.041167,19 221.041167,19 C221.041167,19 221.041167,19.04 221.000167,19 L221.000167,19.12 Z M221.198167,16.08 C221.198167,16.08 221.198167,16.04 221.239167,16.04 C221.080167,16.08 221.080167,16 221.000167,16 L221.000167,16.08 L221.198167,16.08 Z M221.090293,16.04 C221.049293,16.04 221.010293,16.04 221.010293,16 C221.010293,16.12 220.970293,16.278 221.049293,16.358 C221.049293,16.238 221.090293,16.12 221.090293,16.04 L221.090293,16.04 Z M221.01182,2 C221.09182,2 221.01182,2 221.01182,2 C220.97182,2.039 221.05082,2.039 221.01182,2 L221.01182,2 Z M221.017944,21 C221.017944,21.12 220.977944,21.16 221.017944,21.16 C221.056944,21.16 221.097944,21 221.017944,21 L221.017944,21 Z M221.000167,20 C221.000167,20.039 221.000167,20.08 221.040167,20.08 C221.040167,20.039 221.040167,20 221.000167,20 L221.000167,20 Z M221.146289,17.039 C221.105289,17.039 221.066289,17 221.026289,17 C221.026289,17.08 220.946289,17.198 221.066289,17.198 C221.105289,17.159 221.105289,17.08 221.146289,17.039 L221.146289,17.039 Z M221.075495,17 C220.956495,17.12 220.995495,17.358 221.075495,17.398 C221.313495,17.398 221.195495,17.041 221.075495,17 L221.075495,17 Z M221.000167,22 C221.080167,22 221.080167,22.079 221.120167,22 L221.000167,22 Z M221.0175,2.05333333 C221.1375,2.05333333 220.9785,1.93333333 221.0175,2.05333333 C220.9785,2.09233333 221.0175,2.09233333 221.0175,2.05333333 L221.0175,2.05333333 Z M221.022867,22 C221.102867,22.16 220.943867,22.201 221.022867,22.24 C221.102867,22.24 221.142867,22.041 221.022867,22 L221.022867,22 Z M221.000167,21.02925 C221.039167,21.02925 221.039167,21.10925 221.039167,21.02925 C221.039167,20.99025 221.000167,20.99025 221.000167,21.02925 L221.000167,21.02925 Z M221.000167,18.0140273 C221.119167,18.0540273 221.119167,18.1730273 221.159167,18.1730273 C221.239167,18.0140273 221.039167,17.9750273 221.000167,18.0140273 L221.000167,18.0140273 Z M221.039167,13 L221.000167,13 L221.039167,13 Z M221.017944,22 C221.017944,22.119 220.977944,22.278 221.017944,22.278 C221.056944,22.278 221.136944,22.039 221.017944,22 L221.017944,22 Z M221.017944,2 C221.017944,2.04 220.977944,2.04 221.017944,2.119 C221.017944,2.04 221.056944,2 221.017944,2 L221.017944,2 Z M221.079167,18.08 C221.040167,18.08 221.040167,18.04 221.040167,18 C221.040167,18.04 221.000167,18.08 221.000167,18.12 C221.040167,18.12 221.079167,18.12 221.079167,18.08 L221.079167,18.08 Z M221.000167,21.011547 C221.000167,20.971547 221.000167,21.051547 221.000167,21.011547 C221.080167,21.090547 221.080167,21.011547 221.000167,21.011547 L221.000167,21.011547 Z M221.045623,12 C221.006623,12.04 220.966623,12.159 221.045623,12.159 C221.006623,12.119 221.165623,12.04 221.045623,12 L221.045623,12 Z M221.015193,12 C221.054193,12.119 220.936193,12.159 221.054193,12.199 C221.054193,12.119 221.134193,12.04 221.015193,12 L221.015193,12 Z M221.039167,22.079 L221.118167,22.079 L221.118167,22 C221.079167,22 221.039167,22 221.000167,22.079 L221.039167,22.079 Z M221.198167,1 C221.039167,1.04 221.039167,1.12 221.000167,1.239 C221.118167,1.199 221.118167,1.08 221.198167,1 L221.198167,1 Z M221.020669,24.0038766 C221.020669,24.1638766 220.939669,24.2438766 221.099669,24.3628766 C221.099669,24.2438766 221.099669,23.9638766 221.020669,24.0038766 L221.020669,24.0038766 Z M221.000167,24 C221.000167,24.079 221.080167,24.238 221.120167,24.118 C221.080167,24.118 221.080167,24 221.000167,24 L221.000167,24 Z M221.0535,13.1145556 C221.0535,13.1145556 221.1325,13.0355556 221.0535,13.0355556 C221.0125,12.9555556 221.0125,13.0355556 221.0535,13.0355556 C221.0535,13.0745556 220.9335,13.1145556 221.0535,13.1145556 L221.0535,13.1145556 Z M221.02637,25 C220.98637,25 220.98637,25.12 221.06737,25.12 C221.06737,25.039 221.06737,25 221.02637,25 L221.02637,25 Z M221.015409,25 C220.976409,25.08 221.015409,25.159 221.096409,25.159 C221.055409,25.12 221.135409,25 221.015409,25 L221.015409,25 Z M221.000167,21.12 C221.000167,21.2 221.120167,21.12 221.159167,21.16 L221.159167,21 C221.079167,21 221.120167,21.16 221.000167,21.12 L221.000167,21.12 Z M221.000167,18 L221.039167,18 C221.039167,18 221.039167,18.04 221.000167,18 L221.000167,18 Z M221.597167,1.17863555 L221.556167,1.17863555 C221.556167,1.25044883 221.477167,1.25044883 221.517167,1.32136445 C221.238167,1.46499102 221.120167,1.78635548 221.000167,2 C221.079167,2 221.079167,1.96409336 221.159167,1.96409336 C221.159167,1.67863555 221.477167,1.57181329 221.517167,1.32136445 C221.556167,1.28545781 221.597167,1.28545781 221.597167,1.17863555 C221.715167,1.17863555 221.715167,1.1427289 221.715167,1.07181329 C221.756167,1.1427289 221.756167,1 221.715167,1 L221.715167,1.07181329 C221.597167,1.07181329 221.597167,1.1427289 221.597167,1.17863555 L221.597167,1.17863555 Z M221.090167,13.1254542 C220.970167,13.1254542 220.970167,12.9664542 221.090167,13.0064542 C221.129167,13.1254542 221.049167,13.1254542 221.090167,13.1254542 L221.090167,13.1254542 Z M221.079167,26 C221.120167,26.12 221.000167,26.08 221.000167,26.2 C221.120167,26.2 221.199167,26 221.079167,26 L221.079167,26 Z M221.117235,14 C221.117235,14.199 220.919235,14.478 221.038235,14.637 C221.038235,14.398 221.158235,14.159 221.117235,14 L221.117235,14 Z M221.049433,14.239 C220.930433,14.239 221.049433,14 221.169433,14 L221.169433,14.04 C221.128433,14.08 221.128433,14.199 221.049433,14.239 L221.049433,14.239 Z M221.12952,27 C221.05052,27 220.93152,27.198 221.05052,27.239 C221.05052,27.198 221.17052,27.198 221.12952,27 L221.12952,27 Z M220.080167,28 C220.119167,28.08 220.000167,28.08 220.000167,28.159 C220.119167,28.159 220.119167,28.041 220.080167,28 L220.080167,28 Z M220.035278,15 C220.035278,15.04 219.956278,15.239 220.035278,15.279 C220.115278,15.199 220.154278,15 220.035278,15 L220.035278,15 Z M220.000167,29 C220.040167,29.079 220.000167,29.159 220.040167,29.159 C220.120167,29.079 220.120167,29.079 220.000167,29 L220.000167,29 Z M220.159167,24.08 L220.000167,24.08 L220.000167,24 C220.120167,24 220.159167,24 220.159167,24.08 L220.159167,24.08 Z M220.000167,24.0182222 C220.159167,24.0182222 220.159167,24.2562222 220.159167,24.3372222 C220.318167,24.3372222 220.238167,24.1362222 220.279167,24.0182222 C220.159167,23.9772222 220.159167,24.0182222 220.000167,24.0182222 L220.000167,24.0182222 Z M220.169219,28 C220.050219,28 219.971219,28.039 220.010219,28.079 C220.130219,28.079 220.169219,28.079 220.169219,28 L220.169219,28 Z M220.000167,28.12 L220.039167,28.12 L220.039167,28 L220.000167,28 L220.000167,28.12 Z M220.000167,30.08 L220.080167,30.08 L220.080167,30 L220.000167,30 L220.000167,30.08 Z M220.041167,30 C220.000167,30.04 220.000167,30.12 220.000167,30.2 C220.041167,30.2 220.080167,30.04 220.041167,30 L220.041167,30 Z M220.120167,24.119 C220.041167,24.119 220.041167,24.159 220.000167,24.119 C220.000167,24 220.041167,24 220.120167,24 L220.120167,24.119 Z M220.263083,2 C220.263083,2.279 219.906083,2.438 220.024083,2.677 C220.263083,2.637 220.263083,2.279 220.263083,2 L220.263083,2 Z M220.044608,16 C220.085608,16.08 219.926608,16.238 220.044608,16.358 C220.044608,16.238 220.164608,16 220.044608,16 L220.044608,16 Z M220.052611,31 C220.052611,31 219.934611,31.199 220.052611,31.199 C220.093611,31.159 220.132611,31 220.052611,31 L220.052611,31 Z M220.052611,4 C220.052611,4.04 219.934611,4.159 220.052611,4.159 C220.052611,4.159 220.093611,4.04 220.052611,4 L220.052611,4 Z M220.000167,39 C220.000167,39.04 220.000167,39.12 220.118167,39.12 C220.118167,39 220.118167,39 220.000167,39 L220.000167,39 Z M220.000167,32 C220.000167,32.041 220.000167,32.24 220.118167,32.28 C220.118167,32.2 220.118167,32.041 220.000167,32 L220.000167,32 Z M220.118167,31 C220.000167,31.12 220.118167,31.239 220.000167,31.358 C220.198167,31.398 220.159167,31.041 220.118167,31 L220.118167,31 Z M220.150488,32 C219.991488,32 219.912488,32.278 220.150488,32.278 C220.150488,32.239 220.032488,32.159 220.150488,32 L220.150488,32 Z M220.000167,34 C220.041167,34.12 219.961167,34.239 220.041167,34.279 C220.041167,34.199 220.041167,34.04 220.000167,34 L220.000167,34 Z M220.000167,28.12 C220.041167,28.12 220.041167,28.16 220.159167,28.12 C220.159167,28.12 220.159167,28 220.041167,28 C220.041167,28.12 220.041167,28.12 220.000167,28.12 L220.000167,28.12 Z M220.169143,17 C220.051143,17.358 219.971143,17.596 220.010143,17.954 C220.051143,17.635 220.169143,17.198 220.169143,17 L220.169143,17 Z M220.014169,38 C220.055169,38.159 219.935169,38.318 220.055169,38.357 C220.014169,38.278 220.173169,38 220.014169,38 L220.014169,38 Z M220.027757,4.05333333 C220.186757,4.05333333 220.027757,3.93333333 220.027757,4.05333333 C219.948757,4.05333333 220.068757,4.17233333 220.027757,4.05333333 L220.027757,4.05333333 Z M220.000167,33.1292663 C220.080167,33.0902663 220.080167,33.1692663 220.198167,33.1692663 C220.198167,33.0492663 220.080167,32.9302663 220.000167,33.0492663 L220.000167,33.1292663 Z M220.070833,18 C220.070833,18.04 219.911833,18.08 220.070833,18.12 C220.070833,18.08 220.111833,18 220.070833,18 L220.070833,18 Z M220.120167,34.597 C220.120167,34.36 220.120167,34.121 220.079167,34 C220.000167,34.201 220.079167,34.36 220.000167,34.597 L220.120167,34.597 Z M220.000167,30.039 L220.079167,30.039 L220.079167,30 L220.000167,30 L220.000167,30.039 Z M220.079167,22.0165685 C220.079167,22.0565685 220.040167,22.0565685 220.000167,22.0565685 C220.000167,22.0165685 220.040167,21.9765685 220.079167,22.0165685 L220.079167,22.0165685 Z M220.040167,18 C220.040167,18.079 220.000167,18.079 220.000167,18.159 C220.079167,18.199 220.079167,18 220.040167,18 L220.040167,18 Z M220.015124,18 C220.055124,18.079 219.935124,18.2 220.055124,18.2 C220.015124,18.079 220.135124,18.04 220.015124,18 L220.015124,18 Z M220.056049,36 C220.016049,36.5268034 219.936049,37.5274653 220.095049,38 C220.056049,37.4745202 220.136049,36.5784249 220.056049,36 L220.056049,36 Z M220.108465,35 C220.029465,35.159 219.910465,35.717 220.108465,35.796 C220.029465,35.478 220.267465,35.24 220.108465,35 L220.108465,35 Z M220.120167,4 C220.080167,4 220.000167,4.04 220.000167,4.159 C220.080167,4.159 220.200167,4 220.120167,4 L220.120167,4 Z M220.15282,31 C220.03382,31.16 220.15282,31.319 220.07282,31.517 C219.91282,31.398 220.07282,31.08 220.03382,31 L220.15282,31 Z M220.040167,36.041 L220.040167,36 C220.040167,36.041 220.040167,36 220.000167,36 L220.000167,36.041 L220.040167,36.041 Z M220.000167,33.0837909 L220.000167,33.0047909 C220.040167,32.9637909 220.040167,33.2027909 220.000167,33.0837909 L220.000167,33.0837909 Z M220.040167,33.06 L220.000167,33.06 C220.000167,32.98 220.040167,32.98 220.040167,33.06 L220.040167,33.06 Z M220.053944,20 C220.053944,20.08 219.932944,20.119 220.053944,20.239 C220.053944,20.239 220.092944,20.039 220.053944,20 L220.053944,20 Z M220.045651,20.0031129 C220.085651,20.1221129 219.925651,20.2811129 220.045651,20.3601129 C220.085651,20.3211129 220.085651,19.9631129 220.045651,20.0031129 L220.045651,20.0031129 Z M220.121167,32.039 C220.121167,32.079 220.081167,32.079 220.081167,32.198 C220.000167,32.159 220.000167,32.079 220.000167,32 C220.121167,32 220.121167,32.039 220.121167,32.039 L220.121167,32.039 Z M220.0175,20.0528889 C220.1385,20.0528889 219.9785,19.9338889 220.0175,20.0528889 C219.9785,20.0528889 220.0175,20.0928889 220.0175,20.0528889 L220.0175,20.0528889 Z M220.161167,37.399 C220.000167,37.399 220.080167,37.119 220.000167,37.039 C220.080167,37.08 220.041167,37 220.161167,37 C220.000167,37.119 220.201167,37.24 220.161167,37.399 L220.161167,37.399 Z M220.0175,21 C220.0175,21 219.9785,21.08 220.0175,21.08 C220.0585,21.04 220.0585,21 220.0175,21 L220.0175,21 Z M220.074924,5 C220.033924,5.04 219.954924,5.199 220.033924,5.238 C219.994924,5.159 220.194924,5.04 220.074924,5 L220.074924,5 Z M220.033924,4.517 C220.033924,4.517 220.113924,4.478 220.074924,4.319 C220.194924,4.279 220.273924,4.08 220.234924,4 C220.113924,4.08 220.113924,4.199 220.074924,4.319 C220.033924,4.397 219.954924,4.517 220.033924,4.517 L220.033924,4.517 Z M220.200167,3.8572711 C220.200167,3.82136445 220.080167,3.82136445 220.080167,3.78545781 C220.200167,3.6427289 220.279167,3.6427289 220.438167,3.57091562 C220.279167,3.32136445 220.597167,3.28545781 220.597167,3.10682226 C220.597167,3.03590664 220.597167,3 220.479167,3 C220.399167,3.35637343 220.000167,3.6427289 220.000167,4 C220.080167,3.96409336 220.200167,3.96409336 220.200167,3.8572711 L220.200167,3.8572711 Z M220.090542,22 C220.050542,22.238 219.970542,22.478 220.011542,22.717 C220.050542,22.478 220.129542,22.159 220.090542,22 L220.090542,22 Z M220.044975,25.9218267 C219.913828,25.830239 219.871205,25.9218267 219.871205,26.0592082 C219.697434,25.9676205 219.957544,25.830239 219.826396,25.6951471 C219.913828,25.6951471 219.871205,25.5577656 219.957544,25.5577656 C219.957544,25.6951471 220.087598,25.5577656 219.957544,25.5577656 C219.957544,25.4215289 219.871205,25.5577656 219.826396,25.4215289 C219.826396,25.2841473 220.087598,25.4215289 220.087598,25.331086 C219.957544,25.2394983 220.087598,25.1490555 220.087598,25.011674 C220.044975,25.011674 219.957544,25.011674 219.957544,24.8742924 C219.957544,24.7369109 220.087598,24.6922619 220.087598,24.6453232 C220.087598,24.6453232 220.087598,24.6922619 220.173937,24.6922619 C220.173937,24.7369109 220.218746,24.6922619 220.173937,24.6922619 C220.087598,24.6006742 220.218746,24.6006742 220.218746,24.4632926 C220.087598,24.4632926 220.044975,24.4632926 220.044975,24.3728498 C220.044975,24.2366131 220.087598,24.3728498 220.218746,24.3728498 C220.261369,24.1003764 220.305085,23.8714072 220.218746,23.6447276 L220.218746,23.5977889 C220.261369,23.4157584 220.087598,23.5073461 220.087598,23.4626971 C220.087598,23.3711094 220.349893,23.3711094 220.305085,23.1890789 C220.218746,23.0974912 220.173937,23.2337279 220.087598,23.0974912 C220.173937,22.8685219 220.261369,22.8238729 220.218746,22.5971934 C220.305085,22.5502547 220.305085,22.6418424 220.349893,22.5971934 C220.305085,22.5502547 220.478855,22.4151629 220.349893,22.4151629 C220.305085,22.4598119 220.218746,22.2319875 220.218746,22.1415446 C220.305085,22.1415446 220.305085,22.2319875 220.436232,22.2319875 C220.261369,22.1415446 220.305085,21.9595141 220.305085,21.5943081 C220.218746,21.5943081 220.173937,21.5943081 220.173937,21.5485143 C220.218746,21.4122776 220.349893,21.1844532 220.478855,21.3206899 C220.566287,21.1844532 220.392516,21.1844532 220.349893,21.1386594 C220.349893,21.0470717 220.436232,21.0470717 220.392516,20.9566288 C220.478855,20.9566288 220.566287,21.0024227 220.566287,20.910835 C220.436232,20.9566288 220.478855,20.910835 220.392516,20.7734534 C220.305085,20.6830106 220.478855,20.4093924 220.349893,20.3178047 C220.566287,20.3178047 220.349893,19.9537436 220.478855,19.9537436 C220.610003,19.9995374 220.610003,20.181568 220.652626,20.226217 C220.652626,19.9090946 220.478855,19.771713 220.478855,19.4992397 C220.610003,19.1786827 220.566287,18.8604155 220.652626,18.5410034 C220.652626,18.4963544 220.566287,18.5410034 220.610003,18.4517054 C220.610003,18.4517054 220.610003,18.313179 220.652626,18.313179 C220.740057,18.4517054 220.871205,18.5410034 221.000167,18.4517054 C221.000167,18.313179 220.610003,18.2227362 220.871205,18.0407056 C220.783773,18.0407056 220.740057,17.9491179 220.566287,18.0407056 C220.610003,18.26853 220.392516,18.4517054 220.478855,18.723034 C220.218746,19.3160643 220.392516,20.226217 220.087598,20.7734534 C220.261369,21.5027205 219.871205,21.9595141 220.087598,22.5502547 C219.871205,22.9612545 219.871205,23.3711094 219.826396,23.8267582 C219.826396,23.8714072 219.697434,23.8267582 219.697434,23.917201 C219.697434,24.7369109 219.697434,26.0592082 219.436232,26.8777732 C219.566287,26.9247119 219.436232,27.1971853 219.436232,27.3345668 C219.478855,27.5165974 219.392516,27.6528341 219.436232,27.8806585 C219.261369,28.2916582 219.436232,28.8823989 219.21656,29.3849863 C219.303992,29.6586046 219.303992,29.9310779 219.261369,30.1153982 C219.000167,32.6191768 219.04279,35.1710389 219.000167,37.4939317 C219.130221,38.3594354 219.087598,39.3623207 219.436232,40 C219.610003,39.9095572 219.392516,39.6359389 219.566287,39.5901451 C219.478855,39.5901451 219.303992,39.4081145 219.436232,39.3623207 C219.436232,39.3623207 219.436232,39.4081145 219.478855,39.4081145 C219.436232,39.1802901 219.392516,38.9513209 219.566287,38.7704352 C219.436232,38.8150842 219.478855,38.6330537 219.478855,38.5426108 C219.392516,38.5884047 219.261369,38.4510231 219.21656,38.4063741 C219.261369,38.2689926 219.261369,38.1316111 219.303992,37.9942295 C219.392516,38.1316111 219.261369,38.2689926 219.478855,38.2243436 C219.566287,37.9942295 219.392516,37.9495805 219.436232,37.76755 C219.392516,37.7217561 219.303992,37.8591377 219.261369,37.7217561 C219.392516,37.6301684 219.261369,37.5855194 219.261369,37.4939317 C219.697434,37.2214583 219.436232,36.4910465 219.21656,36.2185731 C219.21656,36.1739241 219.261369,36.1739241 219.303992,36.1739241 C219.303992,36.309016 219.303992,36.3559546 219.436232,36.4006036 L219.436232,35.9907487 C219.173937,35.9907487 219.261369,35.6724815 219.261369,35.4435122 C219.392516,35.3988632 219.392516,35.3084204 219.436232,35.3988632 C219.436232,35.1710389 219.478855,35.0783063 219.392516,34.8962758 C219.392516,34.9432145 219.303992,34.9878635 219.21656,34.9878635 C219.21656,34.7611839 219.21656,34.5322147 219.303992,34.4429167 C219.392516,34.4875657 219.392516,34.7142452 219.478855,34.7142452 C219.436232,34.4429167 219.478855,34.1692985 219.436232,33.9403292 C219.436232,34.0307721 219.436232,34.1692985 219.392516,34.0777108 C219.436232,33.9403292 219.261369,34.0307721 219.261369,33.8487415 C219.392516,33.7125048 219.436232,34.0307721 219.436232,33.8040925 C219.436232,33.666711 219.21656,33.7582987 219.303992,33.4846805 C219.436232,33.4846805 219.436232,33.622062 219.478855,33.4846805 C219.478855,33.4400315 219.566287,33.2580009 219.478855,33.0278868 C219.436232,32.9832378 219.436232,33.0748255 219.392516,33.0748255 L219.392516,32.9385888 C219.436232,32.9385888 219.436232,32.9832378 219.478855,32.9385888 C219.436232,32.5275891 219.652626,32.3924972 219.436232,32.2104667 C219.436232,32.2104667 219.436232,32.2551157 219.392516,32.2551157 C219.261369,32.118879 219.436232,31.9803526 219.436232,31.8452607 C219.566287,31.8452607 219.478855,31.9803526 219.566287,31.9803526 C219.478855,31.389612 219.826396,30.6145511 219.478855,30.2046962 C219.652626,30.2046962 219.652626,30.25049 219.697434,30.2046962 L219.697434,30.0226656 C219.697434,29.9310779 219.566287,30.1153982 219.478855,29.9768718 C219.478855,29.8406351 219.652626,29.8406351 219.697434,29.9310779 C219.652626,29.7490474 219.826396,29.521223 219.652626,29.3849863 C219.652626,29.521223 219.610003,29.5670169 219.566287,29.6116659 C219.436232,29.521223 219.478855,29.3391925 219.610003,29.2476048 C219.697434,29.2476048 219.826396,29.3849863 219.826396,29.2476048 C219.697434,29.1571619 219.697434,28.9739866 219.826396,28.9281927 C219.610003,29.1125129 219.566287,28.7461622 219.652626,28.6110703 C219.697434,28.7003683 219.697434,28.7003683 219.826396,28.7003683 C219.697434,28.5194826 219.871205,28.4290398 219.826396,28.3374521 C219.652626,28.3374521 219.826396,28.5641316 219.652626,28.5641316 C219.566287,28.5194826 219.652626,28.3821011 219.610003,28.2916582 C219.652626,28.1554215 219.697434,28.2916582 219.826396,28.2916582 C219.826396,28.0649787 219.913828,27.5612464 219.826396,27.3345668 C219.697434,27.4708035 219.913828,27.7432769 219.697434,27.7432769 C219.610003,27.6081851 219.826396,27.4708035 219.697434,27.3345668 C219.826396,27.288773 219.826396,27.3345668 219.871205,27.3345668 C219.826396,27.0620934 219.826396,26.8777732 219.826396,26.6510937 C219.913828,26.6510937 219.871205,26.6957427 219.957544,26.6957427 C219.957544,26.4690631 220.044975,26.3786203 219.913828,26.1496511 C219.913828,26.3316816 219.913828,26.5137121 219.826396,26.5606508 C219.697434,26.3786203 219.913828,26.2870326 219.871205,26.0592082 C219.913828,25.9676205 219.957544,25.9676205 220.044975,25.9218267 L220.044975,25.9218267 Z M219.062395,23 C219.023395,23.04 218.944395,23.279 219.062395,23.319 C219.062395,23.279 219.142395,23.079 219.062395,23 L219.062395,23 Z M219.079167,31 L219.000167,31 L219.000167,31.079 C219.079167,31.04 219.079167,31.04 219.079167,31 L219.079167,31 Z M219.079167,27.159 C219.079167,27.119 219.079167,27.039 219.000167,27 C219.000167,27.039 219.000167,27.159 219.079167,27.159 L219.079167,27.159 Z M219.000167,24.0098047 L219.000167,24.3278047 C219.118167,24.3668047 219.000167,23.9298047 219.000167,24.0098047 L219.000167,24.0098047 Z M219.000167,23 C219.079167,23.159 219.000167,23.198 219.000167,23.318 C219.118167,23.318 219.159167,23.079 219.000167,23 L219.000167,23 Z M219.159167,6 C219.079167,6 219.079167,6.04 219.000167,6.12 C219.118167,6.12 219.118167,6 219.159167,6 L219.159167,6 Z M219.000167,5.279 C219.118167,5.2 219.159167,5.16 219.159167,5 C219.079167,5.04 219.079167,5.16 219.000167,5.279 C219.000167,5.319 219.079167,5.319 219.000167,5.279 L219.000167,5.279 Z M219.000167,24 C219.000167,24.039 219.039167,24.079 219.039167,24.079 C219.039167,24.039 219.039167,24 219.000167,24 L219.000167,24 Z M219.069495,4.239 C219.228495,4.319 219.228495,4.12 219.267495,4 C219.148495,4.04 218.871495,4.359 219.069495,4.478 C219.069495,4.359 219.030495,4.359 219.069495,4.239 L219.069495,4.239 Z M219.017944,30.12 C218.977944,30.12 219.017944,30.04 219.017944,30 C219.136944,30.04 219.097944,30.12 219.017944,30.12 L219.017944,30.12 Z M219.041167,31.16 C219.000167,31.16 219.041167,31.039 219.000167,31 C219.080167,31 219.080167,31.08 219.041167,31.16 L219.041167,31.16 Z M219.000167,5.04 C219.000167,5.04 219.041167,5.04 219.041167,5 C219.041167,5.04 219.000167,5.04 219.000167,5.04 L219.000167,5.04 Z M219.080167,5.398 C219.239167,5.278 219.120167,5.159 219.080167,5 C219.080167,5.039 219.041167,5.039 219.000167,5.039 C219.000167,5.159 219.120167,5.198 219.080167,5.398 L219.080167,5.398 Z M219.000167,32.0880533 C219.119167,32.0880533 219.119167,32.1270533 219.119167,32.1270533 C219.119167,32.0880533 219.119167,31.9680533 219.000167,32.0080533 L219.000167,32.0880533 Z M219.199167,6.13288889 L219.160167,6.13288889 C219.119167,6.13288889 219.119167,6.13288889 219.119167,6.29288889 C219.000167,6.29288889 219.000167,6.49088889 219.000167,6.53088889 C219.119167,6.49088889 219.119167,6.37188889 219.119167,6.33188889 L219.119167,6.29288889 C219.160167,6.25288889 219.199167,6.17288889 219.199167,6.13288889 C219.239167,6.13288889 219.239167,6.13288889 219.239167,6.05288889 C219.358167,6.05288889 219.199167,5.93388889 219.239167,6.05288889 C219.199167,6.05288889 219.199167,6.13288889 219.199167,6.13288889 L219.199167,6.13288889 Z M221.309445,14.689227 C221.309445,14.7802484 221.411249,14.7802484 221.359703,14.8712697 C221.000167,16.3651583 220.949909,17.9944412 220.692177,19.3984461 L220.692177,19.6692348 C220.540115,19.8057669 220.540115,19.9878096 220.540115,20.1687146 C220.437022,20.5760354 220.232125,21.7979975 220.385476,22.0244132 C220.232125,22.4772447 219.922847,23.2475132 220.232125,23.6992068 C220.180579,23.6992068 220.232125,23.9267603 220.076198,23.9267603 C220.02594,23.9267603 220.02594,23.8357389 219.973105,23.8357389 C219.973105,23.9711332 219.922847,24.1076653 220.02594,24.2419219 C219.973105,24.2419219 219.922847,24.2419219 219.922847,24.3329432 C219.922847,25.1487224 219.71795,25.7369482 219.616146,26.5527274 C219.71795,26.6881217 219.821043,26.5971003 219.768208,26.7336324 C219.768208,26.7780053 219.71795,26.7780053 219.616146,26.7780053 C219.922847,26.9589103 219.565888,27.2308367 219.616146,27.5039009 C219.71795,27.3673688 219.768208,27.2763474 219.768208,27.3673688 C219.462796,27.8190625 219.360991,28.7258631 219.565888,29.3584617 C219.308156,29.4494831 219.565888,29.7669202 219.565888,29.9478252 C219.462796,29.9478252 219.462796,29.8124309 219.360991,29.8124309 C219.411249,30.1742409 219.154806,30.491678 219.308156,30.8079774 C219.360991,30.8079774 219.411249,30.7636044 219.411249,30.8079774 L219.411249,31.0343931 L219.308156,31.0343931 C219.154806,31.8046616 219.308156,32.5294194 219.154806,33.1165074 L219.154806,33.0266238 C219.103259,33.7058709 219.154806,34.2952344 219.053002,34.927833 C219.103259,35.0643651 219.154806,34.9733437 219.154806,35.1087381 C219.053002,35.2896431 219.000167,35.6992393 219.154806,35.9245173 C219.103259,36.0610493 219.053002,36.0610493 219.000167,36.1054223 C219.053002,36.2863273 219.154806,36.1054223 219.154806,36.2863273 C219.154806,36.3329757 219.103259,36.3329757 219.000167,36.3329757 C219.103259,36.4672323 219.053002,36.512743 219.000167,36.6037644 C219.053002,36.693648 219.308156,36.6492751 219.154806,36.874553 C219.103259,36.7846694 219.103259,36.7402965 219.053002,36.7402965 C219.053002,37.1464794 219.103259,37.8257265 219.154806,38.0976529 C219.000167,38.1431636 219.154806,38.9589429 219.308156,38.7780378 C219.154806,39.0033158 219.154806,39.0943372 219.308156,39.3196151 C219.308156,39.3196151 219.360991,39.2285937 219.360991,39.3196151 C219.411249,39.3651258 219.308156,39.3196151 219.308156,39.5005201 C219.616146,39.5471686 219.360991,39.819095 219.565888,40 C219.616146,39.3651258 219.154806,38.3684416 219.411249,37.6004486 C219.154806,37.1464794 219.462796,36.150933 219.308156,35.6525909 C219.462796,35.6525909 219.411249,35.5183343 219.462796,35.4705481 C219.411249,35.4705481 219.360991,35.4705481 219.308156,35.4261752 C219.462796,34.9733437 219.308156,34.2952344 219.462796,33.8867759 C219.360991,33.661498 219.360991,33.2075288 219.565888,32.8912294 C219.462796,32.8013458 219.308156,32.257493 219.616146,32.257493 C219.360991,31.9855666 219.565888,31.7602887 219.616146,31.4417138 L219.71795,31.4417138 C219.462796,31.2152981 219.768208,30.897861 219.565888,30.7636044 C219.616146,30.7636044 219.616146,30.6270724 219.71795,30.5826994 C219.565888,30.6270724 219.616146,30.4006567 219.71795,30.4006567 C219.616146,30.4461673 219.616146,30.2652623 219.616146,30.2186139 C219.616146,30.2186139 219.616146,30.2652623 219.71795,30.2186139 C219.616146,30.1742409 219.616146,29.8124309 219.821043,29.8124309 C219.616146,29.5860152 219.71795,29.312951 219.821043,29.132046 C219.616146,29.0433002 219.821043,28.8623952 219.871301,28.7713738 C219.768208,28.5904688 219.71795,28.3174046 219.973105,28.1808725 C219.871301,28.1808725 219.821043,28.1364996 219.768208,28.046616 C220.076198,27.3673688 219.871301,26.5527274 220.232125,25.8734803 C220.232125,25.7369482 220.076198,25.7369482 220.02594,25.6470646 C220.232125,25.3296275 220.232125,24.921169 220.232125,24.514986 C220.282383,24.514986 220.437022,24.514986 220.437022,24.4706131 C220.385476,24.4239646 220.232125,24.4239646 220.232125,24.3329432 C220.48728,24.1520382 220.232125,23.6992068 220.48728,23.4739289 C220.48728,23.4284182 220.385476,23.4284182 220.282383,23.336259 C220.48728,23.2918861 220.385476,23.0199597 220.540115,23.0666082 C220.48728,22.7036604 220.540115,22.4772447 220.540115,22.2041805 C220.540115,22.2041805 220.540115,22.2508289 220.692177,22.2508289 C220.745012,22.1142969 220.437022,21.9333918 220.692177,21.7979975 C220.692177,21.9333918 220.79527,21.7979975 220.692177,21.7979975 C220.692177,21.7979975 220.540115,21.6170925 220.692177,21.6170925 C220.540115,21.5260711 220.692177,21.1187504 220.79527,21.2097718 C220.846816,21.0288668 220.692177,21.1187504 220.692177,20.9822183 L220.79527,20.9822183 C220.692177,20.2585983 221.000167,19.9878096 221.000167,19.2164034 C221.101971,19.261914 221.101971,19.2164034 221.154806,19.2164034 C221.000167,18.9467525 221.154806,18.5838047 221.309445,18.357389 L221.205064,18.357389 C221.309445,17.9944412 221.101971,17.3618425 221.461507,17.2241727 C221.411249,16.9988947 221.309445,16.3196476 221.616146,16.3196476 C221.5646,16.2286262 221.5646,16.0932319 221.461507,15.9123269 C221.5646,15.8668162 221.616146,15.9123269 221.616146,15.8668162 C221.411249,15.5948898 221.871301,15.2785905 221.616146,15.0066641 C221.769497,15.0066641 221.871301,15.0521748 221.821043,14.8712697 C221.616146,14.689227 221.821043,14.1908849 221.924136,14.0554905 C221.924136,13.6481698 222.076198,13.3318705 222.076198,12.6969963 C222.076198,12.6969963 222.076198,12.8335284 222.129033,12.8335284 C222.17929,12.6059749 222.076198,12.561602 222.076198,12.4262077 C222.129033,12.3351863 222.230837,12.3351863 222.33393,12.2441649 C222.17929,12.199792 222.129033,12.2896756 222.129033,12.1542813 C222.33393,12.0632599 222.076198,11.7458228 222.33393,11.7458228 C222.230837,11.4295234 222.33393,10.8868084 222.488569,10.6603927 C222.540115,10.7047656 222.540115,10.6603927 222.488569,10.6603927 C222.540115,10.6603927 222.488569,10.6603927 222.488569,10.6603927 C222.384187,10.5238606 222.230837,10.5238606 222.17929,10.433977 C222.230837,10.2519342 222.129033,9.9800078 222.384187,9.79910279 C222.540115,9.89012418 222.17929,9.9800078 222.384187,9.9800078 C222.590373,9.89012418 222.488569,9.84461348 222.384187,9.7080814 C222.540115,9.7080814 222.540115,9.61819778 222.643208,9.66370847 C222.540115,9.30189845 222.643208,9.16536636 222.643208,8.80355634 C222.693466,8.66702425 222.79527,8.16868214 222.590373,7.9434042 C222.693466,7.80800988 222.643208,7.44506209 222.79527,7.44506209 C222.643208,7.39955139 222.693466,7.17313569 222.745012,7.03774137 C222.848105,7.03774137 222.79527,7.17313569 222.94862,7.03774137 C222.848105,6.99223067 222.94862,6.94671998 222.94862,6.76581497 L223.000167,6.76581497 L223.000167,6.72030427 C222.94862,6.72030427 222.94862,6.72030427 222.94862,6.76581497 C222.848105,6.81132566 222.848105,6.85683636 222.79527,6.85683636 C222.79527,6.22196216 223.000167,5.49834211 222.94862,5 C222.643208,6.58490995 222.33393,8.44060854 222.129033,10.1620506 C221.821043,11.1120863 221.924136,12.2896756 221.616146,13.2408491 L221.616146,13.5127755 C221.411249,13.6936805 221.461507,14.3274169 221.309445,14.689227 L221.309445,14.689227 Z M219.168897,5.477 C219.049897,5.477 218.929897,5.637 219.049897,5.716 C219.168897,5.477 219.527897,5.119 219.288897,5 C219.288897,5.159 219.209897,5.278 219.049897,5.358 C219.088897,5.397 219.168897,5.397 219.168897,5.477 L219.168897,5.477 Z M218.000167,9.079 C218.080167,9.119 218.119167,9 218.039167,9 C218.039167,9.039 218.039167,9.039 218.000167,9.039 L218.000167,9.079 Z M218.120167,9 C218.000167,9 218.000167,9.119 218.000167,9.119 C218.120167,9.119 218.120167,9.119 218.120167,9 L218.120167,9 Z M218.199167,7.79331003 C218.199167,7.25561741 218.476167,7.01680979 218.517167,6.53769262 C218.556167,6.53769262 218.635167,6.47761524 218.676167,6.47761524 C218.676167,6.29888501 218.715167,6.17873023 218.676167,6 C218.397167,6 218.476167,6.53769262 218.278167,6.59777001 C218.437167,7.13546263 218.000167,7.49442503 218.000167,7.97204026 C218.199167,8.0906931 218.040167,7.79331003 218.199167,7.79331003 C218.199167,7.91346481 218.199167,7.79331003 218.199167,7.79331003 L218.199167,7.79331003 Z M218.000167,10.08 L218.119167,10.08 L218.119167,10 L218.000167,10 L218.000167,10.08 Z M218.052611,8 C218.052611,8 217.934611,8.119 218.052611,8.119 C218.052611,8.119 218.132611,8 218.052611,8 L218.052611,8 Z M218.598911,7.76005362 C218.660224,7.88069705 218.660224,8.00033512 218.629179,8.19939678 L218.598911,8.19939678 C218.475507,8.63974531 218.135565,9.20073727 218.103744,9.79993298 C218.012161,9.79993298 217.98034,9.96079088 218.012161,10 C218.012161,9.96079088 218.103744,9.92057641 218.103744,9.79993298 C218.290013,9.28116622 218.475507,8.76038874 218.629179,8.19939678 C218.660224,8.0405496 218.752583,8.00033512 218.752583,7.76005362 C218.845718,7.5599866 219.000167,7.20006702 219.000167,7 C218.938077,7.31970509 218.752583,7.44034853 218.752583,7.76005362 C218.690493,7.83947721 218.660224,7.83947721 218.598911,7.76005362 L218.598911,7.76005362 Z M217.035722,9 C217.035722,9.04 216.955722,9.04 217.035722,9.04 C217.035722,9.04 217.114722,9 217.035722,9 L217.035722,9 Z M217.014707,10 C217.332707,9.65829146 217.332707,8.74228284 217.611707,8.4005743 L217.611707,8 L217.531707,8 C217.411707,8.4005743 217.371707,8.85714286 217.173707,9.02943288 C217.212707,9.37114142 216.934707,9.71428571 217.014707,10 L217.014707,10 Z M217.039167,9 C217.000167,9.04 217.000167,9.119 217.000167,9.199 C217.080167,9.199 217.119167,9 217.039167,9 L217.039167,9 Z M217.015182,10.358 C217.175182,10.318 217.293182,10.199 217.254182,10 L217.214182,10.04 C217.175182,10.04 217.175182,10.04 217.134182,10 C217.015182,10.04 216.975182,10.279 217.015182,10.358 L217.015182,10.358 Z M217.079167,11.484158 C217.079167,11.365158 217.000167,11.365158 217.000167,11.285158 C217.000167,11.126158 217.199167,11.165158 217.199167,11.006158 C217.239167,10.967158 217.239167,11.126158 217.319167,11.126158 C217.239167,11.365158 217.119167,11.524158 217.039167,11.723158 C217.079167,11.603158 217.039167,11.524158 217.079167,11.484158 L217.079167,11.484158 Z M216.035278,11.198 C216.076278,11.159 216.154278,11.039 216.115278,11 C216.035278,11 216.035278,11.159 216.035278,11.198 C215.956278,11.198 216.035278,11.278 216.035278,11.198 L216.035278,11.198 Z M216.039167,14.119 C216.000167,14.119 216.000167,14.079 216.000167,14 C216.039167,14 216.118167,14.079 216.039167,14.119 L216.039167,14.119 Z M216.039167,11 C216.039167,11 216.039167,11.04 216.000167,11.04 C216.118167,11.159 216.118167,11 216.039167,11 L216.039167,11 Z M216.198722,12.697708 C216.078722,12.697708 216.276722,12.538708 216.078722,12.538708 C216.078722,12.657708 216.039722,12.737708 216.039722,12.936708 C215.919722,12.618708 216.078722,11.862708 216.435722,12.021708 C216.396722,12.300708 216.276722,12.499708 216.198722,12.697708 L216.198722,12.697708 Z M216.053056,13 C216.053056,13.039 215.934056,13.159 216.053056,13.199 C215.974056,13.159 216.094056,13.079 216.053056,13 L216.053056,13 Z M216.079167,11.0952616 C216.079167,11.0152616 216.079167,10.9762616 216.000167,11.0152616 C216.000167,11.0952616 216.000167,11.1352616 216.079167,11.1352616 L216.079167,11.0952616 Z M216.0175,12 C216.0175,12.08 215.9785,12.12 216.0175,12.12 C216.0575,12.12 216.0975,12 216.0175,12 L216.0175,12 Z M216.000167,14.0865098 L216.000167,14.0065098 C216.079167,13.9665098 216.079167,14.1255098 216.000167,14.0865098 L216.000167,14.0865098 Z M216.040167,12 C216.040167,12.04 216.000167,12.12 216.000167,12.159 C216.079167,12.159 216.120167,12.04 216.040167,12 L216.040167,12 Z M216.035722,12 C216.035722,12 215.955722,12.12 216.035722,12.12 C216.035722,12.12 216.115722,12 216.035722,12 L216.035722,12 Z M216.000167,13.597 C216.040167,13.716 216.200167,13.716 216.239167,13.796 C216.160167,13.557 216.478167,13.239 216.319167,13 C216.239167,13.199 216.200167,13.358 216.200167,13.597 L216.000167,13.597 Z M216.053056,13 C216.053056,13.04 215.934056,13.159 216.053056,13.199 C216.053056,13.159 216.213056,13 216.053056,13 L216.053056,13 Z M215.000167,14.1896667 C215.080167,14.2696667 215.080167,14.1896667 215.120167,14.2296667 C215.120167,14.1896667 215.200167,14.1496667 215.120167,14.0706667 C215.280167,14.0706667 215.120167,13.9116667 215.120167,14.0706667 C215.120167,14.1106667 215.080167,14.1896667 215.000167,14.1896667 L215.000167,14.1896667 Z M215.062149,13.04 C214.863149,13.199 215.221149,13 215.062149,13 L215.062149,13.04 Z M216.732711,9.97195122 L216.732711,9.87439024 C216.687949,9.87439024 216.687949,9.97195122 216.598424,9.97195122 C216.598424,9.58292683 216.822236,9.43780488 216.822236,9 C216.465255,9.19512195 216.598424,9.77804878 216.286206,10.0207317 C216.330968,10.0207317 216.420493,10.0207317 216.420493,10.0682927 C216.1978,10.0682927 216.420493,10.4085366 216.286206,10.4085366 C216.241443,10.4085366 216.330968,10.2146341 216.1978,10.2634146 C216.063512,11.0390244 215.752413,11.3304878 215.752413,11.9609756 C215.441314,12.2036585 215.396552,12.7865854 215.217502,13.0780488 C215.35179,13.4170732 214.861641,13.7085366 215.039571,14 C215.084334,13.902439 215.084334,13.7560976 215.262265,13.7085366 C215.262265,13.4170732 215.441314,13.2719512 215.530839,13.0780488 C215.484958,12.8341463 215.484958,12.5926829 215.619245,12.397561 C215.664008,12.4463415 215.798295,12.495122 215.752413,12.6402439 C215.664008,12.6402439 215.619245,12.6402439 215.619245,12.6890244 C215.619245,12.7865854 215.798295,12.6402439 215.841938,12.6890244 C216.1978,11.6707317 216.687949,10.845122 217.000167,9.58292683 C216.865879,9.72926829 216.865879,9.87439024 216.732711,9.97195122 L216.732711,9.97195122 Z M215.145556,15 C215.225556,15.238 214.907556,15.477 215.027556,15.755 C215.027556,15.437 215.385556,15.159 215.145556,15 L215.145556,15 Z M215.120167,15 L215.000167,15 L215.120167,15 Z M215.035722,14 C215.035722,14.079 214.955722,14.199 215.035722,14.199 C215.074722,14.199 215.074722,14.039 215.035722,14 L215.035722,14 Z M215.0175,15 C215.0175,15.04 214.9785,15.04 215.0175,15.119 C215.0175,15.04 215.0975,15 215.0175,15 L215.0175,15 Z M215.000167,17.039 L215.080167,17.039 L215.080167,17 L215.000167,17 L215.000167,17.039 Z M215.040167,14.079 L215.040167,14.159 L215.000167,14.159 L215.000167,14.039 C215.040167,14.039 215.040167,14.039 215.040167,14 L215.040167,14.079 Z M215.080167,15 C215.080167,15.039 215.080167,15.119 215.000167,15.119 C215.000167,15.039 215.000167,15 215.080167,15 L215.080167,15 Z M215.079167,17.119 C215.079167,17.119 215.159167,17 215.040167,17 L215.000167,17.119 L215.079167,17.119 Z M215.040167,18 C215.120167,18 215.079167,18.279 215.000167,18.319 C215.000167,18.199 215.000167,18.12 215.040167,18 L215.040167,18 Z M214.232057,15.0413396 C214.232057,14.9994767 214.232057,14.9576138 214.272057,14.8330717 C214.151057,15.0413396 213.913057,15.4997384 214.033057,15.7080063 C214.112057,15.4997384 214.112057,15.2496075 214.232057,15.1658817 C214.431057,15.2914704 214.033057,15.6242805 214.232057,15.7498692 C214.272057,15.7498692 214.431057,15.6242805 214.431057,15.7080063 C214.391057,15.8744113 214.311057,16 214.470057,16 C214.550057,15.9162742 214.391057,15.9581371 214.431057,15.8744113 L214.550057,15.8744113 C214.550057,15.8744113 214.470057,15.6661434 214.550057,15.6661434 C214.550057,15.7080063 214.589057,15.7498692 214.630057,15.7498692 L214.630057,15.5416013 C214.550057,15.4997384 214.550057,15.6661434 214.431057,15.6242805 C214.391057,15.2914704 214.550057,14.9994767 214.589057,14.6248038 C214.669057,14.6248038 214.669057,14.7503925 214.669057,14.6248038 L214.669057,14.7503925 C214.828057,14.7912088 214.789057,14.6248038 214.789057,14.5839874 C214.789057,14.5421245 214.669057,14.5421245 214.669057,14.5002616 L214.669057,14.2919937 C214.789057,14.3757195 214.828057,14.3757195 214.828057,14.2501308 C214.789057,14.2919937 214.789057,14.2501308 214.789057,14.166405 C214.789057,14.2082679 214.828057,14.166405 214.907057,14.166405 C214.907057,14.0418629 214.828057,14.0418629 214.789057,14 L214.789057,14.166405 C214.431057,14.3757195 214.589057,14.9576138 214.232057,15.0413396 L214.232057,15.0413396 Z M214.119167,17.279 C214.000167,17.319 214.000167,17.121 214.000167,17 C214.080167,17.08 214.119167,17.2 214.119167,17.279 L214.119167,17.279 Z M214.084362,18.199 L214.044362,18.199 C213.925362,18.199 214.084362,18.08 214.084362,18 C214.084362,18.04 214.164362,18.199 214.084362,18.199 L214.084362,18.199 Z M214.159167,17.198 C214.039167,17.239 214.039167,17.198 214.000167,17.119 C214.159167,17.119 214.278167,17 214.357167,17 C214.278167,17.159 214.278167,17.358 214.119167,17.358 C214.119167,17.319 214.159167,17.239 214.159167,17.198 L214.159167,17.198 Z M214.159167,18 C214.159167,18.12 214.000167,18.12 214.000167,18 L214.159167,18 Z M214.1765,19 L214.0175,19 C214.0175,19.039 213.9785,19.198 214.0175,19.198 C214.0575,19.079 214.0965,19.079 214.1765,19 L214.1765,19 Z M214.118167,17.08 C214.079167,17.08 214.079167,17.04 214.039167,17 C214.000167,17.04 214.000167,17.199 214.000167,17.239 C214.079167,17.239 214.039167,17.119 214.118167,17.08 L214.118167,17.08 Z M214.017944,17.239 C214.057944,17.199 214.177944,17.041 214.057944,17 C214.057944,17.041 214.017944,17.16 214.017944,17.239 C213.977944,17.358 214.017944,17.358 214.017944,17.239 L214.017944,17.239 Z M214.109187,19.0250932 C214.029187,18.9040932 213.910187,19.2620932 214.109187,19.2230932 L214.109187,19.0250932 Z M214.050492,20.238 C213.931492,20.238 214.050492,20 214.130492,20 C214.130492,20.119 214.130492,20.199 214.050492,20.238 L214.050492,20.238 Z M214.080167,18 C214.119167,18.079 214.000167,18.079 214.000167,18.198 C214.119167,18.198 214.199167,18 214.080167,18 L214.080167,18 Z M214.000167,19.08 L214.000167,19.041 L214.000167,19 C214.040167,19 214.040167,19.12 214.000167,19.08 L214.000167,19.08 Z M214.084362,18 C214.084362,18 213.925362,18.12 214.044362,18.12 C214.044362,18.04 214.124362,18 214.084362,18 L214.084362,18 Z M213.079167,21 C213.079167,21.079 213.039167,21.079 213.039167,21.12 C213.000167,21.12 213.000167,21.079 213.000167,21 L213.079167,21 Z M213.000167,20.0043354 L213.000167,20.1643354 C213.118167,20.2033354 213.118167,19.9653354 213.000167,20.0043354 L213.000167,20.0043354 Z M213.079167,18 C213.079167,18.121 213.000167,18.121 213.000167,18.16 C213.118167,18.199 213.198167,18 213.079167,18 L213.079167,18 Z M213.000167,18.121 C213.000167,18 213.000167,18 213.039167,18 C213.039167,18 213.079167,18.16 213.000167,18.121 L213.000167,18.121 Z M213.027824,21.438 C212.947824,21.279 213.066824,21.119 213.066824,21 C213.186824,21.04 213.106824,21.358 213.027824,21.438 L213.027824,21.438 Z M213.000167,22 C213.000167,21.5979899 213.119167,21.0664433 213.357167,20.8442211 C213.357167,20.7995533 213.278167,20.7995533 213.278167,20.66555 C213.477167,20.5773311 213.437167,20.1775544 213.597167,20 C213.636167,20.0435511 213.597167,20.13177 213.636167,20.13177 C213.477167,20.5773311 213.357167,21.1099944 213.159167,21.5097711 C213.159167,21.5979899 213.198167,21.5979899 213.239167,21.5979899 C213.119167,21.6437744 213.198167,22 213.000167,22 L213.000167,22 Z M213.109618,19 C213.029618,19.08 212.909618,19.319 213.109618,19.319 C213.109618,19.2 213.227618,19.08 213.109618,19 L213.109618,19 Z M213.063545,19.199 C212.943545,19.199 213.023545,19 213.063545,19 L213.063545,19.16 L213.063545,19.199 Z M213.000167,21.08 L213.120167,21.08 L213.120167,21 L213.000167,21 L213.000167,21.08 Z M213.493079,19.0029387 C213.626693,19.0473792 213.493079,18.775039 213.493079,18.7305985 C213.493079,18.5494183 213.850132,18.5049778 213.626693,18.3670985 C213.626693,18.2770781 213.671605,18.2326376 213.715395,18.2326376 C213.671605,18.3670985 213.893921,18.2326376 213.76143,18.1414777 C213.76143,18.2326376 213.76143,18.2326376 213.715395,18.2326376 C213.671605,18.0958978 213.76143,18.0958978 213.850132,18.0958978 C213.850132,17.9602975 213.805219,17.8235576 213.983746,17.7779777 C214.028658,17.6879573 213.850132,17.6879573 213.893921,17.5512175 C214.028658,17.5512175 213.983746,17.5967974 214.028658,17.5512175 C214.028658,17.2788773 214.297009,17.0076766 214.163395,16.6453161 C214.252096,16.5985966 214.252096,16.5541562 214.431746,16.5541562 C214.431746,16.3718364 214.252096,16.5085762 214.252096,16.3262564 C214.297009,16.3262564 214.431746,16.3262564 214.475535,16.281816 C214.431746,15.9194554 214.698974,15.8282955 214.654061,15.420355 C214.698974,15.420355 214.8775,15.3291952 214.788798,15.2380353 C214.832588,15.2836152 214.654061,15.2836152 214.698974,15.1480149 C214.8775,15.1024349 214.967325,14.9212546 214.832588,14.6944944 C214.967325,14.6944944 214.921289,14.4677342 215.100939,14.5588941 C215.190763,14.6944944 215.057149,14.6944944 215.057149,14.8312343 C215.235675,14.6944944 215.235675,14.5588941 215.235675,14.4232938 C215.190763,14.4232938 215.057149,14.3321339 215.012237,14.3321339 C215.057149,14.195394 215.190763,14.195394 215.057149,14.0597937 C215.235675,14.0597937 215.413079,13.7418736 215.279465,13.4706729 C215.459114,13.4706729 215.502904,13.2439127 215.369289,13.1983327 C215.68143,13.1983327 215.502904,12.6536524 215.770132,12.4268922 C215.63764,12.4724721 215.726342,12.3824517 215.68143,12.2457119 C215.726342,12.2001319 215.904868,12.2457119 215.904868,12.2001319 C215.770132,12.2001319 215.770132,12.0189517 215.770132,11.9745112 L215.904868,11.9745112 C215.904868,11.7921914 215.904868,11.6110112 216.084518,11.5654312 C216.128307,11.6110112 216.128307,11.5654312 216.084518,11.5654312 C216.128307,11.3842509 216.442693,11.2486506 216.218132,10.8851505 C216.307956,10.8851505 216.396658,10.9307305 216.396658,10.8851505 C216.174342,10.6583903 216.621219,10.6128104 216.486482,10.3416097 C216.575184,10.3871896 216.575184,10.3871896 216.621219,10.3416097 C216.621219,9.97924913 216.708798,9.79692935 216.887325,9.57016913 C216.932237,9.52458918 216.843535,9.52458918 216.843535,9.38898884 C216.932237,9.43456879 216.932237,9.38898884 216.932237,9.25224901 C216.932237,9.29782896 216.977149,9.29782896 217.066974,9.29782896 C217.111886,9.11664867 216.932237,8.845448 217.2455,8.79986806 C217.2455,8.48194794 217.470061,8.11958738 217.602553,7.75608732 C217.602553,7.80166727 217.602553,7.89282716 217.648588,7.89282716 C217.648588,7.75608732 217.692377,7.75608732 217.781079,7.62048699 C217.692377,7.53046659 217.648588,7.71050738 217.648588,7.57604654 C217.648588,7.34928631 217.827114,7.30256687 217.870904,7.07694614 L217.915816,7.07694614 C217.870904,7.25812642 218.050553,7.07694614 217.915816,7.07694614 C218.050553,6.89576586 218.050553,6.5322658 218.272868,6.48668586 C218.140377,6.1243253 218.541219,6.1243253 218.451395,5.71638479 C218.541219,5.76082524 218.541219,5.71638479 218.586132,5.71638479 C218.586132,5.26172484 218.898272,5.08054456 218.988096,4.62816361 C219.122833,4.62816361 219.122833,4.44698333 219.122833,4.26466355 L219.256447,4.26466355 C219.703325,3.04084203 220.462342,2.08822118 221.000167,1 C220.730693,1.22676023 220.462342,1.36350006 220.462342,1.77144057 L220.329851,1.77144057 C220.195114,2.36056135 219.524798,2.72292191 219.524798,3.40320259 C219.481009,3.40320259 219.524798,3.44878254 219.391184,3.44878254 C219.302482,3.94788293 218.854482,4.26466355 218.854482,4.67374355 C218.719746,4.76262445 218.675956,4.89936428 218.675956,5.12612451 C218.318904,5.48962457 218.318904,6.1243253 217.915816,6.48668586 C217.915816,6.80460597 217.692377,6.89576586 217.648588,7.07694614 C217.648588,7.21254648 217.648588,7.34928631 217.470061,7.34928631 C217.424026,7.48488665 217.602553,7.48488665 217.513851,7.53046659 C217.380237,7.62048699 217.424026,7.9384071 217.2455,7.9384071 C217.291535,8.11958738 217.111886,8.48194794 216.977149,8.57310783 C216.932237,9.20780856 216.575184,9.52458918 216.442693,10.0692695 C216.396658,10.0692695 216.442693,10.2060094 216.307956,10.1604294 C216.307956,10.2060094 216.396658,10.2060094 216.396658,10.3416097 C216.174342,10.4783495 216.218132,10.8851505 216.039605,10.9763104 C215.904868,11.6110112 215.63764,12.1101116 215.459114,12.6536524 C215.413079,12.6536524 215.413079,12.6992323 215.369289,12.6992323 C215.279465,13.1083123 215.057149,13.8330335 214.788798,14.195394 C214.788798,14.8312343 214.431746,15.3291952 214.297009,15.8282955 C214.297009,15.8738755 214.297009,15.8738755 214.207184,15.8738755 C214.207184,15.9194554 214.297009,15.9194554 214.252096,16.0550558 C213.76143,17.3244572 213.314553,18.6394386 213.000167,20 C213.089991,19.9555596 213.089991,19.7732398 213.224728,19.547619 C213.268518,19.5920595 213.314553,19.5920595 213.314553,19.5008996 C213.089991,19.5008996 213.314553,19.2285594 213.358342,19.2285594 C213.358342,19.3197193 213.358342,19.3197193 213.448167,19.3197193 C213.448167,19.184119 213.493079,19.138539 213.493079,19.0473792 L213.493079,19.0029387 Z M212.175234,20 C212.175234,20.358 211.937234,20.637 212.016234,20.916 C212.096234,20.597 212.374234,20.358 212.175234,20 L212.175234,20 Z M212.0175,25 C212.0175,25.041 211.9785,25.041 212.0175,25.08 C212.0175,25.041 212.0585,25.041 212.0175,25 L212.0175,25 Z M212.17223,25.439 C212.17223,25.24 212.45023,25.24 212.33023,25 C212.25123,25.24 211.93223,25.439 212.01323,25.558 C211.97223,25.439 212.17223,25.558 212.17223,25.439 L212.17223,25.439 Z M210.000167,20.0306667 C210.000167,20.1506667 210.079167,20.1896667 210.118167,20.2296667 C210.118167,20.1506667 210.079167,20.1506667 210.118167,20.0706667 C210.159167,20.0706667 210.079167,19.9116667 210.118167,20.0706667 C210.079167,20.0706667 210.079167,20.0306667 210.000167,20.0306667 L210.000167,20.0306667 Z M210.024837,22 C209.983837,22.039 209.983837,22.198 210.103837,22.198 C210.103837,22.119 210.142837,22 210.024837,22 L210.024837,22 Z M210.036443,21 C209.995443,21 209.956443,21.199 210.115443,21.199 C210.115443,21.119 210.154443,21 210.036443,21 L210.036443,21 Z M210.120167,20 C210.041167,20 210.000167,20.039 210.000167,20.079 C210.041167,20.079 210.120167,20.039 210.120167,20 L210.120167,20 Z M210.063826,20.159 C210.022826,20.119 210.181826,20.08 210.063826,20 C210.022826,20.119 209.943826,20.119 210.063826,20.159 C210.063826,20.239 210.142826,20.159 210.063826,20.159 L210.063826,20.159 Z M210.017944,22 C210.017944,22.041 209.977944,22.12 210.017944,22.12 C210.017944,22.12 210.097944,22.041 210.017944,22 L210.017944,22 Z M210.000167,25 C210.000167,25.12 210.000167,25.159 210.079167,25.159 C210.079167,25.12 210.079167,25 210.000167,25 L210.000167,25 Z M210.000167,23.12 L210.079167,23.12 L210.079167,23 L210.000167,23 L210.000167,23.12 Z M210.238167,19.16 L210.238167,19.08 C210.199167,19 210.120167,19.12 210.000167,19 C210.000167,19.16 210.040167,19.199 210.079167,19.24 C210.040167,19.08 210.238167,19.24 210.238167,19.16 L210.238167,19.16 Z M210.000167,24 C210.000167,24.08 210.039167,24.08 210.039167,24.12 C210.079167,24.041 210.039167,24.041 210.000167,24 L210.000167,24 Z M210.039167,24.159 C210.039167,24.118 210.079167,24 210.000167,24 L210.000167,24.118 C210.039167,24.118 210.039167,24.159 210.039167,24.159 L210.039167,24.159 Z M210.039167,22 C210.039167,22.079 210.000167,22.198 210.000167,22.239 C210.079167,22.239 210.079167,22 210.039167,22 L210.039167,22 Z M210.000167,21.119 L210.039167,21.119 L210.039167,21 L210.000167,21 L210.000167,21.119 Z M210.010671,21 C210.010671,21.079 209.969671,21.199 210.049671,21.238 C210.049671,21.199 210.049671,21.079 210.010671,21 L210.010671,21 Z M209.000167,16 L209.000167,16.04 L209.000167,16 Z M209.039167,14.1296456 C209.000167,14.1296456 209.000167,14.0506456 209.000167,14.0106456 C209.039167,13.9706456 209.039167,14.0506456 209.039167,14.1296456 L209.039167,14.1296456 Z M209.000167,24.12 L209.118167,24.12 L209.118167,24 L209.000167,24 L209.000167,24.12 Z M209.000167,25 C209.041167,25 209.120167,25.039 209.120167,25 L209.000167,25 Z M209.000167,21.2444709 C209.000167,21.2899723 209.079167,21.2899723 209.118167,21.3776457 C209.000167,21.8637337 209.079167,22.5706698 209.079167,23.2321046 C209.079167,23.8069758 208.959167,24.4262386 209.159167,24.73587 C209.118167,24.8235434 209.000167,24.9556084 209.159167,25 C209.000167,23.6749108 209.317167,22.7027348 209.118167,21.5108205 L209.198167,21.5108205 C209.159167,21.1567975 209.317167,20.5397543 209.198167,19.9648831 C209.198167,19.9204915 209.317167,19.9648831 209.317167,19.8760999 C209.159167,19.3911217 209.396167,18.8606421 209.317167,18.3301625 C209.317167,18.1980975 209.357167,18.1980975 209.396167,18.1537059 C209.198167,17.6687277 209.516167,16.8730083 209.396167,16.1671819 C209.516167,16.1671819 209.437167,16.0783987 209.555167,16.0783987 C209.317167,15.7698771 209.555167,15.5046373 209.516167,15.1950059 C209.555167,15.1073325 209.555167,15.2837891 209.635167,15.1073325 C209.635167,15.0629409 209.516167,15.1073325 209.516167,14.9741577 C209.635167,14.2683314 209.635167,13.2961554 209.675167,12.5015458 C209.555167,12.590329 209.715167,12.722394 209.555167,12.7667856 C209.555167,12.104241 209.675167,11.7069362 209.555167,11 C209.516167,13.4282204 209.159167,15.7254855 209.198167,18.0671423 C208.959167,19.0370987 209.159167,20.0525565 209.000167,21.2444709 L209.000167,21.2444709 Z M208.039167,6.079 C208.039167,6.119 208.039167,6.119 208.000167,6.119 C208.078167,6.238 208.078167,6.119 208.078167,6.079 L208.119167,6.079 L208.119167,6 C208.078167,6.04 208.078167,6.04 208.078167,6.079 L208.039167,6.079 Z M207.164255,6.239 C207.125255,6.159 207.285255,6.08 207.164255,6 C207.164255,6.159 206.966255,6.199 207.005255,6.318 C207.045255,6.239 207.125255,6.239 207.164255,6.239 L207.164255,6.239 Z M206.034397,10.2518889 C206.034397,10.2118889 206.074397,10.2118889 206.074397,10.0528889 C206.193397,10.0528889 206.034397,9.93388889 206.074397,10.0528889 C206.034397,10.1328889 205.954397,10.2518889 206.034397,10.2518889 L206.034397,10.2518889 Z M206.0175,10.0177778 C206.0585,10.0177778 206.0175,9.97777778 206.0175,10.0177778 C205.9785,10.0177778 206.0175,10.0977778 206.0175,10.0177778 L206.0175,10.0177778 Z M206.323878,8.81053051 C206.163896,9.09533307 205.970786,9.66613482 206.003914,10 C206.292366,9.09533307 206.614755,8.14280016 206.935527,7.14359793 C206.967847,7.09573195 207.000167,7.09573195 207.000167,7 C206.935527,7 206.903208,7.04786598 206.935527,7.14359793 C206.646267,7.61866773 206.486284,8.14280016 206.323878,8.81053051 L206.323878,8.81053051 Z M206.0535,10 C206.0535,10 205.9335,10.2 206.0535,10.239 C206.0125,10.16 206.1715,10.08 206.0535,10 L206.0535,10 Z M205.017944,11 C205.017944,11.04 204.977944,11.199 205.017944,11.199 C205.017944,11.08 205.176944,11.04 205.017944,11 L205.017944,11 Z M205.000167,10.08 L205.039167,10.08 L205.039167,10 L205.000167,10 L205.000167,10.08 Z M205.256457,11.3915893 C205.256457,10.9557619 205.655457,10.5221191 205.655457,10 C205.415457,10.609503 204.899457,11.3915893 205.017457,12 C205.097457,11.8263244 205.058457,11.5215729 205.256457,11.3915893 L205.256457,11.3915893 Z M205.039167,12 C205.039167,12.04 205.000167,12.04 205.000167,12.12 C205.118167,12.16 205.118167,12 205.039167,12 L205.039167,12 Z M204.397167,12 C204.279167,12.3335872 204.119167,12.6671744 204.000167,13 C204.240167,12.7578065 204.477167,12.3335872 204.397167,12 L204.397167,12 Z M204.000167,14 C204.000167,14.04 204.000167,14.16 204.040167,14.16 C204.040167,14.16 204.159167,14 204.000167,14 L204.000167,14 Z M204.159167,14 C204.080167,14.119 204.000167,14.119 204.000167,14.159 C204.040167,14.198 204.159167,14.159 204.159167,14 L204.159167,14 Z M204.000167,14.04 C204.000167,14.04 204.041167,14.04 204.041167,14 C204.041167,14 204.000167,14 204.000167,14.04 L204.000167,14.04 Z M204.035278,16 C204.035278,16.04 203.956278,16.04 204.035278,16.159 C204.076278,16.04 204.115278,16.04 204.035278,16 L204.035278,16 Z M204.145226,14.5600804 C204.186226,14.6807441 204.066226,14.6807441 204.066226,14.7199598 C204.186226,14.760181 204.145226,14.5600804 204.186226,14.5600804 L204.225226,14.5600804 C204.225226,15.0799397 203.907226,15.4409251 204.027226,16 C204.186226,15.4409251 204.304226,14.9200603 204.424226,14.3599799 C204.424226,14.3207642 204.583226,14.0402212 204.424226,14 C204.345226,14.1196581 204.424226,14.4404223 204.225226,14.4806435 C204.186226,14.3599799 204.384226,14.2403218 204.186226,14.1598793 L204.186226,14.5600804 L204.145226,14.5600804 Z M203.0175,17 C203.0175,17.08 202.9785,17.24 203.0175,17.24 C203.0175,17.16 203.0975,17.08 203.0175,17 L203.0175,17 Z M203.023367,19 C203.102367,19.119 202.943367,19.119 203.023367,19.159 C203.023367,19.119 203.141367,19 203.023367,19 L203.023367,19 Z M203.010293,17.0218115 C203.010293,17.1008115 202.970293,17.1008115 203.049293,17.1408115 C203.090293,17.1008115 203.169293,16.9428115 203.010293,17.0218115 L203.010293,17.0218115 Z M203.004033,19 C203.163033,18.3639132 203.322033,17.6364675 203.441033,16.9090217 C203.561033,16.6829083 203.640033,16.2740769 203.601033,16 C203.441033,16.2272554 203.521033,16.5470118 203.441033,16.9090217 C203.243033,17.500571 202.964033,18.2725542 203.004033,19 L203.004033,19 Z M203.088611,18 C203.088611,18.08 202.889611,18.199 203.088611,18.199 C203.088611,18.199 203.207611,18 203.088611,18 L203.088611,18 Z M202.159167,20 C202.039167,20.119 202.000167,20.397 202.000167,20.596 C202.039167,20.437 202.238167,20.199 202.159167,20 L202.159167,20 Z M202.039167,19.0455393 C202.039167,19.0845393 202.000167,19.0455393 202.000167,19.0845393 C202.039167,19.2045393 202.238167,18.8865393 202.039167,19.0455393 L202.039167,19.0455393 Z M202.04548,21.279 C202.08648,21.279 202.12548,21.079 202.08648,21 C202.04548,21.079 202.04548,21.199 202.04548,21.279 C201.92548,21.279 202.08648,21.438 202.04548,21.279 L202.04548,21.279 Z M202.017944,22.0702222 C202.137944,22.0702222 201.977944,21.9122222 202.017944,22.0702222 C201.977944,22.0702222 202.017944,22.0702222 202.017944,22.0702222 L202.017944,22.0702222 Z M202.079167,23.12 C202.079167,23.12 202.079167,23 202.000167,23 C202.039167,23.12 202.000167,23.12 202.039167,23.12 L202.079167,23.12 Z M202.000167,20 L202.039167,20 L202.000167,20 Z M202.199167,22 C202.119167,22.24 202.119167,22.597 202.000167,22.875 C202.199167,22.677 202.239167,22.12 202.199167,22 L202.199167,22 Z M202.000167,24.0051466 L202.000167,24.0851466 C202.040167,24.1641466 202.040167,23.9661466 202.000167,24.0051466 L202.000167,24.0051466 Z M202.058667,23 C201.980667,23.039 201.980667,23.198 202.058667,23.277 C202.058667,23.159 202.178667,23.118 202.058667,23 L202.058667,23 Z M202.088611,24 C202.088611,24.198 201.889611,24.278 202.088611,24.437 C202.088611,24.239 202.167611,24 202.088611,24 L202.088611,24 Z M221.371476,20.048958 C221.323956,20.0943459 221.323956,20.2747627 221.371476,20.4097916 C221.371476,20.5005673 221.278754,20.3655384 221.278754,20.4551795 C221.278754,20.5005673 221.323956,20.4551795 221.323956,20.5005673 C221.555763,20.5005673 221.371476,20.0943459 221.555763,20.048958 C221.600965,20.3190159 221.555763,20.726372 221.508242,20.9975646 C221.555763,21.8088728 221.232392,22.4420336 221.278754,23.2556112 C221.232392,23.2998644 221.278754,23.660698 221.094467,23.7072205 C221.232392,24.3846345 220.910181,24.7454681 220.955383,25.6486868 C220.818617,26.6869344 220.724735,27.9055988 220.679533,29.1265325 L220.540448,29.1265325 C220.679533,29.5316193 220.632012,30.0286165 220.495246,30.3451969 C220.540448,30.5698669 220.540448,31.0214762 220.356162,31.1587745 C220.540448,33.8672958 220.079153,36.3057593 220.495246,39.1493095 C220.495246,39.2854731 220.540448,39.330861 220.540448,39.3762489 C220.863819,39.1050563 220.955383,38.6080591 221.323956,38.3380013 C221.555763,38.5184181 221.323956,38.9235048 221.371476,39.330861 C221.371476,39.420502 221.508242,39.2854731 221.555763,39.330861 C221.508242,39.5112778 221.647326,39.420502 221.600965,39.5566657 C221.647326,39.7370824 221.508242,39.7370824 221.508242,39.9174992 C221.508242,39.9617524 221.555763,39.9174992 221.555763,39.8721114 C221.555763,40.097916 221.555763,40.5052722 221.371476,40.77533 C221.278754,40.77533 221.323956,40.6391664 221.278754,40.6391664 C221.139669,40.77533 221.094467,40.910359 220.955383,40.77533 C220.910181,40.9557468 221.094467,40.910359 220.955383,41 C220.632012,40.910359 220.263439,40.5949132 219.894866,40.5495254 C219.849664,40.3691086 219.664218,40.3691086 219.571496,40.2340797 C219.295645,40.1433039 219.250443,40.008275 219.066157,39.9174992 C218.003322,38.3380013 218.326692,35.6283453 218.280331,33.1887471 C218.603702,27.5890183 219.111359,22.4420336 220.079153,16.8423048 C220.126673,15.8494451 220.263439,14.7658096 220.540448,13.7718152 C220.632012,13.7718152 220.540448,13.9533667 220.679533,13.9079789 C220.632012,13.7718152 220.771096,13.5471453 220.679533,13.5017574 C220.724735,13.4563695 220.679533,13.4563695 220.679533,13.3213406 C220.818617,13.3213406 220.771096,13.1863117 220.771096,13.0501481 C220.724735,12.960507 220.679533,13.1863117 220.540448,13.0501481 C220.679533,12.3273462 220.771096,11.4695154 220.955383,10.6570725 C221.094467,10.6570725 220.910181,10.8374893 221.094467,10.8374893 C221.094467,10.6116846 221.094467,10.4312678 221.232392,10.250851 C221.139669,9.6176902 221.278754,8.85063515 221.323956,8.17322116 C221.371476,8.12783328 221.508242,7.81125287 221.371476,7.72161182 C221.555763,7.5865829 221.555763,7.36077824 221.508242,7.0895857 C221.740049,5.59972878 222.018218,3.79329145 221.879133,1.76104946 C221.785252,1.94146625 221.600965,2.03224199 221.555763,2.21265879 C221.094467,2.43846345 221.278754,3.29629425 220.724735,3.52209891 C220.771096,3.52209891 220.771096,3.56748678 220.771096,3.70251571 L220.540448,3.70251571 C220.632012,3.97370824 220.495246,3.92832037 220.540448,4.19951291 C220.495246,4.24490078 220.402523,4.24490078 220.31096,4.24490078 C220.263439,4.74189799 220.079153,5.14811945 219.803302,5.41931199 C219.803302,5.37278942 219.803302,5.41931199 219.803302,5.41931199 C219.709421,5.82553345 219.525134,5.86978662 219.432411,6.23175491 C219.295645,6.23175491 219.295645,6.23175491 219.295645,6.18636703 C219.250443,6.4121717 219.250443,6.63797637 219.066157,6.99994465 C219.018636,6.99994465 219.066157,6.86378103 219.018636,6.86378103 C218.880711,7.0895857 218.880711,7.40503141 218.741627,7.63197077 C218.603702,7.5865829 218.880711,7.45155398 218.789147,7.31539036 C218.648904,7.40503141 218.648904,7.5865829 218.603702,7.72161182 C218.603702,7.81125287 218.603702,7.72161182 218.648904,7.72161182 C218.648904,7.90202862 218.603702,8.03819223 218.603702,8.12783328 C218.464618,8.12783328 218.603702,7.99280436 218.419415,7.99280436 C218.326692,8.08244541 218.326692,8.2628622 218.235129,8.39902582 C218.326692,8.44441369 218.326692,8.12783328 218.464618,8.17322116 C218.603702,8.39902582 218.280331,8.53518944 218.235129,8.80524728 L218.050842,8.80524728 C218.235129,8.9414109 218.050842,9.39188553 217.820194,9.48266128 C217.820194,9.34649766 217.866556,9.34649766 217.866556,9.25685661 C217.634749,9.6176902 217.543185,10.0250464 217.358899,10.4766557 C217.495665,10.5220436 217.495665,10.3404921 217.543185,10.3404921 C217.588387,10.5674314 217.358899,10.8374893 217.219814,11.0632939 C217.081889,11.0179061 217.311378,10.9725182 217.219814,10.8374893 C217.127092,10.9725182 216.942805,11.2437107 217.127092,11.3344865 C216.990326,11.3344865 216.942805,11.3787397 216.897603,11.5602911 C216.897603,11.6953201 217.035528,11.5602911 216.990326,11.5149033 C217.081889,11.6953201 216.897603,11.8757369 216.897603,12.0572884 C216.80488,12.0572884 216.80488,12.0572884 216.80488,11.9211247 C216.527871,12.4635098 216.388787,13.0955359 216.114095,13.6821742 C215.92865,13.7275621 216.114095,13.8172031 216.114095,13.9079789 C216.114095,14.0883956 216.066575,13.8172031 215.882289,13.9079789 C215.975011,14.2688124 215.698002,14.4049761 215.789566,14.7658096 C215.789566,14.9019733 215.698002,14.6761686 215.651641,14.7658096 C215.558918,14.9462264 215.789566,14.9019733 215.744363,14.9462264 C215.651641,14.9916143 215.558918,15.1266432 215.419834,15.1720311 C215.419834,15.217419 215.558918,15.1720311 215.651641,15.1720311 C215.558918,15.217419 215.558918,15.3524479 215.512557,15.4432236 L215.419834,15.4432236 C215.419834,15.3978358 215.32827,15.3978358 215.283068,15.3978358 C215.283068,15.5339994 215.374631,15.4432236 215.419834,15.4432236 C215.374631,15.6236404 215.512557,15.6236404 215.419834,15.7598041 C215.32827,15.8494451 215.32827,15.7598041 215.283068,15.7598041 C215.283068,16.2568013 215.051261,16.3906955 215.098781,16.7980516 C215.051261,16.8423048 215.006058,16.7980516 214.913336,16.7980516 C215.006058,17.0692442 214.868133,17.0692442 214.868133,17.2042731 C214.821772,17.2042731 214.821772,17.339302 214.821772,17.339302 L214.729049,17.339302 C214.821772,17.3846899 214.821772,17.339302 214.821772,17.339302 C214.868133,17.339302 214.868133,17.339302 214.868133,17.2042731 C215.006058,17.2042731 214.821772,17.4289431 214.868133,17.5662414 C214.637485,17.4289431 214.729049,17.6558824 214.543604,17.6558824 C214.498401,17.4754656 214.729049,17.2042731 214.498401,17.0692442 C214.637485,16.9330806 214.591124,16.6176348 214.868133,16.661888 C214.868133,16.5268591 214.729049,16.4360834 214.868133,16.3906955 C214.729049,16.3906955 214.729049,16.3906955 214.637485,16.3464423 C214.591124,16.1660255 214.729049,16.1206376 214.637485,16.1206376 C214.591124,15.9856087 214.591124,16.1206376 214.498401,15.9856087 C214.406838,16.1660255 214.45204,16.3906955 214.267753,16.4360834 C214.314115,17.1588852 213.806458,17.5662414 213.806458,18.2890433 C213.89918,18.3332964 213.852819,18.1528796 213.89918,18.1528796 C213.89918,18.2890433 213.89918,18.3332964 214.038265,18.4229375 C214.083467,18.3786843 214.038265,18.1528796 214.038265,18.0178507 C214.175031,18.0178507 214.083467,18.1982675 214.175031,18.1982675 C214.267753,18.4229375 214.083467,18.3786843 214.083467,18.5602358 C214.314115,18.5602358 214.314115,18.2890433 214.45204,18.1982675 C214.314115,18.5602358 214.406838,18.9653226 214.083467,19.1003515 C214.267753,19.2807683 214.038265,19.4169319 214.038265,19.5984834 C213.852819,19.6427366 214.038265,19.1911272 213.89918,19.371544 C213.806458,19.371544 213.89918,19.2365151 214.038265,19.1911272 C213.89918,19.146874 213.89918,19.0560983 213.89918,19.0107104 C213.89918,18.8745468 213.89918,19.1003515 214.038265,19.1003515 C214.267753,18.9653226 213.89918,19.0107104 214.038265,18.8291589 C213.89918,18.69413 213.89918,18.9653226 213.806458,18.8291589 C213.806458,18.7849058 213.622171,18.69413 213.761255,18.5602358 C213.437885,18.8291589 213.622171,19.1911272 213.346321,19.371544 C213.298801,19.5519608 213.346321,19.5984834 213.298801,19.7789002 C213.391523,19.7789002 213.483087,19.7789002 213.483087,19.6427366 C213.57581,19.6427366 213.622171,19.6427366 213.622171,19.5984834 C213.622171,19.5077076 213.483087,19.5984834 213.483087,19.6427366 C213.483087,19.6427366 213.437885,19.6427366 213.437885,19.5984834 C213.391523,19.5077076 213.57581,19.5077076 213.622171,19.5077076 C213.483087,19.371544 213.761255,19.146874 213.852819,19.0560983 C213.668533,19.4169319 213.761255,19.7789002 213.57581,20.1851216 C213.483087,20.2293748 213.483087,20.0943459 213.346321,20.1851216 C213.437885,20.3190159 213.437885,20.3655384 213.346321,20.4551795 C213.069312,20.2747627 213.391523,20.048958 213.298801,19.7789002 C213.069312,20.0047048 213.162034,20.3655384 213.02295,20.5902084 L213.069312,20.5902084 L213.069312,20.8614009 C212.930228,20.8614009 213.02295,20.7717599 212.885025,20.726372 C212.608016,21.6295907 212.376209,22.4885562 212.14672,23.436028 C212.053997,23.436028 212.007636,23.4802812 212.007636,23.5710569 C212.0992,23.5710569 212.14672,23.5268038 212.14672,23.436028 C212.560495,22.758614 212.560495,22.2173636 212.837505,21.5842028 C212.792302,21.5842028 212.792302,21.6295907 212.792302,21.6749786 C212.653218,21.6295907 212.792302,21.4945618 212.792302,21.3130103 C212.837505,21.4480392 212.930228,21.4945618 212.930228,21.6295907 C213.069312,21.6295907 213.02295,21.4480392 213.162034,21.4480392 C212.885025,22.2616168 212.560495,23.0298065 212.331007,23.8411148 C212.42257,23.8876373 212.515293,23.7514737 212.560495,23.7072205 C212.42257,23.5710569 212.515293,23.2556112 212.792302,23.2556112 C212.653218,22.8493898 213.02295,22.6224504 213.069312,22.3070047 C213.253598,22.9378961 212.608016,23.2998644 212.653218,23.7514737 C212.515293,23.9318905 212.376209,24.113442 212.376209,24.4742756 C212.376209,24.4742756 212.376209,24.3846345 212.331007,24.3846345 C212.331007,24.5185288 212.376209,24.5185288 212.376209,24.6989456 C212.331007,24.6989456 212.376209,24.6546924 212.331007,24.5185288 C212.0992,24.6546924 212.191922,24.7897213 212.191922,24.9701381 C211.916072,25.7394625 211.54634,26.7311876 210.761674,27.0942905 C210.162453,27.0942905 209.748678,27.1839316 209.564391,26.8673512 C209.516871,26.9116044 209.470509,26.9116044 209.331425,26.9116044 C209.194659,26.8219633 209.147139,26.5972933 208.91765,26.5972933 C207.902336,25.7394625 208.04142,23.7072205 208.179345,22.2173636 C208.225706,22.0812 208.086622,22.0812 208.086622,21.9904243 C208.225706,20.2747627 208.318429,18.1528796 208.456354,16.1660255 C208.640641,14.7658096 208.688161,13.2759527 208.824927,11.9665126 C208.91765,10.1146874 209.286223,7.99280436 208.595438,6.09672598 C208.456354,6.00595024 208.503875,6.14211386 208.409993,6.14211386 C207.857133,6.99994465 207.16519,7.67735865 206.841819,8.80524728 C206.657532,8.85063515 206.61233,9.07643982 206.428044,9.21146874 C206.428044,9.30224449 206.56481,9.34649766 206.56481,9.43727341 C206.334162,9.6176902 206.195078,9.84349487 206.149875,10.1146874 C206.149875,10.1600753 206.103514,10.1600753 206.01195,10.1146874 C205.965589,10.2962389 206.103514,10.2962389 206.103514,10.2962389 C205.7361,11.6499322 205.042997,12.5531509 204.765988,13.9987546 C204.720786,14.1791714 204.628063,14.3142003 204.536499,14.4957518 C204.628063,14.7658096 204.443776,15.3978358 204.074044,15.5339994 C204.166767,15.9402209 203.936119,16.2568013 203.844556,16.5268591 C203.936119,16.9330806 203.889758,17.339302 203.660269,17.5662414 C203.660269,17.8816871 203.660269,18.1982675 203.475983,18.4229375 C203.660269,18.8745468 202.968325,19.371544 203.197814,19.9139291 C203.105091,20.048958 203.059889,20.1851216 202.968325,20.2747627 C203.059889,20.4551795 202.968325,20.726372 202.875603,20.8171478 C202.691316,22.3523925 202.367946,23.660698 202.137298,25.1982122 C202.137298,25.8733568 202.044575,26.8673512 201.860288,27.5447652 C201.860288,28.3583428 201.860288,29.1707857 201.676002,29.9378408 C201.721204,31.2484156 201.584438,33.0537182 201.721204,34.6343509 C201.721204,34.678604 201.676002,34.8147677 201.676002,34.9497966 C202.367946,35.943791 200.615485,35.8995378 200.15303,35.4479285 C200.107828,35.1313481 200.15303,34.9951845 200.061467,34.8147677 C200.061467,33.8207733 199.923542,33.0537182 200.061467,32.0608585 C200.061467,30.977223 200.199392,29.5316193 200.339635,28.177926 L200.339635,27.9509866 C201.35379,19.6427366 203.197814,12.0572884 206.796617,6.14211386 C207.256753,5.68936983 207.672847,5.01195583 208.503875,4.96770265 C208.640641,4.96770265 208.640641,4.96770265 208.640641,5.01195583 C208.824927,4.96770265 208.872447,4.87579221 209.147139,4.87579221 C209.609593,4.96770265 209.885444,5.14811945 210.162453,5.41931199 C210.346739,5.7347577 210.577387,6.00595024 210.67011,6.4121717 C210.67011,6.95455678 210.67011,7.63197077 210.854397,8.12783328 C210.809194,8.62483049 210.900758,9.03218664 210.947119,9.48266128 C210.761674,9.88888274 210.809194,10.6116846 210.67011,11.2437107 C210.67011,11.2890986 210.716471,11.3344865 210.67011,11.4695154 C210.532185,11.9665126 210.761674,12.960507 210.346739,13.2759527 C210.577387,13.5471453 210.577387,14.4957518 210.162453,14.6307807 C210.301537,14.6761686 210.301537,14.6307807 210.346739,14.6307807 C210.39426,15.30706 210.301537,15.894833 210.301537,16.572247 L210.117251,16.572247 C210.070889,16.7084106 210.301537,16.6176348 210.301537,16.7084106 C210.162453,17.339302 210.301537,17.7466582 210.162453,18.2890433 C210.117251,18.4229375 210.301537,18.3332964 210.301537,18.4229375 C209.885444,19.2807683 210.162453,20.3190159 210.070889,21.3130103 C210.024528,21.403786 210.024528,21.3130103 209.932964,21.3130103 C209.885444,21.4945618 210.117251,21.403786 210.070889,21.5388149 C210.117251,21.6295907 210.024528,21.6749786 209.932964,21.7192317 C210.162453,22.8493898 209.932964,24.2496056 210.070889,25.3321064 C211.131406,23.8876373 211.407256,21.5842028 212.331007,19.8685412 L212.331007,19.5984834 C212.837505,18.5602358 213.02295,17.3846899 213.483087,16.4360834 C213.57581,16.3906955 213.437885,16.3906955 213.483087,16.2568013 C214.406838,13.9079789 215.32827,11.5149033 216.250862,9.07643982 C216.343584,9.07643982 216.343584,8.9414109 216.388787,8.89602303 C217.081889,7.18036144 217.866556,5.64511665 218.741627,4.15412504 C219.432411,2.57462707 220.263439,1.26405225 221.371476,0.136163618 C221.508242,0.136163618 221.508242,0.271192539 221.508242,0.361968284 C221.785252,0.271192539 221.925495,0.0907757452 222.202504,0.0453878726 C222.292909,0.136163618 222.109781,0.136163618 222.154984,0.271192539 C222.384472,0.271192539 222.523557,0.0907757452 222.754205,0 C222.846927,0 222.846927,0.136163618 222.894448,0.136163618 C223.031214,0.136163618 223.031214,0.0907757452 223.2155,0.0907757452 C223.2155,0.136163618 223.263021,0.136163618 223.2155,0.271192539 C223.723157,0.496997205 223.631594,1.21979908 224.000167,1.58063266 C223.814721,2.03224199 224.046528,2.79929704 223.814721,3.2066532 C223.861083,3.34168212 223.861083,3.79329145 223.814721,4.06448399 C223.769519,4.15412504 223.631594,4.19951291 223.631594,4.19951291 C223.584073,4.47070545 223.861083,4.92231478 223.631594,5.28314837 C223.584073,5.28314837 223.631594,5.19237262 223.584073,5.19237262 C223.538871,5.2377605 223.584073,5.46469986 223.447307,5.41931199 C223.631594,5.55434091 223.631594,6.14211386 223.447307,6.14211386 C223.631594,6.23175491 223.538871,6.95455678 223.308223,6.9091689 C223.354584,7.18036144 223.308223,7.45155398 223.170298,7.5865829 C223.170298,7.67735865 223.263021,7.63197077 223.308223,7.63197077 C223.308223,7.72161182 223.263021,7.81125287 223.170298,7.72161182 C223.263021,7.81125287 223.308223,7.99280436 223.2155,8.08244541 C223.170298,8.17322116 223.123937,8.03819223 223.031214,7.99280436 C222.986011,8.08244541 223.123937,8.30825008 223.263021,8.30825008 C223.123937,8.39902582 223.123937,8.67021836 222.894448,8.80524728 C222.986011,8.9414109 223.123937,9.03218664 223.170298,9.12182769 C222.986011,10.250851 222.986011,10.8374893 222.754205,11.9665126 C222.754205,12.0572884 222.616279,11.9211247 222.568759,11.9665126 C222.523557,12.1015415 222.754205,12.0572884 222.754205,12.1015415 C222.754205,12.4635098 222.568759,12.6893145 222.616279,13.0047602 C222.568759,13.0501481 222.523557,13.0501481 222.384472,13.0501481 C222.384472,13.1409238 222.523557,13.1409238 222.568759,13.2759527 C222.523557,14.7215565 222.018218,16.4360834 221.970697,17.9724628 C221.785252,18.8291589 221.785252,19.371544 221.600965,20.048958 L221.555763,20.048958 C221.555763,19.9139291 221.508242,20.0943459 221.371476,20.048958 L221.371476,20.048958 Z" id="Fill-16"></path>
                <path d="M236.414167,23.118 C236.297167,23.236 236.237167,23.295 236.000167,23.354 C236.060167,23.236 236.060167,23.178 236.178167,23 C236.237167,23.118 236.237167,23.178 236.414167,23.118 L236.414167,23.118 Z M236.025944,23.0453349 C235.967944,22.9853349 236.025944,23.0453349 236.025944,23.0453349 C236.322944,22.8683349 236.025944,23.2833349 236.025944,23.0453349 L236.025944,23.0453349 Z M235.049508,23.0751367 C234.930508,23.0751367 235.049508,22.9581367 235.166508,23.0161367 C235.166508,23.0751367 235.049508,23.0751367 235.049508,23.0751367 L235.049508,23.0751367 Z M235.000167,24.1876987 L235.000167,24.0096987 L235.059167,24.0096987 C235.178167,23.9496987 235.178167,24.1876987 235.000167,24.1876987 L235.000167,24.1876987 Z M235.206682,24 C235.264682,24.06 235.087682,24.06 235.087682,24.178 C234.910682,24.118 235.028682,24 235.206682,24 L235.206682,24 Z M234.131152,23 C234.131152,23.059 233.953152,23.059 234.012152,23.059 C234.072152,23.118 234.310152,23.059 234.131152,23 L234.131152,23 Z M234.357167,24 C234.357167,24.238 234.119167,24.238 234.000167,24.238 C234.059167,24.06 234.178167,24.06 234.357167,24 L234.357167,24 Z M234.238167,25 L234.000167,25 L234.238167,25 Z M234.000167,25 L234.117167,25 L234.000167,25 Z M233.000167,25.059 C233.060167,25.059 233.060167,25.059 233.060167,25 C233.060167,25 233.000167,25 233.000167,25.059 L233.000167,25.059 Z M233.000167,25.059 C233.060167,25.059 233.060167,25.059 233.060167,25 C233.060167,25 233.000167,25 233.000167,25.059 L233.000167,25.059 Z M232.060167,25 L232.000167,25 L232.000167,25.178 C232.000167,25.059 232.177167,25.178 232.060167,25 L232.060167,25 Z M232.296167,25 C232.237167,25.238 232.000167,25 232.000167,25.238 C232.060167,25.296 232.416167,25.179 232.296167,25 L232.296167,25 Z M232.000167,25.178 C232.179167,25.178 232.179167,25 232.119167,25 L232.000167,25.059 L232.000167,25.178 Z M232.000167,25.059 C232.000167,25.237 232.177167,25.178 232.237167,25.237 C232.237167,25.178 232.295167,25.059 232.237167,25 C232.177167,25 232.177167,25.059 232.118167,25.178 C232.058167,25.178 232.000167,25.059 232.000167,25.059 L232.000167,25.059 Z M232.000167,25.06 L232.119167,25.06 L232.119167,25 L232.000167,25 L232.000167,25.06 Z M232.217479,25.1419811 C232.277479,24.9639811 232.098479,24.9639811 232.039479,25.0829811 C231.920479,25.2599811 232.098479,25.0829811 232.217479,25.1419811 L232.217479,25.1419811 Z M230.026389,15 C230.086389,15 230.026389,15 230.026389,15 C229.967389,15.06 230.026389,15.06 230.026389,15 L230.026389,15 Z M230.007454,18.2095915 C230.210728,17.6833925 230.749007,17.6178952 230.884145,17.0916963 C231.489426,16.8940941 231.759701,16.1047957 232.297981,15.7761989 C232.498984,15.3809947 232.702258,14.9869005 232.971398,14.6571936 C232.971398,14.3940941 233.036128,14.2630995 232.971398,14.0643872 L232.903261,14 C231.220286,15.3809947 230.007454,17.2238011 229.000167,19 C229.269306,18.6714032 229.673584,18.6714032 229.807586,18.2095915 C229.874587,18.2750888 229.942724,18.2750888 230.007454,18.2095915 L230.007454,18.2095915 Z M229.533167,16 C229.354167,16.119 229.177167,16.296 229.000167,16.474 C229.236167,16.474 229.533167,16.119 229.533167,16 L229.533167,16 Z M228.117167,16.534 C228.000167,16.475 228.060167,16.593 228.000167,16.711 C228.060167,16.711 228.117167,16.593 228.117167,16.534 C228.236167,16.534 228.296167,16.415 228.236167,16.355 C228.414167,16.237 228.593167,16.177 228.593167,16 C228.355167,16 228.296167,16.177 228.236167,16.355 C228.117167,16.296 228.117167,16.415 228.117167,16.534 L228.117167,16.534 Z M228.000167,18.177 L228.000167,18 L228.000167,18.119 L228.000167,18.177 Z M228.177167,18 C228.177167,18.119 228.000167,18.119 228.000167,18.178 C228.177167,18.238 228.236167,18 228.177167,18 L228.177167,18 Z M227.0099,19.3751111 C227.1869,19.3161111 227.1869,19.3161111 227.1869,19.0791111 C227.3639,19.0791111 227.1869,18.9011111 227.1869,19.0791111 C227.1869,19.1381111 226.9499,19.3161111 227.0099,19.3751111 L227.0099,19.3751111 Z M227.040262,19.534 C227.099262,19.474 227.159262,19.474 227.159262,19.179 C227.159262,19.179 227.219262,19 227.159262,19 L227.159262,19.179 C227.099262,19.237 226.921262,19.474 227.040262,19.534 L227.040262,19.534 Z M236.339011,22.0726906 C236.142614,22.0726906 235.948411,22.2613342 235.948411,22.4531933 C235.883676,22.4531933 235.754208,22.6439806 235.754208,22.6439806 C235.883676,22.6439806 235.948411,22.6439806 235.948411,22.4531933 C236.142614,22.388883 236.27318,22.2613342 236.339011,22.0726906 L236.339011,21.94407 L236.533214,21.94407 C236.339011,22.388883 236.014242,22.6439806 235.754208,22.7693857 C235.688376,22.7693857 235.688376,22.7072191 235.622544,22.7072191 C235.297775,22.7693857 234.842441,23.0244833 234.582406,23.3417475 C234.842441,23.0887936 235.429439,23.2152706 235.429439,22.833696 C235.494173,22.9612448 235.429439,23.0887936 235.429439,23.2152706 C234.778803,23.4682245 234.192903,23.8508709 233.607002,24.1681351 C234.192903,24.0416582 234.778803,23.7865606 235.363607,23.4682245 C234.778803,24.1038248 233.672833,24.3589224 233.022198,24.7394251 C233.542268,24.7394251 233.867037,24.4221609 234.387106,24.3589224 C234.257637,24.4221609 234.257637,24.4853994 234.192903,24.6761866 C234.45184,24.6761866 234.45184,24.3589224 234.778803,24.3589224 C234.517672,24.7394251 233.931771,25.3117869 233.542268,25.1842381 C233.542268,25.3117869 233.08803,25.3117869 233.022198,25.5025742 C232.827995,25.3750254 233.15057,25.3117869 233.022198,25.3117869 C232.827995,25.3117869 232.827995,25.5658127 232.696332,25.5025742 C232.696332,25.5025742 232.696332,25.5658127 232.762164,25.5658127 C232.17736,25.8830769 231.26669,25.8830769 230.68079,25.8830769 C230.095986,26.2635796 229.511182,25.5658127 229.120582,25.8830769 C228.341575,25.5025742 227.754577,25.1199278 227.234508,24.4853994 C227.169774,24.4853994 227.169774,24.4853994 227.169774,24.5486378 C226.909739,23.7865606 226.062707,23.5325348 226.000167,22.4531933 C226.000167,21.5646391 226.19437,20.9290388 226.388573,20.1026512 C226.388573,19.9751024 226.519139,20.1658897 226.58497,20.1026512 C226.58497,19.8475536 226.388573,20.1026512 226.388573,19.9751024 C226.909739,18.2590888 227.819312,16.9257215 228.860547,15.5923543 L228.926379,15.5923543 C229.185316,15.0843028 229.901783,14.4487025 230.290189,14.1936049 C230.87609,13.1142634 233.15057,12.4786631 234.192903,13.5590764 C234.517672,13.8763407 234.582406,14.2579152 234.778803,14.7027282 C234.778803,14.7659667 234.842441,14.7659667 234.973006,14.8292052 C234.973006,15.0199925 234.778803,15.2750901 234.973006,15.5291158 C234.517672,16.3533597 233.867037,17.1165088 233.346967,17.8785861 C233.216401,17.9428964 233.216401,17.9428964 233.346967,18.1958503 C233.08803,18.1958503 233.08803,18.0704452 233.022198,18.1958503 C232.762164,18.5141864 232.17736,18.8314506 232.111529,19.3395021 C231.980963,19.2762636 232.046794,19.214097 231.980963,19.2762636 C231.852591,19.3395021 231.852591,19.5302894 231.852591,19.5945997 C230.940824,20.2291282 230.161818,20.9290388 228.729981,21.1187542 C228.600513,21.0544439 228.404115,20.9912054 228.341575,20.9290388 C227.560374,21.7543545 227.234508,23.9773478 228.404115,24.5486378 C229.185316,24.6761866 229.705386,24.4853994 230.224358,24.5486378 C230.486587,24.4221609 230.746621,24.4221609 230.87609,24.1681351 C233.607002,23.6600836 235.429439,22.1359291 236.923815,20.4199155 C237.183849,20.9912054 236.727417,21.5646391 236.339011,21.94407 L236.339011,22.0726906 Z" id="Fill-18"></path>
            </g>
        </g>
    </g>
</svg>