<svg width="369" height="139" viewBox="0 0 369 139" xmlns="http://www.w3.org/2000/svg"><title>SVG_KissMe_logo</title><desc>Created with Sketch.</desc><g fill="none"><path d="M3.115 60.152c0 1.991 7.35 4.729 17.314 4.729 1.37 0 2.865-.124 4.485-.373 0-.871.124-1.617.124-2.364-4.361-2.614-8.845-4.106-13.079-4.106-6.229 0-8.845.87-8.845 2.114m22.422-4.729c1.246-16.423 2.243-34.216 3.737-52.756 0 0 .249-2.24.997-2.24 1.992 0 5.855 2.366 6.229 4.231-1.246 13.064-1.62 28.617-1.62 44.296v11.197l1.121.623c21.924-9.954 48.582-36.333 62.534-54.997 0 0 1.37-1.741 1.994-1.741.249 0 .124.373.249.996.249.373.872.996.872 2.613 0 .871-.375 2.613-.624 3.236-9.593 23.267-33.384 45.789-55.682 56.737 24.664 20.157 48.831 54.249 69.136 54.249 9.467 0 17.19-4.354 23.419-10.576 0 0 .373-.124.622-.124.126 0 .375.124.375.373 0 .126 0 .25-.124.373-1.246 2.863-7.35 11.449-7.474 11.573-2.367 8.71-14.7 15.056-22.672 15.056-21.675 0-46.839-44.42-71.503-67.314l-1.992.746c.249 15.803.747 30.734.997 41.807 0 3.11-.25 3.484-2.118 3.484l-2.367.621c-.997 0-2.991-3.11-3.238-3.359 0 0-.499.746-.997.746-3.115 0-6.104-8.336-6.104-10.949.997-9.083 1.992-19.161 2.865-29.987-1.37.126-2.491.25-3.737.25-11.585 0-20.429-7.467-20.429-13.563 0-4.231 4.236-7.714 14.575-7.714 3.613 0 7.349.746 10.961 2.114" fill="#1D2736"/><path d="M123.699 104.572c3.986 0 5.481-2.737 5.481-6.594 0-1.617-.249-3.484-.622-5.35-4.61 3.11-7.848 5.724-7.848 8.584 0 2.116 1.37 3.36 2.989 3.36zm-.997-31.727c-1.37 2.611-3.115 8.833-5.73 15.427-6.478 16.176-13.454 23.89-18.686 23.89-5.232 0-8.72-7.466-8.72-21.65 0-10.824 1.869-22.77 3.115-28.12 0 0 .498-1.617 1.495-1.617 2.117 0 4.235-.124 7.599-.871 1.495 0 1.495.996 1.495.996-3.238 18.041-4.983 25.259-4.983 37.7 0 5.6.872 8.089 2.491 8.089 2.74 0 7.474-7.59 12.955-20.281 5.481-12.567 8.097-26.627 8.471-31.853.249-2.737 5.605-5.101 7.474-5.101.373 0 .995.124.995.623 0 .123-1.868 8.211-1.868 17.793 0 5.1 2.865 10.824 5.356 16.673 7.226-4.853 14.076-9.83 15.447-14.807 0 0-.997-3.857-.997-8.461 0-2.116.25-4.479.872-6.719.622-2.364 5.978-5.226 9.717-5.226l.997.124c.373 0 .995.124.995.623 0 .123-3.362 8.211-5.481 14.184-.124 1.243-.124 2.613-.124 3.856 0 11.697 8.596 21.526 8.596 32.227 0 8.834-6.852 13.936-13.081 13.936-4.983 0-9.467-3.36-9.467-10.826 0-5.971 2.367-12.069 6.975-12.069 1.495 0 1.495.621 1.495.747-1.495 2.114-3.238 6.843-3.238 10.576 0 3.733 1.743 5.226 3.737 5.226 2.74 0 5.855-2.861 5.855-6.47 0-9.331-4.485-17.544-6.104-26.254-4.361 5.227-9.841 9.333-14.824 12.691 1.246 3.36 2.243 6.719 2.243 9.954 0 9.207-6.229 13.811-11.96 13.811-4.733 0-9.216-3.236-9.216-9.706 0-4.354 4.981-8.586 10.961-12.94-1.868-6.843-4.859-13.936-4.859-16.051v-.123z" fill="#1D2736"/><path d="M193.474 68.614c.498 0 .997.249.997.746 0 .124 0 .25-.25.623-5.854 8.336-8.345 17.294-8.345 25.507 0 15.677 9.093 28.617 20.927 28.617 36.624 0 60.417-116.71 59.545-114.719.872-1.867 3.488-2.739 6.104-2.739 3.487 0 6.975 1.494 6.975 4.356 0 16.299-.872 38.074-.872 56.489 0 20.406.997 36.581 4.983 36.581 7.972 0 25.288-80.379 36.624-100.287.124-.249.624-.497.872-.497.372 0 .622.249 1.121.871.747.996 4.359 4.727 6.602 6.22 1.37.996 1.868 2.116 1.868 3.36 0 .747-.249 1.617-.498 2.613-2.616 8.834-5.98 31.48-5.98 52.881 0 19.161 2.614 37.326 10.712 43.921.748.621 1.619 1.493 1.869 1.866.124.124.124.249.124.374 0 .373-.375.497-.872.497-.373 0-.748-.124-.997-.249 0 0-.373.621-1.246.621-4.484 0-17.439-6.843-20.803-23.019-2.367-11.199-3.114-20.779-3.114-29.737 0-7.964.622-15.304 1.246-22.77 0 0-.124-.497-.375-.497-.124 0-.249.124-.373.373-2.866 6.843-13.453 48.153-22.546 66.194-2.74 5.474-5.855 8.336-8.72 8.336-12.457 0-13.703-39.691-13.703-62.337 0-8.46.124-17.917.499-28.244-3.863 8.836-18.188 106.757-59.92 106.757-14.325 0-26.283-12.691-26.283-30.111 0-9.704 3.737-20.903 12.706-32.226.249-.249.748-.373 1.121-.373" fill="#1D2736"/><path d="M354.297 62.392c-5.481 0-9.593 11.944-9.841 23.019 4.984-3.36 11.711-14.557 11.711-20.654 0-1.12-.499-2.364-1.869-2.364m8.72 28.617c0-2.114-.375-4.354-1.123-6.719 0-.124 0-.746 1.495-.746 4.61 0 5.607 5.1 5.607 9.456 0 8.834-6.851 17.544-16.069 17.544-12.832 0-18.188-11.323-18.188-23.766 0-15.056 7.848-31.604 19.932-31.604 5.607 0 8.719 4.107 8.719 9.83 0 7.714-5.728 18.166-18.809 25.631.748 10.327 4.485 14.309 8.596 14.309 4.857 0 9.841-5.847 9.841-13.936" fill="#1D2736"/><path d="M114.515 43.961l-.014-.024-.027-.029c.172-.057.124 0 .041.053m-.493.787c-.136.216-.089 0-.183-.051l-.056-.07.074-.011c.11-.014.219-.041.325-.079l-.16.211m-.28-.497l-.001-.023.132-.08.152-.086c.059-.004.102.019.132.06l-.405.197-.009-.069m-.094-2.611l-.09-.061-.011-.007.124-.073c.122-.064.07.031-.023.141m-.328.127l-.348.251c.077-.079.164-.164.3-.253l.117-.079-.07.08m-.501 1.849l-.117.079-.039.023-.056-.104.236-.13c.063-.04.079.031.079.031l-.103.101m-.3-1.196l.001-.031.124-.094-.024.024-.102.101m.388-1.684c.093-.084.299-.106.217.063l-.126.153-.14-.086-.027-.059.076-.071m-.799 1.9l.202-.059.017-.004c-.073.076-.154.067-.219.063m-.16 1.444l-.282.177.004-.094.023-.131.259-.159c.069.024.146.011.166.094l-.17.113m-.452-2.413l.003-.024.021-.017.169-.094c.056-.016.093-.004.093.043-.092.106-.074.13-.2.193-.153.076-.08-.051-.086-.1m0 1.246l-.266.111-.02.009.094-.094c.139-.127.187-.096.2-.03l-.009.004m-.511.259l-.147.084.004-.014c.014-.04.041-.11.167-.146l.087.007-.112.069m-.027-1.169l.315-.16.034-.009c.28-.064-.019.07-.229.244l-.066.053c-.12.009-.187-.04-.054-.129m.102-1.036c.073-.119.033-.06.305-.337l.056-.047c.283-.239.335-.311.418-.387.084-.074.267-.093.195.056l-.009.024-.01.01-.366.367-.126.101c-.182.144-.163.201-.303.26-.113.05-.184.026-.159-.047m-1.025 1.57h-.027l.156-.031-.129.031m-.106-3.659l-.22.264-.001.003-.183.004-.05.014.072-.1c.14-.194.518-.4.383-.186m-.488.576l-.179-.004.073-.097.127.069-.021.033m-.539 1.419l-.07.01c-.01-.044 0-.1.057-.164l.011-.011.057-.001c.322 0 .322-.014.358.036.034.049-.189.111-.413.131m.403-2.523l-.043.124-.16.213-.037.044.013-.031.227-.35m-.589.464l-.11.041c-.09.053-.041.08.014.099l-.059-.02-.061-.193.13-.006c.196-.076.09-.07.119-.153l-.011-.116c.149-.13.209-.194.283-.364l.016-.034.034-.03.056.013c-.007.063-.225.346-.256.416l.001.084-.093.153-.063.11m-.283-.429c.066-.131.18-.21.246-.424.056-.183.094-.244.179-.359l.057.087c.092.136.044.121-.054.243l-.079.067c-.167.153-.107.191-.13.267l-.159.173c-.063.037-.102.027-.06-.054m1.639 2.964l-.03.046.03-.046m-1.771-4.526l.09-.081-.09.081m-.034.12l-.003.043.004-.12-.001.077m-.19 3.966l.001-.001.116-.111c.126-.019-.017.033-.117.113m-.104-2.316l-.056-.159.079.047.082.059c-.047.076-.087.119-.104.053m-.239-.606l.199-.25c.239-.29.13-.257.215-.406l.07.047-.029.043-.166.227c-.12.2-.034.209-.169.274l-.12.064m-.17 2.346l-.046.036-.154.127-.229.06-.057.01.273-.246c.147-.134.147-.056.272-.069l-.059.081m-.847-.299l.147-.297.079-.081.184-.117c.342-.21.174-.154.259-.246.074-.08.104-.077.179-.076l-.11.174-.004.137-.272.186c-.087.087-.13.274-.462.32m-.468-.279l-.016-.043.054-.063.034-.059c.001.216-.001.386-.073.164m-.13-1.71c.01-.154-.021-.244.046-.39l.041.1c0 .151-.037.229-.087.29m-.21.737l-.049.394c-.059-.133-.083-.15-.01-.391.056-.186.094-.216.137-.283.07.02-.061.053-.079.28m-.465-.29c.02-.096.021-.176.006-.267-.014-.074.017-.153.063-.231l.011.019c.063.111.003.304-.08.48m-.363 1.366c-.11.169-.245.411-.315.31l-.01-.013.199-.347c.213-.346.162-.36.295-.73l.011.14c0 .251-.07.473-.18.64m-.618-1.254c-.059.266-.195.534-.053.419l.02-.016-.011.014c-.142.186-.149.407-.285.356.041-.064.043-.08-.107-.15l-.086-.037.026-.08c.07-.177.169-.163-.029-.256l-.043-.02c.053-.086.104-.127.169.026.1.236.133.397.172.29.039-.106.05-.007 0-.28-.049-.259-.04-.54.083-.536-.056.226-.159.436-.039.337.079-.064.147-.116.192-.11l-.009.043m-.971-2.187c-.057.189-.147.317-.21.074l-.047-.211c.006-.074.036-.139.107-.24.072-.101.144-.143.199-.146l.043.076c-.007.194-.036.257-.092.447m-.292 2.799l-.016-.036c.047-.074.077-.174.137-.12l.04.156c.041.314-.077.167-.162 0m.051.256c.027-.036.057-.046.1.007l-.1-.007m-.07-1.026l.076-.167.046-.12-.044.217c-.05.171-.021.206.017.266l-.013.049c-.037.121-.037.181-.02.227l-.04-.073-.021-.399m-.021-1.479l-.003.023c-.026.286-.162.356-.225.259l-.024-.043.043-.14.021-.103.009-.031.034-.267.04-.066c.08-.109.112.107.104.369m-.144 1.279c-.016.307-.097.329-.259.783-.137.389-.084.363-.094.5-.127.387-.037.3-.08.554-.023.129-.016.236-.009.339l-.144-.137-.007-.124.003-.081.021-.204.053-.21c.07-.23.02-.237.007-.399-.009-.086.004-.209.031-.356l.029-.107.18-.55c.056-.227.039-.299.15-.479.107-.177.109.121.146.23l-.027.241m-.432-1.426c-.024-.049-.053-.163-.084-.329-.059-.299-.047-.191-.01-.28l.084.213c.029.141.037.231.01.396m-.084-1.507l.043-.031c.053.07.103.183.117.289.02.131-.007.224-.031.276l-.129-.177c-.099-.16-.053-.21 0-.356m-.614.214l-.157.237c-.031-.129.061-.163.157-.237m-.328 3.887l-.024-.109-.016-.09.053.151.017.05-.03-.003m-4.478 1.171l-.159-.143-.089-.081-.199-.16c-.119-.089-.174-.15-.215-.209l-.03-.107c-.086-.3-.207-.607-.096-.479.086.164.172.387.335.52.041.116.02.141.193.25l.189.096.049.049.069.114.186.277-.233-.127m-1.386-.159l-.114-.289c.057.104.126.204.213.281l.021.091c.043.163-.009.233-.12-.084m-.566-.681l-.02-.049-.154-.363.037-.017c.116-.05.116.133.167.351.029.124.014.121-.03.077m-.446.373c-.126-.246-.126-.127-.245-.287-.119-.16-.243-.307-.342-.464-.066-.106-.014-.101.054-.047.114.241.084.227.29.427.226.217.252.239.273.39l.003.044-.034-.063m-.705-.024v-.001c-.04-.159.089-.094.157-.061l.023.111c.056.236-.029.061-.18-.049m-.133-.123c-.03-.049-.031-.1.007-.146l.014.04-.021.106m-.955.534l.133.051c.066.03.087.08.104.2l-.237-.251m.082-.716l.014.047-.021-.033-.024-.047.031.033m-.699.013l-.117-.113.076.016.041.097m24.132 5.201c-.074.031-.147-.126-.053-.173.094-.047.04-.353 0-.416-.039-.063-.079.016-.164.094-.087.077-.173.054-.166 0 .009-.056.103-.079.22-.166.119-.086.063-.117 0-.211l-.089-.086c-.01 0-.209.086-.375.196-.164.11-.149-.047-.07-.126l.392-.173c.166-.11-.102-.157-.227-.29-.126-.134-.133-.134-.293-.244-.159-.109-.179.056-.399.189l-.232.127v-.041c.093-.067.205-.159.405-.266.323-.173.229-.22.15-.314l-.18-.29c-.063-.087-.126-.094-.174-.063-.046.031-.297.243-.572.439l-.124.089-.053.034.003-.043.089-.137.189-.083c.066-.043.054-.076.013-.109.129-.11.29-.216.473-.316.227-.126-.063-.101-.11-.173l-.213-.164c-.102-.08-.149.11-.266.211l-.23.167-.129-.09.335-.297c.102-.086.157-.149.164-.196.009-.047-.102-.204-.212-.323-.11-.117-.369-.196-.448-.274-.079-.079.016-.173 0-.283-.016-.109-.079-.109-.173-.189-.094-.079-.157-.124-.252-.27-.094-.147 0-.06 0-.216 0-.157-.126-.173-.142-.22l-.267-.22c-.063-.079-.172-.157-.283-.346l-.172-.313c-.063-.157-.11-.157-.283-.267-.173-.11 0-.094-.33-.251s-.142-.141-.142-.377c0-.236-1.279-1.366-1.357-1.444l-.382-.397c-.026-.043-.051-.074-.205-.179l-.252-.209c-.142-.131-.083-.163-.209-.324-.126-.163-.195-.131-.273-.163-.079-.031-.3-.223-.309-.243l-.243-.193-.225-.164-.149-.099c-.09-.039-.169-.126-.205-.157-.034-.031-.243-.074-.295-.153-.051-.079-.047-.054-.146-.063-.099-.009-.2-.083-.247-.149-.047-.067-.062-.04-.164-.02-.103.02-.213-.059-.299-.114-.086-.054-.106-.02-.164.04l-.177.07-.119.023-.109.054-.157.063-.053.011-.069-.041c-.041-.006-.19.083-.267.027-.122-.086-.072-.011-.193.031l-.27.083-.189.027c-.094-.054-.11.009-.184.047-.076.04-.266.066-.376.034-.11-.031-.173-.079-.273-.037-.099.043-.24-.02-.303-.073l-.24-.094-.252-.104-.23-.09c-.132-.036-.153-.057-.247-.14-.094-.084-.1-.094-.22-.137-.12-.041-.225-.073-.345-.151-.122-.079-.515-.183-.609-.277-.093-.094-.492-.044-.555-.083-.063-.04-.511 0-.612.066l-.416.074c-.103.071-.355.119-.456.166-.103.047-.402.141-.465.203-.062.063-.25.126-.305.111-.056-.017-.323.203-.465.219-.142.016-.589.236-.661.307-.07.07-.14.117-.305.164l-.41.243c-.149.04-.156.031-.242.103l-.528.299c-.047.046-.275.217-.416.264-.142.047-.11.063-.199.167-.089.104-.063.099-.252.173-.189.073-1.176.753-1.349.777-.173.023-.708.479-.747.58-.04.103-.472.346-.519.401-.047.054-.785.397-.943.543-.157.147-.273.179-.215.236.057.057.136.2.057.151-.079-.046-.142-.077-.236-.083-.094-.006-.277.157-.445.261-.167.104-.282.3-.338.397-.054.099.083.169.225.287l.143.119-.023.099.02.043-.293-.264-.166-.157-.137.126c-.043.056-.099.079-.054.119.043.039.243.353.212.353l-.365-.373h-.092c-.039.036-.034.121.009.166.043.041.18.187.236.311.054.124-.056.029-.094 0l-.205-.316h-.079l-.247.227.11.103c.043.05.153.219.169.293.016.074-.087.029-.13-.027-.043-.054-.184-.2-.232-.224-.047-.023-.184.05-.137.146.184.377.272.496.506.714.236.22.252.157.276.094.023-.063-.079-.219-.196-.393-.119-.173.014-.117.109-.047.094.071.134.314.26.543.126.227.275.259.731.369.455.11.549.031.589-.063.039-.094-.047-.141-.182-.346-.133-.204-.29-.321-.495-.549-.205-.229.079-.087.22.031.142.117.888 1.184 1.061 1.177.173-.009.259.046.322-.181.063-.227-.016-.164-.133-.533l-.043-.191.037.009.107.159c.07.126.047.299.11.534.063.236.149.219.29.18.142-.039.433.024.794.056l.266.003.157-.033.323-.019c.236.031.386-.023.724-.046.119-.009.166-.026.179-.051.134-.047.559-.153.791-.299.265-.166.543-.13.652-.127l.047.001c.237.007 1.18.019 1.798-.321.677-.371 1.479-.074 2.012-.397.176-.107.4-.087.634-.011l.04.029c.093.063.159.076.259.093l.87.477c.182.051.914.114 1.543.041l.133-.017c.205-.023.468-.026.781.106.385.164.598.33 1.096.591l.149.074c.501.233 1.214.439 1.635.577.182.097.322.197.446.344.017.071.116.147.24.271.094.093 1.118.739 1.336.84l.182.094c.309.18.549.401.769.463.106.03.555.313.598.337l.127.07c.107.056.492.209.556.229l.107.026.176.044c.205.056.526.197.605.103.079-.094.203-.103.203-.04s-.07.141-.03.237c.039.096.173-.024.322-.033.149-.007.173-.031.33-.126l.463-.274.456-.243c.18-.126.36-.166.666-.267.308-.103.031.094-.086.126-.117.031-.738.346-.895.423-.157.079-.558.377-.495.393l.792-.149c.362-.047.708-.227.991-.384.283-.157.408-.181.432-.236.024-.056-.126-.11-.199-.079" fill="#f05e7c"/><path d="M112.819 48.471s-.094.174-.179-.03l-.136-.344.069-.023.172-.013.106.293-.031.117zm-.618.164l-.136-.099.004-.023c.009-.094-.049-.116-.06-.127v-.006l.076-.026.199-.069.053.193c.01.04-.104.156-.136.156zm-.26-.63l.009-.039c.029-.13.051-.357.064-.491l.03.081.167.517-.031.126s-.094.187-.179-.031l-.06-.163zm-.106.669c0 .049-.137-.057-.116-.136l.007-.033.116.043-.007.126zm-.21-.581l-.126.251c-.047-.036-.186-.507-.196-.661l.007-.027c.041-.21.073-.649.073-.649l-.099-.46c.04-.066.072-.084.089-.036.031.086.007.189.144.653l.04.141c-.043.086-.077.206-.027.329l.113.361-.019.097zm-.641-.301l-.049.117-.001-.031c-.021-.131-.053-.287-.084-.364l-.063-.464c-.041-.233.031-.31-.094-.679l-.067-.214c.05-.1.089-.134.109-.076.03.094.006.204.144.707l.036.139-.001.18.084.277c.02.187.013.324-.013.409zm-.229-.499l-.01.031-.084.146c.01-.089.006-.194-.037-.354l-.017-.06c.093.073.172.141.149.237zm-.263.264l-.157.266-.053.17-.117-.031.044-.107c0-.031.106-.156.084-.297-.021-.143-.053-.31-.084-.394l-.063-.501c-.041-.251.031-.334-.094-.733-.124-.399-.146-.649-.177-.723l-.162-.324c.001-.081.016-.104.057.019.094.276.22.596.299.769l.11.494.097.337-.004.224c.011.083.074.303.116.356.041.053.104.104.104.209 0 .106.073.139 0 .269zm-.532-.893c.094.08.177.154.156.26l-.047-.05c-.146-.16-.134-.017-.109-.21zm-.024 1.246l-.007-.001c-.124-.061-.182-.111-.096-.153l.152-.127.136.131s-.132.044-.184.15zm-.742-.484l.113-.093.119.326c-.212-.097-.346-.171-.232-.233zm-.352.517l-.004-.026-.06.047-.01.003-.013-.039c-.053-.096-.179.077-.167-.241.01-.319.051-.231.061-.397l-.01-.213c-.094-.174-.01-.126-.199-.32l-.183-.157-.112-.253c-.063-.177-.303-.639-.252-.68l.149-.057.167.373.22.349.007.009.023.06c.16.411.299.853.362 1.026l-.016.067c-.063.223.053.384.053.384l.051.046-.069.02zm-.779-1.573l-.176-.349.102.169.113.247-.039-.067zm-.707-.579c-.08-.161-.137-.279-.153-.429l.163.284-.01.144zm-3.401 1.77l-.016.223c-.037-.159-.053-.317-.011-.424.039-.096.057-.317.072-.573.021.309-.02.511-.044.774zm-.671-.697c-.029.131-.082.336-.112.537-.003-.577-.001-1.137.016-1.19l.017-.121.102-.121.009.044c.039.236.051.419.049.58l-.08.271zm-1.845 1.807l-.179.334.08-.319c.007-.086-.019-.094-.059-.056l-.05-.241.14-.041.047-.01.089.236-.069.097zm-.102 1.446l.006.013-.006-.013zm-.186-2.727c-.089.059-.116.036-.143-.01-.011-.21-.021-.473-.009-.604l.057-.34.136-.294c.073-.146.126.049.126.049s-.104.406-.199.614c-.094.21-.063.16-.021.286l.104.057c.059.029.054-.047.097-.259-.019.16-.026.297-.007.359l.013.071-.009-.026-.146.097zm-.073 2.594s-.029-.203.001-.387l.063.141-.064.246zm-.063-.584v.183-.373l-.003-.084.007-.016.05-.073c-.031.106-.046.22-.051.319l-.003.044zm-.276-.586l.003-.011c.157-.784-.084.107-.153.281-.059.146-.066.161-.092.101.072-.244.186-.584.202-.753.009-.089-.016-.101-.054-.064l.066-.186.077-.129c.139-.003.092.226.11.347.017.113-.087.29-.159.413zm-.338.124l-.016.049-.013.041.001-.03c.01-.2-.073-.36-.073-.36l-.102.404-.014-.086c0-.087-.1-.193-.1-.193s-.024.146-.004.31c.01.07-.001.194-.019.336l-.117.133c0-.063 0-.137.156-.984l.024-.129.009.053.073.33.073-.156.157-.3c.126-.221.084.079.147.087h.001c-.047.076-.1.186-.139.303l-.046.191zm-.199 2.084l.007-.019.043.034-.05-.016zm-.363-2.099c-.041-.114.074-.24.106-.513.023-.207-.074-.006-.146.184.04-.304-.063-.113-.126-.131l-.054-.014.021-.049.079-.17.142-.049.043-.11.041.099c.061.01.041-.084.124-.283l.013-.027-.001.207.026.261-.159.531c-.07.189-.066.179-.109.063zm-.312-2.017l.003-.04c.027-.146-.077-.203-.077-.203l-.109.237-.013-.133-.01-.181.11-.127c.094-.106.031.04.116.087l.067-.02.031-.047.152-.17.041.019.056.074-.003.057c.014.067-.014.16-.064.266l-.03-.083c-.031-.136-.073 0-.073 0l-.147.157-.05.107zm-.059.377l-.006.051-.01.079-.063-.014.079-.116zm-.027 1.189c-.01.069-.124.417-.136.621-.01.203-.031-.069-.051-.117l-.116-.179-.007-.046.001-.081.037-.12c.053-.079.021-.271.021-.271l-.026-.013c.017-.23-.076-.056-.133-.074l-.027-.009-.192-.116c-.104-.074-.199.047-.236.114l-.03.059c.026-.097.003-.247.003-.247l-.063-.036.142-.24.047-.123v.011l.062.104c0 .117.056.23.149.273l.011.006c.092.036.122.001.166-.046l.157-.056.013-.04c.089-.01.083.074.083.074l.156.26.021.037.043.217-.096.036zm-1.108-2.184c-.026.047-.046.164-.034.25.021.147-.063.481-.157.654-.094.174-.031.423.116.486l.04.014.007.159-.132-.087c-.104-.081-.199.051-.235.124-.037.073-.163.32-.122.576.031.187-.016.039-.041-.079.013-.236.066-.533.054-.689.031-.104.114-.253.16-.311.057-.073.079-.387.12-.501.043-.116-.031-.273-.041-.399-.01-.126.084-.261.126-.344l.167-.544c.053-.094.157-.42.179-.479.02-.059.335-.443.35-.474 0 0 .11.02.11.083s-.063.179-.189.44l-.216.453c-.092.084-.249.24-.259.316l-.004.353zm.694-.274l.132-.154c.252-.259.073.051.094.166l.003.026-.149.256c-.15.253-.1.256-.05.256l-.04.134c-.041-.069-.096.119-.077.237l.001.089c-.076.041-.183.041-.192.019l.142-.21c.079-.116-.026-.209 0-.366l.003-.074.109-.329.024-.049zm.468-.669l.03-.151.006-.011s.112.019.112.077c0 .056-.059.157-.174.379l.027-.293zm.535 1.337l.051-.376.053-.476c0-.127.08-.241.117-.289l.007.317c0 .109-.063.291-.126.49s-.051.283.043.357l.017.01.029.123-.162-.009-.01.094c-.009.071-.059.101-.087.073-.001-.179.05-.189.067-.316zm.262-.356l-.076.194.001-.046.093-.187-.019.039zm.318.584l-.099.119-.062.034-.011-.033c-.024-.101-.057-.039-.069-.011l-.067-.116-.017-.016.039-.084c.074-.071.107-.096.143-.074l.043.044.1.137zm-.256-.729c.053-.179.126-.346.199-.503l.082-.044-.049.186c-.049.206-.167.263-.267.453l.036-.091zm.388.157l.047.379-.014.041c-.043.124-.051.2-.024.257-.03.024-.069-.004-.092-.091l-.019-.061-.021-.14.05-.28c.053-.261.073-.104.073-.104zm-3.052-.224l-.076.017-.029.011.009-.087.1-.119-.004.177zm-3.478-2.274l-.039-.113-.001-.006c.03.024.053.006.053-.091l.003-.044.041.027-.057.227zm-.272.899l-.082-.08-.051-.076.087-.003.007-.009.074.05-.036.117zm-.368.969l-.031.026-.023-.029.097-.113-.043.116zm-.044-1.287l-.013.039.013-.039zm.388-1.033l-.039.044.039-.044zm-.795.703l-.076.064.02-.1.013-.064.113-.1.106-.097c-.031.094-.08.21-.176.297zm20.408 3.377c-.205-.333-.031-.551-.205-.639l-.173-.086c-.094.043-.173.013-.299.26l-.009.019c-.13-.307-.001-.511-.16-.597l-.172-.094c-.094.047-.173.016-.299.283-.126.267-.094.25-.063.439.031.19 0 .289-.063.069l-.189-.649s-.086-.039-.126.011l-.187-.317c-.094-.144-.305-.377-.409-.454-.104-.077-.262-.204-.335-.174l-.011.006c-.099-.133-.222-.27-.295-.327-.104-.084-.262-.22-.335-.189l-.05.043c-.133-.213-.389-.647-.525-.724l-.277-.106c-.126-.216-.272-.446-.363-.5-.157-.094-.388-.147-.639-.22-.252-.073-.24-.167-.471-.104-.232.063-.472.209-.472.209l-.114.114c-.113.113-.837.501-.973.546h-.054l-.086.033-.206.071-.02.014c-.089.077-.493.059-.566.09l-.472-.023-.18.013c-.245.007-.628-.007-.681-.084-.011-.063-.137-.073-.169-.051l-.102.064-.182.106-.049.027c-.15.079-.11-.019-.064-.099l.044-.08v-.001c.017-.036-.143-.064-.237-.079l-.039-.013-.03.003-.134.026c-.103.024-.217.07-.223.15-.084.099-.149.071-.206.014l-.036-.067-.087-.08c-.089-.08-.559-.117-.845.017-.212.1-.305.034-.369-.057l-.029-.057-.031-.041c-.073-.124-.466-.143-.506-.123l-.01.001c-.043.01-.137-.019-.219-.107l-.02-.023-.163-.136-.01-.007-.173-.08-.009-.001c-.067-.011-.328-.084-.499-.22l-.026-.021-.395-.344-.11-.1c-.122-.114-.217-.216-.233-.266h-.001l-.014-.097c-.031-.123-.2-.183-.295-.216-.093-.031-.199-.081-.282-.149l-.179-.131c-.053-.094-.167-.043-.356 0l-.199.051c-.147.041-.183.083-.37.08l-.249-.184c-.282-.167-.23-.01-.461.073-.23.084-.272.293-.346.26-.073-.031-.092-.191-.193-.121-.103.071-.33.259-.511.506l-.02-.047c.056-.174-.079.001-.22.051l-.12.04c-.033-.121.004-.177.053-.346.056-.189-.079 0-.219.054l-.189.066c.024-.077.009-.116-.024-.12-.054-.007-.299.086-.432.144-.133.059-.275.123-.378.224l-.309.353-.067-.101c-.051-.12-.08-.026-.26-.059-.17-.031-.153-.006-.225.054l-.019-.039c-.051-.13-.079-.027-.26-.063-.18-.036-.149-.004-.239.071l-.173.274c-.09.129-.036.101-.074.326-.04.223-.083.153-.169.267-.096.104-.322.094-.26.256l.031.06.044.063c.154.193.237.339.293.467l.026.064.044.124c.059.176.451.763.695.959.103.083.263.243.425.413l.033.036.495.541.024.041c.07.073.177.254.285 0 .107-.254.249-.509.273-.711l.067-.289.11-.116.099-.08c-.047.277-.217.596-.323.901-.126.359-.15.464-.236.621 0 0-.016.04.133.204.15.164.142.101.239.164l.272.164c.119.096.094.15.166.291.07.14.18.149.18.149l.229.157.117.126c.014.13.087.541.791.786l.011.006c.641.224.602.261.867.334l.066.016.069.026c-.016.066.01.123.072.123.096 0 .133.331.3.323.114.15.273.303.548.407l1.632.611c.19.073 1.304.314 1.656.356h.003c.349.04.462.113.572.144.109.033 1.407.177 2.394.096.336-.027.749-.069 1.173-.13l.016-.001c.429-.061 3.181-.944 3.181-.944l.935-.366c.212-.067.781-.321 1.227-.589l.043-.019c.11-.057.852-.271 1.007-.479l.596-.523c.016-.144.315-.363.503-.407.189-.043.299.059.456-.144l.157-.204-.299-.537z" fill="#f05e7c"/></g></svg>