<svg width="17px" height="16px" viewBox="0 0 17 16" version="1.1" xmlns="http://www.w3.org/2000/svg" xmlns:xlink="http://www.w3.org/1999/xlink">
    <!-- Generator: Sketch 49.3 (51167) - http://www.bohemiancoding.com/sketch -->
    <desc>Created with Sketch.</desc>
    <defs></defs>
    <g id="Page-1" stroke="none" stroke-width="1" fill="none" fill-rule="evenodd">
        <g id="Mobile-Menu_Loggedin_v1.2.1" transform="translate(-44.000000, -464.000000)">
            <g id="Group-8" transform="translate(0.000000, 347.000000)">
                <g id="Group-Copy-5" transform="translate(16.000000, 45.000000)">
                    <g id="Fill-1">
                        <g id="Mask-+-Group-17-+-Line-+-Line-2-+-Line-2-Copy-2-+-Group-68-+-Group-68-Copy-+-Group-68-Copy-2-+-Feb-MM-Brushes-Mask">
                            <g id="Group-68" transform="translate(27.000000, 72.000000)">
                                <g id="Group-11" transform="translate(0.500000, 0.000000)">
                                    <g id="Page-1" transform="translate(0.666667, 0.000000)">
                                        <path d="M8,16 C3.582,16 0,12.418 0,8 C0,3.582 3.582,0 8,0 C12.418,0 16,3.582 16,8 C16,12.418 12.418,16 8,16 Z" id="Fill-1" fill="#E7B4AC" opacity="0.5"></path>
                                        <g id="Group" transform="translate(3.000000, 4.000000)" stroke="#FFFFFF" stroke-linecap="round">
                                            <polyline id="Stroke-4" stroke-linejoin="round" points="7.2236 2.3719 8.9516 3.1969 9.7766 1.4699"></polyline>
                                            <polyline id="Stroke-6" stroke-linejoin="round" points="2.7764 5.2948 1.0484 4.4698 0.2234 6.1968"></polyline>
                                            <path d="M1.1431,4.9998 C1.3161,5.6688 1.6481,6.3048 2.1711,6.8288 C3.7331,8.3908 6.2671,8.3908 7.8291,6.8288 C8.0811,6.5758 8.2871,6.2958 8.4541,5.9998" id="Stroke-8"></path>
                                            <path d="M8.8569,2.9998 C8.6839,2.3318 8.3519,1.6948 7.8289,1.1718 C6.2669,-0.3902 3.7329,-0.3902 2.1709,1.1718 C1.9189,1.4238 1.7129,1.7038 1.5459,1.9998" id="Stroke-10"></path>
                                        </g>
                                    </g>
                                </g>
                            </g>
                        </g>
                    </g>
                </g>
            </g>
        </g>
    </g>
</svg>