<svg width="17px" height="16px" viewBox="0 0 17 16" version="1.1" xmlns="http://www.w3.org/2000/svg" xmlns:xlink="http://www.w3.org/1999/xlink">
    <!-- Generator: Sketch 49.3 (51167) - http://www.bohemiancoding.com/sketch -->
    <desc>Created with Sketch.</desc>
    <defs></defs>
    <g id="Page-1" stroke="none" stroke-width="1" fill="none" fill-rule="evenodd">
        <g id="Mobile-Menu_Loggedin_v1.2.2" transform="translate(-44.000000, -696.000000)">
            <g id="Group-8" transform="translate(0.000000, 347.000000)">
                <g id="Group-Copy-7" transform="translate(16.000000, 277.000000)">
                    <g id="Fill-1">
                        <g id="Mask-+-Line-+-Line-2-+-Line-2-Copy-+-Line-2-Copy-2-+-Group-68-+-Group-68-Copy-+-Group-67-Mask">
                            <g id="Group-68" transform="translate(27.000000, 72.000000)">
                                <g id="Group-11" transform="translate(0.500000, 0.000000)">
                                    <g id="Page-1" transform="translate(0.666667, 0.000000)">
                                        <path d="M16,8 C16,12.418 12.418,16 8,16 C3.582,16 0,12.418 0,8 C0,3.582 3.582,0 8,0 C12.418,0 16,3.582 16,8" id="Fill-1" fill-opacity="0.5" fill="#000000" opacity="0.2"></path>
                                        <g transform="translate(2.000000, 2.000000)" stroke="#FFFFFF" stroke-linecap="round">
                                            <path d="M2,6 C2,3.791 3.791,2 6,2 C8.209,2 10,3.791 10,6 C10,8.209 8.209,10 6,10" id="Stroke-3" transform="translate(6.000000, 6.000000) rotate(-225.000000) translate(-6.000000, -6.000000) "></path>
                                            <path d="M6,2 L6,6" id="Line-2"></path>
                                        </g>
                                    </g>
                                </g>
                            </g>
                        </g>
                    </g>
                </g>
            </g>
        </g>
    </g>
</svg>