<svg width="16px" height="16px" viewBox="0 0 16 16" version="1.1" xmlns="http://www.w3.org/2000/svg" xmlns:xlink="http://www.w3.org/1999/xlink">
    <!-- Generator: Sketch 49.3 (51167) - http://www.bohemiancoding.com/sketch -->
    <desc>Created with Sketch.</desc>
    <defs></defs>
    <g id="Page-1" stroke="none" stroke-width="1" fill="none" fill-rule="evenodd">
        <g id="Mobile-Menu_Loggedin_v1.2.1" transform="translate(-161.000000, -464.000000)">
            <g id="Group-8" transform="translate(0.000000, 347.000000)">
                <g id="Group-Copy-5" transform="translate(16.000000, 45.000000)">
                    <g id="Fill-1">
                        <g id="Mask-+-Group-17-+-Line-+-Line-2-+-Line-2-Copy-2-+-Group-68-+-Group-68-Copy-+-Group-68-Copy-2-+-Feb-MM-Brushes-Mask">
                            <g id="Group-68-Copy" transform="translate(145.000000, 72.000000)">
                                <g id="Page-1">
                                    <path d="M16,8 C16,12.418 12.418,16 8,16 C3.582,16 0,12.418 0,8 C0,3.582 3.582,0 8,0 C12.418,0 16,3.582 16,8" id="Fill-1" fill="#E7B4AC" opacity="0.5"></path>
                                    <g id="Group" transform="translate(4.000000, 5.000000)" fill-rule="nonzero" stroke="#FFFFFF">
                                        <path d="M7.33724024,0.655728981 C6.45346643,-0.218607372 5.02060463,-0.218607372 4.13664259,0.655915268 L3.99998235,0.7914388 L3.86332212,0.655915268 C2.97954832,-0.218607372 1.54649828,-0.218607372 0.663006829,0.655915268 C-0.220955211,1.53071734 -0.220955211,2.94854497 0.662724473,3.82353333 L3.77136824,6.89949836 L3.79009784,6.91822016 C3.84572194,6.96851756 3.91885211,7 3.99988824,7 C4.08064201,7 4.15320746,6.96898327 4.20854921,6.91943103 L4.22982001,6.89810121 L7.33724024,3.82297447 C8.22091992,2.94854497 8.22091992,1.53043791 7.33724024,0.655728981 Z" id="Shape-Copy-3"></path>
                                    </g>
                                </g>
                            </g>
                        </g>
                    </g>
                </g>
            </g>
        </g>
    </g>
</svg>