<svg width="17px" height="16px" viewBox="0 0 17 16" version="1.1" xmlns="http://www.w3.org/2000/svg" xmlns:xlink="http://www.w3.org/1999/xlink">
    <!-- Generator: Sketch 49.3 (51167) - http://www.bohemiancoding.com/sketch -->
    <desc>Created with Sketch.</desc>
    <defs></defs>
    <g id="Page-1" stroke="none" stroke-width="1" fill="none" fill-rule="evenodd">
        <g id="Mobile-Menu_Loggedin_v1.2.1" transform="translate(-262.000000, -464.000000)">
            <g id="Group-8" transform="translate(0.000000, 347.000000)">
                <g id="Group-Copy-5" transform="translate(16.000000, 45.000000)">
                    <g id="Fill-1">
                        <g id="Mask-+-Group-17-+-Line-+-Line-2-+-Line-2-Copy-2-+-Group-68-+-Group-68-Copy-+-Group-68-Copy-2-+-Feb-MM-Brushes-Mask">
                            <g id="Group-68-Copy-2" transform="translate(246.000000, 72.000000)">
                                <g id="Group-11" transform="translate(0.500000, 0.000000)">
                                    <g id="Page-1" fill="#E7B4AC" opacity="0.5">
                                        <path d="M16,8 C16,12.418 12.418,16 8,16 C3.582,16 0,12.418 0,8 C0,3.582 3.582,0 8,0 C12.418,0 16,3.582 16,8" id="Fill-1"></path>
                                    </g>
                                    <g id="Group-3" transform="translate(4.500000, 3.500000)" stroke="#FFFFFF" stroke-linecap="round" stroke-linejoin="round">
                                        <polyline id="Stroke-2" points="1.3125 4.75 0 4.75 0 8.25 7 8.25 7 4.75 5.6875 4.75"></polyline>
                                        <polyline id="Stroke-4" points="4.9141 2 3.5001 0.586 2.0861 2"></polyline>
                                        <polygon id="Stroke-8" points="3.5 3.5 3.5 6 3.5 3.5 3.5 1"></polygon>
                                    </g>
                                </g>
                            </g>
                        </g>
                    </g>
                </g>
            </g>
        </g>
    </g>
</svg>