<svg width="19px" height="16px" viewBox="0 0 19 16" version="1.1" xmlns="http://www.w3.org/2000/svg" xmlns:xlink="http://www.w3.org/1999/xlink">
  <!-- Generator: Sketch 49.3 (51167) - http://www.bohemiancoding.com/sketch -->
  <desc>Created with Sketch.</desc>
  <defs></defs>
  <g id="Page-1" stroke="none" stroke-width="1" fill="none" fill-rule="evenodd">
    <g id="Review-Page" transform="translate(-435.000000, -695.000000)" fill="#FFB8BB">
      <g id="hero-reviews" transform="translate(235.000000, 359.000000)">
        <g id="Group-17" transform="translate(36.000000, 172.000000)">
          <path d="M166.709961,171.226562 L164,171.226562 L164,164 L171.226562,164 L171.226562,169.444336 C171.226562,175.433949 168.817732,178.640297 164,179.063477 L164,176.353516 C165.80665,175.83268 166.709961,174.375989 166.709961,171.983398 L166.709961,171.226562 Z M177.709961,171.226562 L175,171.226562 L175,164 L182.226562,164 L182.226562,169.444336 C182.226562,175.433949 179.817732,178.640297 175,179.063477 L175,176.353516 C176.80665,175.83268 177.709961,174.375989 177.709961,171.983398 L177.709961,171.226562 Z" id="IMG_icon-open_apostrophe"></path>
        </g>
      </g>
    </g>
  </g>
</svg>