<svg width="19px" height="16px" viewBox="0 0 19 16" version="1.1" xmlns="http://www.w3.org/2000/svg" xmlns:xlink="http://www.w3.org/1999/xlink">
  <!-- Generator: Sketch 49.3 (51167) - http://www.bohemiancoding.com/sketch -->
  <desc>Created with Sketch.</desc>
  <defs></defs>
  <g id="Page-1" stroke="none" stroke-width="1" fill="none" fill-rule="evenodd">
    <g id="Review-Page" transform="translate(-271.000000, -534.000000)" fill="#FFB8BB">
      <g id="hero-reviews" transform="translate(235.000000, 359.000000)">
        <g id="Group-17" transform="translate(36.000000, 172.000000)">
          <path d="M4.51660156,10.8369141 L7.2265625,10.8369141 L7.2265625,18.0634766 L0,18.0634766 L0,12.5947266 C0,6.6213894 2.40883008,3.4231792 7.2265625,3 L7.2265625,5.70996094 C5.41991284,6.21452075 4.51660156,7.66307397 4.51660156,10.0556641 L4.51660156,10.8369141 Z M15.3564453,10.8369141 L18.0664062,10.8369141 L18.0664062,18.0634766 L10.8398438,18.0634766 L10.8398438,12.5947266 C10.8398438,6.6213894 13.2486738,3.4231792 18.0664062,3 L18.0664062,5.70996094 C16.2597566,6.21452075 15.3564453,7.66307397 15.3564453,10.0556641 L15.3564453,10.8369141 Z" id="IMG_icon-open_apostrophe"></path>
        </g>
      </g>
    </g>
  </g>
</svg>