<svg width="58px" height="40px" viewBox="0 0 58 40" version="1.1" xmlns="http://www.w3.org/2000/svg" xmlns:xlink="http://www.w3.org/1999/xlink">
  <g id="Desktop" stroke="none" stroke-width="1" fill="none" fill-rule="evenodd">
    <g id="Shop---Home" transform="translate(-1392.000000, -3988.000000)" fill="#000000" fill-rule="nonzero">
      <g id="footer" transform="translate(-14.000000, 3875.000000)">
        <g id="Group-2" transform="translate(1311.000000, 111.000000)">
          <g id="youtube" transform="translate(95.000000, 2.000000)">
            <path d="M55.1958323,3.37937735 C53.1226328,0.979095552 49.2949026,0 41.9847902,0 L15.4491341,0 C7.97172056,0 4.07914499,1.04225137 2.01372698,3.59771602 C0,6.08930308 0,9.76046029 0,14.8414357 L0,24.5257481 C0,34.3692132 2.38927437,39.3670034 15.4491341,39.3670034 L41.9849755,39.3670034 C48.3242599,39.3670034 51.8370268,38.5030318 54.1095795,36.3847859 C56.4401225,34.2125868 57.4344801,30.6659367 57.4344801,24.5257481 L57.4344801,14.8414357 C57.4344801,9.48311604 57.2786659,5.79030541 55.1958323,3.37937735 Z M36.8731215,21.0206005 L24.8233676,27.1541126 C24.5539813,27.291251 24.259398,27.3592788 23.9651853,27.3592788 C23.6320653,27.3592788 23.2996864,27.2719433 23.0052884,27.0983551 C22.450953,26.7712079 22.1124601,26.1860242 22.1124601,25.554827 L22.1124601,13.3271397 C22.1124601,12.6970252 22.4500266,12.1123828 23.0032504,11.7850552 C23.5566594,11.4577277 24.2449468,11.4353525 24.8191063,11.7258692 L36.8688602,17.8198639 C37.481927,18.1298687 37.8669233,18.7462694 37.8678496,19.4187886 C37.8685907,20.0918491 37.4852619,20.7091521 36.8731215,21.0206005 Z" id="XMLID_823_"></path>
          </g>
        </g>
      </g>
    </g>
  </g>
</svg>