<svg width="40px" height="40px" viewBox="0 0 40 40" version="1.1" xmlns="http://www.w3.org/2000/svg" xmlns:xlink="http://www.w3.org/1999/xlink">
  <g id="Desktop" stroke="none" stroke-width="1" fill="none" fill-rule="evenodd">
    <g id="Shop---Home" transform="translate(-1297.000000, -3986.000000)" fill="#000000">
      <g id="footer" transform="translate(-14.000000, 3875.000000)">
        <g id="Group-2" transform="translate(1311.000000, 111.000000)">
          <path d="M35.3852979,16.921244 L31.9035821,16.921244 C32.1569875,17.9062383 32.3073789,18.9351503 32.3073789,19.9991629 C32.3073789,26.7978058 26.7967455,32.3073789 19.999721,32.3073789 C13.2029755,32.3073789 7.69262105,26.7978058 7.69262105,19.9991629 C7.69262105,18.9351503 7.84329154,17.9062383 8.09697599,16.921244 L4.61442307,16.921244 L4.61442307,33.8457804 C4.61442307,34.6942784 5.30354522,35.3831216 6.15449863,35.3831216 L33.8452224,35.3831216 C34.6964548,35.3831216 35.3852979,34.6942784 35.3852979,33.8457804 L35.3852979,16.921244 Z M35.3852979,6.15282451 C35.3852979,5.30354522 34.6964548,4.61442307 33.8452224,4.61442307 L29.2310783,4.61442307 C28.3814642,4.61442307 27.6926769,5.30354522 27.6926769,6.15282451 L27.6926769,10.7689217 C27.6926769,11.6182568 28.3814642,12.3073231 29.2310783,12.3073231 L33.8452224,12.3073231 C34.6964548,12.3073231 35.3852979,11.6182568 35.3852979,10.7689217 L35.3852979,6.15282451 Z M19.999721,12.3073231 C15.751204,12.3073231 12.3073231,15.7507017 12.3073231,19.9991629 C12.3073231,24.2474009 15.751204,27.6926769 19.999721,27.6926769 C24.248517,27.6926769 27.6926769,24.2474009 27.6926769,19.9991629 C27.6926769,15.7507017 24.248517,12.3073231 19.999721,12.3073231 L19.999721,12.3073231 Z M35.3852979,40 L4.61442307,40 C2.06619457,40 0,37.9329684 0,35.3831216 L0,4.61442307 C0,2.06591555 2.06619457,0 4.61442307,0 L35.3852979,0 C37.9346425,0 40,2.06591555 40,4.61442307 L40,35.3831216 C40,37.9329684 37.9346425,40 35.3852979,40 L35.3852979,40 Z" id="instagram-instagram"></path>
        </g>
      </g>
    </g>
  </g>
</svg>