<svg width="50px" height="40px" viewBox="0 0 50 40" version="1.1" xmlns="http://www.w3.org/2000/svg" xmlns:xlink="http://www.w3.org/1999/xlink">
  <g id="Desktop" stroke="none" stroke-width="1" fill="none" fill-rule="evenodd">
    <g id="Shop---Home" transform="translate(-1453.000000, -3991.000000)" fill="#000000">
      <g id="footer" transform="translate(-14.000000, 3875.000000)">
        <g id="Group-2" transform="translate(1311.000000, 111.000000)">
          <path d="M206,9.73494472 C204.160774,10.5383506 202.183921,11.0808213 200.108366,11.324933 C202.226193,10.0749159 203.852876,8.09606537 204.618575,5.73830941 C202.636979,6.89507656 200.441445,7.73597473 198.104936,8.18862872 C196.233693,6.22584632 193.567453,5 190.617171,5 C184.951612,5 180.358674,9.52104649 180.358674,15.097576 C180.358674,15.8895145 180.449564,16.6600288 180.6243,17.3990249 C172.098792,16.9778892 164.540156,12.9577697 159.480907,6.84810822 C158.597741,8.33949049 158.091948,10.0742979 158.091948,11.9250841 C158.091948,15.4281398 159.902924,18.5188491 162.655311,20.3300831 C160.97373,20.2777587 159.391969,19.8231134 158.009149,19.0667445 C158.008172,19.1089748 158.008172,19.1512051 158.008172,19.1941221 C158.008172,24.086658 161.544255,28.1678226 166.237013,29.0958594 C165.376029,29.3265811 164.469634,29.449976 163.534361,29.449976 C162.873294,29.449976 162.230573,29.3862528 161.604175,29.2689006 C162.909707,33.2802994 166.698232,36.1999588 171.186957,36.2818101 C167.676056,38.9902493 163.25304,40.6043398 158.446861,40.6043398 C157.618871,40.6043398 156.80239,40.5567534 156,40.4635034 C160.539855,43.3289157 165.931487,45 171.724767,45 C190.593315,45 200.911453,29.6129232 200.911453,16.26842 C200.911453,15.8305294 200.901269,15.3953169 200.881528,14.9620957 C202.885585,13.5384879 204.625341,11.7601456 206,9.73494472 Z" id="twitter-twitter"></path>
        </g>
      </g>
    </g>
  </g>
</svg>