<svg width="31px" height="40px" viewBox="0 0 31 40" version="1.1" xmlns="http://www.w3.org/2000/svg" xmlns:xlink="http://www.w3.org/1999/xlink">
  <g id="Desktop" stroke="none" stroke-width="1" fill="none" fill-rule="evenodd">
    <g id="Shop---Home" transform="translate(-1546.000000, -3986.000000)" fill="#000000">
      <g id="footer" transform="translate(-14.000000, 3875.000000)">
        <g id="Group-2" transform="translate(1311.000000, 111.000000)">
          <path d="M279.4,13.1612959 C279.4,22.1765846 274.483271,28.9089913 267.229635,28.9089913 C264.794773,28.9089913 262.504433,27.5672979 261.718215,26.043628 C261.718215,26.043628 260.4088,31.3395305 260.132191,32.3607978 C259.157128,35.9684088 256.283603,39.5814886 256.06156,39.8801512 C255.905642,40.083947 255.560278,40.0196609 255.524667,39.7493468 C255.461829,39.2888529 254.73045,34.7324639 255.593149,31.015812 C256.026004,29.1520731 258.494011,18.4962053 258.494011,18.4962053 C258.494011,18.4962053 257.773589,17.0286183 257.773589,14.8604691 C257.773589,11.4550356 259.713031,8.91333499 262.123514,8.91333499 C264.175265,8.91333499 265.167146,10.4812016 265.167146,12.3618491 C265.167146,14.4643171 263.854773,17.6060213 263.175604,20.5163625 C262.60847,22.9547701 264.375339,24.941724 266.736351,24.941724 C271.009467,24.941724 273.885676,19.3498934 273.885676,12.725858 C273.885676,7.69100619 270.557929,3.92016872 264.501345,3.92016872 C257.661225,3.92016872 253.396163,9.11824694 253.396163,14.924811 C253.396163,16.9253253 253.976883,18.3384476 254.883738,19.429414 C255.300268,19.9315934 255.360422,20.13405 255.209544,20.711732 C255.097509,21.1357301 254.853771,22.1515286 254.746776,22.5558838 C254.598857,23.1362444 254.136088,23.3455091 253.618206,23.1308314 C250.468072,21.8191048 249,18.3035702 249,14.3528767 C249,7.82504718 254.40437,0 265.120086,0 C273.735347,1.98255307e-15 279.4,6.34629942 279.4,13.1612959 Z" id="pinterest-pinterest-copy"></path>
        </g>
      </g>
    </g>
  </g>
</svg>