<svg width="40px" height="40px" viewBox="0 0 40 40" version="1.1" xmlns="http://www.w3.org/2000/svg" xmlns:xlink="http://www.w3.org/1999/xlink">
  <g id="Desktop" stroke="none" stroke-width="1" fill="none" fill-rule="evenodd">
    <g id="Shop---Home" transform="translate(-1345.000000, -3988.000000)" fill="#000000">
      <g id="footer" transform="translate(-14.000000, 3875.000000)">
        <g id="Group-2" transform="translate(1311.000000, 111.000000)">
          <path d="M85.7923984,2 L50.2076016,2 C48.9880077,2 48,2.98800775 48,4.2076016 L48,39.7923984 C48,41.01149 48.9880077,42 50.2076016,42 L69.3651304,42 L69.3651304,26.5100698 L64.1526013,26.5100698 L64.1526013,20.4730384 L69.3651304,20.4730384 L69.3651304,16.0212278 C69.3651304,10.8544579 72.5204493,8.04138416 77.1297384,8.04138416 C79.3373401,8.04138416 81.2343372,8.20572659 81.7874653,8.27927611 L81.7874653,13.6784692 L78.5912979,13.6798085 C76.0844759,13.6798085 75.5994844,14.8711098 75.5994844,16.6187758 L75.5994844,20.4730384 L81.5771405,20.4730384 L80.7988995,26.5100698 L75.5994844,26.5100698 L75.5994844,42 L85.7923984,42 C87.01149,42 88,41.01149 88,39.7923984 L88,4.2076016 C88,2.98800775 87.01149,2 85.7923984,2 Z" id="facebook-facebook"></path>
        </g>
      </g>
    </g>
  </g>
</svg>