<svg width="42px" height="40px" viewBox="0 0 42 40" version="1.1" xmlns="http://www.w3.org/2000/svg" xmlns:xlink="http://www.w3.org/1999/xlink">
  <g id="Desktop" stroke="none" stroke-width="1" fill="none" fill-rule="evenodd">
    <g id="Shop---Home" transform="translate(-1500.000000, -3988.000000)" fill="#000000">
      <g id="footer" transform="translate(-14.000000, 3875.000000)">
        <g id="Group-2" transform="translate(1311.000000, 111.000000)">
          <path d="M224.132659,42 C224.02521,42 223.919544,41.9970251 223.81382,41.9916825 L223.81382,41.9916825 C223.746448,41.9970251 223.676223,42 223.605343,42 C221.132762,42 219.54576,40.8545548 218.010966,39.7469936 C216.95122,38.98221 215.951294,38.260653 214.773039,38.0602441 C214.198153,37.9630449 213.625586,37.9138078 213.07282,37.9138078 C212.076342,37.9138078 211.290066,38.0709293 210.716369,38.1853706 C210.367917,38.2553104 210.067155,38.3146256 209.838342,38.3146256 C209.599658,38.3146256 209.340698,38.2624136 209.228016,37.8699133 C209.130497,37.529625 209.059617,37.2005683 208.991711,36.8821968 C208.816295,36.0622263 208.692078,35.5582596 208.355281,35.5055012 C204.433829,34.8871539 203.31135,34.0434452 203.061071,33.4452541 C203.025691,33.3598329 203.005355,33.2738653 203.000717,33.189112 C202.987932,32.9590758 203.14759,32.7562992 203.37004,32.7189616 C209.398733,31.7051391 212.102447,25.4139634 212.214534,25.1471967 C212.217448,25.1394863 212.220896,25.1323831 212.22381,25.1252798 C212.593133,24.361589 212.665143,23.6988008 212.439838,23.1556751 C212.025799,22.1602482 210.676291,21.7226999 209.78316,21.4333486 C209.564813,21.3628017 209.357526,21.2960797 209.19436,21.2299648 C207.411606,20.5108363 207.263544,19.7720979 207.333234,19.3958683 C207.452873,18.7546934 208.292547,18.3076741 208.971374,18.3076741 C209.157196,18.3076741 209.321551,18.3414297 209.459148,18.4069375 C210.261063,18.7905739 210.983476,18.9850331 211.607122,18.9850331 C212.468262,18.9850331 212.844602,18.6153603 212.890447,18.5667304 C212.868387,18.150249 212.841688,17.7150685 212.8138,17.2659243 C212.633806,14.3557759 212.411356,10.7400376 213.313168,8.67590494 C216.015752,2.488546 221.747131,2.00801393 223.439264,2.00801393 C223.48285,2.00801393 224.181419,2.00030356 224.181419,2.00030356 L224.281316,2 C225.977492,2 231.721121,2.48144275 234.425369,8.67208011 C235.327776,10.7370627 235.104196,14.356383 234.924797,17.2644672 L234.917245,17.3907473 C234.892271,17.7956934 234.867891,18.1893472 234.84815,18.566184 C234.891082,18.6109284 235.237215,18.9509132 236.018199,18.9814511 L236.018793,18.9814511 C236.612291,18.95832 237.294567,18.7650751 238.043085,18.4069375 C238.262621,18.302635 238.506478,18.2803539 238.671963,18.2803539 C238.925156,18.2803539 239.182392,18.3305016 239.395506,18.4212047 L239.408291,18.4268509 C240.013979,18.6458983 240.410595,19.0790146 240.419277,19.5319836 C240.426829,19.9582395 240.108049,20.5994751 238.544237,21.2299648 C238.382201,21.2952297 238.174914,21.3624982 237.955437,21.4333486 C237.061711,21.7230035 235.712798,22.1602482 235.299353,23.1556751 C235.072859,23.6988008 235.145463,24.3610426 235.514192,25.1246727 C235.517641,25.131776 235.521149,25.1388792 235.524063,25.1471967 C235.63615,25.4139634 238.337485,31.7033177 244.369152,32.7183545 C244.591542,32.7556921 244.750665,32.9584687 244.738475,33.1885049 C244.733242,33.2744725 244.712906,33.3616543 244.676931,33.4458005 C244.427782,34.0399239 243.306492,34.8824184 239.383316,35.5013728 C239.062812,35.5517634 238.938535,35.9780194 238.747481,36.8721187 C238.67779,37.1975934 238.60697,37.5171791 238.510522,37.8533391 C238.426917,38.1450582 238.248648,38.2814163 237.949015,38.2814163 L237.900255,38.2814163 C237.692373,38.2814163 237.396784,38.2434716 237.022228,38.1687357 C236.358504,38.0359595 235.613495,37.9138078 234.666372,37.9138078 C234.112952,37.9138078 233.540385,37.9630449 232.964963,38.0602441 C231.787898,38.260653 230.788507,38.9809958 229.73108,39.7446259 C228.193432,40.8545548 226.60637,42 224.132659,42 Z" id="Shape"></path>
        </g>
      </g>
    </g>
  </g>
</svg>