<svg width="40px" height="49px" viewBox="0 0 40 49" version="1.1" xmlns="http://www.w3.org/2000/svg" xmlns:xlink="http://www.w3.org/1999/xlink">
  <g id="Page-1" stroke="none" stroke-width="1" fill="none" fill-rule="evenodd">
    <g id="Checkout---4b" transform="translate(-1658.000000, -1008.000000)" fill="#989898" fill-rule="nonzero">
      <g id="pin" transform="translate(1658.000000, 1007.000000)">
        <path d="M20.7247711,49.8183761 L19.4699196,49.8183761 L19.2239687,49.7217111 C18.5055529,49.4154506 17.8976517,48.9108338 17.4772154,48.2717368 L12.7589736,41.8580169 C9.90795098,37.9914186 7.06362086,34.1248203 4.22598328,30.2582221 C2.41024358,27.7516375 1.30946318,24.8300949 1.033641,21.7855386 C0.151060425,13.9103164 4.66739068,6.39176831 12.1968002,3.20170068 C19.3896091,0.200253776 26.4017194,1.14757035 32.4701814,5.94215221 C36.2312345,8.8754949 38.6214828,13.1324971 39.1108557,17.7691097 C39.7111465,22.3716869 38.4534154,27.0205221 35.5972714,30.7560466 C31.32743,36.555944 27.0592616,42.3558414 22.7927664,48.1557388 C22.361946,48.8535877 21.7139398,49.4031575 20.9406056,49.7265444 L20.7247711,49.8183761 Z M20.1073842,47.1890892 L20.1073842,47.1890892 C20.2791489,47.0229993 20.4322504,46.8399352 20.5641501,46.6429322 C24.8306453,40.8430348 29.0988136,35.0431374 33.3686551,29.24324 C35.8188037,26.0351684 36.896811,22.0439567 36.3802988,18.0929373 C35.9744582,14.1329474 33.945758,10.4921705 30.7435057,7.97694955 C25.4379935,3.78652367 19.5652883,2.99387103 13.2860113,5.61349135 C6.84244225,8.35085476 2.98357491,14.7927933 3.7491397,21.5342097 C3.98111585,24.116776 4.91031843,26.5960572 6.44456077,28.7260825 C9.26881327,32.5926808 12.1131434,36.459279 14.9775511,40.3258773 C16.5569909,42.465395 18.1330844,44.6081349 19.7058317,46.7540969 C19.8209951,46.9141416 19.9558234,47.0601979 20.1073842,47.1890892 Z M20.0571901,26.9909465 L19.9869184,26.9909465 C16.0037907,26.8890342 12.8263525,23.7566435 12.8141871,19.9199049 C12.8638058,16.0374324 16.1655807,12.9251141 20.1977335,12.9600281 C24.1793366,13.0489183 27.3648595,16.1719902 27.385523,20.0069034 C27.3496803,23.8779966 24.0775389,26.9964107 20.0571901,26.9909465 Z M20.1073842,15.5844816 C18.9026839,15.5825737 17.7460901,16.0395202 16.8899449,16.8556258 C16.0265369,17.6654146 15.5349985,18.7738609 15.5246664,19.9344047 C15.5264566,22.3312124 17.5087602,24.291412 19.9969572,24.3568265 C21.2171731,24.3722981 22.3935102,23.919016 23.2657762,23.0972411 C24.1380422,22.2754662 24.6343519,21.1529225 24.6449273,19.9779039 L24.6449273,19.9779039 C24.6319957,17.5839606 22.6431067,15.6345597 20.1575782,15.5796484 L20.1073842,15.5796484 L20.1073842,15.5844816 Z" id="Shape"></path>
      </g>
    </g>
  </g>
</svg>