<svg width="102px" height="102px" viewBox="0 0 102 102" version="1.1" xmlns="http://www.w3.org/2000/svg" xmlns:xlink="http://www.w3.org/1999/xlink">
  <g id="Page-1" stroke="none" stroke-width="1" fill="none" fill-rule="evenodd">
    <g id="MM-trade-single---step-1b" transform="translate(-909.000000, -319.000000)">
      <g id="oops-black" transform="translate(910.000000, 320.000000)">
        <circle id="Oval-2-Copy" stroke="#000000" stroke-width="3" cx="50" cy="50" r="50"></circle>
        <path d="M67.485799,68.9844677 C67.0629517,69.0077115 66.6503492,68.8489932 66.3520564,68.5483441 L50,52.1282921 L33.6479436,68.5483441 C33.2584751,68.937874 32.6908124,69.0900027 32.1587886,68.9474249 C31.6267648,68.8048471 31.2112069,68.3892237 31.0686515,67.857116 C30.9260962,67.3250083 31.0782009,66.7572562 31.4676694,66.3677263 L47.885134,49.9476743 L31.4676694,33.6584593 C31.1690495,33.3744272 31,32.9803108 31,32.5681504 C31,32.15599 31.1690495,31.7618736 31.4676694,31.4778415 C31.7483658,31.1732639 32.1436462,31 32.5578065,31 C32.9719668,31 33.3672472,31.1732639 33.6479436,31.4778415 L50.0654082,47.8978936 L66.3520564,31.4778415 C66.6327528,31.1732639 67.0280332,31 67.4421935,31 C67.8563538,31 68.2516342,31.1732639 68.5323306,31.4778415 C68.8309505,31.7618736 69,32.15599 69,32.5681504 C69,32.9803108 68.8309505,33.3744272 68.5323306,33.6584593 L52.114866,50.0130928 L68.5323306,66.3677263 C68.9707034,66.7895065 69.1070037,67.4363038 68.8761245,67.9991606 C68.6452453,68.5620174 68.0940377,68.9267158 67.485799,68.9190492 L67.485799,68.9844677 Z" id="close-copy" fill="#000000" fill-rule="nonzero"></path>
      </g>
    </g>
  </g>
</svg>