<svg xmlns="http://www.w3.org/2000/svg" xmlns:xlink="http://www.w3.org/1999/xlink" width="438" height="100" viewBox="0 0 438 100"><defs><path id="i300a" d="M1115.4 353.52c-.41.52-.89.8-1.41.83-.53.02-1.12.04-1.78.04-.66 0-1.4.09-2.25.27a6.7 6.7 0 0 0-2.76 1.53c-2.47 2.05-4.18 4-5.12 5.86-.95 1.86-1.32 3.54-1.1 5.03.2 1.5.87 2.76 2 3.78a9.64 9.64 0 0 0 4.22 2.16c1.69.42 3.53.49 5.52.2 2-.29 3.97-1.02 5.92-2.2a20.23 20.23 0 0 0 5.4-4.96 23.76 23.76 0 0 0 3.9-8.14c.95-3.3.95-6.4 0-9.27-.94-2.89-2.91-5.25-5.9-7.08a103.04 103.04 0 0 1-6.08-3.93 59.93 59.93 0 0 1-4.85-3.78 42.37 42.37 0 0 1-3.95-3.9 56.98 56.98 0 0 1-3.43-4.28c-.47 0-1.14-.11-2.01-.35a19.13 19.13 0 0 1-5.36-2.48 9.7 9.7 0 0 1-2.1-1.8 19.91 19.91 0 0 1-2.68-4.13c-.52-1.18-.7-1.96-.5-2.32.18-.37.72-.25 1.6.35.9.6 2.11 1.85 3.64 3.74 1 1.2 2.14 2.08 3.43 2.63 1.29.55 2.3.85 3.04.9-.8-3.35-1-6.78-.64-10.3a40.18 40.18 0 0 1 2.45-10.22 41.3 41.3 0 0 1 5.05-9.36c2.1-2.93 4.5-5.49 7.22-7.66 2.7-2.18 5.66-3.9 8.87-5.2a26.69 26.69 0 0 1 10.02-1.92c3.52 0 6.61.54 9.27 1.61a15.62 15.62 0 0 1 6.43 4.64 15.49 15.49 0 0 1 3.15 7.4c.47 2.9.29 6.22-.55 9.94a27.87 27.87 0 0 1-3.4 8.65 26.12 26.12 0 0 1-5.24 6.21 20.9 20.9 0 0 1-6.39 3.78 19.71 19.71 0 0 1-6.82 1.26c-.95 0-1.93-.15-2.96-.44a14.97 14.97 0 0 1-5.56-2.9 8.4 8.4 0 0 1-1.82-2.01c.37-.37.48-.26.32.31-.16.58-.6 1.33-1.3 2.24-.71.92-1.67 1.86-2.88 2.83s-2.68 1.7-4.42 2.17a15.7 15.7 0 0 0 2.45 3.3c1 1.05 2.09 2.07 3.27 3.07 1.18 1 2.43 1.99 3.75 2.98 1.31 1 2.65 2 4.02 3 4.58 3.4 7.76 7.04 9.55 10.92 1.78 3.88 2 8 .63 12.35a23.88 23.88 0 0 1-4.03 7.55 26.53 26.53 0 0 1-6.7 6.05 28.05 28.05 0 0 1-9.03 3.66c-3.4.76-7.06.85-11 .27-3.06-.47-5.32-1.57-6.8-3.3a9.88 9.88 0 0 1-2.4-5.98 15.2 15.2 0 0 1 1.38-7 16.83 16.83 0 0 1 4.66-6.2 13.33 13.33 0 0 1 5.12-3.03 9.75 9.75 0 0 1 4.23-.36c1.18.21 2.05.62 2.6 1.22.55.6.59 1.2.12 1.77m17.11-36.8c2.58 0 4.84-.88 6.79-2.63a19.91 19.91 0 0 0 4.73-6.6c1.21-2.66 2-5.53 2.37-8.62.36-3.1.26-5.95-.32-8.57a13.5 13.5 0 0 0-3.27-6.49c-1.6-1.7-3.8-2.53-6.59-2.48-2.16.06-4.42.74-6.78 2.05a27.25 27.25 0 0 0-6.83 5.54 42.2 42.2 0 0 0-6 8.7 47.45 47.45 0 0 0-4.21 11.47 30.07 30.07 0 0 0-.87 6.65c0 1.91.21 3.63.63 5.15 1.74-.63 3.1-1.43 4.1-2.4 1-.97 1.82-1.93 2.45-2.87l1.7-2.52a2.98 2.98 0 0 1 1.85-1.33c.37-.06.92.17 1.65.66.74.5 1.56 1.07 2.45 1.7.9.62 1.87 1.21 2.92 1.76a6.9 6.9 0 0 0 3.23.83"/><path id="i300b" d="M1158.8 334.18c1.2-1.78 2.53-3.8 3.98-6.05a79 79 0 0 1 4.53-6.37c1.58-2 3.19-3.67 4.82-5.03 1.62-1.37 3.26-2.05 4.89-2.05 2.3 0 3.9.74 4.77 2.2.87 1.47 1.3 3.33 1.3 5.59-.1 2.2-.49 4.66-1.14 7.39-.66 2.72-1.36 5.5-2.1 8.3-.73 2.8-1.41 5.54-2.05 8.21a31.3 31.3 0 0 0-.94 7.08 11.97 11.97 0 0 0 .43 2.99c.13.47.3.86.51 1.18.21.31.45.47.72.47.57 0 1.3-.5 2.16-1.5.87-1 1.78-2.28 2.73-3.85a137.22 137.22 0 0 0 5.68-10.7c.84-1.77 1.58-3.4 2.24-4.87l1.46-3.22c0-.21.03-.34.08-.4l.08.08.32-.86c.1-.26.24-.5.43-.7.18-.22.49-.32.9-.32.43 0 .76.11 1 .35.23.24.45.54.66.9a25.65 25.65 0 0 0-1.73 3.86l-.71 1.73a319.18 319.18 0 0 1-3.55 7.98 73.99 73.99 0 0 1-4.26 7.98 32.76 32.76 0 0 1-4.81 6.17c-1.69 1.65-3.45 2.48-5.29 2.48a9.27 9.27 0 0 1-4.06-.79 6.48 6.48 0 0 1-2.56-2.16c-.64-.92-1.08-2-1.35-3.22-.26-1.24-.39-2.59-.39-4.05.1-1.47.32-3.15.63-5.04a127.62 127.62 0 0 1 2.6-11.68 161.9 161.9 0 0 1 1.5-5.14l.4-1.26c.58-1.94 1.07-3.64 1.5-5.11.42-1.47.65-2.57.7-3.3 0-.74-.2-1.1-.62-1.1-1.06 0-2.2.61-3.44 1.84a34.2 34.2 0 0 0-3.86 4.76 86.25 86.25 0 0 0-3.99 6.37 536.2 536.2 0 0 0-3.7 6.6l-1.26 3.7a34.97 34.97 0 0 0-1.46 6.17 43.33 43.33 0 0 0-.52 6.41c0 1.94.2 3.45.6 4.52.39 1.08.59 1.74.59 2 0 .53-.45.8-1.34.8-1.53 0-2.78-.3-3.75-.91a7.29 7.29 0 0 1-2.37-2.36c-.6-.97-1.05-2.07-1.34-3.3a25.82 25.82 0 0 1-.59-3.74v-2.6c0-2.25.21-4.79.63-7.62a302.7 302.7 0 0 1 3.47-18.95c.8-3.62 1.68-7.16 2.68-10.62 1-3.46 2.1-6.73 3.32-9.82 1.2-3.1 2.52-5.76 3.94-7.99a18.47 18.47 0 0 1 4.5-5.07 6.03 6.03 0 0 1 4.97-1.18c.79.16 1.48.33 2.09.51.6.19 1.1.44 1.5.75.39.32.7.72.9 1.22.21.5.32 1.17.32 2 0 1.79-.43 4.03-1.3 6.73-.87 2.7-2.04 5.6-3.51 8.69-1.48 3.1-3.16 6.25-5.05 9.47-1.9 3.23-3.9 6.25-6 9.08zm13.8-40.57c-.47-.16-1.16.37-2.05 1.57-.9 1.2-1.88 3.02-2.96 5.43a91.48 91.48 0 0 0-3.35 8.96 129.31 129.31 0 0 0-3.24 12.19c.53-.63 1.2-1.61 2.01-2.95a114.15 114.15 0 0 0 5.37-9.87c.92-1.88 1.75-3.7 2.48-5.46a49.67 49.67 0 0 0 1.78-4.88c.44-1.5.67-2.71.67-3.65 0-.74-.24-1.18-.71-1.34z"/><path id="i300c" d="M1220.7 354.31c-.04.37-.07.88-.07 1.53 0 .66.1 1.2.28 1.66.18.44.5.65.98.62.48-.02 1.16-.5 2.05-1.45 1-1.1 2.12-2.6 3.36-4.52a87.1 87.1 0 0 0 3.7-6.37c1.24-2.33 2.46-4.77 3.67-7.31 1.21-2.55 2.34-5 3.4-7.36.1-.31.34-.5.7-.59.37-.08.73-.09 1.07-.04.34.06.63.18.87.36.23.18.3.4.2.67-.53 1.2-1.23 2.86-2.1 4.95-.87 2.1-1.86 4.36-3 6.8-1.13 2.44-2.4 4.92-3.82 7.43a45.78 45.78 0 0 1-4.58 6.73 22.85 22.85 0 0 1-5.12 4.68 8.1 8.1 0 0 1-5.6 1.33 4.64 4.64 0 0 1-2.8-1.33 8.27 8.27 0 0 1-1.7-2.64c-.42-1.02-.7-2.14-.83-3.34-.13-1.2-.2-2.39-.2-3.54-.73 1.15-1.56 2.39-2.48 3.7a21.94 21.94 0 0 1-3.2 3.61c-1.2 1.1-2.58 2-4.14 2.68-1.55.68-3.35.97-5.4.86a8.78 8.78 0 0 1-3.94-.98 8.64 8.64 0 0 1-2.76-2.36 10.2 10.2 0 0 1-1.66-3.38 14.67 14.67 0 0 1-.55-4.05c-.05-2.41.17-5.05.67-7.9.5-2.86 1.25-5.72 2.25-8.58 1-2.85 2.2-5.6 3.59-8.25a36.25 36.25 0 0 1 4.69-6.96 21.6 21.6 0 0 1 5.68-4.72 11.18 11.18 0 0 1 6.39-1.5c2 .17 3.52 1.18 4.57 3.04a20.02 20.02 0 0 1 2.21 6.64c.1-1.83.38-3.43.83-4.8a24 24 0 0 1 .99-2.67c.47-1.26 1.31-2 2.52-2.24 1.2-.24 2.4-.21 3.55.08 1.16.29 2.1.7 2.84 1.26.74.55.9 1 .47 1.37-.37.32-.8 1.35-1.3 3.1a97.67 97.67 0 0 0-1.54 6.34c-.52 2.46-1.04 5.15-1.54 8.06l-1.42 8.3a523.6 523.6 0 0 0-1.77 11.08m-9.78-35.7c-1.84.26-3.62 1.42-5.33 3.46a34.26 34.26 0 0 0-4.61 7.43 58.48 58.48 0 0 0-3.43 9.36 56.06 56.06 0 0 0-1.82 9.36 23.2 23.2 0 0 0 .24 7.31c.45 1.97 1.35 3.05 2.72 3.26 1.16.16 2.3-.08 3.43-.7a14.2 14.2 0 0 0 3.32-2.64 24.33 24.33 0 0 0 3-3.9 51.15 51.15 0 0 0 4.49-9c.55-1.44.96-2.7 1.22-3.8.16-.48.3-1.33.44-2.57a59.7 59.7 0 0 0 .23-8.92c-.08-1.62-.26-3.1-.55-4.44a9.3 9.3 0 0 0-1.22-3.19 2.12 2.12 0 0 0-2.13-1.02"/><path id="i300d" d="M1264.88 354.31c0 .37-.01.95-.04 1.73-.02.79.06 1.47.24 2.05.19.57.51.89.99.94.47.05 1.18-.47 2.13-1.57a66.88 66.88 0 0 0 7.45-10.15 132.3 132.3 0 0 0 4.06-7.15c1.42-2.68 2.95-5.74 4.58-9.2.52-.16.9-.24 1.1-.24.42 0 .74.13.95.4.21.26.37.55.47.86l-.55 1.42c-.47 1-1.14 2.49-2.01 4.48-.87 1.99-1.9 4.18-3.08 6.56a90.63 90.63 0 0 1-4.02 7.24 45.66 45.66 0 0 1-4.81 6.52 19.93 19.93 0 0 1-5.44 4.4 8.16 8.16 0 0 1-5.88.83 5.66 5.66 0 0 1-2.88-1.57 8.7 8.7 0 0 1-1.81-2.83c-.45-1.1-.74-2.28-.87-3.54a24.16 24.16 0 0 1-.12-3.62c.05-.41.1-.83.12-1.25.02-.42.09-.84.2-1.26-.32 1-.9 2.28-1.74 3.85a26.75 26.75 0 0 1-3.2 4.64 20.63 20.63 0 0 1-4.45 3.93 9.77 9.77 0 0 1-5.44 1.65 8.92 8.92 0 0 1-4.03-.86 7.81 7.81 0 0 1-2.84-2.36c-.73-1-1.3-2.15-1.7-3.46-.39-1.31-.61-2.67-.66-4.09-.1-2.57.1-5.33.63-8.3.52-2.96 1.31-5.9 2.36-8.8a48.77 48.77 0 0 1 3.9-8.3 35.06 35.06 0 0 1 5.21-6.84 20.86 20.86 0 0 1 6.32-4.44 13.14 13.14 0 0 1 7.13-1.06c.69.1 1.37.43 2.05.98a6.43 6.43 0 0 1 1.74 2.36c.47 1.02.8 2.28.99 3.77.18 1.5.14 3.24-.12 5.23.26-1 .54-2.23.83-3.7.28-1.46.56-2.95.82-4.47l.75-4.37c.24-1.39.46-2.53.67-3.42a185.04 185.04 0 0 0 2.37-13.53c.16-1.2.24-2.12.24-2.75 0-.94-.12-1.53-.36-1.77a1.13 1.13 0 0 0-.83-.35c-.31 0-.65.03-1.02.08s-.71-.08-1.03-.4c-.2-.2-.33-.48-.35-.82-.03-.34.12-.68.43-1.02.32-.34.86-.64 1.62-.9.76-.27 1.85-.4 3.27-.4 1.63 0 2.93.25 3.9.75a5.4 5.4 0 0 1 2.22 1.96c.5.82.8 1.73.9 2.75.1 1.03.08 2.06-.08 3.11-.31 2.3-.78 4.98-1.41 8.02a745.19 745.19 0 0 1-4.5 20.25c-.84 3.59-1.63 7.08-2.37 10.46-.74 3.38-1.38 6.6-1.93 9.63-.55 3.04-.9 5.69-1.07 7.94m-8.12-35.78a5.9 5.9 0 0 0-4.18 1.5 18.45 18.45 0 0 0-3.87 4.48 45.95 45.95 0 0 0-3.39 6.45 60.95 60.95 0 0 0-2.68 7.43 68.28 68.28 0 0 0-1.74 7.5 36.45 36.45 0 0 0-.59 6.57c.03 1.92.3 3.46.83 4.64.53 1.18 1.34 1.77 2.45 1.77 1.42 0 2.82-.74 4.22-2.24a32.3 32.3 0 0 0 3.98-5.38 82.4 82.4 0 0 0 3.55-6.57l2.84-5.86c.1-.26.26-.94.47-2.04.21-1.1.38-2.39.52-3.86.13-1.47.22-3.04.27-4.72.05-1.67 0-3.22-.16-4.64-.15-1.41-.43-2.6-.83-3.54-.39-.94-.95-1.44-1.69-1.49"/><path id="i300e" d="M1287.13 363.67a8.42 8.42 0 0 1-5.48-3.19 15.62 15.62 0 0 1-2.72-5.9 26.63 26.63 0 0 1-.67-7c.07-2.43.27-4.6.59-6.48.9-5.35 2.2-9.78 3.94-13.3a29.18 29.18 0 0 1 5.84-8.33 17.46 17.46 0 0 1 13.4-5.03c2.53.21 4.48 1.06 5.84 2.56a12.28 12.28 0 0 1 2.84 5.58c.53 2.23.72 4.7.56 7.4-.16 2.7-.52 5.34-1.07 7.93a59.87 59.87 0 0 1-2.01 7.28 42.32 42.32 0 0 1-2.2 5.34c.83.21 1.73.02 2.67-.59.95-.6 1.9-1.49 2.84-2.67a33.96 33.96 0 0 0 2.8-4.13 94.7 94.7 0 0 0 5.01-9.79 132.9 132.9 0 0 0 1.9-4.44c.31-.79.65-1.26 1.02-1.42.37-.15.7-.14.99.04.29.19.5.51.63.99.13.47.12.94-.04 1.41l-1.5 4.01a71.03 71.03 0 0 1-2.29 5.35 64.56 64.56 0 0 1-3.07 5.7 29.25 29.25 0 0 1-3.75 5 15 15 0 0 1-4.38 3.26 7.56 7.56 0 0 1-4.97.59 54.55 54.55 0 0 1-3.47 4.16 22.48 22.48 0 0 1-3.9 3.38 15.5 15.5 0 0 1-4.42 2.09c-1.55.44-3.2.51-4.93.2m4.41-3.95c.63 0 1.37-.2 2.21-.58a13.48 13.48 0 0 0 4.57-3.5 5.2 5.2 0 0 0 1.18-2.05 6.55 6.55 0 0 1-3.23-2.36 17 17 0 0 1-2.4-4.32 31.87 31.87 0 0 1-1.58-5.54c-.4-2.02-.63-4.04-.7-6.05-.09-2.02 0-3.97.23-5.86.24-1.89.62-3.54 1.14-4.95-.52.73-1.17 2.1-1.93 4.12a63.65 63.65 0 0 0-2.13 6.96 84.65 84.65 0 0 0-1.61 8.18c-.42 2.83-.6 5.42-.51 7.78.07 2.36.47 4.3 1.18 5.85a3.67 3.67 0 0 0 3.58 2.32m10.58-9.42a28.7 28.7 0 0 0 2.05-4.13 54.13 54.13 0 0 0 3.59-13.17c.34-2.41.4-4.61.15-6.6-.23-2-.84-3.62-1.81-4.88-.97-1.26-2.46-1.89-4.46-1.89-1.79 0-3.16.9-4.14 2.67-.97 1.79-1.7 4.2-2.17 7.24-.31 1.68-.48 3.6-.5 5.78-.04 2.17.19 4.28.66 6.33a16.67 16.67 0 0 0 2.29 5.46 7.5 7.5 0 0 0 4.34 3.19"/><path id="i300f" d="M1380.45 334.18c.57-.42 1.06-.58 1.45-.47.4.1.89.45 1.46 1.02v.08c-.94 2-1.96 3.68-3.03 5.07a11.47 11.47 0 0 1-3.71 3.19c-1.4.73-2.97 1.12-4.73 1.18-1.76.05-3.78-.27-6.04-.95-.79 2-1.8 4.26-3.03 6.8a38.09 38.09 0 0 1-4.42 7.04 21.45 21.45 0 0 1-5.8 5.15 9.5 9.5 0 0 1-7.02 1.14 7.3 7.3 0 0 1-3.4-1.61 7.71 7.71 0 0 1-1.96-2.9 15.14 15.14 0 0 1-.95-4.14 54.02 54.02 0 0 1-.24-5.34 48.5 48.5 0 0 1-3.9 6.29 28.14 28.14 0 0 1-4.42 4.8 15.42 15.42 0 0 1-4.77 2.82 9.2 9.2 0 0 1-4.9.4 7.38 7.38 0 0 1-3.42-1.65 7.7 7.7 0 0 1-2.01-3.07 16.12 16.12 0 0 1-.91-4.44 74.88 74.88 0 0 1 0-10.9 171.07 171.07 0 0 1 1.77-15.01c.27-1.84.49-3.44.67-4.8.19-1.36.25-2.36.2-2.99a6.65 6.65 0 0 0-.24-1.3l-.31-1.06-.16-.39v.08c-.1-.16-.17-.29-.2-.4-.02-.1-.04-.28-.04-.54-.1-.69.07-1.15.52-1.38.44-.24.96-.4 1.53-.51.9-.1 1.63-.12 2.21-.04.58.08 1.08.2 1.5.35a6.29 6.29 0 0 1 3.2 3.23 13.55 13.55 0 0 1 1.14 4.71c.05.84-.07 2.3-.35 4.37-.3 2.07-.65 4.4-1.07 7-.42 2.6-.84 5.3-1.26 8.1a83.8 83.8 0 0 0-.83 7.66c-.13 2.31-.07 4.2.2 5.66.26 1.47.84 2.15 1.73 2.05 1.63-.16 3.18-.98 4.66-2.48a27.64 27.64 0 0 0 4.14-5.58 57.17 57.17 0 0 0 3.55-7.4c1.07-2.7 2.01-5.33 2.8-7.9l.94-6.76c.27-1.83.49-3.43.68-4.8.18-1.36.24-2.35.2-2.98a6.85 6.85 0 0 0-.25-1.3l-.31-1.06-.16-.4v.09c-.1-.16-.17-.3-.2-.4-.02-.1-.03-.29-.03-.55-.11-.68.06-1.14.5-1.37.46-.24.97-.41 1.55-.52.89-.1 1.63-.11 2.2-.04.58.08 1.08.2 1.5.36a6.29 6.29 0 0 1 3.2 3.22 13.56 13.56 0 0 1 1.14 4.72c.05.84-.06 2.25-.35 4.25-.3 1.99-.65 4.24-1.07 6.76-.42 2.51-.83 5.14-1.22 7.86-.4 2.73-.67 5.24-.83 7.55a25 25 0 0 0 .16 5.78c.26 1.55.84 2.42 1.74 2.63 1.15.27 2.36-.18 3.62-1.33a23.75 23.75 0 0 0 3.67-4.4 43.68 43.68 0 0 0 3.16-5.63 54.14 54.14 0 0 0 2.09-5 20.84 20.84 0 0 1-2.1-5.1c-.55-2-.91-4.05-1.1-6.17-.18-2.13-.14-4.21.12-6.26.26-2.04.76-3.84 1.5-5.38a8.16 8.16 0 0 1 3.08-3.54c1.31-.81 2.94-1.06 4.89-.75a3.4 3.4 0 0 1 2.56 1.89c.6 1.1.9 2.7.87 4.8-.03 2.1-.4 4.69-1.1 7.78a91.27 91.27 0 0 1-3.36 10.85 4.8 4.8 0 0 0 3.27 1.5c1.24.05 2.46-.21 3.67-.8 1.21-.57 2.37-1.4 3.47-2.5s1.97-2.34 2.6-3.7zm-12.47-13.45c-.9-.31-1.6.04-2.13 1.07-.52 1.02-.9 2.37-1.14 4.05a35.86 35.86 0 0 0 .51 11.17 43.91 43.91 0 0 0 1.93-5.67c.5-1.89.87-3.59 1.1-5.11.24-1.52.34-2.8.28-3.81-.05-1.03-.23-1.59-.55-1.7z"/><path id="i300g" d="M1407.03 324.04c1.42-.63 2.47-.93 3.15-.9.68.02 1.1.2 1.22.55.14.34 0 .77-.39 1.3-.4.52-.96.96-1.7 1.33-2 1-3.35 2.08-4.06 3.26a4.87 4.87 0 0 0-.83 3.27 3.57 3.57 0 0 0 4.34 2.99 6.55 6.55 0 0 0 3.51-1.9 16.62 16.62 0 0 0 2.8-3.61c.8-1.36 1.4-2.76 1.86-4.2.44-1.45.67-2.7.67-3.74.1-2.68-.3-4.92-1.23-6.73-.92-1.8-2.64-3-5.16-3.57a8.7 8.7 0 0 0-5.37.63c-1.78.78-3.5 1.98-5.12 3.57a31.52 31.52 0 0 0-4.54 5.7 45.2 45.2 0 0 0-3.55 6.8 39.84 39.84 0 0 0-2.2 7c-.5 2.34-.68 4.42-.52 6.26.37 4.4 1.46 7.73 3.27 9.98a10.4 10.4 0 0 0 6.79 3.97c2.7.4 5.7-.05 8.99-1.33a34.88 34.88 0 0 0 9.82-6.1 39.69 39.69 0 0 0 9.03-11.28 88.2 88.2 0 0 0 6.51-15.3 169 169 0 0 0 4.77-18.32 669.44 669.44 0 0 0 3.83-20.36c.1-.84.05-1.5-.16-2-.21-.5-.31-.96-.31-1.38 0-.84.33-1.37 1.02-1.58a9.7 9.7 0 0 1 2.13-.39c.9.1 1.63.26 2.2.47a4.6 4.6 0 0 1 1.43.79c.37.31.66.67.87 1.06.2.4.42.83.63 1.3.52 1.26.97 3.34 1.34 6.25.37 2.9.65 6.25.87 10.03.2 3.77.36 7.78.47 12.03a703.76 703.76 0 0 1 .2 23.03 910.5 910.5 0 0 0-.04 7.47c.68-1.41 1.57-3.22 2.68-5.42a3435.44 3435.44 0 0 0 7.93-16.08 954.38 954.38 0 0 0 12.54-26.7c1.13-2.56 2.09-4.83 2.88-6.8a38.8 38.8 0 0 0 1.58-4.52l.15.24c0-.16.06-.4.16-.71.32-.47.74-.9 1.26-1.26a3.5 3.5 0 0 1 2.05-.55c1.53 0 2.83.26 3.9.79a6.14 6.14 0 0 1 2.5 2.08c.57.86.91 1.86 1.02 2.99a8.57 8.57 0 0 1-.4 3.42 355.8 355.8 0 0 0-9.07 30.11 210.53 210.53 0 0 0-4.5 22.89c-.84 6.5-1.11 11.93-.82 16.31.29 4.38.93 7.84 1.93 10.38 1 2.54 2.26 4.25 3.79 5.11a5.9 5.9 0 0 0 4.73.6 5.35 5.35 0 0 0 2.72-1.97c.76-1 1.2-1.96 1.3-2.87.1-.92-.23-1.63-1.02-2.13-.8-.5-2.19-.4-4.18.28-.32.1-.65.12-.99.04-.34-.08-.59-.21-.75-.4-.16-.18-.13-.41.08-.7.21-.29.71-.6 1.5-.9 1.74-.74 3.2-.95 4.38-.64 1.18.32 2.06.92 2.64 1.81.58.9.83 1.97.75 3.23a7.34 7.34 0 0 1-1.26 3.61 9.54 9.54 0 0 1-3.4 3c-1.5.83-3.35 1.28-5.56 1.33-3.62.1-6.56-.68-8.8-2.36a15.58 15.58 0 0 1-5.08-6.84 32.13 32.13 0 0 1-2.09-9.99c-.24-3.77-.17-7.73.2-11.87.16-2.52.54-5.44 1.14-8.77a410.48 410.48 0 0 1 4.46-20.92 1753.3 1753.3 0 0 1 3.98-16.23c.45-1.78.67-2.75.67-2.91.05-.21-.2.31-.79 1.57-.58 1.26-1.36 3-2.36 5.23a771.6 771.6 0 0 1-12.19 25.83c-1.5 2.99-2.9 5.69-4.22 8.1a75 75 0 0 1-3.51 5.9c-1.03 1.52-1.8 2.36-2.33 2.51-.63.16-1.2.16-1.73 0a2.96 2.96 0 0 1-1.34-.82c-.37-.4-.66-.84-.87-1.34-.21-.5-.3-.98-.24-1.45a601.03 601.03 0 0 0 .32-12.03 397.13 397.13 0 0 0 .12-15.1c-.03-2.46-.08-4.78-.16-6.96-.08-2.18-.2-4.08-.36-5.7-.78 3.46-1.8 7.26-3.07 11.4a124 124 0 0 1-4.56 12.5 97.74 97.74 0 0 1-6.25 12.23 56.83 56.83 0 0 1-8.14 10.58 40.2 40.2 0 0 1-10.16 7.54 27.75 27.75 0 0 1-12.3 3.07 24.6 24.6 0 0 1-9.4-1.37 18.34 18.34 0 0 1-6.9-4.45 18.91 18.91 0 0 1-4.22-6.96c-.94-2.7-1.39-5.67-1.34-8.92.06-2.46.38-5 .99-7.59a42.36 42.36 0 0 1 6.39-14.47 32.25 32.25 0 0 1 5-5.74 23.18 23.18 0 0 1 6-3.93 17.16 17.16 0 0 1 6.7-1.53c2.69-.05 4.9.35 6.63 1.22a10.3 10.3 0 0 1 4.1 3.57c1 1.53 1.69 3.33 2.06 5.43.36 2.1.52 4.35.47 6.76a16.71 16.71 0 0 1-1.17 5.2 22.82 22.82 0 0 1-2.96 5.46 19.05 19.05 0 0 1-4.35 4.32 9.12 9.12 0 0 1-5.4 1.77 5.33 5.33 0 0 1-3.95-1.69 6.97 6.97 0 0 1-1.97-4.09 8.07 8.07 0 0 1 1.03-4.91c.89-1.68 2.52-3.07 4.89-4.17"/><path id="i300h" d="M1500.02 363.2c-2.16 0-4.02-.42-5.6-1.26-1.58-.84-2.88-2-3.9-3.46a15.14 15.14 0 0 1-2.25-5.03c-.47-1.89-.68-3.91-.63-6.06l.08-.55v-1.22c0-.44.05-.85.15-1.22a47.46 47.46 0 0 1 2.73-10.3c1.34-3.5 3-6.7 4.96-9.59a29.3 29.3 0 0 1 6.67-7.08 12.9 12.9 0 0 1 7.8-2.75c1.8 0 3.23.4 4.3 1.18a7.12 7.12 0 0 1 2.41 3.07 12 12 0 0 1 .87 4.24c.05 1.58-.05 3.15-.31 4.72-.37 2.2-1.21 4.12-2.53 5.74a17.97 17.97 0 0 1-4.7 4.09 25.97 25.97 0 0 1-5.95 2.63 33.2 33.2 0 0 1-6.39 1.3 30.3 30.3 0 0 0-1.1 6.02 35 35 0 0 0-.12 3.73c.03 1.26.21 2.4.55 3.42.34 1.03.84 1.9 1.5 2.64a4.29 4.29 0 0 0 2.72 1.33 8.3 8.3 0 0 0 5.17-.94c1.7-.9 3.37-2.12 4.97-3.7 1.6-1.57 3.13-3.4 4.57-5.5a87.79 87.79 0 0 0 4.03-6.4 107.7 107.7 0 0 0 3.35-6.38c1-2.07 1.84-3.86 2.53-5.38.15-.37.4-.57.74-.6.34-.02.67.05 1 .2.3.16.57.38.78.67.2.3.23.6.08.9-.69 1.42-1.49 3.18-2.4 5.27a90.91 90.91 0 0 1-7.5 13.65 39.34 39.34 0 0 1-5.17 6.29 26.39 26.39 0 0 1-6.2 4.56 15.23 15.23 0 0 1-7.2 1.77m11.27-41.2c-1.1 0-2.23.6-3.4 1.8a30.25 30.25 0 0 0-3.38 4.33 50.12 50.12 0 0 0-3.04 5.3l-2.33 4.77c1.37-.05 2.88-.26 4.54-.63 1.66-.37 3.22-.95 4.7-1.73 1.46-.79 2.74-1.8 3.82-3.03a8.53 8.53 0 0 0 2.01-4.45 10.35 10.35 0 0 0-.4-3.93 4.59 4.59 0 0 0-.94-1.73c-.42-.47-.95-.7-1.58-.7"/></defs><g><g transform="translate(-1091 -277)"><g><use fill="#f05e7c" xlink:href="#i300a"/></g><g><use fill="#f05e7c" xlink:href="#i300b"/></g><g><use fill="#f05e7c" xlink:href="#i300c"/></g><g><use fill="#f05e7c" xlink:href="#i300d"/></g><g><use fill="#f05e7c" xlink:href="#i300e"/></g><g><use fill="#f05e7c" xlink:href="#i300f"/></g><g><use fill="#f05e7c" xlink:href="#i300g"/></g><g><use fill="#f05e7c" xlink:href="#i300h"/></g></g></g></svg>