<svg width="23" height="15" viewBox="0 0 23 15" fill="none" xmlns="http://www.w3.org/2000/svg">
<path fill-rule="evenodd" clip-rule="evenodd" d="M11.4998 0C6.65647 0 2.47473 3.92829 0.535186 6.09836C-0.178395 6.8958 -0.178395 8.10678 0.535186 8.90164C2.47473 11.0713 6.65647 15 11.4998 15C16.3431 15 20.5253 11.0713 22.4648 8.90164C23.1784 8.1042 23.1784 6.89279 22.4648 6.09836C20.5253 3.92829 16.3431 0 11.4998 0Z" fill="#f05e7c"/>
<path fill-rule="evenodd" clip-rule="evenodd" d="M11.5007 2.72729C8.88521 2.72729 6.76562 4.86363 6.76562 7.4998C6.76562 10.1364 8.88521 12.2727 11.5007 12.2727C14.1166 12.2727 16.2362 10.1364 16.2362 7.4998C16.2362 4.86363 14.1166 2.72729 11.5007 2.72729Z" fill="white"/>
</svg>
